<?xml version="1.0" encoding="utf-8"?>
<svg xmlns="http://www.w3.org/2000/svg" xmlns:xlink="http://www.w3.org/1999/xlink" width="600" height="400" viewBox="0 0 2400 1600">
<defs>
  <clipPath id="clip000">
    <rect x="0" y="0" width="2400" height="1600"/>
  </clipPath>
</defs>
<path clip-path="url(#clip000)" d="M0 1600 L2400 1600 L2400 0 L0 0  Z" fill="#ffffff" fill-rule="evenodd" fill-opacity="1"/>
<defs>
  <clipPath id="clip001">
    <rect x="480" y="0" width="1681" height="1600"/>
  </clipPath>
</defs>
<path clip-path="url(#clip000)" d="M553.744 1486.45 L1992.95 1486.45 L1992.95 47.2441 L553.744 47.2441  Z" fill="#ffffff" fill-rule="evenodd" fill-opacity="1"/>
<defs>
  <clipPath id="clip002">
    <rect x="553" y="47" width="1440" height="1440"/>
  </clipPath>
</defs>
<polyline clip-path="url(#clip002)" style="stroke:#000000; stroke-linecap:round; stroke-linejoin:round; stroke-width:4; stroke-opacity:1; fill:none" points="1985.82,766.846 1985.8,760.62 1985.71,754.394 1985.58,748.17 1985.39,741.946 1985.14,735.725 1984.84,729.506 1984.49,723.29 1984.08,717.077 1983.62,710.868 1983.1,704.663 1982.53,698.463 1981.91,692.269 1981.23,686.08 1980.5,679.897 1979.71,673.72 1978.87,667.551 1977.98,661.39 1977.03,655.236 1976.02,649.091 1974.97,642.955 1973.86,636.829 1972.7,630.712 1971.48,624.606 1970.21,618.511 1968.89,612.427 1967.51,606.354 1966.08,600.294 1964.6,594.247 1963.07,588.213 1961.48,582.193 1959.84,576.186 1958.15,570.195 1956.4,564.218 1954.61,558.257 1952.76,552.311 1950.86,546.382 1948.9,540.47 1946.9,534.575 1944.84,528.698 1942.74,522.839 1940.58,516.999 1938.37,511.178 1936.11,505.376 1933.8,499.595 1931.44,493.833 1929.03,488.093 1926.57,482.374 1924.06,476.676 1921.5,471.001 1918.89,465.348 1916.23,459.719 1913.52,454.112 1910.76,448.53 1907.96,442.972 1905.1,437.439 1902.2,431.931 1899.25,426.448 1896.25,420.992 1893.2,415.561 1890.11,410.158 1886.97,404.782 1883.78,399.434 1880.55,394.113 1877.27,388.821 1873.94,383.558 1870.57,378.325 1867.15,373.121 1863.69,367.946 1860.18,362.803 1856.63,357.69 1853.03,352.609 1849.39,347.559 1845.7,342.541 1841.97,337.556 1838.2,332.603 1834.38,327.684 1830.52,322.798 1826.62,317.946 1822.68,313.128 1818.69,308.345 1814.66,303.597 1810.59,298.884 1806.48,294.207 1802.33,289.566 1798.14,284.962 1793.91,280.394 1789.64,275.864 1785.33,271.371 1780.98,266.916 1776.59,262.499 1772.17,258.12 1767.7,253.781 1763.2,249.48 1758.66,245.219 1754.08,240.998 1749.47,236.817 1744.82,232.677 1740.13,228.577 1735.41,224.519 1730.65,220.501 1725.86,216.526 1721.04,212.593 1716.18,208.702 1711.28,204.853 1706.35,201.048 1701.39,197.285 1696.4,193.566 1691.37,189.891 1686.32,186.26 1681.23,182.674 1676.11,179.132 1670.95,175.635 1665.77,172.183 1660.56,168.776 1655.32,165.415 1650.05,162.1 1644.75,158.831 1639.42,155.609 1634.07,152.433 1628.69,149.305 1623.28,146.223 1617.84,143.189 1612.38,140.202 1606.89,137.263 1601.37,134.373 1595.83,131.53 1590.27,128.736 1584.68,125.991 1579.07,123.295 1573.43,120.648 1567.77,118.05 1562.09,115.502 1556.39,113.004 1550.67,110.555 1544.92,108.157 1539.15,105.809 1533.37,103.511 1527.56,101.265 1521.73,99.0685 1515.89,96.9234 1510.03,94.8295 1504.14,92.7869 1498.25,90.7957 1492.33,88.8562 1486.4,86.9685 1480.45,85.1327 1474.48,83.3489 1468.5,81.6174 1462.51,79.9381 1456.5,78.3114 1450.47,76.7372 1444.43,75.2157 1438.38,73.747 1432.32,72.3313 1426.25,70.9685 1420.16,69.659 1414.06,68.4026 1407.95,67.1997 1401.83,66.0501 1395.7,64.9541 1389.57,63.9116 1383.42,62.9229 1377.26,61.9878 1371.1,61.1067 1364.93,60.2794 1358.75,59.5061 1352.57,58.7867 1346.38,58.1215 1340.18,57.5104 1333.98,56.9534 1327.77,56.4507 1321.56,56.0022 1315.35,55.608 1309.13,55.2681 1302.91,54.9826 1296.69,54.7514 1290.47,54.5746 1284.24,54.4522 1278.02,54.3842 1271.79,54.3706 1265.56,54.4114 1259.34,54.5066 1253.11,54.6562 1246.89,54.8602 1240.67,55.1186 1234.45,55.4313 1228.24,55.7983 1222.02,56.2197 1215.82,56.6953 1209.61,57.2251 1203.41,57.8092 1197.22,58.4474 1191.03,59.1396 1184.85,59.886 1178.68,60.6863 1172.51,61.5405 1166.35,62.4486 1160.2,63.4105 1154.06,64.4261 1147.92,65.4954 1141.8,66.6182 1135.68,67.7945 1129.58,69.0242 1123.49,70.3071 1117.41,71.6433 1111.34,73.0325 1105.28,74.4747 1099.24,75.9698 1093.21,77.5177 1087.19,79.1182 1081.19,80.7712 1075.2,82.4766 1069.23,84.2343 1063.27,86.0441 1057.33,87.9059 1051.4,89.8195 1045.49,91.7848 1039.6,93.8017 1033.73,95.87 1027.88,97.9896 1022.04,100.16 1016.23,102.382 1010.43,104.654 1004.65,106.977 998.896,109.35 993.161,111.773 987.447,114.247 981.755,116.77 976.086,119.343 970.439,121.965 964.815,124.637 959.215,127.358 953.638,130.127 948.086,132.945 942.559,135.812 937.058,138.727 931.582,141.689 926.132,144.7 920.708,147.758 915.312,150.863 909.942,154.015 904.601,157.214 899.288,160.46 894.003,163.752 888.747,167.09 883.521,170.474 878.324,173.903 873.158,177.378 868.022,180.897 862.917,184.462 857.843,188.07 852.801,191.723 847.792,195.42 842.814,199.161 837.87,202.945 832.959,206.772 828.081,210.642 823.238,214.554 818.429,218.508 813.654,222.505 808.915,226.543 804.211,230.622 799.543,234.742 794.912,238.903 790.316,243.104 785.758,247.345 781.237,251.625 776.753,255.945 772.308,260.304 767.9,264.702 763.532,269.138 759.202,273.612 754.911,278.124 750.66,282.673 746.449,287.259 742.278,291.882 738.148,296.541 734.059,301.236 730.01,305.966 726.004,310.732 722.039,315.532 718.116,320.367 714.235,325.236 710.398,330.139 706.603,335.075 702.851,340.044 699.144,345.046 695.48,350.08 691.86,355.146 688.284,360.243 684.753,365.371 681.267,370.53 677.827,375.719 674.432,380.938 671.082,386.186 667.779,391.464 664.521,396.77 661.311,402.104 658.147,407.467 655.03,412.856 651.96,418.273 648.938,423.717 645.963,429.186 643.036,434.682 640.158,440.202 637.327,445.748 634.546,451.318 631.813,456.913 629.129,462.531 626.494,468.172 623.909,473.836 621.373,479.522 618.887,485.231 616.451,490.96 614.065,496.711 611.73,502.483 609.445,508.275 607.211,514.086 605.027,519.917 602.895,525.767 600.814,531.635 598.784,537.521 596.806,543.424 594.879,549.345 593.005,555.282 591.182,561.235 589.411,567.204 587.693,573.189 586.026,579.188 584.413,585.201 582.852,591.229 581.344,597.269 579.888,603.323 578.486,609.389 577.136,615.467 575.84,621.557 574.597,627.658 573.407,633.769 572.271,639.891 571.188,646.022 570.159,652.163 569.184,658.312 568.262,664.47 567.395,670.635 566.581,676.808 565.821,682.987 565.115,689.173 564.464,695.365 563.866,701.563 563.323,707.765 562.833,713.972 562.399,720.183 562.018,726.398 561.692,732.615 561.42,738.835 561.202,745.058 561.039,751.282 560.93,757.507 560.876,763.733 560.876,769.959 560.93,776.185 561.039,782.41 561.202,788.634 561.42,794.857 561.692,801.077 562.018,807.294 562.399,813.509 562.833,819.72 563.323,825.927 563.866,832.129 564.464,838.327 565.115,844.519 565.821,850.705 566.581,856.884 567.395,863.057 568.262,869.222 569.184,875.38 570.159,881.529 571.188,887.67 572.271,893.801 573.407,899.923 574.597,906.034 575.84,912.135 577.136,918.225 578.486,924.303 579.888,930.369 581.344,936.423 582.852,942.463 584.413,948.491 586.026,954.504 587.693,960.503 589.411,966.488 591.182,972.457 593.005,978.41 594.879,984.347 596.806,990.268 598.784,996.171 600.814,1002.06 602.895,1007.93 605.027,1013.78 607.211,1019.61 609.445,1025.42 611.73,1031.21 614.065,1036.98 616.451,1042.73 618.887,1048.46 621.373,1054.17 623.909,1059.86 626.494,1065.52 629.129,1071.16 631.813,1076.78 634.546,1082.37 637.327,1087.94 640.158,1093.49 643.036,1099.01 645.963,1104.51 648.938,1109.98 651.96,1115.42 655.03,1120.84 658.147,1126.23 661.311,1131.59 664.521,1136.92 667.779,1142.23 671.082,1147.51 674.432,1152.75 677.827,1157.97 681.267,1163.16 684.753,1168.32 688.284,1173.45 691.86,1178.55 695.48,1183.61 699.144,1188.65 702.851,1193.65 706.603,1198.62 710.398,1203.55 714.235,1208.46 718.116,1213.32 722.039,1218.16 726.004,1222.96 730.01,1227.73 734.059,1232.46 738.148,1237.15 742.278,1241.81 746.449,1246.43 750.66,1251.02 754.911,1255.57 759.202,1260.08 763.532,1264.55 767.9,1268.99 772.308,1273.39 776.753,1277.75 781.237,1282.07 785.758,1286.35 790.316,1290.59 794.912,1294.79 799.543,1298.95 804.211,1303.07 808.915,1307.15 813.654,1311.19 818.429,1315.18 823.238,1319.14 828.081,1323.05 832.959,1326.92 837.87,1330.75 842.814,1334.53 847.792,1338.27 852.801,1341.97 857.843,1345.62 862.917,1349.23 868.022,1352.79 873.158,1356.31 878.324,1359.79 883.521,1363.22 888.747,1366.6 894.003,1369.94 899.288,1373.23 904.601,1376.48 909.942,1379.68 915.312,1382.83 920.708,1385.93 926.132,1388.99 931.582,1392 937.058,1394.97 942.559,1397.88 948.086,1400.75 953.638,1403.56 959.215,1406.33 964.815,1409.05 970.439,1411.73 976.086,1414.35 981.755,1416.92 987.447,1419.45 993.161,1421.92 998.896,1424.34 1004.65,1426.72 1010.43,1429.04 1016.23,1431.31 1022.04,1433.53 1027.88,1435.7 1033.73,1437.82 1039.6,1439.89 1045.49,1441.91 1051.4,1443.87 1057.33,1445.79 1063.27,1447.65 1069.23,1449.46 1075.2,1451.22 1081.19,1452.92 1087.19,1454.57 1093.21,1456.17 1099.24,1457.72 1105.28,1459.22 1111.34,1460.66 1117.41,1462.05 1123.49,1463.38 1129.58,1464.67 1135.68,1465.9 1141.8,1467.07 1147.92,1468.2 1154.06,1469.27 1160.2,1470.28 1166.35,1471.24 1172.51,1472.15 1178.68,1473.01 1184.85,1473.81 1191.03,1474.55 1197.22,1475.24 1203.41,1475.88 1209.61,1476.47 1215.82,1477 1222.02,1477.47 1228.24,1477.89 1234.45,1478.26 1240.67,1478.57 1246.89,1478.83 1253.11,1479.04 1259.34,1479.19 1265.56,1479.28 1271.79,1479.32 1278.02,1479.31 1284.24,1479.24 1290.47,1479.12 1296.69,1478.94 1302.91,1478.71 1309.13,1478.42 1315.35,1478.08 1321.56,1477.69 1327.77,1477.24 1333.98,1476.74 1340.18,1476.18 1346.38,1475.57 1352.57,1474.91 1358.75,1474.19 1364.93,1473.41 1371.1,1472.59 1377.26,1471.7 1383.42,1470.77 1389.57,1469.78 1395.7,1468.74 1401.83,1467.64 1407.95,1466.49 1414.06,1465.29 1420.16,1464.03 1426.25,1462.72 1432.32,1461.36 1438.38,1459.94 1444.43,1458.48 1450.47,1456.95 1456.5,1455.38 1462.51,1453.75 1468.5,1452.07 1474.48,1450.34 1480.45,1448.56 1486.4,1446.72 1492.33,1444.84 1498.25,1442.9 1504.14,1440.91 1510.03,1438.86 1515.89,1436.77 1521.73,1434.62 1527.56,1432.43 1533.37,1430.18 1539.15,1427.88 1544.92,1425.53 1550.67,1423.14 1556.39,1420.69 1562.09,1418.19 1567.77,1415.64 1573.43,1413.04 1579.07,1410.4 1584.68,1407.7 1590.27,1404.96 1595.83,1402.16 1601.37,1399.32 1606.89,1396.43 1612.38,1393.49 1617.84,1390.5 1623.28,1387.47 1628.69,1384.39 1634.07,1381.26 1639.42,1378.08 1644.75,1374.86 1650.05,1371.59 1655.32,1368.28 1660.56,1364.92 1665.77,1361.51 1670.95,1358.06 1676.11,1354.56 1681.23,1351.02 1686.32,1347.43 1691.37,1343.8 1696.4,1340.13 1701.39,1336.41 1706.35,1332.64 1711.28,1328.84 1716.18,1324.99 1721.04,1321.1 1725.86,1317.17 1730.65,1313.19 1735.41,1309.17 1740.13,1305.11 1744.82,1301.02 1749.47,1296.87 1754.08,1292.69 1758.66,1288.47 1763.2,1284.21 1767.7,1279.91 1772.17,1275.57 1776.59,1271.19 1780.98,1266.78 1785.33,1262.32 1789.64,1257.83 1793.91,1253.3 1798.14,1248.73 1802.33,1244.13 1806.48,1239.48 1810.59,1234.81 1814.66,1230.1 1818.69,1225.35 1822.68,1220.56 1826.62,1215.75 1830.52,1210.89 1834.38,1206.01 1838.2,1201.09 1841.97,1196.14 1845.7,1191.15 1849.39,1186.13 1853.03,1181.08 1856.63,1176 1860.18,1170.89 1863.69,1165.75 1867.15,1160.57 1870.57,1155.37 1873.94,1150.13 1877.27,1144.87 1880.55,1139.58 1883.78,1134.26 1886.97,1128.91 1890.11,1123.53 1893.2,1118.13 1896.25,1112.7 1899.25,1107.24 1902.2,1101.76 1905.1,1096.25 1907.96,1090.72 1910.76,1085.16 1913.52,1079.58 1916.23,1073.97 1918.89,1068.34 1921.5,1062.69 1924.06,1057.02 1926.57,1051.32 1929.03,1045.6 1931.44,1039.86 1933.8,1034.1 1936.11,1028.32 1938.37,1022.51 1940.58,1016.69 1942.74,1010.85 1944.84,1004.99 1946.9,999.117 1948.9,993.222 1950.86,987.31 1952.76,981.381 1954.61,975.435 1956.4,969.474 1958.15,963.497 1959.84,957.506 1961.48,951.499 1963.07,945.479 1964.6,939.445 1966.08,933.397 1967.51,927.338 1968.89,921.265 1970.21,915.181 1971.48,909.086 1972.7,902.98 1973.86,896.863 1974.97,890.737 1976.02,884.601 1977.03,878.456 1977.98,872.302 1978.87,866.141 1979.71,859.972 1980.5,853.795 1981.23,847.612 1981.91,841.423 1982.53,835.229 1983.1,829.029 1983.62,822.824 1984.08,816.615 1984.49,810.402 1984.84,804.186 1985.14,797.967 1985.39,791.746 1985.58,785.522 1985.71,779.298 1985.8,773.072 1985.82,766.846 "/>
<polyline clip-path="url(#clip002)" style="stroke:#e26f46; stroke-linecap:round; stroke-linejoin:round; stroke-width:4; stroke-opacity:1; fill:none" points="1878.95,766.846 1876.49,765.607 1873.98,764.316 1871.44,762.97 1868.86,761.567 1866.25,760.107 1863.6,758.586 1860.92,757.004 1858.2,755.358 1855.45,753.646 1852.67,751.867 1849.87,750.019 1847.03,748.1 1844.18,746.109 1841.29,744.043 1838.39,741.901 1835.47,739.682 1832.53,737.384 1829.58,735.006 1826.61,732.546 1823.64,730.003 1820.65,727.376 1817.67,724.664 1814.69,721.866 1811.71,718.981 1808.73,716.009 1805.77,712.949 1802.81,709.801 1799.88,706.566 1796.96,703.242 1794.07,699.831 1791.21,696.332 1788.38,692.747 1785.58,689.077 1782.83,685.322 1780.11,681.485 1777.45,677.565 1774.83,673.567 1772.27,669.491 1769.77,665.34 1767.33,661.116 1764.96,656.822 1762.65,652.462 1760.42,648.037 1758.26,643.552 1756.18,639.01 1754.18,634.416 1752.27,629.771 1750.44,625.082 1748.7,620.351 1747.05,615.584 1745.49,610.785 1744.02,605.958 1742.65,601.107 1741.37,596.238 1740.19,591.355 1739.11,586.463 1738.12,581.566 1737.23,576.669 1736.44,571.777 1735.74,566.894 1735.14,562.025 1734.63,557.174 1734.21,552.345 1733.89,547.543 1733.65,542.771 1733.5,538.034 1733.44,533.334 1733.47,528.677 1733.57,524.064 1733.75,519.5 1734.01,514.987 1734.35,510.528 1734.75,506.126 1735.22,501.783 1735.76,497.501 1736.36,493.283 1737.02,489.13 1737.74,485.044 1738.51,481.026 1739.33,477.078 1740.2,473.2 1741.11,469.395 1742.06,465.662 1743.05,462.001 1744.08,458.415 1745.14,454.902 1746.23,451.463 1747.35,448.097 1748.49,444.806 1749.65,441.588 1750.84,438.443 1752.04,435.371 1753.26,432.372 1754.49,429.443 1755.73,426.586 1756.98,423.799 1758.23,421.08 1759.49,418.43 1760.76,415.848 1762.02,413.331 1763.29,410.88 1760.57,411.327 1757.78,411.754 1754.94,412.159 1752.03,412.539 1749.05,412.894 1746.02,413.221 1742.92,413.518 1739.75,413.783 1736.52,414.013 1733.23,414.207 1729.87,414.362 1726.45,414.475 1722.97,414.544 1719.42,414.567 1715.81,414.541 1712.15,414.463 1708.42,414.332 1704.63,414.144 1700.78,413.896 1696.88,413.587 1692.93,413.214 1688.92,412.774 1684.86,412.264 1680.75,411.682 1676.6,411.027 1672.4,410.294 1668.16,409.483 1663.89,408.59 1659.58,407.615 1655.23,406.554 1650.86,405.406 1646.46,404.17 1642.04,402.844 1637.61,401.426 1633.16,399.916 1628.7,398.312 1624.23,396.614 1619.76,394.822 1615.3,392.934 1610.84,390.95 1606.4,388.872 1601.97,386.7 1597.56,384.433 1593.18,382.073 1588.83,379.621 1584.51,377.078 1580.23,374.447 1576,371.728 1571.81,368.925 1567.67,366.038 1563.59,363.072 1559.56,360.029 1555.6,356.911 1551.71,353.722 1547.88,350.466 1544.13,347.145 1540.45,343.763 1536.85,340.325 1533.34,336.834 1529.9,333.294 1526.55,329.709 1523.29,326.084 1520.11,322.421 1517.03,318.727 1514.03,315.005 1511.13,311.259 1508.32,307.493 1505.6,303.711 1502.97,299.918 1500.44,296.118 1497.99,292.314 1495.64,288.511 1493.38,284.712 1491.21,280.92 1489.13,277.14 1487.14,273.374 1485.23,269.626 1483.41,265.9 1481.67,262.197 1480.01,258.521 1478.43,254.875 1476.94,251.26 1475.51,247.68 1474.16,244.136 1472.89,240.63 1471.68,237.165 1470.54,233.742 1469.46,230.363 1468.45,227.029 1467.5,223.741 1466.61,220.501 1465.78,217.309 1465,214.167 1464.28,211.075 1463.6,208.034 1462.97,205.044 1462.39,202.107 1461.85,199.222 1461.36,196.389 1460.9,193.608 1460.49,190.881 1458.55,192.843 1456.55,194.825 1454.48,196.826 1452.35,198.845 1450.15,200.879 1447.89,202.929 1445.55,204.992 1443.15,207.067 1440.67,209.151 1438.12,211.243 1435.5,213.341 1432.8,215.443 1430.02,217.546 1427.16,219.649 1424.23,221.749 1421.22,223.842 1418.12,225.927 1414.95,228.001 1411.69,230.061 1408.36,232.104 1404.94,234.127 1401.43,236.127 1397.85,238.1 1394.19,240.044 1390.44,241.955 1386.61,243.83 1382.71,245.665 1378.72,247.456 1374.66,249.201 1370.52,250.896 1366.31,252.538 1362.03,254.123 1357.67,255.647 1353.25,257.108 1348.76,258.502 1344.21,259.826 1339.6,261.078 1334.93,262.253 1330.21,263.349 1325.44,264.364 1320.62,265.295 1315.76,266.14 1310.87,266.897 1305.93,267.564 1300.97,268.138 1295.98,268.619 1290.98,269.005 1285.95,269.296 1280.91,269.49 1275.87,269.587 1270.82,269.587 1265.78,269.49 1260.74,269.296 1255.72,269.005 1250.71,268.619 1245.72,268.138 1240.76,267.564 1235.83,266.897 1230.93,266.14 1226.07,265.295 1221.25,264.364 1216.48,263.349 1211.76,262.253 1207.09,261.078 1202.48,259.826 1197.93,258.502 1193.44,257.108 1189.02,255.647 1184.66,254.123 1180.38,252.538 1176.17,250.896 1172.03,249.201 1167.97,247.456 1163.98,245.665 1160.08,243.83 1156.25,241.955 1152.51,240.044 1148.84,238.1 1145.26,236.127 1141.76,234.127 1138.34,232.104 1135,230.061 1131.74,228.001 1128.57,225.927 1125.47,223.842 1122.46,221.749 1119.53,219.649 1116.67,217.546 1113.89,215.443 1111.19,213.341 1108.57,211.243 1106.02,209.151 1103.54,207.067 1101.14,204.992 1098.8,202.929 1096.54,200.879 1094.34,198.845 1092.21,196.826 1090.15,194.825 1088.14,192.843 1086.2,190.881 1085.79,193.608 1085.33,196.389 1084.84,199.222 1084.3,202.107 1083.72,205.044 1083.09,208.034 1082.42,211.075 1081.69,214.167 1080.91,217.309 1080.08,220.501 1079.19,223.741 1078.24,227.029 1077.23,230.363 1076.15,233.742 1075.01,237.165 1073.81,240.63 1072.53,244.136 1071.18,247.68 1069.76,251.26 1068.26,254.875 1066.68,258.521 1065.02,262.197 1063.28,265.9 1061.46,269.626 1059.55,273.374 1057.56,277.14 1055.48,280.92 1053.31,284.712 1051.05,288.511 1048.7,292.314 1046.25,296.118 1043.72,299.918 1041.09,303.711 1038.37,307.493 1035.56,311.259 1032.66,315.005 1029.66,318.727 1026.58,322.421 1023.4,326.084 1020.14,329.709 1016.79,333.294 1013.36,336.834 1009.84,340.325 1006.24,343.763 1002.56,347.145 998.81,350.466 994.985,353.722 991.09,356.911 987.13,360.029 983.106,363.072 979.023,366.038 974.886,368.925 970.696,371.728 966.46,374.447 962.181,377.078 957.863,379.621 953.511,382.073 949.129,384.433 944.722,386.7 940.293,388.872 935.849,390.95 931.392,392.934 926.928,394.822 922.462,396.614 917.996,398.312 913.536,399.916 909.085,401.426 904.649,402.844 900.23,404.17 895.832,405.406 891.46,406.554 887.116,407.615 882.804,408.59 878.528,409.483 874.289,410.294 870.092,411.027 865.938,411.682 861.831,412.264 857.772,412.774 853.764,413.214 849.808,413.587 845.907,413.896 842.062,414.144 838.275,414.332 834.546,414.463 830.877,414.541 827.27,414.567 823.724,414.544 820.241,414.475 816.821,414.362 813.464,414.207 810.171,414.013 806.942,413.783 803.777,413.518 800.676,413.221 797.639,412.894 794.665,412.539 791.755,412.159 788.908,411.754 786.123,411.327 783.401,410.88 784.667,413.331 785.934,415.848 787.199,418.43 788.46,421.08 789.716,423.799 790.966,426.586 792.207,429.443 793.436,432.372 794.653,435.371 795.855,438.443 797.039,441.588 798.204,444.806 799.346,448.097 800.463,451.463 801.553,454.902 802.613,458.415 803.64,462.001 804.632,465.662 805.585,469.395 806.497,473.2 807.364,477.078 808.184,481.026 808.953,485.044 809.669,489.13 810.329,493.283 810.93,497.501 811.468,501.783 811.94,506.126 812.345,510.528 812.678,514.987 812.938,519.5 813.121,524.064 813.226,528.677 813.248,533.334 813.187,538.034 813.04,542.771 812.805,547.543 812.481,552.345 812.065,557.174 811.556,562.025 810.953,566.894 810.255,571.777 809.461,576.669 808.57,581.566 807.583,586.463 806.499,591.355 805.319,596.238 804.043,601.107 802.671,605.958 801.205,610.785 799.645,615.584 797.994,620.351 796.253,625.082 794.424,629.771 792.508,634.416 790.51,639.01 788.43,643.552 786.272,648.037 784.039,652.462 781.733,656.822 779.359,661.116 776.919,665.34 774.418,669.491 771.858,673.567 769.243,677.565 766.577,681.485 763.865,685.322 761.108,689.077 758.313,692.747 755.482,696.332 752.619,699.831 749.728,703.242 746.814,706.566 743.878,709.801 740.926,712.949 737.961,716.009 734.986,718.981 732.005,721.866 729.021,724.664 726.037,727.376 723.056,730.003 720.082,732.546 717.117,735.006 714.163,737.384 711.224,739.682 708.302,741.901 705.398,744.043 702.516,746.109 699.657,748.1 696.824,750.019 694.017,751.867 691.24,753.646 688.492,755.358 685.776,757.004 683.092,758.586 680.443,760.107 677.829,761.567 675.251,762.97 672.71,764.316 670.206,765.607 667.74,766.846 670.206,768.085 672.71,769.376 675.251,770.722 677.829,772.125 680.443,773.585 683.092,775.106 685.776,776.688 688.492,778.334 691.24,780.046 694.017,781.825 696.824,783.673 699.657,785.592 702.516,787.583 705.398,789.649 708.302,791.791 711.224,794.01 714.163,796.308 717.117,798.686 720.082,801.146 723.056,803.689 726.037,806.316 729.021,809.028 732.005,811.826 734.986,814.711 737.961,817.683 740.926,820.743 743.878,823.891 746.814,827.126 749.728,830.45 752.619,833.861 755.482,837.36 758.313,840.945 761.108,844.615 763.865,848.37 766.577,852.207 769.243,856.126 771.858,860.125 774.418,864.201 776.919,868.352 779.359,872.576 781.733,876.87 784.039,881.23 786.272,885.655 788.43,890.14 790.51,894.682 792.508,899.276 794.424,903.921 796.253,908.61 797.994,913.34 799.645,918.108 801.205,922.907 802.671,927.734 804.043,932.585 805.319,937.454 806.499,942.337 807.583,947.229 808.57,952.126 809.461,957.023 810.255,961.915 810.953,966.798 811.556,971.667 812.065,976.518 812.481,981.347 812.805,986.149 813.04,990.921 813.187,995.658 813.248,1000.36 813.226,1005.02 813.121,1009.63 812.938,1014.19 812.678,1018.7 812.345,1023.16 811.94,1027.57 811.468,1031.91 810.93,1036.19 810.329,1040.41 809.669,1044.56 808.953,1048.65 808.184,1052.67 807.364,1056.61 806.497,1060.49 805.585,1064.3 804.632,1068.03 803.64,1071.69 802.613,1075.28 801.553,1078.79 800.463,1082.23 799.346,1085.59 798.204,1088.89 797.039,1092.1 795.855,1095.25 794.653,1098.32 793.436,1101.32 792.207,1104.25 790.966,1107.11 789.716,1109.89 788.46,1112.61 787.199,1115.26 785.934,1117.84 784.667,1120.36 783.401,1122.81 786.123,1122.36 788.908,1121.94 791.755,1121.53 794.665,1121.15 797.639,1120.8 800.676,1120.47 803.777,1120.17 806.942,1119.91 810.171,1119.68 813.464,1119.48 816.821,1119.33 820.241,1119.22 823.724,1119.15 827.27,1119.13 830.877,1119.15 834.546,1119.23 838.275,1119.36 842.062,1119.55 845.907,1119.8 849.808,1120.1 853.764,1120.48 857.772,1120.92 861.831,1121.43 865.938,1122.01 870.092,1122.67 874.289,1123.4 878.528,1124.21 882.804,1125.1 887.116,1126.08 891.46,1127.14 895.832,1128.29 900.23,1129.52 904.649,1130.85 909.085,1132.27 913.536,1133.78 917.996,1135.38 922.462,1137.08 926.928,1138.87 931.392,1140.76 935.849,1142.74 940.293,1144.82 944.722,1146.99 949.129,1149.26 953.511,1151.62 957.863,1154.07 962.181,1156.61 966.46,1159.25 970.696,1161.96 974.886,1164.77 979.023,1167.65 983.106,1170.62 987.13,1173.66 991.09,1176.78 994.985,1179.97 998.81,1183.23 1002.56,1186.55 1006.24,1189.93 1009.84,1193.37 1013.36,1196.86 1016.79,1200.4 1020.14,1203.98 1023.4,1207.61 1026.58,1211.27 1029.66,1214.96 1032.66,1218.69 1035.56,1222.43 1038.37,1226.2 1041.09,1229.98 1043.72,1233.77 1046.25,1237.57 1048.7,1241.38 1051.05,1245.18 1053.31,1248.98 1055.48,1252.77 1057.56,1256.55 1059.55,1260.32 1061.46,1264.07 1063.28,1267.79 1065.02,1271.49 1066.68,1275.17 1068.26,1278.82 1069.76,1282.43 1071.18,1286.01 1072.53,1289.56 1073.81,1293.06 1075.01,1296.53 1076.15,1299.95 1077.23,1303.33 1078.24,1306.66 1079.19,1309.95 1080.08,1313.19 1080.91,1316.38 1081.69,1319.53 1082.42,1322.62 1083.09,1325.66 1083.72,1328.65 1084.3,1331.59 1084.84,1334.47 1085.33,1337.3 1085.79,1340.08 1086.2,1342.81 1088.14,1340.85 1090.15,1338.87 1092.21,1336.87 1094.34,1334.85 1096.54,1332.81 1098.8,1330.76 1101.14,1328.7 1103.54,1326.63 1106.02,1324.54 1108.57,1322.45 1111.19,1320.35 1113.89,1318.25 1116.67,1316.15 1119.53,1314.04 1122.46,1311.94 1125.47,1309.85 1128.57,1307.76 1131.74,1305.69 1135,1303.63 1138.34,1301.59 1141.76,1299.56 1145.26,1297.56 1148.84,1295.59 1152.51,1293.65 1156.25,1291.74 1160.08,1289.86 1163.98,1288.03 1167.97,1286.24 1172.03,1284.49 1176.17,1282.8 1180.38,1281.15 1184.66,1279.57 1189.02,1278.04 1193.44,1276.58 1197.93,1275.19 1202.48,1273.87 1207.09,1272.61 1211.76,1271.44 1216.48,1270.34 1221.25,1269.33 1226.07,1268.4 1230.93,1267.55 1235.83,1266.79 1240.76,1266.13 1245.72,1265.55 1250.71,1265.07 1255.72,1264.69 1260.74,1264.4 1265.78,1264.2 1270.82,1264.1 1275.87,1264.1 1280.91,1264.2 1285.95,1264.4 1290.98,1264.69 1295.98,1265.07 1300.97,1265.55 1305.93,1266.13 1310.87,1266.79 1315.76,1267.55 1320.62,1268.4 1325.44,1269.33 1330.21,1270.34 1334.93,1271.44 1339.6,1272.61 1344.21,1273.87 1348.76,1275.19 1353.25,1276.58 1357.67,1278.04 1362.03,1279.57 1366.31,1281.15 1370.52,1282.8 1374.66,1284.49 1378.72,1286.24 1382.71,1288.03 1386.61,1289.86 1390.44,1291.74 1394.19,1293.65 1397.85,1295.59 1401.43,1297.56 1404.94,1299.56 1408.36,1301.59 1411.69,1303.63 1414.95,1305.69 1418.12,1307.76 1421.22,1309.85 1424.23,1311.94 1427.16,1314.04 1430.02,1316.15 1432.8,1318.25 1435.5,1320.35 1438.12,1322.45 1440.67,1324.54 1443.15,1326.63 1445.55,1328.7 1447.89,1330.76 1450.15,1332.81 1452.35,1334.85 1454.48,1336.87 1456.55,1338.87 1458.55,1340.85 1460.49,1342.81 1460.9,1340.08 1461.36,1337.3 1461.85,1334.47 1462.39,1331.59 1462.97,1328.65 1463.6,1325.66 1464.28,1322.62 1465,1319.53 1465.78,1316.38 1466.61,1313.19 1467.5,1309.95 1468.45,1306.66 1469.46,1303.33 1470.54,1299.95 1471.68,1296.53 1472.89,1293.06 1474.16,1289.56 1475.51,1286.01 1476.94,1282.43 1478.43,1278.82 1480.01,1275.17 1481.67,1271.49 1483.41,1267.79 1485.23,1264.07 1487.14,1260.32 1489.13,1256.55 1491.21,1252.77 1493.38,1248.98 1495.64,1245.18 1497.99,1241.38 1500.44,1237.57 1502.97,1233.77 1505.6,1229.98 1508.32,1226.2 1511.13,1222.43 1514.03,1218.69 1517.03,1214.96 1520.11,1211.27 1523.29,1207.61 1526.55,1203.98 1529.9,1200.4 1533.34,1196.86 1536.85,1193.37 1540.45,1189.93 1544.13,1186.55 1547.88,1183.23 1551.71,1179.97 1555.6,1176.78 1559.56,1173.66 1563.59,1170.62 1567.67,1167.65 1571.81,1164.77 1576,1161.96 1580.23,1159.25 1584.51,1156.61 1588.83,1154.07 1593.18,1151.62 1597.56,1149.26 1601.97,1146.99 1606.4,1144.82 1610.84,1142.74 1615.3,1140.76 1619.76,1138.87 1624.23,1137.08 1628.7,1135.38 1633.16,1133.78 1637.61,1132.27 1642.04,1130.85 1646.46,1129.52 1650.86,1128.29 1655.23,1127.14 1659.58,1126.08 1663.89,1125.1 1668.16,1124.21 1672.4,1123.4 1676.6,1122.67 1680.75,1122.01 1684.86,1121.43 1688.92,1120.92 1692.93,1120.48 1696.88,1120.1 1700.78,1119.8 1704.63,1119.55 1708.42,1119.36 1712.15,1119.23 1715.81,1119.15 1719.42,1119.13 1722.97,1119.15 1726.45,1119.22 1729.87,1119.33 1733.23,1119.48 1736.52,1119.68 1739.75,1119.91 1742.92,1120.17 1746.02,1120.47 1749.05,1120.8 1752.03,1121.15 1754.94,1121.53 1757.78,1121.94 1760.57,1122.36 1763.29,1122.81 1762.02,1120.36 1760.76,1117.84 1759.49,1115.26 1758.23,1112.61 1756.98,1109.89 1755.73,1107.11 1754.49,1104.25 1753.26,1101.32 1752.04,1098.32 1750.84,1095.25 1749.65,1092.1 1748.49,1088.89 1747.35,1085.59 1746.23,1082.23 1745.14,1078.79 1744.08,1075.28 1743.05,1071.69 1742.06,1068.03 1741.11,1064.3 1740.2,1060.49 1739.33,1056.61 1738.51,1052.67 1737.74,1048.65 1737.02,1044.56 1736.36,1040.41 1735.76,1036.19 1735.22,1031.91 1734.75,1027.57 1734.35,1023.16 1734.01,1018.7 1733.75,1014.19 1733.57,1009.63 1733.47,1005.02 1733.44,1000.36 1733.5,995.658 1733.65,990.921 1733.89,986.149 1734.21,981.347 1734.63,976.518 1735.14,971.667 1735.74,966.798 1736.44,961.915 1737.23,957.023 1738.12,952.126 1739.11,947.229 1740.19,942.337 1741.37,937.454 1742.65,932.585 1744.02,927.734 1745.49,922.907 1747.05,918.108 1748.7,913.34 1750.44,908.61 1752.27,903.921 1754.18,899.276 1756.18,894.682 1758.26,890.14 1760.42,885.655 1762.65,881.23 1764.96,876.87 1767.33,872.576 1769.77,868.352 1772.27,864.201 1774.83,860.125 1777.45,856.126 1780.11,852.207 1782.83,848.37 1785.58,844.615 1788.38,840.945 1791.21,837.36 1794.07,833.861 1796.96,830.45 1799.88,827.126 1802.81,823.891 1805.77,820.743 1808.73,817.683 1811.71,814.711 1814.69,811.826 1817.67,809.028 1820.65,806.316 1823.64,803.689 1826.61,801.146 1829.58,798.686 1832.53,796.308 1835.47,794.01 1838.39,791.791 1841.29,789.649 1844.18,787.583 1847.03,785.592 1849.87,783.673 1852.67,781.825 1855.45,780.046 1858.2,778.334 1860.92,776.688 1863.6,775.106 1866.25,773.585 1868.86,772.125 1871.44,770.722 1873.98,769.376 1876.49,768.085 1878.95,766.846 "/>
<polyline clip-path="url(#clip002)" style="stroke:#000000; stroke-linecap:round; stroke-linejoin:round; stroke-width:4; stroke-opacity:1; fill:none" points="1985.82,766.846 1985.8,760.62 1985.71,754.394 1985.58,748.17 1985.39,741.946 1985.14,735.725 1984.84,729.506 1984.49,723.29 1984.08,717.077 1983.62,710.868 1983.1,704.663 1982.53,698.463 1981.91,692.269 1981.23,686.08 1980.5,679.897 1979.71,673.72 1978.87,667.551 1977.98,661.39 1977.03,655.236 1976.02,649.091 1974.97,642.955 1973.86,636.829 1972.7,630.712 1971.48,624.606 1970.21,618.511 1968.89,612.427 1967.51,606.354 1966.08,600.294 1964.6,594.247 1963.07,588.213 1961.48,582.193 1959.84,576.186 1958.15,570.195 1956.4,564.218 1954.61,558.257 1952.76,552.311 1950.86,546.382 1948.9,540.47 1946.9,534.575 1944.84,528.698 1942.74,522.839 1940.58,516.999 1938.37,511.178 1936.11,505.376 1933.8,499.595 1931.44,493.833 1929.03,488.093 1926.57,482.374 1924.06,476.676 1921.5,471.001 1918.89,465.348 1916.23,459.719 1913.52,454.112 1910.76,448.53 1907.96,442.972 1905.1,437.439 1902.2,431.931 1899.25,426.448 1896.25,420.992 1893.2,415.561 1890.11,410.158 1886.97,404.782 1883.78,399.434 1880.55,394.113 1877.27,388.821 1873.94,383.558 1870.57,378.325 1867.15,373.121 1863.69,367.946 1860.18,362.803 1856.63,357.69 1853.03,352.609 1849.39,347.559 1845.7,342.541 1841.97,337.556 1838.2,332.603 1834.38,327.684 1830.52,322.798 1826.62,317.946 1822.68,313.128 1818.69,308.345 1814.66,303.597 1810.59,298.884 1806.48,294.207 1802.33,289.566 1798.14,284.962 1793.91,280.394 1789.64,275.864 1785.33,271.371 1780.98,266.916 1776.59,262.499 1772.17,258.12 1767.7,253.781 1763.2,249.48 1758.66,245.219 1754.08,240.998 1749.47,236.817 1744.82,232.677 1740.13,228.577 1735.41,224.519 1730.65,220.501 1725.86,216.526 1721.04,212.593 1716.18,208.702 1711.28,204.853 1706.35,201.048 1701.39,197.285 1696.4,193.566 1691.37,189.891 1686.32,186.26 1681.23,182.674 1676.11,179.132 1670.95,175.635 1665.77,172.183 1660.56,168.776 1655.32,165.415 1650.05,162.1 1644.75,158.831 1639.42,155.609 1634.07,152.433 1628.69,149.305 1623.28,146.223 1617.84,143.189 1612.38,140.202 1606.89,137.263 1601.37,134.373 1595.83,131.53 1590.27,128.736 1584.68,125.991 1579.07,123.295 1573.43,120.648 1567.77,118.05 1562.09,115.502 1556.39,113.004 1550.67,110.555 1544.92,108.157 1539.15,105.809 1533.37,103.511 1527.56,101.265 1521.73,99.0685 1515.89,96.9234 1510.03,94.8295 1504.14,92.7869 1498.25,90.7957 1492.33,88.8562 1486.4,86.9685 1480.45,85.1327 1474.48,83.3489 1468.5,81.6174 1462.51,79.9381 1456.5,78.3114 1450.47,76.7372 1444.43,75.2157 1438.38,73.747 1432.32,72.3313 1426.25,70.9685 1420.16,69.659 1414.06,68.4026 1407.95,67.1997 1401.83,66.0501 1395.7,64.9541 1389.57,63.9116 1383.42,62.9229 1377.26,61.9878 1371.1,61.1067 1364.93,60.2794 1358.75,59.5061 1352.57,58.7867 1346.38,58.1215 1340.18,57.5104 1333.98,56.9534 1327.77,56.4507 1321.56,56.0022 1315.35,55.608 1309.13,55.2681 1302.91,54.9826 1296.69,54.7514 1290.47,54.5746 1284.24,54.4522 1278.02,54.3842 1271.79,54.3706 1265.56,54.4114 1259.34,54.5066 1253.11,54.6562 1246.89,54.8602 1240.67,55.1186 1234.45,55.4313 1228.24,55.7983 1222.02,56.2197 1215.82,56.6953 1209.61,57.2251 1203.41,57.8092 1197.22,58.4474 1191.03,59.1396 1184.85,59.886 1178.68,60.6863 1172.51,61.5405 1166.35,62.4486 1160.2,63.4105 1154.06,64.4261 1147.92,65.4954 1141.8,66.6182 1135.68,67.7945 1129.58,69.0242 1123.49,70.3071 1117.41,71.6433 1111.34,73.0325 1105.28,74.4747 1099.24,75.9698 1093.21,77.5177 1087.19,79.1182 1081.19,80.7712 1075.2,82.4766 1069.23,84.2343 1063.27,86.0441 1057.33,87.9059 1051.4,89.8195 1045.49,91.7848 1039.6,93.8017 1033.73,95.87 1027.88,97.9896 1022.04,100.16 1016.23,102.382 1010.43,104.654 1004.65,106.977 998.896,109.35 993.161,111.773 987.447,114.247 981.755,116.77 976.086,119.343 970.439,121.965 964.815,124.637 959.215,127.358 953.638,130.127 948.086,132.945 942.559,135.812 937.058,138.727 931.582,141.689 926.132,144.7 920.708,147.758 915.312,150.863 909.942,154.015 904.601,157.214 899.288,160.46 894.003,163.752 888.747,167.09 883.521,170.474 878.324,173.903 873.158,177.378 868.022,180.897 862.917,184.462 857.843,188.07 852.801,191.723 847.792,195.42 842.814,199.161 837.87,202.945 832.959,206.772 828.081,210.642 823.238,214.554 818.429,218.508 813.654,222.505 808.915,226.543 804.211,230.622 799.543,234.742 794.912,238.903 790.316,243.104 785.758,247.345 781.237,251.625 776.753,255.945 772.308,260.304 767.9,264.702 763.532,269.138 759.202,273.612 754.911,278.124 750.66,282.673 746.449,287.259 742.278,291.882 738.148,296.541 734.059,301.236 730.01,305.966 726.004,310.732 722.039,315.532 718.116,320.367 714.235,325.236 710.398,330.139 706.603,335.075 702.851,340.044 699.144,345.046 695.48,350.08 691.86,355.146 688.284,360.243 684.753,365.371 681.267,370.53 677.827,375.719 674.432,380.938 671.082,386.186 667.779,391.464 664.521,396.77 661.311,402.104 658.147,407.467 655.03,412.856 651.96,418.273 648.938,423.717 645.963,429.186 643.036,434.682 640.158,440.202 637.327,445.748 634.546,451.318 631.813,456.913 629.129,462.531 626.494,468.172 623.909,473.836 621.373,479.522 618.887,485.231 616.451,490.96 614.065,496.711 611.73,502.483 609.445,508.275 607.211,514.086 605.027,519.917 602.895,525.767 600.814,531.635 598.784,537.521 596.806,543.424 594.879,549.345 593.005,555.282 591.182,561.235 589.411,567.204 587.693,573.189 586.026,579.188 584.413,585.201 582.852,591.229 581.344,597.269 579.888,603.323 578.486,609.389 577.136,615.467 575.84,621.557 574.597,627.658 573.407,633.769 572.271,639.891 571.188,646.022 570.159,652.163 569.184,658.312 568.262,664.47 567.395,670.635 566.581,676.808 565.821,682.987 565.115,689.173 564.464,695.365 563.866,701.563 563.323,707.765 562.833,713.972 562.399,720.183 562.018,726.398 561.692,732.615 561.42,738.835 561.202,745.058 561.039,751.282 560.93,757.507 560.876,763.733 560.876,769.959 560.93,776.185 561.039,782.41 561.202,788.634 561.42,794.857 561.692,801.077 562.018,807.294 562.399,813.509 562.833,819.72 563.323,825.927 563.866,832.129 564.464,838.327 565.115,844.519 565.821,850.705 566.581,856.884 567.395,863.057 568.262,869.222 569.184,875.38 570.159,881.529 571.188,887.67 572.271,893.801 573.407,899.923 574.597,906.034 575.84,912.135 577.136,918.225 578.486,924.303 579.888,930.369 581.344,936.423 582.852,942.463 584.413,948.491 586.026,954.504 587.693,960.503 589.411,966.488 591.182,972.457 593.005,978.41 594.879,984.347 596.806,990.268 598.784,996.171 600.814,1002.06 602.895,1007.93 605.027,1013.78 607.211,1019.61 609.445,1025.42 611.73,1031.21 614.065,1036.98 616.451,1042.73 618.887,1048.46 621.373,1054.17 623.909,1059.86 626.494,1065.52 629.129,1071.16 631.813,1076.78 634.546,1082.37 637.327,1087.94 640.158,1093.49 643.036,1099.01 645.963,1104.51 648.938,1109.98 651.96,1115.42 655.03,1120.84 658.147,1126.23 661.311,1131.59 664.521,1136.92 667.779,1142.23 671.082,1147.51 674.432,1152.75 677.827,1157.97 681.267,1163.16 684.753,1168.32 688.284,1173.45 691.86,1178.55 695.48,1183.61 699.144,1188.65 702.851,1193.65 706.603,1198.62 710.398,1203.55 714.235,1208.46 718.116,1213.32 722.039,1218.16 726.004,1222.96 730.01,1227.73 734.059,1232.46 738.148,1237.15 742.278,1241.81 746.449,1246.43 750.66,1251.02 754.911,1255.57 759.202,1260.08 763.532,1264.55 767.9,1268.99 772.308,1273.39 776.753,1277.75 781.237,1282.07 785.758,1286.35 790.316,1290.59 794.912,1294.79 799.543,1298.95 804.211,1303.07 808.915,1307.15 813.654,1311.19 818.429,1315.18 823.238,1319.14 828.081,1323.05 832.959,1326.92 837.87,1330.75 842.814,1334.53 847.792,1338.27 852.801,1341.97 857.843,1345.62 862.917,1349.23 868.022,1352.79 873.158,1356.31 878.324,1359.79 883.521,1363.22 888.747,1366.6 894.003,1369.94 899.288,1373.23 904.601,1376.48 909.942,1379.68 915.312,1382.83 920.708,1385.93 926.132,1388.99 931.582,1392 937.058,1394.97 942.559,1397.88 948.086,1400.75 953.638,1403.56 959.215,1406.33 964.815,1409.05 970.439,1411.73 976.086,1414.35 981.755,1416.92 987.447,1419.45 993.161,1421.92 998.896,1424.34 1004.65,1426.72 1010.43,1429.04 1016.23,1431.31 1022.04,1433.53 1027.88,1435.7 1033.73,1437.82 1039.6,1439.89 1045.49,1441.91 1051.4,1443.87 1057.33,1445.79 1063.27,1447.65 1069.23,1449.46 1075.2,1451.22 1081.19,1452.92 1087.19,1454.57 1093.21,1456.17 1099.24,1457.72 1105.28,1459.22 1111.34,1460.66 1117.41,1462.05 1123.49,1463.38 1129.58,1464.67 1135.68,1465.9 1141.8,1467.07 1147.92,1468.2 1154.06,1469.27 1160.2,1470.28 1166.35,1471.24 1172.51,1472.15 1178.68,1473.01 1184.85,1473.81 1191.03,1474.55 1197.22,1475.24 1203.41,1475.88 1209.61,1476.47 1215.82,1477 1222.02,1477.47 1228.24,1477.89 1234.45,1478.26 1240.67,1478.57 1246.89,1478.83 1253.11,1479.04 1259.34,1479.19 1265.56,1479.28 1271.79,1479.32 1278.02,1479.31 1284.24,1479.24 1290.47,1479.12 1296.69,1478.94 1302.91,1478.71 1309.13,1478.42 1315.35,1478.08 1321.56,1477.69 1327.77,1477.24 1333.98,1476.74 1340.18,1476.18 1346.38,1475.57 1352.57,1474.91 1358.75,1474.19 1364.93,1473.41 1371.1,1472.59 1377.26,1471.7 1383.42,1470.77 1389.57,1469.78 1395.7,1468.74 1401.83,1467.64 1407.95,1466.49 1414.06,1465.29 1420.16,1464.03 1426.25,1462.72 1432.32,1461.36 1438.38,1459.94 1444.43,1458.48 1450.47,1456.95 1456.5,1455.38 1462.51,1453.75 1468.5,1452.07 1474.48,1450.34 1480.45,1448.56 1486.4,1446.72 1492.33,1444.84 1498.25,1442.9 1504.14,1440.91 1510.03,1438.86 1515.89,1436.77 1521.73,1434.62 1527.56,1432.43 1533.37,1430.18 1539.15,1427.88 1544.92,1425.53 1550.67,1423.14 1556.39,1420.69 1562.09,1418.19 1567.77,1415.64 1573.43,1413.04 1579.07,1410.4 1584.68,1407.7 1590.27,1404.96 1595.83,1402.16 1601.37,1399.32 1606.89,1396.43 1612.38,1393.49 1617.84,1390.5 1623.28,1387.47 1628.69,1384.39 1634.07,1381.26 1639.42,1378.08 1644.75,1374.86 1650.05,1371.59 1655.32,1368.28 1660.56,1364.92 1665.77,1361.51 1670.95,1358.06 1676.11,1354.56 1681.23,1351.02 1686.32,1347.43 1691.37,1343.8 1696.4,1340.13 1701.39,1336.41 1706.35,1332.64 1711.28,1328.84 1716.18,1324.99 1721.04,1321.1 1725.86,1317.17 1730.65,1313.19 1735.41,1309.17 1740.13,1305.11 1744.82,1301.02 1749.47,1296.87 1754.08,1292.69 1758.66,1288.47 1763.2,1284.21 1767.7,1279.91 1772.17,1275.57 1776.59,1271.19 1780.98,1266.78 1785.33,1262.32 1789.64,1257.83 1793.91,1253.3 1798.14,1248.73 1802.33,1244.13 1806.48,1239.48 1810.59,1234.81 1814.66,1230.1 1818.69,1225.35 1822.68,1220.56 1826.62,1215.75 1830.52,1210.89 1834.38,1206.01 1838.2,1201.09 1841.97,1196.14 1845.7,1191.15 1849.39,1186.13 1853.03,1181.08 1856.63,1176 1860.18,1170.89 1863.69,1165.75 1867.15,1160.57 1870.57,1155.37 1873.94,1150.13 1877.27,1144.87 1880.55,1139.58 1883.78,1134.26 1886.97,1128.91 1890.11,1123.53 1893.2,1118.13 1896.25,1112.7 1899.25,1107.24 1902.2,1101.76 1905.1,1096.25 1907.96,1090.72 1910.76,1085.16 1913.52,1079.58 1916.23,1073.97 1918.89,1068.34 1921.5,1062.69 1924.06,1057.02 1926.57,1051.32 1929.03,1045.6 1931.44,1039.86 1933.8,1034.1 1936.11,1028.32 1938.37,1022.51 1940.58,1016.69 1942.74,1010.85 1944.84,1004.99 1946.9,999.117 1948.9,993.222 1950.86,987.31 1952.76,981.381 1954.61,975.435 1956.4,969.474 1958.15,963.497 1959.84,957.506 1961.48,951.499 1963.07,945.479 1964.6,939.445 1966.08,933.397 1967.51,927.338 1968.89,921.265 1970.21,915.181 1971.48,909.086 1972.7,902.98 1973.86,896.863 1974.97,890.737 1976.02,884.601 1977.03,878.456 1977.98,872.302 1978.87,866.141 1979.71,859.972 1980.5,853.795 1981.23,847.612 1981.91,841.423 1982.53,835.229 1983.1,829.029 1983.62,822.824 1984.08,816.615 1984.49,810.402 1984.84,804.186 1985.14,797.967 1985.39,791.746 1985.58,785.522 1985.71,779.298 1985.8,773.072 1985.82,766.846 "/>
<circle clip-path="url(#clip002)" cx="1878.95" cy="766.846" r="14.4" fill="#c271d2" fill-rule="evenodd" fill-opacity="1" stroke="#000000" stroke-opacity="1" stroke-width="3.2"/>
<circle clip-path="url(#clip002)" cx="1763.29" cy="410.88" r="14.4" fill="#c271d2" fill-rule="evenodd" fill-opacity="1" stroke="#000000" stroke-opacity="1" stroke-width="3.2"/>
<circle clip-path="url(#clip002)" cx="1460.49" cy="190.881" r="14.4" fill="#c271d2" fill-rule="evenodd" fill-opacity="1" stroke="#000000" stroke-opacity="1" stroke-width="3.2"/>
<circle clip-path="url(#clip002)" cx="1086.2" cy="190.881" r="14.4" fill="#c271d2" fill-rule="evenodd" fill-opacity="1" stroke="#000000" stroke-opacity="1" stroke-width="3.2"/>
<circle clip-path="url(#clip002)" cx="783.401" cy="410.88" r="14.4" fill="#c271d2" fill-rule="evenodd" fill-opacity="1" stroke="#000000" stroke-opacity="1" stroke-width="3.2"/>
<circle clip-path="url(#clip002)" cx="667.74" cy="766.846" r="14.4" fill="#c271d2" fill-rule="evenodd" fill-opacity="1" stroke="#000000" stroke-opacity="1" stroke-width="3.2"/>
<circle clip-path="url(#clip002)" cx="783.401" cy="1122.81" r="14.4" fill="#c271d2" fill-rule="evenodd" fill-opacity="1" stroke="#000000" stroke-opacity="1" stroke-width="3.2"/>
<circle clip-path="url(#clip002)" cx="1086.2" cy="1342.81" r="14.4" fill="#c271d2" fill-rule="evenodd" fill-opacity="1" stroke="#000000" stroke-opacity="1" stroke-width="3.2"/>
<circle clip-path="url(#clip002)" cx="1460.49" cy="1342.81" r="14.4" fill="#c271d2" fill-rule="evenodd" fill-opacity="1" stroke="#000000" stroke-opacity="1" stroke-width="3.2"/>
<circle clip-path="url(#clip002)" cx="1763.29" cy="1122.81" r="14.4" fill="#c271d2" fill-rule="evenodd" fill-opacity="1" stroke="#000000" stroke-opacity="1" stroke-width="3.2"/>
<circle clip-path="url(#clip002)" cx="1878.95" cy="766.846" r="14.4" fill="#c271d2" fill-rule="evenodd" fill-opacity="1" stroke="#000000" stroke-opacity="1" stroke-width="3.2"/>
<polyline clip-path="url(#clip002)" style="stroke:#000000; stroke-linecap:round; stroke-linejoin:round; stroke-width:4; stroke-opacity:1; fill:none" points="1985.82,766.846 1985.8,760.62 1985.71,754.394 1985.58,748.17 1985.39,741.946 1985.14,735.725 1984.84,729.506 1984.49,723.29 1984.08,717.077 1983.62,710.868 1983.1,704.663 1982.53,698.463 1981.91,692.269 1981.23,686.08 1980.5,679.897 1979.71,673.72 1978.87,667.551 1977.98,661.39 1977.03,655.236 1976.02,649.091 1974.97,642.955 1973.86,636.829 1972.7,630.712 1971.48,624.606 1970.21,618.511 1968.89,612.427 1967.51,606.354 1966.08,600.294 1964.6,594.247 1963.07,588.213 1961.48,582.193 1959.84,576.186 1958.15,570.195 1956.4,564.218 1954.61,558.257 1952.76,552.311 1950.86,546.382 1948.9,540.47 1946.9,534.575 1944.84,528.698 1942.74,522.839 1940.58,516.999 1938.37,511.178 1936.11,505.376 1933.8,499.595 1931.44,493.833 1929.03,488.093 1926.57,482.374 1924.06,476.676 1921.5,471.001 1918.89,465.348 1916.23,459.719 1913.52,454.112 1910.76,448.53 1907.96,442.972 1905.1,437.439 1902.2,431.931 1899.25,426.448 1896.25,420.992 1893.2,415.561 1890.11,410.158 1886.97,404.782 1883.78,399.434 1880.55,394.113 1877.27,388.821 1873.94,383.558 1870.57,378.325 1867.15,373.121 1863.69,367.946 1860.18,362.803 1856.63,357.69 1853.03,352.609 1849.39,347.559 1845.7,342.541 1841.97,337.556 1838.2,332.603 1834.38,327.684 1830.52,322.798 1826.62,317.946 1822.68,313.128 1818.69,308.345 1814.66,303.597 1810.59,298.884 1806.48,294.207 1802.33,289.566 1798.14,284.962 1793.91,280.394 1789.64,275.864 1785.33,271.371 1780.98,266.916 1776.59,262.499 1772.17,258.12 1767.7,253.781 1763.2,249.48 1758.66,245.219 1754.08,240.998 1749.47,236.817 1744.82,232.677 1740.13,228.577 1735.41,224.519 1730.65,220.501 1725.86,216.526 1721.04,212.593 1716.18,208.702 1711.28,204.853 1706.35,201.048 1701.39,197.285 1696.4,193.566 1691.37,189.891 1686.32,186.26 1681.23,182.674 1676.11,179.132 1670.95,175.635 1665.77,172.183 1660.56,168.776 1655.32,165.415 1650.05,162.1 1644.75,158.831 1639.42,155.609 1634.07,152.433 1628.69,149.305 1623.28,146.223 1617.84,143.189 1612.38,140.202 1606.89,137.263 1601.37,134.373 1595.83,131.53 1590.27,128.736 1584.68,125.991 1579.07,123.295 1573.43,120.648 1567.77,118.05 1562.09,115.502 1556.39,113.004 1550.67,110.555 1544.92,108.157 1539.15,105.809 1533.37,103.511 1527.56,101.265 1521.73,99.0685 1515.89,96.9234 1510.03,94.8295 1504.14,92.7869 1498.25,90.7957 1492.33,88.8562 1486.4,86.9685 1480.45,85.1327 1474.48,83.3489 1468.5,81.6174 1462.51,79.9381 1456.5,78.3114 1450.47,76.7372 1444.43,75.2157 1438.38,73.747 1432.32,72.3313 1426.25,70.9685 1420.16,69.659 1414.06,68.4026 1407.95,67.1997 1401.83,66.0501 1395.7,64.9541 1389.57,63.9116 1383.42,62.9229 1377.26,61.9878 1371.1,61.1067 1364.93,60.2794 1358.75,59.5061 1352.57,58.7867 1346.38,58.1215 1340.18,57.5104 1333.98,56.9534 1327.77,56.4507 1321.56,56.0022 1315.35,55.608 1309.13,55.2681 1302.91,54.9826 1296.69,54.7514 1290.47,54.5746 1284.24,54.4522 1278.02,54.3842 1271.79,54.3706 1265.56,54.4114 1259.34,54.5066 1253.11,54.6562 1246.89,54.8602 1240.67,55.1186 1234.45,55.4313 1228.24,55.7983 1222.02,56.2197 1215.82,56.6953 1209.61,57.2251 1203.41,57.8092 1197.22,58.4474 1191.03,59.1396 1184.85,59.886 1178.68,60.6863 1172.51,61.5405 1166.35,62.4486 1160.2,63.4105 1154.06,64.4261 1147.92,65.4954 1141.8,66.6182 1135.68,67.7945 1129.58,69.0242 1123.49,70.3071 1117.41,71.6433 1111.34,73.0325 1105.28,74.4747 1099.24,75.9698 1093.21,77.5177 1087.19,79.1182 1081.19,80.7712 1075.2,82.4766 1069.23,84.2343 1063.27,86.0441 1057.33,87.9059 1051.4,89.8195 1045.49,91.7848 1039.6,93.8017 1033.73,95.87 1027.88,97.9896 1022.04,100.16 1016.23,102.382 1010.43,104.654 1004.65,106.977 998.896,109.35 993.161,111.773 987.447,114.247 981.755,116.77 976.086,119.343 970.439,121.965 964.815,124.637 959.215,127.358 953.638,130.127 948.086,132.945 942.559,135.812 937.058,138.727 931.582,141.689 926.132,144.7 920.708,147.758 915.312,150.863 909.942,154.015 904.601,157.214 899.288,160.46 894.003,163.752 888.747,167.09 883.521,170.474 878.324,173.903 873.158,177.378 868.022,180.897 862.917,184.462 857.843,188.07 852.801,191.723 847.792,195.42 842.814,199.161 837.87,202.945 832.959,206.772 828.081,210.642 823.238,214.554 818.429,218.508 813.654,222.505 808.915,226.543 804.211,230.622 799.543,234.742 794.912,238.903 790.316,243.104 785.758,247.345 781.237,251.625 776.753,255.945 772.308,260.304 767.9,264.702 763.532,269.138 759.202,273.612 754.911,278.124 750.66,282.673 746.449,287.259 742.278,291.882 738.148,296.541 734.059,301.236 730.01,305.966 726.004,310.732 722.039,315.532 718.116,320.367 714.235,325.236 710.398,330.139 706.603,335.075 702.851,340.044 699.144,345.046 695.48,350.08 691.86,355.146 688.284,360.243 684.753,365.371 681.267,370.53 677.827,375.719 674.432,380.938 671.082,386.186 667.779,391.464 664.521,396.77 661.311,402.104 658.147,407.467 655.03,412.856 651.96,418.273 648.938,423.717 645.963,429.186 643.036,434.682 640.158,440.202 637.327,445.748 634.546,451.318 631.813,456.913 629.129,462.531 626.494,468.172 623.909,473.836 621.373,479.522 618.887,485.231 616.451,490.96 614.065,496.711 611.73,502.483 609.445,508.275 607.211,514.086 605.027,519.917 602.895,525.767 600.814,531.635 598.784,537.521 596.806,543.424 594.879,549.345 593.005,555.282 591.182,561.235 589.411,567.204 587.693,573.189 586.026,579.188 584.413,585.201 582.852,591.229 581.344,597.269 579.888,603.323 578.486,609.389 577.136,615.467 575.84,621.557 574.597,627.658 573.407,633.769 572.271,639.891 571.188,646.022 570.159,652.163 569.184,658.312 568.262,664.47 567.395,670.635 566.581,676.808 565.821,682.987 565.115,689.173 564.464,695.365 563.866,701.563 563.323,707.765 562.833,713.972 562.399,720.183 562.018,726.398 561.692,732.615 561.42,738.835 561.202,745.058 561.039,751.282 560.93,757.507 560.876,763.733 560.876,769.959 560.93,776.185 561.039,782.41 561.202,788.634 561.42,794.857 561.692,801.077 562.018,807.294 562.399,813.509 562.833,819.72 563.323,825.927 563.866,832.129 564.464,838.327 565.115,844.519 565.821,850.705 566.581,856.884 567.395,863.057 568.262,869.222 569.184,875.38 570.159,881.529 571.188,887.67 572.271,893.801 573.407,899.923 574.597,906.034 575.84,912.135 577.136,918.225 578.486,924.303 579.888,930.369 581.344,936.423 582.852,942.463 584.413,948.491 586.026,954.504 587.693,960.503 589.411,966.488 591.182,972.457 593.005,978.41 594.879,984.347 596.806,990.268 598.784,996.171 600.814,1002.06 602.895,1007.93 605.027,1013.78 607.211,1019.61 609.445,1025.42 611.73,1031.21 614.065,1036.98 616.451,1042.73 618.887,1048.46 621.373,1054.17 623.909,1059.86 626.494,1065.52 629.129,1071.16 631.813,1076.78 634.546,1082.37 637.327,1087.94 640.158,1093.49 643.036,1099.01 645.963,1104.51 648.938,1109.98 651.96,1115.42 655.03,1120.84 658.147,1126.23 661.311,1131.59 664.521,1136.92 667.779,1142.23 671.082,1147.51 674.432,1152.75 677.827,1157.97 681.267,1163.16 684.753,1168.32 688.284,1173.45 691.86,1178.55 695.48,1183.61 699.144,1188.65 702.851,1193.65 706.603,1198.62 710.398,1203.55 714.235,1208.46 718.116,1213.32 722.039,1218.16 726.004,1222.96 730.01,1227.73 734.059,1232.46 738.148,1237.15 742.278,1241.81 746.449,1246.43 750.66,1251.02 754.911,1255.57 759.202,1260.08 763.532,1264.55 767.9,1268.99 772.308,1273.39 776.753,1277.75 781.237,1282.07 785.758,1286.35 790.316,1290.59 794.912,1294.79 799.543,1298.95 804.211,1303.07 808.915,1307.15 813.654,1311.19 818.429,1315.18 823.238,1319.14 828.081,1323.05 832.959,1326.92 837.87,1330.75 842.814,1334.53 847.792,1338.27 852.801,1341.97 857.843,1345.62 862.917,1349.23 868.022,1352.79 873.158,1356.31 878.324,1359.79 883.521,1363.22 888.747,1366.6 894.003,1369.94 899.288,1373.23 904.601,1376.48 909.942,1379.68 915.312,1382.83 920.708,1385.93 926.132,1388.99 931.582,1392 937.058,1394.97 942.559,1397.88 948.086,1400.75 953.638,1403.56 959.215,1406.33 964.815,1409.05 970.439,1411.73 976.086,1414.35 981.755,1416.92 987.447,1419.45 993.161,1421.92 998.896,1424.34 1004.65,1426.72 1010.43,1429.04 1016.23,1431.31 1022.04,1433.53 1027.88,1435.7 1033.73,1437.82 1039.6,1439.89 1045.49,1441.91 1051.4,1443.87 1057.33,1445.79 1063.27,1447.65 1069.23,1449.46 1075.2,1451.22 1081.19,1452.92 1087.19,1454.57 1093.21,1456.17 1099.24,1457.72 1105.28,1459.22 1111.34,1460.66 1117.41,1462.05 1123.49,1463.38 1129.58,1464.67 1135.68,1465.9 1141.8,1467.07 1147.92,1468.2 1154.06,1469.27 1160.2,1470.28 1166.35,1471.24 1172.51,1472.15 1178.68,1473.01 1184.85,1473.81 1191.03,1474.55 1197.22,1475.24 1203.41,1475.88 1209.61,1476.47 1215.82,1477 1222.02,1477.47 1228.24,1477.89 1234.45,1478.26 1240.67,1478.57 1246.89,1478.83 1253.11,1479.04 1259.34,1479.19 1265.56,1479.28 1271.79,1479.32 1278.02,1479.31 1284.24,1479.24 1290.47,1479.12 1296.69,1478.94 1302.91,1478.71 1309.13,1478.42 1315.35,1478.08 1321.56,1477.69 1327.77,1477.24 1333.98,1476.74 1340.18,1476.18 1346.38,1475.57 1352.57,1474.91 1358.75,1474.19 1364.93,1473.41 1371.1,1472.59 1377.26,1471.7 1383.42,1470.77 1389.57,1469.78 1395.7,1468.74 1401.83,1467.64 1407.95,1466.49 1414.06,1465.29 1420.16,1464.03 1426.25,1462.72 1432.32,1461.36 1438.38,1459.94 1444.43,1458.48 1450.47,1456.95 1456.5,1455.38 1462.51,1453.75 1468.5,1452.07 1474.48,1450.34 1480.45,1448.56 1486.4,1446.72 1492.33,1444.84 1498.25,1442.9 1504.14,1440.91 1510.03,1438.86 1515.89,1436.77 1521.73,1434.62 1527.56,1432.43 1533.37,1430.18 1539.15,1427.88 1544.92,1425.53 1550.67,1423.14 1556.39,1420.69 1562.09,1418.19 1567.77,1415.64 1573.43,1413.04 1579.07,1410.4 1584.68,1407.7 1590.27,1404.96 1595.83,1402.16 1601.37,1399.32 1606.89,1396.43 1612.38,1393.49 1617.84,1390.5 1623.28,1387.47 1628.69,1384.39 1634.07,1381.26 1639.42,1378.08 1644.75,1374.86 1650.05,1371.59 1655.32,1368.28 1660.56,1364.92 1665.77,1361.51 1670.95,1358.06 1676.11,1354.56 1681.23,1351.02 1686.32,1347.43 1691.37,1343.8 1696.4,1340.13 1701.39,1336.41 1706.35,1332.64 1711.28,1328.84 1716.18,1324.99 1721.04,1321.1 1725.86,1317.17 1730.65,1313.19 1735.41,1309.17 1740.13,1305.11 1744.82,1301.02 1749.47,1296.87 1754.08,1292.69 1758.66,1288.47 1763.2,1284.21 1767.7,1279.91 1772.17,1275.57 1776.59,1271.19 1780.98,1266.78 1785.33,1262.32 1789.64,1257.83 1793.91,1253.3 1798.14,1248.73 1802.33,1244.13 1806.48,1239.48 1810.59,1234.81 1814.66,1230.1 1818.69,1225.35 1822.68,1220.56 1826.62,1215.75 1830.52,1210.89 1834.38,1206.01 1838.2,1201.09 1841.97,1196.14 1845.7,1191.15 1849.39,1186.13 1853.03,1181.08 1856.63,1176 1860.18,1170.89 1863.69,1165.75 1867.15,1160.57 1870.57,1155.37 1873.94,1150.13 1877.27,1144.87 1880.55,1139.58 1883.78,1134.26 1886.97,1128.91 1890.11,1123.53 1893.2,1118.13 1896.25,1112.7 1899.25,1107.24 1902.2,1101.76 1905.1,1096.25 1907.96,1090.72 1910.76,1085.16 1913.52,1079.58 1916.23,1073.97 1918.89,1068.34 1921.5,1062.69 1924.06,1057.02 1926.57,1051.32 1929.03,1045.6 1931.44,1039.86 1933.8,1034.1 1936.11,1028.32 1938.37,1022.51 1940.58,1016.69 1942.74,1010.85 1944.84,1004.99 1946.9,999.117 1948.9,993.222 1950.86,987.31 1952.76,981.381 1954.61,975.435 1956.4,969.474 1958.15,963.497 1959.84,957.506 1961.48,951.499 1963.07,945.479 1964.6,939.445 1966.08,933.397 1967.51,927.338 1968.89,921.265 1970.21,915.181 1971.48,909.086 1972.7,902.98 1973.86,896.863 1974.97,890.737 1976.02,884.601 1977.03,878.456 1977.98,872.302 1978.87,866.141 1979.71,859.972 1980.5,853.795 1981.23,847.612 1981.91,841.423 1982.53,835.229 1983.1,829.029 1983.62,822.824 1984.08,816.615 1984.49,810.402 1984.84,804.186 1985.14,797.967 1985.39,791.746 1985.58,785.522 1985.71,779.298 1985.8,773.072 1985.82,766.846 "/>
<polyline clip-path="url(#clip002)" style="stroke:#00a9ad; stroke-linecap:round; stroke-linejoin:round; stroke-width:4; stroke-opacity:1; fill:none" points="1878.95,766.846 1581.47,734.376 "/>
<polyline clip-path="url(#clip002)" style="stroke:#00a9ad; stroke-linecap:round; stroke-linejoin:round; stroke-width:4; stroke-opacity:1; fill:none" points="1615.3,756.176 1581.47,734.376 1619.21,720.388 "/>
<polyline clip-path="url(#clip002)" style="stroke:#00a9ad; stroke-linecap:round; stroke-linejoin:round; stroke-width:4; stroke-opacity:1; fill:none" points="1581.47,734.376 1878.95,766.846 "/>
<polyline clip-path="url(#clip002)" style="stroke:#00a9ad; stroke-linecap:round; stroke-linejoin:round; stroke-width:4; stroke-opacity:1; fill:none" points="1763.29,410.88 1503.53,559.469 "/>
<polyline clip-path="url(#clip002)" style="stroke:#00a9ad; stroke-linecap:round; stroke-linejoin:round; stroke-width:4; stroke-opacity:1; fill:none" points="1543.72,557.218 1503.53,559.469 1525.85,525.969 "/>
<polyline clip-path="url(#clip002)" style="stroke:#00a9ad; stroke-linecap:round; stroke-linejoin:round; stroke-width:4; stroke-opacity:1; fill:none" points="1503.53,559.469 1763.29,410.88 "/>
<polyline clip-path="url(#clip002)" style="stroke:#00a9ad; stroke-linecap:round; stroke-linejoin:round; stroke-width:4; stroke-opacity:1; fill:none" points="1460.49,190.881 1337.68,463.772 "/>
<polyline clip-path="url(#clip002)" style="stroke:#00a9ad; stroke-linecap:round; stroke-linejoin:round; stroke-width:4; stroke-opacity:1; fill:none" points="1368.87,438.331 1337.68,463.772 1336.04,423.557 "/>
<polyline clip-path="url(#clip002)" style="stroke:#00a9ad; stroke-linecap:round; stroke-linejoin:round; stroke-width:4; stroke-opacity:1; fill:none" points="1337.68,463.772 1460.49,190.881 "/>
<polyline clip-path="url(#clip002)" style="stroke:#00a9ad; stroke-linecap:round; stroke-linejoin:round; stroke-width:4; stroke-opacity:1; fill:none" points="1086.2,190.881 1147.25,483.84 "/>
<polyline clip-path="url(#clip002)" style="stroke:#00a9ad; stroke-linecap:round; stroke-linejoin:round; stroke-width:4; stroke-opacity:1; fill:none" points="1157.53,444.925 1147.25,483.84 1122.29,452.269 "/>
<polyline clip-path="url(#clip002)" style="stroke:#00a9ad; stroke-linecap:round; stroke-linejoin:round; stroke-width:4; stroke-opacity:1; fill:none" points="1147.25,483.84 1086.2,190.881 "/>
<polyline clip-path="url(#clip002)" style="stroke:#00a9ad; stroke-linecap:round; stroke-linejoin:round; stroke-width:4; stroke-opacity:1; fill:none" points="783.401,410.88 1004.99,612.006 "/>
<polyline clip-path="url(#clip002)" style="stroke:#00a9ad; stroke-linecap:round; stroke-linejoin:round; stroke-width:4; stroke-opacity:1; fill:none" points="990.427,574.483 1004.99,612.006 966.232,601.139 "/>
<polyline clip-path="url(#clip002)" style="stroke:#00a9ad; stroke-linecap:round; stroke-linejoin:round; stroke-width:4; stroke-opacity:1; fill:none" points="1004.99,612.006 783.401,410.88 "/>
<polyline clip-path="url(#clip002)" style="stroke:#00a9ad; stroke-linecap:round; stroke-linejoin:round; stroke-width:4; stroke-opacity:1; fill:none" points="667.74,766.846 965.226,799.316 "/>
<polyline clip-path="url(#clip002)" style="stroke:#00a9ad; stroke-linecap:round; stroke-linejoin:round; stroke-width:4; stroke-opacity:1; fill:none" points="931.391,777.516 965.226,799.316 927.485,813.304 "/>
<polyline clip-path="url(#clip002)" style="stroke:#00a9ad; stroke-linecap:round; stroke-linejoin:round; stroke-width:4; stroke-opacity:1; fill:none" points="965.226,799.316 667.74,766.846 "/>
<polyline clip-path="url(#clip002)" style="stroke:#00a9ad; stroke-linecap:round; stroke-linejoin:round; stroke-width:4; stroke-opacity:1; fill:none" points="783.401,1122.81 1043.16,974.223 "/>
<polyline clip-path="url(#clip002)" style="stroke:#00a9ad; stroke-linecap:round; stroke-linejoin:round; stroke-width:4; stroke-opacity:1; fill:none" points="1002.97,976.474 1043.16,974.223 1020.85,1007.72 "/>
<polyline clip-path="url(#clip002)" style="stroke:#00a9ad; stroke-linecap:round; stroke-linejoin:round; stroke-width:4; stroke-opacity:1; fill:none" points="1043.16,974.223 783.401,1122.81 "/>
<polyline clip-path="url(#clip002)" style="stroke:#00a9ad; stroke-linecap:round; stroke-linejoin:round; stroke-width:4; stroke-opacity:1; fill:none" points="1086.2,1342.81 1209.01,1069.92 "/>
<polyline clip-path="url(#clip002)" style="stroke:#00a9ad; stroke-linecap:round; stroke-linejoin:round; stroke-width:4; stroke-opacity:1; fill:none" points="1177.82,1095.36 1209.01,1069.92 1210.65,1110.14 "/>
<polyline clip-path="url(#clip002)" style="stroke:#00a9ad; stroke-linecap:round; stroke-linejoin:round; stroke-width:4; stroke-opacity:1; fill:none" points="1209.01,1069.92 1086.2,1342.81 "/>
<polyline clip-path="url(#clip002)" style="stroke:#00a9ad; stroke-linecap:round; stroke-linejoin:round; stroke-width:4; stroke-opacity:1; fill:none" points="1460.49,1342.81 1399.44,1049.85 "/>
<polyline clip-path="url(#clip002)" style="stroke:#00a9ad; stroke-linecap:round; stroke-linejoin:round; stroke-width:4; stroke-opacity:1; fill:none" points="1389.16,1088.77 1399.44,1049.85 1424.41,1081.42 "/>
<polyline clip-path="url(#clip002)" style="stroke:#00a9ad; stroke-linecap:round; stroke-linejoin:round; stroke-width:4; stroke-opacity:1; fill:none" points="1399.44,1049.85 1460.49,1342.81 "/>
<polyline clip-path="url(#clip002)" style="stroke:#00a9ad; stroke-linecap:round; stroke-linejoin:round; stroke-width:4; stroke-opacity:1; fill:none" points="1763.29,1122.81 1541.71,921.686 "/>
<polyline clip-path="url(#clip002)" style="stroke:#00a9ad; stroke-linecap:round; stroke-linejoin:round; stroke-width:4; stroke-opacity:1; fill:none" points="1556.26,959.209 1541.71,921.686 1580.46,932.553 "/>
<polyline clip-path="url(#clip002)" style="stroke:#00a9ad; stroke-linecap:round; stroke-linejoin:round; stroke-width:4; stroke-opacity:1; fill:none" points="1541.71,921.686 1763.29,1122.81 "/>
<polyline clip-path="url(#clip002)" style="stroke:#00a9ad; stroke-linecap:round; stroke-linejoin:round; stroke-width:4; stroke-opacity:1; fill:none" points="1878.95,766.846 1581.47,734.376 "/>
<polyline clip-path="url(#clip002)" style="stroke:#00a9ad; stroke-linecap:round; stroke-linejoin:round; stroke-width:4; stroke-opacity:1; fill:none" points="1615.3,756.176 1581.47,734.376 1619.21,720.388 "/>
<polyline clip-path="url(#clip002)" style="stroke:#00a9ad; stroke-linecap:round; stroke-linejoin:round; stroke-width:4; stroke-opacity:1; fill:none" points="1581.47,734.376 1878.95,766.846 "/>
<path clip-path="url(#clip000)" d="M625.705 250.738 L895.73 250.738 L895.73 95.2176 L625.705 95.2176  Z" fill="#ffffff" fill-rule="evenodd" fill-opacity="1"/>
<polyline clip-path="url(#clip000)" style="stroke:#000000; stroke-linecap:round; stroke-linejoin:round; stroke-width:4; stroke-opacity:1; fill:none" points="625.705,250.738 895.73,250.738 895.73,95.2176 625.705,95.2176 625.705,250.738 "/>
<polyline clip-path="url(#clip000)" style="stroke:#e26f46; stroke-linecap:round; stroke-linejoin:round; stroke-width:4; stroke-opacity:1; fill:none" points="649.692,147.058 793.613,147.058 "/>
<path clip-path="url(#clip000)" d="M831.442 166.745 Q829.637 171.375 827.924 172.787 Q826.211 174.199 823.341 174.199 L819.938 174.199 L819.938 170.634 L822.438 170.634 Q824.197 170.634 825.169 169.8 Q826.141 168.967 827.322 165.865 L828.086 163.921 L817.6 138.412 L822.114 138.412 L830.216 158.689 L838.317 138.412 L842.831 138.412 L831.442 166.745 Z" fill="#000000" fill-rule="nonzero" fill-opacity="1" /><path clip-path="url(#clip000)" d="M853.34 160.402 L869.66 160.402 L869.66 164.338 L847.715 164.338 L847.715 160.402 Q850.377 157.648 854.961 153.018 Q859.567 148.365 860.748 147.023 Q862.993 144.5 863.873 142.764 Q864.776 141.004 864.776 139.315 Q864.776 136.56 862.831 134.824 Q860.91 133.088 857.808 133.088 Q855.609 133.088 853.155 133.852 Q850.725 134.615 847.947 136.166 L847.947 131.444 Q850.771 130.31 853.225 129.731 Q855.678 129.153 857.715 129.153 Q863.086 129.153 866.28 131.838 Q869.475 134.523 869.475 139.014 Q869.475 141.143 868.664 143.065 Q867.877 144.963 865.771 147.555 Q865.192 148.227 862.09 151.444 Q858.988 154.639 853.34 160.402 Z" fill="#000000" fill-rule="nonzero" fill-opacity="1" /><circle clip-path="url(#clip000)" cx="721.652" cy="198.898" r="20.48" fill="#c271d2" fill-rule="evenodd" fill-opacity="1" stroke="#000000" stroke-opacity="1" stroke-width="4.55111"/>
<path clip-path="url(#clip000)" d="M831.442 218.585 Q829.637 223.215 827.924 224.627 Q826.211 226.039 823.341 226.039 L819.938 226.039 L819.938 222.474 L822.438 222.474 Q824.197 222.474 825.169 221.64 Q826.141 220.807 827.322 217.705 L828.086 215.761 L817.6 190.252 L822.114 190.252 L830.216 210.529 L838.317 190.252 L842.831 190.252 L831.442 218.585 Z" fill="#000000" fill-rule="nonzero" fill-opacity="1" /><path clip-path="url(#clip000)" d="M862.16 185.692 L850.354 204.141 L862.16 204.141 L862.16 185.692 M860.933 181.618 L866.813 181.618 L866.813 204.141 L871.743 204.141 L871.743 208.029 L866.813 208.029 L866.813 216.178 L862.16 216.178 L862.16 208.029 L846.558 208.029 L846.558 203.516 L860.933 181.618 Z" fill="#000000" fill-rule="nonzero" fill-opacity="1" /></svg>
