<?xml version="1.0" encoding="utf-8"?>
<svg xmlns="http://www.w3.org/2000/svg" xmlns:xlink="http://www.w3.org/1999/xlink" width="672" height="480" viewBox="0 0 2688 1920">
<defs>
  <clipPath id="clip300">
    <rect x="0" y="0" width="2688" height="1920"/>
  </clipPath>
</defs>
<path clip-path="url(#clip300)" d="M0 1920 L2688 1920 L2688 0 L0 0  Z" fill="#ffffff" fill-rule="evenodd" fill-opacity="1"/>
<defs>
  <clipPath id="clip301">
    <rect x="537" y="0" width="1883" height="1883"/>
  </clipPath>
</defs>
<path clip-path="url(#clip300)" d="M189.64 1800.78 L2640.76 1800.78 L2640.76 127.792 L189.64 127.792  Z" fill="#ffffff" fill-rule="evenodd" fill-opacity="1"/>
<defs>
  <clipPath id="clip302">
    <rect x="189" y="127" width="2452" height="1674"/>
  </clipPath>
</defs>
<polyline clip-path="url(#clip302)" style="stroke:#000000; stroke-linecap:round; stroke-linejoin:round; stroke-width:2; stroke-opacity:0.1; fill:none" points="463.044,1800.78 463.044,127.792 "/>
<polyline clip-path="url(#clip302)" style="stroke:#000000; stroke-linecap:round; stroke-linejoin:round; stroke-width:2; stroke-opacity:0.1; fill:none" points="803.099,1800.78 803.099,127.792 "/>
<polyline clip-path="url(#clip302)" style="stroke:#000000; stroke-linecap:round; stroke-linejoin:round; stroke-width:2; stroke-opacity:0.1; fill:none" points="1143.15,1800.78 1143.15,127.792 "/>
<polyline clip-path="url(#clip302)" style="stroke:#000000; stroke-linecap:round; stroke-linejoin:round; stroke-width:2; stroke-opacity:0.1; fill:none" points="1483.21,1800.78 1483.21,127.792 "/>
<polyline clip-path="url(#clip302)" style="stroke:#000000; stroke-linecap:round; stroke-linejoin:round; stroke-width:2; stroke-opacity:0.1; fill:none" points="1823.26,1800.78 1823.26,127.792 "/>
<polyline clip-path="url(#clip302)" style="stroke:#000000; stroke-linecap:round; stroke-linejoin:round; stroke-width:2; stroke-opacity:0.1; fill:none" points="2163.32,1800.78 2163.32,127.792 "/>
<polyline clip-path="url(#clip302)" style="stroke:#000000; stroke-linecap:round; stroke-linejoin:round; stroke-width:2; stroke-opacity:0.1; fill:none" points="2503.37,1800.78 2503.37,127.792 "/>
<polyline clip-path="url(#clip300)" style="stroke:#000000; stroke-linecap:round; stroke-linejoin:round; stroke-width:4; stroke-opacity:1; fill:none" points="189.64,1800.78 2640.76,1800.78 "/>
<polyline clip-path="url(#clip300)" style="stroke:#000000; stroke-linecap:round; stroke-linejoin:round; stroke-width:4; stroke-opacity:1; fill:none" points="463.044,1800.78 463.044,1781.88 "/>
<polyline clip-path="url(#clip300)" style="stroke:#000000; stroke-linecap:round; stroke-linejoin:round; stroke-width:4; stroke-opacity:1; fill:none" points="803.099,1800.78 803.099,1781.88 "/>
<polyline clip-path="url(#clip300)" style="stroke:#000000; stroke-linecap:round; stroke-linejoin:round; stroke-width:4; stroke-opacity:1; fill:none" points="1143.15,1800.78 1143.15,1781.88 "/>
<polyline clip-path="url(#clip300)" style="stroke:#000000; stroke-linecap:round; stroke-linejoin:round; stroke-width:4; stroke-opacity:1; fill:none" points="1483.21,1800.78 1483.21,1781.88 "/>
<polyline clip-path="url(#clip300)" style="stroke:#000000; stroke-linecap:round; stroke-linejoin:round; stroke-width:4; stroke-opacity:1; fill:none" points="1823.26,1800.78 1823.26,1781.88 "/>
<polyline clip-path="url(#clip300)" style="stroke:#000000; stroke-linecap:round; stroke-linejoin:round; stroke-width:4; stroke-opacity:1; fill:none" points="2163.32,1800.78 2163.32,1781.88 "/>
<polyline clip-path="url(#clip300)" style="stroke:#000000; stroke-linecap:round; stroke-linejoin:round; stroke-width:4; stroke-opacity:1; fill:none" points="2503.37,1800.78 2503.37,1781.88 "/>
<path clip-path="url(#clip300)" d="M434.781 1861.55 L451.1 1861.55 L451.1 1865.48 L429.156 1865.48 L429.156 1861.55 Q431.818 1858.79 436.401 1854.16 Q441.007 1849.51 442.188 1848.17 Q444.433 1845.65 445.313 1843.91 Q446.216 1842.15 446.216 1840.46 Q446.216 1837.71 444.271 1835.97 Q442.35 1834.23 439.248 1834.23 Q437.049 1834.23 434.595 1835 Q432.165 1835.76 429.387 1837.31 L429.387 1832.59 Q432.211 1831.46 434.665 1830.88 Q437.118 1830.3 439.155 1830.3 Q444.526 1830.3 447.72 1832.98 Q450.915 1835.67 450.915 1840.16 Q450.915 1842.29 450.105 1844.21 Q449.317 1846.11 447.211 1848.7 Q446.632 1849.37 443.53 1852.59 Q440.429 1855.78 434.781 1861.55 Z" fill="#000000" fill-rule="nonzero" fill-opacity="1" /><path clip-path="url(#clip300)" d="M460.915 1859.6 L465.799 1859.6 L465.799 1865.48 L460.915 1865.48 L460.915 1859.6 Z" fill="#000000" fill-rule="nonzero" fill-opacity="1" /><path clip-path="url(#clip300)" d="M476.03 1830.92 L494.387 1830.92 L494.387 1834.86 L480.313 1834.86 L480.313 1843.33 Q481.331 1842.98 482.35 1842.82 Q483.368 1842.64 484.387 1842.64 Q490.174 1842.64 493.553 1845.81 Q496.933 1848.98 496.933 1854.4 Q496.933 1859.97 493.461 1863.08 Q489.989 1866.15 483.669 1866.15 Q481.493 1866.15 479.225 1865.78 Q476.979 1865.41 474.572 1864.67 L474.572 1859.97 Q476.655 1861.11 478.878 1861.66 Q481.1 1862.22 483.577 1862.22 Q487.581 1862.22 489.919 1860.11 Q492.257 1858.01 492.257 1854.4 Q492.257 1850.78 489.919 1848.68 Q487.581 1846.57 483.577 1846.57 Q481.702 1846.57 479.827 1846.99 Q477.975 1847.4 476.03 1848.28 L476.03 1830.92 Z" fill="#000000" fill-rule="nonzero" fill-opacity="1" /><path clip-path="url(#clip300)" d="M770.264 1830.92 L788.62 1830.92 L788.62 1834.86 L774.546 1834.86 L774.546 1843.33 Q775.565 1842.98 776.583 1842.82 Q777.602 1842.64 778.62 1842.64 Q784.407 1842.64 787.787 1845.81 Q791.166 1848.98 791.166 1854.4 Q791.166 1859.97 787.694 1863.08 Q784.222 1866.15 777.903 1866.15 Q775.727 1866.15 773.458 1865.78 Q771.213 1865.41 768.805 1864.67 L768.805 1859.97 Q770.889 1861.11 773.111 1861.66 Q775.333 1862.22 777.81 1862.22 Q781.815 1862.22 784.153 1860.11 Q786.49 1858.01 786.49 1854.4 Q786.49 1850.78 784.153 1848.68 Q781.815 1846.57 777.81 1846.57 Q775.935 1846.57 774.06 1846.99 Q772.208 1847.4 770.264 1848.28 L770.264 1830.92 Z" fill="#000000" fill-rule="nonzero" fill-opacity="1" /><path clip-path="url(#clip300)" d="M800.379 1859.6 L805.264 1859.6 L805.264 1865.48 L800.379 1865.48 L800.379 1859.6 Z" fill="#000000" fill-rule="nonzero" fill-opacity="1" /><path clip-path="url(#clip300)" d="M825.449 1834 Q821.837 1834 820.009 1837.57 Q818.203 1841.11 818.203 1848.24 Q818.203 1855.34 820.009 1858.91 Q821.837 1862.45 825.449 1862.45 Q829.083 1862.45 830.888 1858.91 Q832.717 1855.34 832.717 1848.24 Q832.717 1841.11 830.888 1837.57 Q829.083 1834 825.449 1834 M825.449 1830.3 Q831.259 1830.3 834.314 1834.9 Q837.393 1839.49 837.393 1848.24 Q837.393 1856.96 834.314 1861.57 Q831.259 1866.15 825.449 1866.15 Q819.638 1866.15 816.56 1861.57 Q813.504 1856.96 813.504 1848.24 Q813.504 1839.49 816.56 1834.9 Q819.638 1830.3 825.449 1830.3 Z" fill="#000000" fill-rule="nonzero" fill-opacity="1" /><path clip-path="url(#clip300)" d="M1109.47 1830.92 L1131.7 1830.92 L1131.7 1832.91 L1119.15 1865.48 L1114.27 1865.48 L1126.07 1834.86 L1109.47 1834.86 L1109.47 1830.92 Z" fill="#000000" fill-rule="nonzero" fill-opacity="1" /><path clip-path="url(#clip300)" d="M1140.82 1859.6 L1145.7 1859.6 L1145.7 1865.48 L1140.82 1865.48 L1140.82 1859.6 Z" fill="#000000" fill-rule="nonzero" fill-opacity="1" /><path clip-path="url(#clip300)" d="M1155.93 1830.92 L1174.29 1830.92 L1174.29 1834.86 L1160.21 1834.86 L1160.21 1843.33 Q1161.23 1842.98 1162.25 1842.82 Q1163.27 1842.64 1164.29 1842.64 Q1170.08 1842.64 1173.45 1845.81 Q1176.83 1848.98 1176.83 1854.4 Q1176.83 1859.97 1173.36 1863.08 Q1169.89 1866.15 1163.57 1866.15 Q1161.39 1866.15 1159.13 1865.78 Q1156.88 1865.41 1154.47 1864.67 L1154.47 1859.97 Q1156.56 1861.11 1158.78 1861.66 Q1161 1862.22 1163.48 1862.22 Q1167.48 1862.22 1169.82 1860.11 Q1172.16 1858.01 1172.16 1854.4 Q1172.16 1850.78 1169.82 1848.68 Q1167.48 1846.57 1163.48 1846.57 Q1161.6 1846.57 1159.73 1846.99 Q1157.88 1847.4 1155.93 1848.28 L1155.93 1830.92 Z" fill="#000000" fill-rule="nonzero" fill-opacity="1" /><path clip-path="url(#clip300)" d="M1435.28 1861.55 L1442.92 1861.55 L1442.92 1835.18 L1434.61 1836.85 L1434.61 1832.59 L1442.87 1830.92 L1447.55 1830.92 L1447.55 1861.55 L1455.19 1861.55 L1455.19 1865.48 L1435.28 1865.48 L1435.28 1861.55 Z" fill="#000000" fill-rule="nonzero" fill-opacity="1" /><path clip-path="url(#clip300)" d="M1474.63 1834 Q1471.02 1834 1469.19 1837.57 Q1467.39 1841.11 1467.39 1848.24 Q1467.39 1855.34 1469.19 1858.91 Q1471.02 1862.45 1474.63 1862.45 Q1478.27 1862.45 1480.07 1858.91 Q1481.9 1855.34 1481.9 1848.24 Q1481.9 1841.11 1480.07 1837.57 Q1478.27 1834 1474.63 1834 M1474.63 1830.3 Q1480.44 1830.3 1483.5 1834.9 Q1486.58 1839.49 1486.58 1848.24 Q1486.58 1856.96 1483.5 1861.57 Q1480.44 1866.15 1474.63 1866.15 Q1468.82 1866.15 1465.74 1861.57 Q1462.69 1856.96 1462.69 1848.24 Q1462.69 1839.49 1465.74 1834.9 Q1468.82 1830.3 1474.63 1830.3 Z" fill="#000000" fill-rule="nonzero" fill-opacity="1" /><path clip-path="url(#clip300)" d="M1494.79 1859.6 L1499.68 1859.6 L1499.68 1865.48 L1494.79 1865.48 L1494.79 1859.6 Z" fill="#000000" fill-rule="nonzero" fill-opacity="1" /><path clip-path="url(#clip300)" d="M1519.86 1834 Q1516.25 1834 1514.42 1837.57 Q1512.62 1841.11 1512.62 1848.24 Q1512.62 1855.34 1514.42 1858.91 Q1516.25 1862.45 1519.86 1862.45 Q1523.5 1862.45 1525.3 1858.91 Q1527.13 1855.34 1527.13 1848.24 Q1527.13 1841.11 1525.3 1837.57 Q1523.5 1834 1519.86 1834 M1519.86 1830.3 Q1525.67 1830.3 1528.73 1834.9 Q1531.81 1839.49 1531.81 1848.24 Q1531.81 1856.96 1528.73 1861.57 Q1525.67 1866.15 1519.86 1866.15 Q1514.05 1866.15 1510.98 1861.57 Q1507.92 1856.96 1507.92 1848.24 Q1507.92 1839.49 1510.98 1834.9 Q1514.05 1830.3 1519.86 1830.3 Z" fill="#000000" fill-rule="nonzero" fill-opacity="1" /><path clip-path="url(#clip300)" d="M1775.83 1861.55 L1783.47 1861.55 L1783.47 1835.18 L1775.16 1836.85 L1775.16 1832.59 L1783.43 1830.92 L1788.1 1830.92 L1788.1 1861.55 L1795.74 1861.55 L1795.74 1865.48 L1775.83 1865.48 L1775.83 1861.55 Z" fill="#000000" fill-rule="nonzero" fill-opacity="1" /><path clip-path="url(#clip300)" d="M1809.21 1861.55 L1825.53 1861.55 L1825.53 1865.48 L1803.59 1865.48 L1803.59 1861.55 Q1806.25 1858.79 1810.83 1854.16 Q1815.44 1849.51 1816.62 1848.17 Q1818.87 1845.65 1819.75 1843.91 Q1820.65 1842.15 1820.65 1840.46 Q1820.65 1837.71 1818.7 1835.97 Q1816.78 1834.23 1813.68 1834.23 Q1811.48 1834.23 1809.03 1835 Q1806.6 1835.76 1803.82 1837.31 L1803.82 1832.59 Q1806.64 1831.46 1809.1 1830.88 Q1811.55 1830.3 1813.59 1830.3 Q1818.96 1830.3 1822.15 1832.98 Q1825.35 1835.67 1825.35 1840.16 Q1825.35 1842.29 1824.54 1844.21 Q1823.75 1846.11 1821.64 1848.7 Q1821.06 1849.37 1817.96 1852.59 Q1814.86 1855.78 1809.21 1861.55 Z" fill="#000000" fill-rule="nonzero" fill-opacity="1" /><path clip-path="url(#clip300)" d="M1835.35 1859.6 L1840.23 1859.6 L1840.23 1865.48 L1835.35 1865.48 L1835.35 1859.6 Z" fill="#000000" fill-rule="nonzero" fill-opacity="1" /><path clip-path="url(#clip300)" d="M1850.46 1830.92 L1868.82 1830.92 L1868.82 1834.86 L1854.75 1834.86 L1854.75 1843.33 Q1855.76 1842.98 1856.78 1842.82 Q1857.8 1842.64 1858.82 1842.64 Q1864.61 1842.64 1867.99 1845.81 Q1871.37 1848.98 1871.37 1854.4 Q1871.37 1859.97 1867.89 1863.08 Q1864.42 1866.15 1858.1 1866.15 Q1855.93 1866.15 1853.66 1865.78 Q1851.41 1865.41 1849 1864.67 L1849 1859.97 Q1851.09 1861.11 1853.31 1861.66 Q1855.53 1862.22 1858.01 1862.22 Q1862.01 1862.22 1864.35 1860.11 Q1866.69 1858.01 1866.69 1854.4 Q1866.69 1850.78 1864.35 1848.68 Q1862.01 1846.57 1858.01 1846.57 Q1856.13 1846.57 1854.26 1846.99 Q1852.41 1847.4 1850.46 1848.28 L1850.46 1830.92 Z" fill="#000000" fill-rule="nonzero" fill-opacity="1" /><path clip-path="url(#clip300)" d="M2115.39 1861.55 L2123.03 1861.55 L2123.03 1835.18 L2114.72 1836.85 L2114.72 1832.59 L2122.98 1830.92 L2127.66 1830.92 L2127.66 1861.55 L2135.3 1861.55 L2135.3 1865.48 L2115.39 1865.48 L2115.39 1861.55 Z" fill="#000000" fill-rule="nonzero" fill-opacity="1" /><path clip-path="url(#clip300)" d="M2144.79 1830.92 L2163.15 1830.92 L2163.15 1834.86 L2149.07 1834.86 L2149.07 1843.33 Q2150.09 1842.98 2151.11 1842.82 Q2152.13 1842.64 2153.15 1842.64 Q2158.93 1842.64 2162.31 1845.81 Q2165.69 1848.98 2165.69 1854.4 Q2165.69 1859.97 2162.22 1863.08 Q2158.75 1866.15 2152.43 1866.15 Q2150.25 1866.15 2147.98 1865.78 Q2145.74 1865.41 2143.33 1864.67 L2143.33 1859.97 Q2145.41 1861.11 2147.64 1861.66 Q2149.86 1862.22 2152.34 1862.22 Q2156.34 1862.22 2158.68 1860.11 Q2161.02 1858.01 2161.02 1854.4 Q2161.02 1850.78 2158.68 1848.68 Q2156.34 1846.57 2152.34 1846.57 Q2150.46 1846.57 2148.59 1846.99 Q2146.73 1847.4 2144.79 1848.28 L2144.79 1830.92 Z" fill="#000000" fill-rule="nonzero" fill-opacity="1" /><path clip-path="url(#clip300)" d="M2174.9 1859.6 L2179.79 1859.6 L2179.79 1865.48 L2174.9 1865.48 L2174.9 1859.6 Z" fill="#000000" fill-rule="nonzero" fill-opacity="1" /><path clip-path="url(#clip300)" d="M2199.97 1834 Q2196.36 1834 2194.53 1837.57 Q2192.73 1841.11 2192.73 1848.24 Q2192.73 1855.34 2194.53 1858.91 Q2196.36 1862.45 2199.97 1862.45 Q2203.61 1862.45 2205.41 1858.91 Q2207.24 1855.34 2207.24 1848.24 Q2207.24 1841.11 2205.41 1837.57 Q2203.61 1834 2199.97 1834 M2199.97 1830.3 Q2205.78 1830.3 2208.84 1834.9 Q2211.92 1839.49 2211.92 1848.24 Q2211.92 1856.96 2208.84 1861.57 Q2205.78 1866.15 2199.97 1866.15 Q2194.16 1866.15 2191.08 1861.57 Q2188.03 1856.96 2188.03 1848.24 Q2188.03 1839.49 2191.08 1834.9 Q2194.16 1830.3 2199.97 1830.3 Z" fill="#000000" fill-rule="nonzero" fill-opacity="1" /><path clip-path="url(#clip300)" d="M2455.94 1861.55 L2463.58 1861.55 L2463.58 1835.18 L2455.27 1836.85 L2455.27 1832.59 L2463.54 1830.92 L2468.21 1830.92 L2468.21 1861.55 L2475.85 1861.55 L2475.85 1865.48 L2455.94 1865.48 L2455.94 1861.55 Z" fill="#000000" fill-rule="nonzero" fill-opacity="1" /><path clip-path="url(#clip300)" d="M2484.11 1830.92 L2506.34 1830.92 L2506.34 1832.91 L2493.79 1865.48 L2488.91 1865.48 L2500.71 1834.86 L2484.11 1834.86 L2484.11 1830.92 Z" fill="#000000" fill-rule="nonzero" fill-opacity="1" /><path clip-path="url(#clip300)" d="M2515.46 1859.6 L2520.34 1859.6 L2520.34 1865.48 L2515.46 1865.48 L2515.46 1859.6 Z" fill="#000000" fill-rule="nonzero" fill-opacity="1" /><path clip-path="url(#clip300)" d="M2530.57 1830.92 L2548.93 1830.92 L2548.93 1834.86 L2534.86 1834.86 L2534.86 1843.33 Q2535.87 1842.98 2536.89 1842.82 Q2537.91 1842.64 2538.93 1842.64 Q2544.72 1842.64 2548.1 1845.81 Q2551.48 1848.98 2551.48 1854.4 Q2551.48 1859.97 2548 1863.08 Q2544.53 1866.15 2538.21 1866.15 Q2536.04 1866.15 2533.77 1865.78 Q2531.52 1865.41 2529.11 1864.67 L2529.11 1859.97 Q2531.2 1861.11 2533.42 1861.66 Q2535.64 1862.22 2538.12 1862.22 Q2542.12 1862.22 2544.46 1860.11 Q2546.8 1858.01 2546.8 1854.4 Q2546.8 1850.78 2544.46 1848.68 Q2542.12 1846.57 2538.12 1846.57 Q2536.24 1846.57 2534.37 1846.99 Q2532.52 1847.4 2530.57 1848.28 L2530.57 1830.92 Z" fill="#000000" fill-rule="nonzero" fill-opacity="1" /><polyline clip-path="url(#clip302)" style="stroke:#000000; stroke-linecap:round; stroke-linejoin:round; stroke-width:2; stroke-opacity:0.1; fill:none" points="189.64,1759.77 2640.76,1759.77 "/>
<polyline clip-path="url(#clip302)" style="stroke:#000000; stroke-linecap:round; stroke-linejoin:round; stroke-width:2; stroke-opacity:0.1; fill:none" points="189.64,1476.67 2640.76,1476.67 "/>
<polyline clip-path="url(#clip302)" style="stroke:#000000; stroke-linecap:round; stroke-linejoin:round; stroke-width:2; stroke-opacity:0.1; fill:none" points="189.64,1193.57 2640.76,1193.57 "/>
<polyline clip-path="url(#clip302)" style="stroke:#000000; stroke-linecap:round; stroke-linejoin:round; stroke-width:2; stroke-opacity:0.1; fill:none" points="189.64,910.476 2640.76,910.476 "/>
<polyline clip-path="url(#clip302)" style="stroke:#000000; stroke-linecap:round; stroke-linejoin:round; stroke-width:2; stroke-opacity:0.1; fill:none" points="189.64,627.376 2640.76,627.376 "/>
<polyline clip-path="url(#clip302)" style="stroke:#000000; stroke-linecap:round; stroke-linejoin:round; stroke-width:2; stroke-opacity:0.1; fill:none" points="189.64,344.277 2640.76,344.277 "/>
<polyline clip-path="url(#clip300)" style="stroke:#000000; stroke-linecap:round; stroke-linejoin:round; stroke-width:4; stroke-opacity:1; fill:none" points="189.64,1800.78 189.64,127.792 "/>
<polyline clip-path="url(#clip300)" style="stroke:#000000; stroke-linecap:round; stroke-linejoin:round; stroke-width:4; stroke-opacity:1; fill:none" points="189.64,1759.77 208.538,1759.77 "/>
<polyline clip-path="url(#clip300)" style="stroke:#000000; stroke-linecap:round; stroke-linejoin:round; stroke-width:4; stroke-opacity:1; fill:none" points="189.64,1476.67 208.538,1476.67 "/>
<polyline clip-path="url(#clip300)" style="stroke:#000000; stroke-linecap:round; stroke-linejoin:round; stroke-width:4; stroke-opacity:1; fill:none" points="189.64,1193.57 208.538,1193.57 "/>
<polyline clip-path="url(#clip300)" style="stroke:#000000; stroke-linecap:round; stroke-linejoin:round; stroke-width:4; stroke-opacity:1; fill:none" points="189.64,910.476 208.538,910.476 "/>
<polyline clip-path="url(#clip300)" style="stroke:#000000; stroke-linecap:round; stroke-linejoin:round; stroke-width:4; stroke-opacity:1; fill:none" points="189.64,627.376 208.538,627.376 "/>
<polyline clip-path="url(#clip300)" style="stroke:#000000; stroke-linecap:round; stroke-linejoin:round; stroke-width:4; stroke-opacity:1; fill:none" points="189.64,344.277 208.538,344.277 "/>
<path clip-path="url(#clip300)" d="M61.9826 1745.57 Q58.3715 1745.57 56.5428 1749.14 Q54.7373 1752.68 54.7373 1759.81 Q54.7373 1766.91 56.5428 1770.48 Q58.3715 1774.02 61.9826 1774.02 Q65.6169 1774.02 67.4224 1770.48 Q69.2511 1766.91 69.2511 1759.81 Q69.2511 1752.68 67.4224 1749.14 Q65.6169 1745.57 61.9826 1745.57 M61.9826 1741.87 Q67.7928 1741.87 70.8483 1746.47 Q73.927 1751.06 73.927 1759.81 Q73.927 1768.53 70.8483 1773.14 Q67.7928 1777.72 61.9826 1777.72 Q56.1725 1777.72 53.0938 1773.14 Q50.0382 1768.53 50.0382 1759.81 Q50.0382 1751.06 53.0938 1746.47 Q56.1725 1741.87 61.9826 1741.87 Z" fill="#000000" fill-rule="nonzero" fill-opacity="1" /><path clip-path="url(#clip300)" d="M82.1445 1771.17 L87.0288 1771.17 L87.0288 1777.05 L82.1445 1777.05 L82.1445 1771.17 Z" fill="#000000" fill-rule="nonzero" fill-opacity="1" /><path clip-path="url(#clip300)" d="M107.214 1745.57 Q103.603 1745.57 101.774 1749.14 Q99.9685 1752.68 99.9685 1759.81 Q99.9685 1766.91 101.774 1770.48 Q103.603 1774.02 107.214 1774.02 Q110.848 1774.02 112.654 1770.48 Q114.482 1766.91 114.482 1759.81 Q114.482 1752.68 112.654 1749.14 Q110.848 1745.57 107.214 1745.57 M107.214 1741.87 Q113.024 1741.87 116.08 1746.47 Q119.158 1751.06 119.158 1759.81 Q119.158 1768.53 116.08 1773.14 Q113.024 1777.72 107.214 1777.72 Q101.404 1777.72 98.325 1773.14 Q95.2695 1768.53 95.2695 1759.81 Q95.2695 1751.06 98.325 1746.47 Q101.404 1741.87 107.214 1741.87 Z" fill="#000000" fill-rule="nonzero" fill-opacity="1" /><path clip-path="url(#clip300)" d="M137.376 1745.57 Q133.765 1745.57 131.936 1749.14 Q130.13 1752.68 130.13 1759.81 Q130.13 1766.91 131.936 1770.48 Q133.765 1774.02 137.376 1774.02 Q141.01 1774.02 142.816 1770.48 Q144.644 1766.91 144.644 1759.81 Q144.644 1752.68 142.816 1749.14 Q141.01 1745.57 137.376 1745.57 M137.376 1741.87 Q143.186 1741.87 146.241 1746.47 Q149.32 1751.06 149.32 1759.81 Q149.32 1768.53 146.241 1773.14 Q143.186 1777.72 137.376 1777.72 Q131.566 1777.72 128.487 1773.14 Q125.431 1768.53 125.431 1759.81 Q125.431 1751.06 128.487 1746.47 Q131.566 1741.87 137.376 1741.87 Z" fill="#000000" fill-rule="nonzero" fill-opacity="1" /><path clip-path="url(#clip300)" d="M63.2095 1462.47 Q59.5984 1462.47 57.7697 1466.04 Q55.9641 1469.58 55.9641 1476.71 Q55.9641 1483.81 57.7697 1487.38 Q59.5984 1490.92 63.2095 1490.92 Q66.8437 1490.92 68.6492 1487.38 Q70.4779 1483.81 70.4779 1476.71 Q70.4779 1469.58 68.6492 1466.04 Q66.8437 1462.47 63.2095 1462.47 M63.2095 1458.77 Q69.0196 1458.77 72.0752 1463.38 Q75.1538 1467.96 75.1538 1476.71 Q75.1538 1485.44 72.0752 1490.04 Q69.0196 1494.63 63.2095 1494.63 Q57.3993 1494.63 54.3206 1490.04 Q51.2651 1485.44 51.2651 1476.71 Q51.2651 1467.96 54.3206 1463.38 Q57.3993 1458.77 63.2095 1458.77 Z" fill="#000000" fill-rule="nonzero" fill-opacity="1" /><path clip-path="url(#clip300)" d="M83.3714 1488.07 L88.2556 1488.07 L88.2556 1493.95 L83.3714 1493.95 L83.3714 1488.07 Z" fill="#000000" fill-rule="nonzero" fill-opacity="1" /><path clip-path="url(#clip300)" d="M108.441 1462.47 Q104.83 1462.47 103.001 1466.04 Q101.195 1469.58 101.195 1476.71 Q101.195 1483.81 103.001 1487.38 Q104.83 1490.92 108.441 1490.92 Q112.075 1490.92 113.88 1487.38 Q115.709 1483.81 115.709 1476.71 Q115.709 1469.58 113.88 1466.04 Q112.075 1462.47 108.441 1462.47 M108.441 1458.77 Q114.251 1458.77 117.306 1463.38 Q120.385 1467.96 120.385 1476.71 Q120.385 1485.44 117.306 1490.04 Q114.251 1494.63 108.441 1494.63 Q102.631 1494.63 99.5519 1490.04 Q96.4963 1485.44 96.4963 1476.71 Q96.4963 1467.96 99.5519 1463.38 Q102.631 1458.77 108.441 1458.77 Z" fill="#000000" fill-rule="nonzero" fill-opacity="1" /><path clip-path="url(#clip300)" d="M129.413 1490.02 L137.052 1490.02 L137.052 1463.65 L128.742 1465.32 L128.742 1461.06 L137.005 1459.39 L141.681 1459.39 L141.681 1490.02 L149.32 1490.02 L149.32 1493.95 L129.413 1493.95 L129.413 1490.02 Z" fill="#000000" fill-rule="nonzero" fill-opacity="1" /><path clip-path="url(#clip300)" d="M63.5798 1179.37 Q59.9687 1179.37 58.14 1182.94 Q56.3345 1186.48 56.3345 1193.61 Q56.3345 1200.72 58.14 1204.28 Q59.9687 1207.82 63.5798 1207.82 Q67.2141 1207.82 69.0196 1204.28 Q70.8483 1200.72 70.8483 1193.61 Q70.8483 1186.48 69.0196 1182.94 Q67.2141 1179.37 63.5798 1179.37 M63.5798 1175.67 Q69.39 1175.67 72.4455 1180.28 Q75.5242 1184.86 75.5242 1193.61 Q75.5242 1202.34 72.4455 1206.94 Q69.39 1211.53 63.5798 1211.53 Q57.7697 1211.53 54.691 1206.94 Q51.6354 1202.34 51.6354 1193.61 Q51.6354 1184.86 54.691 1180.28 Q57.7697 1175.67 63.5798 1175.67 Z" fill="#000000" fill-rule="nonzero" fill-opacity="1" /><path clip-path="url(#clip300)" d="M83.7418 1204.98 L88.626 1204.98 L88.626 1210.85 L83.7418 1210.85 L83.7418 1204.98 Z" fill="#000000" fill-rule="nonzero" fill-opacity="1" /><path clip-path="url(#clip300)" d="M108.811 1179.37 Q105.2 1179.37 103.371 1182.94 Q101.566 1186.48 101.566 1193.61 Q101.566 1200.72 103.371 1204.28 Q105.2 1207.82 108.811 1207.82 Q112.445 1207.82 114.251 1204.28 Q116.08 1200.72 116.08 1193.61 Q116.08 1186.48 114.251 1182.94 Q112.445 1179.37 108.811 1179.37 M108.811 1175.67 Q114.621 1175.67 117.677 1180.28 Q120.755 1184.86 120.755 1193.61 Q120.755 1202.34 117.677 1206.94 Q114.621 1211.53 108.811 1211.53 Q103.001 1211.53 99.9222 1206.94 Q96.8667 1202.34 96.8667 1193.61 Q96.8667 1184.86 99.9222 1180.28 Q103.001 1175.67 108.811 1175.67 Z" fill="#000000" fill-rule="nonzero" fill-opacity="1" /><path clip-path="url(#clip300)" d="M133.001 1206.92 L149.32 1206.92 L149.32 1210.85 L127.376 1210.85 L127.376 1206.92 Q130.038 1204.16 134.621 1199.54 Q139.228 1194.88 140.408 1193.54 Q142.653 1191.02 143.533 1189.28 Q144.436 1187.52 144.436 1185.83 Q144.436 1183.08 142.491 1181.34 Q140.57 1179.6 137.468 1179.6 Q135.269 1179.6 132.816 1180.37 Q130.385 1181.13 127.607 1182.68 L127.607 1177.96 Q130.431 1176.83 132.885 1176.25 Q135.339 1175.67 137.376 1175.67 Q142.746 1175.67 145.94 1178.35 Q149.135 1181.04 149.135 1185.53 Q149.135 1187.66 148.325 1189.58 Q147.538 1191.48 145.431 1194.07 Q144.853 1194.74 141.751 1197.96 Q138.649 1201.16 133.001 1206.92 Z" fill="#000000" fill-rule="nonzero" fill-opacity="1" /><path clip-path="url(#clip300)" d="M62.6308 896.274 Q59.0197 896.274 57.191 899.839 Q55.3854 903.381 55.3854 910.51 Q55.3854 917.617 57.191 921.181 Q59.0197 924.723 62.6308 924.723 Q66.265 924.723 68.0705 921.181 Q69.8992 917.617 69.8992 910.51 Q69.8992 903.381 68.0705 899.839 Q66.265 896.274 62.6308 896.274 M62.6308 892.571 Q68.4409 892.571 71.4965 897.177 Q74.5751 901.76 74.5751 910.51 Q74.5751 919.237 71.4965 923.844 Q68.4409 928.427 62.6308 928.427 Q56.8206 928.427 53.7419 923.844 Q50.6864 919.237 50.6864 910.51 Q50.6864 901.76 53.7419 897.177 Q56.8206 892.571 62.6308 892.571 Z" fill="#000000" fill-rule="nonzero" fill-opacity="1" /><path clip-path="url(#clip300)" d="M82.7927 921.876 L87.6769 921.876 L87.6769 927.756 L82.7927 927.756 L82.7927 921.876 Z" fill="#000000" fill-rule="nonzero" fill-opacity="1" /><path clip-path="url(#clip300)" d="M107.862 896.274 Q104.251 896.274 102.422 899.839 Q100.617 903.381 100.617 910.51 Q100.617 917.617 102.422 921.181 Q104.251 924.723 107.862 924.723 Q111.496 924.723 113.302 921.181 Q115.13 917.617 115.13 910.51 Q115.13 903.381 113.302 899.839 Q111.496 896.274 107.862 896.274 M107.862 892.571 Q113.672 892.571 116.728 897.177 Q119.806 901.76 119.806 910.51 Q119.806 919.237 116.728 923.844 Q113.672 928.427 107.862 928.427 Q102.052 928.427 98.9732 923.844 Q95.9176 919.237 95.9176 910.51 Q95.9176 901.76 98.9732 897.177 Q102.052 892.571 107.862 892.571 Z" fill="#000000" fill-rule="nonzero" fill-opacity="1" /><path clip-path="url(#clip300)" d="M142.191 909.121 Q145.547 909.839 147.422 912.107 Q149.32 914.376 149.32 917.709 Q149.32 922.825 145.802 925.626 Q142.283 928.427 135.802 928.427 Q133.626 928.427 131.311 927.987 Q129.019 927.57 126.566 926.714 L126.566 922.2 Q128.51 923.334 130.825 923.913 Q133.14 924.492 135.663 924.492 Q140.061 924.492 142.353 922.756 Q144.667 921.019 144.667 917.709 Q144.667 914.654 142.515 912.941 Q140.385 911.205 136.566 911.205 L132.538 911.205 L132.538 907.362 L136.751 907.362 Q140.2 907.362 142.028 905.996 Q143.857 904.608 143.857 902.015 Q143.857 899.353 141.959 897.941 Q140.084 896.506 136.566 896.506 Q134.644 896.506 132.445 896.922 Q130.246 897.339 127.607 898.219 L127.607 894.052 Q130.269 893.311 132.584 892.941 Q134.922 892.571 136.982 892.571 Q142.306 892.571 145.408 895.001 Q148.51 897.408 148.51 901.529 Q148.51 904.399 146.866 906.39 Q145.223 908.357 142.191 909.121 Z" fill="#000000" fill-rule="nonzero" fill-opacity="1" /><path clip-path="url(#clip300)" d="M61.4965 613.175 Q57.8854 613.175 56.0567 616.74 Q54.2512 620.282 54.2512 627.411 Q54.2512 634.518 56.0567 638.082 Q57.8854 641.624 61.4965 641.624 Q65.1307 641.624 66.9363 638.082 Q68.765 634.518 68.765 627.411 Q68.765 620.282 66.9363 616.74 Q65.1307 613.175 61.4965 613.175 M61.4965 609.471 Q67.3067 609.471 70.3622 614.078 Q73.4409 618.661 73.4409 627.411 Q73.4409 636.138 70.3622 640.744 Q67.3067 645.328 61.4965 645.328 Q55.6864 645.328 52.6077 640.744 Q49.5521 636.138 49.5521 627.411 Q49.5521 618.661 52.6077 614.078 Q55.6864 609.471 61.4965 609.471 Z" fill="#000000" fill-rule="nonzero" fill-opacity="1" /><path clip-path="url(#clip300)" d="M81.6584 638.777 L86.5427 638.777 L86.5427 644.656 L81.6584 644.656 L81.6584 638.777 Z" fill="#000000" fill-rule="nonzero" fill-opacity="1" /><path clip-path="url(#clip300)" d="M106.728 613.175 Q103.117 613.175 101.288 616.74 Q99.4824 620.282 99.4824 627.411 Q99.4824 634.518 101.288 638.082 Q103.117 641.624 106.728 641.624 Q110.362 641.624 112.168 638.082 Q113.996 634.518 113.996 627.411 Q113.996 620.282 112.168 616.74 Q110.362 613.175 106.728 613.175 M106.728 609.471 Q112.538 609.471 115.593 614.078 Q118.672 618.661 118.672 627.411 Q118.672 636.138 115.593 640.744 Q112.538 645.328 106.728 645.328 Q100.918 645.328 97.8389 640.744 Q94.7834 636.138 94.7834 627.411 Q94.7834 618.661 97.8389 614.078 Q100.918 609.471 106.728 609.471 Z" fill="#000000" fill-rule="nonzero" fill-opacity="1" /><path clip-path="url(#clip300)" d="M139.737 614.17 L127.931 632.619 L139.737 632.619 L139.737 614.17 M138.51 610.096 L144.39 610.096 L144.39 632.619 L149.32 632.619 L149.32 636.508 L144.39 636.508 L144.39 644.656 L139.737 644.656 L139.737 636.508 L124.135 636.508 L124.135 631.994 L138.51 610.096 Z" fill="#000000" fill-rule="nonzero" fill-opacity="1" /><path clip-path="url(#clip300)" d="M62.978 330.076 Q59.3669 330.076 57.5382 333.641 Q55.7326 337.182 55.7326 344.312 Q55.7326 351.418 57.5382 354.983 Q59.3669 358.525 62.978 358.525 Q66.6122 358.525 68.4178 354.983 Q70.2465 351.418 70.2465 344.312 Q70.2465 337.182 68.4178 333.641 Q66.6122 330.076 62.978 330.076 M62.978 326.372 Q68.7881 326.372 71.8437 330.979 Q74.9224 335.562 74.9224 344.312 Q74.9224 353.039 71.8437 357.645 Q68.7881 362.229 62.978 362.229 Q57.1678 362.229 54.0891 357.645 Q51.0336 353.039 51.0336 344.312 Q51.0336 335.562 54.0891 330.979 Q57.1678 326.372 62.978 326.372 Z" fill="#000000" fill-rule="nonzero" fill-opacity="1" /><path clip-path="url(#clip300)" d="M83.1399 355.678 L88.0241 355.678 L88.0241 361.557 L83.1399 361.557 L83.1399 355.678 Z" fill="#000000" fill-rule="nonzero" fill-opacity="1" /><path clip-path="url(#clip300)" d="M108.209 330.076 Q104.598 330.076 102.769 333.641 Q100.964 337.182 100.964 344.312 Q100.964 351.418 102.769 354.983 Q104.598 358.525 108.209 358.525 Q111.843 358.525 113.649 354.983 Q115.478 351.418 115.478 344.312 Q115.478 337.182 113.649 333.641 Q111.843 330.076 108.209 330.076 M108.209 326.372 Q114.019 326.372 117.075 330.979 Q120.154 335.562 120.154 344.312 Q120.154 353.039 117.075 357.645 Q114.019 362.229 108.209 362.229 Q102.399 362.229 99.3204 357.645 Q96.2648 353.039 96.2648 344.312 Q96.2648 335.562 99.3204 330.979 Q102.399 326.372 108.209 326.372 Z" fill="#000000" fill-rule="nonzero" fill-opacity="1" /><path clip-path="url(#clip300)" d="M128.417 326.997 L146.774 326.997 L146.774 330.932 L132.7 330.932 L132.7 339.405 Q133.718 339.057 134.737 338.895 Q135.755 338.71 136.774 338.71 Q142.561 338.71 145.94 341.881 Q149.32 345.053 149.32 350.469 Q149.32 356.048 145.848 359.15 Q142.376 362.229 136.056 362.229 Q133.88 362.229 131.612 361.858 Q129.367 361.488 126.959 360.747 L126.959 356.048 Q129.042 357.182 131.265 357.738 Q133.487 358.293 135.964 358.293 Q139.968 358.293 142.306 356.187 Q144.644 354.08 144.644 350.469 Q144.644 346.858 142.306 344.752 Q139.968 342.645 135.964 342.645 Q134.089 342.645 132.214 343.062 Q130.362 343.479 128.417 344.358 L128.417 326.997 Z" fill="#000000" fill-rule="nonzero" fill-opacity="1" /><path clip-path="url(#clip300)" d="M1067.69 48.0275 L1067.69 51.6733 L1033.42 51.6733 Q1033.91 59.3701 1038.04 63.421 Q1042.21 67.4314 1049.62 67.4314 Q1053.92 67.4314 1057.93 66.3781 Q1061.98 65.3249 1065.95 63.2184 L1065.95 70.267 Q1061.94 71.9684 1057.73 72.8596 Q1053.51 73.7508 1049.18 73.7508 Q1038.32 73.7508 1031.96 67.4314 Q1025.64 61.1119 1025.64 50.3365 Q1025.64 39.1965 1031.64 32.6746 Q1037.67 26.1121 1047.88 26.1121 Q1057.04 26.1121 1062.34 32.0264 Q1067.69 37.9003 1067.69 48.0275 M1060.24 45.84 Q1060.16 39.7232 1056.79 36.0774 Q1053.47 32.4315 1047.96 32.4315 Q1041.72 32.4315 1037.96 35.9558 Q1034.23 39.4801 1033.66 45.8805 L1060.24 45.84 Z" fill="#000000" fill-rule="nonzero" fill-opacity="1" /><path clip-path="url(#clip300)" d="M1116.18 27.2059 L1099.77 49.2833 L1117.03 72.576 L1108.24 72.576 L1095.03 54.752 L1081.83 72.576 L1073.04 72.576 L1090.66 48.8377 L1074.54 27.2059 L1083.33 27.2059 L1095.36 43.369 L1107.39 27.2059 L1116.18 27.2059 Z" fill="#000000" fill-rule="nonzero" fill-opacity="1" /><path clip-path="url(#clip300)" d="M1134.77 65.7705 L1134.77 89.8329 L1127.28 89.8329 L1127.28 27.2059 L1134.77 27.2059 L1134.77 34.0924 Q1137.12 30.0415 1140.69 28.0971 Q1144.29 26.1121 1149.28 26.1121 Q1157.54 26.1121 1162.68 32.6746 Q1167.87 39.2371 1167.87 49.9314 Q1167.87 60.6258 1162.68 67.1883 Q1157.54 73.7508 1149.28 73.7508 Q1144.29 73.7508 1140.69 71.8063 Q1137.12 69.8214 1134.77 65.7705 M1160.13 49.9314 Q1160.13 41.7081 1156.73 37.0496 Q1153.37 32.3505 1147.45 32.3505 Q1141.54 32.3505 1138.14 37.0496 Q1134.77 41.7081 1134.77 49.9314 Q1134.77 58.1548 1138.14 62.8538 Q1141.54 67.5124 1147.45 67.5124 Q1153.37 67.5124 1156.73 62.8538 Q1160.13 58.1548 1160.13 49.9314 Z" fill="#000000" fill-rule="nonzero" fill-opacity="1" /><path clip-path="url(#clip300)" d="M1180.23 9.54393 L1187.68 9.54393 L1187.68 72.576 L1180.23 72.576 L1180.23 9.54393 Z" fill="#000000" fill-rule="nonzero" fill-opacity="1" /><path clip-path="url(#clip300)" d="M1223.89 49.7694 Q1214.86 49.7694 1211.38 51.8354 Q1207.89 53.9013 1207.89 58.8839 Q1207.89 62.8538 1210.49 65.2034 Q1213.12 67.5124 1217.62 67.5124 Q1223.81 67.5124 1227.54 63.1374 Q1231.31 58.7219 1231.31 51.4303 L1231.31 49.7694 L1223.89 49.7694 M1238.76 46.6907 L1238.76 72.576 L1231.31 72.576 L1231.31 65.6895 Q1228.76 69.8214 1224.95 71.8063 Q1221.14 73.7508 1215.63 73.7508 Q1208.66 73.7508 1204.53 69.8619 Q1200.44 65.9325 1200.44 59.3701 Q1200.44 51.7138 1205.54 47.825 Q1210.69 43.9361 1220.86 43.9361 L1231.31 43.9361 L1231.31 43.2069 Q1231.31 38.0623 1227.9 35.2672 Q1224.54 32.4315 1218.43 32.4315 Q1214.54 32.4315 1210.85 33.3632 Q1207.16 34.295 1203.76 36.1584 L1203.76 29.2718 Q1207.85 27.692 1211.7 26.9223 Q1215.55 26.1121 1219.2 26.1121 Q1229.04 26.1121 1233.9 31.2163 Q1238.76 36.3204 1238.76 46.6907 Z" fill="#000000" fill-rule="nonzero" fill-opacity="1" /><path clip-path="url(#clip300)" d="M1254.11 27.2059 L1261.57 27.2059 L1261.57 72.576 L1254.11 72.576 L1254.11 27.2059 M1254.11 9.54393 L1261.57 9.54393 L1261.57 18.9825 L1254.11 18.9825 L1254.11 9.54393 Z" fill="#000000" fill-rule="nonzero" fill-opacity="1" /><path clip-path="url(#clip300)" d="M1314.88 45.1919 L1314.88 72.576 L1307.42 72.576 L1307.42 45.4349 Q1307.42 38.994 1304.91 35.7938 Q1302.4 32.5936 1297.38 32.5936 Q1291.34 32.5936 1287.86 36.4419 Q1284.37 40.2903 1284.37 46.9338 L1284.37 72.576 L1276.88 72.576 L1276.88 27.2059 L1284.37 27.2059 L1284.37 34.2544 Q1287.05 30.163 1290.65 28.1376 Q1294.3 26.1121 1299.04 26.1121 Q1306.86 26.1121 1310.87 30.9732 Q1314.88 35.7938 1314.88 45.1919 Z" fill="#000000" fill-rule="nonzero" fill-opacity="1" /><path clip-path="url(#clip300)" d="M1368.55 48.0275 L1368.55 51.6733 L1334.28 51.6733 Q1334.77 59.3701 1338.9 63.421 Q1343.07 67.4314 1350.48 67.4314 Q1354.78 67.4314 1358.79 66.3781 Q1362.84 65.3249 1366.81 63.2184 L1366.81 70.267 Q1362.8 71.9684 1358.59 72.8596 Q1354.37 73.7508 1350.04 73.7508 Q1339.18 73.7508 1332.82 67.4314 Q1326.5 61.1119 1326.5 50.3365 Q1326.5 39.1965 1332.5 32.6746 Q1338.53 26.1121 1348.74 26.1121 Q1357.9 26.1121 1363.2 32.0264 Q1368.55 37.9003 1368.55 48.0275 M1361.1 45.84 Q1361.02 39.7232 1357.65 36.0774 Q1354.33 32.4315 1348.82 32.4315 Q1342.59 32.4315 1338.82 35.9558 Q1335.09 39.4801 1334.52 45.8805 L1361.1 45.84 Z" fill="#000000" fill-rule="nonzero" fill-opacity="1" /><path clip-path="url(#clip300)" d="M1410.64 34.0924 L1410.64 9.54393 L1418.09 9.54393 L1418.09 72.576 L1410.64 72.576 L1410.64 65.7705 Q1408.29 69.8214 1404.69 71.8063 Q1401.12 73.7508 1396.1 73.7508 Q1387.87 73.7508 1382.69 67.1883 Q1377.54 60.6258 1377.54 49.9314 Q1377.54 39.2371 1382.69 32.6746 Q1387.87 26.1121 1396.1 26.1121 Q1401.12 26.1121 1404.69 28.0971 Q1408.29 30.0415 1410.64 34.0924 M1385.24 49.9314 Q1385.24 58.1548 1388.6 62.8538 Q1392.01 67.5124 1397.92 67.5124 Q1403.84 67.5124 1407.24 62.8538 Q1410.64 58.1548 1410.64 49.9314 Q1410.64 41.7081 1407.24 37.0496 Q1403.84 32.3505 1397.92 32.3505 Q1392.01 32.3505 1388.6 37.0496 Q1385.24 41.7081 1385.24 49.9314 Z" fill="#000000" fill-rule="nonzero" fill-opacity="1" /><path clip-path="url(#clip300)" d="M1454.47 27.2059 L1462.37 27.2059 L1476.55 65.2844 L1490.73 27.2059 L1498.63 27.2059 L1481.61 72.576 L1471.49 72.576 L1454.47 27.2059 Z" fill="#000000" fill-rule="nonzero" fill-opacity="1" /><path clip-path="url(#clip300)" d="M1529.53 49.7694 Q1520.5 49.7694 1517.02 51.8354 Q1513.53 53.9013 1513.53 58.8839 Q1513.53 62.8538 1516.13 65.2034 Q1518.76 67.5124 1523.26 67.5124 Q1529.45 67.5124 1533.18 63.1374 Q1536.95 58.7219 1536.95 51.4303 L1536.95 49.7694 L1529.53 49.7694 M1544.4 46.6907 L1544.4 72.576 L1536.95 72.576 L1536.95 65.6895 Q1534.4 69.8214 1530.59 71.8063 Q1526.78 73.7508 1521.27 73.7508 Q1514.3 73.7508 1510.17 69.8619 Q1506.08 65.9325 1506.08 59.3701 Q1506.08 51.7138 1511.18 47.825 Q1516.33 43.9361 1526.5 43.9361 L1536.95 43.9361 L1536.95 43.2069 Q1536.95 38.0623 1533.55 35.2672 Q1530.18 32.4315 1524.07 32.4315 Q1520.18 32.4315 1516.49 33.3632 Q1512.8 34.295 1509.4 36.1584 L1509.4 29.2718 Q1513.49 27.692 1517.34 26.9223 Q1521.19 26.1121 1524.84 26.1121 Q1534.68 26.1121 1539.54 31.2163 Q1544.4 36.3204 1544.4 46.6907 Z" fill="#000000" fill-rule="nonzero" fill-opacity="1" /><path clip-path="url(#clip300)" d="M1586.04 34.1734 Q1584.79 33.4443 1583.29 33.1202 Q1581.83 32.7556 1580.05 32.7556 Q1573.73 32.7556 1570.33 36.8875 Q1566.97 40.9789 1566.97 48.6757 L1566.97 72.576 L1559.47 72.576 L1559.47 27.2059 L1566.97 27.2059 L1566.97 34.2544 Q1569.31 30.1225 1573.08 28.1376 Q1576.85 26.1121 1582.24 26.1121 Q1583.01 26.1121 1583.94 26.2337 Q1584.87 26.3147 1586 26.5172 L1586.04 34.1734 Z" fill="#000000" fill-rule="nonzero" fill-opacity="1" /><path clip-path="url(#clip300)" d="M1593.86 27.2059 L1601.32 27.2059 L1601.32 72.576 L1593.86 72.576 L1593.86 27.2059 M1593.86 9.54393 L1601.32 9.54393 L1601.32 18.9825 L1593.86 18.9825 L1593.86 9.54393 Z" fill="#000000" fill-rule="nonzero" fill-opacity="1" /><path clip-path="url(#clip300)" d="M1637.53 49.7694 Q1628.5 49.7694 1625.01 51.8354 Q1621.53 53.9013 1621.53 58.8839 Q1621.53 62.8538 1624.12 65.2034 Q1626.76 67.5124 1631.25 67.5124 Q1637.45 67.5124 1641.18 63.1374 Q1644.95 58.7219 1644.95 51.4303 L1644.95 49.7694 L1637.53 49.7694 M1652.4 46.6907 L1652.4 72.576 L1644.95 72.576 L1644.95 65.6895 Q1642.39 69.8214 1638.59 71.8063 Q1634.78 73.7508 1629.27 73.7508 Q1622.3 73.7508 1618.17 69.8619 Q1614.08 65.9325 1614.08 59.3701 Q1614.08 51.7138 1619.18 47.825 Q1624.33 43.9361 1634.49 43.9361 L1644.95 43.9361 L1644.95 43.2069 Q1644.95 38.0623 1641.54 35.2672 Q1638.18 32.4315 1632.06 32.4315 Q1628.17 32.4315 1624.49 33.3632 Q1620.8 34.295 1617.4 36.1584 L1617.4 29.2718 Q1621.49 27.692 1625.34 26.9223 Q1629.19 26.1121 1632.83 26.1121 Q1642.68 26.1121 1647.54 31.2163 Q1652.4 36.3204 1652.4 46.6907 Z" fill="#000000" fill-rule="nonzero" fill-opacity="1" /><path clip-path="url(#clip300)" d="M1705.47 45.1919 L1705.47 72.576 L1698.01 72.576 L1698.01 45.4349 Q1698.01 38.994 1695.5 35.7938 Q1692.99 32.5936 1687.97 32.5936 Q1681.93 32.5936 1678.45 36.4419 Q1674.96 40.2903 1674.96 46.9338 L1674.96 72.576 L1667.47 72.576 L1667.47 27.2059 L1674.96 27.2059 L1674.96 34.2544 Q1677.64 30.163 1681.24 28.1376 Q1684.89 26.1121 1689.63 26.1121 Q1697.44 26.1121 1701.46 30.9732 Q1705.47 35.7938 1705.47 45.1919 Z" fill="#000000" fill-rule="nonzero" fill-opacity="1" /><path clip-path="url(#clip300)" d="M1752.98 28.9478 L1752.98 35.9153 Q1749.82 34.1734 1746.62 33.3227 Q1743.46 32.4315 1740.22 32.4315 Q1732.97 32.4315 1728.96 37.0496 Q1724.95 41.6271 1724.95 49.9314 Q1724.95 58.2358 1728.96 62.8538 Q1732.97 67.4314 1740.22 67.4314 Q1743.46 67.4314 1746.62 66.5807 Q1749.82 65.6895 1752.98 63.9476 L1752.98 70.8341 Q1749.86 72.2924 1746.5 73.0216 Q1743.18 73.7508 1739.41 73.7508 Q1729.16 73.7508 1723.13 67.3098 Q1717.09 60.8689 1717.09 49.9314 Q1717.09 38.832 1723.17 32.472 Q1729.28 26.1121 1739.9 26.1121 Q1743.34 26.1121 1746.62 26.8413 Q1749.9 27.5299 1752.98 28.9478 Z" fill="#000000" fill-rule="nonzero" fill-opacity="1" /><path clip-path="url(#clip300)" d="M1804.75 48.0275 L1804.75 51.6733 L1770.48 51.6733 Q1770.97 59.3701 1775.1 63.421 Q1779.27 67.4314 1786.69 67.4314 Q1790.98 67.4314 1794.99 66.3781 Q1799.04 65.3249 1803.01 63.2184 L1803.01 70.267 Q1799 71.9684 1794.79 72.8596 Q1790.58 73.7508 1786.24 73.7508 Q1775.38 73.7508 1769.02 67.4314 Q1762.7 61.1119 1762.7 50.3365 Q1762.7 39.1965 1768.7 32.6746 Q1774.74 26.1121 1784.94 26.1121 Q1794.1 26.1121 1799.41 32.0264 Q1804.75 37.9003 1804.75 48.0275 M1797.3 45.84 Q1797.22 39.7232 1793.86 36.0774 Q1790.53 32.4315 1785.03 32.4315 Q1778.79 32.4315 1775.02 35.9558 Q1771.29 39.4801 1770.73 45.8805 L1797.3 45.84 Z" fill="#000000" fill-rule="nonzero" fill-opacity="1" /><polyline clip-path="url(#clip302)" style="stroke:#009af9; stroke-linecap:round; stroke-linejoin:round; stroke-width:4; stroke-opacity:1; fill:none" points="259.011,175.141 395.033,1213.6 531.055,1396.23 667.077,1569.46 803.099,1603.9 939.121,1656.49 1075.14,1694.67 1211.17,1696.63 1347.19,1701.18 1483.21,1721.34 1619.23,1726.08 1755.25,1736.97 1891.27,1737.81 2027.3,1742.23 2163.32,1745.03 2299.34,1749.81 2435.36,1751.76 2571.38,1753.43 "/>
<path clip-path="url(#clip300)" d="M2016.91 287.238 L2559.05 287.238 L2559.05 183.558 L2016.91 183.558  Z" fill="#ffffff" fill-rule="evenodd" fill-opacity="1"/>
<polyline clip-path="url(#clip300)" style="stroke:#000000; stroke-linecap:round; stroke-linejoin:round; stroke-width:4; stroke-opacity:1; fill:none" points="2016.91,287.238 2559.05,287.238 2559.05,183.558 2016.91,183.558 2016.91,287.238 "/>
<polyline clip-path="url(#clip300)" style="stroke:#009af9; stroke-linecap:round; stroke-linejoin:round; stroke-width:4; stroke-opacity:1; fill:none" points="2044.14,235.398 2207.55,235.398 "/>
<path clip-path="url(#clip300)" d="M2234.78 218.118 L2264.02 218.118 L2264.02 222.054 L2251.75 222.054 L2251.75 252.678 L2247.05 252.678 L2247.05 222.054 L2234.78 222.054 L2234.78 218.118 Z" fill="#000000" fill-rule="nonzero" fill-opacity="1" /><path clip-path="url(#clip300)" d="M2272.28 239.646 Q2267.12 239.646 2265.13 240.827 Q2263.14 242.007 2263.14 244.854 Q2263.14 247.123 2264.62 248.465 Q2266.12 249.785 2268.69 249.785 Q2272.24 249.785 2274.37 247.285 Q2276.52 244.762 2276.52 240.595 L2276.52 239.646 L2272.28 239.646 M2280.78 237.887 L2280.78 252.678 L2276.52 252.678 L2276.52 248.743 Q2275.06 251.104 2272.88 252.239 Q2270.71 253.35 2267.56 253.35 Q2263.58 253.35 2261.22 251.127 Q2258.88 248.882 2258.88 245.132 Q2258.88 240.757 2261.8 238.535 Q2264.74 236.313 2270.55 236.313 L2276.52 236.313 L2276.52 235.896 Q2276.52 232.956 2274.57 231.359 Q2272.65 229.739 2269.16 229.739 Q2266.93 229.739 2264.83 230.271 Q2262.72 230.803 2260.78 231.868 L2260.78 227.933 Q2263.12 227.03 2265.31 226.591 Q2267.51 226.128 2269.6 226.128 Q2275.22 226.128 2278 229.044 Q2280.78 231.961 2280.78 237.887 Z" fill="#000000" fill-rule="nonzero" fill-opacity="1" /><path clip-path="url(#clip300)" d="M2311.1 237.03 L2311.1 252.678 L2306.84 252.678 L2306.84 237.169 Q2306.84 233.489 2305.41 231.66 Q2303.97 229.831 2301.1 229.831 Q2297.65 229.831 2295.66 232.03 Q2293.67 234.229 2293.67 238.026 L2293.67 252.678 L2289.39 252.678 L2289.39 226.753 L2293.67 226.753 L2293.67 230.78 Q2295.2 228.442 2297.26 227.285 Q2299.34 226.128 2302.05 226.128 Q2306.52 226.128 2308.81 228.905 Q2311.1 231.66 2311.1 237.03 Z" fill="#000000" fill-rule="nonzero" fill-opacity="1" /><path clip-path="url(#clip300)" d="M2336.66 239.415 Q2336.66 234.785 2334.74 232.239 Q2332.84 229.692 2329.39 229.692 Q2325.96 229.692 2324.04 232.239 Q2322.14 234.785 2322.14 239.415 Q2322.14 244.021 2324.04 246.567 Q2325.96 249.114 2329.39 249.114 Q2332.84 249.114 2334.74 246.567 Q2336.66 244.021 2336.66 239.415 M2340.92 249.461 Q2340.92 256.081 2337.98 259.299 Q2335.04 262.539 2328.97 262.539 Q2326.73 262.539 2324.74 262.192 Q2322.74 261.868 2320.87 261.174 L2320.87 257.03 Q2322.74 258.049 2324.57 258.535 Q2326.4 259.021 2328.3 259.021 Q2332.49 259.021 2334.57 256.822 Q2336.66 254.646 2336.66 250.225 L2336.66 248.118 Q2335.34 250.41 2333.28 251.544 Q2331.22 252.678 2328.35 252.678 Q2323.58 252.678 2320.66 249.044 Q2317.74 245.41 2317.74 239.415 Q2317.74 233.396 2320.66 229.762 Q2323.58 226.128 2328.35 226.128 Q2331.22 226.128 2333.28 227.262 Q2335.34 228.396 2336.66 230.688 L2336.66 226.753 L2340.92 226.753 L2340.92 249.461 Z" fill="#000000" fill-rule="nonzero" fill-opacity="1" /><path clip-path="url(#clip300)" d="M2371.86 238.651 L2371.86 240.734 L2352.28 240.734 Q2352.56 245.132 2354.92 247.447 Q2357.3 249.739 2361.54 249.739 Q2363.99 249.739 2366.29 249.137 Q2368.6 248.535 2370.87 247.331 L2370.87 251.359 Q2368.58 252.331 2366.17 252.84 Q2363.76 253.35 2361.29 253.35 Q2355.08 253.35 2351.45 249.739 Q2347.84 246.127 2347.84 239.97 Q2347.84 233.604 2351.26 229.878 Q2354.71 226.128 2360.55 226.128 Q2365.78 226.128 2368.81 229.507 Q2371.86 232.864 2371.86 238.651 M2367.61 237.401 Q2367.56 233.905 2365.64 231.822 Q2363.74 229.739 2360.59 229.739 Q2357.03 229.739 2354.87 231.753 Q2352.74 233.766 2352.42 237.424 L2367.61 237.401 Z" fill="#000000" fill-rule="nonzero" fill-opacity="1" /><path clip-path="url(#clip300)" d="M2400.41 237.03 L2400.41 252.678 L2396.15 252.678 L2396.15 237.169 Q2396.15 233.489 2394.71 231.66 Q2393.28 229.831 2390.41 229.831 Q2386.96 229.831 2384.97 232.03 Q2382.98 234.229 2382.98 238.026 L2382.98 252.678 L2378.69 252.678 L2378.69 226.753 L2382.98 226.753 L2382.98 230.78 Q2384.5 228.442 2386.56 227.285 Q2388.65 226.128 2391.36 226.128 Q2395.82 226.128 2398.11 228.905 Q2400.41 231.66 2400.41 237.03 Z" fill="#000000" fill-rule="nonzero" fill-opacity="1" /><path clip-path="url(#clip300)" d="M2413.11 219.392 L2413.11 226.753 L2421.89 226.753 L2421.89 230.063 L2413.11 230.063 L2413.11 244.137 Q2413.11 247.308 2413.97 248.211 Q2414.85 249.114 2417.51 249.114 L2421.89 249.114 L2421.89 252.678 L2417.51 252.678 Q2412.58 252.678 2410.71 250.85 Q2408.83 248.998 2408.83 244.137 L2408.83 230.063 L2405.71 230.063 L2405.71 226.753 L2408.83 226.753 L2408.83 219.392 L2413.11 219.392 Z" fill="#000000" fill-rule="nonzero" fill-opacity="1" /><path clip-path="url(#clip300)" d="M2447.42 221.961 L2447.42 234.947 L2453.3 234.947 Q2456.56 234.947 2458.35 233.257 Q2460.13 231.567 2460.13 228.442 Q2460.13 225.341 2458.35 223.651 Q2456.56 221.961 2453.3 221.961 L2447.42 221.961 M2442.74 218.118 L2453.3 218.118 Q2459.11 218.118 2462.07 220.757 Q2465.06 223.373 2465.06 228.442 Q2465.06 233.558 2462.07 236.174 Q2459.11 238.79 2453.3 238.79 L2447.42 238.79 L2447.42 252.678 L2442.74 252.678 L2442.74 218.118 Z" fill="#000000" fill-rule="nonzero" fill-opacity="1" /><path clip-path="url(#clip300)" d="M2497.21 220.78 L2497.21 225.711 Q2494.85 223.512 2492.16 222.424 Q2489.5 221.336 2486.49 221.336 Q2480.57 221.336 2477.42 224.97 Q2474.27 228.581 2474.27 235.433 Q2474.27 242.262 2477.42 245.896 Q2480.57 249.507 2486.49 249.507 Q2489.5 249.507 2492.16 248.419 Q2494.85 247.331 2497.21 245.132 L2497.21 250.016 Q2494.76 251.683 2492 252.516 Q2489.27 253.35 2486.22 253.35 Q2478.37 253.35 2473.85 248.558 Q2469.34 243.743 2469.34 235.433 Q2469.34 227.1 2473.85 222.308 Q2478.37 217.493 2486.22 217.493 Q2489.32 217.493 2492.05 218.327 Q2494.8 219.137 2497.21 220.78 Z" fill="#000000" fill-rule="nonzero" fill-opacity="1" /><path clip-path="url(#clip300)" d="M2515.98 222.725 L2509.64 239.924 L2522.35 239.924 L2515.98 222.725 M2513.35 218.118 L2518.65 218.118 L2531.82 252.678 L2526.96 252.678 L2523.81 243.813 L2508.23 243.813 L2505.08 252.678 L2500.15 252.678 L2513.35 218.118 Z" fill="#000000" fill-rule="nonzero" fill-opacity="1" /></svg>
