<?xml version="1.0" encoding="utf-8"?>
<svg xmlns="http://www.w3.org/2000/svg" xmlns:xlink="http://www.w3.org/1999/xlink" width="672" height="480" viewBox="0 0 2688 1920">
<defs>
  <clipPath id="clip360">
    <rect x="0" y="0" width="2688" height="1920"/>
  </clipPath>
</defs>
<path clip-path="url(#clip360)" d="M0 1920 L2688 1920 L2688 0 L0 0  Z" fill="#ffffff" fill-rule="evenodd" fill-opacity="1"/>
<defs>
  <clipPath id="clip361">
    <rect x="537" y="0" width="1883" height="1883"/>
  </clipPath>
</defs>
<path clip-path="url(#clip360)" d="M293.64 1734.12 L2640.76 1734.12 L2640.76 127.792 L293.64 127.792  Z" fill="#ffffff" fill-rule="evenodd" fill-opacity="1"/>
<defs>
  <clipPath id="clip362">
    <rect x="293" y="127" width="2348" height="1607"/>
  </clipPath>
</defs>
<polyline clip-path="url(#clip362)" style="stroke:#000000; stroke-linecap:round; stroke-linejoin:round; stroke-width:2; stroke-opacity:0.1; fill:none" points="666.341,1734.12 666.341,127.792 "/>
<polyline clip-path="url(#clip362)" style="stroke:#000000; stroke-linecap:round; stroke-linejoin:round; stroke-width:2; stroke-opacity:0.1; fill:none" points="1202.44,1734.12 1202.44,127.792 "/>
<polyline clip-path="url(#clip362)" style="stroke:#000000; stroke-linecap:round; stroke-linejoin:round; stroke-width:2; stroke-opacity:0.1; fill:none" points="1738.53,1734.12 1738.53,127.792 "/>
<polyline clip-path="url(#clip362)" style="stroke:#000000; stroke-linecap:round; stroke-linejoin:round; stroke-width:2; stroke-opacity:0.1; fill:none" points="2274.63,1734.12 2274.63,127.792 "/>
<polyline clip-path="url(#clip360)" style="stroke:#000000; stroke-linecap:round; stroke-linejoin:round; stroke-width:4; stroke-opacity:1; fill:none" points="293.64,1734.12 2640.76,1734.12 "/>
<polyline clip-path="url(#clip360)" style="stroke:#000000; stroke-linecap:round; stroke-linejoin:round; stroke-width:4; stroke-opacity:1; fill:none" points="666.341,1734.12 666.341,1715.22 "/>
<polyline clip-path="url(#clip360)" style="stroke:#000000; stroke-linecap:round; stroke-linejoin:round; stroke-width:4; stroke-opacity:1; fill:none" points="1202.44,1734.12 1202.44,1715.22 "/>
<polyline clip-path="url(#clip360)" style="stroke:#000000; stroke-linecap:round; stroke-linejoin:round; stroke-width:4; stroke-opacity:1; fill:none" points="1738.53,1734.12 1738.53,1715.22 "/>
<polyline clip-path="url(#clip360)" style="stroke:#000000; stroke-linecap:round; stroke-linejoin:round; stroke-width:4; stroke-opacity:1; fill:none" points="2274.63,1734.12 2274.63,1715.22 "/>
<path clip-path="url(#clip360)" d="M612.626 1781.99 L642.302 1781.99 L642.302 1785.93 L612.626 1785.93 L612.626 1781.99 Z" fill="#000000" fill-rule="nonzero" fill-opacity="1" /><path clip-path="url(#clip360)" d="M662.394 1767.34 Q658.783 1767.34 656.954 1770.9 Q655.149 1774.45 655.149 1781.58 Q655.149 1788.68 656.954 1792.25 Q658.783 1795.79 662.394 1795.79 Q666.029 1795.79 667.834 1792.25 Q669.663 1788.68 669.663 1781.58 Q669.663 1774.45 667.834 1770.9 Q666.029 1767.34 662.394 1767.34 M662.394 1763.64 Q668.204 1763.64 671.26 1768.24 Q674.339 1772.83 674.339 1781.58 Q674.339 1790.3 671.26 1794.91 Q668.204 1799.49 662.394 1799.49 Q656.584 1799.49 653.505 1794.91 Q650.45 1790.3 650.45 1781.58 Q650.45 1772.83 653.505 1768.24 Q656.584 1763.64 662.394 1763.64 Z" fill="#000000" fill-rule="nonzero" fill-opacity="1" /><path clip-path="url(#clip360)" d="M682.556 1792.94 L687.44 1792.94 L687.44 1798.82 L682.556 1798.82 L682.556 1792.94 Z" fill="#000000" fill-rule="nonzero" fill-opacity="1" /><path clip-path="url(#clip360)" d="M710.473 1768.34 L698.667 1786.78 L710.473 1786.78 L710.473 1768.34 M709.246 1764.26 L715.125 1764.26 L715.125 1786.78 L720.056 1786.78 L720.056 1790.67 L715.125 1790.67 L715.125 1798.82 L710.473 1798.82 L710.473 1790.67 L694.871 1790.67 L694.871 1786.16 L709.246 1764.26 Z" fill="#000000" fill-rule="nonzero" fill-opacity="1" /><path clip-path="url(#clip360)" d="M1149.76 1781.99 L1179.44 1781.99 L1179.44 1785.93 L1149.76 1785.93 L1149.76 1781.99 Z" fill="#000000" fill-rule="nonzero" fill-opacity="1" /><path clip-path="url(#clip360)" d="M1199.53 1767.34 Q1195.92 1767.34 1194.09 1770.9 Q1192.29 1774.45 1192.29 1781.58 Q1192.29 1788.68 1194.09 1792.25 Q1195.92 1795.79 1199.53 1795.79 Q1203.17 1795.79 1204.97 1792.25 Q1206.8 1788.68 1206.8 1781.58 Q1206.8 1774.45 1204.97 1770.9 Q1203.17 1767.34 1199.53 1767.34 M1199.53 1763.64 Q1205.34 1763.64 1208.4 1768.24 Q1211.48 1772.83 1211.48 1781.58 Q1211.48 1790.3 1208.4 1794.91 Q1205.34 1799.49 1199.53 1799.49 Q1193.72 1799.49 1190.64 1794.91 Q1187.59 1790.3 1187.59 1781.58 Q1187.59 1772.83 1190.64 1768.24 Q1193.72 1763.64 1199.53 1763.64 Z" fill="#000000" fill-rule="nonzero" fill-opacity="1" /><path clip-path="url(#clip360)" d="M1219.69 1792.94 L1224.58 1792.94 L1224.58 1798.82 L1219.69 1798.82 L1219.69 1792.94 Z" fill="#000000" fill-rule="nonzero" fill-opacity="1" /><path clip-path="url(#clip360)" d="M1238.79 1794.89 L1255.11 1794.89 L1255.11 1798.82 L1233.17 1798.82 L1233.17 1794.89 Q1235.83 1792.13 1240.41 1787.5 Q1245.02 1782.85 1246.2 1781.51 Q1248.44 1778.98 1249.32 1777.25 Q1250.23 1775.49 1250.23 1773.8 Q1250.23 1771.04 1248.28 1769.31 Q1246.36 1767.57 1243.26 1767.57 Q1241.06 1767.57 1238.6 1768.34 Q1236.17 1769.1 1233.4 1770.65 L1233.4 1765.93 Q1236.22 1764.79 1238.67 1764.21 Q1241.13 1763.64 1243.17 1763.64 Q1248.54 1763.64 1251.73 1766.32 Q1254.92 1769.01 1254.92 1773.5 Q1254.92 1775.63 1254.11 1777.55 Q1253.33 1779.45 1251.22 1782.04 Q1250.64 1782.71 1247.54 1785.93 Q1244.44 1789.12 1238.79 1794.89 Z" fill="#000000" fill-rule="nonzero" fill-opacity="1" /><path clip-path="url(#clip360)" d="M1715.92 1767.34 Q1712.3 1767.34 1710.48 1770.9 Q1708.67 1774.45 1708.67 1781.58 Q1708.67 1788.68 1710.48 1792.25 Q1712.3 1795.79 1715.92 1795.79 Q1719.55 1795.79 1721.36 1792.25 Q1723.18 1788.68 1723.18 1781.58 Q1723.18 1774.45 1721.36 1770.9 Q1719.55 1767.34 1715.92 1767.34 M1715.92 1763.64 Q1721.73 1763.64 1724.78 1768.24 Q1727.86 1772.83 1727.86 1781.58 Q1727.86 1790.3 1724.78 1794.91 Q1721.73 1799.49 1715.92 1799.49 Q1710.11 1799.49 1707.03 1794.91 Q1703.97 1790.3 1703.97 1781.58 Q1703.97 1772.83 1707.03 1768.24 Q1710.11 1763.64 1715.92 1763.64 Z" fill="#000000" fill-rule="nonzero" fill-opacity="1" /><path clip-path="url(#clip360)" d="M1736.08 1792.94 L1740.96 1792.94 L1740.96 1798.82 L1736.08 1798.82 L1736.08 1792.94 Z" fill="#000000" fill-rule="nonzero" fill-opacity="1" /><path clip-path="url(#clip360)" d="M1761.15 1767.34 Q1757.54 1767.34 1755.71 1770.9 Q1753.9 1774.45 1753.9 1781.58 Q1753.9 1788.68 1755.71 1792.25 Q1757.54 1795.79 1761.15 1795.79 Q1764.78 1795.79 1766.59 1792.25 Q1768.42 1788.68 1768.42 1781.58 Q1768.42 1774.45 1766.59 1770.9 Q1764.78 1767.34 1761.15 1767.34 M1761.15 1763.64 Q1766.96 1763.64 1770.01 1768.24 Q1773.09 1772.83 1773.09 1781.58 Q1773.09 1790.3 1770.01 1794.91 Q1766.96 1799.49 1761.15 1799.49 Q1755.34 1799.49 1752.26 1794.91 Q1749.2 1790.3 1749.2 1781.58 Q1749.2 1772.83 1752.26 1768.24 Q1755.34 1763.64 1761.15 1763.64 Z" fill="#000000" fill-rule="nonzero" fill-opacity="1" /><path clip-path="url(#clip360)" d="M2252.81 1767.34 Q2249.2 1767.34 2247.37 1770.9 Q2245.56 1774.45 2245.56 1781.58 Q2245.56 1788.68 2247.37 1792.25 Q2249.2 1795.79 2252.81 1795.79 Q2256.44 1795.79 2258.25 1792.25 Q2260.08 1788.68 2260.08 1781.58 Q2260.08 1774.45 2258.25 1770.9 Q2256.44 1767.34 2252.81 1767.34 M2252.81 1763.64 Q2258.62 1763.64 2261.67 1768.24 Q2264.75 1772.83 2264.75 1781.58 Q2264.75 1790.3 2261.67 1794.91 Q2258.62 1799.49 2252.81 1799.49 Q2247 1799.49 2243.92 1794.91 Q2240.86 1790.3 2240.86 1781.58 Q2240.86 1772.83 2243.92 1768.24 Q2247 1763.64 2252.81 1763.64 Z" fill="#000000" fill-rule="nonzero" fill-opacity="1" /><path clip-path="url(#clip360)" d="M2272.97 1792.94 L2277.86 1792.94 L2277.86 1798.82 L2272.97 1798.82 L2272.97 1792.94 Z" fill="#000000" fill-rule="nonzero" fill-opacity="1" /><path clip-path="url(#clip360)" d="M2292.07 1794.89 L2308.39 1794.89 L2308.39 1798.82 L2286.44 1798.82 L2286.44 1794.89 Q2289.11 1792.13 2293.69 1787.5 Q2298.3 1782.85 2299.48 1781.51 Q2301.72 1778.98 2302.6 1777.25 Q2303.5 1775.49 2303.5 1773.8 Q2303.5 1771.04 2301.56 1769.31 Q2299.64 1767.57 2296.54 1767.57 Q2294.34 1767.57 2291.88 1768.34 Q2289.45 1769.1 2286.67 1770.65 L2286.67 1765.93 Q2289.5 1764.79 2291.95 1764.21 Q2294.41 1763.64 2296.44 1763.64 Q2301.81 1763.64 2305.01 1766.32 Q2308.2 1769.01 2308.2 1773.5 Q2308.2 1775.63 2307.39 1777.55 Q2306.61 1779.45 2304.5 1782.04 Q2303.92 1782.71 2300.82 1785.93 Q2297.72 1789.12 2292.07 1794.89 Z" fill="#000000" fill-rule="nonzero" fill-opacity="1" /><path clip-path="url(#clip360)" d="M1112.72 1877.95 L1112.72 1896.86 L1106.84 1896.86 L1106.84 1847.65 L1112.72 1847.65 L1112.72 1853.06 Q1114.57 1849.88 1117.37 1848.35 Q1120.2 1846.79 1124.12 1846.79 Q1130.61 1846.79 1134.65 1851.95 Q1138.73 1857.11 1138.73 1865.51 Q1138.73 1873.91 1134.65 1879.07 Q1130.61 1884.22 1124.12 1884.22 Q1120.2 1884.22 1117.37 1882.7 Q1114.57 1881.14 1112.72 1877.95 M1132.65 1865.51 Q1132.65 1859.05 1129.97 1855.39 Q1127.33 1851.7 1122.69 1851.7 Q1118.04 1851.7 1115.37 1855.39 Q1112.72 1859.05 1112.72 1865.51 Q1112.72 1871.97 1115.37 1875.66 Q1118.04 1879.32 1122.69 1879.32 Q1127.33 1879.32 1129.97 1875.66 Q1132.65 1871.97 1132.65 1865.51 Z" fill="#000000" fill-rule="nonzero" fill-opacity="1" /><path clip-path="url(#clip360)" d="M1169.09 1853.13 Q1168.11 1852.55 1166.93 1852.3 Q1165.78 1852.01 1164.38 1852.01 Q1159.42 1852.01 1156.74 1855.26 Q1154.1 1858.47 1154.1 1864.52 L1154.1 1883.3 L1148.21 1883.3 L1148.21 1847.65 L1154.1 1847.65 L1154.1 1853.19 Q1155.95 1849.94 1158.91 1848.39 Q1161.87 1846.79 1166.1 1846.79 Q1166.7 1846.79 1167.44 1846.89 Q1168.17 1846.95 1169.06 1847.11 L1169.09 1853.13 Z" fill="#000000" fill-rule="nonzero" fill-opacity="1" /><path clip-path="url(#clip360)" d="M1175.23 1847.65 L1181.09 1847.65 L1181.09 1883.3 L1175.23 1883.3 L1175.23 1847.65 M1175.23 1833.78 L1181.09 1833.78 L1181.09 1841.19 L1175.23 1841.19 L1175.23 1833.78 Z" fill="#000000" fill-rule="nonzero" fill-opacity="1" /><path clip-path="url(#clip360)" d="M1222.98 1861.78 L1222.98 1883.3 L1217.12 1883.3 L1217.12 1861.98 Q1217.12 1856.92 1215.15 1854.4 Q1213.17 1851.89 1209.23 1851.89 Q1204.49 1851.89 1201.75 1854.91 Q1199.01 1857.93 1199.01 1863.15 L1199.01 1883.3 L1193.12 1883.3 L1193.12 1847.65 L1199.01 1847.65 L1199.01 1853.19 Q1201.11 1849.98 1203.94 1848.39 Q1206.81 1846.79 1210.53 1846.79 Q1216.68 1846.79 1219.83 1850.61 Q1222.98 1854.4 1222.98 1861.78 Z" fill="#000000" fill-rule="nonzero" fill-opacity="1" /><path clip-path="url(#clip360)" d="M1260.31 1849.02 L1260.31 1854.5 Q1257.83 1853.13 1255.32 1852.46 Q1252.83 1851.76 1250.29 1851.76 Q1244.59 1851.76 1241.44 1855.39 Q1238.29 1858.98 1238.29 1865.51 Q1238.29 1872.03 1241.44 1875.66 Q1244.59 1879.26 1250.29 1879.26 Q1252.83 1879.26 1255.32 1878.59 Q1257.83 1877.89 1260.31 1876.52 L1260.31 1881.93 Q1257.86 1883.08 1255.22 1883.65 Q1252.61 1884.22 1249.65 1884.22 Q1241.6 1884.22 1236.85 1879.16 Q1232.11 1874.1 1232.11 1865.51 Q1232.11 1856.79 1236.89 1851.79 Q1241.69 1846.79 1250.03 1846.79 Q1252.74 1846.79 1255.32 1847.37 Q1257.89 1847.91 1260.31 1849.02 Z" fill="#000000" fill-rule="nonzero" fill-opacity="1" /><path clip-path="url(#clip360)" d="M1270.5 1847.65 L1276.35 1847.65 L1276.35 1883.3 L1270.5 1883.3 L1270.5 1847.65 M1270.5 1833.78 L1276.35 1833.78 L1276.35 1841.19 L1270.5 1841.19 L1270.5 1833.78 Z" fill="#000000" fill-rule="nonzero" fill-opacity="1" /><path clip-path="url(#clip360)" d="M1294.27 1877.95 L1294.27 1896.86 L1288.39 1896.86 L1288.39 1847.65 L1294.27 1847.65 L1294.27 1853.06 Q1296.12 1849.88 1298.92 1848.35 Q1301.75 1846.79 1305.67 1846.79 Q1312.16 1846.79 1316.2 1851.95 Q1320.28 1857.11 1320.28 1865.51 Q1320.28 1873.91 1316.2 1879.07 Q1312.16 1884.22 1305.67 1884.22 Q1301.75 1884.22 1298.92 1882.7 Q1296.12 1881.14 1294.27 1877.95 M1314.2 1865.51 Q1314.2 1859.05 1311.52 1855.39 Q1308.88 1851.7 1304.24 1851.7 Q1299.59 1851.7 1296.92 1855.39 Q1294.27 1859.05 1294.27 1865.51 Q1294.27 1871.97 1296.92 1875.66 Q1299.59 1879.32 1304.24 1879.32 Q1308.88 1879.32 1311.52 1875.66 Q1314.2 1871.97 1314.2 1865.51 Z" fill="#000000" fill-rule="nonzero" fill-opacity="1" /><path clip-path="url(#clip360)" d="M1346.19 1865.38 Q1339.09 1865.38 1336.35 1867 Q1333.61 1868.63 1333.61 1872.54 Q1333.61 1875.66 1335.65 1877.51 Q1337.72 1879.32 1341.25 1879.32 Q1346.12 1879.32 1349.05 1875.88 Q1352.01 1872.42 1352.01 1866.69 L1352.01 1865.38 L1346.19 1865.38 M1357.87 1862.96 L1357.87 1883.3 L1352.01 1883.3 L1352.01 1877.89 Q1350.01 1881.14 1347.01 1882.7 Q1344.02 1884.22 1339.69 1884.22 Q1334.22 1884.22 1330.97 1881.17 Q1327.76 1878.08 1327.76 1872.92 Q1327.76 1866.91 1331.77 1863.85 Q1335.81 1860.8 1343.8 1860.8 L1352.01 1860.8 L1352.01 1860.23 Q1352.01 1856.18 1349.34 1853.99 Q1346.7 1851.76 1341.89 1851.76 Q1338.83 1851.76 1335.94 1852.49 Q1333.04 1853.22 1330.37 1854.69 L1330.37 1849.28 Q1333.58 1848.03 1336.61 1847.43 Q1339.63 1846.79 1342.49 1846.79 Q1350.23 1846.79 1354.05 1850.8 Q1357.87 1854.81 1357.87 1862.96 Z" fill="#000000" fill-rule="nonzero" fill-opacity="1" /><path clip-path="url(#clip360)" d="M1369.93 1833.78 L1375.79 1833.78 L1375.79 1883.3 L1369.93 1883.3 L1369.93 1833.78 Z" fill="#000000" fill-rule="nonzero" fill-opacity="1" /><path clip-path="url(#clip360)" d="M1434.41 1849.02 L1434.41 1854.5 Q1431.93 1853.13 1429.42 1852.46 Q1426.93 1851.76 1424.39 1851.76 Q1418.69 1851.76 1415.54 1855.39 Q1412.39 1858.98 1412.39 1865.51 Q1412.39 1872.03 1415.54 1875.66 Q1418.69 1879.26 1424.39 1879.26 Q1426.93 1879.26 1429.42 1878.59 Q1431.93 1877.89 1434.41 1876.52 L1434.41 1881.93 Q1431.96 1883.08 1429.32 1883.65 Q1426.71 1884.22 1423.75 1884.22 Q1415.7 1884.22 1410.96 1879.16 Q1406.21 1874.1 1406.21 1865.51 Q1406.21 1856.79 1410.99 1851.79 Q1415.79 1846.79 1424.13 1846.79 Q1426.84 1846.79 1429.42 1847.37 Q1432 1847.91 1434.41 1849.02 Z" fill="#000000" fill-rule="nonzero" fill-opacity="1" /><path clip-path="url(#clip360)" d="M1458.41 1851.76 Q1453.7 1851.76 1450.97 1855.45 Q1448.23 1859.11 1448.23 1865.51 Q1448.23 1871.91 1450.93 1875.6 Q1453.67 1879.26 1458.41 1879.26 Q1463.09 1879.26 1465.83 1875.57 Q1468.57 1871.87 1468.57 1865.51 Q1468.57 1859.17 1465.83 1855.48 Q1463.09 1851.76 1458.41 1851.76 M1458.41 1846.79 Q1466.05 1846.79 1470.41 1851.76 Q1474.77 1856.72 1474.77 1865.51 Q1474.77 1874.26 1470.41 1879.26 Q1466.05 1884.22 1458.41 1884.22 Q1450.74 1884.22 1446.38 1879.26 Q1442.05 1874.26 1442.05 1865.51 Q1442.05 1856.72 1446.38 1851.76 Q1450.74 1846.79 1458.41 1846.79 Z" fill="#000000" fill-rule="nonzero" fill-opacity="1" /><path clip-path="url(#clip360)" d="M1512.24 1854.5 Q1514.43 1850.55 1517.49 1848.67 Q1520.54 1846.79 1524.68 1846.79 Q1530.25 1846.79 1533.27 1850.71 Q1536.3 1854.59 1536.3 1861.78 L1536.3 1883.3 L1530.41 1883.3 L1530.41 1861.98 Q1530.41 1856.85 1528.6 1854.37 Q1526.78 1851.89 1523.06 1851.89 Q1518.51 1851.89 1515.86 1854.91 Q1513.22 1857.93 1513.22 1863.15 L1513.22 1883.3 L1507.33 1883.3 L1507.33 1861.98 Q1507.33 1856.82 1505.52 1854.37 Q1503.71 1851.89 1499.92 1851.89 Q1495.43 1851.89 1492.79 1854.94 Q1490.15 1857.97 1490.15 1863.15 L1490.15 1883.3 L1484.26 1883.3 L1484.26 1847.65 L1490.15 1847.65 L1490.15 1853.19 Q1492.15 1849.91 1494.95 1848.35 Q1497.75 1846.79 1501.6 1846.79 Q1505.49 1846.79 1508.19 1848.77 Q1510.93 1850.74 1512.24 1854.5 Z" fill="#000000" fill-rule="nonzero" fill-opacity="1" /><path clip-path="url(#clip360)" d="M1553.64 1877.95 L1553.64 1896.86 L1547.76 1896.86 L1547.76 1847.65 L1553.64 1847.65 L1553.64 1853.06 Q1555.49 1849.88 1558.29 1848.35 Q1561.12 1846.79 1565.04 1846.79 Q1571.53 1846.79 1575.57 1851.95 Q1579.65 1857.11 1579.65 1865.51 Q1579.65 1873.91 1575.57 1879.07 Q1571.53 1884.22 1565.04 1884.22 Q1561.12 1884.22 1558.29 1882.7 Q1555.49 1881.14 1553.64 1877.95 M1573.57 1865.51 Q1573.57 1859.05 1570.9 1855.39 Q1568.25 1851.7 1563.61 1851.7 Q1558.96 1851.7 1556.29 1855.39 Q1553.64 1859.05 1553.64 1865.51 Q1553.64 1871.97 1556.29 1875.66 Q1558.96 1879.32 1563.61 1879.32 Q1568.25 1879.32 1570.9 1875.66 Q1573.57 1871.97 1573.57 1865.51 Z" fill="#000000" fill-rule="nonzero" fill-opacity="1" /><path clip-path="url(#clip360)" d="M1603.17 1851.76 Q1598.46 1851.76 1595.72 1855.45 Q1592.98 1859.11 1592.98 1865.51 Q1592.98 1871.91 1595.69 1875.6 Q1598.43 1879.26 1603.17 1879.26 Q1607.85 1879.26 1610.59 1875.57 Q1613.32 1871.87 1613.32 1865.51 Q1613.32 1859.17 1610.59 1855.48 Q1607.85 1851.76 1603.17 1851.76 M1603.17 1846.79 Q1610.81 1846.79 1615.17 1851.76 Q1619.53 1856.72 1619.53 1865.51 Q1619.53 1874.26 1615.17 1879.26 Q1610.81 1884.22 1603.17 1884.22 Q1595.5 1884.22 1591.14 1879.26 Q1586.81 1874.26 1586.81 1865.51 Q1586.81 1856.72 1591.14 1851.76 Q1595.5 1846.79 1603.17 1846.79 Z" fill="#000000" fill-rule="nonzero" fill-opacity="1" /><path clip-path="url(#clip360)" d="M1658.87 1861.78 L1658.87 1883.3 L1653.01 1883.3 L1653.01 1861.98 Q1653.01 1856.92 1651.04 1854.4 Q1649.07 1851.89 1645.12 1851.89 Q1640.38 1851.89 1637.64 1854.91 Q1634.9 1857.93 1634.9 1863.15 L1634.9 1883.3 L1629.01 1883.3 L1629.01 1847.65 L1634.9 1847.65 L1634.9 1853.19 Q1637 1849.98 1639.84 1848.39 Q1642.7 1846.79 1646.42 1846.79 Q1652.57 1846.79 1655.72 1850.61 Q1658.87 1854.4 1658.87 1861.78 Z" fill="#000000" fill-rule="nonzero" fill-opacity="1" /><path clip-path="url(#clip360)" d="M1701.04 1864.01 L1701.04 1866.88 L1674.12 1866.88 Q1674.5 1872.92 1677.74 1876.11 Q1681.02 1879.26 1686.85 1879.26 Q1690.22 1879.26 1693.37 1878.43 Q1696.55 1877.6 1699.67 1875.95 L1699.67 1881.49 Q1696.52 1882.82 1693.21 1883.52 Q1689.9 1884.22 1686.5 1884.22 Q1677.97 1884.22 1672.97 1879.26 Q1668 1874.29 1668 1865.83 Q1668 1857.07 1672.71 1851.95 Q1677.46 1846.79 1685.48 1846.79 Q1692.67 1846.79 1696.84 1851.44 Q1701.04 1856.06 1701.04 1864.01 M1695.19 1862.29 Q1695.12 1857.49 1692.48 1854.62 Q1689.87 1851.76 1685.54 1851.76 Q1680.64 1851.76 1677.68 1854.53 Q1674.75 1857.3 1674.31 1862.33 L1695.19 1862.29 Z" fill="#000000" fill-rule="nonzero" fill-opacity="1" /><path clip-path="url(#clip360)" d="M1740.29 1861.78 L1740.29 1883.3 L1734.43 1883.3 L1734.43 1861.98 Q1734.43 1856.92 1732.46 1854.4 Q1730.48 1851.89 1726.54 1851.89 Q1721.79 1851.89 1719.06 1854.91 Q1716.32 1857.93 1716.32 1863.15 L1716.32 1883.3 L1710.43 1883.3 L1710.43 1847.65 L1716.32 1847.65 L1716.32 1853.19 Q1718.42 1849.98 1721.25 1848.39 Q1724.12 1846.79 1727.84 1846.79 Q1733.98 1846.79 1737.14 1850.61 Q1740.29 1854.4 1740.29 1861.78 Z" fill="#000000" fill-rule="nonzero" fill-opacity="1" /><path clip-path="url(#clip360)" d="M1757.76 1837.53 L1757.76 1847.65 L1769.82 1847.65 L1769.82 1852.2 L1757.76 1852.2 L1757.76 1871.56 Q1757.76 1875.92 1758.94 1877.16 Q1760.15 1878.4 1763.81 1878.4 L1769.82 1878.4 L1769.82 1883.3 L1763.81 1883.3 Q1757.03 1883.3 1754.45 1880.79 Q1751.87 1878.24 1751.87 1871.56 L1751.87 1852.2 L1747.58 1852.2 L1747.58 1847.65 L1751.87 1847.65 L1751.87 1837.53 L1757.76 1837.53 Z" fill="#000000" fill-rule="nonzero" fill-opacity="1" /><path clip-path="url(#clip360)" d="M1800.19 1877.89 L1810.69 1877.89 L1810.69 1841.64 L1799.27 1843.93 L1799.27 1838.07 L1810.63 1835.78 L1817.06 1835.78 L1817.06 1877.89 L1827.56 1877.89 L1827.56 1883.3 L1800.19 1883.3 L1800.19 1877.89 Z" fill="#000000" fill-rule="nonzero" fill-opacity="1" /><polyline clip-path="url(#clip362)" style="stroke:#000000; stroke-linecap:round; stroke-linejoin:round; stroke-width:2; stroke-opacity:0.1; fill:none" points="293.64,1488.7 2640.76,1488.7 "/>
<polyline clip-path="url(#clip362)" style="stroke:#000000; stroke-linecap:round; stroke-linejoin:round; stroke-width:2; stroke-opacity:0.1; fill:none" points="293.64,1122.68 2640.76,1122.68 "/>
<polyline clip-path="url(#clip362)" style="stroke:#000000; stroke-linecap:round; stroke-linejoin:round; stroke-width:2; stroke-opacity:0.1; fill:none" points="293.64,756.67 2640.76,756.67 "/>
<polyline clip-path="url(#clip362)" style="stroke:#000000; stroke-linecap:round; stroke-linejoin:round; stroke-width:2; stroke-opacity:0.1; fill:none" points="293.64,390.656 2640.76,390.656 "/>
<polyline clip-path="url(#clip360)" style="stroke:#000000; stroke-linecap:round; stroke-linejoin:round; stroke-width:4; stroke-opacity:1; fill:none" points="293.64,1734.12 293.64,127.792 "/>
<polyline clip-path="url(#clip360)" style="stroke:#000000; stroke-linecap:round; stroke-linejoin:round; stroke-width:4; stroke-opacity:1; fill:none" points="293.64,1488.7 312.538,1488.7 "/>
<polyline clip-path="url(#clip360)" style="stroke:#000000; stroke-linecap:round; stroke-linejoin:round; stroke-width:4; stroke-opacity:1; fill:none" points="293.64,1122.68 312.538,1122.68 "/>
<polyline clip-path="url(#clip360)" style="stroke:#000000; stroke-linecap:round; stroke-linejoin:round; stroke-width:4; stroke-opacity:1; fill:none" points="293.64,756.67 312.538,756.67 "/>
<polyline clip-path="url(#clip360)" style="stroke:#000000; stroke-linecap:round; stroke-linejoin:round; stroke-width:4; stroke-opacity:1; fill:none" points="293.64,390.656 312.538,390.656 "/>
<path clip-path="url(#clip360)" d="M116.214 1489.15 L145.89 1489.15 L145.89 1493.08 L116.214 1493.08 L116.214 1489.15 Z" fill="#000000" fill-rule="nonzero" fill-opacity="1" /><path clip-path="url(#clip360)" d="M165.983 1474.5 Q162.372 1474.5 160.543 1478.06 Q158.737 1481.6 158.737 1488.73 Q158.737 1495.84 160.543 1499.4 Q162.372 1502.95 165.983 1502.95 Q169.617 1502.95 171.422 1499.4 Q173.251 1495.84 173.251 1488.73 Q173.251 1481.6 171.422 1478.06 Q169.617 1474.5 165.983 1474.5 M165.983 1470.79 Q171.793 1470.79 174.848 1475.4 Q177.927 1479.98 177.927 1488.73 Q177.927 1497.46 174.848 1502.07 Q171.793 1506.65 165.983 1506.65 Q160.173 1506.65 157.094 1502.07 Q154.038 1497.46 154.038 1488.73 Q154.038 1479.98 157.094 1475.4 Q160.173 1470.79 165.983 1470.79 Z" fill="#000000" fill-rule="nonzero" fill-opacity="1" /><path clip-path="url(#clip360)" d="M186.145 1500.1 L191.029 1500.1 L191.029 1505.98 L186.145 1505.98 L186.145 1500.1 Z" fill="#000000" fill-rule="nonzero" fill-opacity="1" /><path clip-path="url(#clip360)" d="M201.26 1471.42 L219.617 1471.42 L219.617 1475.35 L205.543 1475.35 L205.543 1483.83 Q206.561 1483.48 207.58 1483.32 Q208.598 1483.13 209.617 1483.13 Q215.404 1483.13 218.783 1486.3 Q222.163 1489.47 222.163 1494.89 Q222.163 1500.47 218.691 1503.57 Q215.219 1506.65 208.899 1506.65 Q206.723 1506.65 204.455 1506.28 Q202.209 1505.91 199.802 1505.17 L199.802 1500.47 Q201.885 1501.6 204.107 1502.16 Q206.33 1502.71 208.807 1502.71 Q212.811 1502.71 215.149 1500.61 Q217.487 1498.5 217.487 1494.89 Q217.487 1491.28 215.149 1489.17 Q212.811 1487.07 208.807 1487.07 Q206.932 1487.07 205.057 1487.48 Q203.205 1487.9 201.26 1488.78 L201.26 1471.42 Z" fill="#000000" fill-rule="nonzero" fill-opacity="1" /><path clip-path="url(#clip360)" d="M241.376 1474.5 Q237.765 1474.5 235.936 1478.06 Q234.13 1481.6 234.13 1488.73 Q234.13 1495.84 235.936 1499.4 Q237.765 1502.95 241.376 1502.95 Q245.01 1502.95 246.816 1499.4 Q248.644 1495.84 248.644 1488.73 Q248.644 1481.6 246.816 1478.06 Q245.01 1474.5 241.376 1474.5 M241.376 1470.79 Q247.186 1470.79 250.242 1475.4 Q253.32 1479.98 253.32 1488.73 Q253.32 1497.46 250.242 1502.07 Q247.186 1506.65 241.376 1506.65 Q235.566 1506.65 232.487 1502.07 Q229.431 1497.46 229.431 1488.73 Q229.431 1479.98 232.487 1475.4 Q235.566 1470.79 241.376 1470.79 Z" fill="#000000" fill-rule="nonzero" fill-opacity="1" /><path clip-path="url(#clip360)" d="M117.21 1123.14 L146.886 1123.14 L146.886 1127.07 L117.21 1127.07 L117.21 1123.14 Z" fill="#000000" fill-rule="nonzero" fill-opacity="1" /><path clip-path="url(#clip360)" d="M166.978 1108.48 Q163.367 1108.48 161.538 1112.05 Q159.733 1115.59 159.733 1122.72 Q159.733 1129.82 161.538 1133.39 Q163.367 1136.93 166.978 1136.93 Q170.612 1136.93 172.418 1133.39 Q174.247 1129.82 174.247 1122.72 Q174.247 1115.59 172.418 1112.05 Q170.612 1108.48 166.978 1108.48 M166.978 1104.78 Q172.788 1104.78 175.844 1109.39 Q178.922 1113.97 178.922 1122.72 Q178.922 1131.45 175.844 1136.05 Q172.788 1140.64 166.978 1140.64 Q161.168 1140.64 158.089 1136.05 Q155.034 1131.45 155.034 1122.72 Q155.034 1113.97 158.089 1109.39 Q161.168 1104.78 166.978 1104.78 Z" fill="#000000" fill-rule="nonzero" fill-opacity="1" /><path clip-path="url(#clip360)" d="M187.14 1134.08 L192.024 1134.08 L192.024 1139.96 L187.14 1139.96 L187.14 1134.08 Z" fill="#000000" fill-rule="nonzero" fill-opacity="1" /><path clip-path="url(#clip360)" d="M206.237 1136.03 L222.556 1136.03 L222.556 1139.96 L200.612 1139.96 L200.612 1136.03 Q203.274 1133.27 207.857 1128.64 Q212.464 1123.99 213.644 1122.65 Q215.89 1120.13 216.769 1118.39 Q217.672 1116.63 217.672 1114.94 Q217.672 1112.19 215.728 1110.45 Q213.807 1108.71 210.705 1108.71 Q208.506 1108.71 206.052 1109.48 Q203.621 1110.24 200.844 1111.79 L200.844 1107.07 Q203.668 1105.94 206.121 1105.36 Q208.575 1104.78 210.612 1104.78 Q215.982 1104.78 219.177 1107.46 Q222.371 1110.15 222.371 1114.64 Q222.371 1116.77 221.561 1118.69 Q220.774 1120.59 218.668 1123.18 Q218.089 1123.85 214.987 1127.07 Q211.885 1130.26 206.237 1136.03 Z" fill="#000000" fill-rule="nonzero" fill-opacity="1" /><path clip-path="url(#clip360)" d="M232.418 1105.4 L250.774 1105.4 L250.774 1109.34 L236.7 1109.34 L236.7 1117.81 Q237.718 1117.46 238.737 1117.3 Q239.755 1117.12 240.774 1117.12 Q246.561 1117.12 249.941 1120.29 Q253.32 1123.46 253.32 1128.88 Q253.32 1134.45 249.848 1137.56 Q246.376 1140.64 240.056 1140.64 Q237.88 1140.64 235.612 1140.26 Q233.367 1139.89 230.959 1139.15 L230.959 1134.45 Q233.043 1135.59 235.265 1136.14 Q237.487 1136.7 239.964 1136.7 Q243.968 1136.7 246.306 1134.59 Q248.644 1132.49 248.644 1128.88 Q248.644 1125.26 246.306 1123.16 Q243.968 1121.05 239.964 1121.05 Q238.089 1121.05 236.214 1121.47 Q234.362 1121.89 232.418 1122.76 L232.418 1105.4 Z" fill="#000000" fill-rule="nonzero" fill-opacity="1" /><path clip-path="url(#clip360)" d="M165.983 742.468 Q162.372 742.468 160.543 746.033 Q158.737 749.575 158.737 756.704 Q158.737 763.811 160.543 767.376 Q162.372 770.917 165.983 770.917 Q169.617 770.917 171.422 767.376 Q173.251 763.811 173.251 756.704 Q173.251 749.575 171.422 746.033 Q169.617 742.468 165.983 742.468 M165.983 738.765 Q171.793 738.765 174.848 743.371 Q177.927 747.954 177.927 756.704 Q177.927 765.431 174.848 770.038 Q171.793 774.621 165.983 774.621 Q160.173 774.621 157.094 770.038 Q154.038 765.431 154.038 756.704 Q154.038 747.954 157.094 743.371 Q160.173 738.765 165.983 738.765 Z" fill="#000000" fill-rule="nonzero" fill-opacity="1" /><path clip-path="url(#clip360)" d="M186.145 768.07 L191.029 768.07 L191.029 773.95 L186.145 773.95 L186.145 768.07 Z" fill="#000000" fill-rule="nonzero" fill-opacity="1" /><path clip-path="url(#clip360)" d="M211.214 742.468 Q207.603 742.468 205.774 746.033 Q203.969 749.575 203.969 756.704 Q203.969 763.811 205.774 767.376 Q207.603 770.917 211.214 770.917 Q214.848 770.917 216.654 767.376 Q218.482 763.811 218.482 756.704 Q218.482 749.575 216.654 746.033 Q214.848 742.468 211.214 742.468 M211.214 738.765 Q217.024 738.765 220.08 743.371 Q223.158 747.954 223.158 756.704 Q223.158 765.431 220.08 770.038 Q217.024 774.621 211.214 774.621 Q205.404 774.621 202.325 770.038 Q199.27 765.431 199.27 756.704 Q199.27 747.954 202.325 743.371 Q205.404 738.765 211.214 738.765 Z" fill="#000000" fill-rule="nonzero" fill-opacity="1" /><path clip-path="url(#clip360)" d="M241.376 742.468 Q237.765 742.468 235.936 746.033 Q234.13 749.575 234.13 756.704 Q234.13 763.811 235.936 767.376 Q237.765 770.917 241.376 770.917 Q245.01 770.917 246.816 767.376 Q248.644 763.811 248.644 756.704 Q248.644 749.575 246.816 746.033 Q245.01 742.468 241.376 742.468 M241.376 738.765 Q247.186 738.765 250.242 743.371 Q253.32 747.954 253.32 756.704 Q253.32 765.431 250.242 770.038 Q247.186 774.621 241.376 774.621 Q235.566 774.621 232.487 770.038 Q229.431 765.431 229.431 756.704 Q229.431 747.954 232.487 743.371 Q235.566 738.765 241.376 738.765 Z" fill="#000000" fill-rule="nonzero" fill-opacity="1" /><path clip-path="url(#clip360)" d="M166.978 376.454 Q163.367 376.454 161.538 380.019 Q159.733 383.561 159.733 390.69 Q159.733 397.797 161.538 401.361 Q163.367 404.903 166.978 404.903 Q170.612 404.903 172.418 401.361 Q174.247 397.797 174.247 390.69 Q174.247 383.561 172.418 380.019 Q170.612 376.454 166.978 376.454 M166.978 372.751 Q172.788 372.751 175.844 377.357 Q178.922 381.94 178.922 390.69 Q178.922 399.417 175.844 404.023 Q172.788 408.607 166.978 408.607 Q161.168 408.607 158.089 404.023 Q155.034 399.417 155.034 390.69 Q155.034 381.94 158.089 377.357 Q161.168 372.751 166.978 372.751 Z" fill="#000000" fill-rule="nonzero" fill-opacity="1" /><path clip-path="url(#clip360)" d="M187.14 402.056 L192.024 402.056 L192.024 407.936 L187.14 407.936 L187.14 402.056 Z" fill="#000000" fill-rule="nonzero" fill-opacity="1" /><path clip-path="url(#clip360)" d="M206.237 404 L222.556 404 L222.556 407.936 L200.612 407.936 L200.612 404 Q203.274 401.246 207.857 396.616 Q212.464 391.963 213.644 390.621 Q215.89 388.098 216.769 386.362 Q217.672 384.602 217.672 382.912 Q217.672 380.158 215.728 378.422 Q213.807 376.686 210.705 376.686 Q208.506 376.686 206.052 377.45 Q203.621 378.213 200.844 379.764 L200.844 375.042 Q203.668 373.908 206.121 373.329 Q208.575 372.751 210.612 372.751 Q215.982 372.751 219.177 375.436 Q222.371 378.121 222.371 382.612 Q222.371 384.741 221.561 386.662 Q220.774 388.561 218.668 391.153 Q218.089 391.824 214.987 395.042 Q211.885 398.236 206.237 404 Z" fill="#000000" fill-rule="nonzero" fill-opacity="1" /><path clip-path="url(#clip360)" d="M232.418 373.376 L250.774 373.376 L250.774 377.311 L236.7 377.311 L236.7 385.783 Q237.718 385.436 238.737 385.274 Q239.755 385.088 240.774 385.088 Q246.561 385.088 249.941 388.26 Q253.32 391.431 253.32 396.848 Q253.32 402.426 249.848 405.528 Q246.376 408.607 240.056 408.607 Q237.88 408.607 235.612 408.236 Q233.367 407.866 230.959 407.125 L230.959 402.426 Q233.043 403.561 235.265 404.116 Q237.487 404.672 239.964 404.672 Q243.968 404.672 246.306 402.565 Q248.644 400.459 248.644 396.848 Q248.644 393.237 246.306 391.13 Q243.968 389.024 239.964 389.024 Q238.089 389.024 236.214 389.44 Q234.362 389.857 232.418 390.737 L232.418 373.376 Z" fill="#000000" fill-rule="nonzero" fill-opacity="1" /><path clip-path="url(#clip360)" d="M56.2912 1285.17 L75.1974 1285.17 L75.1974 1291.06 L25.9905 1291.06 L25.9905 1285.17 L31.4013 1285.17 Q28.2185 1283.33 26.6907 1280.53 Q25.1311 1277.69 25.1311 1273.78 Q25.1311 1267.29 30.2873 1263.24 Q35.4436 1259.17 43.8463 1259.17 Q52.249 1259.17 57.4052 1263.24 Q62.5615 1267.29 62.5615 1273.78 Q62.5615 1277.69 61.0337 1280.53 Q59.4741 1283.33 56.2912 1285.17 M43.8463 1265.25 Q37.3851 1265.25 33.7248 1267.92 Q30.0327 1270.57 30.0327 1275.21 Q30.0327 1279.86 33.7248 1282.53 Q37.3851 1285.17 43.8463 1285.17 Q50.3075 1285.17 53.9996 1282.53 Q57.6599 1279.86 57.6599 1275.21 Q57.6599 1270.57 53.9996 1267.92 Q50.3075 1265.25 43.8463 1265.25 Z" fill="#000000" fill-rule="nonzero" fill-opacity="1" /><path clip-path="url(#clip360)" d="M31.465 1228.81 Q30.8921 1229.79 30.6375 1230.97 Q30.351 1232.12 30.351 1233.52 Q30.351 1238.48 33.5975 1241.16 Q36.8122 1243.8 42.8596 1243.8 L61.6384 1243.8 L61.6384 1249.69 L25.9905 1249.69 L25.9905 1243.8 L31.5287 1243.8 Q28.2821 1241.95 26.7225 1238.99 Q25.1311 1236.03 25.1311 1231.8 Q25.1311 1231.19 25.2266 1230.46 Q25.2903 1229.73 25.4494 1228.84 L31.465 1228.81 Z" fill="#000000" fill-rule="nonzero" fill-opacity="1" /><path clip-path="url(#clip360)" d="M25.9905 1222.66 L25.9905 1216.81 L61.6384 1216.81 L61.6384 1222.66 L25.9905 1222.66 M12.1132 1222.66 L12.1132 1216.81 L19.5293 1216.81 L19.5293 1222.66 L12.1132 1222.66 Z" fill="#000000" fill-rule="nonzero" fill-opacity="1" /><path clip-path="url(#clip360)" d="M40.1224 1174.92 L61.6384 1174.92 L61.6384 1180.78 L40.3133 1180.78 Q35.2526 1180.78 32.7381 1182.75 Q30.2237 1184.72 30.2237 1188.67 Q30.2237 1193.41 33.2474 1196.15 Q36.2711 1198.89 41.491 1198.89 L61.6384 1198.89 L61.6384 1204.78 L25.9905 1204.78 L25.9905 1198.89 L31.5287 1198.89 Q28.314 1196.79 26.7225 1193.95 Q25.1311 1191.09 25.1311 1187.37 Q25.1311 1181.22 28.9505 1178.07 Q32.7381 1174.92 40.1224 1174.92 Z" fill="#000000" fill-rule="nonzero" fill-opacity="1" /><path clip-path="url(#clip360)" d="M27.3591 1137.59 L32.8336 1137.59 Q31.465 1140.07 30.7966 1142.58 Q30.0964 1145.07 30.0964 1147.61 Q30.0964 1153.31 33.7248 1156.46 Q37.3214 1159.61 43.8463 1159.61 Q50.3711 1159.61 53.9996 1156.46 Q57.5962 1153.31 57.5962 1147.61 Q57.5962 1145.07 56.9278 1142.58 Q56.2276 1140.07 54.859 1137.59 L60.2698 1137.59 Q61.4156 1140.04 61.9886 1142.68 Q62.5615 1145.29 62.5615 1148.25 Q62.5615 1156.3 57.5007 1161.04 Q52.44 1165.79 43.8463 1165.79 Q35.1253 1165.79 30.1282 1161.01 Q25.1311 1156.21 25.1311 1147.87 Q25.1311 1145.16 25.704 1142.58 Q26.2451 1140 27.3591 1137.59 Z" fill="#000000" fill-rule="nonzero" fill-opacity="1" /><path clip-path="url(#clip360)" d="M25.9905 1127.4 L25.9905 1121.54 L61.6384 1121.54 L61.6384 1127.4 L25.9905 1127.4 M12.1132 1127.4 L12.1132 1121.54 L19.5293 1121.54 L19.5293 1127.4 L12.1132 1127.4 Z" fill="#000000" fill-rule="nonzero" fill-opacity="1" /><path clip-path="url(#clip360)" d="M56.2912 1103.62 L75.1974 1103.62 L75.1974 1109.51 L25.9905 1109.51 L25.9905 1103.62 L31.4013 1103.62 Q28.2185 1101.78 26.6907 1098.98 Q25.1311 1096.14 25.1311 1092.23 Q25.1311 1085.74 30.2873 1081.69 Q35.4436 1077.62 43.8463 1077.62 Q52.249 1077.62 57.4052 1081.69 Q62.5615 1085.74 62.5615 1092.23 Q62.5615 1096.14 61.0337 1098.98 Q59.4741 1101.78 56.2912 1103.62 M43.8463 1083.7 Q37.3851 1083.7 33.7248 1086.37 Q30.0327 1089.02 30.0327 1093.66 Q30.0327 1098.31 33.7248 1100.98 Q37.3851 1103.62 43.8463 1103.62 Q50.3075 1103.62 53.9996 1100.98 Q57.6599 1098.31 57.6599 1093.66 Q57.6599 1089.02 53.9996 1086.37 Q50.3075 1083.7 43.8463 1083.7 Z" fill="#000000" fill-rule="nonzero" fill-opacity="1" /><path clip-path="url(#clip360)" d="M43.719 1051.71 Q43.719 1058.81 45.3422 1061.55 Q46.9655 1064.28 50.8804 1064.28 Q53.9996 1064.28 55.8457 1062.25 Q57.6599 1060.18 57.6599 1056.65 Q57.6599 1051.78 54.2224 1048.85 Q50.7531 1045.89 45.0239 1045.89 L43.719 1045.89 L43.719 1051.71 M41.3 1040.03 L61.6384 1040.03 L61.6384 1045.89 L56.2276 1045.89 Q59.4741 1047.89 61.0337 1050.88 Q62.5615 1053.88 62.5615 1058.21 Q62.5615 1063.68 59.5059 1066.93 Q56.4186 1070.14 51.2623 1070.14 Q45.2467 1070.14 42.1912 1066.13 Q39.1357 1062.09 39.1357 1054.1 L39.1357 1045.89 L38.5628 1045.89 Q34.5205 1045.89 32.3244 1048.56 Q30.0964 1051.2 30.0964 1056.01 Q30.0964 1059.06 30.8284 1061.96 Q31.5605 1064.86 33.0246 1067.53 L27.6137 1067.53 Q26.3724 1064.32 25.7677 1061.29 Q25.1311 1058.27 25.1311 1055.4 Q25.1311 1047.67 29.1415 1043.85 Q33.1519 1040.03 41.3 1040.03 Z" fill="#000000" fill-rule="nonzero" fill-opacity="1" /><path clip-path="url(#clip360)" d="M12.1132 1027.97 L12.1132 1022.11 L61.6384 1022.11 L61.6384 1027.97 L12.1132 1027.97 Z" fill="#000000" fill-rule="nonzero" fill-opacity="1" /><path clip-path="url(#clip360)" d="M27.3591 963.483 L32.8336 963.483 Q31.465 965.966 30.7966 968.48 Q30.0964 970.963 30.0964 973.509 Q30.0964 979.207 33.7248 982.358 Q37.3214 985.509 43.8463 985.509 Q50.3711 985.509 53.9996 982.358 Q57.5962 979.207 57.5962 973.509 Q57.5962 970.963 56.9278 968.48 Q56.2276 965.966 54.859 963.483 L60.2698 963.483 Q61.4156 965.934 61.9886 968.576 Q62.5615 971.186 62.5615 974.146 Q62.5615 982.198 57.5007 986.941 Q52.44 991.683 43.8463 991.683 Q35.1253 991.683 30.1282 986.909 Q25.1311 982.103 25.1311 973.764 Q25.1311 971.059 25.704 968.48 Q26.2451 965.902 27.3591 963.483 Z" fill="#000000" fill-rule="nonzero" fill-opacity="1" /><path clip-path="url(#clip360)" d="M30.0964 939.485 Q30.0964 944.195 33.7885 946.932 Q37.4488 949.67 43.8463 949.67 Q50.2438 949.67 53.9359 946.964 Q57.5962 944.227 57.5962 939.485 Q57.5962 934.806 53.9041 932.069 Q50.212 929.331 43.8463 929.331 Q37.5124 929.331 33.8203 932.069 Q30.0964 934.806 30.0964 939.485 M25.1311 939.485 Q25.1311 931.846 30.0964 927.485 Q35.0616 923.125 43.8463 923.125 Q52.5991 923.125 57.5962 927.485 Q62.5615 931.846 62.5615 939.485 Q62.5615 947.155 57.5962 951.516 Q52.5991 955.844 43.8463 955.844 Q35.0616 955.844 30.0964 951.516 Q25.1311 947.155 25.1311 939.485 Z" fill="#000000" fill-rule="nonzero" fill-opacity="1" /><path clip-path="url(#clip360)" d="M32.8336 885.663 Q28.8869 883.466 27.009 880.411 Q25.1311 877.355 25.1311 873.218 Q25.1311 867.648 29.046 864.624 Q32.9291 861.6 40.1224 861.6 L61.6384 861.6 L61.6384 867.488 L40.3133 867.488 Q35.1889 867.488 32.7063 869.303 Q30.2237 871.117 30.2237 874.841 Q30.2237 879.392 33.2474 882.034 Q36.2711 884.676 41.491 884.676 L61.6384 884.676 L61.6384 890.564 L40.3133 890.564 Q35.1571 890.564 32.7063 892.378 Q30.2237 894.193 30.2237 897.98 Q30.2237 902.468 33.2792 905.11 Q36.3029 907.752 41.491 907.752 L61.6384 907.752 L61.6384 913.64 L25.9905 913.64 L25.9905 907.752 L31.5287 907.752 Q28.2503 905.746 26.6907 902.945 Q25.1311 900.145 25.1311 896.293 Q25.1311 892.41 27.1045 889.705 Q29.0779 886.968 32.8336 885.663 Z" fill="#000000" fill-rule="nonzero" fill-opacity="1" /><path clip-path="url(#clip360)" d="M56.2912 844.254 L75.1974 844.254 L75.1974 850.142 L25.9905 850.142 L25.9905 844.254 L31.4013 844.254 Q28.2185 842.408 26.6907 839.607 Q25.1311 836.774 25.1311 832.859 Q25.1311 826.366 30.2873 822.324 Q35.4436 818.25 43.8463 818.25 Q52.249 818.25 57.4052 822.324 Q62.5615 826.366 62.5615 832.859 Q62.5615 836.774 61.0337 839.607 Q59.4741 842.408 56.2912 844.254 M43.8463 824.329 Q37.3851 824.329 33.7248 827.003 Q30.0327 829.644 30.0327 834.291 Q30.0327 838.938 33.7248 841.612 Q37.3851 844.254 43.8463 844.254 Q50.3075 844.254 53.9996 841.612 Q57.6599 838.938 57.6599 834.291 Q57.6599 829.644 53.9996 827.003 Q50.3075 824.329 43.8463 824.329 Z" fill="#000000" fill-rule="nonzero" fill-opacity="1" /><path clip-path="url(#clip360)" d="M30.0964 794.728 Q30.0964 799.439 33.7885 802.176 Q37.4488 804.914 43.8463 804.914 Q50.2438 804.914 53.9359 802.208 Q57.5962 799.471 57.5962 794.728 Q57.5962 790.05 53.9041 787.312 Q50.212 784.575 43.8463 784.575 Q37.5124 784.575 33.8203 787.312 Q30.0964 790.05 30.0964 794.728 M25.1311 794.728 Q25.1311 787.09 30.0964 782.729 Q35.0616 778.369 43.8463 778.369 Q52.5991 778.369 57.5962 782.729 Q62.5615 787.09 62.5615 794.728 Q62.5615 802.399 57.5962 806.76 Q52.5991 811.088 43.8463 811.088 Q35.0616 811.088 30.0964 806.76 Q25.1311 802.399 25.1311 794.728 Z" fill="#000000" fill-rule="nonzero" fill-opacity="1" /><path clip-path="url(#clip360)" d="M40.1224 739.029 L61.6384 739.029 L61.6384 744.885 L40.3133 744.885 Q35.2526 744.885 32.7381 746.858 Q30.2237 748.832 30.2237 752.778 Q30.2237 757.521 33.2474 760.258 Q36.2711 762.995 41.491 762.995 L61.6384 762.995 L61.6384 768.884 L25.9905 768.884 L25.9905 762.995 L31.5287 762.995 Q28.314 760.895 26.7225 758.062 Q25.1311 755.197 25.1311 751.473 Q25.1311 745.331 28.9505 742.18 Q32.7381 739.029 40.1224 739.029 Z" fill="#000000" fill-rule="nonzero" fill-opacity="1" /><path clip-path="url(#clip360)" d="M42.3504 696.856 L45.2149 696.856 L45.2149 723.783 Q51.2623 723.401 54.4452 720.154 Q57.5962 716.876 57.5962 711.051 Q57.5962 707.677 56.7687 704.526 Q55.9411 701.344 54.2861 698.224 L59.8242 698.224 Q61.161 701.375 61.8612 704.686 Q62.5615 707.996 62.5615 711.401 Q62.5615 719.931 57.5962 724.928 Q52.631 729.894 44.1646 729.894 Q35.4117 729.894 30.2873 725.183 Q25.1311 720.441 25.1311 712.42 Q25.1311 705.227 29.7781 701.057 Q34.3932 696.856 42.3504 696.856 M40.6316 702.712 Q35.8255 702.776 32.9609 705.418 Q30.0964 708.028 30.0964 712.356 Q30.0964 717.258 32.8654 720.218 Q35.6345 723.146 40.6634 723.592 L40.6316 702.712 Z" fill="#000000" fill-rule="nonzero" fill-opacity="1" /><path clip-path="url(#clip360)" d="M40.1224 657.611 L61.6384 657.611 L61.6384 663.468 L40.3133 663.468 Q35.2526 663.468 32.7381 665.441 Q30.2237 667.414 30.2237 671.361 Q30.2237 676.103 33.2474 678.841 Q36.2711 681.578 41.491 681.578 L61.6384 681.578 L61.6384 687.466 L25.9905 687.466 L25.9905 681.578 L31.5287 681.578 Q28.314 679.477 26.7225 676.645 Q25.1311 673.78 25.1311 670.056 Q25.1311 663.913 28.9505 660.762 Q32.7381 657.611 40.1224 657.611 Z" fill="#000000" fill-rule="nonzero" fill-opacity="1" /><path clip-path="url(#clip360)" d="M15.869 640.137 L25.9905 640.137 L25.9905 628.074 L30.542 628.074 L30.542 640.137 L49.8937 640.137 Q54.2542 640.137 55.4955 638.96 Q56.7368 637.75 56.7368 634.09 L56.7368 628.074 L61.6384 628.074 L61.6384 634.09 Q61.6384 640.869 59.124 643.447 Q56.5777 646.026 49.8937 646.026 L30.542 646.026 L30.542 650.322 L25.9905 650.322 L25.9905 646.026 L15.869 646.026 L15.869 640.137 Z" fill="#000000" fill-rule="nonzero" fill-opacity="1" /><path clip-path="url(#clip360)" d="M56.2276 593.286 L56.2276 570.847 L61.6384 570.847 L61.6384 601.02 L56.2276 601.02 Q52.44 597.36 46.0743 591.058 Q39.6768 584.724 37.8307 583.101 Q34.3614 580.013 31.9743 578.804 Q29.5553 577.562 27.2318 577.562 Q23.4442 577.562 21.0571 580.236 Q18.6699 582.878 18.6699 587.143 Q18.6699 590.166 19.7203 593.54 Q20.7706 596.882 22.9031 600.702 L16.4101 600.702 Q14.8505 596.819 14.0548 593.445 Q13.2591 590.071 13.2591 587.27 Q13.2591 579.886 16.9512 575.493 Q20.6433 571.101 26.818 571.101 Q29.7463 571.101 32.388 572.215 Q34.998 573.297 38.5628 576.194 Q39.4858 576.989 43.91 581.254 Q48.3023 585.519 56.2276 593.286 Z" fill="#000000" fill-rule="nonzero" fill-opacity="1" /><path clip-path="url(#clip360)" d="M232.705 28.9478 L232.705 35.9153 Q229.546 34.1734 226.345 33.3227 Q223.186 32.4315 219.945 32.4315 Q212.694 32.4315 208.683 37.0496 Q204.673 41.6271 204.673 49.9314 Q204.673 58.2358 208.683 62.8538 Q212.694 67.4314 219.945 67.4314 Q223.186 67.4314 226.345 66.5807 Q229.546 65.6895 232.705 63.9476 L232.705 70.8341 Q229.586 72.2924 226.224 73.0216 Q222.902 73.7508 219.135 73.7508 Q208.886 73.7508 202.85 67.3098 Q196.814 60.8689 196.814 49.9314 Q196.814 38.832 202.891 32.472 Q209.007 26.1121 219.621 26.1121 Q223.064 26.1121 226.345 26.8413 Q229.627 27.5299 232.705 28.9478 Z" fill="#000000" fill-rule="nonzero" fill-opacity="1" /><path clip-path="url(#clip360)" d="M263.249 32.4315 Q257.254 32.4315 253.77 37.1306 Q250.286 41.7891 250.286 49.9314 Q250.286 58.0738 253.729 62.7728 Q257.213 67.4314 263.249 67.4314 Q269.204 67.4314 272.688 62.7323 Q276.171 58.0333 276.171 49.9314 Q276.171 41.8701 272.688 37.1711 Q269.204 32.4315 263.249 32.4315 M263.249 26.1121 Q272.971 26.1121 278.521 32.4315 Q284.071 38.7509 284.071 49.9314 Q284.071 61.0714 278.521 67.4314 Q272.971 73.7508 263.249 73.7508 Q253.486 73.7508 247.937 67.4314 Q242.427 61.0714 242.427 49.9314 Q242.427 38.7509 247.937 32.4315 Q253.486 26.1121 263.249 26.1121 Z" fill="#000000" fill-rule="nonzero" fill-opacity="1" /><path clip-path="url(#clip360)" d="M314.007 32.4315 Q308.012 32.4315 304.528 37.1306 Q301.044 41.7891 301.044 49.9314 Q301.044 58.0738 304.487 62.7728 Q307.971 67.4314 314.007 67.4314 Q319.962 67.4314 323.445 62.7323 Q326.929 58.0333 326.929 49.9314 Q326.929 41.8701 323.445 37.1711 Q319.962 32.4315 314.007 32.4315 M314.007 26.1121 Q323.729 26.1121 329.279 32.4315 Q334.829 38.7509 334.829 49.9314 Q334.829 61.0714 329.279 67.4314 Q323.729 73.7508 314.007 73.7508 Q304.244 73.7508 298.694 67.4314 Q293.185 61.0714 293.185 49.9314 Q293.185 38.7509 298.694 32.4315 Q304.244 26.1121 314.007 26.1121 Z" fill="#000000" fill-rule="nonzero" fill-opacity="1" /><path clip-path="url(#clip360)" d="M373.474 34.1734 Q372.218 33.4443 370.72 33.1202 Q369.261 32.7556 367.479 32.7556 Q361.159 32.7556 357.757 36.8875 Q354.394 40.9789 354.394 48.6757 L354.394 72.576 L346.9 72.576 L346.9 27.2059 L354.394 27.2059 L354.394 34.2544 Q356.744 30.1225 360.511 28.1376 Q364.279 26.1121 369.666 26.1121 Q370.436 26.1121 371.368 26.2337 Q372.299 26.3147 373.434 26.5172 L373.474 34.1734 Z" fill="#000000" fill-rule="nonzero" fill-opacity="1" /><path clip-path="url(#clip360)" d="M409.689 34.0924 L409.689 9.54393 L417.143 9.54393 L417.143 72.576 L409.689 72.576 L409.689 65.7705 Q407.34 69.8214 403.734 71.8063 Q400.17 73.7508 395.147 73.7508 Q386.923 73.7508 381.738 67.1883 Q376.593 60.6258 376.593 49.9314 Q376.593 39.2371 381.738 32.6746 Q386.923 26.1121 395.147 26.1121 Q400.17 26.1121 403.734 28.0971 Q407.34 30.0415 409.689 34.0924 M384.29 49.9314 Q384.29 58.1548 387.652 62.8538 Q391.055 67.5124 396.969 67.5124 Q402.884 67.5124 406.286 62.8538 Q409.689 58.1548 409.689 49.9314 Q409.689 41.7081 406.286 37.0496 Q402.884 32.3505 396.969 32.3505 Q391.055 32.3505 387.652 37.0496 Q384.29 41.7081 384.29 49.9314 Z" fill="#000000" fill-rule="nonzero" fill-opacity="1" /><path clip-path="url(#clip360)" d="M432.496 27.2059 L439.95 27.2059 L439.95 72.576 L432.496 72.576 L432.496 27.2059 M432.496 9.54393 L439.95 9.54393 L439.95 18.9825 L432.496 18.9825 L432.496 9.54393 Z" fill="#000000" fill-rule="nonzero" fill-opacity="1" /><path clip-path="url(#clip360)" d="M493.259 45.1919 L493.259 72.576 L485.806 72.576 L485.806 45.4349 Q485.806 38.994 483.294 35.7938 Q480.783 32.5936 475.759 32.5936 Q469.724 32.5936 466.24 36.4419 Q462.756 40.2903 462.756 46.9338 L462.756 72.576 L455.262 72.576 L455.262 27.2059 L462.756 27.2059 L462.756 34.2544 Q465.43 30.163 469.035 28.1376 Q472.681 26.1121 477.42 26.1121 Q485.239 26.1121 489.249 30.9732 Q493.259 35.7938 493.259 45.1919 Z" fill="#000000" fill-rule="nonzero" fill-opacity="1" /><path clip-path="url(#clip360)" d="M528.745 49.7694 Q519.712 49.7694 516.228 51.8354 Q512.744 53.9013 512.744 58.8839 Q512.744 62.8538 515.337 65.2034 Q517.97 67.5124 522.466 67.5124 Q528.664 67.5124 532.391 63.1374 Q536.158 58.7219 536.158 51.4303 L536.158 49.7694 L528.745 49.7694 M543.612 46.6907 L543.612 72.576 L536.158 72.576 L536.158 65.6895 Q533.606 69.8214 529.799 71.8063 Q525.991 73.7508 520.481 73.7508 Q513.514 73.7508 509.382 69.8619 Q505.291 65.9325 505.291 59.3701 Q505.291 51.7138 510.395 47.825 Q515.539 43.9361 525.707 43.9361 L536.158 43.9361 L536.158 43.2069 Q536.158 38.0623 532.756 35.2672 Q529.393 32.4315 523.277 32.4315 Q519.388 32.4315 515.701 33.3632 Q512.015 34.295 508.612 36.1584 L508.612 29.2718 Q512.704 27.692 516.552 26.9223 Q520.4 26.1121 524.046 26.1121 Q533.89 26.1121 538.751 31.2163 Q543.612 36.3204 543.612 46.6907 Z" fill="#000000" fill-rule="nonzero" fill-opacity="1" /><path clip-path="url(#clip360)" d="M566.338 14.324 L566.338 27.2059 L581.691 27.2059 L581.691 32.9987 L566.338 32.9987 L566.338 57.6282 Q566.338 63.1779 567.837 64.7578 Q569.376 66.3376 574.034 66.3376 L581.691 66.3376 L581.691 72.576 L574.034 72.576 Q565.406 72.576 562.125 69.3758 Q558.844 66.1351 558.844 57.6282 L558.844 32.9987 L553.375 32.9987 L553.375 27.2059 L558.844 27.2059 L558.844 14.324 L566.338 14.324 Z" fill="#000000" fill-rule="nonzero" fill-opacity="1" /><path clip-path="url(#clip360)" d="M630.301 48.0275 L630.301 51.6733 L596.031 51.6733 Q596.517 59.3701 600.649 63.421 Q604.821 67.4314 612.234 67.4314 Q616.528 67.4314 620.539 66.3781 Q624.59 65.3249 628.56 63.2184 L628.56 70.267 Q624.549 71.9684 620.336 72.8596 Q616.123 73.7508 611.789 73.7508 Q600.932 73.7508 594.573 67.4314 Q588.253 61.1119 588.253 50.3365 Q588.253 39.1965 594.248 32.6746 Q600.284 26.1121 610.493 26.1121 Q619.648 26.1121 624.954 32.0264 Q630.301 37.9003 630.301 48.0275 M622.848 45.84 Q622.767 39.7232 619.405 36.0774 Q616.083 32.4315 610.574 32.4315 Q604.335 32.4315 600.568 35.9558 Q596.841 39.4801 596.274 45.8805 L622.848 45.84 Z" fill="#000000" fill-rule="nonzero" fill-opacity="1" /><path clip-path="url(#clip360)" d="M671.459 28.5427 L671.459 35.5912 Q668.299 33.9709 664.896 33.1607 Q661.493 32.3505 657.848 32.3505 Q652.298 32.3505 649.503 34.0519 Q646.748 35.7533 646.748 39.156 Q646.748 41.7486 648.733 43.2475 Q650.718 44.7058 656.713 46.0426 L659.265 46.6097 Q667.205 48.3111 670.527 51.4303 Q673.889 54.509 673.889 60.0587 Q673.889 66.3781 668.866 70.0644 Q663.883 73.7508 655.134 73.7508 Q651.488 73.7508 647.518 73.0216 Q643.588 72.3329 639.213 70.9151 L639.213 63.2184 Q643.345 65.3654 647.356 66.4591 Q651.366 67.5124 655.296 67.5124 Q660.562 67.5124 663.397 65.73 Q666.233 63.9071 666.233 60.6258 Q666.233 57.5877 664.167 55.9673 Q662.142 54.3469 655.215 52.8481 L652.622 52.2405 Q645.695 50.7821 642.616 47.7845 Q639.538 44.7463 639.538 39.4801 Q639.538 33.0797 644.075 29.5959 Q648.612 26.1121 656.956 26.1121 Q661.088 26.1121 664.734 26.7198 Q668.38 27.3274 671.459 28.5427 Z" fill="#000000" fill-rule="nonzero" fill-opacity="1" /><path clip-path="url(#clip360)" d="M719.34 65.7705 L719.34 89.8329 L711.846 89.8329 L711.846 27.2059 L719.34 27.2059 L719.34 34.0924 Q721.69 30.0415 725.255 28.0971 Q728.86 26.1121 733.843 26.1121 Q742.106 26.1121 747.251 32.6746 Q752.436 39.2371 752.436 49.9314 Q752.436 60.6258 747.251 67.1883 Q742.106 73.7508 733.843 73.7508 Q728.86 73.7508 725.255 71.8063 Q721.69 69.8214 719.34 65.7705 M744.699 49.9314 Q744.699 41.7081 741.296 37.0496 Q737.934 32.3505 732.02 32.3505 Q726.105 32.3505 722.703 37.0496 Q719.34 41.7081 719.34 49.9314 Q719.34 58.1548 722.703 62.8538 Q726.105 67.5124 732.02 67.5124 Q737.934 67.5124 741.296 62.8538 Q744.699 58.1548 744.699 49.9314 Z" fill="#000000" fill-rule="nonzero" fill-opacity="1" /><path clip-path="url(#clip360)" d="M803.599 48.0275 L803.599 51.6733 L769.329 51.6733 Q769.815 59.3701 773.947 63.421 Q778.119 67.4314 785.532 67.4314 Q789.826 67.4314 793.836 66.3781 Q797.887 65.3249 801.857 63.2184 L801.857 70.267 Q797.847 71.9684 793.634 72.8596 Q789.421 73.7508 785.087 73.7508 Q774.23 73.7508 767.87 67.4314 Q761.551 61.1119 761.551 50.3365 Q761.551 39.1965 767.546 32.6746 Q773.582 26.1121 783.79 26.1121 Q792.945 26.1121 798.252 32.0264 Q803.599 37.9003 803.599 48.0275 M796.146 45.84 Q796.064 39.7232 792.702 36.0774 Q789.38 32.4315 783.871 32.4315 Q777.633 32.4315 773.866 35.9558 Q770.139 39.4801 769.572 45.8805 L796.146 45.84 Z" fill="#000000" fill-rule="nonzero" fill-opacity="1" /><path clip-path="url(#clip360)" d="M842.123 34.1734 Q840.867 33.4443 839.369 33.1202 Q837.91 32.7556 836.128 32.7556 Q829.809 32.7556 826.406 36.8875 Q823.044 40.9789 823.044 48.6757 L823.044 72.576 L815.549 72.576 L815.549 27.2059 L823.044 27.2059 L823.044 34.2544 Q825.393 30.1225 829.16 28.1376 Q832.928 26.1121 838.315 26.1121 Q839.085 26.1121 840.017 26.2337 Q840.949 26.3147 842.083 26.5172 L842.123 34.1734 Z" fill="#000000" fill-rule="nonzero" fill-opacity="1" /><path clip-path="url(#clip360)" d="M906.168 49.3643 Q906.168 41.2625 902.806 36.8065 Q899.484 32.3505 893.448 32.3505 Q887.453 32.3505 884.091 36.8065 Q880.769 41.2625 880.769 49.3643 Q880.769 57.4256 884.091 61.8816 Q887.453 66.3376 893.448 66.3376 Q899.484 66.3376 902.806 61.8816 Q906.168 57.4256 906.168 49.3643 M913.622 66.9452 Q913.622 78.5308 908.477 84.1616 Q903.332 89.8329 892.719 89.8329 Q888.79 89.8329 885.306 89.2252 Q881.822 88.6581 878.541 87.4428 L878.541 80.1917 Q881.822 81.9741 885.022 82.8248 Q888.223 83.6755 891.544 83.6755 Q898.876 83.6755 902.522 79.8271 Q906.168 76.0193 906.168 68.282 L906.168 64.5957 Q903.859 68.6061 900.254 70.5911 Q896.648 72.576 891.625 72.576 Q883.28 72.576 878.176 66.2161 Q873.072 59.8562 873.072 49.3643 Q873.072 38.832 878.176 32.472 Q883.28 26.1121 891.625 26.1121 Q896.648 26.1121 900.254 28.0971 Q903.859 30.082 906.168 34.0924 L906.168 27.2059 L913.622 27.2059 L913.622 66.9452 Z" fill="#000000" fill-rule="nonzero" fill-opacity="1" /><path clip-path="url(#clip360)" d="M967.782 48.0275 L967.782 51.6733 L933.512 51.6733 Q933.998 59.3701 938.13 63.421 Q942.302 67.4314 949.715 67.4314 Q954.009 67.4314 958.02 66.3781 Q962.071 65.3249 966.04 63.2184 L966.04 70.267 Q962.03 71.9684 957.817 72.8596 Q953.604 73.7508 949.27 73.7508 Q938.413 73.7508 932.053 67.4314 Q925.734 61.1119 925.734 50.3365 Q925.734 39.1965 931.729 32.6746 Q937.765 26.1121 947.973 26.1121 Q957.128 26.1121 962.435 32.0264 Q967.782 37.9003 967.782 48.0275 M960.329 45.84 Q960.248 39.7232 956.885 36.0774 Q953.564 32.4315 948.054 32.4315 Q941.816 32.4315 938.049 35.9558 Q934.322 39.4801 933.755 45.8805 L960.329 45.84 Z" fill="#000000" fill-rule="nonzero" fill-opacity="1" /><path clip-path="url(#clip360)" d="M1008.94 28.5427 L1008.94 35.5912 Q1005.78 33.9709 1002.38 33.1607 Q998.974 32.3505 995.328 32.3505 Q989.779 32.3505 986.984 34.0519 Q984.229 35.7533 984.229 39.156 Q984.229 41.7486 986.214 43.2475 Q988.199 44.7058 994.194 46.0426 L996.746 46.6097 Q1004.69 48.3111 1008.01 51.4303 Q1011.37 54.509 1011.37 60.0587 Q1011.37 66.3781 1006.35 70.0644 Q1001.36 73.7508 992.614 73.7508 Q988.969 73.7508 984.999 73.0216 Q981.069 72.3329 976.694 70.9151 L976.694 63.2184 Q980.826 65.3654 984.837 66.4591 Q988.847 67.5124 992.776 67.5124 Q998.043 67.5124 1000.88 65.73 Q1003.71 63.9071 1003.71 60.6258 Q1003.71 57.5877 1001.65 55.9673 Q999.622 54.3469 992.695 52.8481 L990.103 52.2405 Q983.176 50.7821 980.097 47.7845 Q977.018 44.7463 977.018 39.4801 Q977.018 33.0797 981.555 29.5959 Q986.092 26.1121 994.437 26.1121 Q998.569 26.1121 1002.22 26.7198 Q1005.86 27.3274 1008.94 28.5427 Z" fill="#000000" fill-rule="nonzero" fill-opacity="1" /><path clip-path="url(#clip360)" d="M1030.61 14.324 L1030.61 27.2059 L1045.96 27.2059 L1045.96 32.9987 L1030.61 32.9987 L1030.61 57.6282 Q1030.61 63.1779 1032.11 64.7578 Q1033.65 66.3376 1038.31 66.3376 L1045.96 66.3376 L1045.96 72.576 L1038.31 72.576 Q1029.68 72.576 1026.4 69.3758 Q1023.12 66.1351 1023.12 57.6282 L1023.12 32.9987 L1017.65 32.9987 L1017.65 27.2059 L1023.12 27.2059 L1023.12 14.324 L1030.61 14.324 Z" fill="#000000" fill-rule="nonzero" fill-opacity="1" /><path clip-path="url(#clip360)" d="M1055 54.671 L1055 27.2059 L1062.45 27.2059 L1062.45 54.3874 Q1062.45 60.8284 1064.96 64.0691 Q1067.48 67.2693 1072.5 67.2693 Q1078.53 67.2693 1082.02 63.421 Q1085.54 59.5726 1085.54 52.9291 L1085.54 27.2059 L1093 27.2059 L1093 72.576 L1085.54 72.576 L1085.54 65.6084 Q1082.83 69.7404 1079.22 71.7658 Q1075.66 73.7508 1070.92 73.7508 Q1063.1 73.7508 1059.05 68.8897 Q1055 64.0286 1055 54.671 M1073.75 26.1121 L1073.75 26.1121 Z" fill="#000000" fill-rule="nonzero" fill-opacity="1" /><path clip-path="url(#clip360)" d="M1134.64 34.1734 Q1133.38 33.4443 1131.88 33.1202 Q1130.43 32.7556 1128.64 32.7556 Q1122.32 32.7556 1118.92 36.8875 Q1115.56 40.9789 1115.56 48.6757 L1115.56 72.576 L1108.07 72.576 L1108.07 27.2059 L1115.56 27.2059 L1115.56 34.2544 Q1117.91 30.1225 1121.68 28.1376 Q1125.44 26.1121 1130.83 26.1121 Q1131.6 26.1121 1132.53 26.2337 Q1133.46 26.3147 1134.6 26.5172 L1134.64 34.1734 Z" fill="#000000" fill-rule="nonzero" fill-opacity="1" /><path clip-path="url(#clip360)" d="M1179.44 48.0275 L1179.44 51.6733 L1145.17 51.6733 Q1145.66 59.3701 1149.79 63.421 Q1153.96 67.4314 1161.38 67.4314 Q1165.67 67.4314 1169.68 66.3781 Q1173.73 65.3249 1177.7 63.2184 L1177.7 70.267 Q1173.69 71.9684 1169.48 72.8596 Q1165.26 73.7508 1160.93 73.7508 Q1150.07 73.7508 1143.71 67.4314 Q1137.39 61.1119 1137.39 50.3365 Q1137.39 39.1965 1143.39 32.6746 Q1149.42 26.1121 1159.63 26.1121 Q1168.79 26.1121 1174.09 32.0264 Q1179.44 37.9003 1179.44 48.0275 M1171.99 45.84 Q1171.91 39.7232 1168.55 36.0774 Q1165.22 32.4315 1159.71 32.4315 Q1153.48 32.4315 1149.71 35.9558 Q1145.98 39.4801 1145.41 45.8805 L1171.99 45.84 Z" fill="#000000" fill-rule="nonzero" fill-opacity="1" /><path clip-path="url(#clip360)" d="M1235.63 32.4315 Q1229.63 32.4315 1226.15 37.1306 Q1222.67 41.7891 1222.67 49.9314 Q1222.67 58.0738 1226.11 62.7728 Q1229.59 67.4314 1235.63 67.4314 Q1241.58 67.4314 1245.07 62.7323 Q1248.55 58.0333 1248.55 49.9314 Q1248.55 41.8701 1245.07 37.1711 Q1241.58 32.4315 1235.63 32.4315 M1235.63 26.1121 Q1245.35 26.1121 1250.9 32.4315 Q1256.45 38.7509 1256.45 49.9314 Q1256.45 61.0714 1250.9 67.4314 Q1245.35 73.7508 1235.63 73.7508 Q1225.87 73.7508 1220.32 67.4314 Q1214.81 61.0714 1214.81 49.9314 Q1214.81 38.7509 1220.32 32.4315 Q1225.87 26.1121 1235.63 26.1121 Z" fill="#000000" fill-rule="nonzero" fill-opacity="1" /><path clip-path="url(#clip360)" d="M1291.77 9.54393 L1291.77 15.7418 L1284.64 15.7418 Q1280.63 15.7418 1279.05 17.3622 Q1277.51 18.9825 1277.51 23.1955 L1277.51 27.2059 L1289.79 27.2059 L1289.79 32.9987 L1277.51 32.9987 L1277.51 72.576 L1270.02 72.576 L1270.02 32.9987 L1262.89 32.9987 L1262.89 27.2059 L1270.02 27.2059 L1270.02 24.0462 Q1270.02 16.471 1273.54 13.0277 Q1277.07 9.54393 1284.73 9.54393 L1291.77 9.54393 Z" fill="#000000" fill-rule="nonzero" fill-opacity="1" /><path clip-path="url(#clip360)" d="M1331.76 14.324 L1331.76 27.2059 L1347.11 27.2059 L1347.11 32.9987 L1331.76 32.9987 L1331.76 57.6282 Q1331.76 63.1779 1333.25 64.7578 Q1334.79 66.3376 1339.45 66.3376 L1347.11 66.3376 L1347.11 72.576 L1339.45 72.576 Q1330.82 72.576 1327.54 69.3758 Q1324.26 66.1351 1324.26 57.6282 L1324.26 32.9987 L1318.79 32.9987 L1318.79 27.2059 L1324.26 27.2059 L1324.26 14.324 L1331.76 14.324 Z" fill="#000000" fill-rule="nonzero" fill-opacity="1" /><path clip-path="url(#clip360)" d="M1394.63 45.1919 L1394.63 72.576 L1387.17 72.576 L1387.17 45.4349 Q1387.17 38.994 1384.66 35.7938 Q1382.15 32.5936 1377.13 32.5936 Q1371.09 32.5936 1367.61 36.4419 Q1364.12 40.2903 1364.12 46.9338 L1364.12 72.576 L1356.63 72.576 L1356.63 9.54393 L1364.12 9.54393 L1364.12 34.2544 Q1366.8 30.163 1370.4 28.1376 Q1374.05 26.1121 1378.79 26.1121 Q1386.61 26.1121 1390.62 30.9732 Q1394.63 35.7938 1394.63 45.1919 Z" fill="#000000" fill-rule="nonzero" fill-opacity="1" /><path clip-path="url(#clip360)" d="M1448.3 48.0275 L1448.3 51.6733 L1414.03 51.6733 Q1414.52 59.3701 1418.65 63.421 Q1422.82 67.4314 1430.23 67.4314 Q1434.53 67.4314 1438.54 66.3781 Q1442.59 65.3249 1446.56 63.2184 L1446.56 70.267 Q1442.55 71.9684 1438.34 72.8596 Q1434.12 73.7508 1429.79 73.7508 Q1418.93 73.7508 1412.57 67.4314 Q1406.25 61.1119 1406.25 50.3365 Q1406.25 39.1965 1412.25 32.6746 Q1418.28 26.1121 1428.49 26.1121 Q1437.65 26.1121 1442.95 32.0264 Q1448.3 37.9003 1448.3 48.0275 M1440.85 45.84 Q1440.77 39.7232 1437.4 36.0774 Q1434.08 32.4315 1428.57 32.4315 Q1422.33 32.4315 1418.57 35.9558 Q1414.84 39.4801 1414.27 45.8805 L1440.85 45.84 Z" fill="#000000" fill-rule="nonzero" fill-opacity="1" /><path clip-path="url(#clip360)" d="M1509.87 9.54393 L1509.87 15.7418 L1502.74 15.7418 Q1498.73 15.7418 1497.15 17.3622 Q1495.62 18.9825 1495.62 23.1955 L1495.62 27.2059 L1507.89 27.2059 L1507.89 32.9987 L1495.62 32.9987 L1495.62 72.576 L1488.12 72.576 L1488.12 32.9987 L1480.99 32.9987 L1480.99 27.2059 L1488.12 27.2059 L1488.12 24.0462 Q1488.12 16.471 1491.65 13.0277 Q1495.17 9.54393 1502.83 9.54393 L1509.87 9.54393 Z" fill="#000000" fill-rule="nonzero" fill-opacity="1" /><path clip-path="url(#clip360)" d="M1516.11 27.2059 L1523.57 27.2059 L1523.57 72.576 L1516.11 72.576 L1516.11 27.2059 M1516.11 9.54393 L1523.57 9.54393 L1523.57 18.9825 L1516.11 18.9825 L1516.11 9.54393 Z" fill="#000000" fill-rule="nonzero" fill-opacity="1" /><path clip-path="url(#clip360)" d="M1565.45 34.1734 Q1564.2 33.4443 1562.7 33.1202 Q1561.24 32.7556 1559.46 32.7556 Q1553.14 32.7556 1549.74 36.8875 Q1546.37 40.9789 1546.37 48.6757 L1546.37 72.576 L1538.88 72.576 L1538.88 27.2059 L1546.37 27.2059 L1546.37 34.2544 Q1548.72 30.1225 1552.49 28.1376 Q1556.26 26.1121 1561.64 26.1121 Q1562.41 26.1121 1563.35 26.2337 Q1564.28 26.3147 1565.41 26.5172 L1565.45 34.1734 Z" fill="#000000" fill-rule="nonzero" fill-opacity="1" /><path clip-path="url(#clip360)" d="M1602.19 28.5427 L1602.19 35.5912 Q1599.03 33.9709 1595.63 33.1607 Q1592.23 32.3505 1588.58 32.3505 Q1583.03 32.3505 1580.24 34.0519 Q1577.48 35.7533 1577.48 39.156 Q1577.48 41.7486 1579.47 43.2475 Q1581.45 44.7058 1587.45 46.0426 L1590 46.6097 Q1597.94 48.3111 1601.26 51.4303 Q1604.62 54.509 1604.62 60.0587 Q1604.62 66.3781 1599.6 70.0644 Q1594.62 73.7508 1585.87 73.7508 Q1582.22 73.7508 1578.25 73.0216 Q1574.32 72.3329 1569.95 70.9151 L1569.95 63.2184 Q1574.08 65.3654 1578.09 66.4591 Q1582.1 67.5124 1586.03 67.5124 Q1591.3 67.5124 1594.13 65.73 Q1596.97 63.9071 1596.97 60.6258 Q1596.97 57.5877 1594.9 55.9673 Q1592.88 54.3469 1585.95 52.8481 L1583.36 52.2405 Q1576.43 50.7821 1573.35 47.7845 Q1570.27 44.7463 1570.27 39.4801 Q1570.27 33.0797 1574.81 29.5959 Q1579.35 26.1121 1587.69 26.1121 Q1591.82 26.1121 1595.47 26.7198 Q1599.12 27.3274 1602.19 28.5427 Z" fill="#000000" fill-rule="nonzero" fill-opacity="1" /><path clip-path="url(#clip360)" d="M1623.87 14.324 L1623.87 27.2059 L1639.22 27.2059 L1639.22 32.9987 L1623.87 32.9987 L1623.87 57.6282 Q1623.87 63.1779 1625.37 64.7578 Q1626.9 66.3376 1631.56 66.3376 L1639.22 66.3376 L1639.22 72.576 L1631.56 72.576 Q1622.94 72.576 1619.65 69.3758 Q1616.37 66.1351 1616.37 57.6282 L1616.37 32.9987 L1610.9 32.9987 L1610.9 27.2059 L1616.37 27.2059 L1616.37 14.324 L1623.87 14.324 Z" fill="#000000" fill-rule="nonzero" fill-opacity="1" /><path clip-path="url(#clip360)" d="M1682.77 14.324 L1682.77 27.2059 L1698.12 27.2059 L1698.12 32.9987 L1682.77 32.9987 L1682.77 57.6282 Q1682.77 63.1779 1684.27 64.7578 Q1685.81 66.3376 1690.46 66.3376 L1698.12 66.3376 L1698.12 72.576 L1690.46 72.576 Q1681.84 72.576 1678.55 69.3758 Q1675.27 66.1351 1675.27 57.6282 L1675.27 32.9987 L1669.8 32.9987 L1669.8 27.2059 L1675.27 27.2059 L1675.27 14.324 L1682.77 14.324 Z" fill="#000000" fill-rule="nonzero" fill-opacity="1" /><path clip-path="url(#clip360)" d="M1703.59 27.2059 L1711.04 27.2059 L1720.36 62.6108 L1729.64 27.2059 L1738.43 27.2059 L1747.74 62.6108 L1757.02 27.2059 L1764.47 27.2059 L1752.6 72.576 L1743.81 72.576 L1734.05 35.3887 L1724.25 72.576 L1715.46 72.576 L1703.59 27.2059 Z" fill="#000000" fill-rule="nonzero" fill-opacity="1" /><path clip-path="url(#clip360)" d="M1793.36 32.4315 Q1787.36 32.4315 1783.88 37.1306 Q1780.39 41.7891 1780.39 49.9314 Q1780.39 58.0738 1783.84 62.7728 Q1787.32 67.4314 1793.36 67.4314 Q1799.31 67.4314 1802.8 62.7323 Q1806.28 58.0333 1806.28 49.9314 Q1806.28 41.8701 1802.8 37.1711 Q1799.31 32.4315 1793.36 32.4315 M1793.36 26.1121 Q1803.08 26.1121 1808.63 32.4315 Q1814.18 38.7509 1814.18 49.9314 Q1814.18 61.0714 1808.63 67.4314 Q1803.08 73.7508 1793.36 73.7508 Q1783.59 73.7508 1778.04 67.4314 Q1772.53 61.0714 1772.53 49.9314 Q1772.53 38.7509 1778.04 32.4315 Q1783.59 26.1121 1793.36 26.1121 Z" fill="#000000" fill-rule="nonzero" fill-opacity="1" /><path clip-path="url(#clip360)" d="M1860.12 65.7705 L1860.12 89.8329 L1852.62 89.8329 L1852.62 27.2059 L1860.12 27.2059 L1860.12 34.0924 Q1862.47 30.0415 1866.03 28.0971 Q1869.64 26.1121 1874.62 26.1121 Q1882.88 26.1121 1888.03 32.6746 Q1893.21 39.2371 1893.21 49.9314 Q1893.21 60.6258 1888.03 67.1883 Q1882.88 73.7508 1874.62 73.7508 Q1869.64 73.7508 1866.03 71.8063 Q1862.47 69.8214 1860.12 65.7705 M1885.47 49.9314 Q1885.47 41.7081 1882.07 37.0496 Q1878.71 32.3505 1872.79 32.3505 Q1866.88 32.3505 1863.48 37.0496 Q1860.12 41.7081 1860.12 49.9314 Q1860.12 58.1548 1863.48 62.8538 Q1866.88 67.5124 1872.79 67.5124 Q1878.71 67.5124 1882.07 62.8538 Q1885.47 58.1548 1885.47 49.9314 Z" fill="#000000" fill-rule="nonzero" fill-opacity="1" /><path clip-path="url(#clip360)" d="M1931.86 34.1734 Q1930.6 33.4443 1929.1 33.1202 Q1927.64 32.7556 1925.86 32.7556 Q1919.54 32.7556 1916.14 36.8875 Q1912.78 40.9789 1912.78 48.6757 L1912.78 72.576 L1905.28 72.576 L1905.28 27.2059 L1912.78 27.2059 L1912.78 34.2544 Q1915.13 30.1225 1918.89 28.1376 Q1922.66 26.1121 1928.05 26.1121 Q1928.82 26.1121 1929.75 26.2337 Q1930.68 26.3147 1931.82 26.5172 L1931.86 34.1734 Z" fill="#000000" fill-rule="nonzero" fill-opacity="1" /><path clip-path="url(#clip360)" d="M1939.68 27.2059 L1947.13 27.2059 L1947.13 72.576 L1939.68 72.576 L1939.68 27.2059 M1939.68 9.54393 L1947.13 9.54393 L1947.13 18.9825 L1939.68 18.9825 L1939.68 9.54393 Z" fill="#000000" fill-rule="nonzero" fill-opacity="1" /><path clip-path="url(#clip360)" d="M2000.44 45.1919 L2000.44 72.576 L1992.99 72.576 L1992.99 45.4349 Q1992.99 38.994 1990.47 35.7938 Q1987.96 32.5936 1982.94 32.5936 Q1976.9 32.5936 1973.42 36.4419 Q1969.94 40.2903 1969.94 46.9338 L1969.94 72.576 L1962.44 72.576 L1962.44 27.2059 L1969.94 27.2059 L1969.94 34.2544 Q1972.61 30.163 1976.21 28.1376 Q1979.86 26.1121 1984.6 26.1121 Q1992.42 26.1121 1996.43 30.9732 Q2000.44 35.7938 2000.44 45.1919 Z" fill="#000000" fill-rule="nonzero" fill-opacity="1" /><path clip-path="url(#clip360)" d="M2047.96 28.9478 L2047.96 35.9153 Q2044.8 34.1734 2041.6 33.3227 Q2038.44 32.4315 2035.2 32.4315 Q2027.94 32.4315 2023.93 37.0496 Q2019.92 41.6271 2019.92 49.9314 Q2019.92 58.2358 2023.93 62.8538 Q2027.94 67.4314 2035.2 67.4314 Q2038.44 67.4314 2041.6 66.5807 Q2044.8 65.6895 2047.96 63.9476 L2047.96 70.8341 Q2044.84 72.2924 2041.47 73.0216 Q2038.15 73.7508 2034.39 73.7508 Q2024.14 73.7508 2018.1 67.3098 Q2012.06 60.8689 2012.06 49.9314 Q2012.06 38.832 2018.14 32.472 Q2024.26 26.1121 2034.87 26.1121 Q2038.31 26.1121 2041.6 26.8413 Q2044.88 27.5299 2047.96 28.9478 Z" fill="#000000" fill-rule="nonzero" fill-opacity="1" /><path clip-path="url(#clip360)" d="M2060.92 27.2059 L2068.37 27.2059 L2068.37 72.576 L2060.92 72.576 L2060.92 27.2059 M2060.92 9.54393 L2068.37 9.54393 L2068.37 18.9825 L2060.92 18.9825 L2060.92 9.54393 Z" fill="#000000" fill-rule="nonzero" fill-opacity="1" /><path clip-path="url(#clip360)" d="M2091.18 65.7705 L2091.18 89.8329 L2083.68 89.8329 L2083.68 27.2059 L2091.18 27.2059 L2091.18 34.0924 Q2093.53 30.0415 2097.09 28.0971 Q2100.7 26.1121 2105.68 26.1121 Q2113.95 26.1121 2119.09 32.6746 Q2124.27 39.2371 2124.27 49.9314 Q2124.27 60.6258 2119.09 67.1883 Q2113.95 73.7508 2105.68 73.7508 Q2100.7 73.7508 2097.09 71.8063 Q2093.53 69.8214 2091.18 65.7705 M2116.54 49.9314 Q2116.54 41.7081 2113.13 37.0496 Q2109.77 32.3505 2103.86 32.3505 Q2097.94 32.3505 2094.54 37.0496 Q2091.18 41.7081 2091.18 49.9314 Q2091.18 58.1548 2094.54 62.8538 Q2097.94 67.5124 2103.86 67.5124 Q2109.77 67.5124 2113.13 62.8538 Q2116.54 58.1548 2116.54 49.9314 Z" fill="#000000" fill-rule="nonzero" fill-opacity="1" /><path clip-path="url(#clip360)" d="M2157.25 49.7694 Q2148.22 49.7694 2144.73 51.8354 Q2141.25 53.9013 2141.25 58.8839 Q2141.25 62.8538 2143.84 65.2034 Q2146.47 67.5124 2150.97 67.5124 Q2157.17 67.5124 2160.9 63.1374 Q2164.66 58.7219 2164.66 51.4303 L2164.66 49.7694 L2157.25 49.7694 M2172.12 46.6907 L2172.12 72.576 L2164.66 72.576 L2164.66 65.6895 Q2162.11 69.8214 2158.3 71.8063 Q2154.49 73.7508 2148.99 73.7508 Q2142.02 73.7508 2137.89 69.8619 Q2133.79 65.9325 2133.79 59.3701 Q2133.79 51.7138 2138.9 47.825 Q2144.04 43.9361 2154.21 43.9361 L2164.66 43.9361 L2164.66 43.2069 Q2164.66 38.0623 2161.26 35.2672 Q2157.9 32.4315 2151.78 32.4315 Q2147.89 32.4315 2144.21 33.3632 Q2140.52 34.295 2137.12 36.1584 L2137.12 29.2718 Q2141.21 27.692 2145.06 26.9223 Q2148.9 26.1121 2152.55 26.1121 Q2162.39 26.1121 2167.26 31.2163 Q2172.12 36.3204 2172.12 46.6907 Z" fill="#000000" fill-rule="nonzero" fill-opacity="1" /><path clip-path="url(#clip360)" d="M2187.47 9.54393 L2194.92 9.54393 L2194.92 72.576 L2187.47 72.576 L2187.47 9.54393 Z" fill="#000000" fill-rule="nonzero" fill-opacity="1" /><path clip-path="url(#clip360)" d="M2269.54 28.9478 L2269.54 35.9153 Q2266.38 34.1734 2263.18 33.3227 Q2260.02 32.4315 2256.78 32.4315 Q2249.53 32.4315 2245.52 37.0496 Q2241.51 41.6271 2241.51 49.9314 Q2241.51 58.2358 2245.52 62.8538 Q2249.53 67.4314 2256.78 67.4314 Q2260.02 67.4314 2263.18 66.5807 Q2266.38 65.6895 2269.54 63.9476 L2269.54 70.8341 Q2266.42 72.2924 2263.06 73.0216 Q2259.74 73.7508 2255.97 73.7508 Q2245.72 73.7508 2239.69 67.3098 Q2233.65 60.8689 2233.65 49.9314 Q2233.65 38.832 2239.73 32.472 Q2245.84 26.1121 2256.46 26.1121 Q2259.9 26.1121 2263.18 26.8413 Q2266.46 27.5299 2269.54 28.9478 Z" fill="#000000" fill-rule="nonzero" fill-opacity="1" /><path clip-path="url(#clip360)" d="M2300.08 32.4315 Q2294.09 32.4315 2290.61 37.1306 Q2287.12 41.7891 2287.12 49.9314 Q2287.12 58.0738 2290.56 62.7728 Q2294.05 67.4314 2300.08 67.4314 Q2306.04 67.4314 2309.52 62.7323 Q2313.01 58.0333 2313.01 49.9314 Q2313.01 41.8701 2309.52 37.1711 Q2306.04 32.4315 2300.08 32.4315 M2300.08 26.1121 Q2309.81 26.1121 2315.36 32.4315 Q2320.91 38.7509 2320.91 49.9314 Q2320.91 61.0714 2315.36 67.4314 Q2309.81 73.7508 2300.08 73.7508 Q2290.32 73.7508 2284.77 67.4314 Q2279.26 61.0714 2279.26 49.9314 Q2279.26 38.7509 2284.77 32.4315 Q2290.32 26.1121 2300.08 26.1121 Z" fill="#000000" fill-rule="nonzero" fill-opacity="1" /><path clip-path="url(#clip360)" d="M2368.59 35.9153 Q2371.38 30.8922 2375.27 28.5022 Q2379.16 26.1121 2384.42 26.1121 Q2391.51 26.1121 2395.36 31.0947 Q2399.21 36.0368 2399.21 45.1919 L2399.21 72.576 L2391.72 72.576 L2391.72 45.4349 Q2391.72 38.913 2389.41 35.7533 Q2387.1 32.5936 2382.36 32.5936 Q2376.57 32.5936 2373.2 36.4419 Q2369.84 40.2903 2369.84 46.9338 L2369.84 72.576 L2362.35 72.576 L2362.35 45.4349 Q2362.35 38.8725 2360.04 35.7533 Q2357.73 32.5936 2352.91 32.5936 Q2347.2 32.5936 2343.83 36.4824 Q2340.47 40.3308 2340.47 46.9338 L2340.47 72.576 L2332.98 72.576 L2332.98 27.2059 L2340.47 27.2059 L2340.47 34.2544 Q2343.02 30.082 2346.59 28.0971 Q2350.15 26.1121 2355.05 26.1121 Q2360 26.1121 2363.44 28.6237 Q2366.92 31.1352 2368.59 35.9153 Z" fill="#000000" fill-rule="nonzero" fill-opacity="1" /><path clip-path="url(#clip360)" d="M2421.29 65.7705 L2421.29 89.8329 L2413.79 89.8329 L2413.79 27.2059 L2421.29 27.2059 L2421.29 34.0924 Q2423.64 30.0415 2427.2 28.0971 Q2430.81 26.1121 2435.79 26.1121 Q2444.05 26.1121 2449.2 32.6746 Q2454.38 39.2371 2454.38 49.9314 Q2454.38 60.6258 2449.2 67.1883 Q2444.05 73.7508 2435.79 73.7508 Q2430.81 73.7508 2427.2 71.8063 Q2423.64 69.8214 2421.29 65.7705 M2446.65 49.9314 Q2446.65 41.7081 2443.24 37.0496 Q2439.88 32.3505 2433.97 32.3505 Q2428.05 32.3505 2424.65 37.0496 Q2421.29 41.7081 2421.29 49.9314 Q2421.29 58.1548 2424.65 62.8538 Q2428.05 67.5124 2433.97 67.5124 Q2439.88 67.5124 2443.24 62.8538 Q2446.65 58.1548 2446.65 49.9314 Z" fill="#000000" fill-rule="nonzero" fill-opacity="1" /><path clip-path="url(#clip360)" d="M2484.32 32.4315 Q2478.32 32.4315 2474.84 37.1306 Q2471.36 41.7891 2471.36 49.9314 Q2471.36 58.0738 2474.8 62.7728 Q2478.28 67.4314 2484.32 67.4314 Q2490.27 67.4314 2493.76 62.7323 Q2497.24 58.0333 2497.24 49.9314 Q2497.24 41.8701 2493.76 37.1711 Q2490.27 32.4315 2484.32 32.4315 M2484.32 26.1121 Q2494.04 26.1121 2499.59 32.4315 Q2505.14 38.7509 2505.14 49.9314 Q2505.14 61.0714 2499.59 67.4314 Q2494.04 73.7508 2484.32 73.7508 Q2474.56 73.7508 2469.01 67.4314 Q2463.5 61.0714 2463.5 49.9314 Q2463.5 38.7509 2469.01 32.4315 Q2474.56 26.1121 2484.32 26.1121 Z" fill="#000000" fill-rule="nonzero" fill-opacity="1" /><path clip-path="url(#clip360)" d="M2555.21 45.1919 L2555.21 72.576 L2547.76 72.576 L2547.76 45.4349 Q2547.76 38.994 2545.24 35.7938 Q2542.73 32.5936 2537.71 32.5936 Q2531.67 32.5936 2528.19 36.4419 Q2524.71 40.2903 2524.71 46.9338 L2524.71 72.576 L2517.21 72.576 L2517.21 27.2059 L2524.71 27.2059 L2524.71 34.2544 Q2527.38 30.163 2530.99 28.1376 Q2534.63 26.1121 2539.37 26.1121 Q2547.19 26.1121 2551.2 30.9732 Q2555.21 35.7938 2555.21 45.1919 Z" fill="#000000" fill-rule="nonzero" fill-opacity="1" /><path clip-path="url(#clip360)" d="M2608.88 48.0275 L2608.88 51.6733 L2574.61 51.6733 Q2575.1 59.3701 2579.23 63.421 Q2583.4 67.4314 2590.82 67.4314 Q2595.11 67.4314 2599.12 66.3781 Q2603.17 65.3249 2607.14 63.2184 L2607.14 70.267 Q2603.13 71.9684 2598.92 72.8596 Q2594.71 73.7508 2590.37 73.7508 Q2579.52 73.7508 2573.16 67.4314 Q2566.84 61.1119 2566.84 50.3365 Q2566.84 39.1965 2572.83 32.6746 Q2578.87 26.1121 2589.08 26.1121 Q2598.23 26.1121 2603.54 32.0264 Q2608.88 37.9003 2608.88 48.0275 M2601.43 45.84 Q2601.35 39.7232 2597.99 36.0774 Q2594.67 32.4315 2589.16 32.4315 Q2582.92 32.4315 2579.15 35.9558 Q2575.42 39.4801 2574.86 45.8805 L2601.43 45.84 Z" fill="#000000" fill-rule="nonzero" fill-opacity="1" /><path clip-path="url(#clip360)" d="M2658.83 45.1919 L2658.83 72.576 L2651.38 72.576 L2651.38 45.4349 Q2651.38 38.994 2648.87 35.7938 Q2646.36 32.5936 2641.33 32.5936 Q2635.3 32.5936 2631.81 36.4419 Q2628.33 40.2903 2628.33 46.9338 L2628.33 72.576 L2620.83 72.576 L2620.83 27.2059 L2628.33 27.2059 L2628.33 34.2544 Q2631 30.163 2634.61 28.1376 Q2638.25 26.1121 2642.99 26.1121 Q2650.81 26.1121 2654.82 30.9732 Q2658.83 35.7938 2658.83 45.1919 Z" fill="#000000" fill-rule="nonzero" fill-opacity="1" /><path clip-path="url(#clip360)" d="M2681.07 14.324 L2681.07 27.2059 L2696.42 27.2059 L2696.42 32.9987 L2681.07 32.9987 L2681.07 57.6282 Q2681.07 63.1779 2682.57 64.7578 Q2684.11 66.3376 2688.77 66.3376 L2696.42 66.3376 L2696.42 72.576 L2688.77 72.576 Q2680.14 72.576 2676.86 69.3758 Q2673.58 66.1351 2673.58 57.6282 L2673.58 32.9987 L2668.11 32.9987 L2668.11 27.2059 L2673.58 27.2059 L2673.58 14.324 L2681.07 14.324 Z" fill="#000000" fill-rule="nonzero" fill-opacity="1" /><path clip-path="url(#clip360)" d="M2735.15 28.5427 L2735.15 35.5912 Q2731.99 33.9709 2728.59 33.1607 Q2725.19 32.3505 2721.54 32.3505 Q2715.99 32.3505 2713.2 34.0519 Q2710.44 35.7533 2710.44 39.156 Q2710.44 41.7486 2712.43 43.2475 Q2714.41 44.7058 2720.41 46.0426 L2722.96 46.6097 Q2730.9 48.3111 2734.22 51.4303 Q2737.58 54.509 2737.58 60.0587 Q2737.58 66.3781 2732.56 70.0644 Q2727.58 73.7508 2718.83 73.7508 Q2715.18 73.7508 2711.21 73.0216 Q2707.28 72.3329 2702.91 70.9151 L2702.91 63.2184 Q2707.04 65.3654 2711.05 66.4591 Q2715.06 67.5124 2718.99 67.5124 Q2724.25 67.5124 2727.09 65.73 Q2729.93 63.9071 2729.93 60.6258 Q2729.93 57.5877 2727.86 55.9673 Q2725.83 54.3469 2718.91 52.8481 L2716.31 52.2405 Q2709.39 50.7821 2706.31 47.7845 Q2703.23 44.7463 2703.23 39.4801 Q2703.23 33.0797 2707.77 29.5959 Q2712.3 26.1121 2720.65 26.1121 Q2724.78 26.1121 2728.43 26.7198 Q2732.07 27.3274 2735.15 28.5427 Z" fill="#000000" fill-rule="nonzero" fill-opacity="1" /><circle clip-path="url(#clip362)" cx="1954.6" cy="608.632" r="14.4" fill="#009af9" fill-rule="evenodd" fill-opacity="1" stroke="#000000" stroke-opacity="1" stroke-width="3.84"/>
<circle clip-path="url(#clip362)" cx="478.131" cy="676.789" r="14.4" fill="#009af9" fill-rule="evenodd" fill-opacity="1" stroke="#000000" stroke-opacity="1" stroke-width="3.84"/>
<circle clip-path="url(#clip362)" cx="366.39" cy="813.818" r="14.4" fill="#009af9" fill-rule="evenodd" fill-opacity="1" stroke="#000000" stroke-opacity="1" stroke-width="3.84"/>
<circle clip-path="url(#clip362)" cx="1507.86" cy="760.636" r="14.4" fill="#009af9" fill-rule="evenodd" fill-opacity="1" stroke="#000000" stroke-opacity="1" stroke-width="3.84"/>
<circle clip-path="url(#clip362)" cx="1121.28" cy="562.838" r="14.4" fill="#009af9" fill-rule="evenodd" fill-opacity="1" stroke="#000000" stroke-opacity="1" stroke-width="3.84"/>
<circle clip-path="url(#clip362)" cx="2302.56" cy="668.836" r="14.4" fill="#009af9" fill-rule="evenodd" fill-opacity="1" stroke="#000000" stroke-opacity="1" stroke-width="3.84"/>
<circle clip-path="url(#clip362)" cx="2200.68" cy="602.187" r="14.4" fill="#009af9" fill-rule="evenodd" fill-opacity="1" stroke="#000000" stroke-opacity="1" stroke-width="3.84"/>
<circle clip-path="url(#clip362)" cx="1002.26" cy="173.254" r="14.4" fill="#009af9" fill-rule="evenodd" fill-opacity="1" stroke="#000000" stroke-opacity="1" stroke-width="3.84"/>
<circle clip-path="url(#clip362)" cx="1666.72" cy="952.654" r="14.4" fill="#009af9" fill-rule="evenodd" fill-opacity="1" stroke="#000000" stroke-opacity="1" stroke-width="3.84"/>
<circle clip-path="url(#clip362)" cx="496.956" cy="753.751" r="14.4" fill="#009af9" fill-rule="evenodd" fill-opacity="1" stroke="#000000" stroke-opacity="1" stroke-width="3.84"/>
<circle clip-path="url(#clip362)" cx="1953.27" cy="660.782" r="14.4" fill="#009af9" fill-rule="evenodd" fill-opacity="1" stroke="#000000" stroke-opacity="1" stroke-width="3.84"/>
<circle clip-path="url(#clip362)" cx="1134.43" cy="1688.65" r="14.4" fill="#009af9" fill-rule="evenodd" fill-opacity="1" stroke="#000000" stroke-opacity="1" stroke-width="3.84"/>
<circle clip-path="url(#clip362)" cx="1631.64" cy="651.189" r="14.4" fill="#009af9" fill-rule="evenodd" fill-opacity="1" stroke="#000000" stroke-opacity="1" stroke-width="3.84"/>
<circle clip-path="url(#clip362)" cx="547.219" cy="748.464" r="14.4" fill="#009af9" fill-rule="evenodd" fill-opacity="1" stroke="#000000" stroke-opacity="1" stroke-width="3.84"/>
<circle clip-path="url(#clip362)" cx="2192.45" cy="605.258" r="14.4" fill="#009af9" fill-rule="evenodd" fill-opacity="1" stroke="#000000" stroke-opacity="1" stroke-width="3.84"/>
<circle clip-path="url(#clip362)" cx="692.528" cy="370.403" r="14.4" fill="#009af9" fill-rule="evenodd" fill-opacity="1" stroke="#000000" stroke-opacity="1" stroke-width="3.84"/>
<circle clip-path="url(#clip362)" cx="686.316" cy="1038.29" r="14.4" fill="#009af9" fill-rule="evenodd" fill-opacity="1" stroke="#000000" stroke-opacity="1" stroke-width="3.84"/>
<circle clip-path="url(#clip362)" cx="518.39" cy="670.974" r="14.4" fill="#009af9" fill-rule="evenodd" fill-opacity="1" stroke="#000000" stroke-opacity="1" stroke-width="3.84"/>
<circle clip-path="url(#clip362)" cx="2158.72" cy="654.967" r="14.4" fill="#009af9" fill-rule="evenodd" fill-opacity="1" stroke="#000000" stroke-opacity="1" stroke-width="3.84"/>
<circle clip-path="url(#clip362)" cx="2140.57" cy="732.911" r="14.4" fill="#009af9" fill-rule="evenodd" fill-opacity="1" stroke="#000000" stroke-opacity="1" stroke-width="3.84"/>
<circle clip-path="url(#clip362)" cx="2079.5" cy="752.635" r="14.4" fill="#009af9" fill-rule="evenodd" fill-opacity="1" stroke="#000000" stroke-opacity="1" stroke-width="3.84"/>
<circle clip-path="url(#clip362)" cx="2013.22" cy="746.547" r="14.4" fill="#009af9" fill-rule="evenodd" fill-opacity="1" stroke="#000000" stroke-opacity="1" stroke-width="3.84"/>
<circle clip-path="url(#clip362)" cx="1761.5" cy="699.473" r="14.4" fill="#009af9" fill-rule="evenodd" fill-opacity="1" stroke="#000000" stroke-opacity="1" stroke-width="3.84"/>
<circle clip-path="url(#clip362)" cx="360.068" cy="923.126" r="14.4" fill="#009af9" fill-rule="evenodd" fill-opacity="1" stroke="#000000" stroke-opacity="1" stroke-width="3.84"/>
<circle clip-path="url(#clip362)" cx="1969.47" cy="876.402" r="14.4" fill="#009af9" fill-rule="evenodd" fill-opacity="1" stroke="#000000" stroke-opacity="1" stroke-width="3.84"/>
<circle clip-path="url(#clip362)" cx="499.12" cy="823.72" r="14.4" fill="#009af9" fill-rule="evenodd" fill-opacity="1" stroke="#000000" stroke-opacity="1" stroke-width="3.84"/>
<circle clip-path="url(#clip362)" cx="1695.12" cy="604.717" r="14.4" fill="#e26f46" fill-rule="evenodd" fill-opacity="1" stroke="#000000" stroke-opacity="1" stroke-width="3.84"/>
<circle clip-path="url(#clip362)" cx="1952.01" cy="624.287" r="14.4" fill="#e26f46" fill-rule="evenodd" fill-opacity="1" stroke="#000000" stroke-opacity="1" stroke-width="3.84"/>
<circle clip-path="url(#clip362)" cx="2054.17" cy="1032.2" r="14.4" fill="#e26f46" fill-rule="evenodd" fill-opacity="1" stroke="#000000" stroke-opacity="1" stroke-width="3.84"/>
<circle clip-path="url(#clip362)" cx="2155.14" cy="896.422" r="14.4" fill="#e26f46" fill-rule="evenodd" fill-opacity="1" stroke="#000000" stroke-opacity="1" stroke-width="3.84"/>
<circle clip-path="url(#clip362)" cx="1970.01" cy="822.942" r="14.4" fill="#e26f46" fill-rule="evenodd" fill-opacity="1" stroke="#000000" stroke-opacity="1" stroke-width="3.84"/>
<circle clip-path="url(#clip362)" cx="2056.02" cy="824.173" r="14.4" fill="#e26f46" fill-rule="evenodd" fill-opacity="1" stroke="#000000" stroke-opacity="1" stroke-width="3.84"/>
<circle clip-path="url(#clip362)" cx="2223.19" cy="742.027" r="14.4" fill="#e26f46" fill-rule="evenodd" fill-opacity="1" stroke="#000000" stroke-opacity="1" stroke-width="3.84"/>
<circle clip-path="url(#clip362)" cx="2135.04" cy="660.232" r="14.4" fill="#e26f46" fill-rule="evenodd" fill-opacity="1" stroke="#000000" stroke-opacity="1" stroke-width="3.84"/>
<circle clip-path="url(#clip362)" cx="2010.79" cy="710.769" r="14.4" fill="#e26f46" fill-rule="evenodd" fill-opacity="1" stroke="#000000" stroke-opacity="1" stroke-width="3.84"/>
<circle clip-path="url(#clip362)" cx="2127.1" cy="1048.89" r="14.4" fill="#e26f46" fill-rule="evenodd" fill-opacity="1" stroke="#000000" stroke-opacity="1" stroke-width="3.84"/>
<circle clip-path="url(#clip362)" cx="2062.21" cy="855.676" r="14.4" fill="#e26f46" fill-rule="evenodd" fill-opacity="1" stroke="#000000" stroke-opacity="1" stroke-width="3.84"/>
<circle clip-path="url(#clip362)" cx="2177.85" cy="594.365" r="14.4" fill="#e26f46" fill-rule="evenodd" fill-opacity="1" stroke="#000000" stroke-opacity="1" stroke-width="3.84"/>
<circle clip-path="url(#clip362)" cx="1793.17" cy="747.747" r="14.4" fill="#e26f46" fill-rule="evenodd" fill-opacity="1" stroke="#000000" stroke-opacity="1" stroke-width="3.84"/>
<circle clip-path="url(#clip362)" cx="2102.41" cy="711.941" r="14.4" fill="#e26f46" fill-rule="evenodd" fill-opacity="1" stroke="#000000" stroke-opacity="1" stroke-width="3.84"/>
<circle clip-path="url(#clip362)" cx="2188.16" cy="1106.81" r="14.4" fill="#e26f46" fill-rule="evenodd" fill-opacity="1" stroke="#000000" stroke-opacity="1" stroke-width="3.84"/>
<circle clip-path="url(#clip362)" cx="1802.68" cy="672.191" r="14.4" fill="#e26f46" fill-rule="evenodd" fill-opacity="1" stroke="#000000" stroke-opacity="1" stroke-width="3.84"/>
<circle clip-path="url(#clip362)" cx="2367.41" cy="771.907" r="14.4" fill="#e26f46" fill-rule="evenodd" fill-opacity="1" stroke="#000000" stroke-opacity="1" stroke-width="3.84"/>
<circle clip-path="url(#clip362)" cx="1993.74" cy="710.906" r="14.4" fill="#e26f46" fill-rule="evenodd" fill-opacity="1" stroke="#000000" stroke-opacity="1" stroke-width="3.84"/>
<circle clip-path="url(#clip362)" cx="2064.96" cy="683.713" r="14.4" fill="#e26f46" fill-rule="evenodd" fill-opacity="1" stroke="#000000" stroke-opacity="1" stroke-width="3.84"/>
<circle clip-path="url(#clip362)" cx="1788.26" cy="598.352" r="14.4" fill="#e26f46" fill-rule="evenodd" fill-opacity="1" stroke="#000000" stroke-opacity="1" stroke-width="3.84"/>
<circle clip-path="url(#clip362)" cx="2366.6" cy="833.843" r="14.4" fill="#e26f46" fill-rule="evenodd" fill-opacity="1" stroke="#000000" stroke-opacity="1" stroke-width="3.84"/>
<circle clip-path="url(#clip362)" cx="2108.8" cy="800.964" r="14.4" fill="#e26f46" fill-rule="evenodd" fill-opacity="1" stroke="#000000" stroke-opacity="1" stroke-width="3.84"/>
<circle clip-path="url(#clip362)" cx="2138.03" cy="812.454" r="14.4" fill="#e26f46" fill-rule="evenodd" fill-opacity="1" stroke="#000000" stroke-opacity="1" stroke-width="3.84"/>
<circle clip-path="url(#clip362)" cx="2574.33" cy="700.793" r="14.4" fill="#e26f46" fill-rule="evenodd" fill-opacity="1" stroke="#000000" stroke-opacity="1" stroke-width="3.84"/>
<circle clip-path="url(#clip362)" cx="2090.17" cy="756.108" r="14.4" fill="#e26f46" fill-rule="evenodd" fill-opacity="1" stroke="#000000" stroke-opacity="1" stroke-width="3.84"/>
<circle clip-path="url(#clip362)" cx="2421.4" cy="826.676" r="14.4" fill="#e26f46" fill-rule="evenodd" fill-opacity="1" stroke="#000000" stroke-opacity="1" stroke-width="3.84"/>
<circle clip-path="url(#clip362)" cx="2287.53" cy="735.19" r="14.4" fill="#e26f46" fill-rule="evenodd" fill-opacity="1" stroke="#000000" stroke-opacity="1" stroke-width="3.84"/>
<path clip-path="url(#clip360)" d="M2108.13 336.856 L2562.52 336.856 L2562.52 181.336 L2108.13 181.336  Z" fill="#ffffff" fill-rule="evenodd" fill-opacity="1"/>
<polyline clip-path="url(#clip360)" style="stroke:#000000; stroke-linecap:round; stroke-linejoin:round; stroke-width:4; stroke-opacity:1; fill:none" points="2108.13,336.856 2562.52,336.856 2562.52,181.336 2108.13,181.336 2108.13,336.856 "/>
<circle clip-path="url(#clip360)" cx="2212.45" cy="233.176" r="20.48" fill="#009af9" fill-rule="evenodd" fill-opacity="1" stroke="#000000" stroke-opacity="1" stroke-width="5.46133"/>
<path clip-path="url(#clip360)" d="M2335.68 237.192 Q2335.68 232.563 2333.76 230.017 Q2331.86 227.47 2328.41 227.47 Q2324.98 227.47 2323.06 230.017 Q2321.16 232.563 2321.16 237.192 Q2321.16 241.799 2323.06 244.345 Q2324.98 246.891 2328.41 246.891 Q2331.86 246.891 2333.76 244.345 Q2335.68 241.799 2335.68 237.192 M2339.94 247.239 Q2339.94 253.859 2337 257.077 Q2334.06 260.317 2327.99 260.317 Q2325.75 260.317 2323.76 259.97 Q2321.76 259.646 2319.89 258.952 L2319.89 254.808 Q2321.76 255.827 2323.59 256.313 Q2325.42 256.799 2327.32 256.799 Q2331.51 256.799 2333.59 254.6 Q2335.68 252.424 2335.68 248.003 L2335.68 245.896 Q2334.36 248.188 2332.3 249.322 Q2330.24 250.456 2327.37 250.456 Q2322.6 250.456 2319.68 246.822 Q2316.76 243.188 2316.76 237.192 Q2316.76 231.174 2319.68 227.54 Q2322.6 223.906 2327.37 223.906 Q2330.24 223.906 2332.3 225.04 Q2334.36 226.174 2335.68 228.466 L2335.68 224.531 L2339.94 224.531 L2339.94 247.239 Z" fill="#000000" fill-rule="nonzero" fill-opacity="1" /><path clip-path="url(#clip360)" d="M2370.88 236.429 L2370.88 238.512 L2351.3 238.512 Q2351.58 242.91 2353.94 245.225 Q2356.32 247.516 2360.56 247.516 Q2363.01 247.516 2365.31 246.915 Q2367.62 246.313 2369.89 245.109 L2369.89 249.137 Q2367.6 250.109 2365.19 250.618 Q2362.78 251.128 2360.31 251.128 Q2354.1 251.128 2350.47 247.516 Q2346.86 243.905 2346.86 237.748 Q2346.86 231.382 2350.28 227.655 Q2353.73 223.906 2359.57 223.906 Q2364.8 223.906 2367.83 227.285 Q2370.88 230.642 2370.88 236.429 M2366.63 235.179 Q2366.58 231.683 2364.66 229.6 Q2362.76 227.517 2359.61 227.517 Q2356.05 227.517 2353.89 229.53 Q2351.76 231.544 2351.44 235.202 L2366.63 235.179 Z" fill="#000000" fill-rule="nonzero" fill-opacity="1" /><path clip-path="url(#clip360)" d="M2394.4 225.294 L2394.4 229.322 Q2392.6 228.396 2390.65 227.933 Q2388.71 227.47 2386.63 227.47 Q2383.45 227.47 2381.86 228.443 Q2380.28 229.415 2380.28 231.359 Q2380.28 232.841 2381.42 233.697 Q2382.55 234.53 2385.98 235.294 L2387.44 235.618 Q2391.97 236.591 2393.87 238.373 Q2395.79 240.132 2395.79 243.304 Q2395.79 246.915 2392.92 249.021 Q2390.07 251.128 2385.07 251.128 Q2382.99 251.128 2380.72 250.711 Q2378.48 250.317 2375.98 249.507 L2375.98 245.109 Q2378.34 246.336 2380.63 246.961 Q2382.92 247.563 2385.17 247.563 Q2388.18 247.563 2389.8 246.544 Q2391.42 245.503 2391.42 243.628 Q2391.42 241.892 2390.24 240.966 Q2389.08 240.04 2385.12 239.183 L2383.64 238.836 Q2379.68 238.003 2377.92 236.29 Q2376.16 234.554 2376.16 231.544 Q2376.16 227.887 2378.76 225.896 Q2381.35 223.906 2386.12 223.906 Q2388.48 223.906 2390.56 224.253 Q2392.64 224.6 2394.4 225.294 Z" fill="#000000" fill-rule="nonzero" fill-opacity="1" /><path clip-path="url(#clip360)" d="M2406.79 217.169 L2406.79 224.531 L2415.56 224.531 L2415.56 227.841 L2406.79 227.841 L2406.79 241.915 Q2406.79 245.086 2407.64 245.989 Q2408.52 246.891 2411.19 246.891 L2415.56 246.891 L2415.56 250.456 L2411.19 250.456 Q2406.26 250.456 2404.38 248.628 Q2402.51 246.776 2402.51 241.915 L2402.51 227.841 L2399.38 227.841 L2399.38 224.531 L2402.51 224.531 L2402.51 217.169 L2406.79 217.169 Z" fill="#000000" fill-rule="nonzero" fill-opacity="1" /><path clip-path="url(#clip360)" d="M2420.72 240.225 L2420.72 224.531 L2424.98 224.531 L2424.98 240.063 Q2424.98 243.743 2426.42 245.595 Q2427.85 247.424 2430.72 247.424 Q2434.17 247.424 2436.16 245.225 Q2438.18 243.026 2438.18 239.229 L2438.18 224.531 L2442.44 224.531 L2442.44 250.456 L2438.18 250.456 L2438.18 246.475 Q2436.63 248.836 2434.57 249.993 Q2432.53 251.128 2429.82 251.128 Q2425.35 251.128 2423.04 248.35 Q2420.72 245.572 2420.72 240.225 M2431.44 223.906 L2431.44 223.906 Z" fill="#000000" fill-rule="nonzero" fill-opacity="1" /><path clip-path="url(#clip360)" d="M2466.23 228.512 Q2465.51 228.095 2464.66 227.91 Q2463.82 227.702 2462.81 227.702 Q2459.19 227.702 2457.25 230.063 Q2455.33 232.401 2455.33 236.799 L2455.33 250.456 L2451.05 250.456 L2451.05 224.531 L2455.33 224.531 L2455.33 228.558 Q2456.67 226.197 2458.82 225.063 Q2460.98 223.906 2464.06 223.906 Q2464.5 223.906 2465.03 223.975 Q2465.56 224.021 2466.21 224.137 L2466.23 228.512 Z" fill="#000000" fill-rule="nonzero" fill-opacity="1" /><path clip-path="url(#clip360)" d="M2491.83 236.429 L2491.83 238.512 L2472.25 238.512 Q2472.53 242.91 2474.89 245.225 Q2477.27 247.516 2481.51 247.516 Q2483.96 247.516 2486.25 246.915 Q2488.57 246.313 2490.84 245.109 L2490.84 249.137 Q2488.55 250.109 2486.14 250.618 Q2483.73 251.128 2481.25 251.128 Q2475.05 251.128 2471.42 247.516 Q2467.81 243.905 2467.81 237.748 Q2467.81 231.382 2471.23 227.655 Q2474.68 223.906 2480.51 223.906 Q2485.75 223.906 2488.78 227.285 Q2491.83 230.642 2491.83 236.429 M2487.57 235.179 Q2487.53 231.683 2485.61 229.6 Q2483.71 227.517 2480.56 227.517 Q2477 227.517 2474.84 229.53 Q2472.71 231.544 2472.39 235.202 L2487.57 235.179 Z" fill="#000000" fill-rule="nonzero" fill-opacity="1" /><path clip-path="url(#clip360)" d="M2524.5 218.975 Q2520.88 218.975 2519.06 222.54 Q2517.25 226.081 2517.25 233.211 Q2517.25 240.317 2519.06 243.882 Q2520.88 247.424 2524.5 247.424 Q2528.13 247.424 2529.94 243.882 Q2531.76 240.317 2531.76 233.211 Q2531.76 226.081 2529.94 222.54 Q2528.13 218.975 2524.5 218.975 M2524.5 215.271 Q2530.31 215.271 2533.36 219.878 Q2536.44 224.461 2536.44 233.211 Q2536.44 241.938 2533.36 246.544 Q2530.31 251.128 2524.5 251.128 Q2518.69 251.128 2515.61 246.544 Q2512.55 241.938 2512.55 233.211 Q2512.55 224.461 2515.61 219.878 Q2518.69 215.271 2524.5 215.271 Z" fill="#000000" fill-rule="nonzero" fill-opacity="1" /><circle clip-path="url(#clip360)" cx="2212.45" cy="285.016" r="20.48" fill="#e26f46" fill-rule="evenodd" fill-opacity="1" stroke="#000000" stroke-opacity="1" stroke-width="5.46133"/>
<path clip-path="url(#clip360)" d="M2335.68 289.032 Q2335.68 284.403 2333.76 281.857 Q2331.86 279.31 2328.41 279.31 Q2324.98 279.31 2323.06 281.857 Q2321.16 284.403 2321.16 289.032 Q2321.16 293.639 2323.06 296.185 Q2324.98 298.731 2328.41 298.731 Q2331.86 298.731 2333.76 296.185 Q2335.68 293.639 2335.68 289.032 M2339.94 299.079 Q2339.94 305.699 2337 308.917 Q2334.06 312.157 2327.99 312.157 Q2325.75 312.157 2323.76 311.81 Q2321.76 311.486 2319.89 310.792 L2319.89 306.648 Q2321.76 307.667 2323.59 308.153 Q2325.42 308.639 2327.32 308.639 Q2331.51 308.639 2333.59 306.44 Q2335.68 304.264 2335.68 299.843 L2335.68 297.736 Q2334.36 300.028 2332.3 301.162 Q2330.24 302.296 2327.37 302.296 Q2322.6 302.296 2319.68 298.662 Q2316.76 295.028 2316.76 289.032 Q2316.76 283.014 2319.68 279.38 Q2322.6 275.746 2327.37 275.746 Q2330.24 275.746 2332.3 276.88 Q2334.36 278.014 2335.68 280.306 L2335.68 276.371 L2339.94 276.371 L2339.94 299.079 Z" fill="#000000" fill-rule="nonzero" fill-opacity="1" /><path clip-path="url(#clip360)" d="M2370.88 288.269 L2370.88 290.352 L2351.3 290.352 Q2351.58 294.75 2353.94 297.065 Q2356.32 299.356 2360.56 299.356 Q2363.01 299.356 2365.31 298.755 Q2367.62 298.153 2369.89 296.949 L2369.89 300.977 Q2367.6 301.949 2365.19 302.458 Q2362.78 302.968 2360.31 302.968 Q2354.1 302.968 2350.47 299.356 Q2346.86 295.745 2346.86 289.588 Q2346.86 283.222 2350.28 279.495 Q2353.73 275.746 2359.57 275.746 Q2364.8 275.746 2367.83 279.125 Q2370.88 282.482 2370.88 288.269 M2366.63 287.019 Q2366.58 283.523 2364.66 281.44 Q2362.76 279.357 2359.61 279.357 Q2356.05 279.357 2353.89 281.37 Q2351.76 283.384 2351.44 287.042 L2366.63 287.019 Z" fill="#000000" fill-rule="nonzero" fill-opacity="1" /><path clip-path="url(#clip360)" d="M2394.4 277.134 L2394.4 281.162 Q2392.6 280.236 2390.65 279.773 Q2388.71 279.31 2386.63 279.31 Q2383.45 279.31 2381.86 280.283 Q2380.28 281.255 2380.28 283.199 Q2380.28 284.681 2381.42 285.537 Q2382.55 286.37 2385.98 287.134 L2387.44 287.458 Q2391.97 288.431 2393.87 290.213 Q2395.79 291.972 2395.79 295.144 Q2395.79 298.755 2392.92 300.861 Q2390.07 302.968 2385.07 302.968 Q2382.99 302.968 2380.72 302.551 Q2378.48 302.157 2375.98 301.347 L2375.98 296.949 Q2378.34 298.176 2380.63 298.801 Q2382.92 299.403 2385.17 299.403 Q2388.18 299.403 2389.8 298.384 Q2391.42 297.343 2391.42 295.468 Q2391.42 293.732 2390.24 292.806 Q2389.08 291.88 2385.12 291.023 L2383.64 290.676 Q2379.68 289.843 2377.92 288.13 Q2376.16 286.394 2376.16 283.384 Q2376.16 279.727 2378.76 277.736 Q2381.35 275.746 2386.12 275.746 Q2388.48 275.746 2390.56 276.093 Q2392.64 276.44 2394.4 277.134 Z" fill="#000000" fill-rule="nonzero" fill-opacity="1" /><path clip-path="url(#clip360)" d="M2406.79 269.009 L2406.79 276.371 L2415.56 276.371 L2415.56 279.681 L2406.79 279.681 L2406.79 293.755 Q2406.79 296.926 2407.64 297.829 Q2408.52 298.731 2411.19 298.731 L2415.56 298.731 L2415.56 302.296 L2411.19 302.296 Q2406.26 302.296 2404.38 300.468 Q2402.51 298.616 2402.51 293.755 L2402.51 279.681 L2399.38 279.681 L2399.38 276.371 L2402.51 276.371 L2402.51 269.009 L2406.79 269.009 Z" fill="#000000" fill-rule="nonzero" fill-opacity="1" /><path clip-path="url(#clip360)" d="M2420.72 292.065 L2420.72 276.371 L2424.98 276.371 L2424.98 291.903 Q2424.98 295.583 2426.42 297.435 Q2427.85 299.264 2430.72 299.264 Q2434.17 299.264 2436.16 297.065 Q2438.18 294.866 2438.18 291.069 L2438.18 276.371 L2442.44 276.371 L2442.44 302.296 L2438.18 302.296 L2438.18 298.315 Q2436.63 300.676 2434.57 301.833 Q2432.53 302.968 2429.82 302.968 Q2425.35 302.968 2423.04 300.19 Q2420.72 297.412 2420.72 292.065 M2431.44 275.746 L2431.44 275.746 Z" fill="#000000" fill-rule="nonzero" fill-opacity="1" /><path clip-path="url(#clip360)" d="M2466.23 280.352 Q2465.51 279.935 2464.66 279.75 Q2463.82 279.542 2462.81 279.542 Q2459.19 279.542 2457.25 281.903 Q2455.33 284.241 2455.33 288.639 L2455.33 302.296 L2451.05 302.296 L2451.05 276.371 L2455.33 276.371 L2455.33 280.398 Q2456.67 278.037 2458.82 276.903 Q2460.98 275.746 2464.06 275.746 Q2464.5 275.746 2465.03 275.815 Q2465.56 275.861 2466.21 275.977 L2466.23 280.352 Z" fill="#000000" fill-rule="nonzero" fill-opacity="1" /><path clip-path="url(#clip360)" d="M2491.83 288.269 L2491.83 290.352 L2472.25 290.352 Q2472.53 294.75 2474.89 297.065 Q2477.27 299.356 2481.51 299.356 Q2483.96 299.356 2486.25 298.755 Q2488.57 298.153 2490.84 296.949 L2490.84 300.977 Q2488.55 301.949 2486.14 302.458 Q2483.73 302.968 2481.25 302.968 Q2475.05 302.968 2471.42 299.356 Q2467.81 295.745 2467.81 289.588 Q2467.81 283.222 2471.23 279.495 Q2474.68 275.746 2480.51 275.746 Q2485.75 275.746 2488.78 279.125 Q2491.83 282.482 2491.83 288.269 M2487.57 287.019 Q2487.53 283.523 2485.61 281.44 Q2483.71 279.357 2480.56 279.357 Q2477 279.357 2474.84 281.37 Q2472.71 283.384 2472.39 287.042 L2487.57 287.019 Z" fill="#000000" fill-rule="nonzero" fill-opacity="1" /><path clip-path="url(#clip360)" d="M2515.31 298.361 L2522.94 298.361 L2522.94 271.996 L2514.63 273.662 L2514.63 269.403 L2522.9 267.736 L2527.57 267.736 L2527.57 298.361 L2535.21 298.361 L2535.21 302.296 L2515.31 302.296 L2515.31 298.361 Z" fill="#000000" fill-rule="nonzero" fill-opacity="1" /></svg>
