<?xml version="1.0" standalone="no"?>
<!DOCTYPE svg PUBLIC "-//W3C//DTD SVG 20010904//EN"
 "http://www.w3.org/TR/2001/REC-SVG-20010904/DTD/svg10.dtd">
<svg version="1.0" xmlns="http://www.w3.org/2000/svg"
 width="992.000000pt" height="992.000000pt" viewBox="0 0 992.000000 992.000000"
 preserveAspectRatio="xMidYMid meet">
<metadata>
Created by potrace 1.11, written by Peter Selinger 2001-2013
</metadata>
<g transform="translate(0.000000,992.000000) scale(0.100000,-0.100000)"
fill="#000000" stroke="none">
<path d="M4708 9635 c-2 -2 -50 -6 -108 -9 -58 -4 -118 -8 -135 -10 -16 -2
-57 -7 -90 -11 -33 -3 -71 -8 -85 -10 -14 -2 -45 -6 -70 -10 -419 -61 -857
-193 -1190 -360 -61 -30 -117 -55 -125 -55 -8 0 -18 -6 -22 -13 -4 -7 -51 -39
-103 -72 -372 -232 -625 -526 -724 -842 -100 -320 -34 -656 189 -959 77 -105
247 -272 367 -362 l97 -73 -118 -177 c-64 -97 -135 -206 -157 -242 -21 -36
-41 -67 -44 -70 -3 -3 -11 -16 -19 -30 -8 -14 -57 -99 -109 -190 -52 -91 -151
-276 -219 -412 -69 -137 -127 -248 -130 -248 -3 0 -34 13 -69 30 -133 61 -375
131 -512 147 -115 13 -300 8 -397 -12 -426 -85 -726 -397 -863 -895 -12 -41
-23 -91 -26 -110 -3 -19 -10 -62 -16 -95 -31 -180 -34 -572 -6 -756 3 -13 7
-46 11 -74 3 -27 9 -66 11 -85 8 -54 73 -343 91 -402 100 -336 181 -544 318
-824 274 -561 679 -1103 1091 -1459 38 -33 71 -62 74 -65 10 -11 147 -117 195
-152 187 -135 410 -260 585 -328 47 -18 94 -36 105 -41 30 -12 204 -57 255
-65 25 -4 56 -9 70 -12 64 -11 301 -9 375 4 424 74 727 360 877 829 10 33 21
71 24 85 3 14 10 43 16 65 6 22 12 55 14 73 2 18 5 41 8 50 6 20 18 115 20
157 2 30 2 30 56 29 30 -1 102 -4 160 -8 214 -15 271 -17 530 -18 236 -1 543
7 640 17 121 11 200 15 201 8 0 -4 2 -16 4 -25 2 -9 6 -43 9 -75 4 -46 30
-189 50 -278 1 -5 12 -41 24 -80 146 -464 455 -756 877 -829 77 -13 329 -15
385 -3 14 3 41 8 60 11 56 8 218 52 300 81 111 39 384 176 491 247 81 53 239
168 310 225 157 127 398 365 524 518 22 26 47 55 56 64 32 32 208 271 286 387
92 138 193 305 252 418 23 44 45 84 49 90 19 31 140 295 187 411 123 303 237
714 271 980 3 28 8 58 10 68 25 133 25 586 -1 732 -2 17 -7 44 -9 60 -35 233
-137 489 -266 666 -89 122 -260 267 -375 318 -180 80 -286 103 -480 105 -230
2 -467 -53 -712 -165 -23 -10 -44 -19 -47 -19 -3 0 -51 91 -106 203 -189 383
-328 622 -571 988 l-117 177 116 90 c374 289 572 627 581 988 10 417 -250 821
-729 1134 -58 38 -117 78 -132 89 -14 12 -31 21 -37 21 -6 0 -55 22 -108 49
-410 207 -953 355 -1453 396 -41 3 -86 9 -100 12 -26 6 -636 14 -642 8z
m-1588 -3013 c276 -124 621 -230 935 -286 17 -3 41 -8 55 -11 28 -5 91 -15
135 -21 17 -2 46 -6 65 -8 19 -3 60 -8 90 -11 30 -4 66 -8 80 -10 164 -25 715
-25 955 0 168 17 192 20 325 41 104 16 381 75 469 100 132 37 391 128 515 183
l135 58 46 -66 c110 -157 270 -409 370 -581 110 -190 173 -308 277 -518 l99
-203 -23 -19 c-13 -11 -26 -19 -29 -20 -3 0 -22 -12 -41 -27 -20 -16 -46 -35
-58 -43 -12 -8 -28 -20 -34 -25 -6 -6 -31 -26 -56 -45 -25 -19 -47 -37 -50
-41 -3 -3 -32 -29 -65 -56 -108 -89 -343 -328 -450 -457 -22 -27 -44 -54 -50
-60 -5 -6 -22 -27 -37 -48 -15 -20 -33 -42 -41 -50 -36 -37 -182 -249 -303
-438 -119 -187 -267 -477 -379 -745 -51 -123 -116 -312 -174 -510 -32 -111
-78 -325 -96 -450 -2 -11 -6 -38 -9 -60 -3 -22 -9 -67 -12 -100 -10 -105 -12
-120 -13 -126 0 -4 -43 -10 -93 -14 -51 -4 -111 -9 -133 -11 -253 -22 -883
-21 -1140 1 -22 2 -78 6 -124 9 -47 4 -86 8 -87 9 -3 3 -9 42 -19 142 -9 84
-44 303 -55 345 -5 19 -11 46 -14 60 -2 14 -9 44 -15 68 -6 23 -16 61 -22 85
-68 274 -201 621 -359 932 -94 184 -111 215 -218 387 -297 476 -661 884 -1071
1196 -51 40 -96 72 -100 72 -3 1 -17 9 -29 20 l-24 20 111 222 c122 246 211
412 229 430 7 7 12 15 12 20 0 20 240 404 379 605 51 75 66 91 79 84 10 -5 37
-18 62 -29z"/>
</g>
</svg>
