<?xml version="1.0" standalone="no"?>
<!DOCTYPE svg PUBLIC "-//W3C//DTD SVG 20010904//EN"
 "http://www.w3.org/TR/2001/REC-SVG-20010904/DTD/svg10.dtd">
<svg version="1.0" xmlns="http://www.w3.org/2000/svg"
 width="1000.000000pt" height="1000.000000pt" viewBox="0 0 1000.000000 1000.000000"
 preserveAspectRatio="xMidYMid meet">
<metadata>
Created by potrace 1.11, written by Peter Selinger 2001-2013
</metadata>
<g transform="translate(0.000000,1000.000000) scale(0.100000,-0.100000)"
fill="#000000" stroke="none">
<path d="M4748 9714 c-2 -1 -41 -5 -88 -8 -168 -11 -299 -23 -330 -31 -8 -2
-39 -7 -69 -10 -30 -4 -62 -9 -73 -11 -10 -2 -28 -6 -40 -9 -13 -3 -39 -7 -58
-10 -75 -10 -283 -56 -290 -64 -3 -3 -12 -7 -20 -7 -43 -4 -179 -41 -245 -67
-16 -7 -32 -12 -35 -13 -30 -4 -88 -29 -84 -35 3 -5 -1 -6 -8 -4 -20 8 -319
-117 -326 -136 -2 -5 -8 -7 -12 -4 -12 7 -280 -144 -280 -158 0 -6 -3 -8 -6
-4 -10 10 -95 -53 -88 -65 4 -6 2 -8 -4 -4 -12 7 -84 -38 -75 -48 4 -3 0 -6
-7 -6 -31 0 -256 -213 -244 -231 4 -7 3 -9 -3 -6 -11 7 -93 -84 -93 -102 0 -6
-4 -11 -9 -11 -13 0 -84 -114 -129 -208 -72 -148 -105 -292 -103 -457 1 -100
2 -110 15 -175 4 -19 8 -42 10 -50 7 -42 30 -99 37 -94 5 3 6 -2 3 -10 -5 -12
19 -79 45 -127 5 -8 21 -38 36 -67 14 -28 33 -56 41 -63 8 -6 14 -18 14 -26 0
-7 7 -16 15 -19 8 -4 15 -13 15 -20 0 -8 7 -17 15 -20 8 -4 15 -10 15 -15 0
-14 28 -46 125 -144 77 -78 114 -111 205 -182 8 -7 25 -20 37 -30 l22 -18
-115 -170 c-128 -190 -292 -459 -409 -670 -71 -128 -265 -511 -276 -544 -4
-11 -9 -11 -24 -3 -36 21 -139 60 -225 86 -270 80 -531 93 -750 36 -41 -11
-83 -22 -94 -25 -10 -2 -23 -8 -30 -13 -6 -5 -31 -17 -56 -26 -41 -16 -148
-81 -203 -124 -40 -31 -169 -165 -193 -201 -13 -20 -35 -53 -49 -74 -14 -21
-23 -43 -19 -50 4 -7 4 -9 -1 -5 -12 11 -38 -29 -29 -45 4 -6 4 -9 -1 -5 -13
13 -93 -172 -122 -282 -64 -247 -76 -350 -77 -625 0 -255 18 -445 65 -655 12
-56 19 -88 25 -120 3 -14 8 -34 11 -45 4 -11 8 -27 9 -35 4 -21 12 -54 14 -57
3 -4 5 -12 14 -55 5 -21 12 -38 18 -38 5 0 7 -4 4 -9 -5 -7 50 -194 70 -241 4
-8 8 -19 10 -25 21 -70 70 -182 77 -178 6 3 7 1 3 -5 -13 -22 218 -507 237
-495 5 3 7 1 4 -5 -9 -14 34 -93 46 -85 6 4 7 1 2 -6 -4 -8 1 -25 14 -42 11
-15 21 -30 21 -33 0 -9 85 -141 92 -144 5 -2 8 -8 8 -13 0 -11 81 -133 92
-137 5 -2 8 -8 8 -12 0 -13 197 -275 272 -361 36 -41 75 -86 88 -101 13 -15
28 -25 33 -21 6 3 7 2 4 -4 -7 -11 111 -139 125 -135 5 1 7 -2 4 -7 -8 -12 18
-33 29 -23 5 4 5 2 2 -4 -3 -6 22 -35 55 -65 34 -30 68 -62 77 -71 8 -9 18
-15 23 -12 4 3 8 -2 8 -10 0 -9 4 -16 8 -16 5 0 27 -17 50 -38 53 -48 112 -96
126 -101 6 -2 16 -11 22 -19 6 -8 16 -12 23 -8 6 4 10 3 9 -3 -3 -12 86 -81
132 -103 14 -7 28 -16 31 -21 4 -5 16 -14 27 -20 12 -7 65 -38 119 -69 105
-61 228 -120 343 -163 128 -49 264 -84 390 -101 64 -9 315 -11 351 -3 20 5 52
10 71 13 118 14 323 109 438 201 68 55 151 145 144 156 -4 7 -3 9 3 6 6 -4 23
10 39 31 40 51 66 92 57 92 -4 0 0 6 9 12 24 19 103 181 128 263 12 39 29 87
37 107 9 20 13 44 10 52 -4 9 -3 16 2 16 5 0 12 19 16 42 4 24 9 48 10 53 4
15 17 94 24 150 l6 49 45 -3 c25 -1 61 -4 80 -6 290 -26 1132 -27 1356 0 16 2
52 5 79 6 l50 3 6 -49 c4 -28 10 -68 14 -90 4 -22 8 -49 10 -60 1 -11 4 -20 5
-20 1 0 4 -9 5 -20 3 -20 9 -50 20 -95 3 -14 7 -30 9 -37 1 -7 5 -16 9 -19 4
-4 7 -14 7 -21 0 -20 46 -134 87 -218 56 -111 58 -115 66 -115 4 0 7 -7 7 -15
0 -8 5 -15 10 -15 6 0 10 -5 10 -11 0 -32 224 -263 247 -255 7 3 12 0 10 -6
-3 -18 168 -114 257 -144 146 -48 216 -59 396 -58 154 0 205 8 407 58 113 28
443 168 443 188 0 4 3 7 8 6 16 -4 81 36 75 46 -3 6 -3 8 2 4 10 -9 29 1 133
69 49 32 80 58 76 65 -4 7 -3 8 4 4 9 -6 61 22 82 44 3 3 25 21 50 40 25 19
47 37 50 40 3 4 14 13 26 21 22 14 138 117 206 180 21 20 35 39 30 44 -4 5 -2
6 4 2 9 -5 174 153 174 167 0 6 38 47 111 121 16 17 29 33 29 37 0 4 20 29 45
55 24 26 45 52 45 56 0 4 14 22 30 40 17 18 33 40 36 50 3 9 10 17 15 17 5 0
9 7 9 15 0 8 4 15 9 15 5 0 24 24 42 53 19 28 41 60 49 69 20 22 206 323 262
423 72 131 159 311 161 333 0 11 4 19 8 17 13 -9 215 509 233 600 1 6 8 27 15
48 7 21 10 45 6 55 -3 9 -3 13 1 9 7 -7 26 51 39 118 3 17 8 38 11 47 6 20 8
28 34 160 11 59 20 110 19 115 -1 4 0 10 1 13 6 15 17 105 28 215 13 145 5
553 -12 606 -3 8 -7 35 -10 61 -3 26 -9 56 -15 66 -6 11 -8 22 -5 24 14 15
-73 272 -134 394 -54 110 -128 221 -144 216 -5 -1 -7 2 -4 7 5 8 -123 144
-166 177 -61 47 -129 85 -139 78 -8 -4 -10 -3 -5 5 5 7 -9 19 -41 32 -26 11
-61 27 -78 34 -30 13 -100 34 -144 42 -14 2 -28 6 -31 8 -12 8 -143 18 -230
19 -102 1 -199 -9 -294 -30 -39 -8 -80 -17 -91 -19 -51 -11 -135 -41 -135 -48
0 -5 -4 -6 -9 -3 -5 4 -46 -9 -90 -28 -45 -19 -83 -31 -86 -26 -2 4 -49 97
-103 206 -186 373 -359 671 -593 1021 l-109 163 28 17 c15 9 32 21 37 27 6 6
42 36 80 68 39 31 104 93 145 137 93 100 100 109 100 117 0 4 8 14 18 23 28
26 73 101 67 112 -4 5 -1 8 5 7 12 -3 99 156 100 183 0 8 4 19 9 25 11 10 25
60 46 164 17 84 21 142 10 159 -5 9 -4 12 2 8 11 -7 8 89 -4 153 -3 19 -7 42
-8 50 -7 44 -17 85 -31 128 -24 70 -96 222 -105 222 -5 0 -8 3 -7 8 4 15 -44
82 -55 75 -5 -3 -7 -1 -4 4 7 10 -32 70 -82 128 -63 71 -194 194 -202 189 -5
-3 -8 -1 -7 4 4 12 -132 123 -143 117 -4 -3 -9 1 -12 8 -5 15 -180 127 -197
127 -6 0 -10 5 -10 10 0 6 -5 10 -11 10 -6 0 -24 9 -40 21 -16 11 -29 17 -29
14 0 -4 -15 2 -32 13 -63 39 -108 62 -108 56 0 -4 -11 1 -25 10 -14 9 -31 14
-37 10 -6 -4 -8 -3 -5 2 3 6 -33 25 -81 43 -48 18 -100 39 -117 46 -73 32
-287 96 -301 91 -8 -3 -12 -2 -9 4 3 6 -3 10 -15 10 -11 0 -28 4 -38 9 -9 6
-80 23 -157 40 -244 53 -384 76 -467 76 -25 0 -44 3 -41 8 2 4 -11 7 -29 8
-18 0 -51 2 -73 4 -142 14 -219 17 -462 20 -150 1 -274 1 -275 -1z m-1538
-868 c0 -3 -4 -8 -10 -11 -5 -3 -10 -1 -10 4 0 6 5 11 10 11 6 0 10 -2 10 -4z
m4714 -1012 c3 -8 2 -12 -4 -9 -6 3 -10 10 -10 16 0 14 7 11 14 -7z m-3119
-82 c-3 -3 -11 0 -18 7 -9 10 -8 11 6 5 10 -3 15 -9 12 -12z m2885 -72 c0 -5
-5 -10 -11 -10 -5 0 -7 5 -4 10 3 6 8 10 11 10 2 0 4 -4 4 -10z m-3275 -240
c-3 -5 -12 -10 -18 -10 -7 0 -6 4 3 10 19 12 23 12 15 0z m-1251 -761 c-3 -6
12 -16 36 -24 3 -1 19 -7 35 -14 109 -46 394 -145 447 -156 9 -2 50 -13 90
-24 40 -11 84 -22 98 -25 14 -2 46 -9 73 -15 26 -6 64 -14 85 -17 47 -8 67
-12 67 -14 0 -2 25 -6 80 -14 22 -3 49 -7 60 -9 43 -9 104 -18 146 -22 24 -2
69 -6 99 -9 182 -20 288 -25 528 -26 153 -1 208 2 220 12 11 9 14 9 9 1 -9
-15 44 -13 55 2 5 6 8 5 8 -3 0 -7 3 -11 8 -8 4 2 41 7 82 10 150 12 206 17
230 23 14 3 39 6 55 8 81 6 155 18 151 23 -2 4 12 7 32 6 21 0 51 4 67 8 17 5
47 11 68 14 21 3 49 9 63 14 13 5 24 8 24 5 0 -2 15 1 33 6 33 10 54 16 85 23
9 2 44 11 77 20 33 9 69 19 79 21 29 7 239 77 251 84 6 3 19 7 30 8 10 2 23 9
27 16 4 6 8 9 8 5 0 -4 47 13 103 37 l104 43 150 -227 c220 -330 344 -545 533
-925 l119 -239 -42 -30 c-23 -17 -43 -34 -45 -39 -2 -4 -9 -8 -15 -8 -7 0 -28
-15 -49 -33 -20 -17 -53 -45 -74 -62 -40 -31 -110 -92 -155 -135 -110 -102
-129 -122 -129 -130 0 -6 -7 -10 -15 -10 -8 0 -15 -3 -15 -8 0 -4 -33 -41 -72
-82 -40 -41 -91 -97 -113 -125 -22 -27 -57 -67 -77 -89 -21 -23 -38 -44 -38
-48 0 -4 -8 -14 -17 -24 -17 -17 -101 -127 -133 -174 -8 -12 -20 -28 -25 -34
-22 -24 -95 -136 -95 -146 0 -5 -4 -10 -8 -10 -5 0 -15 -12 -23 -27 -7 -16
-23 -41 -35 -58 -49 -67 -145 -246 -138 -257 4 -6 3 -8 -3 -5 -5 3 -24 -21
-42 -53 -17 -33 -28 -60 -24 -60 4 0 3 -4 -4 -8 -42 -27 -322 -707 -319 -775
1 -14 -1 -24 -5 -22 -9 6 -41 -103 -34 -115 3 -6 2 -10 -3 -10 -12 0 -45 -147
-36 -161 4 -7 3 -9 -3 -6 -8 5 -38 -115 -48 -198 -2 -16 -4 -30 -5 -30 -1 0
-3 -9 -4 -20 -2 -11 -6 -38 -9 -60 -3 -22 -9 -65 -12 -95 -8 -74 -10 -89 -16
-94 -2 -3 -38 -8 -79 -11 -41 -4 -93 -8 -115 -10 -311 -29 -1175 -22 -1345 11
-8 1 -26 3 -40 3 -23 1 -26 6 -28 38 -3 44 -9 91 -23 183 -17 103 -20 121 -35
195 -8 39 -17 84 -20 100 -3 17 -14 59 -24 95 -11 36 -21 74 -23 85 -2 11 -6
27 -9 35 -8 20 -42 133 -44 145 -4 19 -80 226 -100 272 -8 17 -14 34 -14 37 0
3 -8 25 -19 49 -10 23 -31 71 -46 107 -15 36 -33 68 -39 72 -6 4 -8 8 -4 8 6
0 -38 97 -72 160 -5 8 -31 58 -58 110 -49 94 -148 260 -161 270 -3 3 -7 11 -9
19 -2 11 -103 166 -135 206 -4 6 -42 57 -84 115 -42 58 -88 119 -102 136 -14
17 -40 49 -58 70 -57 71 -70 84 -78 76 -5 -4 -5 -2 -2 4 3 6 -21 39 -55 75
-33 35 -75 81 -94 102 -20 21 -40 35 -46 31 -6 -4 -8 -3 -5 3 9 14 -143 163
-273 267 -25 20 -52 42 -60 49 -8 8 -33 27 -55 43 -22 16 -42 32 -45 35 -3 3
-22 17 -43 31 l-37 25 119 239 c65 131 144 283 175 338 31 54 56 100 56 102 0
18 371 600 430 674 16 20 37 36 48 36 11 0 19 -3 16 -7z m251 -39 c3 -6 -1 -7
-9 -4 -18 7 -21 14 -7 14 6 0 13 -4 16 -10z m4159 -1758 c3 -5 -1 -9 -9 -9 -8
0 -12 4 -9 9 3 4 7 8 9 8 2 0 6 -4 9 -8z m-6604 -276 c0 -3 -4 -8 -10 -11 -5
-3 -10 -1 -10 4 0 6 5 11 10 11 6 0 10 -2 10 -4z m2233 -441 c-3 -9 -8 -14
-10 -11 -3 3 -2 9 2 15 9 16 15 13 8 -4z m-956 -280 c0 -8 -4 -12 -9 -9 -5 3
-6 10 -3 15 9 13 12 11 12 -6z m4800 -840 c0 -8 -4 -12 -9 -9 -5 3 -6 10 -3
15 9 13 12 11 12 -6z m-6522 -93 c-3 -3 -11 0 -18 7 -9 10 -8 11 6 5 10 -3 15
-9 12 -12z m2679 -78 c3 -8 2 -12 -4 -9 -6 3 -10 10 -10 16 0 14 7 11 14 -7z
m483 -1839 c0 -8 -4 -12 -9 -9 -5 3 -6 10 -3 15 9 13 12 11 12 -6z"/>
</g>
</svg>
