<?xml version="1.0" encoding="utf-8"?>
<svg xmlns="http://www.w3.org/2000/svg" xmlns:xlink="http://www.w3.org/1999/xlink" width="672" height="480" viewBox="0 0 2688 1920">
<defs>
  <clipPath id="clip010">
    <rect x="0" y="0" width="2688" height="1920"/>
  </clipPath>
</defs>
<path clip-path="url(#clip010)" d="M0 1920 L2688 1920 L2688 0 L0 0  Z" fill="#ffffff" fill-rule="evenodd" fill-opacity="1"/>
<defs>
  <clipPath id="clip011">
    <rect x="537" y="0" width="1883" height="1883"/>
  </clipPath>
</defs>
<path clip-path="url(#clip010)" d="M292.645 1734.12 L2640.76 1734.12 L2640.76 127.792 L292.645 127.792  Z" fill="#ffffff" fill-rule="evenodd" fill-opacity="1"/>
<defs>
  <clipPath id="clip012">
    <rect x="292" y="127" width="2349" height="1607"/>
  </clipPath>
</defs>
<polyline clip-path="url(#clip012)" style="stroke:#000000; stroke-linecap:round; stroke-linejoin:round; stroke-width:2; stroke-opacity:0.1; fill:none" points="680.569,1734.12 680.569,127.792 "/>
<polyline clip-path="url(#clip012)" style="stroke:#000000; stroke-linecap:round; stroke-linejoin:round; stroke-width:2; stroke-opacity:0.1; fill:none" points="1202.3,1734.12 1202.3,127.792 "/>
<polyline clip-path="url(#clip012)" style="stroke:#000000; stroke-linecap:round; stroke-linejoin:round; stroke-width:2; stroke-opacity:0.1; fill:none" points="1724.03,1734.12 1724.03,127.792 "/>
<polyline clip-path="url(#clip012)" style="stroke:#000000; stroke-linecap:round; stroke-linejoin:round; stroke-width:2; stroke-opacity:0.1; fill:none" points="2245.76,1734.12 2245.76,127.792 "/>
<polyline clip-path="url(#clip012)" style="stroke:#000000; stroke-linecap:round; stroke-linejoin:round; stroke-width:2; stroke-opacity:0.1; fill:none" points="292.645,1467.35 2640.76,1467.35 "/>
<polyline clip-path="url(#clip012)" style="stroke:#000000; stroke-linecap:round; stroke-linejoin:round; stroke-width:2; stroke-opacity:0.1; fill:none" points="292.645,1100.9 2640.76,1100.9 "/>
<polyline clip-path="url(#clip012)" style="stroke:#000000; stroke-linecap:round; stroke-linejoin:round; stroke-width:2; stroke-opacity:0.1; fill:none" points="292.645,734.443 2640.76,734.443 "/>
<polyline clip-path="url(#clip012)" style="stroke:#000000; stroke-linecap:round; stroke-linejoin:round; stroke-width:2; stroke-opacity:0.1; fill:none" points="292.645,367.988 2640.76,367.988 "/>
<polyline clip-path="url(#clip010)" style="stroke:#000000; stroke-linecap:round; stroke-linejoin:round; stroke-width:4; stroke-opacity:1; fill:none" points="292.645,1734.12 2640.76,1734.12 "/>
<polyline clip-path="url(#clip010)" style="stroke:#000000; stroke-linecap:round; stroke-linejoin:round; stroke-width:4; stroke-opacity:1; fill:none" points="680.569,1734.12 680.569,1715.22 "/>
<polyline clip-path="url(#clip010)" style="stroke:#000000; stroke-linecap:round; stroke-linejoin:round; stroke-width:4; stroke-opacity:1; fill:none" points="1202.3,1734.12 1202.3,1715.22 "/>
<polyline clip-path="url(#clip010)" style="stroke:#000000; stroke-linecap:round; stroke-linejoin:round; stroke-width:4; stroke-opacity:1; fill:none" points="1724.03,1734.12 1724.03,1715.22 "/>
<polyline clip-path="url(#clip010)" style="stroke:#000000; stroke-linecap:round; stroke-linejoin:round; stroke-width:4; stroke-opacity:1; fill:none" points="2245.76,1734.12 2245.76,1715.22 "/>
<path clip-path="url(#clip010)" d="M627.896 1781.99 L657.572 1781.99 L657.572 1785.93 L627.896 1785.93 L627.896 1781.99 Z" fill="#000000" fill-rule="nonzero" fill-opacity="1" /><path clip-path="url(#clip010)" d="M677.664 1767.34 Q674.053 1767.34 672.224 1770.9 Q670.419 1774.45 670.419 1781.58 Q670.419 1788.68 672.224 1792.25 Q674.053 1795.79 677.664 1795.79 Q681.298 1795.79 683.104 1792.25 Q684.933 1788.68 684.933 1781.58 Q684.933 1774.45 683.104 1770.9 Q681.298 1767.34 677.664 1767.34 M677.664 1763.64 Q683.474 1763.64 686.53 1768.24 Q689.609 1772.83 689.609 1781.58 Q689.609 1790.3 686.53 1794.91 Q683.474 1799.49 677.664 1799.49 Q671.854 1799.49 668.775 1794.91 Q665.72 1790.3 665.72 1781.58 Q665.72 1772.83 668.775 1768.24 Q671.854 1763.64 677.664 1763.64 Z" fill="#000000" fill-rule="nonzero" fill-opacity="1" /><path clip-path="url(#clip010)" d="M697.826 1792.94 L702.71 1792.94 L702.71 1798.82 L697.826 1798.82 L697.826 1792.94 Z" fill="#000000" fill-rule="nonzero" fill-opacity="1" /><path clip-path="url(#clip010)" d="M716.923 1794.89 L733.243 1794.89 L733.243 1798.82 L711.298 1798.82 L711.298 1794.89 Q713.96 1792.13 718.544 1787.5 Q723.15 1782.85 724.331 1781.51 Q726.576 1778.98 727.456 1777.25 Q728.358 1775.49 728.358 1773.8 Q728.358 1771.04 726.414 1769.31 Q724.493 1767.57 721.391 1767.57 Q719.192 1767.57 716.738 1768.34 Q714.308 1769.1 711.53 1770.65 L711.53 1765.93 Q714.354 1764.79 716.808 1764.21 Q719.261 1763.64 721.298 1763.64 Q726.669 1763.64 729.863 1766.32 Q733.057 1769.01 733.057 1773.5 Q733.057 1775.63 732.247 1777.55 Q731.46 1779.45 729.354 1782.04 Q728.775 1782.71 725.673 1785.93 Q722.571 1789.12 716.923 1794.89 Z" fill="#000000" fill-rule="nonzero" fill-opacity="1" /><path clip-path="url(#clip010)" d="M1179.68 1767.34 Q1176.07 1767.34 1174.24 1770.9 Q1172.44 1774.45 1172.44 1781.58 Q1172.44 1788.68 1174.24 1792.25 Q1176.07 1795.79 1179.68 1795.79 Q1183.32 1795.79 1185.12 1792.25 Q1186.95 1788.68 1186.95 1781.58 Q1186.95 1774.45 1185.12 1770.9 Q1183.32 1767.34 1179.68 1767.34 M1179.68 1763.64 Q1185.49 1763.64 1188.55 1768.24 Q1191.63 1772.83 1191.63 1781.58 Q1191.63 1790.3 1188.55 1794.91 Q1185.49 1799.49 1179.68 1799.49 Q1173.87 1799.49 1170.8 1794.91 Q1167.74 1790.3 1167.74 1781.58 Q1167.74 1772.83 1170.8 1768.24 Q1173.87 1763.64 1179.68 1763.64 Z" fill="#000000" fill-rule="nonzero" fill-opacity="1" /><path clip-path="url(#clip010)" d="M1199.85 1792.94 L1204.73 1792.94 L1204.73 1798.82 L1199.85 1798.82 L1199.85 1792.94 Z" fill="#000000" fill-rule="nonzero" fill-opacity="1" /><path clip-path="url(#clip010)" d="M1224.92 1767.34 Q1221.3 1767.34 1219.48 1770.9 Q1217.67 1774.45 1217.67 1781.58 Q1217.67 1788.68 1219.48 1792.25 Q1221.3 1795.79 1224.92 1795.79 Q1228.55 1795.79 1230.36 1792.25 Q1232.18 1788.68 1232.18 1781.58 Q1232.18 1774.45 1230.36 1770.9 Q1228.55 1767.34 1224.92 1767.34 M1224.92 1763.64 Q1230.73 1763.64 1233.78 1768.24 Q1236.86 1772.83 1236.86 1781.58 Q1236.86 1790.3 1233.78 1794.91 Q1230.73 1799.49 1224.92 1799.49 Q1219.11 1799.49 1216.03 1794.91 Q1212.97 1790.3 1212.97 1781.58 Q1212.97 1772.83 1216.03 1768.24 Q1219.11 1763.64 1224.92 1763.64 Z" fill="#000000" fill-rule="nonzero" fill-opacity="1" /><path clip-path="url(#clip010)" d="M1702.21 1767.34 Q1698.6 1767.34 1696.77 1770.9 Q1694.97 1774.45 1694.97 1781.58 Q1694.97 1788.68 1696.77 1792.25 Q1698.6 1795.79 1702.21 1795.79 Q1705.85 1795.79 1707.65 1792.25 Q1709.48 1788.68 1709.48 1781.58 Q1709.48 1774.45 1707.65 1770.9 Q1705.85 1767.34 1702.21 1767.34 M1702.21 1763.64 Q1708.02 1763.64 1711.08 1768.24 Q1714.16 1772.83 1714.16 1781.58 Q1714.16 1790.3 1711.08 1794.91 Q1708.02 1799.49 1702.21 1799.49 Q1696.4 1799.49 1693.32 1794.91 Q1690.27 1790.3 1690.27 1781.58 Q1690.27 1772.83 1693.32 1768.24 Q1696.4 1763.64 1702.21 1763.64 Z" fill="#000000" fill-rule="nonzero" fill-opacity="1" /><path clip-path="url(#clip010)" d="M1722.38 1792.94 L1727.26 1792.94 L1727.26 1798.82 L1722.38 1798.82 L1722.38 1792.94 Z" fill="#000000" fill-rule="nonzero" fill-opacity="1" /><path clip-path="url(#clip010)" d="M1741.47 1794.89 L1757.79 1794.89 L1757.79 1798.82 L1735.85 1798.82 L1735.85 1794.89 Q1738.51 1792.13 1743.09 1787.5 Q1747.7 1782.85 1748.88 1781.51 Q1751.13 1778.98 1752 1777.25 Q1752.91 1775.49 1752.91 1773.8 Q1752.91 1771.04 1750.96 1769.31 Q1749.04 1767.57 1745.94 1767.57 Q1743.74 1767.57 1741.29 1768.34 Q1738.86 1769.1 1736.08 1770.65 L1736.08 1765.93 Q1738.9 1764.79 1741.36 1764.21 Q1743.81 1763.64 1745.85 1763.64 Q1751.22 1763.64 1754.41 1766.32 Q1757.61 1769.01 1757.61 1773.5 Q1757.61 1775.63 1756.8 1777.55 Q1756.01 1779.45 1753.9 1782.04 Q1753.32 1782.71 1750.22 1785.93 Q1747.12 1789.12 1741.47 1794.89 Z" fill="#000000" fill-rule="nonzero" fill-opacity="1" /><path clip-path="url(#clip010)" d="M2222.9 1767.34 Q2219.29 1767.34 2217.46 1770.9 Q2215.66 1774.45 2215.66 1781.58 Q2215.66 1788.68 2217.46 1792.25 Q2219.29 1795.79 2222.9 1795.79 Q2226.54 1795.79 2228.34 1792.25 Q2230.17 1788.68 2230.17 1781.58 Q2230.17 1774.45 2228.34 1770.9 Q2226.54 1767.34 2222.9 1767.34 M2222.9 1763.64 Q2228.71 1763.64 2231.77 1768.24 Q2234.85 1772.83 2234.85 1781.58 Q2234.85 1790.3 2231.77 1794.91 Q2228.71 1799.49 2222.9 1799.49 Q2217.09 1799.49 2214.01 1794.91 Q2210.96 1790.3 2210.96 1781.58 Q2210.96 1772.83 2214.01 1768.24 Q2217.09 1763.64 2222.9 1763.64 Z" fill="#000000" fill-rule="nonzero" fill-opacity="1" /><path clip-path="url(#clip010)" d="M2243.06 1792.94 L2247.95 1792.94 L2247.95 1798.82 L2243.06 1798.82 L2243.06 1792.94 Z" fill="#000000" fill-rule="nonzero" fill-opacity="1" /><path clip-path="url(#clip010)" d="M2270.98 1768.34 L2259.18 1786.78 L2270.98 1786.78 L2270.98 1768.34 M2269.75 1764.26 L2275.63 1764.26 L2275.63 1786.78 L2280.56 1786.78 L2280.56 1790.67 L2275.63 1790.67 L2275.63 1798.82 L2270.98 1798.82 L2270.98 1790.67 L2255.38 1790.67 L2255.38 1786.16 L2269.75 1764.26 Z" fill="#000000" fill-rule="nonzero" fill-opacity="1" /><path clip-path="url(#clip010)" d="M1112.23 1877.95 L1112.23 1896.86 L1106.34 1896.86 L1106.34 1847.65 L1112.23 1847.65 L1112.23 1853.06 Q1114.07 1849.88 1116.87 1848.35 Q1119.71 1846.79 1123.62 1846.79 Q1130.11 1846.79 1134.16 1851.95 Q1138.23 1857.11 1138.23 1865.51 Q1138.23 1873.91 1134.16 1879.07 Q1130.11 1884.22 1123.62 1884.22 Q1119.71 1884.22 1116.87 1882.7 Q1114.07 1881.14 1112.23 1877.95 M1132.15 1865.51 Q1132.15 1859.05 1129.48 1855.39 Q1126.84 1851.7 1122.19 1851.7 Q1117.54 1851.7 1114.87 1855.39 Q1112.23 1859.05 1112.23 1865.51 Q1112.23 1871.97 1114.87 1875.66 Q1117.54 1879.32 1122.19 1879.32 Q1126.84 1879.32 1129.48 1875.66 Q1132.15 1871.97 1132.15 1865.51 Z" fill="#000000" fill-rule="nonzero" fill-opacity="1" /><path clip-path="url(#clip010)" d="M1168.59 1853.13 Q1167.61 1852.55 1166.43 1852.3 Q1165.28 1852.01 1163.88 1852.01 Q1158.92 1852.01 1156.24 1855.26 Q1153.6 1858.47 1153.6 1864.52 L1153.6 1883.3 L1147.71 1883.3 L1147.71 1847.65 L1153.6 1847.65 L1153.6 1853.19 Q1155.45 1849.94 1158.41 1848.39 Q1161.37 1846.79 1165.6 1846.79 Q1166.21 1846.79 1166.94 1846.89 Q1167.67 1846.95 1168.56 1847.11 L1168.59 1853.13 Z" fill="#000000" fill-rule="nonzero" fill-opacity="1" /><path clip-path="url(#clip010)" d="M1174.74 1847.65 L1180.59 1847.65 L1180.59 1883.3 L1174.74 1883.3 L1174.74 1847.65 M1174.74 1833.78 L1180.59 1833.78 L1180.59 1841.19 L1174.74 1841.19 L1174.74 1833.78 Z" fill="#000000" fill-rule="nonzero" fill-opacity="1" /><path clip-path="url(#clip010)" d="M1222.48 1861.78 L1222.48 1883.3 L1216.62 1883.3 L1216.62 1861.98 Q1216.62 1856.92 1214.65 1854.4 Q1212.68 1851.89 1208.73 1851.89 Q1203.99 1851.89 1201.25 1854.91 Q1198.51 1857.93 1198.51 1863.15 L1198.51 1883.3 L1192.62 1883.3 L1192.62 1847.65 L1198.51 1847.65 L1198.51 1853.19 Q1200.61 1849.98 1203.45 1848.39 Q1206.31 1846.79 1210.04 1846.79 Q1216.18 1846.79 1219.33 1850.61 Q1222.48 1854.4 1222.48 1861.78 Z" fill="#000000" fill-rule="nonzero" fill-opacity="1" /><path clip-path="url(#clip010)" d="M1259.81 1849.02 L1259.81 1854.5 Q1257.33 1853.13 1254.82 1852.46 Q1252.34 1851.76 1249.79 1851.76 Q1244.09 1851.76 1240.94 1855.39 Q1237.79 1858.98 1237.79 1865.51 Q1237.79 1872.03 1240.94 1875.66 Q1244.09 1879.26 1249.79 1879.26 Q1252.34 1879.26 1254.82 1878.59 Q1257.33 1877.89 1259.81 1876.52 L1259.81 1881.93 Q1257.36 1883.08 1254.72 1883.65 Q1252.11 1884.22 1249.15 1884.22 Q1241.1 1884.22 1236.36 1879.16 Q1231.61 1874.1 1231.61 1865.51 Q1231.61 1856.79 1236.39 1851.79 Q1241.2 1846.79 1249.53 1846.79 Q1252.24 1846.79 1254.82 1847.37 Q1257.4 1847.91 1259.81 1849.02 Z" fill="#000000" fill-rule="nonzero" fill-opacity="1" /><path clip-path="url(#clip010)" d="M1270 1847.65 L1275.86 1847.65 L1275.86 1883.3 L1270 1883.3 L1270 1847.65 M1270 1833.78 L1275.86 1833.78 L1275.86 1841.19 L1270 1841.19 L1270 1833.78 Z" fill="#000000" fill-rule="nonzero" fill-opacity="1" /><path clip-path="url(#clip010)" d="M1293.78 1877.95 L1293.78 1896.86 L1287.89 1896.86 L1287.89 1847.65 L1293.78 1847.65 L1293.78 1853.06 Q1295.62 1849.88 1298.42 1848.35 Q1301.26 1846.79 1305.17 1846.79 Q1311.66 1846.79 1315.71 1851.95 Q1319.78 1857.11 1319.78 1865.51 Q1319.78 1873.91 1315.71 1879.07 Q1311.66 1884.22 1305.17 1884.22 Q1301.26 1884.22 1298.42 1882.7 Q1295.62 1881.14 1293.78 1877.95 M1313.7 1865.51 Q1313.7 1859.05 1311.03 1855.39 Q1308.39 1851.7 1303.74 1851.7 Q1299.09 1851.7 1296.42 1855.39 Q1293.78 1859.05 1293.78 1865.51 Q1293.78 1871.97 1296.42 1875.66 Q1299.09 1879.32 1303.74 1879.32 Q1308.39 1879.32 1311.03 1875.66 Q1313.7 1871.97 1313.7 1865.51 Z" fill="#000000" fill-rule="nonzero" fill-opacity="1" /><path clip-path="url(#clip010)" d="M1345.69 1865.38 Q1338.59 1865.38 1335.85 1867 Q1333.12 1868.63 1333.12 1872.54 Q1333.12 1875.66 1335.15 1877.51 Q1337.22 1879.32 1340.75 1879.32 Q1345.62 1879.32 1348.55 1875.88 Q1351.51 1872.42 1351.51 1866.69 L1351.51 1865.38 L1345.69 1865.38 M1357.37 1862.96 L1357.37 1883.3 L1351.51 1883.3 L1351.51 1877.89 Q1349.51 1881.14 1346.52 1882.7 Q1343.52 1884.22 1339.2 1884.22 Q1333.72 1884.22 1330.47 1881.17 Q1327.26 1878.08 1327.26 1872.92 Q1327.26 1866.91 1331.27 1863.85 Q1335.31 1860.8 1343.3 1860.8 L1351.51 1860.8 L1351.51 1860.23 Q1351.51 1856.18 1348.84 1853.99 Q1346.2 1851.76 1341.39 1851.76 Q1338.34 1851.76 1335.44 1852.49 Q1332.54 1853.22 1329.87 1854.69 L1329.87 1849.28 Q1333.08 1848.03 1336.11 1847.43 Q1339.13 1846.79 1342 1846.79 Q1349.73 1846.79 1353.55 1850.8 Q1357.37 1854.81 1357.37 1862.96 Z" fill="#000000" fill-rule="nonzero" fill-opacity="1" /><path clip-path="url(#clip010)" d="M1369.43 1833.78 L1375.29 1833.78 L1375.29 1883.3 L1369.43 1883.3 L1369.43 1833.78 Z" fill="#000000" fill-rule="nonzero" fill-opacity="1" /><path clip-path="url(#clip010)" d="M1433.92 1849.02 L1433.92 1854.5 Q1431.43 1853.13 1428.92 1852.46 Q1426.44 1851.76 1423.89 1851.76 Q1418.19 1851.76 1415.04 1855.39 Q1411.89 1858.98 1411.89 1865.51 Q1411.89 1872.03 1415.04 1875.66 Q1418.19 1879.26 1423.89 1879.26 Q1426.44 1879.26 1428.92 1878.59 Q1431.43 1877.89 1433.92 1876.52 L1433.92 1881.93 Q1431.47 1883.08 1428.82 1883.65 Q1426.21 1884.22 1423.25 1884.22 Q1415.2 1884.22 1410.46 1879.16 Q1405.72 1874.1 1405.72 1865.51 Q1405.72 1856.79 1410.49 1851.79 Q1415.3 1846.79 1423.64 1846.79 Q1426.34 1846.79 1428.92 1847.37 Q1431.5 1847.91 1433.92 1849.02 Z" fill="#000000" fill-rule="nonzero" fill-opacity="1" /><path clip-path="url(#clip010)" d="M1457.92 1851.76 Q1453.21 1851.76 1450.47 1855.45 Q1447.73 1859.11 1447.73 1865.51 Q1447.73 1871.91 1450.44 1875.6 Q1453.17 1879.26 1457.92 1879.26 Q1462.59 1879.26 1465.33 1875.57 Q1468.07 1871.87 1468.07 1865.51 Q1468.07 1859.17 1465.33 1855.48 Q1462.59 1851.76 1457.92 1851.76 M1457.92 1846.79 Q1465.55 1846.79 1469.92 1851.76 Q1474.28 1856.72 1474.28 1865.51 Q1474.28 1874.26 1469.92 1879.26 Q1465.55 1884.22 1457.92 1884.22 Q1450.25 1884.22 1445.88 1879.26 Q1441.56 1874.26 1441.56 1865.51 Q1441.56 1856.72 1445.88 1851.76 Q1450.25 1846.79 1457.92 1846.79 Z" fill="#000000" fill-rule="nonzero" fill-opacity="1" /><path clip-path="url(#clip010)" d="M1511.74 1854.5 Q1513.93 1850.55 1516.99 1848.67 Q1520.04 1846.79 1524.18 1846.79 Q1529.75 1846.79 1532.78 1850.71 Q1535.8 1854.59 1535.8 1861.78 L1535.8 1883.3 L1529.91 1883.3 L1529.91 1861.98 Q1529.91 1856.85 1528.1 1854.37 Q1526.28 1851.89 1522.56 1851.89 Q1518.01 1851.89 1515.37 1854.91 Q1512.72 1857.93 1512.72 1863.15 L1512.72 1883.3 L1506.84 1883.3 L1506.84 1861.98 Q1506.84 1856.82 1505.02 1854.37 Q1503.21 1851.89 1499.42 1851.89 Q1494.93 1851.89 1492.29 1854.94 Q1489.65 1857.97 1489.65 1863.15 L1489.65 1883.3 L1483.76 1883.3 L1483.76 1847.65 L1489.65 1847.65 L1489.65 1853.19 Q1491.65 1849.91 1494.45 1848.35 Q1497.26 1846.79 1501.11 1846.79 Q1504.99 1846.79 1507.7 1848.77 Q1510.43 1850.74 1511.74 1854.5 Z" fill="#000000" fill-rule="nonzero" fill-opacity="1" /><path clip-path="url(#clip010)" d="M1553.15 1877.95 L1553.15 1896.86 L1547.26 1896.86 L1547.26 1847.65 L1553.15 1847.65 L1553.15 1853.06 Q1554.99 1849.88 1557.79 1848.35 Q1560.63 1846.79 1564.54 1846.79 Q1571.03 1846.79 1575.08 1851.95 Q1579.15 1857.11 1579.15 1865.51 Q1579.15 1873.91 1575.08 1879.07 Q1571.03 1884.22 1564.54 1884.22 Q1560.63 1884.22 1557.79 1882.7 Q1554.99 1881.14 1553.15 1877.95 M1573.07 1865.51 Q1573.07 1859.05 1570.4 1855.39 Q1567.76 1851.7 1563.11 1851.7 Q1558.46 1851.7 1555.79 1855.39 Q1553.15 1859.05 1553.15 1865.51 Q1553.15 1871.97 1555.79 1875.66 Q1558.46 1879.32 1563.11 1879.32 Q1567.76 1879.32 1570.4 1875.66 Q1573.07 1871.97 1573.07 1865.51 Z" fill="#000000" fill-rule="nonzero" fill-opacity="1" /><path clip-path="url(#clip010)" d="M1602.67 1851.76 Q1597.96 1851.76 1595.22 1855.45 Q1592.49 1859.11 1592.49 1865.51 Q1592.49 1871.91 1595.19 1875.6 Q1597.93 1879.26 1602.67 1879.26 Q1607.35 1879.26 1610.09 1875.57 Q1612.83 1871.87 1612.83 1865.51 Q1612.83 1859.17 1610.09 1855.48 Q1607.35 1851.76 1602.67 1851.76 M1602.67 1846.79 Q1610.31 1846.79 1614.67 1851.76 Q1619.03 1856.72 1619.03 1865.51 Q1619.03 1874.26 1614.67 1879.26 Q1610.31 1884.22 1602.67 1884.22 Q1595 1884.22 1590.64 1879.26 Q1586.31 1874.26 1586.31 1865.51 Q1586.31 1856.72 1590.64 1851.76 Q1595 1846.79 1602.67 1846.79 Z" fill="#000000" fill-rule="nonzero" fill-opacity="1" /><path clip-path="url(#clip010)" d="M1658.37 1861.78 L1658.37 1883.3 L1652.52 1883.3 L1652.52 1861.98 Q1652.52 1856.92 1650.54 1854.4 Q1648.57 1851.89 1644.62 1851.89 Q1639.88 1851.89 1637.14 1854.91 Q1634.4 1857.93 1634.4 1863.15 L1634.4 1883.3 L1628.52 1883.3 L1628.52 1847.65 L1634.4 1847.65 L1634.4 1853.19 Q1636.51 1849.98 1639.34 1848.39 Q1642.2 1846.79 1645.93 1846.79 Q1652.07 1846.79 1655.22 1850.61 Q1658.37 1854.4 1658.37 1861.78 Z" fill="#000000" fill-rule="nonzero" fill-opacity="1" /><path clip-path="url(#clip010)" d="M1700.54 1864.01 L1700.54 1866.88 L1673.62 1866.88 Q1674 1872.92 1677.25 1876.11 Q1680.52 1879.26 1686.35 1879.26 Q1689.72 1879.26 1692.87 1878.43 Q1696.06 1877.6 1699.18 1875.95 L1699.18 1881.49 Q1696.02 1882.82 1692.71 1883.52 Q1689.4 1884.22 1686 1884.22 Q1677.47 1884.22 1672.47 1879.26 Q1667.51 1874.29 1667.51 1865.83 Q1667.51 1857.07 1672.22 1851.95 Q1676.96 1846.79 1684.98 1846.79 Q1692.17 1846.79 1696.34 1851.44 Q1700.54 1856.06 1700.54 1864.01 M1694.69 1862.29 Q1694.62 1857.49 1691.98 1854.62 Q1689.37 1851.76 1685.04 1851.76 Q1680.14 1851.76 1677.18 1854.53 Q1674.25 1857.3 1673.81 1862.33 L1694.69 1862.29 Z" fill="#000000" fill-rule="nonzero" fill-opacity="1" /><path clip-path="url(#clip010)" d="M1739.79 1861.78 L1739.79 1883.3 L1733.93 1883.3 L1733.93 1861.98 Q1733.93 1856.92 1731.96 1854.4 Q1729.99 1851.89 1726.04 1851.89 Q1721.3 1851.89 1718.56 1854.91 Q1715.82 1857.93 1715.82 1863.15 L1715.82 1883.3 L1709.93 1883.3 L1709.93 1847.65 L1715.82 1847.65 L1715.82 1853.19 Q1717.92 1849.98 1720.76 1848.39 Q1723.62 1846.79 1727.34 1846.79 Q1733.49 1846.79 1736.64 1850.61 Q1739.79 1854.4 1739.79 1861.78 Z" fill="#000000" fill-rule="nonzero" fill-opacity="1" /><path clip-path="url(#clip010)" d="M1757.26 1837.53 L1757.26 1847.65 L1769.33 1847.65 L1769.33 1852.2 L1757.26 1852.2 L1757.26 1871.56 Q1757.26 1875.92 1758.44 1877.16 Q1759.65 1878.4 1763.31 1878.4 L1769.33 1878.4 L1769.33 1883.3 L1763.31 1883.3 Q1756.53 1883.3 1753.95 1880.79 Q1751.37 1878.24 1751.37 1871.56 L1751.37 1852.2 L1747.08 1852.2 L1747.08 1847.65 L1751.37 1847.65 L1751.37 1837.53 L1757.26 1837.53 Z" fill="#000000" fill-rule="nonzero" fill-opacity="1" /><path clip-path="url(#clip010)" d="M1799.69 1877.89 L1810.19 1877.89 L1810.19 1841.64 L1798.77 1843.93 L1798.77 1838.07 L1810.13 1835.78 L1816.56 1835.78 L1816.56 1877.89 L1827.06 1877.89 L1827.06 1883.3 L1799.69 1883.3 L1799.69 1877.89 Z" fill="#000000" fill-rule="nonzero" fill-opacity="1" /><polyline clip-path="url(#clip010)" style="stroke:#000000; stroke-linecap:round; stroke-linejoin:round; stroke-width:4; stroke-opacity:1; fill:none" points="292.645,1734.12 292.645,127.792 "/>
<polyline clip-path="url(#clip010)" style="stroke:#000000; stroke-linecap:round; stroke-linejoin:round; stroke-width:4; stroke-opacity:1; fill:none" points="292.645,1467.35 311.542,1467.35 "/>
<polyline clip-path="url(#clip010)" style="stroke:#000000; stroke-linecap:round; stroke-linejoin:round; stroke-width:4; stroke-opacity:1; fill:none" points="292.645,1100.9 311.542,1100.9 "/>
<polyline clip-path="url(#clip010)" style="stroke:#000000; stroke-linecap:round; stroke-linejoin:round; stroke-width:4; stroke-opacity:1; fill:none" points="292.645,734.443 311.542,734.443 "/>
<polyline clip-path="url(#clip010)" style="stroke:#000000; stroke-linecap:round; stroke-linejoin:round; stroke-width:4; stroke-opacity:1; fill:none" points="292.645,367.988 311.542,367.988 "/>
<path clip-path="url(#clip010)" d="M116.214 1467.81 L145.89 1467.81 L145.89 1471.74 L116.214 1471.74 L116.214 1467.81 Z" fill="#000000" fill-rule="nonzero" fill-opacity="1" /><path clip-path="url(#clip010)" d="M165.983 1453.15 Q162.372 1453.15 160.543 1456.72 Q158.737 1460.26 158.737 1467.39 Q158.737 1474.49 160.543 1478.06 Q162.372 1481.6 165.983 1481.6 Q169.617 1481.6 171.422 1478.06 Q173.251 1474.49 173.251 1467.39 Q173.251 1460.26 171.422 1456.72 Q169.617 1453.15 165.983 1453.15 M165.983 1449.45 Q171.793 1449.45 174.848 1454.06 Q177.927 1458.64 177.927 1467.39 Q177.927 1476.12 174.848 1480.72 Q171.793 1485.3 165.983 1485.3 Q160.173 1485.3 157.094 1480.72 Q154.038 1476.12 154.038 1467.39 Q154.038 1458.64 157.094 1454.06 Q160.173 1449.45 165.983 1449.45 Z" fill="#000000" fill-rule="nonzero" fill-opacity="1" /><path clip-path="url(#clip010)" d="M186.145 1478.75 L191.029 1478.75 L191.029 1484.63 L186.145 1484.63 L186.145 1478.75 Z" fill="#000000" fill-rule="nonzero" fill-opacity="1" /><path clip-path="url(#clip010)" d="M205.242 1480.7 L221.561 1480.7 L221.561 1484.63 L199.617 1484.63 L199.617 1480.7 Q202.279 1477.94 206.862 1473.31 Q211.469 1468.66 212.649 1467.32 Q214.894 1464.8 215.774 1463.06 Q216.677 1461.3 216.677 1459.61 Q216.677 1456.86 214.732 1455.12 Q212.811 1453.38 209.709 1453.38 Q207.51 1453.38 205.057 1454.15 Q202.626 1454.91 199.848 1456.46 L199.848 1451.74 Q202.672 1450.61 205.126 1450.03 Q207.58 1449.45 209.617 1449.45 Q214.987 1449.45 218.181 1452.13 Q221.376 1454.82 221.376 1459.31 Q221.376 1461.44 220.566 1463.36 Q219.779 1465.26 217.672 1467.85 Q217.094 1468.52 213.992 1471.74 Q210.89 1474.93 205.242 1480.7 Z" fill="#000000" fill-rule="nonzero" fill-opacity="1" /><path clip-path="url(#clip010)" d="M231.422 1450.07 L249.779 1450.07 L249.779 1454.01 L235.705 1454.01 L235.705 1462.48 Q236.723 1462.13 237.742 1461.97 Q238.76 1461.79 239.779 1461.79 Q245.566 1461.79 248.945 1464.96 Q252.325 1468.13 252.325 1473.55 Q252.325 1479.12 248.853 1482.23 Q245.38 1485.3 239.061 1485.3 Q236.885 1485.3 234.617 1484.93 Q232.371 1484.56 229.964 1483.82 L229.964 1479.12 Q232.047 1480.26 234.269 1480.81 Q236.492 1481.37 238.968 1481.37 Q242.973 1481.37 245.311 1479.26 Q247.649 1477.16 247.649 1473.55 Q247.649 1469.93 245.311 1467.83 Q242.973 1465.72 238.968 1465.72 Q237.093 1465.72 235.218 1466.14 Q233.367 1466.56 231.422 1467.43 L231.422 1450.07 Z" fill="#000000" fill-rule="nonzero" fill-opacity="1" /><path clip-path="url(#clip010)" d="M164.987 1086.7 Q161.376 1086.7 159.548 1090.26 Q157.742 1093.8 157.742 1100.93 Q157.742 1108.04 159.548 1111.6 Q161.376 1115.15 164.987 1115.15 Q168.622 1115.15 170.427 1111.6 Q172.256 1108.04 172.256 1100.93 Q172.256 1093.8 170.427 1090.26 Q168.622 1086.7 164.987 1086.7 M164.987 1082.99 Q170.797 1082.99 173.853 1087.6 Q176.932 1092.18 176.932 1100.93 Q176.932 1109.66 173.853 1114.27 Q170.797 1118.85 164.987 1118.85 Q159.177 1118.85 156.098 1114.27 Q153.043 1109.66 153.043 1100.93 Q153.043 1092.18 156.098 1087.6 Q159.177 1082.99 164.987 1082.99 Z" fill="#000000" fill-rule="nonzero" fill-opacity="1" /><path clip-path="url(#clip010)" d="M185.149 1112.3 L190.033 1112.3 L190.033 1118.18 L185.149 1118.18 L185.149 1112.3 Z" fill="#000000" fill-rule="nonzero" fill-opacity="1" /><path clip-path="url(#clip010)" d="M210.219 1086.7 Q206.607 1086.7 204.779 1090.26 Q202.973 1093.8 202.973 1100.93 Q202.973 1108.04 204.779 1111.6 Q206.607 1115.15 210.219 1115.15 Q213.853 1115.15 215.658 1111.6 Q217.487 1108.04 217.487 1100.93 Q217.487 1093.8 215.658 1090.26 Q213.853 1086.7 210.219 1086.7 M210.219 1082.99 Q216.029 1082.99 219.084 1087.6 Q222.163 1092.18 222.163 1100.93 Q222.163 1109.66 219.084 1114.27 Q216.029 1118.85 210.219 1118.85 Q204.408 1118.85 201.33 1114.27 Q198.274 1109.66 198.274 1100.93 Q198.274 1092.18 201.33 1087.6 Q204.408 1082.99 210.219 1082.99 Z" fill="#000000" fill-rule="nonzero" fill-opacity="1" /><path clip-path="url(#clip010)" d="M240.38 1086.7 Q236.769 1086.7 234.941 1090.26 Q233.135 1093.8 233.135 1100.93 Q233.135 1108.04 234.941 1111.6 Q236.769 1115.15 240.38 1115.15 Q244.015 1115.15 245.82 1111.6 Q247.649 1108.04 247.649 1100.93 Q247.649 1093.8 245.82 1090.26 Q244.015 1086.7 240.38 1086.7 M240.38 1082.99 Q246.191 1082.99 249.246 1087.6 Q252.325 1092.18 252.325 1100.93 Q252.325 1109.66 249.246 1114.27 Q246.191 1118.85 240.38 1118.85 Q234.57 1118.85 231.492 1114.27 Q228.436 1109.66 228.436 1100.93 Q228.436 1092.18 231.492 1087.6 Q234.57 1082.99 240.38 1082.99 Z" fill="#000000" fill-rule="nonzero" fill-opacity="1" /><path clip-path="url(#clip010)" d="M165.983 720.242 Q162.372 720.242 160.543 723.807 Q158.737 727.348 158.737 734.478 Q158.737 741.584 160.543 745.149 Q162.372 748.691 165.983 748.691 Q169.617 748.691 171.422 745.149 Q173.251 741.584 173.251 734.478 Q173.251 727.348 171.422 723.807 Q169.617 720.242 165.983 720.242 M165.983 716.538 Q171.793 716.538 174.848 721.145 Q177.927 725.728 177.927 734.478 Q177.927 743.205 174.848 747.811 Q171.793 752.395 165.983 752.395 Q160.173 752.395 157.094 747.811 Q154.038 743.205 154.038 734.478 Q154.038 725.728 157.094 721.145 Q160.173 716.538 165.983 716.538 Z" fill="#000000" fill-rule="nonzero" fill-opacity="1" /><path clip-path="url(#clip010)" d="M186.145 745.844 L191.029 745.844 L191.029 751.723 L186.145 751.723 L186.145 745.844 Z" fill="#000000" fill-rule="nonzero" fill-opacity="1" /><path clip-path="url(#clip010)" d="M205.242 747.788 L221.561 747.788 L221.561 751.723 L199.617 751.723 L199.617 747.788 Q202.279 745.034 206.862 740.404 Q211.469 735.751 212.649 734.409 Q214.894 731.885 215.774 730.149 Q216.677 728.39 216.677 726.7 Q216.677 723.946 214.732 722.21 Q212.811 720.473 209.709 720.473 Q207.51 720.473 205.057 721.237 Q202.626 722.001 199.848 723.552 L199.848 718.83 Q202.672 717.696 205.126 717.117 Q207.58 716.538 209.617 716.538 Q214.987 716.538 218.181 719.223 Q221.376 721.909 221.376 726.399 Q221.376 728.529 220.566 730.45 Q219.779 732.348 217.672 734.941 Q217.094 735.612 213.992 738.83 Q210.89 742.024 205.242 747.788 Z" fill="#000000" fill-rule="nonzero" fill-opacity="1" /><path clip-path="url(#clip010)" d="M231.422 717.163 L249.779 717.163 L249.779 721.098 L235.705 721.098 L235.705 729.571 Q236.723 729.223 237.742 729.061 Q238.76 728.876 239.779 728.876 Q245.566 728.876 248.945 732.047 Q252.325 735.219 252.325 740.635 Q252.325 746.214 248.853 749.316 Q245.38 752.395 239.061 752.395 Q236.885 752.395 234.617 752.024 Q232.371 751.654 229.964 750.913 L229.964 746.214 Q232.047 747.348 234.269 747.904 Q236.492 748.459 238.968 748.459 Q242.973 748.459 245.311 746.353 Q247.649 744.246 247.649 740.635 Q247.649 737.024 245.311 734.918 Q242.973 732.811 238.968 732.811 Q237.093 732.811 235.218 733.228 Q233.367 733.645 231.422 734.524 L231.422 717.163 Z" fill="#000000" fill-rule="nonzero" fill-opacity="1" /><path clip-path="url(#clip010)" d="M164.987 353.787 Q161.376 353.787 159.548 357.352 Q157.742 360.893 157.742 368.023 Q157.742 375.129 159.548 378.694 Q161.376 382.236 164.987 382.236 Q168.622 382.236 170.427 378.694 Q172.256 375.129 172.256 368.023 Q172.256 360.893 170.427 357.352 Q168.622 353.787 164.987 353.787 M164.987 350.083 Q170.797 350.083 173.853 354.69 Q176.932 359.273 176.932 368.023 Q176.932 376.75 173.853 381.356 Q170.797 385.939 164.987 385.939 Q159.177 385.939 156.098 381.356 Q153.043 376.75 153.043 368.023 Q153.043 359.273 156.098 354.69 Q159.177 350.083 164.987 350.083 Z" fill="#000000" fill-rule="nonzero" fill-opacity="1" /><path clip-path="url(#clip010)" d="M185.149 379.389 L190.033 379.389 L190.033 385.268 L185.149 385.268 L185.149 379.389 Z" fill="#000000" fill-rule="nonzero" fill-opacity="1" /><path clip-path="url(#clip010)" d="M200.265 350.708 L218.621 350.708 L218.621 354.643 L204.547 354.643 L204.547 363.115 Q205.566 362.768 206.584 362.606 Q207.603 362.421 208.621 362.421 Q214.408 362.421 217.788 365.592 Q221.168 368.764 221.168 374.18 Q221.168 379.759 217.695 382.861 Q214.223 385.939 207.904 385.939 Q205.728 385.939 203.459 385.569 Q201.214 385.199 198.807 384.458 L198.807 379.759 Q200.89 380.893 203.112 381.449 Q205.334 382.004 207.811 382.004 Q211.816 382.004 214.154 379.898 Q216.492 377.791 216.492 374.18 Q216.492 370.569 214.154 368.463 Q211.816 366.356 207.811 366.356 Q205.936 366.356 204.061 366.773 Q202.209 367.19 200.265 368.069 L200.265 350.708 Z" fill="#000000" fill-rule="nonzero" fill-opacity="1" /><path clip-path="url(#clip010)" d="M240.38 353.787 Q236.769 353.787 234.941 357.352 Q233.135 360.893 233.135 368.023 Q233.135 375.129 234.941 378.694 Q236.769 382.236 240.38 382.236 Q244.015 382.236 245.82 378.694 Q247.649 375.129 247.649 368.023 Q247.649 360.893 245.82 357.352 Q244.015 353.787 240.38 353.787 M240.38 350.083 Q246.191 350.083 249.246 354.69 Q252.325 359.273 252.325 368.023 Q252.325 376.75 249.246 381.356 Q246.191 385.939 240.38 385.939 Q234.57 385.939 231.492 381.356 Q228.436 376.75 228.436 368.023 Q228.436 359.273 231.492 354.69 Q234.57 350.083 240.38 350.083 Z" fill="#000000" fill-rule="nonzero" fill-opacity="1" /><path clip-path="url(#clip010)" d="M56.2912 1285.17 L75.1974 1285.17 L75.1974 1291.06 L25.9905 1291.06 L25.9905 1285.17 L31.4013 1285.17 Q28.2185 1283.33 26.6907 1280.53 Q25.1311 1277.69 25.1311 1273.78 Q25.1311 1267.29 30.2873 1263.24 Q35.4436 1259.17 43.8463 1259.17 Q52.249 1259.17 57.4052 1263.24 Q62.5615 1267.29 62.5615 1273.78 Q62.5615 1277.69 61.0337 1280.53 Q59.4741 1283.33 56.2912 1285.17 M43.8463 1265.25 Q37.3851 1265.25 33.7248 1267.92 Q30.0327 1270.57 30.0327 1275.21 Q30.0327 1279.86 33.7248 1282.53 Q37.3851 1285.17 43.8463 1285.17 Q50.3075 1285.17 53.9996 1282.53 Q57.6599 1279.86 57.6599 1275.21 Q57.6599 1270.57 53.9996 1267.92 Q50.3075 1265.25 43.8463 1265.25 Z" fill="#000000" fill-rule="nonzero" fill-opacity="1" /><path clip-path="url(#clip010)" d="M31.465 1228.81 Q30.8921 1229.79 30.6375 1230.97 Q30.351 1232.12 30.351 1233.52 Q30.351 1238.48 33.5975 1241.16 Q36.8122 1243.8 42.8596 1243.8 L61.6384 1243.8 L61.6384 1249.69 L25.9905 1249.69 L25.9905 1243.8 L31.5287 1243.8 Q28.2821 1241.95 26.7225 1238.99 Q25.1311 1236.03 25.1311 1231.8 Q25.1311 1231.19 25.2266 1230.46 Q25.2903 1229.73 25.4494 1228.84 L31.465 1228.81 Z" fill="#000000" fill-rule="nonzero" fill-opacity="1" /><path clip-path="url(#clip010)" d="M25.9905 1222.66 L25.9905 1216.81 L61.6384 1216.81 L61.6384 1222.66 L25.9905 1222.66 M12.1132 1222.66 L12.1132 1216.81 L19.5293 1216.81 L19.5293 1222.66 L12.1132 1222.66 Z" fill="#000000" fill-rule="nonzero" fill-opacity="1" /><path clip-path="url(#clip010)" d="M40.1224 1174.92 L61.6384 1174.92 L61.6384 1180.78 L40.3133 1180.78 Q35.2526 1180.78 32.7381 1182.75 Q30.2237 1184.72 30.2237 1188.67 Q30.2237 1193.41 33.2474 1196.15 Q36.2711 1198.89 41.491 1198.89 L61.6384 1198.89 L61.6384 1204.78 L25.9905 1204.78 L25.9905 1198.89 L31.5287 1198.89 Q28.314 1196.79 26.7225 1193.95 Q25.1311 1191.09 25.1311 1187.37 Q25.1311 1181.22 28.9505 1178.07 Q32.7381 1174.92 40.1224 1174.92 Z" fill="#000000" fill-rule="nonzero" fill-opacity="1" /><path clip-path="url(#clip010)" d="M27.3591 1137.59 L32.8336 1137.59 Q31.465 1140.07 30.7966 1142.58 Q30.0964 1145.07 30.0964 1147.61 Q30.0964 1153.31 33.7248 1156.46 Q37.3214 1159.61 43.8463 1159.61 Q50.3711 1159.61 53.9996 1156.46 Q57.5962 1153.31 57.5962 1147.61 Q57.5962 1145.07 56.9278 1142.58 Q56.2276 1140.07 54.859 1137.59 L60.2698 1137.59 Q61.4156 1140.04 61.9886 1142.68 Q62.5615 1145.29 62.5615 1148.25 Q62.5615 1156.3 57.5007 1161.04 Q52.44 1165.79 43.8463 1165.79 Q35.1253 1165.79 30.1282 1161.01 Q25.1311 1156.21 25.1311 1147.87 Q25.1311 1145.16 25.704 1142.58 Q26.2451 1140 27.3591 1137.59 Z" fill="#000000" fill-rule="nonzero" fill-opacity="1" /><path clip-path="url(#clip010)" d="M25.9905 1127.4 L25.9905 1121.54 L61.6384 1121.54 L61.6384 1127.4 L25.9905 1127.4 M12.1132 1127.4 L12.1132 1121.54 L19.5293 1121.54 L19.5293 1127.4 L12.1132 1127.4 Z" fill="#000000" fill-rule="nonzero" fill-opacity="1" /><path clip-path="url(#clip010)" d="M56.2912 1103.62 L75.1974 1103.62 L75.1974 1109.51 L25.9905 1109.51 L25.9905 1103.62 L31.4013 1103.62 Q28.2185 1101.78 26.6907 1098.98 Q25.1311 1096.14 25.1311 1092.23 Q25.1311 1085.74 30.2873 1081.69 Q35.4436 1077.62 43.8463 1077.62 Q52.249 1077.62 57.4052 1081.69 Q62.5615 1085.74 62.5615 1092.23 Q62.5615 1096.14 61.0337 1098.98 Q59.4741 1101.78 56.2912 1103.62 M43.8463 1083.7 Q37.3851 1083.7 33.7248 1086.37 Q30.0327 1089.02 30.0327 1093.66 Q30.0327 1098.31 33.7248 1100.98 Q37.3851 1103.62 43.8463 1103.62 Q50.3075 1103.62 53.9996 1100.98 Q57.6599 1098.31 57.6599 1093.66 Q57.6599 1089.02 53.9996 1086.37 Q50.3075 1083.7 43.8463 1083.7 Z" fill="#000000" fill-rule="nonzero" fill-opacity="1" /><path clip-path="url(#clip010)" d="M43.719 1051.71 Q43.719 1058.81 45.3422 1061.55 Q46.9655 1064.28 50.8804 1064.28 Q53.9996 1064.28 55.8457 1062.25 Q57.6599 1060.18 57.6599 1056.65 Q57.6599 1051.78 54.2224 1048.85 Q50.7531 1045.89 45.0239 1045.89 L43.719 1045.89 L43.719 1051.71 M41.3 1040.03 L61.6384 1040.03 L61.6384 1045.89 L56.2276 1045.89 Q59.4741 1047.89 61.0337 1050.88 Q62.5615 1053.88 62.5615 1058.21 Q62.5615 1063.68 59.5059 1066.93 Q56.4186 1070.14 51.2623 1070.14 Q45.2467 1070.14 42.1912 1066.13 Q39.1357 1062.09 39.1357 1054.1 L39.1357 1045.89 L38.5628 1045.89 Q34.5205 1045.89 32.3244 1048.56 Q30.0964 1051.2 30.0964 1056.01 Q30.0964 1059.06 30.8284 1061.96 Q31.5605 1064.86 33.0246 1067.53 L27.6137 1067.53 Q26.3724 1064.32 25.7677 1061.29 Q25.1311 1058.27 25.1311 1055.4 Q25.1311 1047.67 29.1415 1043.85 Q33.1519 1040.03 41.3 1040.03 Z" fill="#000000" fill-rule="nonzero" fill-opacity="1" /><path clip-path="url(#clip010)" d="M12.1132 1027.97 L12.1132 1022.11 L61.6384 1022.11 L61.6384 1027.97 L12.1132 1027.97 Z" fill="#000000" fill-rule="nonzero" fill-opacity="1" /><path clip-path="url(#clip010)" d="M27.3591 963.483 L32.8336 963.483 Q31.465 965.966 30.7966 968.48 Q30.0964 970.963 30.0964 973.509 Q30.0964 979.207 33.7248 982.358 Q37.3214 985.509 43.8463 985.509 Q50.3711 985.509 53.9996 982.358 Q57.5962 979.207 57.5962 973.509 Q57.5962 970.963 56.9278 968.48 Q56.2276 965.966 54.859 963.483 L60.2698 963.483 Q61.4156 965.934 61.9886 968.576 Q62.5615 971.186 62.5615 974.146 Q62.5615 982.198 57.5007 986.941 Q52.44 991.683 43.8463 991.683 Q35.1253 991.683 30.1282 986.909 Q25.1311 982.103 25.1311 973.764 Q25.1311 971.059 25.704 968.48 Q26.2451 965.902 27.3591 963.483 Z" fill="#000000" fill-rule="nonzero" fill-opacity="1" /><path clip-path="url(#clip010)" d="M30.0964 939.485 Q30.0964 944.195 33.7885 946.932 Q37.4488 949.67 43.8463 949.67 Q50.2438 949.67 53.9359 946.964 Q57.5962 944.227 57.5962 939.485 Q57.5962 934.806 53.9041 932.069 Q50.212 929.331 43.8463 929.331 Q37.5124 929.331 33.8203 932.069 Q30.0964 934.806 30.0964 939.485 M25.1311 939.485 Q25.1311 931.846 30.0964 927.485 Q35.0616 923.125 43.8463 923.125 Q52.5991 923.125 57.5962 927.485 Q62.5615 931.846 62.5615 939.485 Q62.5615 947.155 57.5962 951.516 Q52.5991 955.844 43.8463 955.844 Q35.0616 955.844 30.0964 951.516 Q25.1311 947.155 25.1311 939.485 Z" fill="#000000" fill-rule="nonzero" fill-opacity="1" /><path clip-path="url(#clip010)" d="M32.8336 885.663 Q28.8869 883.466 27.009 880.411 Q25.1311 877.355 25.1311 873.218 Q25.1311 867.648 29.046 864.624 Q32.9291 861.6 40.1224 861.6 L61.6384 861.6 L61.6384 867.488 L40.3133 867.488 Q35.1889 867.488 32.7063 869.303 Q30.2237 871.117 30.2237 874.841 Q30.2237 879.392 33.2474 882.034 Q36.2711 884.676 41.491 884.676 L61.6384 884.676 L61.6384 890.564 L40.3133 890.564 Q35.1571 890.564 32.7063 892.378 Q30.2237 894.193 30.2237 897.98 Q30.2237 902.468 33.2792 905.11 Q36.3029 907.752 41.491 907.752 L61.6384 907.752 L61.6384 913.64 L25.9905 913.64 L25.9905 907.752 L31.5287 907.752 Q28.2503 905.746 26.6907 902.945 Q25.1311 900.145 25.1311 896.293 Q25.1311 892.41 27.1045 889.705 Q29.0779 886.968 32.8336 885.663 Z" fill="#000000" fill-rule="nonzero" fill-opacity="1" /><path clip-path="url(#clip010)" d="M56.2912 844.254 L75.1974 844.254 L75.1974 850.142 L25.9905 850.142 L25.9905 844.254 L31.4013 844.254 Q28.2185 842.408 26.6907 839.607 Q25.1311 836.774 25.1311 832.859 Q25.1311 826.366 30.2873 822.324 Q35.4436 818.25 43.8463 818.25 Q52.249 818.25 57.4052 822.324 Q62.5615 826.366 62.5615 832.859 Q62.5615 836.774 61.0337 839.607 Q59.4741 842.408 56.2912 844.254 M43.8463 824.329 Q37.3851 824.329 33.7248 827.003 Q30.0327 829.644 30.0327 834.291 Q30.0327 838.938 33.7248 841.612 Q37.3851 844.254 43.8463 844.254 Q50.3075 844.254 53.9996 841.612 Q57.6599 838.938 57.6599 834.291 Q57.6599 829.644 53.9996 827.003 Q50.3075 824.329 43.8463 824.329 Z" fill="#000000" fill-rule="nonzero" fill-opacity="1" /><path clip-path="url(#clip010)" d="M30.0964 794.728 Q30.0964 799.439 33.7885 802.176 Q37.4488 804.914 43.8463 804.914 Q50.2438 804.914 53.9359 802.208 Q57.5962 799.471 57.5962 794.728 Q57.5962 790.05 53.9041 787.312 Q50.212 784.575 43.8463 784.575 Q37.5124 784.575 33.8203 787.312 Q30.0964 790.05 30.0964 794.728 M25.1311 794.728 Q25.1311 787.09 30.0964 782.729 Q35.0616 778.369 43.8463 778.369 Q52.5991 778.369 57.5962 782.729 Q62.5615 787.09 62.5615 794.728 Q62.5615 802.399 57.5962 806.76 Q52.5991 811.088 43.8463 811.088 Q35.0616 811.088 30.0964 806.76 Q25.1311 802.399 25.1311 794.728 Z" fill="#000000" fill-rule="nonzero" fill-opacity="1" /><path clip-path="url(#clip010)" d="M40.1224 739.029 L61.6384 739.029 L61.6384 744.885 L40.3133 744.885 Q35.2526 744.885 32.7381 746.858 Q30.2237 748.832 30.2237 752.778 Q30.2237 757.521 33.2474 760.258 Q36.2711 762.995 41.491 762.995 L61.6384 762.995 L61.6384 768.884 L25.9905 768.884 L25.9905 762.995 L31.5287 762.995 Q28.314 760.895 26.7225 758.062 Q25.1311 755.197 25.1311 751.473 Q25.1311 745.331 28.9505 742.18 Q32.7381 739.029 40.1224 739.029 Z" fill="#000000" fill-rule="nonzero" fill-opacity="1" /><path clip-path="url(#clip010)" d="M42.3504 696.856 L45.2149 696.856 L45.2149 723.783 Q51.2623 723.401 54.4452 720.154 Q57.5962 716.876 57.5962 711.051 Q57.5962 707.677 56.7687 704.526 Q55.9411 701.344 54.2861 698.224 L59.8242 698.224 Q61.161 701.375 61.8612 704.686 Q62.5615 707.996 62.5615 711.401 Q62.5615 719.931 57.5962 724.928 Q52.631 729.894 44.1646 729.894 Q35.4117 729.894 30.2873 725.183 Q25.1311 720.441 25.1311 712.42 Q25.1311 705.227 29.7781 701.057 Q34.3932 696.856 42.3504 696.856 M40.6316 702.712 Q35.8255 702.776 32.9609 705.418 Q30.0964 708.028 30.0964 712.356 Q30.0964 717.258 32.8654 720.218 Q35.6345 723.146 40.6634 723.592 L40.6316 702.712 Z" fill="#000000" fill-rule="nonzero" fill-opacity="1" /><path clip-path="url(#clip010)" d="M40.1224 657.611 L61.6384 657.611 L61.6384 663.468 L40.3133 663.468 Q35.2526 663.468 32.7381 665.441 Q30.2237 667.414 30.2237 671.361 Q30.2237 676.103 33.2474 678.841 Q36.2711 681.578 41.491 681.578 L61.6384 681.578 L61.6384 687.466 L25.9905 687.466 L25.9905 681.578 L31.5287 681.578 Q28.314 679.477 26.7225 676.645 Q25.1311 673.78 25.1311 670.056 Q25.1311 663.913 28.9505 660.762 Q32.7381 657.611 40.1224 657.611 Z" fill="#000000" fill-rule="nonzero" fill-opacity="1" /><path clip-path="url(#clip010)" d="M15.869 640.137 L25.9905 640.137 L25.9905 628.074 L30.542 628.074 L30.542 640.137 L49.8937 640.137 Q54.2542 640.137 55.4955 638.96 Q56.7368 637.75 56.7368 634.09 L56.7368 628.074 L61.6384 628.074 L61.6384 634.09 Q61.6384 640.869 59.124 643.447 Q56.5777 646.026 49.8937 646.026 L30.542 646.026 L30.542 650.322 L25.9905 650.322 L25.9905 646.026 L15.869 646.026 L15.869 640.137 Z" fill="#000000" fill-rule="nonzero" fill-opacity="1" /><path clip-path="url(#clip010)" d="M56.2276 593.286 L56.2276 570.847 L61.6384 570.847 L61.6384 601.02 L56.2276 601.02 Q52.44 597.36 46.0743 591.058 Q39.6768 584.724 37.8307 583.101 Q34.3614 580.013 31.9743 578.804 Q29.5553 577.562 27.2318 577.562 Q23.4442 577.562 21.0571 580.236 Q18.6699 582.878 18.6699 587.143 Q18.6699 590.166 19.7203 593.54 Q20.7706 596.882 22.9031 600.702 L16.4101 600.702 Q14.8505 596.819 14.0548 593.445 Q13.2591 590.071 13.2591 587.27 Q13.2591 579.886 16.9512 575.493 Q20.6433 571.101 26.818 571.101 Q29.7463 571.101 32.388 572.215 Q34.998 573.297 38.5628 576.194 Q39.4858 576.989 43.91 581.254 Q48.3023 585.519 56.2276 593.286 Z" fill="#000000" fill-rule="nonzero" fill-opacity="1" /><path clip-path="url(#clip010)" d="M232.208 28.9478 L232.208 35.9153 Q229.048 34.1734 225.848 33.3227 Q222.688 32.4315 219.447 32.4315 Q212.196 32.4315 208.186 37.0496 Q204.175 41.6271 204.175 49.9314 Q204.175 58.2358 208.186 62.8538 Q212.196 67.4314 219.447 67.4314 Q222.688 67.4314 225.848 66.5807 Q229.048 65.6895 232.208 63.9476 L232.208 70.8341 Q229.088 72.2924 225.726 73.0216 Q222.404 73.7508 218.637 73.7508 Q208.388 73.7508 202.352 67.3098 Q196.317 60.8689 196.317 49.9314 Q196.317 38.832 202.393 32.472 Q208.51 26.1121 219.123 26.1121 Q222.566 26.1121 225.848 26.8413 Q229.129 27.5299 232.208 28.9478 Z" fill="#000000" fill-rule="nonzero" fill-opacity="1" /><path clip-path="url(#clip010)" d="M262.751 32.4315 Q256.756 32.4315 253.272 37.1306 Q249.788 41.7891 249.788 49.9314 Q249.788 58.0738 253.232 62.7728 Q256.716 67.4314 262.751 67.4314 Q268.706 67.4314 272.19 62.7323 Q275.674 58.0333 275.674 49.9314 Q275.674 41.8701 272.19 37.1711 Q268.706 32.4315 262.751 32.4315 M262.751 26.1121 Q272.474 26.1121 278.023 32.4315 Q283.573 38.7509 283.573 49.9314 Q283.573 61.0714 278.023 67.4314 Q272.474 73.7508 262.751 73.7508 Q252.989 73.7508 247.439 67.4314 Q241.93 61.0714 241.93 49.9314 Q241.93 38.7509 247.439 32.4315 Q252.989 26.1121 262.751 26.1121 Z" fill="#000000" fill-rule="nonzero" fill-opacity="1" /><path clip-path="url(#clip010)" d="M313.509 32.4315 Q307.514 32.4315 304.03 37.1306 Q300.546 41.7891 300.546 49.9314 Q300.546 58.0738 303.99 62.7728 Q307.473 67.4314 313.509 67.4314 Q319.464 67.4314 322.948 62.7323 Q326.432 58.0333 326.432 49.9314 Q326.432 41.8701 322.948 37.1711 Q319.464 32.4315 313.509 32.4315 M313.509 26.1121 Q323.231 26.1121 328.781 32.4315 Q334.331 38.7509 334.331 49.9314 Q334.331 61.0714 328.781 67.4314 Q323.231 73.7508 313.509 73.7508 Q303.747 73.7508 298.197 67.4314 Q292.688 61.0714 292.688 49.9314 Q292.688 38.7509 298.197 32.4315 Q303.747 26.1121 313.509 26.1121 Z" fill="#000000" fill-rule="nonzero" fill-opacity="1" /><path clip-path="url(#clip010)" d="M372.976 34.1734 Q371.721 33.4443 370.222 33.1202 Q368.764 32.7556 366.981 32.7556 Q360.662 32.7556 357.259 36.8875 Q353.897 40.9789 353.897 48.6757 L353.897 72.576 L346.403 72.576 L346.403 27.2059 L353.897 27.2059 L353.897 34.2544 Q356.246 30.1225 360.014 28.1376 Q363.781 26.1121 369.169 26.1121 Q369.938 26.1121 370.87 26.2337 Q371.802 26.3147 372.936 26.5172 L372.976 34.1734 Z" fill="#000000" fill-rule="nonzero" fill-opacity="1" /><path clip-path="url(#clip010)" d="M409.192 34.0924 L409.192 9.54393 L416.645 9.54393 L416.645 72.576 L409.192 72.576 L409.192 65.7705 Q406.842 69.8214 403.237 71.8063 Q399.672 73.7508 394.649 73.7508 Q386.425 73.7508 381.24 67.1883 Q376.096 60.6258 376.096 49.9314 Q376.096 39.2371 381.24 32.6746 Q386.425 26.1121 394.649 26.1121 Q399.672 26.1121 403.237 28.0971 Q406.842 30.0415 409.192 34.0924 M383.792 49.9314 Q383.792 58.1548 387.155 62.8538 Q390.557 67.5124 396.472 67.5124 Q402.386 67.5124 405.789 62.8538 Q409.192 58.1548 409.192 49.9314 Q409.192 41.7081 405.789 37.0496 Q402.386 32.3505 396.472 32.3505 Q390.557 32.3505 387.155 37.0496 Q383.792 41.7081 383.792 49.9314 Z" fill="#000000" fill-rule="nonzero" fill-opacity="1" /><path clip-path="url(#clip010)" d="M431.998 27.2059 L439.452 27.2059 L439.452 72.576 L431.998 72.576 L431.998 27.2059 M431.998 9.54393 L439.452 9.54393 L439.452 18.9825 L431.998 18.9825 L431.998 9.54393 Z" fill="#000000" fill-rule="nonzero" fill-opacity="1" /><path clip-path="url(#clip010)" d="M492.762 45.1919 L492.762 72.576 L485.308 72.576 L485.308 45.4349 Q485.308 38.994 482.796 35.7938 Q480.285 32.5936 475.262 32.5936 Q469.226 32.5936 465.742 36.4419 Q462.258 40.2903 462.258 46.9338 L462.258 72.576 L454.764 72.576 L454.764 27.2059 L462.258 27.2059 L462.258 34.2544 Q464.932 30.163 468.537 28.1376 Q472.183 26.1121 476.923 26.1121 Q484.741 26.1121 488.751 30.9732 Q492.762 35.7938 492.762 45.1919 Z" fill="#000000" fill-rule="nonzero" fill-opacity="1" /><path clip-path="url(#clip010)" d="M528.248 49.7694 Q519.214 49.7694 515.73 51.8354 Q512.247 53.9013 512.247 58.8839 Q512.247 62.8538 514.839 65.2034 Q517.472 67.5124 521.969 67.5124 Q528.167 67.5124 531.893 63.1374 Q535.661 58.7219 535.661 51.4303 L535.661 49.7694 L528.248 49.7694 M543.114 46.6907 L543.114 72.576 L535.661 72.576 L535.661 65.6895 Q533.109 69.8214 529.301 71.8063 Q525.493 73.7508 519.984 73.7508 Q513.016 73.7508 508.884 69.8619 Q504.793 65.9325 504.793 59.3701 Q504.793 51.7138 509.897 47.825 Q515.042 43.9361 525.209 43.9361 L535.661 43.9361 L535.661 43.2069 Q535.661 38.0623 532.258 35.2672 Q528.896 32.4315 522.779 32.4315 Q518.89 32.4315 515.204 33.3632 Q511.517 34.295 508.115 36.1584 L508.115 29.2718 Q512.206 27.692 516.054 26.9223 Q519.903 26.1121 523.549 26.1121 Q533.392 26.1121 538.253 31.2163 Q543.114 36.3204 543.114 46.6907 Z" fill="#000000" fill-rule="nonzero" fill-opacity="1" /><path clip-path="url(#clip010)" d="M565.84 14.324 L565.84 27.2059 L581.193 27.2059 L581.193 32.9987 L565.84 32.9987 L565.84 57.6282 Q565.84 63.1779 567.339 64.7578 Q568.878 66.3376 573.537 66.3376 L581.193 66.3376 L581.193 72.576 L573.537 72.576 Q564.908 72.576 561.627 69.3758 Q558.346 66.1351 558.346 57.6282 L558.346 32.9987 L552.877 32.9987 L552.877 27.2059 L558.346 27.2059 L558.346 14.324 L565.84 14.324 Z" fill="#000000" fill-rule="nonzero" fill-opacity="1" /><path clip-path="url(#clip010)" d="M629.804 48.0275 L629.804 51.6733 L595.533 51.6733 Q596.019 59.3701 600.151 63.421 Q604.324 67.4314 611.737 67.4314 Q616.031 67.4314 620.041 66.3781 Q624.092 65.3249 628.062 63.2184 L628.062 70.267 Q624.052 71.9684 619.839 72.8596 Q615.626 73.7508 611.291 73.7508 Q600.435 73.7508 594.075 67.4314 Q587.755 61.1119 587.755 50.3365 Q587.755 39.1965 593.751 32.6746 Q599.787 26.1121 609.995 26.1121 Q619.15 26.1121 624.457 32.0264 Q629.804 37.9003 629.804 48.0275 M622.35 45.84 Q622.269 39.7232 618.907 36.0774 Q615.585 32.4315 610.076 32.4315 Q603.838 32.4315 600.07 35.9558 Q596.343 39.4801 595.776 45.8805 L622.35 45.84 Z" fill="#000000" fill-rule="nonzero" fill-opacity="1" /><path clip-path="url(#clip010)" d="M670.961 28.5427 L670.961 35.5912 Q667.801 33.9709 664.399 33.1607 Q660.996 32.3505 657.35 32.3505 Q651.8 32.3505 649.005 34.0519 Q646.25 35.7533 646.25 39.156 Q646.25 41.7486 648.235 43.2475 Q650.22 44.7058 656.216 46.0426 L658.768 46.6097 Q666.708 48.3111 670.029 51.4303 Q673.392 54.509 673.392 60.0587 Q673.392 66.3781 668.368 70.0644 Q663.386 73.7508 654.636 73.7508 Q650.99 73.7508 647.02 73.0216 Q643.091 72.3329 638.716 70.9151 L638.716 63.2184 Q642.848 65.3654 646.858 66.4591 Q650.869 67.5124 654.798 67.5124 Q660.064 67.5124 662.9 65.73 Q665.735 63.9071 665.735 60.6258 Q665.735 57.5877 663.669 55.9673 Q661.644 54.3469 654.717 52.8481 L652.124 52.2405 Q645.197 50.7821 642.119 47.7845 Q639.04 44.7463 639.04 39.4801 Q639.04 33.0797 643.577 29.5959 Q648.114 26.1121 656.459 26.1121 Q660.591 26.1121 664.236 26.7198 Q667.882 27.3274 670.961 28.5427 Z" fill="#000000" fill-rule="nonzero" fill-opacity="1" /><path clip-path="url(#clip010)" d="M718.843 65.7705 L718.843 89.8329 L711.349 89.8329 L711.349 27.2059 L718.843 27.2059 L718.843 34.0924 Q721.192 30.0415 724.757 28.0971 Q728.362 26.1121 733.345 26.1121 Q741.609 26.1121 746.753 32.6746 Q751.939 39.2371 751.939 49.9314 Q751.939 60.6258 746.753 67.1883 Q741.609 73.7508 733.345 73.7508 Q728.362 73.7508 724.757 71.8063 Q721.192 69.8214 718.843 65.7705 M744.201 49.9314 Q744.201 41.7081 740.799 37.0496 Q737.436 32.3505 731.522 32.3505 Q725.608 32.3505 722.205 37.0496 Q718.843 41.7081 718.843 49.9314 Q718.843 58.1548 722.205 62.8538 Q725.608 67.5124 731.522 67.5124 Q737.436 67.5124 740.799 62.8538 Q744.201 58.1548 744.201 49.9314 Z" fill="#000000" fill-rule="nonzero" fill-opacity="1" /><path clip-path="url(#clip010)" d="M803.101 48.0275 L803.101 51.6733 L768.831 51.6733 Q769.317 59.3701 773.449 63.421 Q777.621 67.4314 785.034 67.4314 Q789.328 67.4314 793.339 66.3781 Q797.39 65.3249 801.36 63.2184 L801.36 70.267 Q797.349 71.9684 793.136 72.8596 Q788.923 73.7508 784.589 73.7508 Q773.732 73.7508 767.373 67.4314 Q761.053 61.1119 761.053 50.3365 Q761.053 39.1965 767.048 32.6746 Q773.084 26.1121 783.293 26.1121 Q792.448 26.1121 797.754 32.0264 Q803.101 37.9003 803.101 48.0275 M795.648 45.84 Q795.567 39.7232 792.205 36.0774 Q788.883 32.4315 783.374 32.4315 Q777.135 32.4315 773.368 35.9558 Q769.641 39.4801 769.074 45.8805 L795.648 45.84 Z" fill="#000000" fill-rule="nonzero" fill-opacity="1" /><path clip-path="url(#clip010)" d="M841.626 34.1734 Q840.37 33.4443 838.871 33.1202 Q837.413 32.7556 835.63 32.7556 Q829.311 32.7556 825.908 36.8875 Q822.546 40.9789 822.546 48.6757 L822.546 72.576 L815.052 72.576 L815.052 27.2059 L822.546 27.2059 L822.546 34.2544 Q824.895 30.1225 828.663 28.1376 Q832.43 26.1121 837.818 26.1121 Q838.587 26.1121 839.519 26.2337 Q840.451 26.3147 841.585 26.5172 L841.626 34.1734 Z" fill="#000000" fill-rule="nonzero" fill-opacity="1" /><path clip-path="url(#clip010)" d="M905.67 49.3643 Q905.67 41.2625 902.308 36.8065 Q898.986 32.3505 892.951 32.3505 Q886.955 32.3505 883.593 36.8065 Q880.271 41.2625 880.271 49.3643 Q880.271 57.4256 883.593 61.8816 Q886.955 66.3376 892.951 66.3376 Q898.986 66.3376 902.308 61.8816 Q905.67 57.4256 905.67 49.3643 M913.124 66.9452 Q913.124 78.5308 907.979 84.1616 Q902.835 89.8329 892.221 89.8329 Q888.292 89.8329 884.808 89.2252 Q881.324 88.6581 878.043 87.4428 L878.043 80.1917 Q881.324 81.9741 884.525 82.8248 Q887.725 83.6755 891.047 83.6755 Q898.379 83.6755 902.025 79.8271 Q905.67 76.0193 905.67 68.282 L905.67 64.5957 Q903.361 68.6061 899.756 70.5911 Q896.151 72.576 891.128 72.576 Q882.783 72.576 877.679 66.2161 Q872.574 59.8562 872.574 49.3643 Q872.574 38.832 877.679 32.472 Q882.783 26.1121 891.128 26.1121 Q896.151 26.1121 899.756 28.0971 Q903.361 30.082 905.67 34.0924 L905.67 27.2059 L913.124 27.2059 L913.124 66.9452 Z" fill="#000000" fill-rule="nonzero" fill-opacity="1" /><path clip-path="url(#clip010)" d="M967.285 48.0275 L967.285 51.6733 L933.014 51.6733 Q933.5 59.3701 937.632 63.421 Q941.804 67.4314 949.218 67.4314 Q953.512 67.4314 957.522 66.3781 Q961.573 65.3249 965.543 63.2184 L965.543 70.267 Q961.532 71.9684 957.319 72.8596 Q953.106 73.7508 948.772 73.7508 Q937.916 73.7508 931.556 67.4314 Q925.236 61.1119 925.236 50.3365 Q925.236 39.1965 931.232 32.6746 Q937.267 26.1121 947.476 26.1121 Q956.631 26.1121 961.937 32.0264 Q967.285 37.9003 967.285 48.0275 M959.831 45.84 Q959.75 39.7232 956.388 36.0774 Q953.066 32.4315 947.557 32.4315 Q941.318 32.4315 937.551 35.9558 Q933.824 39.4801 933.257 45.8805 L959.831 45.84 Z" fill="#000000" fill-rule="nonzero" fill-opacity="1" /><path clip-path="url(#clip010)" d="M1008.44 28.5427 L1008.44 35.5912 Q1005.28 33.9709 1001.88 33.1607 Q998.477 32.3505 994.831 32.3505 Q989.281 32.3505 986.486 34.0519 Q983.731 35.7533 983.731 39.156 Q983.731 41.7486 985.716 43.2475 Q987.701 44.7058 993.697 46.0426 L996.249 46.6097 Q1004.19 48.3111 1007.51 51.4303 Q1010.87 54.509 1010.87 60.0587 Q1010.87 66.3781 1005.85 70.0644 Q1000.87 73.7508 992.117 73.7508 Q988.471 73.7508 984.501 73.0216 Q980.572 72.3329 976.197 70.9151 L976.197 63.2184 Q980.329 65.3654 984.339 66.4591 Q988.349 67.5124 992.279 67.5124 Q997.545 67.5124 1000.38 65.73 Q1003.22 63.9071 1003.22 60.6258 Q1003.22 57.5877 1001.15 55.9673 Q999.125 54.3469 992.198 52.8481 L989.605 52.2405 Q982.678 50.7821 979.599 47.7845 Q976.521 44.7463 976.521 39.4801 Q976.521 33.0797 981.058 29.5959 Q985.595 26.1121 993.94 26.1121 Q998.072 26.1121 1001.72 26.7198 Q1005.36 27.3274 1008.44 28.5427 Z" fill="#000000" fill-rule="nonzero" fill-opacity="1" /><path clip-path="url(#clip010)" d="M1030.11 14.324 L1030.11 27.2059 L1045.47 27.2059 L1045.47 32.9987 L1030.11 32.9987 L1030.11 57.6282 Q1030.11 63.1779 1031.61 64.7578 Q1033.15 66.3376 1037.81 66.3376 L1045.47 66.3376 L1045.47 72.576 L1037.81 72.576 Q1029.18 72.576 1025.9 69.3758 Q1022.62 66.1351 1022.62 57.6282 L1022.62 32.9987 L1017.15 32.9987 L1017.15 27.2059 L1022.62 27.2059 L1022.62 14.324 L1030.11 14.324 Z" fill="#000000" fill-rule="nonzero" fill-opacity="1" /><path clip-path="url(#clip010)" d="M1054.5 54.671 L1054.5 27.2059 L1061.95 27.2059 L1061.95 54.3874 Q1061.95 60.8284 1064.47 64.0691 Q1066.98 67.2693 1072 67.2693 Q1078.04 67.2693 1081.52 63.421 Q1085.04 59.5726 1085.04 52.9291 L1085.04 27.2059 L1092.5 27.2059 L1092.5 72.576 L1085.04 72.576 L1085.04 65.6084 Q1082.33 69.7404 1078.73 71.7658 Q1075.16 73.7508 1070.42 73.7508 Q1062.6 73.7508 1058.55 68.8897 Q1054.5 64.0286 1054.5 54.671 M1073.26 26.1121 L1073.26 26.1121 Z" fill="#000000" fill-rule="nonzero" fill-opacity="1" /><path clip-path="url(#clip010)" d="M1134.14 34.1734 Q1132.89 33.4443 1131.39 33.1202 Q1129.93 32.7556 1128.15 32.7556 Q1121.83 32.7556 1118.42 36.8875 Q1115.06 40.9789 1115.06 48.6757 L1115.06 72.576 L1107.57 72.576 L1107.57 27.2059 L1115.06 27.2059 L1115.06 34.2544 Q1117.41 30.1225 1121.18 28.1376 Q1124.95 26.1121 1130.33 26.1121 Q1131.1 26.1121 1132.03 26.2337 Q1132.97 26.3147 1134.1 26.5172 L1134.14 34.1734 Z" fill="#000000" fill-rule="nonzero" fill-opacity="1" /><path clip-path="url(#clip010)" d="M1178.94 48.0275 L1178.94 51.6733 L1144.67 51.6733 Q1145.16 59.3701 1149.29 63.421 Q1153.46 67.4314 1160.88 67.4314 Q1165.17 67.4314 1169.18 66.3781 Q1173.23 65.3249 1177.2 63.2184 L1177.2 70.267 Q1173.19 71.9684 1168.98 72.8596 Q1164.77 73.7508 1160.43 73.7508 Q1149.58 73.7508 1143.22 67.4314 Q1136.9 61.1119 1136.9 50.3365 Q1136.9 39.1965 1142.89 32.6746 Q1148.93 26.1121 1159.14 26.1121 Q1168.29 26.1121 1173.6 32.0264 Q1178.94 37.9003 1178.94 48.0275 M1171.49 45.84 Q1171.41 39.7232 1168.05 36.0774 Q1164.73 32.4315 1159.22 32.4315 Q1152.98 32.4315 1149.21 35.9558 Q1145.48 39.4801 1144.92 45.8805 L1171.49 45.84 Z" fill="#000000" fill-rule="nonzero" fill-opacity="1" /><path clip-path="url(#clip010)" d="M1235.13 32.4315 Q1229.14 32.4315 1225.65 37.1306 Q1222.17 41.7891 1222.17 49.9314 Q1222.17 58.0738 1225.61 62.7728 Q1229.09 67.4314 1235.13 67.4314 Q1241.09 67.4314 1244.57 62.7323 Q1248.05 58.0333 1248.05 49.9314 Q1248.05 41.8701 1244.57 37.1711 Q1241.09 32.4315 1235.13 32.4315 M1235.13 26.1121 Q1244.85 26.1121 1250.4 32.4315 Q1255.95 38.7509 1255.95 49.9314 Q1255.95 61.0714 1250.4 67.4314 Q1244.85 73.7508 1235.13 73.7508 Q1225.37 73.7508 1219.82 67.4314 Q1214.31 61.0714 1214.31 49.9314 Q1214.31 38.7509 1219.82 32.4315 Q1225.37 26.1121 1235.13 26.1121 Z" fill="#000000" fill-rule="nonzero" fill-opacity="1" /><path clip-path="url(#clip010)" d="M1291.28 9.54393 L1291.28 15.7418 L1284.15 15.7418 Q1280.14 15.7418 1278.56 17.3622 Q1277.02 18.9825 1277.02 23.1955 L1277.02 27.2059 L1289.29 27.2059 L1289.29 32.9987 L1277.02 32.9987 L1277.02 72.576 L1269.52 72.576 L1269.52 32.9987 L1262.39 32.9987 L1262.39 27.2059 L1269.52 27.2059 L1269.52 24.0462 Q1269.52 16.471 1273.05 13.0277 Q1276.57 9.54393 1284.23 9.54393 L1291.28 9.54393 Z" fill="#000000" fill-rule="nonzero" fill-opacity="1" /><path clip-path="url(#clip010)" d="M1331.26 14.324 L1331.26 27.2059 L1346.61 27.2059 L1346.61 32.9987 L1331.26 32.9987 L1331.26 57.6282 Q1331.26 63.1779 1332.76 64.7578 Q1334.3 66.3376 1338.96 66.3376 L1346.61 66.3376 L1346.61 72.576 L1338.96 72.576 Q1330.33 72.576 1327.05 69.3758 Q1323.76 66.1351 1323.76 57.6282 L1323.76 32.9987 L1318.3 32.9987 L1318.3 27.2059 L1323.76 27.2059 L1323.76 14.324 L1331.26 14.324 Z" fill="#000000" fill-rule="nonzero" fill-opacity="1" /><path clip-path="url(#clip010)" d="M1394.13 45.1919 L1394.13 72.576 L1386.67 72.576 L1386.67 45.4349 Q1386.67 38.994 1384.16 35.7938 Q1381.65 32.5936 1376.63 32.5936 Q1370.59 32.5936 1367.11 36.4419 Q1363.63 40.2903 1363.63 46.9338 L1363.63 72.576 L1356.13 72.576 L1356.13 9.54393 L1363.63 9.54393 L1363.63 34.2544 Q1366.3 30.163 1369.9 28.1376 Q1373.55 26.1121 1378.29 26.1121 Q1386.11 26.1121 1390.12 30.9732 Q1394.13 35.7938 1394.13 45.1919 Z" fill="#000000" fill-rule="nonzero" fill-opacity="1" /><path clip-path="url(#clip010)" d="M1447.8 48.0275 L1447.8 51.6733 L1413.53 51.6733 Q1414.02 59.3701 1418.15 63.421 Q1422.32 67.4314 1429.74 67.4314 Q1434.03 67.4314 1438.04 66.3781 Q1442.09 65.3249 1446.06 63.2184 L1446.06 70.267 Q1442.05 71.9684 1437.84 72.8596 Q1433.62 73.7508 1429.29 73.7508 Q1418.43 73.7508 1412.07 67.4314 Q1405.75 61.1119 1405.75 50.3365 Q1405.75 39.1965 1411.75 32.6746 Q1417.79 26.1121 1427.99 26.1121 Q1437.15 26.1121 1442.46 32.0264 Q1447.8 37.9003 1447.8 48.0275 M1440.35 45.84 Q1440.27 39.7232 1436.91 36.0774 Q1433.58 32.4315 1428.07 32.4315 Q1421.84 32.4315 1418.07 35.9558 Q1414.34 39.4801 1413.78 45.8805 L1440.35 45.84 Z" fill="#000000" fill-rule="nonzero" fill-opacity="1" /><path clip-path="url(#clip010)" d="M1509.38 9.54393 L1509.38 15.7418 L1502.25 15.7418 Q1498.24 15.7418 1496.66 17.3622 Q1495.12 18.9825 1495.12 23.1955 L1495.12 27.2059 L1507.39 27.2059 L1507.39 32.9987 L1495.12 32.9987 L1495.12 72.576 L1487.62 72.576 L1487.62 32.9987 L1480.49 32.9987 L1480.49 27.2059 L1487.62 27.2059 L1487.62 24.0462 Q1487.62 16.471 1491.15 13.0277 Q1494.67 9.54393 1502.33 9.54393 L1509.38 9.54393 Z" fill="#000000" fill-rule="nonzero" fill-opacity="1" /><path clip-path="url(#clip010)" d="M1515.62 27.2059 L1523.07 27.2059 L1523.07 72.576 L1515.62 72.576 L1515.62 27.2059 M1515.62 9.54393 L1523.07 9.54393 L1523.07 18.9825 L1515.62 18.9825 L1515.62 9.54393 Z" fill="#000000" fill-rule="nonzero" fill-opacity="1" /><path clip-path="url(#clip010)" d="M1564.96 34.1734 Q1563.7 33.4443 1562.2 33.1202 Q1560.74 32.7556 1558.96 32.7556 Q1552.64 32.7556 1549.24 36.8875 Q1545.88 40.9789 1545.88 48.6757 L1545.88 72.576 L1538.38 72.576 L1538.38 27.2059 L1545.88 27.2059 L1545.88 34.2544 Q1548.22 30.1225 1551.99 28.1376 Q1555.76 26.1121 1561.15 26.1121 Q1561.92 26.1121 1562.85 26.2337 Q1563.78 26.3147 1564.91 26.5172 L1564.96 34.1734 Z" fill="#000000" fill-rule="nonzero" fill-opacity="1" /><path clip-path="url(#clip010)" d="M1601.7 28.5427 L1601.7 35.5912 Q1598.54 33.9709 1595.13 33.1607 Q1591.73 32.3505 1588.09 32.3505 Q1582.54 32.3505 1579.74 34.0519 Q1576.99 35.7533 1576.99 39.156 Q1576.99 41.7486 1578.97 43.2475 Q1580.96 44.7058 1586.95 46.0426 L1589.5 46.6097 Q1597.44 48.3111 1600.77 51.4303 Q1604.13 54.509 1604.13 60.0587 Q1604.13 66.3781 1599.1 70.0644 Q1594.12 73.7508 1585.37 73.7508 Q1581.73 73.7508 1577.76 73.0216 Q1573.83 72.3329 1569.45 70.9151 L1569.45 63.2184 Q1573.58 65.3654 1577.59 66.4591 Q1581.6 67.5124 1585.53 67.5124 Q1590.8 67.5124 1593.64 65.73 Q1596.47 63.9071 1596.47 60.6258 Q1596.47 57.5877 1594.41 55.9673 Q1592.38 54.3469 1585.45 52.8481 L1582.86 52.2405 Q1575.93 50.7821 1572.85 47.7845 Q1569.78 44.7463 1569.78 39.4801 Q1569.78 33.0797 1574.31 29.5959 Q1578.85 26.1121 1587.19 26.1121 Q1591.33 26.1121 1594.97 26.7198 Q1598.62 27.3274 1601.7 28.5427 Z" fill="#000000" fill-rule="nonzero" fill-opacity="1" /><path clip-path="url(#clip010)" d="M1623.37 14.324 L1623.37 27.2059 L1638.72 27.2059 L1638.72 32.9987 L1623.37 32.9987 L1623.37 57.6282 Q1623.37 63.1779 1624.87 64.7578 Q1626.41 66.3376 1631.07 66.3376 L1638.72 66.3376 L1638.72 72.576 L1631.07 72.576 Q1622.44 72.576 1619.16 69.3758 Q1615.87 66.1351 1615.87 57.6282 L1615.87 32.9987 L1610.41 32.9987 L1610.41 27.2059 L1615.87 27.2059 L1615.87 14.324 L1623.37 14.324 Z" fill="#000000" fill-rule="nonzero" fill-opacity="1" /><path clip-path="url(#clip010)" d="M1682.27 14.324 L1682.27 27.2059 L1697.62 27.2059 L1697.62 32.9987 L1682.27 32.9987 L1682.27 57.6282 Q1682.27 63.1779 1683.77 64.7578 Q1685.31 66.3376 1689.97 66.3376 L1697.62 66.3376 L1697.62 72.576 L1689.97 72.576 Q1681.34 72.576 1678.06 69.3758 Q1674.78 66.1351 1674.78 57.6282 L1674.78 32.9987 L1669.31 32.9987 L1669.31 27.2059 L1674.78 27.2059 L1674.78 14.324 L1682.27 14.324 Z" fill="#000000" fill-rule="nonzero" fill-opacity="1" /><path clip-path="url(#clip010)" d="M1703.09 27.2059 L1710.54 27.2059 L1719.86 62.6108 L1729.14 27.2059 L1737.93 27.2059 L1747.25 62.6108 L1756.52 27.2059 L1763.98 27.2059 L1752.11 72.576 L1743.32 72.576 L1733.55 35.3887 L1723.75 72.576 L1714.96 72.576 L1703.09 27.2059 Z" fill="#000000" fill-rule="nonzero" fill-opacity="1" /><path clip-path="url(#clip010)" d="M1792.86 32.4315 Q1786.86 32.4315 1783.38 37.1306 Q1779.9 41.7891 1779.9 49.9314 Q1779.9 58.0738 1783.34 62.7728 Q1786.82 67.4314 1792.86 67.4314 Q1798.81 67.4314 1802.3 62.7323 Q1805.78 58.0333 1805.78 49.9314 Q1805.78 41.8701 1802.3 37.1711 Q1798.81 32.4315 1792.86 32.4315 M1792.86 26.1121 Q1802.58 26.1121 1808.13 32.4315 Q1813.68 38.7509 1813.68 49.9314 Q1813.68 61.0714 1808.13 67.4314 Q1802.58 73.7508 1792.86 73.7508 Q1783.1 73.7508 1777.55 67.4314 Q1772.04 61.0714 1772.04 49.9314 Q1772.04 38.7509 1777.55 32.4315 Q1783.1 26.1121 1792.86 26.1121 Z" fill="#000000" fill-rule="nonzero" fill-opacity="1" /><path clip-path="url(#clip010)" d="M1859.62 65.7705 L1859.62 89.8329 L1852.12 89.8329 L1852.12 27.2059 L1859.62 27.2059 L1859.62 34.0924 Q1861.97 30.0415 1865.53 28.0971 Q1869.14 26.1121 1874.12 26.1121 Q1882.38 26.1121 1887.53 32.6746 Q1892.71 39.2371 1892.71 49.9314 Q1892.71 60.6258 1887.53 67.1883 Q1882.38 73.7508 1874.12 73.7508 Q1869.14 73.7508 1865.53 71.8063 Q1861.97 69.8214 1859.62 65.7705 M1884.98 49.9314 Q1884.98 41.7081 1881.57 37.0496 Q1878.21 32.3505 1872.3 32.3505 Q1866.38 32.3505 1862.98 37.0496 Q1859.62 41.7081 1859.62 49.9314 Q1859.62 58.1548 1862.98 62.8538 Q1866.38 67.5124 1872.3 67.5124 Q1878.21 67.5124 1881.57 62.8538 Q1884.98 58.1548 1884.98 49.9314 Z" fill="#000000" fill-rule="nonzero" fill-opacity="1" /><path clip-path="url(#clip010)" d="M1931.36 34.1734 Q1930.1 33.4443 1928.6 33.1202 Q1927.15 32.7556 1925.36 32.7556 Q1919.04 32.7556 1915.64 36.8875 Q1912.28 40.9789 1912.28 48.6757 L1912.28 72.576 L1904.79 72.576 L1904.79 27.2059 L1912.28 27.2059 L1912.28 34.2544 Q1914.63 30.1225 1918.4 28.1376 Q1922.16 26.1121 1927.55 26.1121 Q1928.32 26.1121 1929.25 26.2337 Q1930.18 26.3147 1931.32 26.5172 L1931.36 34.1734 Z" fill="#000000" fill-rule="nonzero" fill-opacity="1" /><path clip-path="url(#clip010)" d="M1939.18 27.2059 L1946.63 27.2059 L1946.63 72.576 L1939.18 72.576 L1939.18 27.2059 M1939.18 9.54393 L1946.63 9.54393 L1946.63 18.9825 L1939.18 18.9825 L1939.18 9.54393 Z" fill="#000000" fill-rule="nonzero" fill-opacity="1" /><path clip-path="url(#clip010)" d="M1999.94 45.1919 L1999.94 72.576 L1992.49 72.576 L1992.49 45.4349 Q1992.49 38.994 1989.98 35.7938 Q1987.46 32.5936 1982.44 32.5936 Q1976.41 32.5936 1972.92 36.4419 Q1969.44 40.2903 1969.44 46.9338 L1969.44 72.576 L1961.94 72.576 L1961.94 27.2059 L1969.44 27.2059 L1969.44 34.2544 Q1972.11 30.163 1975.72 28.1376 Q1979.36 26.1121 1984.1 26.1121 Q1991.92 26.1121 1995.93 30.9732 Q1999.94 35.7938 1999.94 45.1919 Z" fill="#000000" fill-rule="nonzero" fill-opacity="1" /><path clip-path="url(#clip010)" d="M2047.46 28.9478 L2047.46 35.9153 Q2044.3 34.1734 2041.1 33.3227 Q2037.94 32.4315 2034.7 32.4315 Q2027.45 32.4315 2023.44 37.0496 Q2019.43 41.6271 2019.43 49.9314 Q2019.43 58.2358 2023.44 62.8538 Q2027.45 67.4314 2034.7 67.4314 Q2037.94 67.4314 2041.1 66.5807 Q2044.3 65.6895 2047.46 63.9476 L2047.46 70.8341 Q2044.34 72.2924 2040.98 73.0216 Q2037.66 73.7508 2033.89 73.7508 Q2023.64 73.7508 2017.6 67.3098 Q2011.57 60.8689 2011.57 49.9314 Q2011.57 38.832 2017.64 32.472 Q2023.76 26.1121 2034.37 26.1121 Q2037.82 26.1121 2041.1 26.8413 Q2044.38 27.5299 2047.46 28.9478 Z" fill="#000000" fill-rule="nonzero" fill-opacity="1" /><path clip-path="url(#clip010)" d="M2060.42 27.2059 L2067.87 27.2059 L2067.87 72.576 L2060.42 72.576 L2060.42 27.2059 M2060.42 9.54393 L2067.87 9.54393 L2067.87 18.9825 L2060.42 18.9825 L2060.42 9.54393 Z" fill="#000000" fill-rule="nonzero" fill-opacity="1" /><path clip-path="url(#clip010)" d="M2090.68 65.7705 L2090.68 89.8329 L2083.19 89.8329 L2083.19 27.2059 L2090.68 27.2059 L2090.68 34.0924 Q2093.03 30.0415 2096.6 28.0971 Q2100.2 26.1121 2105.18 26.1121 Q2113.45 26.1121 2118.59 32.6746 Q2123.78 39.2371 2123.78 49.9314 Q2123.78 60.6258 2118.59 67.1883 Q2113.45 73.7508 2105.18 73.7508 Q2100.2 73.7508 2096.6 71.8063 Q2093.03 69.8214 2090.68 65.7705 M2116.04 49.9314 Q2116.04 41.7081 2112.64 37.0496 Q2109.28 32.3505 2103.36 32.3505 Q2097.45 32.3505 2094.04 37.0496 Q2090.68 41.7081 2090.68 49.9314 Q2090.68 58.1548 2094.04 62.8538 Q2097.45 67.5124 2103.36 67.5124 Q2109.28 67.5124 2112.64 62.8538 Q2116.04 58.1548 2116.04 49.9314 Z" fill="#000000" fill-rule="nonzero" fill-opacity="1" /><path clip-path="url(#clip010)" d="M2156.75 49.7694 Q2147.72 49.7694 2144.23 51.8354 Q2140.75 53.9013 2140.75 58.8839 Q2140.75 62.8538 2143.34 65.2034 Q2145.98 67.5124 2150.47 67.5124 Q2156.67 67.5124 2160.4 63.1374 Q2164.16 58.7219 2164.16 51.4303 L2164.16 49.7694 L2156.75 49.7694 M2171.62 46.6907 L2171.62 72.576 L2164.16 72.576 L2164.16 65.6895 Q2161.61 69.8214 2157.8 71.8063 Q2154 73.7508 2148.49 73.7508 Q2141.52 73.7508 2137.39 69.8619 Q2133.3 65.9325 2133.3 59.3701 Q2133.3 51.7138 2138.4 47.825 Q2143.55 43.9361 2153.71 43.9361 L2164.16 43.9361 L2164.16 43.2069 Q2164.16 38.0623 2160.76 35.2672 Q2157.4 32.4315 2151.28 32.4315 Q2147.39 32.4315 2143.71 33.3632 Q2140.02 34.295 2136.62 36.1584 L2136.62 29.2718 Q2140.71 27.692 2144.56 26.9223 Q2148.41 26.1121 2152.05 26.1121 Q2161.9 26.1121 2166.76 31.2163 Q2171.62 36.3204 2171.62 46.6907 Z" fill="#000000" fill-rule="nonzero" fill-opacity="1" /><path clip-path="url(#clip010)" d="M2186.97 9.54393 L2194.43 9.54393 L2194.43 72.576 L2186.97 72.576 L2186.97 9.54393 Z" fill="#000000" fill-rule="nonzero" fill-opacity="1" /><path clip-path="url(#clip010)" d="M2269.04 28.9478 L2269.04 35.9153 Q2265.88 34.1734 2262.68 33.3227 Q2259.52 32.4315 2256.28 32.4315 Q2249.03 32.4315 2245.02 37.0496 Q2241.01 41.6271 2241.01 49.9314 Q2241.01 58.2358 2245.02 62.8538 Q2249.03 67.4314 2256.28 67.4314 Q2259.52 67.4314 2262.68 66.5807 Q2265.88 65.6895 2269.04 63.9476 L2269.04 70.8341 Q2265.92 72.2924 2262.56 73.0216 Q2259.24 73.7508 2255.47 73.7508 Q2245.22 73.7508 2239.19 67.3098 Q2233.15 60.8689 2233.15 49.9314 Q2233.15 38.832 2239.23 32.472 Q2245.34 26.1121 2255.96 26.1121 Q2259.4 26.1121 2262.68 26.8413 Q2265.96 27.5299 2269.04 28.9478 Z" fill="#000000" fill-rule="nonzero" fill-opacity="1" /><path clip-path="url(#clip010)" d="M2299.59 32.4315 Q2293.59 32.4315 2290.11 37.1306 Q2286.62 41.7891 2286.62 49.9314 Q2286.62 58.0738 2290.07 62.7728 Q2293.55 67.4314 2299.59 67.4314 Q2305.54 67.4314 2309.03 62.7323 Q2312.51 58.0333 2312.51 49.9314 Q2312.51 41.8701 2309.03 37.1711 Q2305.54 32.4315 2299.59 32.4315 M2299.59 26.1121 Q2309.31 26.1121 2314.86 32.4315 Q2320.41 38.7509 2320.41 49.9314 Q2320.41 61.0714 2314.86 67.4314 Q2309.31 73.7508 2299.59 73.7508 Q2289.82 73.7508 2284.27 67.4314 Q2278.76 61.0714 2278.76 49.9314 Q2278.76 38.7509 2284.27 32.4315 Q2289.82 26.1121 2299.59 26.1121 Z" fill="#000000" fill-rule="nonzero" fill-opacity="1" /><path clip-path="url(#clip010)" d="M2368.09 35.9153 Q2370.88 30.8922 2374.77 28.5022 Q2378.66 26.1121 2383.93 26.1121 Q2391.02 26.1121 2394.86 31.0947 Q2398.71 36.0368 2398.71 45.1919 L2398.71 72.576 L2391.22 72.576 L2391.22 45.4349 Q2391.22 38.913 2388.91 35.7533 Q2386.6 32.5936 2381.86 32.5936 Q2376.07 32.5936 2372.71 36.4419 Q2369.34 40.2903 2369.34 46.9338 L2369.34 72.576 L2361.85 72.576 L2361.85 45.4349 Q2361.85 38.8725 2359.54 35.7533 Q2357.23 32.5936 2352.41 32.5936 Q2346.7 32.5936 2343.34 36.4824 Q2339.97 40.3308 2339.97 46.9338 L2339.97 72.576 L2332.48 72.576 L2332.48 27.2059 L2339.97 27.2059 L2339.97 34.2544 Q2342.53 30.082 2346.09 28.0971 Q2349.66 26.1121 2354.56 26.1121 Q2359.5 26.1121 2362.94 28.6237 Q2366.43 31.1352 2368.09 35.9153 Z" fill="#000000" fill-rule="nonzero" fill-opacity="1" /><path clip-path="url(#clip010)" d="M2420.79 65.7705 L2420.79 89.8329 L2413.3 89.8329 L2413.3 27.2059 L2420.79 27.2059 L2420.79 34.0924 Q2423.14 30.0415 2426.7 28.0971 Q2430.31 26.1121 2435.29 26.1121 Q2443.56 26.1121 2448.7 32.6746 Q2453.89 39.2371 2453.89 49.9314 Q2453.89 60.6258 2448.7 67.1883 Q2443.56 73.7508 2435.29 73.7508 Q2430.31 73.7508 2426.7 71.8063 Q2423.14 69.8214 2420.79 65.7705 M2446.15 49.9314 Q2446.15 41.7081 2442.75 37.0496 Q2439.38 32.3505 2433.47 32.3505 Q2427.55 32.3505 2424.15 37.0496 Q2420.79 41.7081 2420.79 49.9314 Q2420.79 58.1548 2424.15 62.8538 Q2427.55 67.5124 2433.47 67.5124 Q2439.38 67.5124 2442.75 62.8538 Q2446.15 58.1548 2446.15 49.9314 Z" fill="#000000" fill-rule="nonzero" fill-opacity="1" /><path clip-path="url(#clip010)" d="M2483.82 32.4315 Q2477.83 32.4315 2474.34 37.1306 Q2470.86 41.7891 2470.86 49.9314 Q2470.86 58.0738 2474.3 62.7728 Q2477.79 67.4314 2483.82 67.4314 Q2489.78 67.4314 2493.26 62.7323 Q2496.74 58.0333 2496.74 49.9314 Q2496.74 41.8701 2493.26 37.1711 Q2489.78 32.4315 2483.82 32.4315 M2483.82 26.1121 Q2493.54 26.1121 2499.09 32.4315 Q2504.64 38.7509 2504.64 49.9314 Q2504.64 61.0714 2499.09 67.4314 Q2493.54 73.7508 2483.82 73.7508 Q2474.06 73.7508 2468.51 67.4314 Q2463 61.0714 2463 49.9314 Q2463 38.7509 2468.51 32.4315 Q2474.06 26.1121 2483.82 26.1121 Z" fill="#000000" fill-rule="nonzero" fill-opacity="1" /><path clip-path="url(#clip010)" d="M2554.71 45.1919 L2554.71 72.576 L2547.26 72.576 L2547.26 45.4349 Q2547.26 38.994 2544.75 35.7938 Q2542.24 32.5936 2537.21 32.5936 Q2531.18 32.5936 2527.69 36.4419 Q2524.21 40.2903 2524.21 46.9338 L2524.21 72.576 L2516.71 72.576 L2516.71 27.2059 L2524.21 27.2059 L2524.21 34.2544 Q2526.88 30.163 2530.49 28.1376 Q2534.13 26.1121 2538.87 26.1121 Q2546.69 26.1121 2550.7 30.9732 Q2554.71 35.7938 2554.71 45.1919 Z" fill="#000000" fill-rule="nonzero" fill-opacity="1" /><path clip-path="url(#clip010)" d="M2608.39 48.0275 L2608.39 51.6733 L2574.12 51.6733 Q2574.6 59.3701 2578.73 63.421 Q2582.91 67.4314 2590.32 67.4314 Q2594.61 67.4314 2598.62 66.3781 Q2602.68 65.3249 2606.65 63.2184 L2606.65 70.267 Q2602.63 71.9684 2598.42 72.8596 Q2594.21 73.7508 2589.87 73.7508 Q2579.02 73.7508 2572.66 67.4314 Q2566.34 61.1119 2566.34 50.3365 Q2566.34 39.1965 2572.33 32.6746 Q2578.37 26.1121 2588.58 26.1121 Q2597.73 26.1121 2603.04 32.0264 Q2608.39 37.9003 2608.39 48.0275 M2600.93 45.84 Q2600.85 39.7232 2597.49 36.0774 Q2594.17 32.4315 2588.66 32.4315 Q2582.42 32.4315 2578.65 35.9558 Q2574.93 39.4801 2574.36 45.8805 L2600.93 45.84 Z" fill="#000000" fill-rule="nonzero" fill-opacity="1" /><path clip-path="url(#clip010)" d="M2658.33 45.1919 L2658.33 72.576 L2650.88 72.576 L2650.88 45.4349 Q2650.88 38.994 2648.37 35.7938 Q2645.86 32.5936 2640.83 32.5936 Q2634.8 32.5936 2631.32 36.4419 Q2627.83 40.2903 2627.83 46.9338 L2627.83 72.576 L2620.34 72.576 L2620.34 27.2059 L2627.83 27.2059 L2627.83 34.2544 Q2630.5 30.163 2634.11 28.1376 Q2637.76 26.1121 2642.5 26.1121 Q2650.31 26.1121 2654.32 30.9732 Q2658.33 35.7938 2658.33 45.1919 Z" fill="#000000" fill-rule="nonzero" fill-opacity="1" /><path clip-path="url(#clip010)" d="M2680.57 14.324 L2680.57 27.2059 L2695.93 27.2059 L2695.93 32.9987 L2680.57 32.9987 L2680.57 57.6282 Q2680.57 63.1779 2682.07 64.7578 Q2683.61 66.3376 2688.27 66.3376 L2695.93 66.3376 L2695.93 72.576 L2688.27 72.576 Q2679.64 72.576 2676.36 69.3758 Q2673.08 66.1351 2673.08 57.6282 L2673.08 32.9987 L2667.61 32.9987 L2667.61 27.2059 L2673.08 27.2059 L2673.08 14.324 L2680.57 14.324 Z" fill="#000000" fill-rule="nonzero" fill-opacity="1" /><path clip-path="url(#clip010)" d="M2734.65 28.5427 L2734.65 35.5912 Q2731.49 33.9709 2728.09 33.1607 Q2724.69 32.3505 2721.04 32.3505 Q2715.49 32.3505 2712.7 34.0519 Q2709.94 35.7533 2709.94 39.156 Q2709.94 41.7486 2711.93 43.2475 Q2713.91 44.7058 2719.91 46.0426 L2722.46 46.6097 Q2730.4 48.3111 2733.72 51.4303 Q2737.08 54.509 2737.08 60.0587 Q2737.08 66.3781 2732.06 70.0644 Q2727.08 73.7508 2718.33 73.7508 Q2714.68 73.7508 2710.71 73.0216 Q2706.78 72.3329 2702.41 70.9151 L2702.41 63.2184 Q2706.54 65.3654 2710.55 66.4591 Q2714.56 67.5124 2718.49 67.5124 Q2723.76 67.5124 2726.59 65.73 Q2729.43 63.9071 2729.43 60.6258 Q2729.43 57.5877 2727.36 55.9673 Q2725.34 54.3469 2718.41 52.8481 L2715.82 52.2405 Q2708.89 50.7821 2705.81 47.7845 Q2702.73 44.7463 2702.73 39.4801 Q2702.73 33.0797 2707.27 29.5959 Q2711.81 26.1121 2720.15 26.1121 Q2724.28 26.1121 2727.93 26.7198 Q2731.57 27.3274 2734.65 28.5427 Z" fill="#000000" fill-rule="nonzero" fill-opacity="1" /><circle clip-path="url(#clip012)" cx="953.373" cy="1240.47" r="14.4" fill="#009af9" fill-rule="evenodd" fill-opacity="1" stroke="#000000" stroke-opacity="1" stroke-width="3.84"/>
<circle clip-path="url(#clip012)" cx="2403.58" cy="1203.77" r="14.4" fill="#009af9" fill-rule="evenodd" fill-opacity="1" stroke="#000000" stroke-opacity="1" stroke-width="3.84"/>
<circle clip-path="url(#clip012)" cx="2572.71" cy="1077.83" r="14.4" fill="#009af9" fill-rule="evenodd" fill-opacity="1" stroke="#000000" stroke-opacity="1" stroke-width="3.84"/>
<circle clip-path="url(#clip012)" cx="1457.8" cy="1089.22" r="14.4" fill="#009af9" fill-rule="evenodd" fill-opacity="1" stroke="#000000" stroke-opacity="1" stroke-width="3.84"/>
<circle clip-path="url(#clip012)" cx="1834.67" cy="1286.5" r="14.4" fill="#009af9" fill-rule="evenodd" fill-opacity="1" stroke="#000000" stroke-opacity="1" stroke-width="3.84"/>
<circle clip-path="url(#clip012)" cx="628.058" cy="1188.48" r="14.4" fill="#009af9" fill-rule="evenodd" fill-opacity="1" stroke="#000000" stroke-opacity="1" stroke-width="3.84"/>
<circle clip-path="url(#clip012)" cx="736.005" cy="1254.43" r="14.4" fill="#009af9" fill-rule="evenodd" fill-opacity="1" stroke="#000000" stroke-opacity="1" stroke-width="3.84"/>
<circle clip-path="url(#clip012)" cx="1797.52" cy="1688.65" r="14.4" fill="#009af9" fill-rule="evenodd" fill-opacity="1" stroke="#000000" stroke-opacity="1" stroke-width="3.84"/>
<circle clip-path="url(#clip012)" cx="1316.79" cy="952.43" r="14.4" fill="#009af9" fill-rule="evenodd" fill-opacity="1" stroke="#000000" stroke-opacity="1" stroke-width="3.84"/>
<circle clip-path="url(#clip012)" cx="2421.78" cy="1097.43" r="14.4" fill="#009af9" fill-rule="evenodd" fill-opacity="1" stroke="#000000" stroke-opacity="1" stroke-width="3.84"/>
<circle clip-path="url(#clip012)" cx="991.081" cy="1185.44" r="14.4" fill="#009af9" fill-rule="evenodd" fill-opacity="1" stroke="#000000" stroke-opacity="1" stroke-width="3.84"/>
<circle clip-path="url(#clip012)" cx="1813.15" cy="173.254" r="14.4" fill="#009af9" fill-rule="evenodd" fill-opacity="1" stroke="#000000" stroke-opacity="1" stroke-width="3.84"/>
<circle clip-path="url(#clip012)" cx="1308.53" cy="1188.99" r="14.4" fill="#009af9" fill-rule="evenodd" fill-opacity="1" stroke="#000000" stroke-opacity="1" stroke-width="3.84"/>
<circle clip-path="url(#clip012)" cx="2381.72" cy="1130.17" r="14.4" fill="#009af9" fill-rule="evenodd" fill-opacity="1" stroke="#000000" stroke-opacity="1" stroke-width="3.84"/>
<circle clip-path="url(#clip012)" cx="746.959" cy="1256.42" r="14.4" fill="#009af9" fill-rule="evenodd" fill-opacity="1" stroke="#000000" stroke-opacity="1" stroke-width="3.84"/>
<circle clip-path="url(#clip012)" cx="2170.77" cy="1497.42" r="14.4" fill="#009af9" fill-rule="evenodd" fill-opacity="1" stroke="#000000" stroke-opacity="1" stroke-width="3.84"/>
<circle clip-path="url(#clip012)" cx="2254.85" cy="854.179" r="14.4" fill="#009af9" fill-rule="evenodd" fill-opacity="1" stroke="#000000" stroke-opacity="1" stroke-width="3.84"/>
<circle clip-path="url(#clip012)" cx="2412.69" cy="1199.97" r="14.4" fill="#009af9" fill-rule="evenodd" fill-opacity="1" stroke="#000000" stroke-opacity="1" stroke-width="3.84"/>
<circle clip-path="url(#clip012)" cx="791.725" cy="1202.88" r="14.4" fill="#009af9" fill-rule="evenodd" fill-opacity="1" stroke="#000000" stroke-opacity="1" stroke-width="3.84"/>
<circle clip-path="url(#clip012)" cx="844.289" cy="1119.73" r="14.4" fill="#009af9" fill-rule="evenodd" fill-opacity="1" stroke="#000000" stroke-opacity="1" stroke-width="3.84"/>
<circle clip-path="url(#clip012)" cx="875.878" cy="1100.66" r="14.4" fill="#009af9" fill-rule="evenodd" fill-opacity="1" stroke="#000000" stroke-opacity="1" stroke-width="3.84"/>
<circle clip-path="url(#clip012)" cx="944.657" cy="1099.65" r="14.4" fill="#009af9" fill-rule="evenodd" fill-opacity="1" stroke="#000000" stroke-opacity="1" stroke-width="3.84"/>
<circle clip-path="url(#clip012)" cx="1186.33" cy="1148.99" r="14.4" fill="#009af9" fill-rule="evenodd" fill-opacity="1" stroke="#000000" stroke-opacity="1" stroke-width="3.84"/>
<circle clip-path="url(#clip012)" cx="2574.3" cy="933.204" r="14.4" fill="#009af9" fill-rule="evenodd" fill-opacity="1" stroke="#000000" stroke-opacity="1" stroke-width="3.84"/>
<circle clip-path="url(#clip012)" cx="981.481" cy="984.461" r="14.4" fill="#009af9" fill-rule="evenodd" fill-opacity="1" stroke="#000000" stroke-opacity="1" stroke-width="3.84"/>
<circle clip-path="url(#clip012)" cx="2464.69" cy="1049.01" r="14.4" fill="#009af9" fill-rule="evenodd" fill-opacity="1" stroke="#000000" stroke-opacity="1" stroke-width="3.84"/>
<circle clip-path="url(#clip012)" cx="1191.71" cy="1233.66" r="14.4" fill="#e26f46" fill-rule="evenodd" fill-opacity="1" stroke="#000000" stroke-opacity="1" stroke-width="3.84"/>
<circle clip-path="url(#clip012)" cx="999.506" cy="1230.2" r="14.4" fill="#e26f46" fill-rule="evenodd" fill-opacity="1" stroke="#000000" stroke-opacity="1" stroke-width="3.84"/>
<circle clip-path="url(#clip012)" cx="913.644" cy="816.991" r="14.4" fill="#e26f46" fill-rule="evenodd" fill-opacity="1" stroke="#000000" stroke-opacity="1" stroke-width="3.84"/>
<circle clip-path="url(#clip012)" cx="808.656" cy="958.139" r="14.4" fill="#e26f46" fill-rule="evenodd" fill-opacity="1" stroke="#000000" stroke-opacity="1" stroke-width="3.84"/>
<circle clip-path="url(#clip012)" cx="985.038" cy="1028.45" r="14.4" fill="#e26f46" fill-rule="evenodd" fill-opacity="1" stroke="#000000" stroke-opacity="1" stroke-width="3.84"/>
<circle clip-path="url(#clip012)" cx="907.039" cy="1029.44" r="14.4" fill="#e26f46" fill-rule="evenodd" fill-opacity="1" stroke="#000000" stroke-opacity="1" stroke-width="3.84"/>
<circle clip-path="url(#clip012)" cx="729.254" cy="1117.32" r="14.4" fill="#e26f46" fill-rule="evenodd" fill-opacity="1" stroke="#000000" stroke-opacity="1" stroke-width="3.84"/>
<circle clip-path="url(#clip012)" cx="798.381" cy="1199.97" r="14.4" fill="#e26f46" fill-rule="evenodd" fill-opacity="1" stroke="#000000" stroke-opacity="1" stroke-width="3.84"/>
<circle clip-path="url(#clip012)" cx="944.422" cy="1142.93" r="14.4" fill="#e26f46" fill-rule="evenodd" fill-opacity="1" stroke="#000000" stroke-opacity="1" stroke-width="3.84"/>
<circle clip-path="url(#clip012)" cx="866.849" cy="801.697" r="14.4" fill="#e26f46" fill-rule="evenodd" fill-opacity="1" stroke="#000000" stroke-opacity="1" stroke-width="3.84"/>
<circle clip-path="url(#clip012)" cx="922.923" cy="994.951" r="14.4" fill="#e26f46" fill-rule="evenodd" fill-opacity="1" stroke="#000000" stroke-opacity="1" stroke-width="3.84"/>
<circle clip-path="url(#clip012)" cx="742.213" cy="1252.59" r="14.4" fill="#e26f46" fill-rule="evenodd" fill-opacity="1" stroke="#000000" stroke-opacity="1" stroke-width="3.84"/>
<circle clip-path="url(#clip012)" cx="1157.24" cy="1092.27" r="14.4" fill="#e26f46" fill-rule="evenodd" fill-opacity="1" stroke="#000000" stroke-opacity="1" stroke-width="3.84"/>
<circle clip-path="url(#clip012)" cx="842.927" cy="1137.4" r="14.4" fill="#e26f46" fill-rule="evenodd" fill-opacity="1" stroke="#000000" stroke-opacity="1" stroke-width="3.84"/>
<circle clip-path="url(#clip012)" cx="814.15" cy="738.343" r="14.4" fill="#e26f46" fill-rule="evenodd" fill-opacity="1" stroke="#000000" stroke-opacity="1" stroke-width="3.84"/>
<circle clip-path="url(#clip012)" cx="1121.65" cy="1182.02" r="14.4" fill="#e26f46" fill-rule="evenodd" fill-opacity="1" stroke="#000000" stroke-opacity="1" stroke-width="3.84"/>
<circle clip-path="url(#clip012)" cx="567.923" cy="1089.61" r="14.4" fill="#e26f46" fill-rule="evenodd" fill-opacity="1" stroke="#000000" stroke-opacity="1" stroke-width="3.84"/>
<circle clip-path="url(#clip012)" cx="936.379" cy="1143.31" r="14.4" fill="#e26f46" fill-rule="evenodd" fill-opacity="1" stroke="#000000" stroke-opacity="1" stroke-width="3.84"/>
<circle clip-path="url(#clip012)" cx="881.657" cy="1165.8" r="14.4" fill="#e26f46" fill-rule="evenodd" fill-opacity="1" stroke="#000000" stroke-opacity="1" stroke-width="3.84"/>
<circle clip-path="url(#clip012)" cx="1137.95" cy="1248.4" r="14.4" fill="#e26f46" fill-rule="evenodd" fill-opacity="1" stroke="#000000" stroke-opacity="1" stroke-width="3.84"/>
<circle clip-path="url(#clip012)" cx="563.606" cy="1027.2" r="14.4" fill="#e26f46" fill-rule="evenodd" fill-opacity="1" stroke="#000000" stroke-opacity="1" stroke-width="3.84"/>
<circle clip-path="url(#clip012)" cx="855.027" cy="1055.89" r="14.4" fill="#e26f46" fill-rule="evenodd" fill-opacity="1" stroke="#000000" stroke-opacity="1" stroke-width="3.84"/>
<circle clip-path="url(#clip012)" cx="800.714" cy="1045.4" r="14.4" fill="#e26f46" fill-rule="evenodd" fill-opacity="1" stroke="#000000" stroke-opacity="1" stroke-width="3.84"/>
<circle clip-path="url(#clip012)" cx="359.101" cy="1156.66" r="14.4" fill="#e26f46" fill-rule="evenodd" fill-opacity="1" stroke="#000000" stroke-opacity="1" stroke-width="3.84"/>
<circle clip-path="url(#clip012)" cx="847.804" cy="1097.77" r="14.4" fill="#e26f46" fill-rule="evenodd" fill-opacity="1" stroke="#000000" stroke-opacity="1" stroke-width="3.84"/>
<circle clip-path="url(#clip012)" cx="516.293" cy="1038.34" r="14.4" fill="#e26f46" fill-rule="evenodd" fill-opacity="1" stroke="#000000" stroke-opacity="1" stroke-width="3.84"/>
<circle clip-path="url(#clip012)" cx="644.454" cy="1119.23" r="14.4" fill="#e26f46" fill-rule="evenodd" fill-opacity="1" stroke="#000000" stroke-opacity="1" stroke-width="3.84"/>
<path clip-path="url(#clip010)" d="M2108 336.856 L2562.49 336.856 L2562.49 181.336 L2108 181.336  Z" fill="#ffffff" fill-rule="evenodd" fill-opacity="1"/>
<polyline clip-path="url(#clip010)" style="stroke:#000000; stroke-linecap:round; stroke-linejoin:round; stroke-width:4; stroke-opacity:1; fill:none" points="2108,336.856 2562.49,336.856 2562.49,181.336 2108,181.336 2108,336.856 "/>
<circle clip-path="url(#clip010)" cx="2212.36" cy="233.176" r="20.48" fill="#009af9" fill-rule="evenodd" fill-opacity="1" stroke="#000000" stroke-opacity="1" stroke-width="5.46133"/>
<path clip-path="url(#clip010)" d="M2335.63 237.192 Q2335.63 232.563 2333.71 230.017 Q2331.81 227.47 2328.36 227.47 Q2324.94 227.47 2323.02 230.017 Q2321.12 232.563 2321.12 237.192 Q2321.12 241.799 2323.02 244.345 Q2324.94 246.891 2328.36 246.891 Q2331.81 246.891 2333.71 244.345 Q2335.63 241.799 2335.63 237.192 M2339.89 247.239 Q2339.89 253.859 2336.95 257.077 Q2334.01 260.317 2327.95 260.317 Q2325.7 260.317 2323.71 259.97 Q2321.72 259.646 2319.85 258.952 L2319.85 254.808 Q2321.72 255.827 2323.55 256.313 Q2325.38 256.799 2327.28 256.799 Q2331.47 256.799 2333.55 254.6 Q2335.63 252.424 2335.63 248.003 L2335.63 245.896 Q2334.31 248.188 2332.25 249.322 Q2330.19 250.456 2327.32 250.456 Q2322.55 250.456 2319.64 246.822 Q2316.72 243.188 2316.72 237.192 Q2316.72 231.174 2319.64 227.54 Q2322.55 223.906 2327.32 223.906 Q2330.19 223.906 2332.25 225.04 Q2334.31 226.174 2335.63 228.466 L2335.63 224.531 L2339.89 224.531 L2339.89 247.239 Z" fill="#000000" fill-rule="nonzero" fill-opacity="1" /><path clip-path="url(#clip010)" d="M2370.84 236.429 L2370.84 238.512 L2351.26 238.512 Q2351.54 242.91 2353.9 245.225 Q2356.28 247.516 2360.52 247.516 Q2362.97 247.516 2365.26 246.915 Q2367.58 246.313 2369.85 245.109 L2369.85 249.137 Q2367.55 250.109 2365.15 250.618 Q2362.74 251.128 2360.26 251.128 Q2354.06 251.128 2350.42 247.516 Q2346.81 243.905 2346.81 237.748 Q2346.81 231.382 2350.24 227.655 Q2353.69 223.906 2359.52 223.906 Q2364.75 223.906 2367.79 227.285 Q2370.84 230.642 2370.84 236.429 M2366.58 235.179 Q2366.54 231.683 2364.61 229.6 Q2362.72 227.517 2359.57 227.517 Q2356 227.517 2353.85 229.53 Q2351.72 231.544 2351.4 235.202 L2366.58 235.179 Z" fill="#000000" fill-rule="nonzero" fill-opacity="1" /><path clip-path="url(#clip010)" d="M2394.36 225.294 L2394.36 229.322 Q2392.55 228.396 2390.61 227.933 Q2388.66 227.47 2386.58 227.47 Q2383.41 227.47 2381.81 228.443 Q2380.24 229.415 2380.24 231.359 Q2380.24 232.841 2381.37 233.697 Q2382.51 234.53 2385.93 235.294 L2387.39 235.618 Q2391.93 236.591 2393.83 238.373 Q2395.75 240.132 2395.75 243.304 Q2395.75 246.915 2392.88 249.021 Q2390.03 251.128 2385.03 251.128 Q2382.95 251.128 2380.68 250.711 Q2378.43 250.317 2375.93 249.507 L2375.93 245.109 Q2378.29 246.336 2380.59 246.961 Q2382.88 247.563 2385.12 247.563 Q2388.13 247.563 2389.75 246.544 Q2391.37 245.503 2391.37 243.628 Q2391.37 241.892 2390.19 240.966 Q2389.04 240.04 2385.08 239.183 L2383.6 238.836 Q2379.64 238.003 2377.88 236.29 Q2376.12 234.554 2376.12 231.544 Q2376.12 227.887 2378.71 225.896 Q2381.3 223.906 2386.07 223.906 Q2388.43 223.906 2390.52 224.253 Q2392.6 224.6 2394.36 225.294 Z" fill="#000000" fill-rule="nonzero" fill-opacity="1" /><path clip-path="url(#clip010)" d="M2406.74 217.169 L2406.74 224.531 L2415.52 224.531 L2415.52 227.841 L2406.74 227.841 L2406.74 241.915 Q2406.74 245.086 2407.6 245.989 Q2408.48 246.891 2411.14 246.891 L2415.52 246.891 L2415.52 250.456 L2411.14 250.456 Q2406.21 250.456 2404.34 248.628 Q2402.46 246.776 2402.46 241.915 L2402.46 227.841 L2399.34 227.841 L2399.34 224.531 L2402.46 224.531 L2402.46 217.169 L2406.74 217.169 Z" fill="#000000" fill-rule="nonzero" fill-opacity="1" /><path clip-path="url(#clip010)" d="M2420.68 240.225 L2420.68 224.531 L2424.94 224.531 L2424.94 240.063 Q2424.94 243.743 2426.37 245.595 Q2427.81 247.424 2430.68 247.424 Q2434.13 247.424 2436.12 245.225 Q2438.13 243.026 2438.13 239.229 L2438.13 224.531 L2442.39 224.531 L2442.39 250.456 L2438.13 250.456 L2438.13 246.475 Q2436.58 248.836 2434.52 249.993 Q2432.48 251.128 2429.78 251.128 Q2425.31 251.128 2422.99 248.35 Q2420.68 245.572 2420.68 240.225 M2431.4 223.906 L2431.4 223.906 Z" fill="#000000" fill-rule="nonzero" fill-opacity="1" /><path clip-path="url(#clip010)" d="M2466.19 228.512 Q2465.47 228.095 2464.61 227.91 Q2463.78 227.702 2462.76 227.702 Q2459.15 227.702 2457.21 230.063 Q2455.28 232.401 2455.28 236.799 L2455.28 250.456 L2451 250.456 L2451 224.531 L2455.28 224.531 L2455.28 228.558 Q2456.63 226.197 2458.78 225.063 Q2460.93 223.906 2464.01 223.906 Q2464.45 223.906 2464.98 223.975 Q2465.52 224.021 2466.16 224.137 L2466.19 228.512 Z" fill="#000000" fill-rule="nonzero" fill-opacity="1" /><path clip-path="url(#clip010)" d="M2491.79 236.429 L2491.79 238.512 L2472.21 238.512 Q2472.48 242.91 2474.84 245.225 Q2477.23 247.516 2481.47 247.516 Q2483.92 247.516 2486.21 246.915 Q2488.53 246.313 2490.79 245.109 L2490.79 249.137 Q2488.5 250.109 2486.09 250.618 Q2483.69 251.128 2481.21 251.128 Q2475.01 251.128 2471.37 247.516 Q2467.76 243.905 2467.76 237.748 Q2467.76 231.382 2471.19 227.655 Q2474.64 223.906 2480.47 223.906 Q2485.7 223.906 2488.73 227.285 Q2491.79 230.642 2491.79 236.429 M2487.53 235.179 Q2487.48 231.683 2485.56 229.6 Q2483.66 227.517 2480.52 227.517 Q2476.95 227.517 2474.8 229.53 Q2472.67 231.544 2472.34 235.202 L2487.53 235.179 Z" fill="#000000" fill-rule="nonzero" fill-opacity="1" /><path clip-path="url(#clip010)" d="M2524.45 218.975 Q2520.84 218.975 2519.01 222.54 Q2517.21 226.081 2517.21 233.211 Q2517.21 240.317 2519.01 243.882 Q2520.84 247.424 2524.45 247.424 Q2528.09 247.424 2529.89 243.882 Q2531.72 240.317 2531.72 233.211 Q2531.72 226.081 2529.89 222.54 Q2528.09 218.975 2524.45 218.975 M2524.45 215.271 Q2530.26 215.271 2533.32 219.878 Q2536.4 224.461 2536.4 233.211 Q2536.4 241.938 2533.32 246.544 Q2530.26 251.128 2524.45 251.128 Q2518.64 251.128 2515.56 246.544 Q2512.51 241.938 2512.51 233.211 Q2512.51 224.461 2515.56 219.878 Q2518.64 215.271 2524.45 215.271 Z" fill="#000000" fill-rule="nonzero" fill-opacity="1" /><circle clip-path="url(#clip010)" cx="2212.36" cy="285.016" r="20.48" fill="#e26f46" fill-rule="evenodd" fill-opacity="1" stroke="#000000" stroke-opacity="1" stroke-width="5.46133"/>
<path clip-path="url(#clip010)" d="M2335.63 289.032 Q2335.63 284.403 2333.71 281.857 Q2331.81 279.31 2328.36 279.31 Q2324.94 279.31 2323.02 281.857 Q2321.12 284.403 2321.12 289.032 Q2321.12 293.639 2323.02 296.185 Q2324.94 298.731 2328.36 298.731 Q2331.81 298.731 2333.71 296.185 Q2335.63 293.639 2335.63 289.032 M2339.89 299.079 Q2339.89 305.699 2336.95 308.917 Q2334.01 312.157 2327.95 312.157 Q2325.7 312.157 2323.71 311.81 Q2321.72 311.486 2319.85 310.792 L2319.85 306.648 Q2321.72 307.667 2323.55 308.153 Q2325.38 308.639 2327.28 308.639 Q2331.47 308.639 2333.55 306.44 Q2335.63 304.264 2335.63 299.843 L2335.63 297.736 Q2334.31 300.028 2332.25 301.162 Q2330.19 302.296 2327.32 302.296 Q2322.55 302.296 2319.64 298.662 Q2316.72 295.028 2316.72 289.032 Q2316.72 283.014 2319.64 279.38 Q2322.55 275.746 2327.32 275.746 Q2330.19 275.746 2332.25 276.88 Q2334.31 278.014 2335.63 280.306 L2335.63 276.371 L2339.89 276.371 L2339.89 299.079 Z" fill="#000000" fill-rule="nonzero" fill-opacity="1" /><path clip-path="url(#clip010)" d="M2370.84 288.269 L2370.84 290.352 L2351.26 290.352 Q2351.54 294.75 2353.9 297.065 Q2356.28 299.356 2360.52 299.356 Q2362.97 299.356 2365.26 298.755 Q2367.58 298.153 2369.85 296.949 L2369.85 300.977 Q2367.55 301.949 2365.15 302.458 Q2362.74 302.968 2360.26 302.968 Q2354.06 302.968 2350.42 299.356 Q2346.81 295.745 2346.81 289.588 Q2346.81 283.222 2350.24 279.495 Q2353.69 275.746 2359.52 275.746 Q2364.75 275.746 2367.79 279.125 Q2370.84 282.482 2370.84 288.269 M2366.58 287.019 Q2366.54 283.523 2364.61 281.44 Q2362.72 279.357 2359.57 279.357 Q2356 279.357 2353.85 281.37 Q2351.72 283.384 2351.4 287.042 L2366.58 287.019 Z" fill="#000000" fill-rule="nonzero" fill-opacity="1" /><path clip-path="url(#clip010)" d="M2394.36 277.134 L2394.36 281.162 Q2392.55 280.236 2390.61 279.773 Q2388.66 279.31 2386.58 279.31 Q2383.41 279.31 2381.81 280.283 Q2380.24 281.255 2380.24 283.199 Q2380.24 284.681 2381.37 285.537 Q2382.51 286.37 2385.93 287.134 L2387.39 287.458 Q2391.93 288.431 2393.83 290.213 Q2395.75 291.972 2395.75 295.144 Q2395.75 298.755 2392.88 300.861 Q2390.03 302.968 2385.03 302.968 Q2382.95 302.968 2380.68 302.551 Q2378.43 302.157 2375.93 301.347 L2375.93 296.949 Q2378.29 298.176 2380.59 298.801 Q2382.88 299.403 2385.12 299.403 Q2388.13 299.403 2389.75 298.384 Q2391.37 297.343 2391.37 295.468 Q2391.37 293.732 2390.19 292.806 Q2389.04 291.88 2385.08 291.023 L2383.6 290.676 Q2379.64 289.843 2377.88 288.13 Q2376.12 286.394 2376.12 283.384 Q2376.12 279.727 2378.71 277.736 Q2381.3 275.746 2386.07 275.746 Q2388.43 275.746 2390.52 276.093 Q2392.6 276.44 2394.36 277.134 Z" fill="#000000" fill-rule="nonzero" fill-opacity="1" /><path clip-path="url(#clip010)" d="M2406.74 269.009 L2406.74 276.371 L2415.52 276.371 L2415.52 279.681 L2406.74 279.681 L2406.74 293.755 Q2406.74 296.926 2407.6 297.829 Q2408.48 298.731 2411.14 298.731 L2415.52 298.731 L2415.52 302.296 L2411.14 302.296 Q2406.21 302.296 2404.34 300.468 Q2402.46 298.616 2402.46 293.755 L2402.46 279.681 L2399.34 279.681 L2399.34 276.371 L2402.46 276.371 L2402.46 269.009 L2406.74 269.009 Z" fill="#000000" fill-rule="nonzero" fill-opacity="1" /><path clip-path="url(#clip010)" d="M2420.68 292.065 L2420.68 276.371 L2424.94 276.371 L2424.94 291.903 Q2424.94 295.583 2426.37 297.435 Q2427.81 299.264 2430.68 299.264 Q2434.13 299.264 2436.12 297.065 Q2438.13 294.866 2438.13 291.069 L2438.13 276.371 L2442.39 276.371 L2442.39 302.296 L2438.13 302.296 L2438.13 298.315 Q2436.58 300.676 2434.52 301.833 Q2432.48 302.968 2429.78 302.968 Q2425.31 302.968 2422.99 300.19 Q2420.68 297.412 2420.68 292.065 M2431.4 275.746 L2431.4 275.746 Z" fill="#000000" fill-rule="nonzero" fill-opacity="1" /><path clip-path="url(#clip010)" d="M2466.19 280.352 Q2465.47 279.935 2464.61 279.75 Q2463.78 279.542 2462.76 279.542 Q2459.15 279.542 2457.21 281.903 Q2455.28 284.241 2455.28 288.639 L2455.28 302.296 L2451 302.296 L2451 276.371 L2455.28 276.371 L2455.28 280.398 Q2456.63 278.037 2458.78 276.903 Q2460.93 275.746 2464.01 275.746 Q2464.45 275.746 2464.98 275.815 Q2465.52 275.861 2466.16 275.977 L2466.19 280.352 Z" fill="#000000" fill-rule="nonzero" fill-opacity="1" /><path clip-path="url(#clip010)" d="M2491.79 288.269 L2491.79 290.352 L2472.21 290.352 Q2472.48 294.75 2474.84 297.065 Q2477.23 299.356 2481.47 299.356 Q2483.92 299.356 2486.21 298.755 Q2488.53 298.153 2490.79 296.949 L2490.79 300.977 Q2488.5 301.949 2486.09 302.458 Q2483.69 302.968 2481.21 302.968 Q2475.01 302.968 2471.37 299.356 Q2467.76 295.745 2467.76 289.588 Q2467.76 283.222 2471.19 279.495 Q2474.64 275.746 2480.47 275.746 Q2485.7 275.746 2488.73 279.125 Q2491.79 282.482 2491.79 288.269 M2487.53 287.019 Q2487.48 283.523 2485.56 281.44 Q2483.66 279.357 2480.52 279.357 Q2476.95 279.357 2474.8 281.37 Q2472.67 283.384 2472.34 287.042 L2487.53 287.019 Z" fill="#000000" fill-rule="nonzero" fill-opacity="1" /><path clip-path="url(#clip010)" d="M2515.26 298.361 L2522.9 298.361 L2522.9 271.996 L2514.59 273.662 L2514.59 269.403 L2522.85 267.736 L2527.53 267.736 L2527.53 298.361 L2535.17 298.361 L2535.17 302.296 L2515.26 302.296 L2515.26 298.361 Z" fill="#000000" fill-rule="nonzero" fill-opacity="1" /></svg>
