<?xml version="1.0" encoding="utf-8" standalone="no"?>
<!DOCTYPE svg PUBLIC "-//W3C//DTD SVG 1.1//EN"
  "http://www.w3.org/Graphics/SVG/1.1/DTD/svg11.dtd">
<svg xmlns:xlink="http://www.w3.org/1999/xlink" width="432pt" height="288pt" viewBox="0 0 432 288" xmlns="http://www.w3.org/2000/svg" version="1.1">
 <metadata>
  <rdf:RDF xmlns:dc="http://purl.org/dc/elements/1.1/" xmlns:cc="http://creativecommons.org/ns#" xmlns:rdf="http://www.w3.org/1999/02/22-rdf-syntax-ns#">
   <cc:Work>
    <dc:type rdf:resource="http://purl.org/dc/dcmitype/StillImage"/>
    <dc:date>2024-11-16T10:35:35.149775</dc:date>
    <dc:format>image/svg+xml</dc:format>
    <dc:creator>
     <cc:Agent>
      <dc:title>Matplotlib v3.9.1, https://matplotlib.org/</dc:title>
     </cc:Agent>
    </dc:creator>
   </cc:Work>
  </rdf:RDF>
 </metadata>
 <defs>
  <style type="text/css">*{stroke-linejoin: round; stroke-linecap: butt}</style>
 </defs>
 <g id="figure_1">
  <g id="patch_1">
   <path d="M 0 288 
L 432 288 
L 432 0 
L 0 0 
z
" style="fill: #ffffff"/>
  </g>
  <g id="patch_2">
   <path d="M 74.834646 285.165354 
L 357.165354 285.165354 
L 357.165354 2.834646 
L 74.834646 2.834646 
z
" style="fill: #ffffff"/>
  </g>
  <g id="pane3d_1">
   <g id="patch_3">
    <path d="M 95.725537 215.811902 
L 186.565533 137.142157 
L 186.565533 19.13754 
L 95.725537 97.807285 
" style="fill: #f2f2f2; opacity: 0.5; stroke: #f2f2f2; stroke-linejoin: miter"/>
   </g>
  </g>
  <g id="pane3d_2">
   <g id="patch_4">
    <path d="M 186.565533 137.142157 
L 343.905023 182.562155 
L 343.905023 64.557538 
L 186.565533 19.13754 
" style="fill: #e6e6e6; opacity: 0.5; stroke: #e6e6e6; stroke-linejoin: miter"/>
   </g>
  </g>
  <g id="pane3d_3">
   <g id="patch_5">
    <path d="M 95.725537 215.811902 
L 253.065026 261.2319 
L 343.905023 182.562155 
L 186.565533 137.142157 
" style="fill: #ececec; opacity: 0.5; stroke: #ececec; stroke-linejoin: miter"/>
   </g>
  </g>
  <g id="grid3d_1">
   <g id="Line3DCollection_1">
    <path d="M 99.471715 216.89333 
L 190.311712 138.223586 
L 190.311712 20.218969 
" style="fill: none; stroke: #b0b0b0; stroke-width: 0.8"/>
    <path d="M 136.933498 227.707616 
L 227.773495 149.037871 
L 227.773495 31.033254 
" style="fill: none; stroke: #b0b0b0; stroke-width: 0.8"/>
    <path d="M 174.395282 238.521901 
L 265.235278 159.852156 
L 265.235278 41.847539 
" style="fill: none; stroke: #b0b0b0; stroke-width: 0.8"/>
    <path d="M 211.857065 249.336186 
L 302.697061 170.666442 
L 302.697061 52.661825 
" style="fill: none; stroke: #b0b0b0; stroke-width: 0.8"/>
    <path d="M 249.318848 260.150472 
L 340.158845 181.480727 
L 340.158845 63.47611 
" style="fill: none; stroke: #b0b0b0; stroke-width: 0.8"/>
   </g>
  </g>
  <g id="grid3d_2">
   <g id="Line3DCollection_2">
    <path d="M 97.888394 95.934196 
L 97.888394 213.938813 
L 255.227883 259.358811 
" style="fill: none; stroke: #b0b0b0; stroke-width: 0.8"/>
    <path d="M 119.516965 77.203304 
L 119.516965 195.207921 
L 276.856454 240.627919 
" style="fill: none; stroke: #b0b0b0; stroke-width: 0.8"/>
    <path d="M 141.145535 58.472412 
L 141.145535 176.47703 
L 298.485025 221.897028 
" style="fill: none; stroke: #b0b0b0; stroke-width: 0.8"/>
    <path d="M 162.774106 39.741521 
L 162.774106 157.746138 
L 320.113595 203.166136 
" style="fill: none; stroke: #b0b0b0; stroke-width: 0.8"/>
    <path d="M 184.402676 21.010629 
L 184.402676 139.015246 
L 341.742166 184.435245 
" style="fill: none; stroke: #b0b0b0; stroke-width: 0.8"/>
   </g>
  </g>
  <g id="grid3d_3">
   <g id="Line3DCollection_3">
    <path d="M 343.905023 179.752522 
L 186.565533 134.332523 
L 95.725537 213.002268 
" style="fill: none; stroke: #b0b0b0; stroke-width: 0.8"/>
    <path d="M 343.905023 151.656184 
L 186.565533 106.236186 
L 95.725537 184.905931 
" style="fill: none; stroke: #b0b0b0; stroke-width: 0.8"/>
    <path d="M 343.905023 123.559847 
L 186.565533 78.139849 
L 95.725537 156.809593 
" style="fill: none; stroke: #b0b0b0; stroke-width: 0.8"/>
    <path d="M 343.905023 95.46351 
L 186.565533 50.043511 
L 95.725537 128.713256 
" style="fill: none; stroke: #b0b0b0; stroke-width: 0.8"/>
    <path d="M 343.905023 67.367172 
L 186.565533 21.947174 
L 95.725537 100.616919 
" style="fill: none; stroke: #b0b0b0; stroke-width: 0.8"/>
   </g>
  </g>
  <g id="axis3d_1">
   <g id="line2d_1">
    <path d="M 95.725537 215.811902 
L 253.065026 261.2319 
" style="fill: none; stroke: #000000; stroke-width: 0.8; stroke-linecap: square"/>
   </g>
   <g id="xtick_1">
    <g id="line2d_2">
     <path d="M 100.198435 216.263972 
L 98.018275 218.152046 
" style="fill: none; stroke: #000000; stroke-width: 0.8; stroke-linecap: square"/>
    </g>
   </g>
   <g id="xtick_2">
    <g id="line2d_3">
     <path d="M 137.660218 227.078258 
L 135.480058 228.966332 
" style="fill: none; stroke: #000000; stroke-width: 0.8; stroke-linecap: square"/>
    </g>
   </g>
   <g id="xtick_3">
    <g id="line2d_4">
     <path d="M 175.122002 237.892543 
L 172.941842 239.780617 
" style="fill: none; stroke: #000000; stroke-width: 0.8; stroke-linecap: square"/>
    </g>
   </g>
   <g id="xtick_4">
    <g id="line2d_5">
     <path d="M 212.583785 248.706828 
L 210.403625 250.594902 
" style="fill: none; stroke: #000000; stroke-width: 0.8; stroke-linecap: square"/>
    </g>
   </g>
   <g id="xtick_5">
    <g id="line2d_6">
     <path d="M 250.045568 259.521114 
L 247.865408 261.409188 
" style="fill: none; stroke: #000000; stroke-width: 0.8; stroke-linecap: square"/>
    </g>
   </g>
  </g>
  <g id="axis3d_2">
   <g id="line2d_7">
    <path d="M 343.905023 182.562155 
L 253.065026 261.2319 
" style="fill: none; stroke: #000000; stroke-width: 0.8; stroke-linecap: square"/>
   </g>
   <g id="xtick_6">
    <g id="line2d_8">
     <path d="M 253.969167 258.995451 
L 257.745315 260.085531 
" style="fill: none; stroke: #000000; stroke-width: 0.8; stroke-linecap: square"/>
    </g>
   </g>
   <g id="xtick_7">
    <g id="line2d_9">
     <path d="M 275.597738 240.264559 
L 279.373886 241.354639 
" style="fill: none; stroke: #000000; stroke-width: 0.8; stroke-linecap: square"/>
    </g>
   </g>
   <g id="xtick_8">
    <g id="line2d_10">
     <path d="M 297.226309 221.533668 
L 301.002456 222.623748 
" style="fill: none; stroke: #000000; stroke-width: 0.8; stroke-linecap: square"/>
    </g>
   </g>
   <g id="xtick_9">
    <g id="line2d_11">
     <path d="M 318.854879 202.802776 
L 322.631027 203.892856 
" style="fill: none; stroke: #000000; stroke-width: 0.8; stroke-linecap: square"/>
    </g>
   </g>
   <g id="xtick_10">
    <g id="line2d_12">
     <path d="M 340.48345 184.071885 
L 344.259598 185.161965 
" style="fill: none; stroke: #000000; stroke-width: 0.8; stroke-linecap: square"/>
    </g>
   </g>
  </g>
  <g id="axis3d_3">
   <g id="line2d_13">
    <path d="M 343.905023 182.562155 
L 343.905023 64.557538 
" style="fill: none; stroke: #000000; stroke-width: 0.8; stroke-linecap: square"/>
   </g>
   <g id="xtick_11">
    <g id="line2d_14">
     <path d="M 342.646307 179.389162 
L 346.422455 180.479242 
" style="fill: none; stroke: #000000; stroke-width: 0.8; stroke-linecap: square"/>
    </g>
    <g id="text_1">
     <!-- $-1.0$ -->
     <g style="fill: #ffffff" transform="translate(353.594187 183.230937) scale(0.08 -0.08)">
      <defs>
       <path id="DejaVuSans-2212" d="M 678 2272 
L 4684 2272 
L 4684 1741 
L 678 1741 
L 678 2272 
z
" transform="scale(0.015625)"/>
       <path id="DejaVuSans-31" d="M 794 531 
L 1825 531 
L 1825 4091 
L 703 3866 
L 703 4441 
L 1819 4666 
L 2450 4666 
L 2450 531 
L 3481 531 
L 3481 0 
L 794 0 
L 794 531 
z
" transform="scale(0.015625)"/>
       <path id="DejaVuSans-2e" d="M 684 794 
L 1344 794 
L 1344 0 
L 684 0 
L 684 794 
z
" transform="scale(0.015625)"/>
       <path id="DejaVuSans-30" d="M 2034 4250 
Q 1547 4250 1301 3770 
Q 1056 3291 1056 2328 
Q 1056 1369 1301 889 
Q 1547 409 2034 409 
Q 2525 409 2770 889 
Q 3016 1369 3016 2328 
Q 3016 3291 2770 3770 
Q 2525 4250 2034 4250 
z
M 2034 4750 
Q 2819 4750 3233 4129 
Q 3647 3509 3647 2328 
Q 3647 1150 3233 529 
Q 2819 -91 2034 -91 
Q 1250 -91 836 529 
Q 422 1150 422 2328 
Q 422 3509 836 4129 
Q 1250 4750 2034 4750 
z
" transform="scale(0.015625)"/>
      </defs>
      <use xlink:href="#DejaVuSans-2212" transform="translate(0 0.78125)"/>
      <use xlink:href="#DejaVuSans-31" transform="translate(83.789062 0.78125)"/>
      <use xlink:href="#DejaVuSans-2e" transform="translate(147.412109 0.78125)"/>
      <use xlink:href="#DejaVuSans-30" transform="translate(179.199219 0.78125)"/>
     </g>
    </g>
   </g>
   <g id="xtick_12">
    <g id="line2d_15">
     <path d="M 342.646307 151.292824 
L 346.422455 152.382904 
" style="fill: none; stroke: #000000; stroke-width: 0.8; stroke-linecap: square"/>
    </g>
    <g id="text_2">
     <!-- $-0.5$ -->
     <g style="fill: #ffffff" transform="translate(353.594187 155.134599) scale(0.08 -0.08)">
      <defs>
       <path id="DejaVuSans-35" d="M 691 4666 
L 3169 4666 
L 3169 4134 
L 1269 4134 
L 1269 2991 
Q 1406 3038 1543 3061 
Q 1681 3084 1819 3084 
Q 2600 3084 3056 2656 
Q 3513 2228 3513 1497 
Q 3513 744 3044 326 
Q 2575 -91 1722 -91 
Q 1428 -91 1123 -41 
Q 819 9 494 109 
L 494 744 
Q 775 591 1075 516 
Q 1375 441 1709 441 
Q 2250 441 2565 725 
Q 2881 1009 2881 1497 
Q 2881 1984 2565 2268 
Q 2250 2553 1709 2553 
Q 1456 2553 1204 2497 
Q 953 2441 691 2322 
L 691 4666 
z
" transform="scale(0.015625)"/>
      </defs>
      <use xlink:href="#DejaVuSans-2212" transform="translate(0 0.78125)"/>
      <use xlink:href="#DejaVuSans-30" transform="translate(83.789062 0.78125)"/>
      <use xlink:href="#DejaVuSans-2e" transform="translate(147.412109 0.78125)"/>
      <use xlink:href="#DejaVuSans-35" transform="translate(179.199219 0.78125)"/>
     </g>
    </g>
   </g>
   <g id="xtick_13">
    <g id="line2d_16">
     <path d="M 342.646307 123.196487 
L 346.422455 124.286567 
" style="fill: none; stroke: #000000; stroke-width: 0.8; stroke-linecap: square"/>
    </g>
    <g id="text_3">
     <!-- $0.0$ -->
     <g style="fill: #ffffff" transform="translate(356.914187 127.038262) scale(0.08 -0.08)">
      <use xlink:href="#DejaVuSans-30" transform="translate(0 0.78125)"/>
      <use xlink:href="#DejaVuSans-2e" transform="translate(63.623047 0.78125)"/>
      <use xlink:href="#DejaVuSans-30" transform="translate(95.410156 0.78125)"/>
     </g>
    </g>
   </g>
   <g id="xtick_14">
    <g id="line2d_17">
     <path d="M 342.646307 95.10015 
L 346.422455 96.19023 
" style="fill: none; stroke: #000000; stroke-width: 0.8; stroke-linecap: square"/>
    </g>
    <g id="text_4">
     <!-- $0.5$ -->
     <g style="fill: #ffffff" transform="translate(356.914187 98.941925) scale(0.08 -0.08)">
      <use xlink:href="#DejaVuSans-30" transform="translate(0 0.78125)"/>
      <use xlink:href="#DejaVuSans-2e" transform="translate(63.623047 0.78125)"/>
      <use xlink:href="#DejaVuSans-35" transform="translate(95.410156 0.78125)"/>
     </g>
    </g>
   </g>
   <g id="xtick_15">
    <g id="line2d_18">
     <path d="M 342.646307 67.003812 
L 346.422455 68.093892 
" style="fill: none; stroke: #000000; stroke-width: 0.8; stroke-linecap: square"/>
    </g>
    <g id="text_5">
     <!-- $1.0$ -->
     <g style="fill: #ffffff" transform="translate(356.914187 70.845587) scale(0.08 -0.08)">
      <use xlink:href="#DejaVuSans-31" transform="translate(0 0.78125)"/>
      <use xlink:href="#DejaVuSans-2e" transform="translate(63.623047 0.78125)"/>
      <use xlink:href="#DejaVuSans-30" transform="translate(95.410156 0.78125)"/>
     </g>
    </g>
   </g>
  </g>
  <g id="axes_1">
   <g id="Path3DCollection_1">
    <defs>
     <path id="C0_0_2b38430e53" d="M 0 5 
C 1.326016 5 2.597899 4.473168 3.535534 3.535534 
C 4.473168 2.597899 5 1.326016 5 -0 
C 5 -1.326016 4.473168 -2.597899 3.535534 -3.535534 
C 2.597899 -4.473168 1.326016 -5 0 -5 
C -1.326016 -5 -2.597899 -4.473168 -3.535534 -3.535534 
C -4.473168 -2.597899 -5 -1.326016 -5 0 
C -5 1.326016 -4.473168 2.597899 -3.535534 3.535534 
C -2.597899 4.473168 -1.326016 5 0 5 
z
"/>
    </defs>
    <g clip-path="url(#p0b5adf7feb)">
     <use xlink:href="#C0_0_2b38430e53" x="219.81528" y="83.992045" style="fill: #e36f47; fill-opacity: 0.3; stroke: #000000; stroke-opacity: 0.3"/>
    </g>
    <g clip-path="url(#p0b5adf7feb)">
     <use xlink:href="#C0_0_2b38430e53" x="294.738846" y="161.813291" style="fill: #e36f47; fill-opacity: 0.40829; stroke: #000000; stroke-opacity: 0.40829"/>
    </g>
    <g clip-path="url(#p0b5adf7feb)">
     <use xlink:href="#C0_0_2b38430e53" x="294.738846" y="161.813291" style="fill: #e36f47; fill-opacity: 0.40829; stroke: #000000; stroke-opacity: 0.40829"/>
    </g>
    <g clip-path="url(#p0b5adf7feb)">
     <use xlink:href="#C0_0_2b38430e53" x="176.558139" y="177.646503" style="fill: #e36f47; stroke: #000000"/>
    </g>
   </g>
   <g id="line2d_19">
    <path d="M 294.738846 161.813291 
L 291.904633 164.100438 
L 288.79152 166.29506 
L 285.411552 168.388666 
L 281.777804 170.373156 
L 277.904335 172.240853 
L 273.806131 173.984532 
L 269.499047 175.597445 
L 264.999746 177.073353 
L 260.325635 178.406547 
L 255.494798 179.591868 
L 250.525923 180.62473 
L 244.150046 181.695382 
L 237.627091 182.515148 
L 230.996484 183.079072 
L 224.298298 183.383747 
L 217.573017 183.42733 
L 210.861289 183.209559 
L 204.203677 182.73175 
L 197.640421 181.99679 
L 191.211188 181.009121 
L 184.954835 179.774714 
L 180.099678 178.6145 
L 176.558139 177.646503 
L 176.68886 173.168032 
L 177.080233 168.490213 
L 177.729894 163.641318 
L 178.633914 158.650653 
L 179.786832 153.548382 
L 181.181677 148.365342 
L 182.810021 143.132859 
L 184.662022 137.882557 
L 186.726485 132.64617 
L 188.990935 127.455345 
L 191.441684 122.341455 
L 194.06392 117.335409 
L 196.841796 112.467461 
L 199.758521 107.767035 
L 202.796467 103.262538 
L 205.937274 98.981195 
L 209.161958 94.948883 
L 212.45103 91.189972 
L 215.784611 87.727182 
L 219.142553 84.58144 
L 219.81528 83.992045 
L 224.473251 85.445385 
L 229.113201 87.110501 
L 233.717179 88.98095 
L 238.267374 91.049497 
L 242.746181 93.308138 
L 247.136273 95.748136 
L 251.420665 98.36005 
L 255.582782 101.133776 
L 259.606522 104.058583 
L 263.476317 107.123154 
L 267.177195 110.315634 
L 270.69484 113.623672 
L 274.015642 117.034469 
L 277.126753 120.534831 
L 280.016137 124.111213 
L 282.672616 127.749781 
L 285.085912 131.436458 
L 287.246688 135.15698 
L 289.146586 138.896953 
L 290.778254 142.641908 
L 292.13538 146.377357 
L 293.212714 150.088848 
L 294.006087 153.762021 
L 294.51243 157.382667 
L 294.729785 160.936777 
L 294.738846 161.813291 
L 294.738846 161.813291 
" clip-path="url(#p0b5adf7feb)" style="fill: none; stroke: #3ea44e; stroke-width: 2"/>
   </g>
   <g id="Line3DCollection_4">
    <path d="M 219.81528 83.992045 
L 227.159074 86.382599 
L 234.432143 89.291297 
L 241.564443 92.690126 
L 248.487287 96.546354 
L 255.134005 100.822843 
L 261.440583 105.478409 
L 267.346287 110.468215 
L 272.794242 115.744208 
L 277.73198 121.255576 
L 282.111949 126.949242 
L 285.891966 132.770373 
L 289.035629 138.662908 
L 291.512663 144.570099 
L 293.299211 150.435057 
L 294.378069 156.201298 
L 294.738846 161.813291 
L 294.378069 167.216989 
L 293.299211 172.360351 
L 291.512663 177.193844 
L 289.035629 181.67092 
L 285.891966 185.74846 
L 282.111949 189.387197 
L 277.73198 192.552087 
L 272.794242 195.21265 
L 267.346287 197.343265 
L 261.440583 198.923412 
L 255.134005 199.937873 
L 248.487287 200.376878 
L 241.564443 200.2362 
L 234.432143 199.517193 
L 227.159074 198.226782 
L 219.81528 196.377395 
" clip-path="url(#p0b5adf7feb)" style="fill: none; stroke: #cccccc"/>
    <path d="M 219.81528 83.992045 
L 227.845136 85.625513 
L 235.797661 87.784415 
L 243.596266 90.447962 
L 251.165847 93.5905 
L 258.433506 97.181766 
L 265.329249 101.187174 
L 271.786669 105.56815 
L 277.743575 110.282502 
L 283.1426 115.284829 
L 287.931749 120.526955 
L 292.064899 125.958397 
L 295.502245 131.526846 
L 298.210684 137.178675 
L 300.164133 142.859453 
L 301.343779 148.514473 
L 301.738261 154.089272 
L 301.343779 159.530164 
L 300.164133 164.784747 
L 298.210684 169.80242 
L 295.502245 174.534857 
L 292.064899 178.936484 
L 287.931749 182.96491 
L 283.1426 186.58134 
L 277.743575 189.750945 
L 271.786669 192.4432 
L 265.329249 194.632177 
L 258.433506 196.296796 
L 251.165847 197.421024 
L 243.596266 197.994036 
L 235.797661 198.010312 
L 227.845136 197.469696 
L 219.81528 196.377395 
" clip-path="url(#p0b5adf7feb)" style="fill: none; stroke: #cccccc"/>
    <path d="M 219.81528 83.992045 
L 228.222616 84.816052 
L 236.548985 86.173289 
L 244.714199 88.050685 
L 252.639622 90.430161 
L 260.24893 93.288801 
L 267.468839 96.599074 
L 274.229819 100.3291 
L 280.466756 104.442958 
L 286.119587 108.901028 
L 291.133871 113.660378 
L 295.461319 118.675172 
L 299.060253 123.897114 
L 301.896015 129.275915 
L 303.941295 134.759773 
L 305.176395 140.295877 
L 305.589421 145.83091 
L 305.176395 151.311567 
L 303.941295 156.685067 
L 301.896015 161.89966 
L 299.060253 166.905125 
L 295.461319 171.653259 
L 291.133871 176.098333 
L 286.119587 180.197539 
L 280.466756 183.911401 
L 274.229819 187.20415 
L 267.468839 190.044077 
L 260.24893 192.40383 
L 252.639622 194.260686 
L 244.714199 195.59676 
L 236.548985 196.399185 
L 228.222616 196.660235 
L 219.81528 196.377395 
" clip-path="url(#p0b5adf7feb)" style="fill: none; stroke: #cccccc"/>
    <path d="M 219.81528 83.992045 
L 228.277006 83.985323 
L 236.657242 84.519832 
L 244.87528 85.590423 
L 252.851977 87.186788 
L 260.510512 89.293552 
L 267.77713 91.890426 
L 274.581849 94.9524 
L 280.859136 98.449986 
L 286.548537 102.3495 
L 291.595261 106.613388 
L 295.950704 111.200587 
L 299.572921 116.066918 
L 302.427029 121.165518 
L 304.48554 126.447282 
L 305.728631 131.861346 
L 306.144329 137.355568 
L 305.728631 142.877036 
L 304.48554 148.372576 
L 302.427029 153.789263 
L 299.572921 159.07493 
L 295.950704 164.178674 
L 291.595261 169.051343 
L 286.548537 173.646011 
L 280.859136 177.918429 
L 274.581849 181.82745 
L 267.77713 185.335429 
L 260.510512 188.408582 
L 252.851977 191.017313 
L 244.87528 193.136498 
L 236.657242 194.745728 
L 228.277006 195.829506 
L 219.81528 196.377395 
" clip-path="url(#p0b5adf7feb)" style="fill: none; stroke: #cccccc"/>
    <path d="M 219.81528 83.992045 
L 228.006217 83.165251 
L 236.118272 82.887585 
L 244.073319 83.161722 
L 251.794749 83.985022 
L 259.208199 85.349555 
L 266.242273 87.242181 
L 272.82923 89.644673 
L 278.905634 92.533892 
L 284.412965 95.882016 
L 289.298185 99.656799 
L 293.514247 103.821887 
L 297.020548 108.33717 
L 299.783319 113.159162 
L 301.775955 118.241425 
L 302.979265 123.535014 
L 303.38166 128.988948 
L 302.979265 134.550704 
L 301.775955 140.166719 
L 299.783319 145.782907 
L 297.020548 151.345181 
L 293.514247 156.799974 
L 289.298185 162.094753 
L 284.412965 167.178527 
L 278.905634 172.002335 
L 272.82923 176.519723 
L 266.242273 180.687184 
L 259.208199 184.464585 
L 251.794749 187.815546 
L 244.073319 190.707796 
L 236.118272 193.113482 
L 228.006217 195.009434 
L 219.81528 196.377395 
" clip-path="url(#p0b5adf7feb)" style="fill: none; stroke: #cccccc"/>
    <path d="M 219.81528 83.992045 
L 227.420655 82.38735 
L 234.952787 81.339276 
L 242.339136 80.857915 
L 249.508568 80.947903 
L 256.392038 81.608375 
L 262.923253 82.832969 
L 269.039315 84.609891 
L 274.681323 86.92203 
L 279.79494 89.747117 
L 284.330921 93.057946 
L 288.245581 96.822632 
L 291.501219 101.004918 
L 294.066483 105.564527 
L 295.916667 110.457548 
L 297.033953 115.636857 
L 297.407582 121.052576 
L 297.033953 126.652548 
L 295.916667 132.382842 
L 294.066483 138.188272 
L 291.501219 144.012929 
L 288.245581 149.800719 
L 284.330921 155.495901 
L 279.79494 161.043628 
L 274.681323 166.390473 
L 269.039315 171.484941 
L 262.923253 176.277972 
L 256.392038 180.723405 
L 249.508568 184.778428 
L 242.339136 188.403989 
L 234.952787 191.565172 
L 227.420655 194.231534 
L 219.81528 196.377395 
" clip-path="url(#p0b5adf7feb)" style="fill: none; stroke: #cccccc"/>
    <path d="M 219.81528 83.992045 
L 226.542823 81.681516 
L 233.205576 79.934404 
L 239.739374 78.767536 
L 246.081291 78.192148 
L 252.170252 78.213784 
L 257.947618 78.832233 
L 263.357748 80.04154 
L 268.34854 81.830059 
L 272.871931 84.180565 
L 276.884357 87.070421 
L 280.347176 90.471798 
L 283.22704 94.351937 
L 285.496215 98.673471 
L 287.132846 103.394781 
L 288.121172 108.470398 
L 288.451675 113.851441 
L 288.121172 119.486088 
L 287.132846 125.320075 
L 285.496215 131.297216 
L 283.22704 137.359948 
L 280.347176 143.449885 
L 276.884357 149.508376 
L 272.871931 155.477076 
L 268.34854 161.298501 
L 263.357748 166.91659 
L 257.947618 172.277236 
L 252.170252 177.328813 
L 246.081291 182.022673 
L 239.739374 186.31361 
L 233.205576 190.160301 
L 226.542823 193.525699 
L 219.81528 196.377395 
" clip-path="url(#p0b5adf7feb)" style="fill: none; stroke: #cccccc"/>
    <path d="M 219.81528 83.992045 
L 225.406455 81.074872 
L 230.943784 78.726958 
L 236.373939 76.970917 
L 241.644626 75.823659 
L 246.705084 75.296233 
L 251.506578 75.393719 
L 256.002868 76.115177 
L 260.150652 77.45366 
L 263.909984 79.396278 
L 267.24466 81.924322 
L 270.122565 85.013445 
L 272.515983 88.633897 
L 274.401865 92.750812 
L 275.762048 97.324542 
L 276.583433 102.311039 
L 276.85811 107.662279 
L 276.583433 113.326729 
L 275.762048 119.249836 
L 274.401865 125.374557 
L 272.515983 131.641908 
L 270.122565 137.991532 
L 267.24466 144.362276 
L 263.909984 150.692789 
L 260.150652 156.922103 
L 256.002868 162.990227 
L 251.506578 168.838722 
L 246.705084 174.411263 
L 241.644626 179.654183 
L 236.373939 184.516991 
L 230.943784 188.952855 
L 225.406455 192.919055 
L 219.81528 196.377395 
" clip-path="url(#p0b5adf7feb)" style="fill: none; stroke: #cccccc"/>
    <path d="M 219.81528 83.992045 
L 224.055221 80.590732 
L 228.254329 77.763341 
L 232.372165 75.537101 
L 236.369071 73.933454 
L 240.206555 72.967843 
L 243.84766 72.649567 
L 247.25732 72.981691 
L 250.402698 73.961018 
L 253.253502 75.578115 
L 255.782278 77.817408 
L 257.964673 80.657333 
L 259.779667 84.07054 
L 261.209783 88.024156 
L 262.241247 92.480108 
L 262.864126 97.39548 
L 263.072421 102.722937 
L 262.864126 108.411171 
L 262.241247 114.405402 
L 261.209783 120.647901 
L 259.779667 127.078551 
L 257.964673 133.63542 
L 255.782278 140.255363 
L 253.253502 146.874626 
L 250.402698 153.429461 
L 247.25732 159.856741 
L 243.84766 166.09457 
L 240.206555 172.082873 
L 236.369071 177.763978 
L 232.372165 183.083176 
L 228.254329 187.989237 
L 224.055221 192.434915 
L 219.81528 196.377395 
" clip-path="url(#p0b5adf7feb)" style="fill: none; stroke: #cccccc"/>
    <path d="M 219.81528 83.992045 
L 222.541049 80.2477 
L 225.240567 77.080582 
L 227.887837 74.52119 
L 230.457363 72.594174 
L 232.924401 71.318092 
L 235.265191 70.705234 
L 237.457189 70.761501 
L 239.479286 71.486351 
L 241.312008 72.872804 
L 242.937705 74.907508 
L 244.340721 77.570867 
L 245.507542 80.837232 
L 246.426934 84.675145 
L 247.09004 89.047646 
L 247.490476 93.912625 
L 247.624385 99.22323 
L 247.490476 104.928316 
L 247.09004 110.97294 
L 246.426934 117.29889 
L 245.507542 123.845243 
L 244.340721 130.548954 
L 242.937705 137.345463 
L 241.312008 144.169315 
L 239.479286 150.954794 
L 237.457189 157.636551 
L 235.265191 164.150237 
L 232.924401 170.433122 
L 230.457363 176.424699 
L 227.887837 182.067264 
L 225.240567 187.306478 
L 222.541049 192.091884 
L 219.81528 196.377395 
" clip-path="url(#p0b5adf7feb)" style="fill: none; stroke: #cccccc"/>
    <path d="M 219.81528 83.992045 
L 220.922127 80.05896 
L 222.018314 76.704919 
L 223.093285 73.962224 
L 224.136687 71.857287 
L 225.138471 70.41038 
L 226.08899 69.635439 
L 226.97909 69.539926 
L 227.800198 70.12476 
L 228.544408 71.384311 
L 229.204551 73.306447 
L 229.77427 75.872657 
L 230.248078 79.058228 
L 230.621414 82.83248 
L 230.89068 87.159066 
L 231.053284 91.996317 
L 231.10766 97.29765 
L 231.053284 103.012008 
L 230.89068 109.08436 
L 230.621414 115.456225 
L 230.248078 122.066239 
L 229.77427 128.850744 
L 229.204551 135.744402 
L 228.544408 142.680822 
L 227.800198 149.593203 
L 226.97909 156.414976 
L 226.08899 163.080442 
L 225.138471 169.52541 
L 224.136687 175.687811 
L 223.093285 181.508298 
L 222.018314 186.930816 
L 220.922127 191.903144 
L 219.81528 196.377395 
" clip-path="url(#p0b5adf7feb)" style="fill: none; stroke: #cccccc"/>
    <path d="M 219.81528 83.992045 
L 219.260669 80.031765 
L 218.711399 76.650791 
L 218.172761 73.881683 
L 217.64994 71.75111 
L 217.147973 70.279589 
L 216.671694 69.481294 
L 216.225689 69.363911 
L 215.814254 69.928571 
L 215.441351 71.169836 
L 215.110571 73.075752 
L 214.825101 75.627965 
L 214.587688 78.801894 
L 214.40062 82.566973 
L 214.265698 86.886943 
L 214.184221 91.720199 
L 214.156975 97.020196 
L 214.184221 102.73589 
L 214.265698 108.812237 
L 214.40062 115.190718 
L 214.587688 121.809905 
L 214.825101 128.606052 
L 215.110571 135.513707 
L 215.441351 142.466347 
L 215.814254 149.397014 
L 216.225689 156.238961 
L 216.671694 162.926297 
L 217.147973 169.394619 
L 217.64994 175.581634 
L 218.172761 181.427757 
L 218.711399 186.876687 
L 219.260669 191.875949 
L 219.81528 196.377395 
" clip-path="url(#p0b5adf7feb)" style="fill: none; stroke: #cccccc"/>
    <path d="M 219.81528 83.992045 
L 217.620525 80.16716 
L 215.446906 76.920276 
L 213.315358 74.282663 
L 211.246407 72.279724 
L 209.259979 70.930746 
L 207.375205 70.248722 
L 205.610235 70.24022 
L 203.982067 70.905322 
L 202.506382 72.237622 
L 201.197391 74.22429 
L 200.067701 76.846193 
L 199.128191 80.078081 
L 198.387908 83.888828 
L 197.853983 88.241736 
L 197.531557 93.094882 
L 197.423736 98.40153 
L 197.531557 104.110573 
L 197.853983 110.16703 
L 198.387908 116.512573 
L 199.128191 123.086092 
L 200.067701 129.82428 
L 201.197391 136.662245 
L 202.506382 143.534133 
L 203.982067 150.373765 
L 205.610235 157.11527 
L 207.375205 163.693725 
L 209.259979 170.045776 
L 211.246407 176.110248 
L 213.315358 181.828737 
L 215.446906 187.146172 
L 217.620525 192.011343 
L 219.81528 196.377395 
" clip-path="url(#p0b5adf7feb)" style="fill: none; stroke: #cccccc"/>
    <path d="M 219.81528 83.992045 
L 216.064724 80.459941 
L 212.350287 77.503018 
L 208.707743 75.149755 
L 205.172171 73.422814 
L 201.777619 72.338826 
L 198.55678 71.908232 
L 195.540672 72.135178 
L 192.758342 73.017477 
L 190.236585 74.546634 
L 187.999687 76.707922 
L 186.06919 79.480526 
L 184.463687 82.837745 
L 183.198639 86.747246 
L 182.286229 91.171379 
L 181.735244 96.067538 
L 181.550991 101.388569 
L 181.735244 107.083229 
L 182.286229 113.096673 
L 183.198639 119.370991 
L 184.463687 125.845756 
L 186.06919 132.458613 
L 187.999687 139.145877 
L 190.236585 145.843146 
L 192.758342 152.48592 
L 195.540672 159.010228 
L 198.55678 165.353235 
L 201.777619 171.453856 
L 205.172171 177.253338 
L 208.707743 182.695829 
L 212.350287 187.728915 
L 216.064724 192.304124 
L 219.81528 196.377395 
" clip-path="url(#p0b5adf7feb)" style="fill: none; stroke: #cccccc"/>
    <path d="M 219.81528 83.992045 
L 214.653054 80.898857 
L 209.540544 78.376624 
L 204.526985 76.449636 
L 199.660661 75.136452 
L 194.988436 74.449719 
L 190.555308 74.39605 
L 186.403969 74.975961 
L 182.574399 76.183869 
L 179.10348 78.008139 
L 176.024637 80.431204 
L 173.367522 83.429729 
L 171.157725 86.974834 
L 169.416526 91.03238 
L 168.160695 95.56329 
L 167.402326 100.523929 
L 167.148722 105.866523 
L 167.402326 111.539619 
L 168.160695 117.488584 
L 169.416526 123.656125 
L 171.157725 129.982846 
L 173.367522 136.407816 
L 176.024637 142.869159 
L 179.10348 149.30465 
L 182.574399 155.652311 
L 186.403969 161.851011 
L 190.555308 167.841053 
L 194.988436 173.564749 
L 199.660661 178.966977 
L 204.526985 183.99571 
L 209.540544 188.60252 
L 214.653054 192.74304 
L 219.81528 196.377395 
" clip-path="url(#p0b5adf7feb)" style="fill: none; stroke: #cccccc"/>
    <path d="M 219.81528 83.992045 
L 213.439767 81.467041 
L 207.125653 79.50752 
L 200.933747 78.132353 
L 194.923681 77.354785 
L 189.153335 77.182303 
L 183.67828 77.616569 
L 178.551244 78.653401 
L 173.821603 80.282813 
L 169.534907 82.489113 
L 165.732437 85.251053 
L 162.450816 88.542034 
L 159.721645 92.330363 
L 157.571209 96.579555 
L 156.020218 101.248689 
L 155.083607 106.292798 
L 154.770398 111.663305 
L 155.083607 117.308489 
L 156.020218 123.173983 
L 157.571209 129.2033 
L 159.721645 135.338374 
L 162.450816 141.520121 
L 165.732437 147.689008 
L 169.534907 153.785624 
L 173.821603 159.751256 
L 178.551244 165.528451 
L 183.67828 171.061572 
L 189.153335 176.297333 
L 194.923681 181.185309 
L 200.933747 185.678427 
L 207.125653 189.733416 
L 213.439767 193.311224 
L 219.81528 196.377395 
" clip-path="url(#p0b5adf7feb)" style="fill: none; stroke: #cccccc"/>
    <path d="M 219.81528 83.992045 
L 212.471486 82.142658 
L 205.198417 80.852247 
L 198.066117 80.13324 
L 191.143272 79.992562 
L 184.496555 80.431568 
L 178.189977 81.446029 
L 172.284273 83.026175 
L 166.836318 85.15679 
L 161.89858 87.817353 
L 157.518611 90.982244 
L 153.738593 94.62098 
L 150.59493 98.698521 
L 148.117897 103.175596 
L 146.331349 108.009089 
L 145.252491 113.152452 
L 144.891713 118.55615 
L 145.252491 124.168142 
L 146.331349 129.934383 
L 148.117897 135.799341 
L 150.59493 141.706532 
L 153.738593 147.599067 
L 157.518611 153.420198 
L 161.89858 159.113864 
L 166.836318 164.625233 
L 172.284273 169.901225 
L 178.189977 174.891032 
L 184.496555 179.546597 
L 191.143272 183.823087 
L 198.066117 187.679315 
L 205.198417 191.078144 
L 212.471486 193.986841 
L 219.81528 196.377395 
" clip-path="url(#p0b5adf7feb)" style="fill: none; stroke: #cccccc"/>
    <path d="M 219.81528 83.992045 
L 211.785424 82.899744 
L 203.832899 82.359128 
L 196.034294 82.375405 
L 188.464712 82.948416 
L 181.197054 84.072645 
L 174.30131 85.737263 
L 167.843891 87.926241 
L 161.886985 90.618496 
L 156.487959 93.7881 
L 151.698811 97.40453 
L 147.565661 101.432956 
L 144.128315 105.834583 
L 141.419875 110.567021 
L 139.466426 115.584693 
L 138.286781 120.839277 
L 137.892299 126.280168 
L 138.286781 131.854967 
L 139.466426 137.509987 
L 141.419875 143.190766 
L 144.128315 148.842594 
L 147.565661 154.411043 
L 151.698811 159.842485 
L 156.487959 165.084611 
L 161.886985 170.086938 
L 167.843891 174.801291 
L 174.30131 179.182266 
L 181.197054 183.187674 
L 188.464712 186.77894 
L 196.034294 189.921479 
L 203.832899 192.585025 
L 211.785424 194.743927 
L 219.81528 196.377395 
" clip-path="url(#p0b5adf7feb)" style="fill: none; stroke: #cccccc"/>
    <path d="M 219.81528 83.992045 
L 211.407944 83.709205 
L 203.081575 83.970255 
L 194.916361 84.772681 
L 186.990937 86.108755 
L 179.38163 87.96561 
L 172.16172 90.325364 
L 165.400741 93.16529 
L 159.163803 96.45804 
L 153.510972 100.171901 
L 148.496688 104.271107 
L 144.169241 108.716182 
L 140.570307 113.464315 
L 137.734545 118.469781 
L 135.689265 123.684373 
L 134.454165 129.057873 
L 134.041139 134.53853 
L 134.454165 140.073563 
L 135.689265 145.609667 
L 137.734545 151.093526 
L 140.570307 156.472327 
L 144.169241 161.694269 
L 148.496688 166.709062 
L 153.510972 171.468412 
L 159.163803 175.926482 
L 165.400741 180.04034 
L 172.16172 183.770367 
L 179.38163 187.080639 
L 186.990937 189.939279 
L 194.916361 192.318755 
L 203.081575 194.196151 
L 211.407944 195.553388 
L 219.81528 196.377395 
" clip-path="url(#p0b5adf7feb)" style="fill: none; stroke: #cccccc"/>
    <path d="M 219.81528 83.992045 
L 211.353553 84.539934 
L 202.973318 85.623712 
L 194.75528 87.232943 
L 186.778583 89.352128 
L 179.120048 91.960859 
L 171.85343 95.034011 
L 165.048711 98.54199 
L 158.771424 102.451012 
L 153.082023 106.723429 
L 148.035299 111.318097 
L 143.679856 116.190766 
L 140.057639 121.29451 
L 137.203531 126.580178 
L 135.14502 131.996864 
L 133.901929 137.492404 
L 133.486231 143.013873 
L 133.901929 148.508095 
L 135.14502 153.922158 
L 137.203531 159.203923 
L 140.057639 164.302522 
L 143.679856 169.168853 
L 148.035299 173.756052 
L 153.082023 178.01994 
L 158.771424 181.919454 
L 165.048711 185.41704 
L 171.85343 188.479015 
L 179.120048 191.075888 
L 186.778583 193.182652 
L 194.75528 194.779017 
L 202.973318 195.849609 
L 211.353553 196.384117 
L 219.81528 196.377395 
" clip-path="url(#p0b5adf7feb)" style="fill: none; stroke: #cccccc"/>
    <path d="M 219.81528 83.992045 
L 211.624342 85.360006 
L 203.512288 87.255959 
L 195.55724 89.661644 
L 187.835811 92.553894 
L 180.422361 95.904856 
L 173.388287 99.682256 
L 166.80133 103.849718 
L 160.724926 108.367105 
L 155.217595 113.190913 
L 150.332374 118.274687 
L 146.116313 123.569466 
L 142.610012 129.024259 
L 139.84724 134.586533 
L 137.854605 140.202721 
L 136.651295 145.818736 
L 136.2489 151.380492 
L 136.651295 156.834427 
L 137.854605 162.128016 
L 139.84724 167.210278 
L 142.610012 172.03227 
L 146.116313 176.547553 
L 150.332374 180.712642 
L 155.217595 184.487424 
L 160.724926 187.835548 
L 166.80133 190.724768 
L 173.388287 193.127259 
L 180.422361 195.019885 
L 187.835811 196.384419 
L 195.55724 197.207718 
L 203.512288 197.481855 
L 211.624342 197.204189 
L 219.81528 196.377395 
" clip-path="url(#p0b5adf7feb)" style="fill: none; stroke: #cccccc"/>
    <path d="M 219.81528 83.992045 
L 212.209904 86.137907 
L 204.677773 88.804268 
L 197.291424 91.965451 
L 190.121992 95.591013 
L 183.238522 99.646036 
L 176.707307 104.091469 
L 170.591245 108.884499 
L 164.949237 113.978968 
L 159.83562 119.325812 
L 155.299639 124.873539 
L 151.384979 130.568722 
L 148.12934 136.356511 
L 145.564077 142.181168 
L 143.713892 147.986599 
L 142.596606 153.716893 
L 142.222978 159.316864 
L 142.596606 164.732583 
L 143.713892 169.911893 
L 145.564077 174.804913 
L 148.12934 179.364522 
L 151.384979 183.546809 
L 155.299639 187.311494 
L 159.83562 190.622323 
L 164.949237 193.447411 
L 170.591245 195.759549 
L 176.707307 197.536472 
L 183.238522 198.761065 
L 190.121992 199.421537 
L 197.291424 199.511526 
L 204.677773 199.030165 
L 212.209904 197.98209 
L 219.81528 196.377395 
" clip-path="url(#p0b5adf7feb)" style="fill: none; stroke: #cccccc"/>
    <path d="M 219.81528 83.992045 
L 213.087737 86.843741 
L 206.424983 90.20914 
L 199.891186 94.05583 
L 193.549269 98.346768 
L 187.460307 103.040627 
L 181.682942 108.092205 
L 176.272812 113.452851 
L 171.28202 119.070939 
L 166.758629 124.892365 
L 162.746203 130.861064 
L 159.283384 136.919555 
L 156.403519 143.009492 
L 154.134345 149.072225 
L 152.497714 155.049366 
L 151.509388 160.883352 
L 151.178885 166.517999 
L 151.509388 171.899043 
L 152.497714 176.97466 
L 154.134345 181.69597 
L 156.403519 186.017503 
L 159.283384 189.897642 
L 162.746203 193.299019 
L 166.758629 196.188876 
L 171.28202 198.539382 
L 176.272812 200.327901 
L 181.682942 201.537208 
L 187.460307 202.155657 
L 193.549269 202.177292 
L 199.891186 201.601905 
L 206.424983 200.435036 
L 213.087737 198.687925 
L 219.81528 196.377395 
" clip-path="url(#p0b5adf7feb)" style="fill: none; stroke: #cccccc"/>
    <path d="M 219.81528 83.992045 
L 214.224105 87.450385 
L 208.686776 91.416585 
L 203.25662 95.852449 
L 197.985934 100.715257 
L 192.925476 105.958178 
L 188.123981 111.530719 
L 183.627692 117.379213 
L 179.479908 123.447337 
L 175.720576 129.676651 
L 172.3859 136.007164 
L 169.507995 142.377909 
L 167.114577 148.727532 
L 165.228695 154.994883 
L 163.868512 161.119604 
L 163.047127 167.042711 
L 162.77245 172.707161 
L 163.047127 178.058402 
L 163.868512 183.044898 
L 165.228695 187.618628 
L 167.114577 191.735543 
L 169.507995 195.355996 
L 172.3859 198.445119 
L 175.720576 200.973162 
L 179.479908 202.91578 
L 183.627692 204.254263 
L 188.123981 204.975722 
L 192.925476 205.073207 
L 197.985934 204.545782 
L 203.25662 203.398523 
L 208.686776 201.642482 
L 214.224105 199.294568 
L 219.81528 196.377395 
" clip-path="url(#p0b5adf7feb)" style="fill: none; stroke: #cccccc"/>
    <path d="M 219.81528 83.992045 
L 215.575339 87.934525 
L 211.37623 92.380203 
L 207.258395 97.286265 
L 203.261489 102.605462 
L 199.424005 108.286568 
L 195.7829 114.27487 
L 192.37324 120.512699 
L 189.227862 126.93998 
L 186.377057 133.494815 
L 183.848281 140.114077 
L 181.665887 146.73402 
L 179.850892 153.290889 
L 178.420777 159.721539 
L 177.389312 165.964039 
L 176.766434 171.958269 
L 176.558139 177.646503 
L 176.766434 182.97396 
L 177.389312 187.889333 
L 178.420777 192.345284 
L 179.850892 196.298901 
L 181.665887 199.712107 
L 183.848281 202.552032 
L 186.377057 204.791326 
L 189.227862 206.408422 
L 192.37324 207.387749 
L 195.7829 207.719873 
L 199.424005 207.401597 
L 203.261489 206.435986 
L 207.258395 204.832339 
L 211.37623 202.6061 
L 215.575339 199.778709 
L 219.81528 196.377395 
" clip-path="url(#p0b5adf7feb)" style="fill: none; stroke: #cccccc"/>
    <path d="M 219.81528 83.992045 
L 217.089511 88.277557 
L 214.389993 93.062962 
L 211.742723 98.302176 
L 209.173196 103.944742 
L 206.706159 109.936318 
L 204.365369 116.219203 
L 202.173371 122.73289 
L 200.151273 129.414646 
L 198.318551 136.200125 
L 196.692854 143.023977 
L 195.289839 149.820486 
L 194.123017 156.524197 
L 193.203626 163.07055 
L 192.540519 169.3965 
L 192.140084 175.441124 
L 192.006175 181.14621 
L 192.140084 186.456815 
L 192.540519 191.321794 
L 193.203626 195.694295 
L 194.123017 199.532208 
L 195.289839 202.798573 
L 196.692854 205.461932 
L 198.318551 207.496636 
L 200.151273 208.883089 
L 202.173371 209.60794 
L 204.365369 209.664206 
L 206.706159 209.051348 
L 209.173196 207.775266 
L 211.742723 205.84825 
L 214.389993 203.288859 
L 217.089511 200.12174 
L 219.81528 196.377395 
" clip-path="url(#p0b5adf7feb)" style="fill: none; stroke: #cccccc"/>
    <path d="M 219.81528 83.992045 
L 218.708433 88.466296 
L 217.612246 93.438624 
L 216.537275 98.861142 
L 215.493873 104.681629 
L 214.492089 110.84403 
L 213.54157 117.288998 
L 212.65147 123.954465 
L 211.830361 130.776237 
L 211.086152 137.688618 
L 210.426009 144.625039 
L 209.85629 151.518696 
L 209.382481 158.303201 
L 209.009146 164.913215 
L 208.73988 171.28508 
L 208.577276 177.357432 
L 208.5229 183.071791 
L 208.577276 188.373123 
L 208.73988 193.210375 
L 209.009146 197.53696 
L 209.382481 201.311212 
L 209.85629 204.496783 
L 210.426009 207.062993 
L 211.086152 208.985129 
L 211.830361 210.24468 
L 212.65147 210.829515 
L 213.54157 210.734001 
L 214.492089 209.95906 
L 215.493873 208.512154 
L 216.537275 206.407217 
L 217.612246 203.664521 
L 218.708433 200.31048 
L 219.81528 196.377395 
" clip-path="url(#p0b5adf7feb)" style="fill: none; stroke: #cccccc"/>
    <path d="M 219.81528 83.992045 
L 220.369891 88.493492 
L 220.91916 93.492753 
L 221.457799 98.941683 
L 221.980619 104.787806 
L 222.482586 110.974821 
L 222.958866 117.443143 
L 223.40487 124.13048 
L 223.816306 130.972427 
L 224.189209 137.903093 
L 224.519988 144.855733 
L 224.805459 151.763389 
L 225.042872 158.559535 
L 225.22994 165.178722 
L 225.364862 171.557203 
L 225.446338 177.63355 
L 225.473585 183.349245 
L 225.446338 188.649241 
L 225.364862 193.482497 
L 225.22994 197.802467 
L 225.042872 201.567546 
L 224.805459 204.741476 
L 224.519988 207.293688 
L 224.189209 209.199604 
L 223.816306 210.440869 
L 223.40487 211.00553 
L 222.958866 210.888147 
L 222.482586 210.089851 
L 221.980619 208.618331 
L 221.457799 206.487757 
L 220.91916 203.718649 
L 220.369891 200.337675 
L 219.81528 196.377395 
" clip-path="url(#p0b5adf7feb)" style="fill: none; stroke: #cccccc"/>
    <path d="M 219.81528 83.992045 
L 222.010035 88.358097 
L 224.183653 93.223268 
L 226.315202 98.540703 
L 228.384153 104.259193 
L 230.370581 110.323665 
L 232.255355 116.675715 
L 234.020325 123.25417 
L 235.648492 129.995676 
L 237.124177 136.835307 
L 238.433168 143.707195 
L 239.562859 150.54516 
L 240.502369 157.283348 
L 241.242651 163.856867 
L 241.776577 170.202411 
L 242.099002 176.258867 
L 242.206824 181.96791 
L 242.099002 187.274558 
L 241.776577 192.127705 
L 241.242651 196.480612 
L 240.502369 200.29136 
L 239.562859 203.523247 
L 238.433168 206.14515 
L 237.124177 208.131818 
L 235.648492 209.464118 
L 234.020325 210.12922 
L 232.255355 210.120718 
L 230.370581 209.438694 
L 228.384153 208.089717 
L 226.315202 206.086777 
L 224.183653 203.449164 
L 222.010035 200.202281 
L 219.81528 196.377395 
" clip-path="url(#p0b5adf7feb)" style="fill: none; stroke: #cccccc"/>
    <path d="M 219.81528 83.992045 
L 223.565836 88.065316 
L 227.280272 92.640525 
L 230.922817 97.673611 
L 234.458389 103.116102 
L 237.852941 108.915584 
L 241.07378 115.016205 
L 244.089888 121.359213 
L 246.872218 127.88352 
L 249.393975 134.526295 
L 251.630873 141.223563 
L 253.56137 147.910827 
L 255.166873 154.523684 
L 256.431921 160.998449 
L 257.344331 167.272767 
L 257.895316 173.286212 
L 258.079569 178.980871 
L 257.895316 184.301902 
L 257.344331 189.198061 
L 256.431921 193.622194 
L 255.166873 197.531696 
L 253.56137 200.888914 
L 251.630873 203.661518 
L 249.393975 205.822806 
L 246.872218 207.351963 
L 244.089888 208.234263 
L 241.07378 208.461208 
L 237.852941 208.030614 
L 234.458389 206.946626 
L 230.922817 205.219685 
L 227.280272 202.866422 
L 223.565836 199.9095 
L 219.81528 196.377395 
" clip-path="url(#p0b5adf7feb)" style="fill: none; stroke: #cccccc"/>
    <path d="M 219.81528 83.992045 
L 224.977505 87.6264 
L 230.090016 91.76692 
L 235.103575 96.37373 
L 239.969899 101.402464 
L 244.642124 106.804692 
L 249.075252 112.528388 
L 253.226591 118.518429 
L 257.05616 124.717129 
L 260.52708 131.06479 
L 263.605923 137.500281 
L 266.263037 143.961625 
L 268.472835 150.386595 
L 270.214034 156.713315 
L 271.469865 162.880856 
L 272.228234 168.829821 
L 272.481838 174.502918 
L 272.228234 179.845511 
L 271.469865 184.80615 
L 270.214034 189.33706 
L 268.472835 193.394606 
L 266.263037 196.939712 
L 263.605923 199.938236 
L 260.52708 202.361301 
L 257.05616 204.185572 
L 253.226591 205.393479 
L 249.075252 205.973391 
L 244.642124 205.919721 
L 239.969899 205.232988 
L 235.103575 203.919804 
L 230.090016 201.992817 
L 224.977505 199.470583 
L 219.81528 196.377395 
" clip-path="url(#p0b5adf7feb)" style="fill: none; stroke: #cccccc"/>
    <path d="M 219.81528 83.992045 
L 226.190793 87.058216 
L 232.504907 90.636024 
L 238.696812 94.691013 
L 244.706878 99.184131 
L 250.477225 104.072107 
L 255.95228 109.307868 
L 261.079316 114.840989 
L 265.808957 120.618185 
L 270.095653 126.583817 
L 273.898122 132.680433 
L 277.179744 138.849319 
L 279.908915 145.031066 
L 282.059351 151.16614 
L 283.610342 157.195457 
L 284.546952 163.060951 
L 284.860161 168.706135 
L 284.546952 174.076642 
L 283.610342 179.120751 
L 282.059351 183.789885 
L 279.908915 188.039077 
L 277.179744 191.827406 
L 273.898122 195.118387 
L 270.095653 197.880328 
L 265.808957 200.086628 
L 261.079316 201.716039 
L 255.95228 202.752871 
L 250.477225 203.187137 
L 244.706878 203.014655 
L 238.696812 202.237087 
L 232.504907 200.86192 
L 226.190793 198.902399 
L 219.81528 196.377395 
" clip-path="url(#p0b5adf7feb)" style="fill: none; stroke: #cccccc"/>
    <path d="M 219.81528 83.992045 
L 227.159074 86.382599 
L 234.432143 89.291297 
L 241.564443 92.690126 
L 248.487287 96.546354 
L 255.134005 100.822843 
L 261.440583 105.478409 
L 267.346287 110.468215 
L 272.794242 115.744208 
L 277.73198 121.255576 
L 282.111949 126.949242 
L 285.891966 132.770373 
L 289.035629 138.662908 
L 291.512663 144.570099 
L 293.299211 150.435057 
L 294.378069 156.201298 
L 294.738846 161.813291 
L 294.378069 167.216989 
L 293.299211 172.360351 
L 291.512663 177.193844 
L 289.035629 181.67092 
L 285.891966 185.74846 
L 282.111949 189.387197 
L 277.73198 192.552087 
L 272.794242 195.21265 
L 267.346287 197.343265 
L 261.440583 198.923412 
L 255.134005 199.937873 
L 248.487287 200.376878 
L 241.564443 200.2362 
L 234.432143 199.517193 
L 227.159074 198.226782 
L 219.81528 196.377395 
" clip-path="url(#p0b5adf7feb)" style="fill: none; stroke: #cccccc"/>
    <path d="M 219.81528 83.992045 
L 219.81528 83.992045 
L 219.81528 83.992045 
L 219.81528 83.992045 
L 219.81528 83.992045 
L 219.81528 83.992045 
L 219.81528 83.992045 
L 219.81528 83.992045 
L 219.81528 83.992045 
L 219.81528 83.992045 
L 219.81528 83.992045 
L 219.81528 83.992045 
L 219.81528 83.992045 
L 219.81528 83.992045 
L 219.81528 83.992045 
L 219.81528 83.992045 
L 219.81528 83.992045 
L 219.81528 83.992045 
L 219.81528 83.992045 
L 219.81528 83.992045 
L 219.81528 83.992045 
L 219.81528 83.992045 
L 219.81528 83.992045 
L 219.81528 83.992045 
L 219.81528 83.992045 
L 219.81528 83.992045 
L 219.81528 83.992045 
L 219.81528 83.992045 
L 219.81528 83.992045 
L 219.81528 83.992045 
L 219.81528 83.992045 
L 219.81528 83.992045 
L 219.81528 83.992045 
" clip-path="url(#p0b5adf7feb)" style="fill: none; stroke: #cccccc"/>
    <path d="M 227.159074 86.382599 
L 227.845136 85.625513 
L 228.222616 84.816052 
L 228.277006 83.985323 
L 228.006217 83.165251 
L 227.420655 82.38735 
L 226.542823 81.681516 
L 225.406455 81.074872 
L 224.055221 80.590732 
L 222.541049 80.2477 
L 220.922127 80.05896 
L 219.260669 80.031765 
L 217.620525 80.16716 
L 216.064724 80.459941 
L 214.653054 80.898857 
L 213.439767 81.467041 
L 212.471486 82.142658 
L 211.785424 82.899744 
L 211.407944 83.709205 
L 211.353553 84.539934 
L 211.624342 85.360006 
L 212.209904 86.137907 
L 213.087737 86.843741 
L 214.224105 87.450385 
L 215.575339 87.934525 
L 217.089511 88.277557 
L 218.708433 88.466296 
L 220.369891 88.493492 
L 222.010035 88.358097 
L 223.565836 88.065316 
L 224.977505 87.6264 
L 226.190793 87.058216 
L 227.159074 86.382599 
" clip-path="url(#p0b5adf7feb)" style="fill: none; stroke: #cccccc"/>
    <path d="M 234.432143 89.291297 
L 235.797661 87.784415 
L 236.548985 86.173289 
L 236.657242 84.519832 
L 236.118272 82.887585 
L 234.952787 81.339276 
L 233.205576 79.934404 
L 230.943784 78.726958 
L 228.254329 77.763341 
L 225.240567 77.080582 
L 222.018314 76.704919 
L 218.711399 76.650791 
L 215.446906 76.920276 
L 212.350287 77.503018 
L 209.540544 78.376624 
L 207.125653 79.50752 
L 205.198417 80.852247 
L 203.832899 82.359128 
L 203.081575 83.970255 
L 202.973318 85.623712 
L 203.512288 87.255959 
L 204.677773 88.804268 
L 206.424983 90.20914 
L 208.686776 91.416585 
L 211.37623 92.380203 
L 214.389993 93.062962 
L 217.612246 93.438624 
L 220.91916 93.492753 
L 224.183653 93.223268 
L 227.280272 92.640525 
L 230.090016 91.76692 
L 232.504907 90.636024 
L 234.432143 89.291297 
" clip-path="url(#p0b5adf7feb)" style="fill: none; stroke: #cccccc"/>
    <path d="M 241.564443 92.690126 
L 243.596266 90.447962 
L 244.714199 88.050685 
L 244.87528 85.590423 
L 244.073319 83.161722 
L 242.339136 80.857915 
L 239.739374 78.767536 
L 236.373939 76.970917 
L 232.372165 75.537101 
L 227.887837 74.52119 
L 223.093285 73.962224 
L 218.172761 73.881683 
L 213.315358 74.282663 
L 208.707743 75.149755 
L 204.526985 76.449636 
L 200.933747 78.132353 
L 198.066117 80.13324 
L 196.034294 82.375405 
L 194.916361 84.772681 
L 194.75528 87.232943 
L 195.55724 89.661644 
L 197.291424 91.965451 
L 199.891186 94.05583 
L 203.25662 95.852449 
L 207.258395 97.286265 
L 211.742723 98.302176 
L 216.537275 98.861142 
L 221.457799 98.941683 
L 226.315202 98.540703 
L 230.922817 97.673611 
L 235.103575 96.37373 
L 238.696812 94.691013 
L 241.564443 92.690126 
" clip-path="url(#p0b5adf7feb)" style="fill: none; stroke: #cccccc"/>
    <path d="M 248.487287 96.546354 
L 251.165847 93.5905 
L 252.639622 90.430161 
L 252.851977 87.186788 
L 251.794749 83.985022 
L 249.508568 80.947903 
L 246.081291 78.192148 
L 241.644626 75.823659 
L 236.369071 73.933454 
L 230.457363 72.594174 
L 224.136687 71.857287 
L 217.64994 71.75111 
L 211.246407 72.279724 
L 205.172171 73.422814 
L 199.660661 75.136452 
L 194.923681 77.354785 
L 191.143272 79.992562 
L 188.464712 82.948416 
L 186.990937 86.108755 
L 186.778583 89.352128 
L 187.835811 92.553894 
L 190.121992 95.591013 
L 193.549269 98.346768 
L 197.985934 100.715257 
L 203.261489 102.605462 
L 209.173196 103.944742 
L 215.493873 104.681629 
L 221.980619 104.787806 
L 228.384153 104.259193 
L 234.458389 103.116102 
L 239.969899 101.402464 
L 244.706878 99.184131 
L 248.487287 96.546354 
" clip-path="url(#p0b5adf7feb)" style="fill: none; stroke: #cccccc"/>
    <path d="M 255.134005 100.822843 
L 258.433506 97.181766 
L 260.24893 93.288801 
L 260.510512 89.293552 
L 259.208199 85.349555 
L 256.392038 81.608375 
L 252.170252 78.213784 
L 246.705084 75.296233 
L 240.206555 72.967843 
L 232.924401 71.318092 
L 225.138471 70.41038 
L 217.147973 70.279589 
L 209.259979 70.930746 
L 201.777619 72.338826 
L 194.988436 74.449719 
L 189.153335 77.182303 
L 184.496555 80.431568 
L 181.197054 84.072645 
L 179.38163 87.96561 
L 179.120048 91.960859 
L 180.422361 95.904856 
L 183.238522 99.646036 
L 187.460307 103.040627 
L 192.925476 105.958178 
L 199.424005 108.286568 
L 206.706159 109.936318 
L 214.492089 110.84403 
L 222.482586 110.974821 
L 230.370581 110.323665 
L 237.852941 108.915584 
L 244.642124 106.804692 
L 250.477225 104.072107 
L 255.134005 100.822843 
" clip-path="url(#p0b5adf7feb)" style="fill: none; stroke: #cccccc"/>
    <path d="M 261.440583 105.478409 
L 265.329249 101.187174 
L 267.468839 96.599074 
L 267.77713 91.890426 
L 266.242273 87.242181 
L 262.923253 82.832969 
L 257.947618 78.832233 
L 251.506578 75.393719 
L 243.84766 72.649567 
L 235.265191 70.705234 
L 226.08899 69.635439 
L 216.671694 69.481294 
L 207.375205 70.248722 
L 198.55678 71.908232 
L 190.555308 74.39605 
L 183.67828 77.616569 
L 178.189977 81.446029 
L 174.30131 85.737263 
L 172.16172 90.325364 
L 171.85343 95.034011 
L 173.388287 99.682256 
L 176.707307 104.091469 
L 181.682942 108.092205 
L 188.123981 111.530719 
L 195.7829 114.27487 
L 204.365369 116.219203 
L 213.54157 117.288998 
L 222.958866 117.443143 
L 232.255355 116.675715 
L 241.07378 115.016205 
L 249.075252 112.528388 
L 255.95228 109.307868 
L 261.440583 105.478409 
" clip-path="url(#p0b5adf7feb)" style="fill: none; stroke: #cccccc"/>
    <path d="M 267.346287 110.468215 
L 271.786669 105.56815 
L 274.229819 100.3291 
L 274.581849 94.9524 
L 272.82923 89.644673 
L 269.039315 84.609891 
L 263.357748 80.04154 
L 256.002868 76.115177 
L 247.25732 72.981691 
L 237.457189 70.761501 
L 226.97909 69.539926 
L 216.225689 69.363911 
L 205.610235 70.24022 
L 195.540672 72.135178 
L 186.403969 74.975961 
L 178.551244 78.653401 
L 172.284273 83.026175 
L 167.843891 87.926241 
L 165.400741 93.16529 
L 165.048711 98.54199 
L 166.80133 103.849718 
L 170.591245 108.884499 
L 176.272812 113.452851 
L 183.627692 117.379213 
L 192.37324 120.512699 
L 202.173371 122.73289 
L 212.65147 123.954465 
L 223.40487 124.13048 
L 234.020325 123.25417 
L 244.089888 121.359213 
L 253.226591 118.518429 
L 261.079316 114.840989 
L 267.346287 110.468215 
" clip-path="url(#p0b5adf7feb)" style="fill: none; stroke: #cccccc"/>
    <path d="M 272.794242 115.744208 
L 277.743575 110.282502 
L 280.466756 104.442958 
L 280.859136 98.449986 
L 278.905634 92.533892 
L 274.681323 86.92203 
L 268.34854 81.830059 
L 260.150652 77.45366 
L 250.402698 73.961018 
L 239.479286 71.486351 
L 227.800198 70.12476 
L 215.814254 69.928571 
L 203.982067 70.905322 
L 192.758342 73.017477 
L 182.574399 76.183869 
L 173.821603 80.282813 
L 166.836318 85.15679 
L 161.886985 90.618496 
L 159.163803 96.45804 
L 158.771424 102.451012 
L 160.724926 108.367105 
L 164.949237 113.978968 
L 171.28202 119.070939 
L 179.479908 123.447337 
L 189.227862 126.93998 
L 200.151273 129.414646 
L 211.830361 130.776237 
L 223.816306 130.972427 
L 235.648492 129.995676 
L 246.872218 127.88352 
L 257.05616 124.717129 
L 265.808957 120.618185 
L 272.794242 115.744208 
" clip-path="url(#p0b5adf7feb)" style="fill: none; stroke: #cccccc"/>
    <path d="M 277.73198 121.255576 
L 283.1426 115.284829 
L 286.119587 108.901028 
L 286.548537 102.3495 
L 284.412965 95.882016 
L 279.79494 89.747117 
L 272.871931 84.180565 
L 263.909984 79.396278 
L 253.253502 75.578115 
L 241.312008 72.872804 
L 228.544408 71.384311 
L 215.441351 71.169836 
L 202.506382 72.237622 
L 190.236585 74.546634 
L 179.10348 78.008139 
L 169.534907 82.489113 
L 161.89858 87.817353 
L 156.487959 93.7881 
L 153.510972 100.171901 
L 153.082023 106.723429 
L 155.217595 113.190913 
L 159.83562 119.325812 
L 166.758629 124.892365 
L 175.720576 129.676651 
L 186.377057 133.494815 
L 198.318551 136.200125 
L 211.086152 137.688618 
L 224.189209 137.903093 
L 237.124177 136.835307 
L 249.393975 134.526295 
L 260.52708 131.06479 
L 270.095653 126.583817 
L 277.73198 121.255576 
" clip-path="url(#p0b5adf7feb)" style="fill: none; stroke: #cccccc"/>
    <path d="M 282.111949 126.949242 
L 287.931749 120.526955 
L 291.133871 113.660378 
L 291.595261 106.613388 
L 289.298185 99.656799 
L 284.330921 93.057946 
L 276.884357 87.070421 
L 267.24466 81.924322 
L 255.782278 77.817408 
L 242.937705 74.907508 
L 229.204551 73.306447 
L 215.110571 73.075752 
L 201.197391 74.22429 
L 187.999687 76.707922 
L 176.024637 80.431204 
L 165.732437 85.251053 
L 157.518611 90.982244 
L 151.698811 97.40453 
L 148.496688 104.271107 
L 148.035299 111.318097 
L 150.332374 118.274687 
L 155.299639 124.873539 
L 162.746203 130.861064 
L 172.3859 136.007164 
L 183.848281 140.114077 
L 196.692854 143.023977 
L 210.426009 144.625039 
L 224.519988 144.855733 
L 238.433168 143.707195 
L 251.630873 141.223563 
L 263.605923 137.500281 
L 273.898122 132.680433 
L 282.111949 126.949242 
" clip-path="url(#p0b5adf7feb)" style="fill: none; stroke: #cccccc"/>
    <path d="M 285.891966 132.770373 
L 292.064899 125.958397 
L 295.461319 118.675172 
L 295.950704 111.200587 
L 293.514247 103.821887 
L 288.245581 96.822632 
L 280.347176 90.471798 
L 270.122565 85.013445 
L 257.964673 80.657333 
L 244.340721 77.570867 
L 229.77427 75.872657 
L 214.825101 75.627965 
L 200.067701 76.846193 
L 186.06919 79.480526 
L 173.367522 83.429729 
L 162.450816 88.542034 
L 153.738593 94.62098 
L 147.565661 101.432956 
L 144.169241 108.716182 
L 143.679856 116.190766 
L 146.116313 123.569466 
L 151.384979 130.568722 
L 159.283384 136.919555 
L 169.507995 142.377909 
L 181.665887 146.73402 
L 195.289839 149.820486 
L 209.85629 151.518696 
L 224.805459 151.763389 
L 239.562859 150.54516 
L 253.56137 147.910827 
L 266.263037 143.961625 
L 277.179744 138.849319 
L 285.891966 132.770373 
" clip-path="url(#p0b5adf7feb)" style="fill: none; stroke: #cccccc"/>
    <path d="M 289.035629 138.662908 
L 295.502245 131.526846 
L 299.060253 123.897114 
L 299.572921 116.066918 
L 297.020548 108.33717 
L 291.501219 101.004918 
L 283.22704 94.351937 
L 272.515983 88.633897 
L 259.779667 84.07054 
L 245.507542 80.837232 
L 230.248078 79.058228 
L 214.587688 78.801894 
L 199.128191 80.078081 
L 184.463687 82.837745 
L 171.157725 86.974834 
L 159.721645 92.330363 
L 150.59493 98.698521 
L 144.128315 105.834583 
L 140.570307 113.464315 
L 140.057639 121.29451 
L 142.610012 129.024259 
L 148.12934 136.356511 
L 156.403519 143.009492 
L 167.114577 148.727532 
L 179.850892 153.290889 
L 194.123017 156.524197 
L 209.382481 158.303201 
L 225.042872 158.559535 
L 240.502369 157.283348 
L 255.166873 154.523684 
L 268.472835 150.386595 
L 279.908915 145.031066 
L 289.035629 138.662908 
" clip-path="url(#p0b5adf7feb)" style="fill: none; stroke: #cccccc"/>
    <path d="M 291.512663 144.570099 
L 298.210684 137.178675 
L 301.896015 129.275915 
L 302.427029 121.165518 
L 299.783319 113.159162 
L 294.066483 105.564527 
L 285.496215 98.673471 
L 274.401865 92.750812 
L 261.209783 88.024156 
L 246.426934 84.675145 
L 230.621414 82.83248 
L 214.40062 82.566973 
L 198.387908 83.888828 
L 183.198639 86.747246 
L 169.416526 91.03238 
L 157.571209 96.579555 
L 148.117897 103.175596 
L 141.419875 110.567021 
L 137.734545 118.469781 
L 137.203531 126.580178 
L 139.84724 134.586533 
L 145.564077 142.181168 
L 154.134345 149.072225 
L 165.228695 154.994883 
L 178.420777 159.721539 
L 193.203626 163.07055 
L 209.009146 164.913215 
L 225.22994 165.178722 
L 241.242651 163.856867 
L 256.431921 160.998449 
L 270.214034 156.713315 
L 282.059351 151.16614 
L 291.512663 144.570099 
" clip-path="url(#p0b5adf7feb)" style="fill: none; stroke: #cccccc"/>
    <path d="M 293.299211 150.435057 
L 300.164133 142.859453 
L 303.941295 134.759773 
L 304.48554 126.447282 
L 301.775955 118.241425 
L 295.916667 110.457548 
L 287.132846 103.394781 
L 275.762048 97.324542 
L 262.241247 92.480108 
L 247.09004 89.047646 
L 230.89068 87.159066 
L 214.265698 86.886943 
L 197.853983 88.241736 
L 182.286229 91.171379 
L 168.160695 95.56329 
L 156.020218 101.248689 
L 146.331349 108.009089 
L 139.466426 115.584693 
L 135.689265 123.684373 
L 135.14502 131.996864 
L 137.854605 140.202721 
L 143.713892 147.986599 
L 152.497714 155.049366 
L 163.868512 161.119604 
L 177.389312 165.964039 
L 192.540519 169.3965 
L 208.73988 171.28508 
L 225.364862 171.557203 
L 241.776577 170.202411 
L 257.344331 167.272767 
L 271.469865 162.880856 
L 283.610342 157.195457 
L 293.299211 150.435057 
" clip-path="url(#p0b5adf7feb)" style="fill: none; stroke: #cccccc"/>
    <path d="M 294.378069 156.201298 
L 301.343779 148.514473 
L 305.176395 140.295877 
L 305.728631 131.861346 
L 302.979265 123.535014 
L 297.033953 115.636857 
L 288.121172 108.470398 
L 276.583433 102.311039 
L 262.864126 97.39548 
L 247.490476 93.912625 
L 231.053284 91.996317 
L 214.184221 91.720199 
L 197.531557 93.094882 
L 181.735244 96.067538 
L 167.402326 100.523929 
L 155.083607 106.292798 
L 145.252491 113.152452 
L 138.286781 120.839277 
L 134.454165 129.057873 
L 133.901929 137.492404 
L 136.651295 145.818736 
L 142.596606 153.716893 
L 151.509388 160.883352 
L 163.047127 167.042711 
L 176.766434 171.958269 
L 192.140084 175.441124 
L 208.577276 177.357432 
L 225.446338 177.63355 
L 242.099002 176.258867 
L 257.895316 173.286212 
L 272.228234 168.829821 
L 284.546952 163.060951 
L 294.378069 156.201298 
" clip-path="url(#p0b5adf7feb)" style="fill: none; stroke: #cccccc"/>
    <path d="M 294.738846 161.813291 
L 301.738261 154.089272 
L 305.589421 145.83091 
L 306.144329 137.355568 
L 303.38166 128.988948 
L 297.407582 121.052576 
L 288.451675 113.851441 
L 276.85811 107.662279 
L 263.072421 102.722937 
L 247.624385 99.22323 
L 231.10766 97.29765 
L 214.156975 97.020196 
L 197.423736 98.40153 
L 181.550991 101.388569 
L 167.148722 105.866523 
L 154.770398 111.663305 
L 144.891713 118.55615 
L 137.892299 126.280168 
L 134.041139 134.53853 
L 133.486231 143.013873 
L 136.2489 151.380492 
L 142.222978 159.316864 
L 151.178885 166.517999 
L 162.77245 172.707161 
L 176.558139 177.646503 
L 192.006175 181.14621 
L 208.5229 183.071791 
L 225.473585 183.349245 
L 242.206824 181.96791 
L 258.079569 178.980871 
L 272.481838 174.502918 
L 284.860161 168.706135 
L 294.738846 161.813291 
" clip-path="url(#p0b5adf7feb)" style="fill: none; stroke: #cccccc"/>
    <path d="M 294.378069 167.216989 
L 301.343779 159.530164 
L 305.176395 151.311567 
L 305.728631 142.877036 
L 302.979265 134.550704 
L 297.033953 126.652548 
L 288.121172 119.486088 
L 276.583433 113.326729 
L 262.864126 108.411171 
L 247.490476 104.928316 
L 231.053284 103.012008 
L 214.184221 102.73589 
L 197.531557 104.110573 
L 181.735244 107.083229 
L 167.402326 111.539619 
L 155.083607 117.308489 
L 145.252491 124.168142 
L 138.286781 131.854967 
L 134.454165 140.073563 
L 133.901929 148.508095 
L 136.651295 156.834427 
L 142.596606 164.732583 
L 151.509388 171.899043 
L 163.047127 178.058402 
L 176.766434 182.97396 
L 192.140084 186.456815 
L 208.577276 188.373123 
L 225.446338 188.649241 
L 242.099002 187.274558 
L 257.895316 184.301902 
L 272.228234 179.845511 
L 284.546952 174.076642 
L 294.378069 167.216989 
" clip-path="url(#p0b5adf7feb)" style="fill: none; stroke: #cccccc"/>
    <path d="M 293.299211 172.360351 
L 300.164133 164.784747 
L 303.941295 156.685067 
L 304.48554 148.372576 
L 301.775955 140.166719 
L 295.916667 132.382842 
L 287.132846 125.320075 
L 275.762048 119.249836 
L 262.241247 114.405402 
L 247.09004 110.97294 
L 230.89068 109.08436 
L 214.265698 108.812237 
L 197.853983 110.16703 
L 182.286229 113.096673 
L 168.160695 117.488584 
L 156.020218 123.173983 
L 146.331349 129.934383 
L 139.466426 137.509987 
L 135.689265 145.609667 
L 135.14502 153.922158 
L 137.854605 162.128016 
L 143.713892 169.911893 
L 152.497714 176.97466 
L 163.868512 183.044898 
L 177.389312 187.889333 
L 192.540519 191.321794 
L 208.73988 193.210375 
L 225.364862 193.482497 
L 241.776577 192.127705 
L 257.344331 189.198061 
L 271.469865 184.80615 
L 283.610342 179.120751 
L 293.299211 172.360351 
" clip-path="url(#p0b5adf7feb)" style="fill: none; stroke: #cccccc"/>
    <path d="M 291.512663 177.193844 
L 298.210684 169.80242 
L 301.896015 161.89966 
L 302.427029 153.789263 
L 299.783319 145.782907 
L 294.066483 138.188272 
L 285.496215 131.297216 
L 274.401865 125.374557 
L 261.209783 120.647901 
L 246.426934 117.29889 
L 230.621414 115.456225 
L 214.40062 115.190718 
L 198.387908 116.512573 
L 183.198639 119.370991 
L 169.416526 123.656125 
L 157.571209 129.2033 
L 148.117897 135.799341 
L 141.419875 143.190766 
L 137.734545 151.093526 
L 137.203531 159.203923 
L 139.84724 167.210278 
L 145.564077 174.804913 
L 154.134345 181.69597 
L 165.228695 187.618628 
L 178.420777 192.345284 
L 193.203626 195.694295 
L 209.009146 197.53696 
L 225.22994 197.802467 
L 241.242651 196.480612 
L 256.431921 193.622194 
L 270.214034 189.33706 
L 282.059351 183.789885 
L 291.512663 177.193844 
" clip-path="url(#p0b5adf7feb)" style="fill: none; stroke: #cccccc"/>
    <path d="M 289.035629 181.67092 
L 295.502245 174.534857 
L 299.060253 166.905125 
L 299.572921 159.07493 
L 297.020548 151.345181 
L 291.501219 144.012929 
L 283.22704 137.359948 
L 272.515983 131.641908 
L 259.779667 127.078551 
L 245.507542 123.845243 
L 230.248078 122.066239 
L 214.587688 121.809905 
L 199.128191 123.086092 
L 184.463687 125.845756 
L 171.157725 129.982846 
L 159.721645 135.338374 
L 150.59493 141.706532 
L 144.128315 148.842594 
L 140.570307 156.472327 
L 140.057639 164.302522 
L 142.610012 172.03227 
L 148.12934 179.364522 
L 156.403519 186.017503 
L 167.114577 191.735543 
L 179.850892 196.298901 
L 194.123017 199.532208 
L 209.382481 201.311212 
L 225.042872 201.567546 
L 240.502369 200.29136 
L 255.166873 197.531696 
L 268.472835 193.394606 
L 279.908915 188.039077 
L 289.035629 181.67092 
" clip-path="url(#p0b5adf7feb)" style="fill: none; stroke: #cccccc"/>
    <path d="M 285.891966 185.74846 
L 292.064899 178.936484 
L 295.461319 171.653259 
L 295.950704 164.178674 
L 293.514247 156.799974 
L 288.245581 149.800719 
L 280.347176 143.449885 
L 270.122565 137.991532 
L 257.964673 133.63542 
L 244.340721 130.548954 
L 229.77427 128.850744 
L 214.825101 128.606052 
L 200.067701 129.82428 
L 186.06919 132.458613 
L 173.367522 136.407816 
L 162.450816 141.520121 
L 153.738593 147.599067 
L 147.565661 154.411043 
L 144.169241 161.694269 
L 143.679856 169.168853 
L 146.116313 176.547553 
L 151.384979 183.546809 
L 159.283384 189.897642 
L 169.507995 195.355996 
L 181.665887 199.712107 
L 195.289839 202.798573 
L 209.85629 204.496783 
L 224.805459 204.741476 
L 239.562859 203.523247 
L 253.56137 200.888914 
L 266.263037 196.939712 
L 277.179744 191.827406 
L 285.891966 185.74846 
" clip-path="url(#p0b5adf7feb)" style="fill: none; stroke: #cccccc"/>
    <path d="M 282.111949 189.387197 
L 287.931749 182.96491 
L 291.133871 176.098333 
L 291.595261 169.051343 
L 289.298185 162.094753 
L 284.330921 155.495901 
L 276.884357 149.508376 
L 267.24466 144.362276 
L 255.782278 140.255363 
L 242.937705 137.345463 
L 229.204551 135.744402 
L 215.110571 135.513707 
L 201.197391 136.662245 
L 187.999687 139.145877 
L 176.024637 142.869159 
L 165.732437 147.689008 
L 157.518611 153.420198 
L 151.698811 159.842485 
L 148.496688 166.709062 
L 148.035299 173.756052 
L 150.332374 180.712642 
L 155.299639 187.311494 
L 162.746203 193.299019 
L 172.3859 198.445119 
L 183.848281 202.552032 
L 196.692854 205.461932 
L 210.426009 207.062993 
L 224.519988 207.293688 
L 238.433168 206.14515 
L 251.630873 203.661518 
L 263.605923 199.938236 
L 273.898122 195.118387 
L 282.111949 189.387197 
" clip-path="url(#p0b5adf7feb)" style="fill: none; stroke: #cccccc"/>
    <path d="M 277.73198 192.552087 
L 283.1426 186.58134 
L 286.119587 180.197539 
L 286.548537 173.646011 
L 284.412965 167.178527 
L 279.79494 161.043628 
L 272.871931 155.477076 
L 263.909984 150.692789 
L 253.253502 146.874626 
L 241.312008 144.169315 
L 228.544408 142.680822 
L 215.441351 142.466347 
L 202.506382 143.534133 
L 190.236585 145.843146 
L 179.10348 149.30465 
L 169.534907 153.785624 
L 161.89858 159.113864 
L 156.487959 165.084611 
L 153.510972 171.468412 
L 153.082023 178.01994 
L 155.217595 184.487424 
L 159.83562 190.622323 
L 166.758629 196.188876 
L 175.720576 200.973162 
L 186.377057 204.791326 
L 198.318551 207.496636 
L 211.086152 208.985129 
L 224.189209 209.199604 
L 237.124177 208.131818 
L 249.393975 205.822806 
L 260.52708 202.361301 
L 270.095653 197.880328 
L 277.73198 192.552087 
" clip-path="url(#p0b5adf7feb)" style="fill: none; stroke: #cccccc"/>
    <path d="M 272.794242 195.21265 
L 277.743575 189.750945 
L 280.466756 183.911401 
L 280.859136 177.918429 
L 278.905634 172.002335 
L 274.681323 166.390473 
L 268.34854 161.298501 
L 260.150652 156.922103 
L 250.402698 153.429461 
L 239.479286 150.954794 
L 227.800198 149.593203 
L 215.814254 149.397014 
L 203.982067 150.373765 
L 192.758342 152.48592 
L 182.574399 155.652311 
L 173.821603 159.751256 
L 166.836318 164.625233 
L 161.886985 170.086938 
L 159.163803 175.926482 
L 158.771424 181.919454 
L 160.724926 187.835548 
L 164.949237 193.447411 
L 171.28202 198.539382 
L 179.479908 202.91578 
L 189.227862 206.408422 
L 200.151273 208.883089 
L 211.830361 210.24468 
L 223.816306 210.440869 
L 235.648492 209.464118 
L 246.872218 207.351963 
L 257.05616 204.185572 
L 265.808957 200.086628 
L 272.794242 195.21265 
" clip-path="url(#p0b5adf7feb)" style="fill: none; stroke: #cccccc"/>
    <path d="M 267.346287 197.343265 
L 271.786669 192.4432 
L 274.229819 187.20415 
L 274.581849 181.82745 
L 272.82923 176.519723 
L 269.039315 171.484941 
L 263.357748 166.91659 
L 256.002868 162.990227 
L 247.25732 159.856741 
L 237.457189 157.636551 
L 226.97909 156.414976 
L 216.225689 156.238961 
L 205.610235 157.11527 
L 195.540672 159.010228 
L 186.403969 161.851011 
L 178.551244 165.528451 
L 172.284273 169.901225 
L 167.843891 174.801291 
L 165.400741 180.04034 
L 165.048711 185.41704 
L 166.80133 190.724768 
L 170.591245 195.759549 
L 176.272812 200.327901 
L 183.627692 204.254263 
L 192.37324 207.387749 
L 202.173371 209.60794 
L 212.65147 210.829515 
L 223.40487 211.00553 
L 234.020325 210.12922 
L 244.089888 208.234263 
L 253.226591 205.393479 
L 261.079316 201.716039 
L 267.346287 197.343265 
" clip-path="url(#p0b5adf7feb)" style="fill: none; stroke: #cccccc"/>
    <path d="M 261.440583 198.923412 
L 265.329249 194.632177 
L 267.468839 190.044077 
L 267.77713 185.335429 
L 266.242273 180.687184 
L 262.923253 176.277972 
L 257.947618 172.277236 
L 251.506578 168.838722 
L 243.84766 166.09457 
L 235.265191 164.150237 
L 226.08899 163.080442 
L 216.671694 162.926297 
L 207.375205 163.693725 
L 198.55678 165.353235 
L 190.555308 167.841053 
L 183.67828 171.061572 
L 178.189977 174.891032 
L 174.30131 179.182266 
L 172.16172 183.770367 
L 171.85343 188.479015 
L 173.388287 193.127259 
L 176.707307 197.536472 
L 181.682942 201.537208 
L 188.123981 204.975722 
L 195.7829 207.719873 
L 204.365369 209.664206 
L 213.54157 210.734001 
L 222.958866 210.888147 
L 232.255355 210.120718 
L 241.07378 208.461208 
L 249.075252 205.973391 
L 255.95228 202.752871 
L 261.440583 198.923412 
" clip-path="url(#p0b5adf7feb)" style="fill: none; stroke: #cccccc"/>
    <path d="M 255.134005 199.937873 
L 258.433506 196.296796 
L 260.24893 192.40383 
L 260.510512 188.408582 
L 259.208199 184.464585 
L 256.392038 180.723405 
L 252.170252 177.328813 
L 246.705084 174.411263 
L 240.206555 172.082873 
L 232.924401 170.433122 
L 225.138471 169.52541 
L 217.147973 169.394619 
L 209.259979 170.045776 
L 201.777619 171.453856 
L 194.988436 173.564749 
L 189.153335 176.297333 
L 184.496555 179.546597 
L 181.197054 183.187674 
L 179.38163 187.080639 
L 179.120048 191.075888 
L 180.422361 195.019885 
L 183.238522 198.761065 
L 187.460307 202.155657 
L 192.925476 205.073207 
L 199.424005 207.401597 
L 206.706159 209.051348 
L 214.492089 209.95906 
L 222.482586 210.089851 
L 230.370581 209.438694 
L 237.852941 208.030614 
L 244.642124 205.919721 
L 250.477225 203.187137 
L 255.134005 199.937873 
" clip-path="url(#p0b5adf7feb)" style="fill: none; stroke: #cccccc"/>
    <path d="M 248.487287 200.376878 
L 251.165847 197.421024 
L 252.639622 194.260686 
L 252.851977 191.017313 
L 251.794749 187.815546 
L 249.508568 184.778428 
L 246.081291 182.022673 
L 241.644626 179.654183 
L 236.369071 177.763978 
L 230.457363 176.424699 
L 224.136687 175.687811 
L 217.64994 175.581634 
L 211.246407 176.110248 
L 205.172171 177.253338 
L 199.660661 178.966977 
L 194.923681 181.185309 
L 191.143272 183.823087 
L 188.464712 186.77894 
L 186.990937 189.939279 
L 186.778583 193.182652 
L 187.835811 196.384419 
L 190.121992 199.421537 
L 193.549269 202.177292 
L 197.985934 204.545782 
L 203.261489 206.435986 
L 209.173196 207.775266 
L 215.493873 208.512154 
L 221.980619 208.618331 
L 228.384153 208.089717 
L 234.458389 206.946626 
L 239.969899 205.232988 
L 244.706878 203.014655 
L 248.487287 200.376878 
" clip-path="url(#p0b5adf7feb)" style="fill: none; stroke: #cccccc"/>
    <path d="M 241.564443 200.2362 
L 243.596266 197.994036 
L 244.714199 195.59676 
L 244.87528 193.136498 
L 244.073319 190.707796 
L 242.339136 188.403989 
L 239.739374 186.31361 
L 236.373939 184.516991 
L 232.372165 183.083176 
L 227.887837 182.067264 
L 223.093285 181.508298 
L 218.172761 181.427757 
L 213.315358 181.828737 
L 208.707743 182.695829 
L 204.526985 183.99571 
L 200.933747 185.678427 
L 198.066117 187.679315 
L 196.034294 189.921479 
L 194.916361 192.318755 
L 194.75528 194.779017 
L 195.55724 197.207718 
L 197.291424 199.511526 
L 199.891186 201.601905 
L 203.25662 203.398523 
L 207.258395 204.832339 
L 211.742723 205.84825 
L 216.537275 206.407217 
L 221.457799 206.487757 
L 226.315202 206.086777 
L 230.922817 205.219685 
L 235.103575 203.919804 
L 238.696812 202.237087 
L 241.564443 200.2362 
" clip-path="url(#p0b5adf7feb)" style="fill: none; stroke: #cccccc"/>
    <path d="M 234.432143 199.517193 
L 235.797661 198.010312 
L 236.548985 196.399185 
L 236.657242 194.745728 
L 236.118272 193.113482 
L 234.952787 191.565172 
L 233.205576 190.160301 
L 230.943784 188.952855 
L 228.254329 187.989237 
L 225.240567 187.306478 
L 222.018314 186.930816 
L 218.711399 186.876687 
L 215.446906 187.146172 
L 212.350287 187.728915 
L 209.540544 188.60252 
L 207.125653 189.733416 
L 205.198417 191.078144 
L 203.832899 192.585025 
L 203.081575 194.196151 
L 202.973318 195.849609 
L 203.512288 197.481855 
L 204.677773 199.030165 
L 206.424983 200.435036 
L 208.686776 201.642482 
L 211.37623 202.6061 
L 214.389993 203.288859 
L 217.612246 203.664521 
L 220.91916 203.718649 
L 224.183653 203.449164 
L 227.280272 202.866422 
L 230.090016 201.992817 
L 232.504907 200.86192 
L 234.432143 199.517193 
" clip-path="url(#p0b5adf7feb)" style="fill: none; stroke: #cccccc"/>
    <path d="M 227.159074 198.226782 
L 227.845136 197.469696 
L 228.222616 196.660235 
L 228.277006 195.829506 
L 228.006217 195.009434 
L 227.420655 194.231534 
L 226.542823 193.525699 
L 225.406455 192.919055 
L 224.055221 192.434915 
L 222.541049 192.091884 
L 220.922127 191.903144 
L 219.260669 191.875949 
L 217.620525 192.011343 
L 216.064724 192.304124 
L 214.653054 192.74304 
L 213.439767 193.311224 
L 212.471486 193.986841 
L 211.785424 194.743927 
L 211.407944 195.553388 
L 211.353553 196.384117 
L 211.624342 197.204189 
L 212.209904 197.98209 
L 213.087737 198.687925 
L 214.224105 199.294568 
L 215.575339 199.778709 
L 217.089511 200.12174 
L 218.708433 200.31048 
L 220.369891 200.337675 
L 222.010035 200.202281 
L 223.565836 199.9095 
L 224.977505 199.470583 
L 226.190793 198.902399 
L 227.159074 198.226782 
" clip-path="url(#p0b5adf7feb)" style="fill: none; stroke: #cccccc"/>
    <path d="M 219.81528 196.377395 
L 219.81528 196.377395 
L 219.81528 196.377395 
L 219.81528 196.377395 
L 219.81528 196.377395 
L 219.81528 196.377395 
L 219.81528 196.377395 
L 219.81528 196.377395 
L 219.81528 196.377395 
L 219.81528 196.377395 
L 219.81528 196.377395 
L 219.81528 196.377395 
L 219.81528 196.377395 
L 219.81528 196.377395 
L 219.81528 196.377395 
L 219.81528 196.377395 
L 219.81528 196.377395 
L 219.81528 196.377395 
L 219.81528 196.377395 
L 219.81528 196.377395 
L 219.81528 196.377395 
L 219.81528 196.377395 
L 219.81528 196.377395 
L 219.81528 196.377395 
L 219.81528 196.377395 
L 219.81528 196.377395 
L 219.81528 196.377395 
L 219.81528 196.377395 
L 219.81528 196.377395 
L 219.81528 196.377395 
L 219.81528 196.377395 
L 219.81528 196.377395 
L 219.81528 196.377395 
" clip-path="url(#p0b5adf7feb)" style="fill: none; stroke: #cccccc"/>
   </g>
   <g id="line2d_20">
    <path d="M 294.738846 161.813291 
L 265.518178 149.16037 
" clip-path="url(#p0b5adf7feb)" style="fill: none; stroke: #c371d2; stroke-width: 1.5"/>
   </g>
   <g id="line2d_21">
    <path d="M 176.558139 177.646503 
L 227.169821 154.298076 
" clip-path="url(#p0b5adf7feb)" style="fill: none; stroke: #c371d2; stroke-width: 1.5"/>
   </g>
   <g id="line2d_22">
    <path d="M 219.81528 83.992045 
L 241.206294 123.908221 
" clip-path="url(#p0b5adf7feb)" style="fill: none; stroke: #c371d2; stroke-width: 1.5"/>
   </g>
   <g id="legend_1">
    <g id="patch_6">
     <path d="M 314.540354 20.977146 
L 353.165354 20.977146 
L 353.165354 6.834646 
L 314.540354 6.834646 
z
" style="fill: #ffffff; stroke: #000000; stroke-linejoin: miter"/>
    </g>
    <g id="Path3DCollection_2">
     <defs>
      <path id="m259d00f1f7" d="M 0 5 
C 1.326016 5 2.597899 4.473168 3.535534 3.535534 
C 4.473168 2.597899 5 1.326016 5 0 
C 5 -1.326016 4.473168 -2.597899 3.535534 -3.535534 
C 2.597899 -4.473168 1.326016 -5 0 -5 
C -1.326016 -5 -2.597899 -4.473168 -3.535534 -3.535534 
C -4.473168 -2.597899 -5 -1.326016 -5 0 
C -5 1.326016 -4.473168 2.597899 -3.535534 3.535534 
C -2.597899 4.473168 -1.326016 5 0 5 
z
" style="stroke: #000000"/>
     </defs>
     <g>
      <use xlink:href="#m259d00f1f7" x="325.740354" y="14.013396" style="fill: #e36f47; stroke: #000000"/>
     </g>
    </g>
    <g id="text_6">
     <!-- y2 -->
     <g transform="translate(340.140354 16.113396) scale(0.08 -0.08)">
      <defs>
       <path id="DejaVuSans-79" d="M 2059 -325 
Q 1816 -950 1584 -1140 
Q 1353 -1331 966 -1331 
L 506 -1331 
L 506 -850 
L 844 -850 
Q 1081 -850 1212 -737 
Q 1344 -625 1503 -206 
L 1606 56 
L 191 3500 
L 800 3500 
L 1894 763 
L 2988 3500 
L 3597 3500 
L 2059 -325 
z
" transform="scale(0.015625)"/>
       <path id="DejaVuSans-32" d="M 1228 531 
L 3431 531 
L 3431 0 
L 469 0 
L 469 531 
Q 828 903 1448 1529 
Q 2069 2156 2228 2338 
Q 2531 2678 2651 2914 
Q 2772 3150 2772 3378 
Q 2772 3750 2511 3984 
Q 2250 4219 1831 4219 
Q 1534 4219 1204 4116 
Q 875 4013 500 3803 
L 500 4441 
Q 881 4594 1212 4672 
Q 1544 4750 1819 4750 
Q 2544 4750 2975 4387 
Q 3406 4025 3406 3419 
Q 3406 3131 3298 2873 
Q 3191 2616 2906 2266 
Q 2828 2175 2409 1742 
Q 1991 1309 1228 531 
z
" transform="scale(0.015625)"/>
      </defs>
      <use xlink:href="#DejaVuSans-79"/>
      <use xlink:href="#DejaVuSans-32" x="59.179688"/>
     </g>
    </g>
   </g>
  </g>
 </g>
 <defs>
  <clipPath id="p0b5adf7feb">
   <rect x="74.834646" y="2.834646" width="282.330709" height="282.330709"/>
  </clipPath>
 </defs>
</svg>
