<?xml version="1.0" encoding="utf-8"?>
<svg xmlns="http://www.w3.org/2000/svg" xmlns:xlink="http://www.w3.org/1999/xlink" width="672" height="480" viewBox="0 0 2688 1920">
<defs>
  <clipPath id="clip780">
    <rect x="0" y="0" width="2688" height="1920"/>
  </clipPath>
</defs>
<path clip-path="url(#clip780)" d="M0 1920 L2688 1920 L2688 0 L0 0  Z" fill="#ffffff" fill-rule="evenodd" fill-opacity="1"/>
<defs>
  <clipPath id="clip781">
    <rect x="537" y="0" width="1883" height="1883"/>
  </clipPath>
</defs>
<defs>
  <clipPath id="clip782">
    <rect x="189" y="47" width="2452" height="1755"/>
  </clipPath>
</defs>
<path clip-path="url(#clip782)" d="M-26726.1 5417.21 L-26726.1 -7586.76 L-15206.7 -14088.7 L4745.36 -10334.8 L4745.36 2669.15 L-6773.99 9171.13 L-26726.1 5417.21  Z" fill="#ffffff" fill-rule="evenodd" fill-opacity="1"/>
<polyline clip-path="url(#clip782)" style="stroke:#000000; stroke-linecap:round; stroke-linejoin:round; stroke-width:2; stroke-opacity:0.1; fill:none" points="914.55,1510.13 1420.75,1071.74 1420.75,194.975 "/>
<polyline clip-path="url(#clip782)" style="stroke:#000000; stroke-linecap:round; stroke-linejoin:round; stroke-width:2; stroke-opacity:0.1; fill:none" points="1114.07,1567.72 1620.27,1129.34 1620.27,252.572 "/>
<polyline clip-path="url(#clip782)" style="stroke:#000000; stroke-linecap:round; stroke-linejoin:round; stroke-width:2; stroke-opacity:0.1; fill:none" points="1313.59,1625.32 1819.79,1186.94 1819.79,310.169 "/>
<polyline clip-path="url(#clip782)" style="stroke:#000000; stroke-linecap:round; stroke-linejoin:round; stroke-width:2; stroke-opacity:0.1; fill:none" points="1513.11,1682.92 2019.31,1244.53 2019.31,367.765 "/>
<polyline clip-path="url(#clip782)" style="stroke:#000000; stroke-linecap:round; stroke-linejoin:round; stroke-width:2; stroke-opacity:0.1; fill:none" points="1703.94,1618.54 827.172,1365.44 827.172,488.671 "/>
<polyline clip-path="url(#clip782)" style="stroke:#000000; stroke-linecap:round; stroke-linejoin:round; stroke-width:2; stroke-opacity:0.1; fill:none" points="1816.56,1521.01 939.79,1267.91 939.79,391.141 "/>
<polyline clip-path="url(#clip782)" style="stroke:#000000; stroke-linecap:round; stroke-linejoin:round; stroke-width:2; stroke-opacity:0.1; fill:none" points="1929.18,1423.48 1052.41,1170.38 1052.41,293.612 "/>
<polyline clip-path="url(#clip782)" style="stroke:#000000; stroke-linecap:round; stroke-linejoin:round; stroke-width:2; stroke-opacity:0.1; fill:none" points="2041.79,1325.95 1165.03,1072.85 1165.03,196.082 "/>
<polyline clip-path="url(#clip782)" style="stroke:#000000; stroke-linecap:round; stroke-linejoin:round; stroke-width:2; stroke-opacity:0.1; fill:none" points="723.713,1337.24 1229.92,898.854 2106.68,1151.95 "/>
<polyline clip-path="url(#clip782)" style="stroke:#000000; stroke-linecap:round; stroke-linejoin:round; stroke-width:2; stroke-opacity:0.1; fill:none" points="723.713,1194.82 1229.92,756.435 2106.68,1009.54 "/>
<polyline clip-path="url(#clip782)" style="stroke:#000000; stroke-linecap:round; stroke-linejoin:round; stroke-width:2; stroke-opacity:0.1; fill:none" points="723.713,1052.4 1229.92,614.016 2106.68,867.117 "/>
<polyline clip-path="url(#clip782)" style="stroke:#000000; stroke-linecap:round; stroke-linejoin:round; stroke-width:2; stroke-opacity:0.1; fill:none" points="723.713,909.982 1229.92,471.598 2106.68,724.699 "/>
<polyline clip-path="url(#clip782)" style="stroke:#000000; stroke-linecap:round; stroke-linejoin:round; stroke-width:2; stroke-opacity:0.1; fill:none" points="723.713,767.563 1229.92,329.179 2106.68,582.28 "/>
<polyline clip-path="url(#clip782)" style="stroke:#000000; stroke-linecap:round; stroke-linejoin:round; stroke-width:2; stroke-opacity:0.1; fill:none" points="723.713,625.144 1229.92,186.76 2106.68,439.861 "/>
<polyline clip-path="url(#clip780)" style="stroke:#000000; stroke-linecap:round; stroke-linejoin:round; stroke-width:4; stroke-opacity:1; fill:none" points="723.713,1455.04 1600.48,1708.14 "/>
<polyline clip-path="url(#clip780)" style="stroke:#000000; stroke-linecap:round; stroke-linejoin:round; stroke-width:4; stroke-opacity:1; fill:none" points="914.55,1510.13 920.624,1504.87 "/>
<polyline clip-path="url(#clip780)" style="stroke:#000000; stroke-linecap:round; stroke-linejoin:round; stroke-width:4; stroke-opacity:1; fill:none" points="1114.07,1567.72 1120.15,1562.46 "/>
<polyline clip-path="url(#clip780)" style="stroke:#000000; stroke-linecap:round; stroke-linejoin:round; stroke-width:4; stroke-opacity:1; fill:none" points="1313.59,1625.32 1319.67,1620.06 "/>
<polyline clip-path="url(#clip780)" style="stroke:#000000; stroke-linecap:round; stroke-linejoin:round; stroke-width:4; stroke-opacity:1; fill:none" points="1513.11,1682.92 1519.19,1677.66 "/>
<path clip-path="url(#clip780)" d="M822.845 1527.63 Q819.234 1527.63 817.406 1531.19 Q815.6 1534.73 815.6 1541.86 Q815.6 1548.97 817.406 1552.53 Q819.234 1556.07 822.845 1556.07 Q826.48 1556.07 828.285 1552.53 Q830.114 1548.97 830.114 1541.86 Q830.114 1534.73 828.285 1531.19 Q826.48 1527.63 822.845 1527.63 M822.845 1523.92 Q828.656 1523.92 831.711 1528.53 Q834.79 1533.11 834.79 1541.86 Q834.79 1550.59 831.711 1555.19 Q828.656 1559.78 822.845 1559.78 Q817.035 1559.78 813.957 1555.19 Q810.901 1550.59 810.901 1541.86 Q810.901 1533.11 813.957 1528.53 Q817.035 1523.92 822.845 1523.92 Z" fill="#000000" fill-rule="nonzero" fill-opacity="1" /><path clip-path="url(#clip780)" d="M843.007 1553.23 L847.892 1553.23 L847.892 1559.11 L843.007 1559.11 L843.007 1553.23 Z" fill="#000000" fill-rule="nonzero" fill-opacity="1" /><path clip-path="url(#clip780)" d="M870.924 1528.62 L859.118 1547.07 L870.924 1547.07 L870.924 1528.62 M869.697 1524.55 L875.577 1524.55 L875.577 1547.07 L880.507 1547.07 L880.507 1550.96 L875.577 1550.96 L875.577 1559.11 L870.924 1559.11 L870.924 1550.96 L855.322 1550.96 L855.322 1546.44 L869.697 1524.55 Z" fill="#000000" fill-rule="nonzero" fill-opacity="1" /><path clip-path="url(#clip780)" d="M892.266 1555.17 L908.586 1555.17 L908.586 1559.11 L886.641 1559.11 L886.641 1555.17 Q889.303 1552.42 893.887 1547.79 Q898.493 1543.13 899.674 1541.79 Q901.919 1539.27 902.799 1537.53 Q903.702 1535.77 903.702 1534.08 Q903.702 1531.33 901.757 1529.59 Q899.836 1527.86 896.734 1527.86 Q894.535 1527.86 892.081 1528.62 Q889.651 1529.38 886.873 1530.94 L886.873 1526.21 Q889.697 1525.08 892.151 1524.5 Q894.604 1523.92 896.641 1523.92 Q902.012 1523.92 905.206 1526.61 Q908.401 1529.29 908.401 1533.78 Q908.401 1535.91 907.59 1537.83 Q906.803 1539.73 904.697 1542.32 Q904.118 1543 901.016 1546.21 Q897.915 1549.41 892.266 1555.17 Z" fill="#000000" fill-rule="nonzero" fill-opacity="1" /><path clip-path="url(#clip780)" d="M1020.28 1585.22 Q1016.67 1585.22 1014.84 1588.79 Q1013.04 1592.33 1013.04 1599.46 Q1013.04 1606.56 1014.84 1610.13 Q1016.67 1613.67 1020.28 1613.67 Q1023.92 1613.67 1025.72 1610.13 Q1027.55 1606.56 1027.55 1599.46 Q1027.55 1592.33 1025.72 1588.79 Q1023.92 1585.22 1020.28 1585.22 M1020.28 1581.52 Q1026.09 1581.52 1029.15 1586.12 Q1032.23 1590.71 1032.23 1599.46 Q1032.23 1608.18 1029.15 1612.79 Q1026.09 1617.37 1020.28 1617.37 Q1014.47 1617.37 1011.39 1612.79 Q1008.34 1608.18 1008.34 1599.46 Q1008.34 1590.71 1011.39 1586.12 Q1014.47 1581.52 1020.28 1581.52 Z" fill="#000000" fill-rule="nonzero" fill-opacity="1" /><path clip-path="url(#clip780)" d="M1040.44 1610.82 L1045.33 1610.82 L1045.33 1616.7 L1040.44 1616.7 L1040.44 1610.82 Z" fill="#000000" fill-rule="nonzero" fill-opacity="1" /><path clip-path="url(#clip780)" d="M1068.36 1586.22 L1056.56 1604.67 L1068.36 1604.67 L1068.36 1586.22 M1067.13 1582.14 L1073.01 1582.14 L1073.01 1604.67 L1077.94 1604.67 L1077.94 1608.56 L1073.01 1608.56 L1073.01 1616.7 L1068.36 1616.7 L1068.36 1608.56 L1052.76 1608.56 L1052.76 1604.04 L1067.13 1582.14 Z" fill="#000000" fill-rule="nonzero" fill-opacity="1" /><path clip-path="url(#clip780)" d="M1098.52 1586.22 L1086.72 1604.67 L1098.52 1604.67 L1098.52 1586.22 M1097.3 1582.14 L1103.18 1582.14 L1103.18 1604.67 L1108.11 1604.67 L1108.11 1608.56 L1103.18 1608.56 L1103.18 1616.7 L1098.52 1616.7 L1098.52 1608.56 L1082.92 1608.56 L1082.92 1604.04 L1097.3 1582.14 Z" fill="#000000" fill-rule="nonzero" fill-opacity="1" /><path clip-path="url(#clip780)" d="M1220.13 1642.82 Q1216.52 1642.82 1214.69 1646.38 Q1212.88 1649.93 1212.88 1657.05 Q1212.88 1664.16 1214.69 1667.73 Q1216.52 1671.27 1220.13 1671.27 Q1223.76 1671.27 1225.57 1667.73 Q1227.4 1664.16 1227.4 1657.05 Q1227.4 1649.93 1225.57 1646.38 Q1223.76 1642.82 1220.13 1642.82 M1220.13 1639.11 Q1225.94 1639.11 1228.99 1643.72 Q1232.07 1648.3 1232.07 1657.05 Q1232.07 1665.78 1228.99 1670.39 Q1225.94 1674.97 1220.13 1674.97 Q1214.32 1674.97 1211.24 1670.39 Q1208.18 1665.78 1208.18 1657.05 Q1208.18 1648.3 1211.24 1643.72 Q1214.32 1639.11 1220.13 1639.11 Z" fill="#000000" fill-rule="nonzero" fill-opacity="1" /><path clip-path="url(#clip780)" d="M1240.29 1668.42 L1245.17 1668.42 L1245.17 1674.3 L1240.29 1674.3 L1240.29 1668.42 Z" fill="#000000" fill-rule="nonzero" fill-opacity="1" /><path clip-path="url(#clip780)" d="M1268.21 1643.81 L1256.4 1662.26 L1268.21 1662.26 L1268.21 1643.81 M1266.98 1639.74 L1272.86 1639.74 L1272.86 1662.26 L1277.79 1662.26 L1277.79 1666.15 L1272.86 1666.15 L1272.86 1674.3 L1268.21 1674.3 L1268.21 1666.15 L1252.6 1666.15 L1252.6 1661.64 L1266.98 1639.74 Z" fill="#000000" fill-rule="nonzero" fill-opacity="1" /><path clip-path="url(#clip780)" d="M1296.1 1655.16 Q1292.95 1655.16 1291.1 1657.31 Q1289.27 1659.46 1289.27 1663.21 Q1289.27 1666.94 1291.1 1669.11 Q1292.95 1671.27 1296.1 1671.27 Q1299.25 1671.27 1301.08 1669.11 Q1302.93 1666.94 1302.93 1663.21 Q1302.93 1659.46 1301.08 1657.31 Q1299.25 1655.16 1296.1 1655.16 M1305.38 1640.5 L1305.38 1644.76 Q1303.62 1643.93 1301.82 1643.49 Q1300.03 1643.05 1298.28 1643.05 Q1293.65 1643.05 1291.19 1646.18 Q1288.76 1649.3 1288.41 1655.62 Q1289.78 1653.61 1291.84 1652.54 Q1293.9 1651.45 1296.38 1651.45 Q1301.59 1651.45 1304.6 1654.62 Q1307.63 1657.77 1307.63 1663.21 Q1307.63 1668.54 1304.48 1671.75 Q1301.33 1674.97 1296.1 1674.97 Q1290.1 1674.97 1286.93 1670.39 Q1283.76 1665.78 1283.76 1657.05 Q1283.76 1648.86 1287.65 1644 Q1291.54 1639.11 1298.09 1639.11 Q1299.85 1639.11 1301.63 1639.46 Q1303.44 1639.81 1305.38 1640.5 Z" fill="#000000" fill-rule="nonzero" fill-opacity="1" /><path clip-path="url(#clip780)" d="M1419.9 1700.42 Q1416.29 1700.42 1414.46 1703.98 Q1412.66 1707.52 1412.66 1714.65 Q1412.66 1721.76 1414.46 1725.32 Q1416.29 1728.86 1419.9 1728.86 Q1423.54 1728.86 1425.34 1725.32 Q1427.17 1721.76 1427.17 1714.65 Q1427.17 1707.52 1425.34 1703.98 Q1423.54 1700.42 1419.9 1700.42 M1419.9 1696.71 Q1425.71 1696.71 1428.77 1701.32 Q1431.85 1705.9 1431.85 1714.65 Q1431.85 1723.38 1428.77 1727.98 Q1425.71 1732.57 1419.9 1732.57 Q1414.09 1732.57 1411.01 1727.98 Q1407.96 1723.38 1407.96 1714.65 Q1407.96 1705.9 1411.01 1701.32 Q1414.09 1696.71 1419.9 1696.71 Z" fill="#000000" fill-rule="nonzero" fill-opacity="1" /><path clip-path="url(#clip780)" d="M1440.07 1726.02 L1444.95 1726.02 L1444.95 1731.9 L1440.07 1731.9 L1440.07 1726.02 Z" fill="#000000" fill-rule="nonzero" fill-opacity="1" /><path clip-path="url(#clip780)" d="M1467.98 1701.41 L1456.18 1719.86 L1467.98 1719.86 L1467.98 1701.41 M1466.76 1697.34 L1472.63 1697.34 L1472.63 1719.86 L1477.57 1719.86 L1477.57 1723.75 L1472.63 1723.75 L1472.63 1731.9 L1467.98 1731.9 L1467.98 1723.75 L1452.38 1723.75 L1452.38 1719.23 L1466.76 1697.34 Z" fill="#000000" fill-rule="nonzero" fill-opacity="1" /><path clip-path="url(#clip780)" d="M1495.3 1715.48 Q1491.96 1715.48 1490.04 1717.27 Q1488.14 1719.05 1488.14 1722.17 Q1488.14 1725.3 1490.04 1727.08 Q1491.96 1728.86 1495.3 1728.86 Q1498.63 1728.86 1500.55 1727.08 Q1502.47 1725.28 1502.47 1722.17 Q1502.47 1719.05 1500.55 1717.27 Q1498.65 1715.48 1495.3 1715.48 M1490.62 1713.49 Q1487.61 1712.75 1485.92 1710.69 Q1484.26 1708.63 1484.26 1705.67 Q1484.26 1701.53 1487.19 1699.12 Q1490.16 1696.71 1495.3 1696.71 Q1500.46 1696.71 1503.4 1699.12 Q1506.34 1701.53 1506.34 1705.67 Q1506.34 1708.63 1504.65 1710.69 Q1502.98 1712.75 1500 1713.49 Q1503.38 1714.28 1505.25 1716.57 Q1507.15 1718.86 1507.15 1722.17 Q1507.15 1727.2 1504.07 1729.88 Q1501.01 1732.57 1495.3 1732.57 Q1489.58 1732.57 1486.5 1729.88 Q1483.44 1727.2 1483.44 1722.17 Q1483.44 1718.86 1485.34 1716.57 Q1487.24 1714.28 1490.62 1713.49 M1488.91 1706.11 Q1488.91 1708.79 1490.57 1710.3 Q1492.26 1711.8 1495.3 1711.8 Q1498.31 1711.8 1500 1710.3 Q1501.71 1708.79 1501.71 1706.11 Q1501.71 1703.42 1500 1701.92 Q1498.31 1700.42 1495.3 1700.42 Q1492.26 1700.42 1490.57 1701.92 Q1488.91 1703.42 1488.91 1706.11 Z" fill="#000000" fill-rule="nonzero" fill-opacity="1" /><polyline clip-path="url(#clip780)" style="stroke:#000000; stroke-linecap:round; stroke-linejoin:round; stroke-width:4; stroke-opacity:1; fill:none" points="1600.48,1708.14 2106.68,1269.75 "/>
<polyline clip-path="url(#clip780)" style="stroke:#000000; stroke-linecap:round; stroke-linejoin:round; stroke-width:4; stroke-opacity:1; fill:none" points="1703.94,1618.54 1693.42,1615.5 "/>
<polyline clip-path="url(#clip780)" style="stroke:#000000; stroke-linecap:round; stroke-linejoin:round; stroke-width:4; stroke-opacity:1; fill:none" points="1816.56,1521.01 1806.04,1517.97 "/>
<polyline clip-path="url(#clip780)" style="stroke:#000000; stroke-linecap:round; stroke-linejoin:round; stroke-width:4; stroke-opacity:1; fill:none" points="1929.18,1423.48 1918.65,1420.44 "/>
<polyline clip-path="url(#clip780)" style="stroke:#000000; stroke-linecap:round; stroke-linejoin:round; stroke-width:4; stroke-opacity:1; fill:none" points="2041.79,1325.95 2031.27,1322.91 "/>
<path clip-path="url(#clip780)" d="M1719.8 1647.08 L1749.47 1647.08 L1749.47 1651.02 L1719.8 1651.02 L1719.8 1647.08 Z" fill="#000000" fill-rule="nonzero" fill-opacity="1" /><path clip-path="url(#clip780)" d="M1769.56 1632.43 Q1765.95 1632.43 1764.12 1635.99 Q1762.32 1639.54 1762.32 1646.66 Q1762.32 1653.77 1764.12 1657.34 Q1765.95 1660.88 1769.56 1660.88 Q1773.2 1660.88 1775 1657.34 Q1776.83 1653.77 1776.83 1646.66 Q1776.83 1639.54 1775 1635.99 Q1773.2 1632.43 1769.56 1632.43 M1769.56 1628.73 Q1775.37 1628.73 1778.43 1633.33 Q1781.51 1637.91 1781.51 1646.66 Q1781.51 1655.39 1778.43 1660 Q1775.37 1664.58 1769.56 1664.58 Q1763.75 1664.58 1760.67 1660 Q1757.62 1655.39 1757.62 1646.66 Q1757.62 1637.91 1760.67 1633.33 Q1763.75 1628.73 1769.56 1628.73 Z" fill="#000000" fill-rule="nonzero" fill-opacity="1" /><path clip-path="url(#clip780)" d="M1789.73 1658.03 L1794.61 1658.03 L1794.61 1663.91 L1789.73 1663.91 L1789.73 1658.03 Z" fill="#000000" fill-rule="nonzero" fill-opacity="1" /><path clip-path="url(#clip780)" d="M1818.96 1645.28 Q1822.32 1645.99 1824.19 1648.26 Q1826.09 1650.53 1826.09 1653.86 Q1826.09 1658.98 1822.57 1661.78 Q1819.05 1664.58 1812.57 1664.58 Q1810.4 1664.58 1808.08 1664.14 Q1805.79 1663.72 1803.34 1662.87 L1803.34 1658.35 Q1805.28 1659.49 1807.6 1660.07 Q1809.91 1660.65 1812.43 1660.65 Q1816.83 1660.65 1819.12 1658.91 Q1821.44 1657.17 1821.44 1653.86 Q1821.44 1650.81 1819.29 1649.1 Q1817.16 1647.36 1813.34 1647.36 L1809.31 1647.36 L1809.31 1643.52 L1813.52 1643.52 Q1816.97 1643.52 1818.8 1642.15 Q1820.63 1640.76 1820.63 1638.17 Q1820.63 1635.51 1818.73 1634.1 Q1816.85 1632.66 1813.34 1632.66 Q1811.41 1632.66 1809.22 1633.08 Q1807.02 1633.49 1804.38 1634.37 L1804.38 1630.21 Q1807.04 1629.47 1809.35 1629.1 Q1811.69 1628.73 1813.75 1628.73 Q1819.08 1628.73 1822.18 1631.16 Q1825.28 1633.56 1825.28 1637.68 Q1825.28 1640.55 1823.64 1642.54 Q1821.99 1644.51 1818.96 1645.28 Z" fill="#000000" fill-rule="nonzero" fill-opacity="1" /><path clip-path="url(#clip780)" d="M1844.96 1632.43 Q1841.35 1632.43 1839.52 1635.99 Q1837.71 1639.54 1837.71 1646.66 Q1837.71 1653.77 1839.52 1657.34 Q1841.35 1660.88 1844.96 1660.88 Q1848.59 1660.88 1850.4 1657.34 Q1852.22 1653.77 1852.22 1646.66 Q1852.22 1639.54 1850.4 1635.99 Q1848.59 1632.43 1844.96 1632.43 M1844.96 1628.73 Q1850.77 1628.73 1853.82 1633.33 Q1856.9 1637.91 1856.9 1646.66 Q1856.9 1655.39 1853.82 1660 Q1850.77 1664.58 1844.96 1664.58 Q1839.15 1664.58 1836.07 1660 Q1833.01 1655.39 1833.01 1646.66 Q1833.01 1637.91 1836.07 1633.33 Q1839.15 1628.73 1844.96 1628.73 Z" fill="#000000" fill-rule="nonzero" fill-opacity="1" /><path clip-path="url(#clip780)" d="M1832.41 1549.55 L1862.09 1549.55 L1862.09 1553.49 L1832.41 1553.49 L1832.41 1549.55 Z" fill="#000000" fill-rule="nonzero" fill-opacity="1" /><path clip-path="url(#clip780)" d="M1882.18 1534.9 Q1878.57 1534.9 1876.74 1538.46 Q1874.94 1542.01 1874.94 1549.13 Q1874.94 1556.24 1876.74 1559.81 Q1878.57 1563.35 1882.18 1563.35 Q1885.82 1563.35 1887.62 1559.81 Q1889.45 1556.24 1889.45 1549.13 Q1889.45 1542.01 1887.62 1538.46 Q1885.82 1534.9 1882.18 1534.9 M1882.18 1531.2 Q1887.99 1531.2 1891.05 1535.8 Q1894.13 1540.39 1894.13 1549.13 Q1894.13 1557.86 1891.05 1562.47 Q1887.99 1567.05 1882.18 1567.05 Q1876.37 1567.05 1873.29 1562.47 Q1870.24 1557.86 1870.24 1549.13 Q1870.24 1540.39 1873.29 1535.8 Q1876.37 1531.2 1882.18 1531.2 Z" fill="#000000" fill-rule="nonzero" fill-opacity="1" /><path clip-path="url(#clip780)" d="M1902.34 1560.5 L1907.23 1560.5 L1907.23 1566.38 L1902.34 1566.38 L1902.34 1560.5 Z" fill="#000000" fill-rule="nonzero" fill-opacity="1" /><path clip-path="url(#clip780)" d="M1921.44 1562.45 L1937.76 1562.45 L1937.76 1566.38 L1915.82 1566.38 L1915.82 1562.45 Q1918.48 1559.69 1923.06 1555.06 Q1927.67 1550.41 1928.85 1549.07 Q1931.09 1546.54 1931.97 1544.81 Q1932.88 1543.05 1932.88 1541.36 Q1932.88 1538.6 1930.93 1536.87 Q1929.01 1535.13 1925.91 1535.13 Q1923.71 1535.13 1921.25 1535.89 Q1918.82 1536.66 1916.05 1538.21 L1916.05 1533.49 Q1918.87 1532.35 1921.32 1531.77 Q1923.78 1531.2 1925.82 1531.2 Q1931.19 1531.2 1934.38 1533.88 Q1937.57 1536.57 1937.57 1541.06 Q1937.57 1543.19 1936.76 1545.11 Q1935.98 1547.01 1933.87 1549.6 Q1933.29 1550.27 1930.19 1553.49 Q1927.09 1556.68 1921.44 1562.45 Z" fill="#000000" fill-rule="nonzero" fill-opacity="1" /><path clip-path="url(#clip780)" d="M1946.39 1531.82 L1968.62 1531.82 L1968.62 1533.81 L1956.07 1566.38 L1951.19 1566.38 L1962.99 1535.76 L1946.39 1535.76 L1946.39 1531.82 Z" fill="#000000" fill-rule="nonzero" fill-opacity="1" /><path clip-path="url(#clip780)" d="M1945.03 1452.02 L1974.71 1452.02 L1974.71 1455.96 L1945.03 1455.96 L1945.03 1452.02 Z" fill="#000000" fill-rule="nonzero" fill-opacity="1" /><path clip-path="url(#clip780)" d="M1994.8 1437.37 Q1991.19 1437.37 1989.36 1440.93 Q1987.55 1444.48 1987.55 1451.61 Q1987.55 1458.71 1989.36 1462.28 Q1991.19 1465.82 1994.8 1465.82 Q1998.43 1465.82 2000.24 1462.28 Q2002.07 1458.71 2002.07 1451.61 Q2002.07 1444.48 2000.24 1440.93 Q1998.43 1437.37 1994.8 1437.37 M1994.8 1433.67 Q2000.61 1433.67 2003.66 1438.27 Q2006.74 1442.86 2006.74 1451.61 Q2006.74 1460.33 2003.66 1464.94 Q2000.61 1469.52 1994.8 1469.52 Q1988.99 1469.52 1985.91 1464.94 Q1982.85 1460.33 1982.85 1451.61 Q1982.85 1442.86 1985.91 1438.27 Q1988.99 1433.67 1994.8 1433.67 Z" fill="#000000" fill-rule="nonzero" fill-opacity="1" /><path clip-path="url(#clip780)" d="M2014.96 1462.97 L2019.84 1462.97 L2019.84 1468.85 L2014.96 1468.85 L2014.96 1462.97 Z" fill="#000000" fill-rule="nonzero" fill-opacity="1" /><path clip-path="url(#clip780)" d="M2034.06 1464.92 L2050.38 1464.92 L2050.38 1468.85 L2028.43 1468.85 L2028.43 1464.92 Q2031.09 1462.16 2035.68 1457.53 Q2040.28 1452.88 2041.47 1451.54 Q2043.71 1449.01 2044.59 1447.28 Q2045.49 1445.52 2045.49 1443.83 Q2045.49 1441.07 2043.55 1439.34 Q2041.63 1437.6 2038.53 1437.6 Q2036.33 1437.6 2033.87 1438.36 Q2031.44 1439.13 2028.66 1440.68 L2028.66 1435.96 Q2031.49 1434.82 2033.94 1434.24 Q2036.4 1433.67 2038.43 1433.67 Q2043.8 1433.67 2047 1436.35 Q2050.19 1439.04 2050.19 1443.53 Q2050.19 1445.66 2049.38 1447.58 Q2048.59 1449.48 2046.49 1452.07 Q2045.91 1452.74 2042.81 1455.96 Q2039.71 1459.15 2034.06 1464.92 Z" fill="#000000" fill-rule="nonzero" fill-opacity="1" /><path clip-path="url(#clip780)" d="M2073.04 1438.36 L2061.23 1456.81 L2073.04 1456.81 L2073.04 1438.36 M2071.81 1434.29 L2077.69 1434.29 L2077.69 1456.81 L2082.62 1456.81 L2082.62 1460.7 L2077.69 1460.7 L2077.69 1468.85 L2073.04 1468.85 L2073.04 1460.7 L2057.44 1460.7 L2057.44 1456.19 L2071.81 1434.29 Z" fill="#000000" fill-rule="nonzero" fill-opacity="1" /><path clip-path="url(#clip780)" d="M2057.65 1354.49 L2087.32 1354.49 L2087.32 1358.43 L2057.65 1358.43 L2057.65 1354.49 Z" fill="#000000" fill-rule="nonzero" fill-opacity="1" /><path clip-path="url(#clip780)" d="M2107.42 1339.84 Q2103.81 1339.84 2101.98 1343.4 Q2100.17 1346.95 2100.17 1354.08 Q2100.17 1361.18 2101.98 1364.75 Q2103.81 1368.29 2107.42 1368.29 Q2111.05 1368.29 2112.86 1364.75 Q2114.68 1361.18 2114.68 1354.08 Q2114.68 1346.95 2112.86 1343.4 Q2111.05 1339.84 2107.42 1339.84 M2107.42 1336.14 Q2113.23 1336.14 2116.28 1340.74 Q2119.36 1345.33 2119.36 1354.08 Q2119.36 1362.8 2116.28 1367.41 Q2113.23 1371.99 2107.42 1371.99 Q2101.61 1371.99 2098.53 1367.41 Q2095.47 1362.8 2095.47 1354.08 Q2095.47 1345.33 2098.53 1340.74 Q2101.61 1336.14 2107.42 1336.14 Z" fill="#000000" fill-rule="nonzero" fill-opacity="1" /><path clip-path="url(#clip780)" d="M2127.58 1365.44 L2132.46 1365.44 L2132.46 1371.32 L2127.58 1371.32 L2127.58 1365.44 Z" fill="#000000" fill-rule="nonzero" fill-opacity="1" /><path clip-path="url(#clip780)" d="M2146.68 1367.39 L2162.99 1367.39 L2162.99 1371.32 L2141.05 1371.32 L2141.05 1367.39 Q2143.71 1364.63 2148.3 1360 Q2152.9 1355.35 2154.08 1354.01 Q2156.33 1351.48 2157.21 1349.75 Q2158.11 1347.99 2158.11 1346.3 Q2158.11 1343.54 2156.17 1341.81 Q2154.24 1340.07 2151.14 1340.07 Q2148.94 1340.07 2146.49 1340.83 Q2144.06 1341.6 2141.28 1343.15 L2141.28 1338.43 Q2144.11 1337.29 2146.56 1336.71 Q2149.01 1336.14 2151.05 1336.14 Q2156.42 1336.14 2159.62 1338.82 Q2162.81 1341.51 2162.81 1346 Q2162.81 1348.13 2162 1350.05 Q2161.21 1351.95 2159.11 1354.54 Q2158.53 1355.21 2155.43 1358.43 Q2152.32 1361.62 2146.68 1367.39 Z" fill="#000000" fill-rule="nonzero" fill-opacity="1" /><path clip-path="url(#clip780)" d="M2173.62 1367.39 L2181.26 1367.39 L2181.26 1341.02 L2172.95 1342.69 L2172.95 1338.43 L2181.21 1336.76 L2185.89 1336.76 L2185.89 1367.39 L2193.53 1367.39 L2193.53 1371.32 L2173.62 1371.32 L2173.62 1367.39 Z" fill="#000000" fill-rule="nonzero" fill-opacity="1" /><polyline clip-path="url(#clip780)" style="stroke:#000000; stroke-linecap:round; stroke-linejoin:round; stroke-width:4; stroke-opacity:1; fill:none" points="723.713,1455.04 723.713,578.269 "/>
<polyline clip-path="url(#clip780)" style="stroke:#000000; stroke-linecap:round; stroke-linejoin:round; stroke-width:4; stroke-opacity:1; fill:none" points="723.713,1337.24 729.788,1331.98 "/>
<polyline clip-path="url(#clip780)" style="stroke:#000000; stroke-linecap:round; stroke-linejoin:round; stroke-width:4; stroke-opacity:1; fill:none" points="723.713,1194.82 729.788,1189.56 "/>
<polyline clip-path="url(#clip780)" style="stroke:#000000; stroke-linecap:round; stroke-linejoin:round; stroke-width:4; stroke-opacity:1; fill:none" points="723.713,1052.4 729.788,1047.14 "/>
<polyline clip-path="url(#clip780)" style="stroke:#000000; stroke-linecap:round; stroke-linejoin:round; stroke-width:4; stroke-opacity:1; fill:none" points="723.713,909.982 729.788,904.721 "/>
<polyline clip-path="url(#clip780)" style="stroke:#000000; stroke-linecap:round; stroke-linejoin:round; stroke-width:4; stroke-opacity:1; fill:none" points="723.713,767.563 729.788,762.302 "/>
<polyline clip-path="url(#clip780)" style="stroke:#000000; stroke-linecap:round; stroke-linejoin:round; stroke-width:4; stroke-opacity:1; fill:none" points="723.713,625.144 729.788,619.884 "/>
<path clip-path="url(#clip780)" d="M603.634 1323.04 Q600.023 1323.04 598.194 1326.6 Q596.388 1330.14 596.388 1337.27 Q596.388 1344.38 598.194 1347.94 Q600.023 1351.49 603.634 1351.49 Q607.268 1351.49 609.073 1347.94 Q610.902 1344.38 610.902 1337.27 Q610.902 1330.14 609.073 1326.6 Q607.268 1323.04 603.634 1323.04 M603.634 1319.33 Q609.444 1319.33 612.499 1323.94 Q615.578 1328.52 615.578 1337.27 Q615.578 1346 612.499 1350.61 Q609.444 1355.19 603.634 1355.19 Q597.823 1355.19 594.745 1350.61 Q591.689 1346 591.689 1337.27 Q591.689 1328.52 594.745 1323.94 Q597.823 1319.33 603.634 1319.33 Z" fill="#000000" fill-rule="nonzero" fill-opacity="1" /><path clip-path="url(#clip780)" d="M623.796 1348.64 L628.68 1348.64 L628.68 1354.52 L623.796 1354.52 L623.796 1348.64 Z" fill="#000000" fill-rule="nonzero" fill-opacity="1" /><path clip-path="url(#clip780)" d="M651.712 1324.03 L639.907 1342.48 L651.712 1342.48 L651.712 1324.03 M650.485 1319.96 L656.365 1319.96 L656.365 1342.48 L661.295 1342.48 L661.295 1346.37 L656.365 1346.37 L656.365 1354.52 L651.712 1354.52 L651.712 1346.37 L636.11 1346.37 L636.11 1341.86 L650.485 1319.96 Z" fill="#000000" fill-rule="nonzero" fill-opacity="1" /><path clip-path="url(#clip780)" d="M681.874 1324.03 L670.068 1342.48 L681.874 1342.48 L681.874 1324.03 M680.647 1319.96 L686.527 1319.96 L686.527 1342.48 L691.457 1342.48 L691.457 1346.37 L686.527 1346.37 L686.527 1354.52 L681.874 1354.52 L681.874 1346.37 L666.272 1346.37 L666.272 1341.86 L680.647 1319.96 Z" fill="#000000" fill-rule="nonzero" fill-opacity="1" /><path clip-path="url(#clip780)" d="M605.115 1180.62 Q601.504 1180.62 599.675 1184.18 Q597.87 1187.72 597.87 1194.85 Q597.87 1201.96 599.675 1205.52 Q601.504 1209.07 605.115 1209.07 Q608.749 1209.07 610.555 1205.52 Q612.384 1201.96 612.384 1194.85 Q612.384 1187.72 610.555 1184.18 Q608.749 1180.62 605.115 1180.62 M605.115 1176.91 Q610.925 1176.91 613.981 1181.52 Q617.059 1186.1 617.059 1194.85 Q617.059 1203.58 613.981 1208.19 Q610.925 1212.77 605.115 1212.77 Q599.305 1212.77 596.226 1208.19 Q593.171 1203.58 593.171 1194.85 Q593.171 1186.1 596.226 1181.52 Q599.305 1176.91 605.115 1176.91 Z" fill="#000000" fill-rule="nonzero" fill-opacity="1" /><path clip-path="url(#clip780)" d="M625.277 1206.22 L630.161 1206.22 L630.161 1212.1 L625.277 1212.1 L625.277 1206.22 Z" fill="#000000" fill-rule="nonzero" fill-opacity="1" /><path clip-path="url(#clip780)" d="M653.194 1181.61 L641.388 1200.06 L653.194 1200.06 L653.194 1181.61 M651.967 1177.54 L657.846 1177.54 L657.846 1200.06 L662.777 1200.06 L662.777 1203.95 L657.846 1203.95 L657.846 1212.1 L653.194 1212.1 L653.194 1203.95 L637.592 1203.95 L637.592 1199.44 L651.967 1177.54 Z" fill="#000000" fill-rule="nonzero" fill-opacity="1" /><path clip-path="url(#clip780)" d="M670.555 1177.54 L688.911 1177.54 L688.911 1181.47 L674.837 1181.47 L674.837 1189.95 Q675.855 1189.6 676.874 1189.44 Q677.892 1189.25 678.911 1189.25 Q684.698 1189.25 688.078 1192.42 Q691.457 1195.59 691.457 1201.01 Q691.457 1206.59 687.985 1209.69 Q684.513 1212.77 678.193 1212.77 Q676.017 1212.77 673.749 1212.4 Q671.504 1212.03 669.096 1211.29 L669.096 1206.59 Q671.18 1207.72 673.402 1208.28 Q675.624 1208.84 678.101 1208.84 Q682.105 1208.84 684.443 1206.73 Q686.781 1204.62 686.781 1201.01 Q686.781 1197.4 684.443 1195.29 Q682.105 1193.19 678.101 1193.19 Q676.226 1193.19 674.351 1193.6 Q672.499 1194.02 670.555 1194.9 L670.555 1177.54 Z" fill="#000000" fill-rule="nonzero" fill-opacity="1" /><path clip-path="url(#clip780)" d="M603.958 1038.2 Q600.347 1038.2 598.518 1041.76 Q596.712 1045.31 596.712 1052.43 Q596.712 1059.54 598.518 1063.11 Q600.347 1066.65 603.958 1066.65 Q607.592 1066.65 609.397 1063.11 Q611.226 1059.54 611.226 1052.43 Q611.226 1045.31 609.397 1041.76 Q607.592 1038.2 603.958 1038.2 M603.958 1034.5 Q609.768 1034.5 612.823 1039.1 Q615.902 1043.68 615.902 1052.43 Q615.902 1061.16 612.823 1065.77 Q609.768 1070.35 603.958 1070.35 Q598.148 1070.35 595.069 1065.77 Q592.013 1061.16 592.013 1052.43 Q592.013 1043.68 595.069 1039.1 Q598.148 1034.5 603.958 1034.5 Z" fill="#000000" fill-rule="nonzero" fill-opacity="1" /><path clip-path="url(#clip780)" d="M624.12 1063.8 L629.004 1063.8 L629.004 1069.68 L624.12 1069.68 L624.12 1063.8 Z" fill="#000000" fill-rule="nonzero" fill-opacity="1" /><path clip-path="url(#clip780)" d="M652.036 1039.19 L640.231 1057.64 L652.036 1057.64 L652.036 1039.19 M650.809 1035.12 L656.689 1035.12 L656.689 1057.64 L661.619 1057.64 L661.619 1061.53 L656.689 1061.53 L656.689 1069.68 L652.036 1069.68 L652.036 1061.53 L636.434 1061.53 L636.434 1057.02 L650.809 1035.12 Z" fill="#000000" fill-rule="nonzero" fill-opacity="1" /><path clip-path="url(#clip780)" d="M679.929 1050.54 Q676.781 1050.54 674.93 1052.69 Q673.101 1054.84 673.101 1058.59 Q673.101 1062.32 674.93 1064.5 Q676.781 1066.65 679.929 1066.65 Q683.078 1066.65 684.906 1064.5 Q686.758 1062.32 686.758 1058.59 Q686.758 1054.84 684.906 1052.69 Q683.078 1050.54 679.929 1050.54 M689.212 1035.88 L689.212 1040.14 Q687.453 1039.31 685.647 1038.87 Q683.865 1038.43 682.105 1038.43 Q677.476 1038.43 675.022 1041.56 Q672.592 1044.68 672.244 1051 Q673.61 1048.99 675.67 1047.92 Q677.73 1046.83 680.207 1046.83 Q685.416 1046.83 688.425 1050 Q691.457 1053.15 691.457 1058.59 Q691.457 1063.92 688.309 1067.13 Q685.161 1070.35 679.929 1070.35 Q673.934 1070.35 670.763 1065.77 Q667.592 1061.16 667.592 1052.43 Q667.592 1044.24 671.48 1039.38 Q675.369 1034.5 681.92 1034.5 Q683.679 1034.5 685.462 1034.84 Q687.267 1035.19 689.212 1035.88 Z" fill="#000000" fill-rule="nonzero" fill-opacity="1" /><path clip-path="url(#clip780)" d="M605.022 895.78 Q601.411 895.78 599.583 899.345 Q597.777 902.887 597.777 910.016 Q597.777 917.123 599.583 920.687 Q601.411 924.229 605.022 924.229 Q608.657 924.229 610.462 920.687 Q612.291 917.123 612.291 910.016 Q612.291 902.887 610.462 899.345 Q608.657 895.78 605.022 895.78 M605.022 892.077 Q610.833 892.077 613.888 896.683 Q616.967 901.266 616.967 910.016 Q616.967 918.743 613.888 923.349 Q610.833 927.933 605.022 927.933 Q599.212 927.933 596.134 923.349 Q593.078 918.743 593.078 910.016 Q593.078 901.266 596.134 896.683 Q599.212 892.077 605.022 892.077 Z" fill="#000000" fill-rule="nonzero" fill-opacity="1" /><path clip-path="url(#clip780)" d="M625.184 921.382 L630.069 921.382 L630.069 927.262 L625.184 927.262 L625.184 921.382 Z" fill="#000000" fill-rule="nonzero" fill-opacity="1" /><path clip-path="url(#clip780)" d="M653.101 896.776 L641.295 915.225 L653.101 915.225 L653.101 896.776 M651.874 892.702 L657.754 892.702 L657.754 915.225 L662.684 915.225 L662.684 919.113 L657.754 919.113 L657.754 927.262 L653.101 927.262 L653.101 919.113 L637.499 919.113 L637.499 914.6 L651.874 892.702 Z" fill="#000000" fill-rule="nonzero" fill-opacity="1" /><path clip-path="url(#clip780)" d="M669.235 892.702 L691.457 892.702 L691.457 894.692 L678.911 927.262 L674.027 927.262 L685.832 896.637 L669.235 896.637 L669.235 892.702 Z" fill="#000000" fill-rule="nonzero" fill-opacity="1" /><path clip-path="url(#clip780)" d="M604.212 753.362 Q600.601 753.362 598.773 756.926 Q596.967 760.468 596.967 767.598 Q596.967 774.704 598.773 778.269 Q600.601 781.81 604.212 781.81 Q607.847 781.81 609.652 778.269 Q611.481 774.704 611.481 767.598 Q611.481 760.468 609.652 756.926 Q607.847 753.362 604.212 753.362 M604.212 749.658 Q610.022 749.658 613.078 754.264 Q616.157 758.848 616.157 767.598 Q616.157 776.324 613.078 780.931 Q610.022 785.514 604.212 785.514 Q598.402 785.514 595.323 780.931 Q592.268 776.324 592.268 767.598 Q592.268 758.848 595.323 754.264 Q598.402 749.658 604.212 749.658 Z" fill="#000000" fill-rule="nonzero" fill-opacity="1" /><path clip-path="url(#clip780)" d="M624.374 778.963 L629.258 778.963 L629.258 784.843 L624.374 784.843 L624.374 778.963 Z" fill="#000000" fill-rule="nonzero" fill-opacity="1" /><path clip-path="url(#clip780)" d="M652.291 754.357 L640.485 772.806 L652.291 772.806 L652.291 754.357 M651.064 750.283 L656.943 750.283 L656.943 772.806 L661.874 772.806 L661.874 776.695 L656.943 776.695 L656.943 784.843 L652.291 784.843 L652.291 776.695 L636.689 776.695 L636.689 772.181 L651.064 750.283 Z" fill="#000000" fill-rule="nonzero" fill-opacity="1" /><path clip-path="url(#clip780)" d="M679.605 768.431 Q676.272 768.431 674.351 770.213 Q672.453 771.996 672.453 775.121 Q672.453 778.246 674.351 780.028 Q676.272 781.81 679.605 781.81 Q682.939 781.81 684.86 780.028 Q686.781 778.222 686.781 775.121 Q686.781 771.996 684.86 770.213 Q682.962 768.431 679.605 768.431 M674.93 766.44 Q671.92 765.699 670.23 763.639 Q668.564 761.579 668.564 758.616 Q668.564 754.473 671.504 752.065 Q674.467 749.658 679.605 749.658 Q684.767 749.658 687.707 752.065 Q690.647 754.473 690.647 758.616 Q690.647 761.579 688.957 763.639 Q687.291 765.699 684.304 766.44 Q687.684 767.227 689.559 769.519 Q691.457 771.81 691.457 775.121 Q691.457 780.144 688.379 782.829 Q685.323 785.514 679.605 785.514 Q673.888 785.514 670.809 782.829 Q667.754 780.144 667.754 775.121 Q667.754 771.81 669.652 769.519 Q671.55 767.227 674.93 766.44 M673.217 759.056 Q673.217 761.741 674.883 763.246 Q676.573 764.75 679.605 764.75 Q682.615 764.75 684.304 763.246 Q686.017 761.741 686.017 759.056 Q686.017 756.371 684.304 754.866 Q682.615 753.362 679.605 753.362 Q676.573 753.362 674.883 754.866 Q673.217 756.371 673.217 759.056 Z" fill="#000000" fill-rule="nonzero" fill-opacity="1" /><path clip-path="url(#clip780)" d="M604.305 610.943 Q600.694 610.943 598.865 614.508 Q597.06 618.049 597.06 625.179 Q597.06 632.285 598.865 635.85 Q600.694 639.392 604.305 639.392 Q607.939 639.392 609.745 635.85 Q611.573 632.285 611.573 625.179 Q611.573 618.049 609.745 614.508 Q607.939 610.943 604.305 610.943 M604.305 607.239 Q610.115 607.239 613.171 611.846 Q616.249 616.429 616.249 625.179 Q616.249 633.906 613.171 638.512 Q610.115 643.095 604.305 643.095 Q598.495 643.095 595.416 638.512 Q592.361 633.906 592.361 625.179 Q592.361 616.429 595.416 611.846 Q598.495 607.239 604.305 607.239 Z" fill="#000000" fill-rule="nonzero" fill-opacity="1" /><path clip-path="url(#clip780)" d="M624.467 636.545 L629.351 636.545 L629.351 642.424 L624.467 642.424 L624.467 636.545 Z" fill="#000000" fill-rule="nonzero" fill-opacity="1" /><path clip-path="url(#clip780)" d="M652.383 611.938 L640.578 630.387 L652.383 630.387 L652.383 611.938 M651.156 607.864 L657.036 607.864 L657.036 630.387 L661.967 630.387 L661.967 634.276 L657.036 634.276 L657.036 642.424 L652.383 642.424 L652.383 634.276 L636.782 634.276 L636.782 629.762 L651.156 607.864 Z" fill="#000000" fill-rule="nonzero" fill-opacity="1" /><path clip-path="url(#clip780)" d="M669.837 641.707 L669.837 637.447 Q671.596 638.281 673.402 638.72 Q675.207 639.16 676.943 639.16 Q681.573 639.16 684.004 636.058 Q686.457 632.933 686.804 626.591 Q685.462 628.582 683.402 629.646 Q681.342 630.711 678.842 630.711 Q673.656 630.711 670.624 627.586 Q667.615 624.438 667.615 618.998 Q667.615 613.674 670.763 610.457 Q673.911 607.239 679.142 607.239 Q685.138 607.239 688.286 611.846 Q691.457 616.429 691.457 625.179 Q691.457 633.35 687.568 638.234 Q683.703 643.095 677.152 643.095 Q675.392 643.095 673.587 642.748 Q671.781 642.401 669.837 641.707 M679.142 627.054 Q682.291 627.054 684.119 624.901 Q685.971 622.748 685.971 618.998 Q685.971 615.271 684.119 613.119 Q682.291 610.943 679.142 610.943 Q675.994 610.943 674.142 613.119 Q672.314 615.271 672.314 618.998 Q672.314 622.748 674.142 624.901 Q675.994 627.054 679.142 627.054 Z" fill="#000000" fill-rule="nonzero" fill-opacity="1" /><circle clip-path="url(#clip782)" cx="1050.28" cy="1507.95" r="14.4" fill="#009af9" fill-rule="evenodd" fill-opacity="1" stroke="#000000" stroke-opacity="1" stroke-width="3.84"/>
<circle clip-path="url(#clip782)" cx="1255.33" cy="1189.06" r="14.4" fill="#009af9" fill-rule="evenodd" fill-opacity="1" stroke="#000000" stroke-opacity="1" stroke-width="3.84"/>
<circle clip-path="url(#clip782)" cx="931.69" cy="1342.94" r="14.4" fill="#009af9" fill-rule="evenodd" fill-opacity="1" stroke="#000000" stroke-opacity="1" stroke-width="3.84"/>
<circle clip-path="url(#clip782)" cx="957.875" cy="1016.44" r="14.4" fill="#009af9" fill-rule="evenodd" fill-opacity="1" stroke="#000000" stroke-opacity="1" stroke-width="3.84"/>
<circle clip-path="url(#clip782)" cx="922.398" cy="818.822" r="14.4" fill="#009af9" fill-rule="evenodd" fill-opacity="1" stroke="#000000" stroke-opacity="1" stroke-width="3.84"/>
<circle clip-path="url(#clip782)" cx="1016.51" cy="642.696" r="14.4" fill="#009af9" fill-rule="evenodd" fill-opacity="1" stroke="#000000" stroke-opacity="1" stroke-width="3.84"/>
<circle clip-path="url(#clip782)" cx="1262.75" cy="820.343" r="14.4" fill="#009af9" fill-rule="evenodd" fill-opacity="1" stroke="#000000" stroke-opacity="1" stroke-width="3.84"/>
<circle clip-path="url(#clip782)" cx="1364.05" cy="567.619" r="14.4" fill="#009af9" fill-rule="evenodd" fill-opacity="1" stroke="#000000" stroke-opacity="1" stroke-width="3.84"/>
<circle clip-path="url(#clip782)" cx="1396.25" cy="425.102" r="14.4" fill="#009af9" fill-rule="evenodd" fill-opacity="1" stroke="#000000" stroke-opacity="1" stroke-width="3.84"/>
<circle clip-path="url(#clip782)" cx="1441.88" cy="300.887" r="14.4" fill="#009af9" fill-rule="evenodd" fill-opacity="1" stroke="#000000" stroke-opacity="1" stroke-width="3.84"/>
<circle clip-path="url(#clip782)" cx="1461.59" cy="950.603" r="14.4" fill="#009af9" fill-rule="evenodd" fill-opacity="1" stroke="#000000" stroke-opacity="1" stroke-width="3.84"/>
<circle clip-path="url(#clip782)" cx="1613.98" cy="709.195" r="14.4" fill="#009af9" fill-rule="evenodd" fill-opacity="1" stroke="#000000" stroke-opacity="1" stroke-width="3.84"/>
<circle clip-path="url(#clip782)" cx="1683.62" cy="558.999" r="14.4" fill="#009af9" fill-rule="evenodd" fill-opacity="1" stroke="#000000" stroke-opacity="1" stroke-width="3.84"/>
<circle clip-path="url(#clip782)" cx="1753.16" cy="455.296" r="14.4" fill="#009af9" fill-rule="evenodd" fill-opacity="1" stroke="#000000" stroke-opacity="1" stroke-width="3.84"/>
<circle clip-path="url(#clip782)" cx="1602.04" cy="1086.38" r="14.4" fill="#009af9" fill-rule="evenodd" fill-opacity="1" stroke="#000000" stroke-opacity="1" stroke-width="3.84"/>
<circle clip-path="url(#clip782)" cx="1765.69" cy="843.636" r="14.4" fill="#009af9" fill-rule="evenodd" fill-opacity="1" stroke="#000000" stroke-opacity="1" stroke-width="3.84"/>
<circle clip-path="url(#clip782)" cx="1857.94" cy="685.795" r="14.4" fill="#009af9" fill-rule="evenodd" fill-opacity="1" stroke="#000000" stroke-opacity="1" stroke-width="3.84"/>
<circle clip-path="url(#clip782)" cx="1953.87" cy="545.993" r="14.4" fill="#009af9" fill-rule="evenodd" fill-opacity="1" stroke="#000000" stroke-opacity="1" stroke-width="3.84"/>
<circle clip-path="url(#clip782)" cx="1723.51" cy="1294.29" r="14.4" fill="#009af9" fill-rule="evenodd" fill-opacity="1" stroke="#000000" stroke-opacity="1" stroke-width="3.84"/>
<circle clip-path="url(#clip782)" cx="1877.1" cy="1105.85" r="14.4" fill="#009af9" fill-rule="evenodd" fill-opacity="1" stroke="#000000" stroke-opacity="1" stroke-width="3.84"/>
<circle clip-path="url(#clip782)" cx="1944.18" cy="1012.46" r="14.4" fill="#009af9" fill-rule="evenodd" fill-opacity="1" stroke="#000000" stroke-opacity="1" stroke-width="3.84"/>
<circle clip-path="url(#clip782)" cx="2008.54" cy="932.348" r="14.4" fill="#009af9" fill-rule="evenodd" fill-opacity="1" stroke="#000000" stroke-opacity="1" stroke-width="3.84"/>
<path clip-path="url(#clip780)" d="M271.344 209.375 L568.886 209.375 L568.886 105.695 L271.344 105.695  Z" fill="#ffffff" fill-rule="evenodd" fill-opacity="1"/>
<polyline clip-path="url(#clip780)" style="stroke:#000000; stroke-linecap:round; stroke-linejoin:round; stroke-width:4; stroke-opacity:1; fill:none" points="271.344,209.375 568.886,209.375 568.886,105.695 271.344,105.695 271.344,209.375 "/>
<circle clip-path="url(#clip780)" cx="380.282" cy="157.535" r="20.48" fill="#009af9" fill-rule="evenodd" fill-opacity="1" stroke="#000000" stroke-opacity="1" stroke-width="5.46133"/>
<path clip-path="url(#clip780)" d="M503.063 177.223 Q501.258 181.852 499.545 183.264 Q497.832 184.676 494.962 184.676 L491.559 184.676 L491.559 181.112 L494.059 181.112 Q495.818 181.112 496.79 180.278 Q497.763 179.445 498.943 176.343 L499.707 174.399 L489.221 148.889 L493.735 148.889 L501.837 169.167 L509.938 148.889 L514.452 148.889 L503.063 177.223 Z" fill="#000000" fill-rule="nonzero" fill-opacity="1" /><path clip-path="url(#clip780)" d="M521.744 170.88 L529.383 170.88 L529.383 144.515 L521.073 146.181 L521.073 141.922 L529.336 140.255 L534.012 140.255 L534.012 170.88 L541.651 170.88 L541.651 174.815 L521.744 174.815 L521.744 170.88 Z" fill="#000000" fill-rule="nonzero" fill-opacity="1" /></svg>
