<?xml version="1.0" encoding="utf-8"?>
<svg xmlns="http://www.w3.org/2000/svg" xmlns:xlink="http://www.w3.org/1999/xlink" width="672" height="480" viewBox="0 0 2688 1920">
<defs>
  <clipPath id="clip060">
    <rect x="0" y="0" width="2688" height="1920"/>
  </clipPath>
</defs>
<path clip-path="url(#clip060)" d="M0 1920 L2688 1920 L2688 0 L0 0  Z" fill="#ffffff" fill-rule="evenodd" fill-opacity="1"/>
<defs>
  <clipPath id="clip061">
    <rect x="537" y="0" width="1883" height="1883"/>
  </clipPath>
</defs>
<path clip-path="url(#clip060)" d="M189.64 1800.78 L2640.76 1800.78 L2640.76 127.792 L189.64 127.792  Z" fill="#ffffff" fill-rule="evenodd" fill-opacity="1"/>
<defs>
  <clipPath id="clip062">
    <rect x="189" y="127" width="2452" height="1674"/>
  </clipPath>
</defs>
<polyline clip-path="url(#clip062)" style="stroke:#000000; stroke-linecap:round; stroke-linejoin:round; stroke-width:2; stroke-opacity:0.1; fill:none" points="451.709,1800.78 451.709,127.792 "/>
<polyline clip-path="url(#clip062)" style="stroke:#000000; stroke-linecap:round; stroke-linejoin:round; stroke-width:2; stroke-opacity:0.1; fill:none" points="772.872,1800.78 772.872,127.792 "/>
<polyline clip-path="url(#clip062)" style="stroke:#000000; stroke-linecap:round; stroke-linejoin:round; stroke-width:2; stroke-opacity:0.1; fill:none" points="1094.04,1800.78 1094.04,127.792 "/>
<polyline clip-path="url(#clip062)" style="stroke:#000000; stroke-linecap:round; stroke-linejoin:round; stroke-width:2; stroke-opacity:0.1; fill:none" points="1415.2,1800.78 1415.2,127.792 "/>
<polyline clip-path="url(#clip062)" style="stroke:#000000; stroke-linecap:round; stroke-linejoin:round; stroke-width:2; stroke-opacity:0.1; fill:none" points="1736.36,1800.78 1736.36,127.792 "/>
<polyline clip-path="url(#clip062)" style="stroke:#000000; stroke-linecap:round; stroke-linejoin:round; stroke-width:2; stroke-opacity:0.1; fill:none" points="2057.52,1800.78 2057.52,127.792 "/>
<polyline clip-path="url(#clip062)" style="stroke:#000000; stroke-linecap:round; stroke-linejoin:round; stroke-width:2; stroke-opacity:0.1; fill:none" points="2378.69,1800.78 2378.69,127.792 "/>
<polyline clip-path="url(#clip062)" style="stroke:#000000; stroke-linecap:round; stroke-linejoin:round; stroke-width:2; stroke-opacity:0.1; fill:none" points="189.64,1759.07 2640.76,1759.07 "/>
<polyline clip-path="url(#clip062)" style="stroke:#000000; stroke-linecap:round; stroke-linejoin:round; stroke-width:2; stroke-opacity:0.1; fill:none" points="189.64,1482 2640.76,1482 "/>
<polyline clip-path="url(#clip062)" style="stroke:#000000; stroke-linecap:round; stroke-linejoin:round; stroke-width:2; stroke-opacity:0.1; fill:none" points="189.64,1204.92 2640.76,1204.92 "/>
<polyline clip-path="url(#clip062)" style="stroke:#000000; stroke-linecap:round; stroke-linejoin:round; stroke-width:2; stroke-opacity:0.1; fill:none" points="189.64,927.852 2640.76,927.852 "/>
<polyline clip-path="url(#clip062)" style="stroke:#000000; stroke-linecap:round; stroke-linejoin:round; stroke-width:2; stroke-opacity:0.1; fill:none" points="189.64,650.779 2640.76,650.779 "/>
<polyline clip-path="url(#clip062)" style="stroke:#000000; stroke-linecap:round; stroke-linejoin:round; stroke-width:2; stroke-opacity:0.1; fill:none" points="189.64,373.706 2640.76,373.706 "/>
<polyline clip-path="url(#clip060)" style="stroke:#000000; stroke-linecap:round; stroke-linejoin:round; stroke-width:4; stroke-opacity:1; fill:none" points="189.64,1800.78 2640.76,1800.78 "/>
<polyline clip-path="url(#clip060)" style="stroke:#000000; stroke-linecap:round; stroke-linejoin:round; stroke-width:4; stroke-opacity:1; fill:none" points="451.709,1800.78 451.709,1781.88 "/>
<polyline clip-path="url(#clip060)" style="stroke:#000000; stroke-linecap:round; stroke-linejoin:round; stroke-width:4; stroke-opacity:1; fill:none" points="772.872,1800.78 772.872,1781.88 "/>
<polyline clip-path="url(#clip060)" style="stroke:#000000; stroke-linecap:round; stroke-linejoin:round; stroke-width:4; stroke-opacity:1; fill:none" points="1094.04,1800.78 1094.04,1781.88 "/>
<polyline clip-path="url(#clip060)" style="stroke:#000000; stroke-linecap:round; stroke-linejoin:round; stroke-width:4; stroke-opacity:1; fill:none" points="1415.2,1800.78 1415.2,1781.88 "/>
<polyline clip-path="url(#clip060)" style="stroke:#000000; stroke-linecap:round; stroke-linejoin:round; stroke-width:4; stroke-opacity:1; fill:none" points="1736.36,1800.78 1736.36,1781.88 "/>
<polyline clip-path="url(#clip060)" style="stroke:#000000; stroke-linecap:round; stroke-linejoin:round; stroke-width:4; stroke-opacity:1; fill:none" points="2057.52,1800.78 2057.52,1781.88 "/>
<polyline clip-path="url(#clip060)" style="stroke:#000000; stroke-linecap:round; stroke-linejoin:round; stroke-width:4; stroke-opacity:1; fill:none" points="2378.69,1800.78 2378.69,1781.88 "/>
<path clip-path="url(#clip060)" d="M423.445 1861.55 L439.765 1861.55 L439.765 1865.48 L417.82 1865.48 L417.82 1861.55 Q420.482 1858.79 425.066 1854.16 Q429.672 1849.51 430.853 1848.17 Q433.098 1845.65 433.978 1843.91 Q434.88 1842.15 434.88 1840.46 Q434.88 1837.71 432.936 1835.97 Q431.015 1834.23 427.913 1834.23 Q425.714 1834.23 423.26 1835 Q420.83 1835.76 418.052 1837.31 L418.052 1832.59 Q420.876 1831.46 423.33 1830.88 Q425.783 1830.3 427.82 1830.3 Q433.191 1830.3 436.385 1832.98 Q439.58 1835.67 439.58 1840.16 Q439.58 1842.29 438.769 1844.21 Q437.982 1846.11 435.876 1848.7 Q435.297 1849.37 432.195 1852.59 Q429.093 1855.78 423.445 1861.55 Z" fill="#000000" fill-rule="nonzero" fill-opacity="1" /><path clip-path="url(#clip060)" d="M449.579 1859.6 L454.464 1859.6 L454.464 1865.48 L449.579 1865.48 L449.579 1859.6 Z" fill="#000000" fill-rule="nonzero" fill-opacity="1" /><path clip-path="url(#clip060)" d="M464.695 1830.92 L483.052 1830.92 L483.052 1834.86 L468.978 1834.86 L468.978 1843.33 Q469.996 1842.98 471.015 1842.82 Q472.033 1842.64 473.052 1842.64 Q478.839 1842.64 482.218 1845.81 Q485.598 1848.98 485.598 1854.4 Q485.598 1859.97 482.126 1863.08 Q478.653 1866.15 472.334 1866.15 Q470.158 1866.15 467.89 1865.78 Q465.644 1865.41 463.237 1864.67 L463.237 1859.97 Q465.32 1861.11 467.542 1861.66 Q469.765 1862.22 472.241 1862.22 Q476.246 1862.22 478.584 1860.11 Q480.922 1858.01 480.922 1854.4 Q480.922 1850.78 478.584 1848.68 Q476.246 1846.57 472.241 1846.57 Q470.366 1846.57 468.491 1846.99 Q466.64 1847.4 464.695 1848.28 L464.695 1830.92 Z" fill="#000000" fill-rule="nonzero" fill-opacity="1" /><path clip-path="url(#clip060)" d="M740.037 1830.92 L758.393 1830.92 L758.393 1834.86 L744.319 1834.86 L744.319 1843.33 Q745.337 1842.98 746.356 1842.82 Q747.375 1842.64 748.393 1842.64 Q754.18 1842.64 757.56 1845.81 Q760.939 1848.98 760.939 1854.4 Q760.939 1859.97 757.467 1863.08 Q753.995 1866.15 747.675 1866.15 Q745.5 1866.15 743.231 1865.78 Q740.986 1865.41 738.578 1864.67 L738.578 1859.97 Q740.662 1861.11 742.884 1861.66 Q745.106 1862.22 747.583 1862.22 Q751.587 1862.22 753.925 1860.11 Q756.263 1858.01 756.263 1854.4 Q756.263 1850.78 753.925 1848.68 Q751.587 1846.57 747.583 1846.57 Q745.708 1846.57 743.833 1846.99 Q741.981 1847.4 740.037 1848.28 L740.037 1830.92 Z" fill="#000000" fill-rule="nonzero" fill-opacity="1" /><path clip-path="url(#clip060)" d="M770.152 1859.6 L775.036 1859.6 L775.036 1865.48 L770.152 1865.48 L770.152 1859.6 Z" fill="#000000" fill-rule="nonzero" fill-opacity="1" /><path clip-path="url(#clip060)" d="M795.221 1834 Q791.61 1834 789.782 1837.57 Q787.976 1841.11 787.976 1848.24 Q787.976 1855.34 789.782 1858.91 Q791.61 1862.45 795.221 1862.45 Q798.856 1862.45 800.661 1858.91 Q802.49 1855.34 802.49 1848.24 Q802.49 1841.11 800.661 1837.57 Q798.856 1834 795.221 1834 M795.221 1830.3 Q801.032 1830.3 804.087 1834.9 Q807.166 1839.49 807.166 1848.24 Q807.166 1856.96 804.087 1861.57 Q801.032 1866.15 795.221 1866.15 Q789.411 1866.15 786.333 1861.57 Q783.277 1856.96 783.277 1848.24 Q783.277 1839.49 786.333 1834.9 Q789.411 1830.3 795.221 1830.3 Z" fill="#000000" fill-rule="nonzero" fill-opacity="1" /><path clip-path="url(#clip060)" d="M1060.35 1830.92 L1082.58 1830.92 L1082.58 1832.91 L1070.03 1865.48 L1065.15 1865.48 L1076.95 1834.86 L1060.35 1834.86 L1060.35 1830.92 Z" fill="#000000" fill-rule="nonzero" fill-opacity="1" /><path clip-path="url(#clip060)" d="M1091.7 1859.6 L1096.58 1859.6 L1096.58 1865.48 L1091.7 1865.48 L1091.7 1859.6 Z" fill="#000000" fill-rule="nonzero" fill-opacity="1" /><path clip-path="url(#clip060)" d="M1106.81 1830.92 L1125.17 1830.92 L1125.17 1834.86 L1111.1 1834.86 L1111.1 1843.33 Q1112.11 1842.98 1113.13 1842.82 Q1114.15 1842.64 1115.17 1842.64 Q1120.96 1842.64 1124.34 1845.81 Q1127.72 1848.98 1127.72 1854.4 Q1127.72 1859.97 1124.24 1863.08 Q1120.77 1866.15 1114.45 1866.15 Q1112.28 1866.15 1110.01 1865.78 Q1107.76 1865.41 1105.35 1864.67 L1105.35 1859.97 Q1107.44 1861.11 1109.66 1861.66 Q1111.88 1862.22 1114.36 1862.22 Q1118.36 1862.22 1120.7 1860.11 Q1123.04 1858.01 1123.04 1854.4 Q1123.04 1850.78 1120.7 1848.68 Q1118.36 1846.57 1114.36 1846.57 Q1112.48 1846.57 1110.61 1846.99 Q1108.76 1847.4 1106.81 1848.28 L1106.81 1830.92 Z" fill="#000000" fill-rule="nonzero" fill-opacity="1" /><path clip-path="url(#clip060)" d="M1367.27 1861.55 L1374.91 1861.55 L1374.91 1835.18 L1366.6 1836.85 L1366.6 1832.59 L1374.86 1830.92 L1379.54 1830.92 L1379.54 1861.55 L1387.18 1861.55 L1387.18 1865.48 L1367.27 1865.48 L1367.27 1861.55 Z" fill="#000000" fill-rule="nonzero" fill-opacity="1" /><path clip-path="url(#clip060)" d="M1406.62 1834 Q1403.01 1834 1401.18 1837.57 Q1399.38 1841.11 1399.38 1848.24 Q1399.38 1855.34 1401.18 1858.91 Q1403.01 1862.45 1406.62 1862.45 Q1410.26 1862.45 1412.06 1858.91 Q1413.89 1855.34 1413.89 1848.24 Q1413.89 1841.11 1412.06 1837.57 Q1410.26 1834 1406.62 1834 M1406.62 1830.3 Q1412.43 1830.3 1415.49 1834.9 Q1418.57 1839.49 1418.57 1848.24 Q1418.57 1856.96 1415.49 1861.57 Q1412.43 1866.15 1406.62 1866.15 Q1400.81 1866.15 1397.73 1861.57 Q1394.68 1856.96 1394.68 1848.24 Q1394.68 1839.49 1397.73 1834.9 Q1400.81 1830.3 1406.62 1830.3 Z" fill="#000000" fill-rule="nonzero" fill-opacity="1" /><path clip-path="url(#clip060)" d="M1426.78 1859.6 L1431.67 1859.6 L1431.67 1865.48 L1426.78 1865.48 L1426.78 1859.6 Z" fill="#000000" fill-rule="nonzero" fill-opacity="1" /><path clip-path="url(#clip060)" d="M1451.85 1834 Q1448.24 1834 1446.41 1837.57 Q1444.61 1841.11 1444.61 1848.24 Q1444.61 1855.34 1446.41 1858.91 Q1448.24 1862.45 1451.85 1862.45 Q1455.49 1862.45 1457.29 1858.91 Q1459.12 1855.34 1459.12 1848.24 Q1459.12 1841.11 1457.29 1837.57 Q1455.49 1834 1451.85 1834 M1451.85 1830.3 Q1457.66 1830.3 1460.72 1834.9 Q1463.8 1839.49 1463.8 1848.24 Q1463.8 1856.96 1460.72 1861.57 Q1457.66 1866.15 1451.85 1866.15 Q1446.04 1866.15 1442.96 1861.57 Q1439.91 1856.96 1439.91 1848.24 Q1439.91 1839.49 1442.96 1834.9 Q1446.04 1830.3 1451.85 1830.3 Z" fill="#000000" fill-rule="nonzero" fill-opacity="1" /><path clip-path="url(#clip060)" d="M1688.93 1861.55 L1696.57 1861.55 L1696.57 1835.18 L1688.26 1836.85 L1688.26 1832.59 L1696.52 1830.92 L1701.2 1830.92 L1701.2 1861.55 L1708.84 1861.55 L1708.84 1865.48 L1688.93 1865.48 L1688.93 1861.55 Z" fill="#000000" fill-rule="nonzero" fill-opacity="1" /><path clip-path="url(#clip060)" d="M1722.31 1861.55 L1738.63 1861.55 L1738.63 1865.48 L1716.69 1865.48 L1716.69 1861.55 Q1719.35 1858.79 1723.93 1854.16 Q1728.54 1849.51 1729.72 1848.17 Q1731.96 1845.65 1732.84 1843.91 Q1733.75 1842.15 1733.75 1840.46 Q1733.75 1837.71 1731.8 1835.97 Q1729.88 1834.23 1726.78 1834.23 Q1724.58 1834.23 1722.12 1835 Q1719.69 1835.76 1716.92 1837.31 L1716.92 1832.59 Q1719.74 1831.46 1722.19 1830.88 Q1724.65 1830.3 1726.69 1830.3 Q1732.06 1830.3 1735.25 1832.98 Q1738.44 1835.67 1738.44 1840.16 Q1738.44 1842.29 1737.63 1844.21 Q1736.85 1846.11 1734.74 1848.7 Q1734.16 1849.37 1731.06 1852.59 Q1727.96 1855.78 1722.31 1861.55 Z" fill="#000000" fill-rule="nonzero" fill-opacity="1" /><path clip-path="url(#clip060)" d="M1748.44 1859.6 L1753.33 1859.6 L1753.33 1865.48 L1748.44 1865.48 L1748.44 1859.6 Z" fill="#000000" fill-rule="nonzero" fill-opacity="1" /><path clip-path="url(#clip060)" d="M1763.56 1830.92 L1781.92 1830.92 L1781.92 1834.86 L1767.84 1834.86 L1767.84 1843.33 Q1768.86 1842.98 1769.88 1842.82 Q1770.9 1842.64 1771.92 1842.64 Q1777.7 1842.64 1781.08 1845.81 Q1784.46 1848.98 1784.46 1854.4 Q1784.46 1859.97 1780.99 1863.08 Q1777.52 1866.15 1771.2 1866.15 Q1769.02 1866.15 1766.75 1865.78 Q1764.51 1865.41 1762.1 1864.67 L1762.1 1859.97 Q1764.18 1861.11 1766.41 1861.66 Q1768.63 1862.22 1771.11 1862.22 Q1775.11 1862.22 1777.45 1860.11 Q1779.79 1858.01 1779.79 1854.4 Q1779.79 1850.78 1777.45 1848.68 Q1775.11 1846.57 1771.11 1846.57 Q1769.23 1846.57 1767.36 1846.99 Q1765.5 1847.4 1763.56 1848.28 L1763.56 1830.92 Z" fill="#000000" fill-rule="nonzero" fill-opacity="1" /><path clip-path="url(#clip060)" d="M2009.6 1861.55 L2017.23 1861.55 L2017.23 1835.18 L2008.92 1836.85 L2008.92 1832.59 L2017.19 1830.92 L2021.86 1830.92 L2021.86 1861.55 L2029.5 1861.55 L2029.5 1865.48 L2009.6 1865.48 L2009.6 1861.55 Z" fill="#000000" fill-rule="nonzero" fill-opacity="1" /><path clip-path="url(#clip060)" d="M2038.99 1830.92 L2057.35 1830.92 L2057.35 1834.86 L2043.28 1834.86 L2043.28 1843.33 Q2044.29 1842.98 2045.31 1842.82 Q2046.33 1842.64 2047.35 1842.64 Q2053.14 1842.64 2056.52 1845.81 Q2059.9 1848.98 2059.9 1854.4 Q2059.9 1859.97 2056.42 1863.08 Q2052.95 1866.15 2046.63 1866.15 Q2044.46 1866.15 2042.19 1865.78 Q2039.94 1865.41 2037.54 1864.67 L2037.54 1859.97 Q2039.62 1861.11 2041.84 1861.66 Q2044.06 1862.22 2046.54 1862.22 Q2050.54 1862.22 2052.88 1860.11 Q2055.22 1858.01 2055.22 1854.4 Q2055.22 1850.78 2052.88 1848.68 Q2050.54 1846.57 2046.54 1846.57 Q2044.67 1846.57 2042.79 1846.99 Q2040.94 1847.4 2038.99 1848.28 L2038.99 1830.92 Z" fill="#000000" fill-rule="nonzero" fill-opacity="1" /><path clip-path="url(#clip060)" d="M2069.11 1859.6 L2073.99 1859.6 L2073.99 1865.48 L2069.11 1865.48 L2069.11 1859.6 Z" fill="#000000" fill-rule="nonzero" fill-opacity="1" /><path clip-path="url(#clip060)" d="M2094.18 1834 Q2090.57 1834 2088.74 1837.57 Q2086.93 1841.11 2086.93 1848.24 Q2086.93 1855.34 2088.74 1858.91 Q2090.57 1862.45 2094.18 1862.45 Q2097.81 1862.45 2099.62 1858.91 Q2101.45 1855.34 2101.45 1848.24 Q2101.45 1841.11 2099.62 1837.57 Q2097.81 1834 2094.18 1834 M2094.18 1830.3 Q2099.99 1830.3 2103.04 1834.9 Q2106.12 1839.49 2106.12 1848.24 Q2106.12 1856.96 2103.04 1861.57 Q2099.99 1866.15 2094.18 1866.15 Q2088.37 1866.15 2085.29 1861.57 Q2082.23 1856.96 2082.23 1848.24 Q2082.23 1839.49 2085.29 1834.9 Q2088.37 1830.3 2094.18 1830.3 Z" fill="#000000" fill-rule="nonzero" fill-opacity="1" /><path clip-path="url(#clip060)" d="M2331.26 1861.55 L2338.9 1861.55 L2338.9 1835.18 L2330.59 1836.85 L2330.59 1832.59 L2338.85 1830.92 L2343.53 1830.92 L2343.53 1861.55 L2351.16 1861.55 L2351.16 1865.48 L2331.26 1865.48 L2331.26 1861.55 Z" fill="#000000" fill-rule="nonzero" fill-opacity="1" /><path clip-path="url(#clip060)" d="M2359.43 1830.92 L2381.65 1830.92 L2381.65 1832.91 L2369.1 1865.48 L2364.22 1865.48 L2376.02 1834.86 L2359.43 1834.86 L2359.43 1830.92 Z" fill="#000000" fill-rule="nonzero" fill-opacity="1" /><path clip-path="url(#clip060)" d="M2390.77 1859.6 L2395.65 1859.6 L2395.65 1865.48 L2390.77 1865.48 L2390.77 1859.6 Z" fill="#000000" fill-rule="nonzero" fill-opacity="1" /><path clip-path="url(#clip060)" d="M2405.89 1830.92 L2424.24 1830.92 L2424.24 1834.86 L2410.17 1834.86 L2410.17 1843.33 Q2411.19 1842.98 2412.21 1842.82 Q2413.22 1842.64 2414.24 1842.64 Q2420.03 1842.64 2423.41 1845.81 Q2426.79 1848.98 2426.79 1854.4 Q2426.79 1859.97 2423.32 1863.08 Q2419.84 1866.15 2413.52 1866.15 Q2411.35 1866.15 2409.08 1865.78 Q2406.83 1865.41 2404.43 1864.67 L2404.43 1859.97 Q2406.51 1861.11 2408.73 1861.66 Q2410.96 1862.22 2413.43 1862.22 Q2417.44 1862.22 2419.77 1860.11 Q2422.11 1858.01 2422.11 1854.4 Q2422.11 1850.78 2419.77 1848.68 Q2417.44 1846.57 2413.43 1846.57 Q2411.56 1846.57 2409.68 1846.99 Q2407.83 1847.4 2405.89 1848.28 L2405.89 1830.92 Z" fill="#000000" fill-rule="nonzero" fill-opacity="1" /><polyline clip-path="url(#clip060)" style="stroke:#000000; stroke-linecap:round; stroke-linejoin:round; stroke-width:4; stroke-opacity:1; fill:none" points="189.64,1800.78 189.64,127.792 "/>
<polyline clip-path="url(#clip060)" style="stroke:#000000; stroke-linecap:round; stroke-linejoin:round; stroke-width:4; stroke-opacity:1; fill:none" points="189.64,1759.07 208.538,1759.07 "/>
<polyline clip-path="url(#clip060)" style="stroke:#000000; stroke-linecap:round; stroke-linejoin:round; stroke-width:4; stroke-opacity:1; fill:none" points="189.64,1482 208.538,1482 "/>
<polyline clip-path="url(#clip060)" style="stroke:#000000; stroke-linecap:round; stroke-linejoin:round; stroke-width:4; stroke-opacity:1; fill:none" points="189.64,1204.92 208.538,1204.92 "/>
<polyline clip-path="url(#clip060)" style="stroke:#000000; stroke-linecap:round; stroke-linejoin:round; stroke-width:4; stroke-opacity:1; fill:none" points="189.64,927.852 208.538,927.852 "/>
<polyline clip-path="url(#clip060)" style="stroke:#000000; stroke-linecap:round; stroke-linejoin:round; stroke-width:4; stroke-opacity:1; fill:none" points="189.64,650.779 208.538,650.779 "/>
<polyline clip-path="url(#clip060)" style="stroke:#000000; stroke-linecap:round; stroke-linejoin:round; stroke-width:4; stroke-opacity:1; fill:none" points="189.64,373.706 208.538,373.706 "/>
<path clip-path="url(#clip060)" d="M61.9826 1744.87 Q58.3715 1744.87 56.5428 1748.43 Q54.7373 1751.98 54.7373 1759.1 Q54.7373 1766.21 56.5428 1769.78 Q58.3715 1773.32 61.9826 1773.32 Q65.6169 1773.32 67.4224 1769.78 Q69.2511 1766.21 69.2511 1759.1 Q69.2511 1751.98 67.4224 1748.43 Q65.6169 1744.87 61.9826 1744.87 M61.9826 1741.17 Q67.7928 1741.17 70.8483 1745.77 Q73.927 1750.35 73.927 1759.1 Q73.927 1767.83 70.8483 1772.44 Q67.7928 1777.02 61.9826 1777.02 Q56.1725 1777.02 53.0938 1772.44 Q50.0382 1767.83 50.0382 1759.1 Q50.0382 1750.35 53.0938 1745.77 Q56.1725 1741.17 61.9826 1741.17 Z" fill="#000000" fill-rule="nonzero" fill-opacity="1" /><path clip-path="url(#clip060)" d="M82.1445 1770.47 L87.0288 1770.47 L87.0288 1776.35 L82.1445 1776.35 L82.1445 1770.47 Z" fill="#000000" fill-rule="nonzero" fill-opacity="1" /><path clip-path="url(#clip060)" d="M107.214 1744.87 Q103.603 1744.87 101.774 1748.43 Q99.9685 1751.98 99.9685 1759.1 Q99.9685 1766.21 101.774 1769.78 Q103.603 1773.32 107.214 1773.32 Q110.848 1773.32 112.654 1769.78 Q114.482 1766.21 114.482 1759.1 Q114.482 1751.98 112.654 1748.43 Q110.848 1744.87 107.214 1744.87 M107.214 1741.17 Q113.024 1741.17 116.08 1745.77 Q119.158 1750.35 119.158 1759.1 Q119.158 1767.83 116.08 1772.44 Q113.024 1777.02 107.214 1777.02 Q101.404 1777.02 98.325 1772.44 Q95.2695 1767.83 95.2695 1759.1 Q95.2695 1750.35 98.325 1745.77 Q101.404 1741.17 107.214 1741.17 Z" fill="#000000" fill-rule="nonzero" fill-opacity="1" /><path clip-path="url(#clip060)" d="M137.376 1744.87 Q133.765 1744.87 131.936 1748.43 Q130.13 1751.98 130.13 1759.1 Q130.13 1766.21 131.936 1769.78 Q133.765 1773.32 137.376 1773.32 Q141.01 1773.32 142.816 1769.78 Q144.644 1766.21 144.644 1759.1 Q144.644 1751.98 142.816 1748.43 Q141.01 1744.87 137.376 1744.87 M137.376 1741.17 Q143.186 1741.17 146.241 1745.77 Q149.32 1750.35 149.32 1759.1 Q149.32 1767.83 146.241 1772.44 Q143.186 1777.02 137.376 1777.02 Q131.566 1777.02 128.487 1772.44 Q125.431 1767.83 125.431 1759.1 Q125.431 1750.35 128.487 1745.77 Q131.566 1741.17 137.376 1741.17 Z" fill="#000000" fill-rule="nonzero" fill-opacity="1" /><path clip-path="url(#clip060)" d="M63.2095 1467.8 Q59.5984 1467.8 57.7697 1471.36 Q55.9641 1474.9 55.9641 1482.03 Q55.9641 1489.14 57.7697 1492.7 Q59.5984 1496.24 63.2095 1496.24 Q66.8437 1496.24 68.6492 1492.7 Q70.4779 1489.14 70.4779 1482.03 Q70.4779 1474.9 68.6492 1471.36 Q66.8437 1467.8 63.2095 1467.8 M63.2095 1464.09 Q69.0196 1464.09 72.0752 1468.7 Q75.1538 1473.28 75.1538 1482.03 Q75.1538 1490.76 72.0752 1495.37 Q69.0196 1499.95 63.2095 1499.95 Q57.3993 1499.95 54.3206 1495.37 Q51.2651 1490.76 51.2651 1482.03 Q51.2651 1473.28 54.3206 1468.7 Q57.3993 1464.09 63.2095 1464.09 Z" fill="#000000" fill-rule="nonzero" fill-opacity="1" /><path clip-path="url(#clip060)" d="M83.3714 1493.4 L88.2556 1493.4 L88.2556 1499.28 L83.3714 1499.28 L83.3714 1493.4 Z" fill="#000000" fill-rule="nonzero" fill-opacity="1" /><path clip-path="url(#clip060)" d="M108.441 1467.8 Q104.83 1467.8 103.001 1471.36 Q101.195 1474.9 101.195 1482.03 Q101.195 1489.14 103.001 1492.7 Q104.83 1496.24 108.441 1496.24 Q112.075 1496.24 113.88 1492.7 Q115.709 1489.14 115.709 1482.03 Q115.709 1474.9 113.88 1471.36 Q112.075 1467.8 108.441 1467.8 M108.441 1464.09 Q114.251 1464.09 117.306 1468.7 Q120.385 1473.28 120.385 1482.03 Q120.385 1490.76 117.306 1495.37 Q114.251 1499.95 108.441 1499.95 Q102.631 1499.95 99.5519 1495.37 Q96.4963 1490.76 96.4963 1482.03 Q96.4963 1473.28 99.5519 1468.7 Q102.631 1464.09 108.441 1464.09 Z" fill="#000000" fill-rule="nonzero" fill-opacity="1" /><path clip-path="url(#clip060)" d="M129.413 1495.34 L137.052 1495.34 L137.052 1468.98 L128.742 1470.64 L128.742 1466.38 L137.005 1464.72 L141.681 1464.72 L141.681 1495.34 L149.32 1495.34 L149.32 1499.28 L129.413 1499.28 L129.413 1495.34 Z" fill="#000000" fill-rule="nonzero" fill-opacity="1" /><path clip-path="url(#clip060)" d="M63.5798 1190.72 Q59.9687 1190.72 58.14 1194.29 Q56.3345 1197.83 56.3345 1204.96 Q56.3345 1212.07 58.14 1215.63 Q59.9687 1219.17 63.5798 1219.17 Q67.2141 1219.17 69.0196 1215.63 Q70.8483 1212.07 70.8483 1204.96 Q70.8483 1197.83 69.0196 1194.29 Q67.2141 1190.72 63.5798 1190.72 M63.5798 1187.02 Q69.39 1187.02 72.4455 1191.63 Q75.5242 1196.21 75.5242 1204.96 Q75.5242 1213.69 72.4455 1218.29 Q69.39 1222.88 63.5798 1222.88 Q57.7697 1222.88 54.691 1218.29 Q51.6354 1213.69 51.6354 1204.96 Q51.6354 1196.21 54.691 1191.63 Q57.7697 1187.02 63.5798 1187.02 Z" fill="#000000" fill-rule="nonzero" fill-opacity="1" /><path clip-path="url(#clip060)" d="M83.7418 1216.32 L88.626 1216.32 L88.626 1222.2 L83.7418 1222.2 L83.7418 1216.32 Z" fill="#000000" fill-rule="nonzero" fill-opacity="1" /><path clip-path="url(#clip060)" d="M108.811 1190.72 Q105.2 1190.72 103.371 1194.29 Q101.566 1197.83 101.566 1204.96 Q101.566 1212.07 103.371 1215.63 Q105.2 1219.17 108.811 1219.17 Q112.445 1219.17 114.251 1215.63 Q116.08 1212.07 116.08 1204.96 Q116.08 1197.83 114.251 1194.29 Q112.445 1190.72 108.811 1190.72 M108.811 1187.02 Q114.621 1187.02 117.677 1191.63 Q120.755 1196.21 120.755 1204.96 Q120.755 1213.69 117.677 1218.29 Q114.621 1222.88 108.811 1222.88 Q103.001 1222.88 99.9222 1218.29 Q96.8667 1213.69 96.8667 1204.96 Q96.8667 1196.21 99.9222 1191.63 Q103.001 1187.02 108.811 1187.02 Z" fill="#000000" fill-rule="nonzero" fill-opacity="1" /><path clip-path="url(#clip060)" d="M133.001 1218.27 L149.32 1218.27 L149.32 1222.2 L127.376 1222.2 L127.376 1218.27 Q130.038 1215.51 134.621 1210.89 Q139.228 1206.23 140.408 1204.89 Q142.653 1202.37 143.533 1200.63 Q144.436 1198.87 144.436 1197.18 Q144.436 1194.43 142.491 1192.69 Q140.57 1190.95 137.468 1190.95 Q135.269 1190.95 132.816 1191.72 Q130.385 1192.48 127.607 1194.03 L127.607 1189.31 Q130.431 1188.18 132.885 1187.6 Q135.339 1187.02 137.376 1187.02 Q142.746 1187.02 145.94 1189.7 Q149.135 1192.39 149.135 1196.88 Q149.135 1199.01 148.325 1200.93 Q147.538 1202.83 145.431 1205.42 Q144.853 1206.09 141.751 1209.31 Q138.649 1212.51 133.001 1218.27 Z" fill="#000000" fill-rule="nonzero" fill-opacity="1" /><path clip-path="url(#clip060)" d="M62.6308 913.65 Q59.0197 913.65 57.191 917.215 Q55.3854 920.757 55.3854 927.886 Q55.3854 934.993 57.191 938.558 Q59.0197 942.099 62.6308 942.099 Q66.265 942.099 68.0705 938.558 Q69.8992 934.993 69.8992 927.886 Q69.8992 920.757 68.0705 917.215 Q66.265 913.65 62.6308 913.65 M62.6308 909.947 Q68.4409 909.947 71.4965 914.553 Q74.5751 919.137 74.5751 927.886 Q74.5751 936.613 71.4965 941.22 Q68.4409 945.803 62.6308 945.803 Q56.8206 945.803 53.7419 941.22 Q50.6864 936.613 50.6864 927.886 Q50.6864 919.137 53.7419 914.553 Q56.8206 909.947 62.6308 909.947 Z" fill="#000000" fill-rule="nonzero" fill-opacity="1" /><path clip-path="url(#clip060)" d="M82.7927 939.252 L87.6769 939.252 L87.6769 945.132 L82.7927 945.132 L82.7927 939.252 Z" fill="#000000" fill-rule="nonzero" fill-opacity="1" /><path clip-path="url(#clip060)" d="M107.862 913.65 Q104.251 913.65 102.422 917.215 Q100.617 920.757 100.617 927.886 Q100.617 934.993 102.422 938.558 Q104.251 942.099 107.862 942.099 Q111.496 942.099 113.302 938.558 Q115.13 934.993 115.13 927.886 Q115.13 920.757 113.302 917.215 Q111.496 913.65 107.862 913.65 M107.862 909.947 Q113.672 909.947 116.728 914.553 Q119.806 919.137 119.806 927.886 Q119.806 936.613 116.728 941.22 Q113.672 945.803 107.862 945.803 Q102.052 945.803 98.9732 941.22 Q95.9176 936.613 95.9176 927.886 Q95.9176 919.137 98.9732 914.553 Q102.052 909.947 107.862 909.947 Z" fill="#000000" fill-rule="nonzero" fill-opacity="1" /><path clip-path="url(#clip060)" d="M142.191 926.498 Q145.547 927.215 147.422 929.484 Q149.32 931.752 149.32 935.086 Q149.32 940.201 145.802 943.002 Q142.283 945.803 135.802 945.803 Q133.626 945.803 131.311 945.363 Q129.019 944.947 126.566 944.09 L126.566 939.576 Q128.51 940.71 130.825 941.289 Q133.14 941.868 135.663 941.868 Q140.061 941.868 142.353 940.132 Q144.667 938.396 144.667 935.086 Q144.667 932.03 142.515 930.317 Q140.385 928.581 136.566 928.581 L132.538 928.581 L132.538 924.738 L136.751 924.738 Q140.2 924.738 142.028 923.373 Q143.857 921.984 143.857 919.391 Q143.857 916.729 141.959 915.317 Q140.084 913.882 136.566 913.882 Q134.644 913.882 132.445 914.299 Q130.246 914.715 127.607 915.595 L127.607 911.428 Q130.269 910.687 132.584 910.317 Q134.922 909.947 136.982 909.947 Q142.306 909.947 145.408 912.377 Q148.51 914.785 148.51 918.905 Q148.51 921.775 146.866 923.766 Q145.223 925.734 142.191 926.498 Z" fill="#000000" fill-rule="nonzero" fill-opacity="1" /><path clip-path="url(#clip060)" d="M61.4965 636.578 Q57.8854 636.578 56.0567 640.142 Q54.2512 643.684 54.2512 650.814 Q54.2512 657.92 56.0567 661.485 Q57.8854 665.027 61.4965 665.027 Q65.1307 665.027 66.9363 661.485 Q68.765 657.92 68.765 650.814 Q68.765 643.684 66.9363 640.142 Q65.1307 636.578 61.4965 636.578 M61.4965 632.874 Q67.3067 632.874 70.3622 637.48 Q73.4409 642.064 73.4409 650.814 Q73.4409 659.54 70.3622 664.147 Q67.3067 668.73 61.4965 668.73 Q55.6864 668.73 52.6077 664.147 Q49.5521 659.54 49.5521 650.814 Q49.5521 642.064 52.6077 637.48 Q55.6864 632.874 61.4965 632.874 Z" fill="#000000" fill-rule="nonzero" fill-opacity="1" /><path clip-path="url(#clip060)" d="M81.6584 662.179 L86.5427 662.179 L86.5427 668.059 L81.6584 668.059 L81.6584 662.179 Z" fill="#000000" fill-rule="nonzero" fill-opacity="1" /><path clip-path="url(#clip060)" d="M106.728 636.578 Q103.117 636.578 101.288 640.142 Q99.4824 643.684 99.4824 650.814 Q99.4824 657.92 101.288 661.485 Q103.117 665.027 106.728 665.027 Q110.362 665.027 112.168 661.485 Q113.996 657.92 113.996 650.814 Q113.996 643.684 112.168 640.142 Q110.362 636.578 106.728 636.578 M106.728 632.874 Q112.538 632.874 115.593 637.48 Q118.672 642.064 118.672 650.814 Q118.672 659.54 115.593 664.147 Q112.538 668.73 106.728 668.73 Q100.918 668.73 97.8389 664.147 Q94.7834 659.54 94.7834 650.814 Q94.7834 642.064 97.8389 637.48 Q100.918 632.874 106.728 632.874 Z" fill="#000000" fill-rule="nonzero" fill-opacity="1" /><path clip-path="url(#clip060)" d="M139.737 637.573 L127.931 656.022 L139.737 656.022 L139.737 637.573 M138.51 633.499 L144.39 633.499 L144.39 656.022 L149.32 656.022 L149.32 659.911 L144.39 659.911 L144.39 668.059 L139.737 668.059 L139.737 659.911 L124.135 659.911 L124.135 655.397 L138.51 633.499 Z" fill="#000000" fill-rule="nonzero" fill-opacity="1" /><path clip-path="url(#clip060)" d="M62.978 359.505 Q59.3669 359.505 57.5382 363.07 Q55.7326 366.611 55.7326 373.741 Q55.7326 380.847 57.5382 384.412 Q59.3669 387.954 62.978 387.954 Q66.6122 387.954 68.4178 384.412 Q70.2465 380.847 70.2465 373.741 Q70.2465 366.611 68.4178 363.07 Q66.6122 359.505 62.978 359.505 M62.978 355.801 Q68.7881 355.801 71.8437 360.408 Q74.9224 364.991 74.9224 373.741 Q74.9224 382.468 71.8437 387.074 Q68.7881 391.657 62.978 391.657 Q57.1678 391.657 54.0891 387.074 Q51.0336 382.468 51.0336 373.741 Q51.0336 364.991 54.0891 360.408 Q57.1678 355.801 62.978 355.801 Z" fill="#000000" fill-rule="nonzero" fill-opacity="1" /><path clip-path="url(#clip060)" d="M83.1399 385.107 L88.0241 385.107 L88.0241 390.986 L83.1399 390.986 L83.1399 385.107 Z" fill="#000000" fill-rule="nonzero" fill-opacity="1" /><path clip-path="url(#clip060)" d="M108.209 359.505 Q104.598 359.505 102.769 363.07 Q100.964 366.611 100.964 373.741 Q100.964 380.847 102.769 384.412 Q104.598 387.954 108.209 387.954 Q111.843 387.954 113.649 384.412 Q115.478 380.847 115.478 373.741 Q115.478 366.611 113.649 363.07 Q111.843 359.505 108.209 359.505 M108.209 355.801 Q114.019 355.801 117.075 360.408 Q120.154 364.991 120.154 373.741 Q120.154 382.468 117.075 387.074 Q114.019 391.657 108.209 391.657 Q102.399 391.657 99.3204 387.074 Q96.2648 382.468 96.2648 373.741 Q96.2648 364.991 99.3204 360.408 Q102.399 355.801 108.209 355.801 Z" fill="#000000" fill-rule="nonzero" fill-opacity="1" /><path clip-path="url(#clip060)" d="M128.417 356.426 L146.774 356.426 L146.774 360.361 L132.7 360.361 L132.7 368.833 Q133.718 368.486 134.737 368.324 Q135.755 368.139 136.774 368.139 Q142.561 368.139 145.94 371.31 Q149.32 374.482 149.32 379.898 Q149.32 385.477 145.848 388.579 Q142.376 391.657 136.056 391.657 Q133.88 391.657 131.612 391.287 Q129.367 390.917 126.959 390.176 L126.959 385.477 Q129.042 386.611 131.265 387.167 Q133.487 387.722 135.964 387.722 Q139.968 387.722 142.306 385.616 Q144.644 383.509 144.644 379.898 Q144.644 376.287 142.306 374.181 Q139.968 372.074 135.964 372.074 Q134.089 372.074 132.214 372.491 Q130.362 372.908 128.417 373.787 L128.417 356.426 Z" fill="#000000" fill-rule="nonzero" fill-opacity="1" /><path clip-path="url(#clip060)" d="M1067.69 48.0275 L1067.69 51.6733 L1033.42 51.6733 Q1033.91 59.3701 1038.04 63.421 Q1042.21 67.4314 1049.62 67.4314 Q1053.92 67.4314 1057.93 66.3781 Q1061.98 65.3249 1065.95 63.2184 L1065.95 70.267 Q1061.94 71.9684 1057.73 72.8596 Q1053.51 73.7508 1049.18 73.7508 Q1038.32 73.7508 1031.96 67.4314 Q1025.64 61.1119 1025.64 50.3365 Q1025.64 39.1965 1031.64 32.6746 Q1037.67 26.1121 1047.88 26.1121 Q1057.04 26.1121 1062.34 32.0264 Q1067.69 37.9003 1067.69 48.0275 M1060.24 45.84 Q1060.16 39.7232 1056.79 36.0774 Q1053.47 32.4315 1047.96 32.4315 Q1041.72 32.4315 1037.96 35.9558 Q1034.23 39.4801 1033.66 45.8805 L1060.24 45.84 Z" fill="#000000" fill-rule="nonzero" fill-opacity="1" /><path clip-path="url(#clip060)" d="M1116.18 27.2059 L1099.77 49.2833 L1117.03 72.576 L1108.24 72.576 L1095.03 54.752 L1081.83 72.576 L1073.04 72.576 L1090.66 48.8377 L1074.54 27.2059 L1083.33 27.2059 L1095.36 43.369 L1107.39 27.2059 L1116.18 27.2059 Z" fill="#000000" fill-rule="nonzero" fill-opacity="1" /><path clip-path="url(#clip060)" d="M1134.77 65.7705 L1134.77 89.8329 L1127.28 89.8329 L1127.28 27.2059 L1134.77 27.2059 L1134.77 34.0924 Q1137.12 30.0415 1140.69 28.0971 Q1144.29 26.1121 1149.28 26.1121 Q1157.54 26.1121 1162.68 32.6746 Q1167.87 39.2371 1167.87 49.9314 Q1167.87 60.6258 1162.68 67.1883 Q1157.54 73.7508 1149.28 73.7508 Q1144.29 73.7508 1140.69 71.8063 Q1137.12 69.8214 1134.77 65.7705 M1160.13 49.9314 Q1160.13 41.7081 1156.73 37.0496 Q1153.37 32.3505 1147.45 32.3505 Q1141.54 32.3505 1138.14 37.0496 Q1134.77 41.7081 1134.77 49.9314 Q1134.77 58.1548 1138.14 62.8538 Q1141.54 67.5124 1147.45 67.5124 Q1153.37 67.5124 1156.73 62.8538 Q1160.13 58.1548 1160.13 49.9314 Z" fill="#000000" fill-rule="nonzero" fill-opacity="1" /><path clip-path="url(#clip060)" d="M1180.23 9.54393 L1187.68 9.54393 L1187.68 72.576 L1180.23 72.576 L1180.23 9.54393 Z" fill="#000000" fill-rule="nonzero" fill-opacity="1" /><path clip-path="url(#clip060)" d="M1223.89 49.7694 Q1214.86 49.7694 1211.38 51.8354 Q1207.89 53.9013 1207.89 58.8839 Q1207.89 62.8538 1210.49 65.2034 Q1213.12 67.5124 1217.62 67.5124 Q1223.81 67.5124 1227.54 63.1374 Q1231.31 58.7219 1231.31 51.4303 L1231.31 49.7694 L1223.89 49.7694 M1238.76 46.6907 L1238.76 72.576 L1231.31 72.576 L1231.31 65.6895 Q1228.76 69.8214 1224.95 71.8063 Q1221.14 73.7508 1215.63 73.7508 Q1208.66 73.7508 1204.53 69.8619 Q1200.44 65.9325 1200.44 59.3701 Q1200.44 51.7138 1205.54 47.825 Q1210.69 43.9361 1220.86 43.9361 L1231.31 43.9361 L1231.31 43.2069 Q1231.31 38.0623 1227.9 35.2672 Q1224.54 32.4315 1218.43 32.4315 Q1214.54 32.4315 1210.85 33.3632 Q1207.16 34.295 1203.76 36.1584 L1203.76 29.2718 Q1207.85 27.692 1211.7 26.9223 Q1215.55 26.1121 1219.2 26.1121 Q1229.04 26.1121 1233.9 31.2163 Q1238.76 36.3204 1238.76 46.6907 Z" fill="#000000" fill-rule="nonzero" fill-opacity="1" /><path clip-path="url(#clip060)" d="M1254.11 27.2059 L1261.57 27.2059 L1261.57 72.576 L1254.11 72.576 L1254.11 27.2059 M1254.11 9.54393 L1261.57 9.54393 L1261.57 18.9825 L1254.11 18.9825 L1254.11 9.54393 Z" fill="#000000" fill-rule="nonzero" fill-opacity="1" /><path clip-path="url(#clip060)" d="M1314.88 45.1919 L1314.88 72.576 L1307.42 72.576 L1307.42 45.4349 Q1307.42 38.994 1304.91 35.7938 Q1302.4 32.5936 1297.38 32.5936 Q1291.34 32.5936 1287.86 36.4419 Q1284.37 40.2903 1284.37 46.9338 L1284.37 72.576 L1276.88 72.576 L1276.88 27.2059 L1284.37 27.2059 L1284.37 34.2544 Q1287.05 30.163 1290.65 28.1376 Q1294.3 26.1121 1299.04 26.1121 Q1306.86 26.1121 1310.87 30.9732 Q1314.88 35.7938 1314.88 45.1919 Z" fill="#000000" fill-rule="nonzero" fill-opacity="1" /><path clip-path="url(#clip060)" d="M1368.55 48.0275 L1368.55 51.6733 L1334.28 51.6733 Q1334.77 59.3701 1338.9 63.421 Q1343.07 67.4314 1350.48 67.4314 Q1354.78 67.4314 1358.79 66.3781 Q1362.84 65.3249 1366.81 63.2184 L1366.81 70.267 Q1362.8 71.9684 1358.59 72.8596 Q1354.37 73.7508 1350.04 73.7508 Q1339.18 73.7508 1332.82 67.4314 Q1326.5 61.1119 1326.5 50.3365 Q1326.5 39.1965 1332.5 32.6746 Q1338.53 26.1121 1348.74 26.1121 Q1357.9 26.1121 1363.2 32.0264 Q1368.55 37.9003 1368.55 48.0275 M1361.1 45.84 Q1361.02 39.7232 1357.65 36.0774 Q1354.33 32.4315 1348.82 32.4315 Q1342.59 32.4315 1338.82 35.9558 Q1335.09 39.4801 1334.52 45.8805 L1361.1 45.84 Z" fill="#000000" fill-rule="nonzero" fill-opacity="1" /><path clip-path="url(#clip060)" d="M1410.64 34.0924 L1410.64 9.54393 L1418.09 9.54393 L1418.09 72.576 L1410.64 72.576 L1410.64 65.7705 Q1408.29 69.8214 1404.69 71.8063 Q1401.12 73.7508 1396.1 73.7508 Q1387.87 73.7508 1382.69 67.1883 Q1377.54 60.6258 1377.54 49.9314 Q1377.54 39.2371 1382.69 32.6746 Q1387.87 26.1121 1396.1 26.1121 Q1401.12 26.1121 1404.69 28.0971 Q1408.29 30.0415 1410.64 34.0924 M1385.24 49.9314 Q1385.24 58.1548 1388.6 62.8538 Q1392.01 67.5124 1397.92 67.5124 Q1403.84 67.5124 1407.24 62.8538 Q1410.64 58.1548 1410.64 49.9314 Q1410.64 41.7081 1407.24 37.0496 Q1403.84 32.3505 1397.92 32.3505 Q1392.01 32.3505 1388.6 37.0496 Q1385.24 41.7081 1385.24 49.9314 Z" fill="#000000" fill-rule="nonzero" fill-opacity="1" /><path clip-path="url(#clip060)" d="M1454.47 27.2059 L1462.37 27.2059 L1476.55 65.2844 L1490.73 27.2059 L1498.63 27.2059 L1481.61 72.576 L1471.49 72.576 L1454.47 27.2059 Z" fill="#000000" fill-rule="nonzero" fill-opacity="1" /><path clip-path="url(#clip060)" d="M1529.53 49.7694 Q1520.5 49.7694 1517.02 51.8354 Q1513.53 53.9013 1513.53 58.8839 Q1513.53 62.8538 1516.13 65.2034 Q1518.76 67.5124 1523.26 67.5124 Q1529.45 67.5124 1533.18 63.1374 Q1536.95 58.7219 1536.95 51.4303 L1536.95 49.7694 L1529.53 49.7694 M1544.4 46.6907 L1544.4 72.576 L1536.95 72.576 L1536.95 65.6895 Q1534.4 69.8214 1530.59 71.8063 Q1526.78 73.7508 1521.27 73.7508 Q1514.3 73.7508 1510.17 69.8619 Q1506.08 65.9325 1506.08 59.3701 Q1506.08 51.7138 1511.18 47.825 Q1516.33 43.9361 1526.5 43.9361 L1536.95 43.9361 L1536.95 43.2069 Q1536.95 38.0623 1533.55 35.2672 Q1530.18 32.4315 1524.07 32.4315 Q1520.18 32.4315 1516.49 33.3632 Q1512.8 34.295 1509.4 36.1584 L1509.4 29.2718 Q1513.49 27.692 1517.34 26.9223 Q1521.19 26.1121 1524.84 26.1121 Q1534.68 26.1121 1539.54 31.2163 Q1544.4 36.3204 1544.4 46.6907 Z" fill="#000000" fill-rule="nonzero" fill-opacity="1" /><path clip-path="url(#clip060)" d="M1586.04 34.1734 Q1584.79 33.4443 1583.29 33.1202 Q1581.83 32.7556 1580.05 32.7556 Q1573.73 32.7556 1570.33 36.8875 Q1566.97 40.9789 1566.97 48.6757 L1566.97 72.576 L1559.47 72.576 L1559.47 27.2059 L1566.97 27.2059 L1566.97 34.2544 Q1569.31 30.1225 1573.08 28.1376 Q1576.85 26.1121 1582.24 26.1121 Q1583.01 26.1121 1583.94 26.2337 Q1584.87 26.3147 1586 26.5172 L1586.04 34.1734 Z" fill="#000000" fill-rule="nonzero" fill-opacity="1" /><path clip-path="url(#clip060)" d="M1593.86 27.2059 L1601.32 27.2059 L1601.32 72.576 L1593.86 72.576 L1593.86 27.2059 M1593.86 9.54393 L1601.32 9.54393 L1601.32 18.9825 L1593.86 18.9825 L1593.86 9.54393 Z" fill="#000000" fill-rule="nonzero" fill-opacity="1" /><path clip-path="url(#clip060)" d="M1637.53 49.7694 Q1628.5 49.7694 1625.01 51.8354 Q1621.53 53.9013 1621.53 58.8839 Q1621.53 62.8538 1624.12 65.2034 Q1626.76 67.5124 1631.25 67.5124 Q1637.45 67.5124 1641.18 63.1374 Q1644.95 58.7219 1644.95 51.4303 L1644.95 49.7694 L1637.53 49.7694 M1652.4 46.6907 L1652.4 72.576 L1644.95 72.576 L1644.95 65.6895 Q1642.39 69.8214 1638.59 71.8063 Q1634.78 73.7508 1629.27 73.7508 Q1622.3 73.7508 1618.17 69.8619 Q1614.08 65.9325 1614.08 59.3701 Q1614.08 51.7138 1619.18 47.825 Q1624.33 43.9361 1634.49 43.9361 L1644.95 43.9361 L1644.95 43.2069 Q1644.95 38.0623 1641.54 35.2672 Q1638.18 32.4315 1632.06 32.4315 Q1628.17 32.4315 1624.49 33.3632 Q1620.8 34.295 1617.4 36.1584 L1617.4 29.2718 Q1621.49 27.692 1625.34 26.9223 Q1629.19 26.1121 1632.83 26.1121 Q1642.68 26.1121 1647.54 31.2163 Q1652.4 36.3204 1652.4 46.6907 Z" fill="#000000" fill-rule="nonzero" fill-opacity="1" /><path clip-path="url(#clip060)" d="M1705.47 45.1919 L1705.47 72.576 L1698.01 72.576 L1698.01 45.4349 Q1698.01 38.994 1695.5 35.7938 Q1692.99 32.5936 1687.97 32.5936 Q1681.93 32.5936 1678.45 36.4419 Q1674.96 40.2903 1674.96 46.9338 L1674.96 72.576 L1667.47 72.576 L1667.47 27.2059 L1674.96 27.2059 L1674.96 34.2544 Q1677.64 30.163 1681.24 28.1376 Q1684.89 26.1121 1689.63 26.1121 Q1697.44 26.1121 1701.46 30.9732 Q1705.47 35.7938 1705.47 45.1919 Z" fill="#000000" fill-rule="nonzero" fill-opacity="1" /><path clip-path="url(#clip060)" d="M1752.98 28.9478 L1752.98 35.9153 Q1749.82 34.1734 1746.62 33.3227 Q1743.46 32.4315 1740.22 32.4315 Q1732.97 32.4315 1728.96 37.0496 Q1724.95 41.6271 1724.95 49.9314 Q1724.95 58.2358 1728.96 62.8538 Q1732.97 67.4314 1740.22 67.4314 Q1743.46 67.4314 1746.62 66.5807 Q1749.82 65.6895 1752.98 63.9476 L1752.98 70.8341 Q1749.86 72.2924 1746.5 73.0216 Q1743.18 73.7508 1739.41 73.7508 Q1729.16 73.7508 1723.13 67.3098 Q1717.09 60.8689 1717.09 49.9314 Q1717.09 38.832 1723.17 32.472 Q1729.28 26.1121 1739.9 26.1121 Q1743.34 26.1121 1746.62 26.8413 Q1749.9 27.5299 1752.98 28.9478 Z" fill="#000000" fill-rule="nonzero" fill-opacity="1" /><path clip-path="url(#clip060)" d="M1804.75 48.0275 L1804.75 51.6733 L1770.48 51.6733 Q1770.97 59.3701 1775.1 63.421 Q1779.27 67.4314 1786.69 67.4314 Q1790.98 67.4314 1794.99 66.3781 Q1799.04 65.3249 1803.01 63.2184 L1803.01 70.267 Q1799 71.9684 1794.79 72.8596 Q1790.58 73.7508 1786.24 73.7508 Q1775.38 73.7508 1769.02 67.4314 Q1762.7 61.1119 1762.7 50.3365 Q1762.7 39.1965 1768.7 32.6746 Q1774.74 26.1121 1784.94 26.1121 Q1794.1 26.1121 1799.41 32.0264 Q1804.75 37.9003 1804.75 48.0275 M1797.3 45.84 Q1797.22 39.7232 1793.86 36.0774 Q1790.53 32.4315 1785.03 32.4315 Q1778.79 32.4315 1775.02 35.9558 Q1771.29 39.4801 1770.73 45.8805 L1797.3 45.84 Z" fill="#000000" fill-rule="nonzero" fill-opacity="1" /><polyline clip-path="url(#clip062)" style="stroke:#009af9; stroke-linecap:round; stroke-linejoin:round; stroke-width:4; stroke-opacity:1; fill:none" points="259.011,175.141 387.477,1234.26 515.942,1404.46 644.407,1567.24 772.872,1604.03 901.337,1655.17 1029.8,1682.1 1158.27,1697.65 1286.73,1702.33 1415.2,1721.15 1543.66,1726.32 1672.13,1735.41 1800.59,1737.29 1929.06,1743.13 2057.52,1743.51 2185.99,1749.57 2314.45,1752.06 2442.92,1752.72 2571.38,1753.43 "/>
<path clip-path="url(#clip060)" d="M2016.91 287.238 L2559.05 287.238 L2559.05 183.558 L2016.91 183.558  Z" fill="#ffffff" fill-rule="evenodd" fill-opacity="1"/>
<polyline clip-path="url(#clip060)" style="stroke:#000000; stroke-linecap:round; stroke-linejoin:round; stroke-width:4; stroke-opacity:1; fill:none" points="2016.91,287.238 2559.05,287.238 2559.05,183.558 2016.91,183.558 2016.91,287.238 "/>
<polyline clip-path="url(#clip060)" style="stroke:#009af9; stroke-linecap:round; stroke-linejoin:round; stroke-width:4; stroke-opacity:1; fill:none" points="2044.14,235.398 2207.55,235.398 "/>
<path clip-path="url(#clip060)" d="M2234.78 218.118 L2264.02 218.118 L2264.02 222.054 L2251.75 222.054 L2251.75 252.678 L2247.05 252.678 L2247.05 222.054 L2234.78 222.054 L2234.78 218.118 Z" fill="#000000" fill-rule="nonzero" fill-opacity="1" /><path clip-path="url(#clip060)" d="M2272.28 239.646 Q2267.12 239.646 2265.13 240.827 Q2263.14 242.007 2263.14 244.854 Q2263.14 247.123 2264.62 248.465 Q2266.12 249.785 2268.69 249.785 Q2272.24 249.785 2274.37 247.285 Q2276.52 244.762 2276.52 240.595 L2276.52 239.646 L2272.28 239.646 M2280.78 237.887 L2280.78 252.678 L2276.52 252.678 L2276.52 248.743 Q2275.06 251.104 2272.88 252.239 Q2270.71 253.35 2267.56 253.35 Q2263.58 253.35 2261.22 251.127 Q2258.88 248.882 2258.88 245.132 Q2258.88 240.757 2261.8 238.535 Q2264.74 236.313 2270.55 236.313 L2276.52 236.313 L2276.52 235.896 Q2276.52 232.956 2274.57 231.359 Q2272.65 229.739 2269.16 229.739 Q2266.93 229.739 2264.83 230.271 Q2262.72 230.803 2260.78 231.868 L2260.78 227.933 Q2263.12 227.03 2265.31 226.591 Q2267.51 226.128 2269.6 226.128 Q2275.22 226.128 2278 229.044 Q2280.78 231.961 2280.78 237.887 Z" fill="#000000" fill-rule="nonzero" fill-opacity="1" /><path clip-path="url(#clip060)" d="M2311.1 237.03 L2311.1 252.678 L2306.84 252.678 L2306.84 237.169 Q2306.84 233.489 2305.41 231.66 Q2303.97 229.831 2301.1 229.831 Q2297.65 229.831 2295.66 232.03 Q2293.67 234.229 2293.67 238.026 L2293.67 252.678 L2289.39 252.678 L2289.39 226.753 L2293.67 226.753 L2293.67 230.78 Q2295.2 228.442 2297.26 227.285 Q2299.34 226.128 2302.05 226.128 Q2306.52 226.128 2308.81 228.905 Q2311.1 231.66 2311.1 237.03 Z" fill="#000000" fill-rule="nonzero" fill-opacity="1" /><path clip-path="url(#clip060)" d="M2336.66 239.415 Q2336.66 234.785 2334.74 232.239 Q2332.84 229.692 2329.39 229.692 Q2325.96 229.692 2324.04 232.239 Q2322.14 234.785 2322.14 239.415 Q2322.14 244.021 2324.04 246.567 Q2325.96 249.114 2329.39 249.114 Q2332.84 249.114 2334.74 246.567 Q2336.66 244.021 2336.66 239.415 M2340.92 249.461 Q2340.92 256.081 2337.98 259.299 Q2335.04 262.539 2328.97 262.539 Q2326.73 262.539 2324.74 262.192 Q2322.74 261.868 2320.87 261.174 L2320.87 257.03 Q2322.74 258.049 2324.57 258.535 Q2326.4 259.021 2328.3 259.021 Q2332.49 259.021 2334.57 256.822 Q2336.66 254.646 2336.66 250.225 L2336.66 248.118 Q2335.34 250.41 2333.28 251.544 Q2331.22 252.678 2328.35 252.678 Q2323.58 252.678 2320.66 249.044 Q2317.74 245.41 2317.74 239.415 Q2317.74 233.396 2320.66 229.762 Q2323.58 226.128 2328.35 226.128 Q2331.22 226.128 2333.28 227.262 Q2335.34 228.396 2336.66 230.688 L2336.66 226.753 L2340.92 226.753 L2340.92 249.461 Z" fill="#000000" fill-rule="nonzero" fill-opacity="1" /><path clip-path="url(#clip060)" d="M2371.86 238.651 L2371.86 240.734 L2352.28 240.734 Q2352.56 245.132 2354.92 247.447 Q2357.3 249.739 2361.54 249.739 Q2363.99 249.739 2366.29 249.137 Q2368.6 248.535 2370.87 247.331 L2370.87 251.359 Q2368.58 252.331 2366.17 252.84 Q2363.76 253.35 2361.29 253.35 Q2355.08 253.35 2351.45 249.739 Q2347.84 246.127 2347.84 239.97 Q2347.84 233.604 2351.26 229.878 Q2354.71 226.128 2360.55 226.128 Q2365.78 226.128 2368.81 229.507 Q2371.86 232.864 2371.86 238.651 M2367.61 237.401 Q2367.56 233.905 2365.64 231.822 Q2363.74 229.739 2360.59 229.739 Q2357.03 229.739 2354.87 231.753 Q2352.74 233.766 2352.42 237.424 L2367.61 237.401 Z" fill="#000000" fill-rule="nonzero" fill-opacity="1" /><path clip-path="url(#clip060)" d="M2400.41 237.03 L2400.41 252.678 L2396.15 252.678 L2396.15 237.169 Q2396.15 233.489 2394.71 231.66 Q2393.28 229.831 2390.41 229.831 Q2386.96 229.831 2384.97 232.03 Q2382.98 234.229 2382.98 238.026 L2382.98 252.678 L2378.69 252.678 L2378.69 226.753 L2382.98 226.753 L2382.98 230.78 Q2384.5 228.442 2386.56 227.285 Q2388.65 226.128 2391.36 226.128 Q2395.82 226.128 2398.11 228.905 Q2400.41 231.66 2400.41 237.03 Z" fill="#000000" fill-rule="nonzero" fill-opacity="1" /><path clip-path="url(#clip060)" d="M2413.11 219.392 L2413.11 226.753 L2421.89 226.753 L2421.89 230.063 L2413.11 230.063 L2413.11 244.137 Q2413.11 247.308 2413.97 248.211 Q2414.85 249.114 2417.51 249.114 L2421.89 249.114 L2421.89 252.678 L2417.51 252.678 Q2412.58 252.678 2410.71 250.85 Q2408.83 248.998 2408.83 244.137 L2408.83 230.063 L2405.71 230.063 L2405.71 226.753 L2408.83 226.753 L2408.83 219.392 L2413.11 219.392 Z" fill="#000000" fill-rule="nonzero" fill-opacity="1" /><path clip-path="url(#clip060)" d="M2447.42 221.961 L2447.42 234.947 L2453.3 234.947 Q2456.56 234.947 2458.35 233.257 Q2460.13 231.567 2460.13 228.442 Q2460.13 225.341 2458.35 223.651 Q2456.56 221.961 2453.3 221.961 L2447.42 221.961 M2442.74 218.118 L2453.3 218.118 Q2459.11 218.118 2462.07 220.757 Q2465.06 223.373 2465.06 228.442 Q2465.06 233.558 2462.07 236.174 Q2459.11 238.79 2453.3 238.79 L2447.42 238.79 L2447.42 252.678 L2442.74 252.678 L2442.74 218.118 Z" fill="#000000" fill-rule="nonzero" fill-opacity="1" /><path clip-path="url(#clip060)" d="M2497.21 220.78 L2497.21 225.711 Q2494.85 223.512 2492.16 222.424 Q2489.5 221.336 2486.49 221.336 Q2480.57 221.336 2477.42 224.97 Q2474.27 228.581 2474.27 235.433 Q2474.27 242.262 2477.42 245.896 Q2480.57 249.507 2486.49 249.507 Q2489.5 249.507 2492.16 248.419 Q2494.85 247.331 2497.21 245.132 L2497.21 250.016 Q2494.76 251.683 2492 252.516 Q2489.27 253.35 2486.22 253.35 Q2478.37 253.35 2473.85 248.558 Q2469.34 243.743 2469.34 235.433 Q2469.34 227.1 2473.85 222.308 Q2478.37 217.493 2486.22 217.493 Q2489.32 217.493 2492.05 218.327 Q2494.8 219.137 2497.21 220.78 Z" fill="#000000" fill-rule="nonzero" fill-opacity="1" /><path clip-path="url(#clip060)" d="M2515.98 222.725 L2509.64 239.924 L2522.35 239.924 L2515.98 222.725 M2513.35 218.118 L2518.65 218.118 L2531.82 252.678 L2526.96 252.678 L2523.81 243.813 L2508.23 243.813 L2505.08 252.678 L2500.15 252.678 L2513.35 218.118 Z" fill="#000000" fill-rule="nonzero" fill-opacity="1" /></svg>
