<?xml version="1.0" encoding="utf-8"?>
<svg xmlns="http://www.w3.org/2000/svg" xmlns:xlink="http://www.w3.org/1999/xlink" width="600" height="400" viewBox="0 0 2400 1600">
<defs>
  <clipPath id="clip760">
    <rect x="0" y="0" width="2400" height="1600"/>
  </clipPath>
</defs>
<path clip-path="url(#clip760)" d="M0 1600 L2400 1600 L2400 0 L0 0  Z" fill="#ffffff" fill-rule="evenodd" fill-opacity="1"/>
<defs>
  <clipPath id="clip761">
    <rect x="480" y="0" width="1681" height="1600"/>
  </clipPath>
</defs>
<path clip-path="url(#clip760)" d="M156.112 1486.45 L2352.76 1486.45 L2352.76 47.2441 L156.112 47.2441  Z" fill="#ffffff" fill-rule="evenodd" fill-opacity="1"/>
<defs>
  <clipPath id="clip762">
    <rect x="156" y="47" width="2198" height="1440"/>
  </clipPath>
</defs>
<polyline clip-path="url(#clip762)" style="stroke:#000000; stroke-linecap:round; stroke-linejoin:round; stroke-width:2; stroke-opacity:0.1; fill:none" points="497.397,1486.45 497.397,47.2441 "/>
<polyline clip-path="url(#clip762)" style="stroke:#000000; stroke-linecap:round; stroke-linejoin:round; stroke-width:2; stroke-opacity:0.1; fill:none" points="875.916,1486.45 875.916,47.2441 "/>
<polyline clip-path="url(#clip762)" style="stroke:#000000; stroke-linecap:round; stroke-linejoin:round; stroke-width:2; stroke-opacity:0.1; fill:none" points="1632.95,1486.45 1632.95,47.2441 "/>
<polyline clip-path="url(#clip762)" style="stroke:#000000; stroke-linecap:round; stroke-linejoin:round; stroke-width:2; stroke-opacity:0.1; fill:none" points="2011.47,1486.45 2011.47,47.2441 "/>
<polyline clip-path="url(#clip762)" style="stroke:#000000; stroke-linecap:round; stroke-linejoin:round; stroke-width:2; stroke-opacity:0.1; fill:none" points="156.112,916.525 2352.76,916.525 "/>
<polyline clip-path="url(#clip762)" style="stroke:#000000; stroke-linecap:round; stroke-linejoin:round; stroke-width:2; stroke-opacity:0.1; fill:none" points="156.112,538.007 2352.76,538.007 "/>
<polyline clip-path="url(#clip762)" style="stroke:#000000; stroke-linecap:round; stroke-linejoin:round; stroke-width:2; stroke-opacity:0.1; fill:none" points="156.112,159.489 2352.76,159.489 "/>
<polyline clip-path="url(#clip760)" style="stroke:#000000; stroke-linecap:round; stroke-linejoin:round; stroke-width:4; stroke-opacity:1; fill:none" points="156.112,1295.04 2352.76,1295.04 "/>
<polyline clip-path="url(#clip760)" style="stroke:#000000; stroke-linecap:round; stroke-linejoin:round; stroke-width:4; stroke-opacity:1; fill:none" points="497.397,1313.94 497.397,1276.15 "/>
<polyline clip-path="url(#clip760)" style="stroke:#000000; stroke-linecap:round; stroke-linejoin:round; stroke-width:4; stroke-opacity:1; fill:none" points="875.916,1313.94 875.916,1276.15 "/>
<polyline clip-path="url(#clip760)" style="stroke:#000000; stroke-linecap:round; stroke-linejoin:round; stroke-width:4; stroke-opacity:1; fill:none" points="1632.95,1313.94 1632.95,1276.15 "/>
<polyline clip-path="url(#clip760)" style="stroke:#000000; stroke-linecap:round; stroke-linejoin:round; stroke-width:4; stroke-opacity:1; fill:none" points="2011.47,1313.94 2011.47,1276.15 "/>
<path clip-path="url(#clip760)" d="M443.925 1340.62 L473.601 1340.62 L473.601 1344.55 L443.925 1344.55 L443.925 1340.62 Z" fill="#000000" fill-rule="nonzero" fill-opacity="1" /><path clip-path="url(#clip760)" d="M484.504 1353.51 L492.143 1353.51 L492.143 1327.14 L483.832 1328.81 L483.832 1324.55 L492.096 1322.88 L496.772 1322.88 L496.772 1353.51 L504.411 1353.51 L504.411 1357.44 L484.504 1357.44 L484.504 1353.51 Z" fill="#000000" fill-rule="nonzero" fill-opacity="1" /><path clip-path="url(#clip760)" d="M513.855 1351.56 L518.74 1351.56 L518.74 1357.44 L513.855 1357.44 L513.855 1351.56 Z" fill="#000000" fill-rule="nonzero" fill-opacity="1" /><path clip-path="url(#clip760)" d="M538.925 1325.96 Q535.314 1325.96 533.485 1329.53 Q531.679 1333.07 531.679 1340.2 Q531.679 1347.3 533.485 1350.87 Q535.314 1354.41 538.925 1354.41 Q542.559 1354.41 544.365 1350.87 Q546.193 1347.3 546.193 1340.2 Q546.193 1333.07 544.365 1329.53 Q542.559 1325.96 538.925 1325.96 M538.925 1322.26 Q544.735 1322.26 547.79 1326.87 Q550.869 1331.45 550.869 1340.2 Q550.869 1348.93 547.79 1353.53 Q544.735 1358.12 538.925 1358.12 Q533.115 1358.12 530.036 1353.53 Q526.98 1348.93 526.98 1340.2 Q526.98 1331.45 530.036 1326.87 Q533.115 1322.26 538.925 1322.26 Z" fill="#000000" fill-rule="nonzero" fill-opacity="1" /><path clip-path="url(#clip760)" d="M822.941 1340.62 L852.617 1340.62 L852.617 1344.55 L822.941 1344.55 L822.941 1340.62 Z" fill="#000000" fill-rule="nonzero" fill-opacity="1" /><path clip-path="url(#clip760)" d="M872.71 1325.96 Q869.099 1325.96 867.27 1329.53 Q865.464 1333.07 865.464 1340.2 Q865.464 1347.3 867.27 1350.87 Q869.099 1354.41 872.71 1354.41 Q876.344 1354.41 878.149 1350.87 Q879.978 1347.3 879.978 1340.2 Q879.978 1333.07 878.149 1329.53 Q876.344 1325.96 872.71 1325.96 M872.71 1322.26 Q878.52 1322.26 881.575 1326.87 Q884.654 1331.45 884.654 1340.2 Q884.654 1348.93 881.575 1353.53 Q878.52 1358.12 872.71 1358.12 Q866.899 1358.12 863.821 1353.53 Q860.765 1348.93 860.765 1340.2 Q860.765 1331.45 863.821 1326.87 Q866.899 1322.26 872.71 1322.26 Z" fill="#000000" fill-rule="nonzero" fill-opacity="1" /><path clip-path="url(#clip760)" d="M892.872 1351.56 L897.756 1351.56 L897.756 1357.44 L892.872 1357.44 L892.872 1351.56 Z" fill="#000000" fill-rule="nonzero" fill-opacity="1" /><path clip-path="url(#clip760)" d="M907.987 1322.88 L926.344 1322.88 L926.344 1326.82 L912.27 1326.82 L912.27 1335.29 Q913.288 1334.94 914.307 1334.78 Q915.325 1334.6 916.344 1334.6 Q922.131 1334.6 925.51 1337.77 Q928.89 1340.94 928.89 1346.36 Q928.89 1351.93 925.418 1355.04 Q921.945 1358.12 915.626 1358.12 Q913.45 1358.12 911.182 1357.74 Q908.936 1357.37 906.529 1356.63 L906.529 1351.93 Q908.612 1353.07 910.834 1353.62 Q913.057 1354.18 915.533 1354.18 Q919.538 1354.18 921.876 1352.07 Q924.214 1349.97 924.214 1346.36 Q924.214 1342.74 921.876 1340.64 Q919.538 1338.53 915.533 1338.53 Q913.658 1338.53 911.783 1338.95 Q909.932 1339.37 907.987 1340.24 L907.987 1322.88 Z" fill="#000000" fill-rule="nonzero" fill-opacity="1" /><path clip-path="url(#clip760)" d="M1610.83 1325.96 Q1607.22 1325.96 1605.39 1329.53 Q1603.59 1333.07 1603.59 1340.2 Q1603.59 1347.3 1605.39 1350.87 Q1607.22 1354.41 1610.83 1354.41 Q1614.47 1354.41 1616.27 1350.87 Q1618.1 1347.3 1618.1 1340.2 Q1618.1 1333.07 1616.27 1329.53 Q1614.47 1325.96 1610.83 1325.96 M1610.83 1322.26 Q1616.64 1322.26 1619.7 1326.87 Q1622.78 1331.45 1622.78 1340.2 Q1622.78 1348.93 1619.7 1353.53 Q1616.64 1358.12 1610.83 1358.12 Q1605.02 1358.12 1601.95 1353.53 Q1598.89 1348.93 1598.89 1340.2 Q1598.89 1331.45 1601.95 1326.87 Q1605.02 1322.26 1610.83 1322.26 Z" fill="#000000" fill-rule="nonzero" fill-opacity="1" /><path clip-path="url(#clip760)" d="M1631 1351.56 L1635.88 1351.56 L1635.88 1357.44 L1631 1357.44 L1631 1351.56 Z" fill="#000000" fill-rule="nonzero" fill-opacity="1" /><path clip-path="url(#clip760)" d="M1646.11 1322.88 L1664.47 1322.88 L1664.47 1326.82 L1650.39 1326.82 L1650.39 1335.29 Q1651.41 1334.94 1652.43 1334.78 Q1653.45 1334.6 1654.47 1334.6 Q1660.26 1334.6 1663.64 1337.77 Q1667.01 1340.94 1667.01 1346.36 Q1667.01 1351.93 1663.54 1355.04 Q1660.07 1358.12 1653.75 1358.12 Q1651.58 1358.12 1649.31 1357.74 Q1647.06 1357.37 1644.65 1356.63 L1644.65 1351.93 Q1646.74 1353.07 1648.96 1353.62 Q1651.18 1354.18 1653.66 1354.18 Q1657.66 1354.18 1660 1352.07 Q1662.34 1349.97 1662.34 1346.36 Q1662.34 1342.74 1660 1340.64 Q1657.66 1338.53 1653.66 1338.53 Q1651.78 1338.53 1649.91 1338.95 Q1648.06 1339.37 1646.11 1340.24 L1646.11 1322.88 Z" fill="#000000" fill-rule="nonzero" fill-opacity="1" /><path clip-path="url(#clip760)" d="M1978.62 1353.51 L1986.26 1353.51 L1986.26 1327.14 L1977.95 1328.81 L1977.95 1324.55 L1986.22 1322.88 L1990.89 1322.88 L1990.89 1353.51 L1998.53 1353.51 L1998.53 1357.44 L1978.62 1357.44 L1978.62 1353.51 Z" fill="#000000" fill-rule="nonzero" fill-opacity="1" /><path clip-path="url(#clip760)" d="M2007.98 1351.56 L2012.86 1351.56 L2012.86 1357.44 L2007.98 1357.44 L2007.98 1351.56 Z" fill="#000000" fill-rule="nonzero" fill-opacity="1" /><path clip-path="url(#clip760)" d="M2033.04 1325.96 Q2029.43 1325.96 2027.6 1329.53 Q2025.8 1333.07 2025.8 1340.2 Q2025.8 1347.3 2027.6 1350.87 Q2029.43 1354.41 2033.04 1354.41 Q2036.68 1354.41 2038.48 1350.87 Q2040.31 1347.3 2040.31 1340.2 Q2040.31 1333.07 2038.48 1329.53 Q2036.68 1325.96 2033.04 1325.96 M2033.04 1322.26 Q2038.85 1322.26 2041.91 1326.87 Q2044.99 1331.45 2044.99 1340.2 Q2044.99 1348.93 2041.91 1353.53 Q2038.85 1358.12 2033.04 1358.12 Q2027.23 1358.12 2024.16 1353.53 Q2021.1 1348.93 2021.1 1340.2 Q2021.1 1331.45 2024.16 1326.87 Q2027.23 1322.26 2033.04 1322.26 Z" fill="#000000" fill-rule="nonzero" fill-opacity="1" /><polyline clip-path="url(#clip760)" style="stroke:#000000; stroke-linecap:round; stroke-linejoin:round; stroke-width:4; stroke-opacity:1; fill:none" points="1254.43,1486.45 1254.43,47.2441 "/>
<polyline clip-path="url(#clip760)" style="stroke:#000000; stroke-linecap:round; stroke-linejoin:round; stroke-width:4; stroke-opacity:1; fill:none" points="1235.54,916.525 1273.33,916.525 "/>
<polyline clip-path="url(#clip760)" style="stroke:#000000; stroke-linecap:round; stroke-linejoin:round; stroke-width:4; stroke-opacity:1; fill:none" points="1235.54,538.007 1273.33,538.007 "/>
<polyline clip-path="url(#clip760)" style="stroke:#000000; stroke-linecap:round; stroke-linejoin:round; stroke-width:4; stroke-opacity:1; fill:none" points="1235.54,159.489 1273.33,159.489 "/>
<path clip-path="url(#clip760)" d="M1162.25 902.324 Q1158.64 902.324 1156.81 905.889 Q1155.01 909.431 1155.01 916.56 Q1155.01 923.667 1156.81 927.231 Q1158.64 930.773 1162.25 930.773 Q1165.89 930.773 1167.69 927.231 Q1169.52 923.667 1169.52 916.56 Q1169.52 909.431 1167.69 905.889 Q1165.89 902.324 1162.25 902.324 M1162.25 898.62 Q1168.06 898.62 1171.12 903.227 Q1174.2 907.81 1174.2 916.56 Q1174.2 925.287 1171.12 929.893 Q1168.06 934.477 1162.25 934.477 Q1156.44 934.477 1153.36 929.893 Q1150.31 925.287 1150.31 916.56 Q1150.31 907.81 1153.36 903.227 Q1156.44 898.62 1162.25 898.62 Z" fill="#000000" fill-rule="nonzero" fill-opacity="1" /><path clip-path="url(#clip760)" d="M1182.42 927.926 L1187.3 927.926 L1187.3 933.805 L1182.42 933.805 L1182.42 927.926 Z" fill="#000000" fill-rule="nonzero" fill-opacity="1" /><path clip-path="url(#clip760)" d="M1197.53 899.245 L1215.89 899.245 L1215.89 903.181 L1201.81 903.181 L1201.81 911.653 Q1202.83 911.306 1203.85 911.144 Q1204.87 910.958 1205.89 910.958 Q1211.67 910.958 1215.05 914.13 Q1218.43 917.301 1218.43 922.718 Q1218.43 928.296 1214.96 931.398 Q1211.49 934.477 1205.17 934.477 Q1202.99 934.477 1200.73 934.106 Q1198.48 933.736 1196.07 932.995 L1196.07 928.296 Q1198.16 929.43 1200.38 929.986 Q1202.6 930.542 1205.08 930.542 Q1209.08 930.542 1211.42 928.435 Q1213.76 926.329 1213.76 922.718 Q1213.76 919.106 1211.42 917 Q1209.08 914.893 1205.08 914.893 Q1203.2 914.893 1201.33 915.31 Q1199.48 915.727 1197.53 916.606 L1197.53 899.245 Z" fill="#000000" fill-rule="nonzero" fill-opacity="1" /><path clip-path="url(#clip760)" d="M1152.07 551.352 L1159.71 551.352 L1159.71 524.986 L1151.4 526.653 L1151.4 522.394 L1159.66 520.727 L1164.34 520.727 L1164.34 551.352 L1171.98 551.352 L1171.98 555.287 L1152.07 555.287 L1152.07 551.352 Z" fill="#000000" fill-rule="nonzero" fill-opacity="1" /><path clip-path="url(#clip760)" d="M1181.42 549.407 L1186.3 549.407 L1186.3 555.287 L1181.42 555.287 L1181.42 549.407 Z" fill="#000000" fill-rule="nonzero" fill-opacity="1" /><path clip-path="url(#clip760)" d="M1206.49 523.806 Q1202.88 523.806 1201.05 527.371 Q1199.24 530.912 1199.24 538.042 Q1199.24 545.148 1201.05 548.713 Q1202.88 552.255 1206.49 552.255 Q1210.12 552.255 1211.93 548.713 Q1213.76 545.148 1213.76 538.042 Q1213.76 530.912 1211.93 527.371 Q1210.12 523.806 1206.49 523.806 M1206.49 520.102 Q1212.3 520.102 1215.36 524.708 Q1218.43 529.292 1218.43 538.042 Q1218.43 546.769 1215.36 551.375 Q1212.3 555.958 1206.49 555.958 Q1200.68 555.958 1197.6 551.375 Q1194.55 546.769 1194.55 538.042 Q1194.55 529.292 1197.6 524.708 Q1200.68 520.102 1206.49 520.102 Z" fill="#000000" fill-rule="nonzero" fill-opacity="1" /><path clip-path="url(#clip760)" d="M1153.06 172.833 L1160.7 172.833 L1160.7 146.468 L1152.39 148.135 L1152.39 143.875 L1160.66 142.209 L1165.33 142.209 L1165.33 172.833 L1172.97 172.833 L1172.97 176.769 L1153.06 176.769 L1153.06 172.833 Z" fill="#000000" fill-rule="nonzero" fill-opacity="1" /><path clip-path="url(#clip760)" d="M1182.42 170.889 L1187.3 170.889 L1187.3 176.769 L1182.42 176.769 L1182.42 170.889 Z" fill="#000000" fill-rule="nonzero" fill-opacity="1" /><path clip-path="url(#clip760)" d="M1197.53 142.209 L1215.89 142.209 L1215.89 146.144 L1201.81 146.144 L1201.81 154.616 Q1202.83 154.269 1203.85 154.107 Q1204.87 153.922 1205.89 153.922 Q1211.67 153.922 1215.05 157.093 Q1218.43 160.264 1218.43 165.681 Q1218.43 171.259 1214.96 174.361 Q1211.49 177.44 1205.17 177.44 Q1202.99 177.44 1200.73 177.07 Q1198.48 176.699 1196.07 175.958 L1196.07 171.259 Q1198.16 172.394 1200.38 172.949 Q1202.6 173.505 1205.08 173.505 Q1209.08 173.505 1211.42 171.398 Q1213.76 169.292 1213.76 165.681 Q1213.76 162.07 1211.42 159.963 Q1209.08 157.857 1205.08 157.857 Q1203.2 157.857 1201.33 158.273 Q1199.48 158.69 1197.53 159.57 L1197.53 142.209 Z" fill="#000000" fill-rule="nonzero" fill-opacity="1" /><polyline clip-path="url(#clip762)" style="stroke:#009af9; stroke-linecap:round; stroke-linejoin:round; stroke-width:4; stroke-opacity:1; fill:none" points="2007.71,1219.72 2008.26,1218.24 2008.82,1216.73 2009.41,1215.2 2010.02,1213.64 2010.66,1212.06 2011.32,1210.46 2012,1208.82 2012.71,1207.17 2013.45,1205.48 2014.22,1203.77 2015.02,1202.04 2015.85,1200.27 2016.71,1198.49 2017.6,1196.67 2018.53,1194.84 2019.49,1192.97 2020.49,1191.08 2021.52,1189.17 2022.6,1187.23 2023.71,1185.27 2024.86,1183.29 2026.06,1181.28 2027.29,1179.24 2028.58,1177.19 2029.91,1175.11 2031.28,1173.02 2032.71,1170.9 2034.18,1168.76 2035.7,1166.61 2037.28,1164.43 2038.91,1162.24 2040.6,1160.04 2042.34,1157.82 2044.14,1155.58 2045.99,1153.34 2047.91,1151.08 2049.89,1148.81 2051.93,1146.54 2054.04,1144.26 2056.21,1141.98 2058.44,1139.69 2060.74,1137.4 2063.11,1135.12 2065.55,1132.84 2068.06,1130.56 2070.64,1128.3 2073.29,1126.04 2076.01,1123.79 2078.8,1121.56 2081.67,1119.35 2084.6,1117.16 2087.61,1114.99 2090.7,1112.85 2093.85,1110.73 2097.08,1108.65 2100.39,1106.6 2103.76,1104.59 2107.2,1102.62 2110.72,1100.69 2114.3,1098.81 2117.96,1096.98 2121.68,1095.2 2125.47,1093.47 2129.32,1091.8 2133.23,1090.2 2137.2,1088.65 2141.24,1087.18 2145.33,1085.77 2149.47,1084.44 2153.66,1083.18 2157.91,1081.99 2162.2,1080.89 2166.53,1079.87 2170.9,1078.93 2175.31,1078.07 2179.75,1077.31 2184.22,1076.63 2188.71,1076.04 2193.23,1075.55 2197.77,1075.14 2202.32,1074.83 2206.88,1074.62 2211.45,1074.5 2216.03,1074.47 2220.6,1074.54 2225.17,1074.7 2229.72,1074.96 2234.27,1075.31 2238.8,1075.75 2243.31,1076.29 2247.79,1076.92 2252.25,1077.63 2256.68,1078.44 2261.07,1079.33 2265.43,1080.3 2269.74,1081.36 2274.01,1082.5 2278.23,1083.72 2282.4,1085.01 2286.52,1086.38 2290.59,1087.81 2288.64,1078.31 2286.51,1068.38 2284.18,1058.03 2281.63,1047.22 2278.85,1035.96 2275.81,1024.21 2272.49,1011.98 2268.86,999.233 2264.89,985.965 2260.57,972.16 2255.85,957.805 2250.7,942.886 2245.09,927.394 2238.97,911.317 2232.31,894.648 2225.06,877.381 2217.17,859.512 2208.6,841.04 2199.29,821.968 2189.19,802.302 2178.23,782.053 2166.36,761.236 2153.51,739.871 2139.62,717.985 2124.63,695.611 2108.46,672.79 2091.05,649.571 2072.33,626.008 2052.23,602.168 2030.7,578.126 2007.67,553.965 1983.08,529.779 1956.89,505.673 1929.06,481.76 1899.56,458.163 1868.36,435.012 1835.45,412.449 1800.85,390.617 1764.57,369.668 1726.65,349.755 1687.14,331.032 1646.13,313.652 1603.7,297.764 1559.97,283.509 1515.07,271.019 1469.14,260.414 1422.35,251.798 1374.87,245.257 1326.9,240.859 1278.62,238.648 1230.25,238.648 1181.97,240.859 1133.99,245.257 1086.52,251.798 1039.73,260.414 993.799,271.019 948.895,283.509 905.164,297.764 862.736,313.652 821.724,331.032 782.22,349.755 744.3,369.668 708.019,390.617 673.415,412.449 640.51,435.012 609.309,458.163 579.804,481.76 551.974,505.673 525.787,529.779 501.202,553.965 478.17,578.126 456.637,602.168 436.542,626.008 417.821,649.571 400.41,672.79 384.24,695.611 369.245,717.985 355.357,739.871 342.51,761.236 330.639,782.053 319.681,802.302 309.576,821.968 300.266,841.04 291.694,859.512 283.808,877.381 276.559,894.648 269.898,911.317 263.783,927.394 258.17,942.886 253.022,957.805 248.301,972.16 243.975,985.965 240.012,999.233 236.382,1011.98 233.058,1024.21 230.017,1035.96 227.233,1047.22 224.687,1058.03 222.358,1068.38 220.228,1078.31 218.281,1087.81 222.346,1086.38 226.466,1085.01 230.638,1083.72 234.86,1082.5 239.129,1081.36 243.443,1080.3 247.797,1079.33 252.189,1078.44 256.616,1077.63 261.074,1076.92 265.559,1076.29 270.069,1075.75 274.598,1075.31 279.144,1074.96 283.702,1074.7 288.27,1074.54 292.842,1074.47 297.414,1074.5 301.984,1074.62 306.547,1074.83 311.099,1075.14 315.636,1075.55 320.154,1076.04 324.651,1076.63 329.121,1077.31 333.562,1078.07 337.969,1078.93 342.341,1079.87 346.672,1080.89 350.961,1081.99 355.204,1083.18 359.398,1084.44 363.541,1085.77 367.631,1087.18 371.663,1088.65 375.638,1090.2 379.551,1091.8 383.402,1093.47 387.189,1095.2 390.91,1096.98 394.563,1098.81 398.148,1100.69 401.664,1102.62 405.109,1104.59 408.482,1106.6 411.784,1108.65 415.013,1110.73 418.17,1112.85 421.254,1114.99 424.264,1117.16 427.202,1119.35 430.067,1121.56 432.86,1123.79 435.581,1126.04 438.23,1128.3 440.808,1130.56 443.316,1132.84 445.754,1135.12 448.124,1137.4 450.426,1139.69 452.661,1141.98 454.831,1144.26 456.935,1146.54 458.977,1148.81 460.956,1151.08 462.873,1153.34 464.731,1155.58 466.53,1157.82 468.272,1160.04 469.957,1162.24 471.587,1164.43 473.164,1166.61 474.689,1168.76 476.163,1170.9 477.587,1173.02 478.962,1175.11 480.291,1177.19 481.574,1179.24 482.812,1181.28 484.007,1183.29 485.16,1185.27 486.273,1187.23 487.346,1189.17 488.38,1191.08 489.378,1192.97 490.339,1194.84 491.266,1196.67 492.159,1198.49 493.019,1200.27 493.847,1202.04 494.645,1203.77 495.414,1205.48 496.154,1207.17 496.866,1208.82 497.552,1210.46 498.211,1212.06 498.846,1213.64 499.457,1215.2 500.045,1216.73 500.61,1218.24 501.154,1219.72 501.982,1218.38 502.84,1217.02 503.728,1215.65 504.647,1214.27 505.599,1212.87 506.583,1211.47 507.602,1210.05 508.655,1208.61 509.744,1207.17 510.869,1205.72 512.032,1204.26 513.233,1202.79 514.472,1201.31 515.752,1199.83 517.072,1198.34 518.433,1196.85 519.837,1195.35 521.283,1193.86 522.772,1192.36 524.306,1190.86 525.885,1189.36 527.509,1187.87 529.179,1186.38 530.895,1184.89 532.657,1183.42 534.467,1181.95 536.325,1180.5 538.229,1179.05 540.182,1177.62 542.182,1176.21 544.231,1174.82 546.327,1173.44 548.47,1172.09 550.661,1170.76 552.899,1169.45 555.184,1168.18 557.514,1166.93 559.889,1165.71 562.309,1164.53 564.773,1163.38 567.279,1162.27 569.827,1161.2 572.415,1160.17 575.042,1159.18 577.707,1158.24 580.408,1157.34 583.143,1156.49 585.911,1155.7 588.71,1154.95 591.538,1154.25 594.393,1153.61 597.272,1153.03 600.174,1152.5 603.097,1152.03 606.038,1151.62 608.994,1151.27 611.964,1150.98 614.944,1150.74 617.933,1150.58 620.927,1150.47 623.925,1150.42 626.923,1150.44 629.919,1150.52 632.911,1150.66 635.896,1150.86 638.871,1151.13 641.833,1151.45 644.781,1151.83 647.713,1152.28 650.624,1152.78 653.515,1153.34 656.381,1153.95 659.221,1154.62 662.034,1155.35 664.816,1156.12 667.566,1156.95 670.283,1157.82 672.965,1158.74 675.609,1159.71 678.215,1160.72 680.782,1161.78 683.307,1162.87 685.79,1164 688.23,1165.17 690.626,1166.37 692.977,1167.6 695.283,1168.86 697.542,1170.16 699.754,1171.48 701.92,1172.82 704.038,1174.18 706.108,1175.57 708.13,1176.98 710.105,1178.4 712.031,1179.83 713.91,1181.28 715.742,1182.75 717.526,1184.22 719.263,1185.7 720.954,1187.18 722.599,1188.68 723.598,1183.8 724.692,1178.7 725.887,1173.39 727.194,1167.84 728.623,1162.06 730.184,1156.03 731.89,1149.75 733.753,1143.21 735.787,1136.4 738.008,1129.31 740.431,1121.95 743.073,1114.29 745.954,1106.34 749.093,1098.09 752.512,1089.53 756.233,1080.67 760.28,1071.49 764.68,1062.01 769.459,1052.22 774.645,1042.13 780.27,1031.74 786.363,1021.05 792.957,1010.09 800.085,998.852 807.782,987.368 816.082,975.655 825.019,963.736 834.627,951.642 844.942,939.406 855.995,927.065 867.816,914.664 880.435,902.25 893.876,889.877 908.161,877.603 923.305,865.491 939.32,853.608 956.209,842.027 973.971,830.821 992.593,820.068 1012.06,809.847 1032.33,800.237 1053.38,791.316 1075.16,783.161 1097.61,775.845 1120.66,769.434 1144.23,763.991 1168.25,759.568 1192.62,756.211 1217.24,753.953 1242.02,752.819 1266.85,752.819 1291.63,753.953 1316.25,756.211 1340.62,759.568 1364.64,763.991 1388.21,769.434 1411.26,775.845 1433.71,783.161 1455.48,791.316 1476.53,800.237 1496.81,809.847 1516.27,820.068 1534.9,830.821 1552.66,842.027 1569.55,853.608 1585.56,865.491 1600.71,877.603 1614.99,889.877 1628.43,902.25 1641.05,914.664 1652.87,927.065 1663.93,939.406 1674.24,951.642 1683.85,963.736 1692.79,975.655 1701.09,987.368 1708.78,998.852 1715.91,1010.09 1722.51,1021.05 1728.6,1031.74 1734.22,1042.13 1739.41,1052.22 1744.19,1062.01 1748.59,1071.49 1752.64,1080.67 1756.36,1089.53 1759.78,1098.09 1762.91,1106.34 1765.79,1114.29 1768.44,1121.95 1770.86,1129.31 1773.08,1136.4 1775.12,1143.21 1776.98,1149.75 1778.68,1156.03 1780.25,1162.06 1781.67,1167.84 1782.98,1173.39 1784.18,1178.7 1785.27,1183.8 1786.27,1188.68 1787.91,1187.18 1789.6,1185.7 1791.34,1184.22 1793.13,1182.75 1794.96,1181.28 1796.84,1179.83 1798.76,1178.4 1800.74,1176.98 1802.76,1175.57 1804.83,1174.18 1806.95,1172.82 1809.11,1171.48 1811.33,1170.16 1813.59,1168.86 1815.89,1167.6 1818.24,1166.37 1820.64,1165.17 1823.08,1164 1825.56,1162.87 1828.09,1161.78 1830.65,1160.72 1833.26,1159.71 1835.9,1158.74 1838.58,1157.82 1841.3,1156.95 1844.05,1156.12 1846.83,1155.35 1849.65,1154.62 1852.49,1153.95 1855.35,1153.34 1858.24,1152.78 1861.16,1152.28 1864.09,1151.83 1867.03,1151.45 1870,1151.13 1872.97,1150.86 1875.96,1150.66 1878.95,1150.52 1881.94,1150.44 1884.94,1150.42 1887.94,1150.47 1890.94,1150.58 1893.92,1150.74 1896.9,1150.98 1899.87,1151.27 1902.83,1151.62 1905.77,1152.03 1908.69,1152.5 1911.6,1153.03 1914.48,1153.61 1917.33,1154.25 1920.16,1154.95 1922.96,1155.7 1925.72,1156.49 1928.46,1157.34 1931.16,1158.24 1933.83,1159.18 1936.45,1160.17 1939.04,1161.2 1941.59,1162.27 1944.09,1163.38 1946.56,1164.53 1948.98,1165.71 1951.35,1166.93 1953.68,1168.18 1955.97,1169.45 1958.21,1170.76 1960.4,1172.09 1962.54,1173.44 1964.64,1174.82 1966.69,1176.21 1968.69,1177.62 1970.64,1179.05 1972.54,1180.5 1974.4,1181.95 1976.21,1183.42 1977.97,1184.89 1979.69,1186.38 1981.36,1187.87 1982.98,1189.36 1984.56,1190.86 1986.1,1192.36 1987.59,1193.86 1989.03,1195.35 1990.43,1196.85 1991.8,1198.34 1993.12,1199.83 1994.4,1201.31 1995.64,1202.79 1996.84,1204.26 1998,1205.72 1999.12,1207.17 2000.21,1208.61 2001.27,1210.05 2002.28,1211.47 2003.27,1212.87 2004.22,1214.27 2005.14,1215.65 2006.03,1217.02 2006.89,1218.38 2007.71,1219.72 "/>
<circle clip-path="url(#clip762)" cx="2007.71" cy="1219.72" r="14.4" fill="#e26f46" fill-rule="evenodd" fill-opacity="1" stroke="#000000" stroke-opacity="1" stroke-width="3.2"/>
<circle clip-path="url(#clip762)" cx="2290.59" cy="1087.81" r="14.4" fill="#e26f46" fill-rule="evenodd" fill-opacity="1" stroke="#000000" stroke-opacity="1" stroke-width="3.2"/>
<circle clip-path="url(#clip762)" cx="218.281" cy="1087.81" r="14.4" fill="#e26f46" fill-rule="evenodd" fill-opacity="1" stroke="#000000" stroke-opacity="1" stroke-width="3.2"/>
<circle clip-path="url(#clip762)" cx="501.154" cy="1219.72" r="14.4" fill="#e26f46" fill-rule="evenodd" fill-opacity="1" stroke="#000000" stroke-opacity="1" stroke-width="3.2"/>
<circle clip-path="url(#clip762)" cx="722.599" cy="1188.68" r="14.4" fill="#e26f46" fill-rule="evenodd" fill-opacity="1" stroke="#000000" stroke-opacity="1" stroke-width="3.2"/>
<circle clip-path="url(#clip762)" cx="1786.27" cy="1188.68" r="14.4" fill="#e26f46" fill-rule="evenodd" fill-opacity="1" stroke="#000000" stroke-opacity="1" stroke-width="3.2"/>
<circle clip-path="url(#clip762)" cx="2007.71" cy="1219.72" r="14.4" fill="#e26f46" fill-rule="evenodd" fill-opacity="1" stroke="#000000" stroke-opacity="1" stroke-width="3.2"/>
<path clip-path="url(#clip760)" d="M2007.44 250.738 L2279.53 250.738 L2279.53 95.2176 L2007.44 95.2176  Z" fill="#ffffff" fill-rule="evenodd" fill-opacity="1"/>
<polyline clip-path="url(#clip760)" style="stroke:#000000; stroke-linecap:round; stroke-linejoin:round; stroke-width:4; stroke-opacity:1; fill:none" points="2007.44,250.738 2279.53,250.738 2279.53,95.2176 2007.44,95.2176 2007.44,250.738 "/>
<polyline clip-path="url(#clip760)" style="stroke:#009af9; stroke-linecap:round; stroke-linejoin:round; stroke-width:4; stroke-opacity:1; fill:none" points="2031.85,147.058 2178.29,147.058 "/>
<path clip-path="url(#clip760)" d="M2216.54 166.745 Q2214.73 171.375 2213.02 172.787 Q2211.31 174.199 2208.44 174.199 L2205.03 174.199 L2205.03 170.634 L2207.53 170.634 Q2209.29 170.634 2210.27 169.8 Q2211.24 168.967 2212.42 165.865 L2213.18 163.921 L2202.7 138.412 L2207.21 138.412 L2215.31 158.689 L2223.41 138.412 L2227.93 138.412 L2216.54 166.745 Z" fill="#000000" fill-rule="nonzero" fill-opacity="1" /><path clip-path="url(#clip760)" d="M2235.22 160.402 L2242.86 160.402 L2242.86 134.037 L2234.55 135.703 L2234.55 131.444 L2242.81 129.778 L2247.49 129.778 L2247.49 160.402 L2255.13 160.402 L2255.13 164.338 L2235.22 164.338 L2235.22 160.402 Z" fill="#000000" fill-rule="nonzero" fill-opacity="1" /><circle clip-path="url(#clip760)" cx="2105.07" cy="198.898" r="20.48" fill="#e26f46" fill-rule="evenodd" fill-opacity="1" stroke="#000000" stroke-opacity="1" stroke-width="4.55111"/>
<path clip-path="url(#clip760)" d="M2216.54 218.585 Q2214.73 223.215 2213.02 224.627 Q2211.31 226.039 2208.44 226.039 L2205.03 226.039 L2205.03 222.474 L2207.53 222.474 Q2209.29 222.474 2210.27 221.64 Q2211.24 220.807 2212.42 217.705 L2213.18 215.761 L2202.7 190.252 L2207.21 190.252 L2215.31 210.529 L2223.41 190.252 L2227.93 190.252 L2216.54 218.585 Z" fill="#000000" fill-rule="nonzero" fill-opacity="1" /><path clip-path="url(#clip760)" d="M2238.44 212.242 L2254.76 212.242 L2254.76 216.178 L2232.81 216.178 L2232.81 212.242 Q2235.47 209.488 2240.06 204.858 Q2244.66 200.205 2245.84 198.863 Q2248.09 196.34 2248.97 194.604 Q2249.87 192.844 2249.87 191.155 Q2249.87 188.4 2247.93 186.664 Q2246.01 184.928 2242.91 184.928 Q2240.71 184.928 2238.25 185.692 Q2235.82 186.455 2233.04 188.006 L2233.04 183.284 Q2235.87 182.15 2238.32 181.571 Q2240.78 180.993 2242.81 180.993 Q2248.18 180.993 2251.38 183.678 Q2254.57 186.363 2254.57 190.854 Q2254.57 192.983 2253.76 194.905 Q2252.97 196.803 2250.87 199.395 Q2250.29 200.067 2247.19 203.284 Q2244.09 206.479 2238.44 212.242 Z" fill="#000000" fill-rule="nonzero" fill-opacity="1" /></svg>
