<?xml version="1.0" encoding="UTF-8"?>
<svg xmlns="http://www.w3.org/2000/svg" xmlns:xlink="http://www.w3.org/1999/xlink" width="707.411" height="665.731" viewBox="0 0 707.411 665.731">
<defs>
<clipPath id="clip-0">
<path clip-rule="nonzero" d="M 144 2 L 563 2 L 563 243 L 144 243 Z M 144 2 "/>
</clipPath>
<clipPath id="clip-1">
<path clip-rule="nonzero" d="M -228.914062 516.527344 L -228.914062 210.929688 L 353.410156 -123.078125 L 935.738281 210.929688 L 935.738281 516.527344 L 353.410156 850.535156 Z M -228.914062 516.527344 "/>
</clipPath>
<clipPath id="clip-2">
<path clip-rule="nonzero" d="M 238 0.140625 L 469 0.140625 L 469 166 L 238 166 Z M 238 0.140625 "/>
</clipPath>
<clipPath id="clip-3">
<path clip-rule="nonzero" d="M -228.914062 516.527344 L -228.914062 210.929688 L 353.410156 -123.078125 L 935.738281 210.929688 L 935.738281 516.527344 L 353.410156 850.535156 Z M -228.914062 516.527344 "/>
</clipPath>
<clipPath id="clip-4">
<path clip-rule="nonzero" d="M 194 0.140625 L 513 0.140625 L 513 198 L 194 198 Z M 194 0.140625 "/>
</clipPath>
<clipPath id="clip-5">
<path clip-rule="nonzero" d="M -228.914062 516.527344 L -228.914062 210.929688 L 353.410156 -123.078125 L 935.738281 210.929688 L 935.738281 516.527344 L 353.410156 850.535156 Z M -228.914062 516.527344 "/>
</clipPath>
<clipPath id="clip-6">
<path clip-rule="nonzero" d="M 152 0.140625 L 555 0.140625 L 555 233 L 152 233 Z M 152 0.140625 "/>
</clipPath>
<clipPath id="clip-7">
<path clip-rule="nonzero" d="M -228.914062 516.527344 L -228.914062 210.929688 L 353.410156 -123.078125 L 935.738281 210.929688 L 935.738281 516.527344 L 353.410156 850.535156 Z M -228.914062 516.527344 "/>
</clipPath>
<clipPath id="clip-8">
<path clip-rule="nonzero" d="M 111 0.140625 L 596 0.140625 L 596 272 L 111 272 Z M 111 0.140625 "/>
</clipPath>
<clipPath id="clip-9">
<path clip-rule="nonzero" d="M -228.914062 516.527344 L -228.914062 210.929688 L 353.410156 -123.078125 L 935.738281 210.929688 L 935.738281 516.527344 L 353.410156 850.535156 Z M -228.914062 516.527344 "/>
</clipPath>
<clipPath id="clip-10">
<path clip-rule="nonzero" d="M 135 0.140625 L 424 0.140625 L 424 278 L 135 278 Z M 135 0.140625 "/>
</clipPath>
<clipPath id="clip-11">
<path clip-rule="nonzero" d="M -228.914062 516.527344 L -228.914062 210.929688 L 353.410156 -123.078125 L 935.738281 210.929688 L 935.738281 516.527344 L 353.410156 850.535156 Z M -228.914062 516.527344 "/>
</clipPath>
<clipPath id="clip-12">
<path clip-rule="nonzero" d="M 350 64 L 356 64 L 356 245 L 350 245 Z M 350 64 "/>
</clipPath>
<clipPath id="clip-13">
<path clip-rule="nonzero" d="M -228.914062 516.527344 L -228.914062 210.929688 L 353.410156 -123.078125 L 935.738281 210.929688 L 935.738281 516.527344 L 353.410156 850.535156 Z M -228.914062 516.527344 "/>
</clipPath>
<clipPath id="clip-14">
<path clip-rule="nonzero" d="M 282 0.140625 L 572 0.140625 L 572 278 L 282 278 Z M 282 0.140625 "/>
</clipPath>
<clipPath id="clip-15">
<path clip-rule="nonzero" d="M -228.914062 516.527344 L -228.914062 210.929688 L 353.410156 -123.078125 L 935.738281 210.929688 L 935.738281 516.527344 L 353.410156 850.535156 Z M -228.914062 516.527344 "/>
</clipPath>
<clipPath id="clip-16">
<path clip-rule="nonzero" d="M 282 0.140625 L 633 0.140625 L 633 193 L 282 193 Z M 282 0.140625 "/>
</clipPath>
<clipPath id="clip-17">
<path clip-rule="nonzero" d="M -228.914062 516.527344 L -228.914062 210.929688 L 353.410156 -123.078125 L 935.738281 210.929688 L 935.738281 516.527344 L 353.410156 850.535156 Z M -228.914062 516.527344 "/>
</clipPath>
<clipPath id="clip-18">
<path clip-rule="nonzero" d="M 282 0.140625 L 572 0.140625 L 572 138 L 282 138 Z M 282 0.140625 "/>
</clipPath>
<clipPath id="clip-19">
<path clip-rule="nonzero" d="M -228.914062 516.527344 L -228.914062 210.929688 L 353.410156 -123.078125 L 935.738281 210.929688 L 935.738281 516.527344 L 353.410156 850.535156 Z M -228.914062 516.527344 "/>
</clipPath>
<clipPath id="clip-20">
<path clip-rule="nonzero" d="M 350 0.140625 L 356 0.140625 L 356 70 L 350 70 Z M 350 0.140625 "/>
</clipPath>
<clipPath id="clip-21">
<path clip-rule="nonzero" d="M -228.914062 516.527344 L -228.914062 210.929688 L 353.410156 -123.078125 L 935.738281 210.929688 L 935.738281 516.527344 L 353.410156 850.535156 Z M -228.914062 516.527344 "/>
</clipPath>
<clipPath id="clip-22">
<path clip-rule="nonzero" d="M 135 0.140625 L 424 0.140625 L 424 138 L 135 138 Z M 135 0.140625 "/>
</clipPath>
<clipPath id="clip-23">
<path clip-rule="nonzero" d="M -228.914062 516.527344 L -228.914062 210.929688 L 353.410156 -123.078125 L 935.738281 210.929688 L 935.738281 516.527344 L 353.410156 850.535156 Z M -228.914062 516.527344 "/>
</clipPath>
<clipPath id="clip-24">
<path clip-rule="nonzero" d="M 74 0.140625 L 424 0.140625 L 424 193 L 74 193 Z M 74 0.140625 "/>
</clipPath>
<clipPath id="clip-25">
<path clip-rule="nonzero" d="M -228.914062 516.527344 L -228.914062 210.929688 L 353.410156 -123.078125 L 935.738281 210.929688 L 935.738281 516.527344 L 353.410156 850.535156 Z M -228.914062 516.527344 "/>
</clipPath>
<clipPath id="clip-26">
<path clip-rule="nonzero" d="M 135 0.140625 L 424 0.140625 L 424 278 L 135 278 Z M 135 0.140625 "/>
</clipPath>
<clipPath id="clip-27">
<path clip-rule="nonzero" d="M -228.914062 516.527344 L -228.914062 210.929688 L 353.410156 -123.078125 L 935.738281 210.929688 L 935.738281 516.527344 L 353.410156 850.535156 Z M -228.914062 516.527344 "/>
</clipPath>
<clipPath id="clip-28">
<path clip-rule="nonzero" d="M 2 283 L 298 283 L 298 665.320312 L 2 665.320312 Z M 2 283 "/>
</clipPath>
<clipPath id="clip-29">
<path clip-rule="nonzero" d="M -228.914062 516.527344 L -228.914062 210.929688 L 353.410156 -123.078125 L 935.738281 210.929688 L 935.738281 516.527344 L 353.410156 850.535156 Z M -228.914062 516.527344 "/>
</clipPath>
<clipPath id="clip-30">
<path clip-rule="nonzero" d="M 2 389 L 207 389 L 207 612 L 2 612 Z M 2 389 "/>
</clipPath>
<clipPath id="clip-31">
<path clip-rule="nonzero" d="M -228.914062 516.527344 L -228.914062 210.929688 L 353.410156 -123.078125 L 935.738281 210.929688 L 935.738281 516.527344 L 353.410156 850.535156 Z M -228.914062 516.527344 "/>
</clipPath>
<clipPath id="clip-32">
<path clip-rule="nonzero" d="M 0 346 L 243 346 L 243 649 L 0 649 Z M 0 346 "/>
</clipPath>
<clipPath id="clip-33">
<path clip-rule="nonzero" d="M -228.914062 516.527344 L -228.914062 210.929688 L 353.410156 -123.078125 L 935.738281 210.929688 L 935.738281 516.527344 L 353.410156 850.535156 Z M -228.914062 516.527344 "/>
</clipPath>
<clipPath id="clip-34">
<path clip-rule="nonzero" d="M 0 301 L 283 301 L 283 665.320312 L 0 665.320312 Z M 0 301 "/>
</clipPath>
<clipPath id="clip-35">
<path clip-rule="nonzero" d="M -228.914062 516.527344 L -228.914062 210.929688 L 353.410156 -123.078125 L 935.738281 210.929688 L 935.738281 516.527344 L 353.410156 850.535156 Z M -228.914062 516.527344 "/>
</clipPath>
<clipPath id="clip-36">
<path clip-rule="nonzero" d="M 0 257 L 325 257 L 325 665.320312 L 0 665.320312 Z M 0 257 "/>
</clipPath>
<clipPath id="clip-37">
<path clip-rule="nonzero" d="M -228.914062 516.527344 L -228.914062 210.929688 L 353.410156 -123.078125 L 935.738281 210.929688 L 935.738281 516.527344 L 353.410156 850.535156 Z M -228.914062 516.527344 "/>
</clipPath>
<clipPath id="clip-38">
<path clip-rule="nonzero" d="M 31 232 L 221 232 L 221 573 L 31 573 Z M 31 232 "/>
</clipPath>
<clipPath id="clip-39">
<path clip-rule="nonzero" d="M -228.914062 516.527344 L -228.914062 210.929688 L 353.410156 -123.078125 L 935.738281 210.929688 L 935.738281 516.527344 L 353.410156 850.535156 Z M -228.914062 516.527344 "/>
</clipPath>
<clipPath id="clip-40">
<path clip-rule="nonzero" d="M 31 342 L 326 342 L 326 573 L 31 573 Z M 31 342 "/>
</clipPath>
<clipPath id="clip-41">
<path clip-rule="nonzero" d="M -228.914062 516.527344 L -228.914062 210.929688 L 353.410156 -123.078125 L 935.738281 210.929688 L 935.738281 516.527344 L 353.410156 850.535156 Z M -228.914062 516.527344 "/>
</clipPath>
<clipPath id="clip-42">
<path clip-rule="nonzero" d="M 31 431 L 369 431 L 369 630 L 31 630 Z M 31 431 "/>
</clipPath>
<clipPath id="clip-43">
<path clip-rule="nonzero" d="M -228.914062 516.527344 L -228.914062 210.929688 L 353.410156 -123.078125 L 935.738281 210.929688 L 935.738281 516.527344 L 353.410156 850.535156 Z M -228.914062 516.527344 "/>
</clipPath>
<clipPath id="clip-44">
<path clip-rule="nonzero" d="M 31 431 L 326 431 L 326 665.320312 L 31 665.320312 Z M 31 431 "/>
</clipPath>
<clipPath id="clip-45">
<path clip-rule="nonzero" d="M -228.914062 516.527344 L -228.914062 210.929688 L 353.410156 -123.078125 L 935.738281 210.929688 L 935.738281 516.527344 L 353.410156 850.535156 Z M -228.914062 516.527344 "/>
</clipPath>
<clipPath id="clip-46">
<path clip-rule="nonzero" d="M 31 431 L 221 431 L 221 665.320312 L 31 665.320312 Z M 31 431 "/>
</clipPath>
<clipPath id="clip-47">
<path clip-rule="nonzero" d="M -228.914062 516.527344 L -228.914062 210.929688 L 353.410156 -123.078125 L 935.738281 210.929688 L 935.738281 516.527344 L 353.410156 850.535156 Z M -228.914062 516.527344 "/>
</clipPath>
<clipPath id="clip-48">
<path clip-rule="nonzero" d="M 0 431 L 173 431 L 173 606 L 0 606 Z M 0 431 "/>
</clipPath>
<clipPath id="clip-49">
<path clip-rule="nonzero" d="M -228.914062 516.527344 L -228.914062 210.929688 L 353.410156 -123.078125 L 935.738281 210.929688 L 935.738281 516.527344 L 353.410156 850.535156 Z M -228.914062 516.527344 "/>
</clipPath>
<clipPath id="clip-50">
<path clip-rule="nonzero" d="M 0 319 L 173 319 L 173 573 L 0 573 Z M 0 319 "/>
</clipPath>
<clipPath id="clip-51">
<path clip-rule="nonzero" d="M -228.914062 516.527344 L -228.914062 210.929688 L 353.410156 -123.078125 L 935.738281 210.929688 L 935.738281 516.527344 L 353.410156 850.535156 Z M -228.914062 516.527344 "/>
</clipPath>
<clipPath id="clip-52">
<path clip-rule="nonzero" d="M 0 223 L 173 223 L 173 573 L 0 573 Z M 0 223 "/>
</clipPath>
<clipPath id="clip-53">
<path clip-rule="nonzero" d="M -228.914062 516.527344 L -228.914062 210.929688 L 353.410156 -123.078125 L 935.738281 210.929688 L 935.738281 516.527344 L 353.410156 850.535156 Z M -228.914062 516.527344 "/>
</clipPath>
<clipPath id="clip-54">
<path clip-rule="nonzero" d="M 31 232 L 221 232 L 221 573 L 31 573 Z M 31 232 "/>
</clipPath>
<clipPath id="clip-55">
<path clip-rule="nonzero" d="M -228.914062 516.527344 L -228.914062 210.929688 L 353.410156 -123.078125 L 935.738281 210.929688 L 935.738281 516.527344 L 353.410156 850.535156 Z M -228.914062 516.527344 "/>
</clipPath>
<clipPath id="clip-56">
<path clip-rule="nonzero" d="M 409 283 L 705 283 L 705 665.320312 L 409 665.320312 Z M 409 283 "/>
</clipPath>
<clipPath id="clip-57">
<path clip-rule="nonzero" d="M -228.914062 516.527344 L -228.914062 210.929688 L 353.410156 -123.078125 L 935.738281 210.929688 L 935.738281 516.527344 L 353.410156 850.535156 Z M -228.914062 516.527344 "/>
</clipPath>
<clipPath id="clip-58">
<path clip-rule="nonzero" d="M 500 389 L 705 389 L 705 612 L 500 612 Z M 500 389 "/>
</clipPath>
<clipPath id="clip-59">
<path clip-rule="nonzero" d="M -228.914062 516.527344 L -228.914062 210.929688 L 353.410156 -123.078125 L 935.738281 210.929688 L 935.738281 516.527344 L 353.410156 850.535156 Z M -228.914062 516.527344 "/>
</clipPath>
<clipPath id="clip-60">
<path clip-rule="nonzero" d="M 463 346 L 706.824219 346 L 706.824219 649 L 463 649 Z M 463 346 "/>
</clipPath>
<clipPath id="clip-61">
<path clip-rule="nonzero" d="M -228.914062 516.527344 L -228.914062 210.929688 L 353.410156 -123.078125 L 935.738281 210.929688 L 935.738281 516.527344 L 353.410156 850.535156 Z M -228.914062 516.527344 "/>
</clipPath>
<clipPath id="clip-62">
<path clip-rule="nonzero" d="M 424 301 L 706.824219 301 L 706.824219 665.320312 L 424 665.320312 Z M 424 301 "/>
</clipPath>
<clipPath id="clip-63">
<path clip-rule="nonzero" d="M -228.914062 516.527344 L -228.914062 210.929688 L 353.410156 -123.078125 L 935.738281 210.929688 L 935.738281 516.527344 L 353.410156 850.535156 Z M -228.914062 516.527344 "/>
</clipPath>
<clipPath id="clip-64">
<path clip-rule="nonzero" d="M 382 257 L 706.824219 257 L 706.824219 665.320312 L 382 665.320312 Z M 382 257 "/>
</clipPath>
<clipPath id="clip-65">
<path clip-rule="nonzero" d="M -228.914062 516.527344 L -228.914062 210.929688 L 353.410156 -123.078125 L 935.738281 210.929688 L 935.738281 516.527344 L 353.410156 850.535156 Z M -228.914062 516.527344 "/>
</clipPath>
<clipPath id="clip-66">
<path clip-rule="nonzero" d="M 486 232 L 676 232 L 676 573 L 486 573 Z M 486 232 "/>
</clipPath>
<clipPath id="clip-67">
<path clip-rule="nonzero" d="M -228.914062 516.527344 L -228.914062 210.929688 L 353.410156 -123.078125 L 935.738281 210.929688 L 935.738281 516.527344 L 353.410156 850.535156 Z M -228.914062 516.527344 "/>
</clipPath>
<clipPath id="clip-68">
<path clip-rule="nonzero" d="M 381 342 L 676 342 L 676 573 L 381 573 Z M 381 342 "/>
</clipPath>
<clipPath id="clip-69">
<path clip-rule="nonzero" d="M -228.914062 516.527344 L -228.914062 210.929688 L 353.410156 -123.078125 L 935.738281 210.929688 L 935.738281 516.527344 L 353.410156 850.535156 Z M -228.914062 516.527344 "/>
</clipPath>
<clipPath id="clip-70">
<path clip-rule="nonzero" d="M 338 431 L 676 431 L 676 630 L 338 630 Z M 338 431 "/>
</clipPath>
<clipPath id="clip-71">
<path clip-rule="nonzero" d="M -228.914062 516.527344 L -228.914062 210.929688 L 353.410156 -123.078125 L 935.738281 210.929688 L 935.738281 516.527344 L 353.410156 850.535156 Z M -228.914062 516.527344 "/>
</clipPath>
<clipPath id="clip-72">
<path clip-rule="nonzero" d="M 381 431 L 676 431 L 676 665.320312 L 381 665.320312 Z M 381 431 "/>
</clipPath>
<clipPath id="clip-73">
<path clip-rule="nonzero" d="M -228.914062 516.527344 L -228.914062 210.929688 L 353.410156 -123.078125 L 935.738281 210.929688 L 935.738281 516.527344 L 353.410156 850.535156 Z M -228.914062 516.527344 "/>
</clipPath>
<clipPath id="clip-74">
<path clip-rule="nonzero" d="M 486 431 L 676 431 L 676 665.320312 L 486 665.320312 Z M 486 431 "/>
</clipPath>
<clipPath id="clip-75">
<path clip-rule="nonzero" d="M -228.914062 516.527344 L -228.914062 210.929688 L 353.410156 -123.078125 L 935.738281 210.929688 L 935.738281 516.527344 L 353.410156 850.535156 Z M -228.914062 516.527344 "/>
</clipPath>
<clipPath id="clip-76">
<path clip-rule="nonzero" d="M 534 431 L 706.824219 431 L 706.824219 606 L 534 606 Z M 534 431 "/>
</clipPath>
<clipPath id="clip-77">
<path clip-rule="nonzero" d="M -228.914062 516.527344 L -228.914062 210.929688 L 353.410156 -123.078125 L 935.738281 210.929688 L 935.738281 516.527344 L 353.410156 850.535156 Z M -228.914062 516.527344 "/>
</clipPath>
<clipPath id="clip-78">
<path clip-rule="nonzero" d="M 534 319 L 706.824219 319 L 706.824219 573 L 534 573 Z M 534 319 "/>
</clipPath>
<clipPath id="clip-79">
<path clip-rule="nonzero" d="M -228.914062 516.527344 L -228.914062 210.929688 L 353.410156 -123.078125 L 935.738281 210.929688 L 935.738281 516.527344 L 353.410156 850.535156 Z M -228.914062 516.527344 "/>
</clipPath>
<clipPath id="clip-80">
<path clip-rule="nonzero" d="M 534 223 L 706.824219 223 L 706.824219 573 L 534 573 Z M 534 223 "/>
</clipPath>
<clipPath id="clip-81">
<path clip-rule="nonzero" d="M -228.914062 516.527344 L -228.914062 210.929688 L 353.410156 -123.078125 L 935.738281 210.929688 L 935.738281 516.527344 L 353.410156 850.535156 Z M -228.914062 516.527344 "/>
</clipPath>
<clipPath id="clip-82">
<path clip-rule="nonzero" d="M 486 232 L 676 232 L 676 573 L 486 573 Z M 486 232 "/>
</clipPath>
<clipPath id="clip-83">
<path clip-rule="nonzero" d="M -228.914062 516.527344 L -228.914062 210.929688 L 353.410156 -123.078125 L 935.738281 210.929688 L 935.738281 516.527344 L 353.410156 850.535156 Z M -228.914062 516.527344 "/>
</clipPath>
<clipPath id="clip-84">
<path clip-rule="nonzero" d="M 0 0.140625 L 706.824219 0.140625 L 706.824219 665.320312 L 0 665.320312 Z M 0 0.140625 "/>
</clipPath>
<clipPath id="clip-85">
<path clip-rule="nonzero" d="M -228.914062 516.527344 L -228.914062 210.929688 L 353.410156 -123.078125 L 935.738281 210.929688 L 935.738281 516.527344 L 353.410156 850.535156 Z M -228.914062 516.527344 "/>
</clipPath>
<clipPath id="clip-86">
<path clip-rule="nonzero" d="M 0 8 L 706.824219 8 L 706.824219 665.320312 L 0 665.320312 Z M 0 8 "/>
</clipPath>
<clipPath id="clip-87">
<path clip-rule="nonzero" d="M -228.914062 516.527344 L -228.914062 210.929688 L 353.410156 -123.078125 L 935.738281 210.929688 L 935.738281 516.527344 L 353.410156 850.535156 Z M -228.914062 516.527344 "/>
</clipPath>
</defs>
<g clip-path="url(#clip-0)">
<g clip-path="url(#clip-1)">
<path fill-rule="nonzero" fill="rgb(22.349548%, 59.220886%, 30.979919%)" fill-opacity="1" d="M 205.738281 207.113281 L 215.402344 212.316406 L 225.621094 217.15625 L 236.355469 221.613281 L 247.558594 225.671875 L 259.191406 229.3125 L 271.203125 232.527344 L 283.542969 235.296875 L 296.164062 237.609375 L 309.019531 239.460938 L 322.050781 240.839844 L 335.210938 241.742188 L 348.441406 242.164062 L 361.695312 242.105469 L 374.910156 241.5625 L 388.042969 240.539062 L 401.035156 239.042969 L 413.835938 237.074219 L 426.394531 234.644531 L 438.65625 231.765625 L 450.578125 228.445312 L 462.105469 224.695312 L 473.199219 220.535156 L 483.808594 215.980469 L 493.890625 211.046875 L 503.410156 205.757812 L 512.324219 200.132812 L 520.597656 194.195312 L 528.199219 187.972656 L 535.097656 181.480469 L 541.261719 174.75 L 546.671875 167.8125 L 551.300781 160.691406 L 555.136719 153.414062 L 558.160156 146.015625 L 560.355469 138.519531 L 561.71875 130.957031 L 562.246094 123.363281 L 561.929688 115.761719 L 560.777344 108.191406 L 558.785156 100.675781 L 555.96875 93.25 L 552.335938 85.9375 L 547.902344 78.777344 L 542.6875 71.789062 L 536.707031 65.003906 L 529.988281 58.453125 L 522.5625 52.15625 L 514.453125 46.144531 L 505.695312 40.441406 L 496.324219 35.066406 L 486.378906 30.042969 L 475.898438 25.390625 L 464.921875 21.128906 L 453.5 17.277344 L 441.671875 13.847656 L 429.488281 10.855469 L 417 8.3125 L 404.257812 6.230469 L 391.308594 4.613281 L 378.207031 3.472656 L 365.003906 2.808594 L 351.753906 2.628906 L 338.511719 2.929688 L 325.332031 3.714844 L 312.261719 4.972656 L 299.359375 6.707031 L 286.675781 8.90625 L 274.257812 11.5625 L 262.160156 14.664062 L 250.429688 18.203125 L 239.113281 22.160156 L 228.257812 26.519531 L 217.90625 31.265625 L 208.101562 36.378906 L 198.878906 41.835938 L 190.28125 47.621094 L 182.339844 53.707031 L 175.085938 60.066406 L 168.550781 66.679688 L 162.761719 73.515625 L 157.738281 80.550781 L 153.503906 87.753906 L 150.074219 95.097656 L 147.460938 102.546875 L 145.679688 110.078125 L 144.734375 117.660156 L 144.628906 125.261719 L 145.367188 132.851562 L 146.9375 140.398438 L 149.34375 147.875 L 152.570312 155.246094 L 156.605469 162.488281 L 161.433594 169.566406 L 167.03125 176.453125 L 173.382812 183.125 L 180.460938 189.554688 L 188.234375 195.710938 L 196.671875 201.570312 L 205.738281 207.113281 "/>
</g>
</g>
<g clip-path="url(#clip-2)">
<g clip-path="url(#clip-3)">
<path fill="none" stroke-width="4.98138" stroke-linecap="round" stroke-linejoin="miter" stroke="rgb(0%, 0%, 0%)" stroke-opacity="0.7" stroke-dasharray="0 12.45346" stroke-miterlimit="10" d="M -31.516088 285.479464 L -29.451871 284.369166 L -27.270369 283.337057 L -24.9794 282.387048 L -22.590695 281.519138 L -20.10816 280.741147 L -17.543527 280.056985 L -14.912432 279.46665 L -12.214875 278.970143 L -9.474314 278.575283 L -6.690748 278.28207 L -3.883726 278.090505 L -1.061065 278.000586 L 1.765505 278.012315 L 4.588166 278.1296 L 7.391279 278.348532 L 10.163117 278.665202 L 12.895859 279.087428 L 15.573868 279.603482 L 18.193234 280.221184 L 20.734411 280.928804 L 23.197398 281.726342 L 25.562647 282.617709 L 27.826248 283.587265 L 29.980384 284.638921 L 32.009416 285.768768 L 33.913344 286.968985 L 35.680439 288.235664 L 37.298973 289.564894 L 38.772855 290.948858 L 40.090357 292.387555 L 41.243661 293.865347 L 42.232765 295.386143 L 43.049851 296.938216 L 43.694919 298.517655 L 44.164059 300.120551 L 44.453362 301.731266 L 44.566738 303.353709 L 44.500276 304.976153 L 44.253977 306.590777 L 43.827842 308.193673 L 43.225778 309.780931 L 42.451697 311.340823 L 41.505597 312.869438 L 40.391389 314.358959 L 39.116891 315.805474 L 37.682104 317.205076 L 36.098755 318.549945 L 34.366846 319.832262 L 32.498104 321.048117 L 30.500348 322.197511 L 28.377488 323.268715 L 26.137343 324.261728 L 23.795551 325.168733 L 21.359931 325.993638 L 18.834393 326.724715 L 16.234574 327.361964 L 13.572203 327.905384 L 10.851189 328.351068 L 8.087171 328.695104 L 5.291877 328.937493 L 2.473125 329.078235 L -0.353445 329.11733 L -3.180015 329.054778 L -5.990947 328.886669 L -8.782332 328.616914 L -11.534622 328.249421 L -14.243907 327.78028 L -16.89064 327.213402 L -19.474821 326.548787 L -21.976903 325.794253 L -24.392975 324.949801 L -26.707401 324.019339 L -28.916269 323.006778 L -31.011763 321.916027 L -32.978242 320.750995 L -34.811799 319.515592 L -36.508523 318.217637 L -38.056686 316.86104 L -39.452378 315.44971 L -40.687781 313.991465 L -41.758985 312.490216 L -42.66208 310.953782 L -43.393157 309.386071 L -43.952216 307.794904 L -44.331437 306.188099 L -44.534731 304.569565 L -44.554279 302.947121 L -44.397899 301.328587 L -44.061682 299.717872 L -43.549537 298.122795 L -42.861464 296.547266 L -42.001374 295.003012 L -40.969265 293.493944 L -39.772958 292.023971 L -38.42027 290.600912 L -36.907292 289.228677 L -35.249663 287.915084 L -33.451292 286.664044 L -31.516088 285.479464 " transform="matrix(0.999168, 0, 0, -0.999168, 353.411745, 372.425562)"/>
</g>
</g>
<g clip-path="url(#clip-4)">
<g clip-path="url(#clip-5)">
<path fill="none" stroke-width="4.98138" stroke-linecap="round" stroke-linejoin="miter" stroke="rgb(0%, 0%, 0%)" stroke-opacity="0.7" stroke-dasharray="0 12.45346" stroke-miterlimit="10" d="M -62.530171 260.833961 L -58.440831 258.632911 L -54.113012 256.584332 L -49.566261 254.696042 L -44.824035 252.975861 L -39.898062 251.435517 L -34.811799 250.075011 L -29.584794 248.90216 L -24.240505 247.920875 L -18.798477 247.138974 L -13.27826 246.552549 L -7.707219 246.169418 L -2.104902 245.99349 L 3.505234 246.016947 L 9.103641 246.247608 L 14.666863 246.681563 L 20.167533 247.314902 L 25.586104 248.147626 L 30.903027 249.175825 L 36.098755 250.39559 L 41.145923 251.803011 L 46.024982 253.390269 L 50.724204 255.149545 L 55.216222 257.080839 L 59.485399 259.168513 L 63.516096 261.408658 L 67.292675 263.789545 L 70.795589 266.303355 L 74.01311 268.942269 L 76.933508 271.690649 L 79.545056 274.536767 L 81.836024 277.476713 L 83.794685 280.490939 L 85.421038 283.571627 L 86.699445 286.707048 L 87.629907 289.881564 L 88.208513 293.083447 L 88.431355 296.300967 L 88.298431 299.518487 L 87.809744 302.724279 L 86.965291 305.906614 L 85.772893 309.049854 L 84.232549 312.14618 L 82.355988 315.179954 L 80.147119 318.139447 L 77.617671 321.009022 L 74.771553 323.784769 L 71.628313 326.451049 L 68.191861 328.996136 L 64.485652 331.412208 L 60.517507 333.687538 L 56.303064 335.814308 L 51.865779 337.784697 L 47.21738 339.586978 L 42.381326 341.22115 L 37.373253 342.671575 L 32.21662 343.938254 L 26.927063 345.017276 L 21.53195 345.896914 L 16.046918 346.581077 L 10.499334 347.065856 L 4.908745 347.34734 L -0.701391 347.42162 L -6.307617 347.296516 L -11.890386 346.964209 L -17.426242 346.428607 L -22.887817 345.69753 L -28.259473 344.767068 L -33.517754 343.641131 L -38.639202 342.327539 L -43.608179 340.830199 L -48.401229 339.153023 L -52.994895 337.307738 L -57.381356 335.298253 L -61.533248 333.132389 L -65.434931 330.821873 L -69.078588 328.370615 L -72.44076 325.794253 L -75.513628 323.100606 L -78.277647 320.301402 L -80.728905 317.404461 L -82.859583 314.42933 L -84.650136 311.376008 L -86.10447 308.267954 L -87.21086 305.112985 L -87.965394 301.922831 L -88.364163 298.71313 L -88.407167 295.495609 L -88.098317 292.281999 L -87.429792 289.084026 L -86.413321 285.921238 L -85.044995 282.797546 L -83.336543 279.732496 L -81.291873 276.733907 L -78.922715 273.817419 L -76.232977 270.990848 L -73.234389 268.269835 L -69.946497 265.662197 L -66.373212 263.183572 L -62.530171 260.833961 " transform="matrix(0.999168, 0, 0, -0.999168, 353.411745, 372.425562)"/>
</g>
</g>
<g clip-path="url(#clip-6)">
<g clip-path="url(#clip-7)">
<path fill="none" stroke-width="4.98138" stroke-linecap="round" stroke-linejoin="miter" stroke="rgb(0%, 0%, 0%)" stroke-opacity="0.7" stroke-dasharray="0 12.45346" stroke-miterlimit="10" d="M -92.562968 232.306322 L -86.507149 229.045797 L -80.099475 226.012023 L -73.371221 223.216729 L -66.349755 220.671643 L -59.058533 218.388494 L -51.528831 216.3751 L -43.795836 214.639281 L -35.883003 213.188856 L -27.825518 212.031643 L -19.658568 211.163733 L -11.409518 210.600765 L -3.113554 210.334919 L 5.19023 210.374014 L 13.478375 210.714141 L 21.707877 211.355299 L 29.851371 212.293579 L 37.87367 213.525073 L 45.747407 215.049779 L 53.433489 216.852059 L 60.904548 218.935824 L 68.133218 221.285435 L 75.084313 223.893073 L 81.734377 226.74701 L 88.052133 229.839426 L 94.021943 233.154684 L 99.608622 236.681055 L 104.792622 240.402902 L 109.558306 244.304585 L 113.882215 248.374377 L 117.744804 252.588821 L 121.138252 256.940097 L 124.039102 261.404749 L 126.443446 265.963228 L 128.339555 270.603808 L 129.7157 275.30303 L 130.571881 280.041347 L 130.900279 284.80312 L 130.700894 289.564894 L 129.977637 294.31103 L 128.730505 299.021981 L 126.96341 303.678198 L 124.68808 308.260135 L 121.908424 312.748244 L 118.64008 317.130796 L 114.890867 321.380425 L 110.680333 325.489312 L 106.024115 329.434 L 100.941762 333.20276 L 95.452821 336.779955 L 89.580748 340.146036 L 83.345092 343.297095 L 76.777128 346.209675 L 69.896404 348.883774 L 62.734195 351.295937 L 55.321779 353.446164 L 47.686521 355.322725 L 39.859697 356.913892 L 31.868674 358.223575 L 23.752547 359.236137 L 15.542592 359.951575 L 7.266175 360.365983 L -1.037608 360.479358 L -9.337481 360.287793 L -17.602169 359.799105 L -25.792577 359.009385 L -33.881337 357.922544 L -41.833265 356.542489 L -49.613175 354.880951 L -57.19761 352.934019 L -64.551384 350.717331 L -71.643221 348.238706 L -78.449665 345.505964 L -84.935529 342.530833 L -91.081267 339.325041 L -96.863421 335.904226 L -102.250715 332.276208 L -107.231421 328.464443 L -111.778173 324.476751 L -115.871422 320.332678 L -119.503349 316.043954 L -122.650499 311.637945 L -125.305051 307.12247 L -127.455277 302.520985 L -129.093359 297.84913 L -130.207567 293.126451 L -130.801811 288.376406 L -130.868273 283.610722 L -130.406952 278.852858 L -129.421757 274.12236 L -127.912689 269.438776 L -125.891476 264.817744 L -123.362028 260.278812 L -120.336073 255.841527 L -116.82534 251.521527 L -112.841557 247.342268 L -108.408182 243.311571 L -103.536942 239.452893 L -98.247385 235.77796 L -92.562968 232.306322 " transform="matrix(0.999168, 0, 0, -0.999168, 353.411745, 372.425562)"/>
</g>
</g>
<g clip-path="url(#clip-8)">
<g clip-path="url(#clip-9)">
<path fill="none" stroke-width="4.98138" stroke-linecap="round" stroke-linejoin="miter" stroke="rgb(0%, 0%, 0%)" stroke-opacity="0.7" stroke-dasharray="0 12.45346" stroke-miterlimit="10" d="M -121.133612 200.342231 L -113.209051 196.076964 L -104.827077 192.104909 L -96.018969 188.449524 L -86.827728 185.118628 L -77.288543 182.131768 L -67.436596 179.496764 L -57.310985 177.225343 L -46.958623 175.325325 L -36.414695 173.808438 L -25.726115 172.678592 L -14.931979 171.935786 L -4.075291 171.59175 L 6.793126 171.638664 L 17.638085 172.084347 L 28.408764 172.92489 L 39.066068 174.152474 L 49.566991 175.767099 L 59.86853 177.757035 L 69.92768 180.122284 L 79.705345 182.847207 L 89.162432 185.920076 L 98.259844 189.333072 L 106.962396 193.070556 L 115.234903 197.116891 L 123.042179 201.452529 L 130.352949 206.065742 L 137.139845 210.936982 L 143.375501 216.046702 L 149.032551 221.367535 L 154.091447 226.887752 L 158.528733 232.579987 L 162.328769 238.420784 L 165.472009 244.390594 L 167.950633 250.462051 L 169.752914 256.611699 L 170.874941 262.812169 L 171.304986 269.043916 L 171.046959 275.275663 L 170.09695 281.487862 L 168.466688 287.653148 L 166.156172 293.744152 L 163.177131 299.741329 L 159.537384 305.617311 L 155.260389 311.348642 L 150.353963 316.911864 L 144.845474 322.287429 L 138.754469 327.451882 L 132.100496 332.381765 L 124.91874 337.061439 L 117.228749 341.471358 L 109.073527 345.591973 L 100.472622 349.407648 L 91.472947 352.902743 L 82.10187 356.061621 L 72.398485 358.876462 L 62.405797 361.33163 L 52.162901 363.415395 L 41.708891 365.123847 L 31.086773 366.449168 L 20.339551 367.387449 L 9.51023 367.93087 L -1.358187 368.079431 L -12.222694 367.833132 L -23.032468 367.188064 L -33.752324 366.155956 L -44.339256 364.732897 L -54.742442 362.930616 L -64.930605 360.749114 L -74.852923 358.204028 L -84.474208 355.303177 L -93.759276 352.05829 L -102.661213 348.485005 L -111.152652 344.591141 L -119.198408 340.396245 L -126.759386 335.915955 L -133.816038 331.173728 L -140.329269 326.181294 L -146.279531 320.962108 L -151.639459 315.539628 L -156.389505 309.929492 L -160.51012 304.159067 L -163.981758 298.251809 L -166.7966 292.231175 L -168.939007 286.116713 L -170.401161 279.939699 L -171.175243 273.719681 L -171.261252 267.484025 L -170.659188 261.260097 L -169.369052 255.067445 L -167.394754 248.937345 L -164.748021 242.889345 L -161.440582 236.950811 L -157.480256 231.141291 L -152.88659 225.49206 L -147.675224 220.018756 L -141.869613 214.748747 L -135.493214 209.69767 L -128.573395 204.888982 L -121.133612 200.342231 " transform="matrix(0.999168, 0, 0, -0.999168, 353.411745, 372.425562)"/>
</g>
</g>
<g clip-path="url(#clip-10)">
<g clip-path="url(#clip-11)">
<path fill="none" stroke-width="4.98138" stroke-linecap="round" stroke-linejoin="miter" stroke="rgb(0%, 0%, 0%)" stroke-opacity="0.7" stroke-dasharray="0 12.45346" stroke-miterlimit="10" d="M -0.00158966 305.851881 L -31.516088 285.479464 L -62.530171 260.833961 L -92.562968 232.306322 L -121.133612 200.342231 L -147.796418 165.449922 " transform="matrix(0.999168, 0, 0, -0.999168, 353.411745, 372.425562)"/>
</g>
</g>
<g clip-path="url(#clip-12)">
<g clip-path="url(#clip-13)">
<path fill="none" stroke-width="4.98138" stroke-linecap="round" stroke-linejoin="miter" stroke="rgb(0%, 0%, 0%)" stroke-opacity="0.7" stroke-dasharray="0 12.45346" stroke-miterlimit="10" d="M -0.00158966 305.851881 L -0.00158966 130.334771 " transform="matrix(0.999168, 0, 0, -0.999168, 353.411745, 372.425562)"/>
</g>
</g>
<g clip-path="url(#clip-14)">
<g clip-path="url(#clip-15)">
<path fill="none" stroke-width="4.98138" stroke-linecap="round" stroke-linejoin="miter" stroke="rgb(0%, 0%, 0%)" stroke-opacity="0.7" stroke-dasharray="0 12.45346" stroke-miterlimit="10" d="M -0.00158966 305.851881 L 31.512909 285.479464 L 62.530901 260.833961 L 92.563699 232.306322 L 121.134342 200.342231 L 147.797148 165.449922 " transform="matrix(0.999168, 0, 0, -0.999168, 353.411745, 372.425562)"/>
</g>
</g>
<g clip-path="url(#clip-16)">
<g clip-path="url(#clip-17)">
<path fill="none" stroke-width="4.98138" stroke-linecap="round" stroke-linejoin="miter" stroke="rgb(0%, 0%, 0%)" stroke-opacity="0.7" stroke-dasharray="0 12.45346" stroke-miterlimit="10" d="M -0.00158966 305.851881 L 44.566738 303.557003 L 88.435264 296.699736 L 130.904189 285.397365 L 171.308896 269.821907 L 209.016046 250.223572 " transform="matrix(0.999168, 0, 0, -0.999168, 353.411745, 372.425562)"/>
</g>
</g>
<g clip-path="url(#clip-18)">
<g clip-path="url(#clip-19)">
<path fill="none" stroke-width="4.98138" stroke-linecap="round" stroke-linejoin="miter" stroke="rgb(0%, 0%, 0%)" stroke-opacity="0.7" stroke-dasharray="0 12.45346" stroke-miterlimit="10" d="M -0.00158966 305.851881 L 31.512909 321.630633 L 62.530901 332.569421 L 92.563699 338.488407 L 121.134342 339.301584 L 147.797148 334.993312 " transform="matrix(0.999168, 0, 0, -0.999168, 353.411745, 372.425562)"/>
</g>
</g>
<g clip-path="url(#clip-20)">
<g clip-path="url(#clip-21)">
<path fill="none" stroke-width="4.98138" stroke-linecap="round" stroke-linejoin="miter" stroke="rgb(0%, 0%, 0%)" stroke-opacity="0.7" stroke-dasharray="0 12.45346" stroke-miterlimit="10" d="M -0.00158966 305.851881 L -0.00158966 370.108463 " transform="matrix(0.999168, 0, 0, -0.999168, 353.411745, 372.425562)"/>
</g>
</g>
<g clip-path="url(#clip-22)">
<g clip-path="url(#clip-23)">
<path fill="none" stroke-width="4.98138" stroke-linecap="round" stroke-linejoin="miter" stroke="rgb(0%, 0%, 0%)" stroke-opacity="0.7" stroke-dasharray="0 12.45346" stroke-miterlimit="10" d="M -0.00158966 305.851881 L -31.516088 321.630633 L -62.530171 332.569421 L -92.562968 338.488407 L -121.133612 339.301584 L -147.796418 334.993312 " transform="matrix(0.999168, 0, 0, -0.999168, 353.411745, 372.425562)"/>
</g>
</g>
<g clip-path="url(#clip-24)">
<g clip-path="url(#clip-25)">
<path fill="none" stroke-width="4.98138" stroke-linecap="round" stroke-linejoin="miter" stroke="rgb(0%, 0%, 0%)" stroke-opacity="0.7" stroke-dasharray="0 12.45346" stroke-miterlimit="10" d="M -0.00158966 305.851881 L -44.569917 303.557003 L -88.434534 296.699736 L -130.903458 285.397365 L -171.312075 269.821907 L -209.015316 250.223572 " transform="matrix(0.999168, 0, 0, -0.999168, 353.411745, 372.425562)"/>
</g>
</g>
<g clip-path="url(#clip-26)">
<g clip-path="url(#clip-27)">
<path fill="none" stroke-width="4.98138" stroke-linecap="round" stroke-linejoin="miter" stroke="rgb(0%, 0%, 0%)" stroke-opacity="0.7" stroke-dasharray="0 12.45346" stroke-miterlimit="10" d="M -0.00158966 305.851881 L -31.516088 285.479464 L -62.530171 260.833961 L -92.562968 232.306322 L -121.133612 200.342231 L -147.796418 165.449922 " transform="matrix(0.999168, 0, 0, -0.999168, 353.411745, 372.425562)"/>
</g>
</g>
<g clip-path="url(#clip-28)">
<g clip-path="url(#clip-29)">
<path fill-rule="nonzero" fill="rgb(79.219055%, 23.529053%, 19.60907%)" fill-opacity="1" d="M 150.15625 303.382812 L 159.523438 309.097656 L 168.851562 315.480469 L 178.105469 322.503906 L 187.246094 330.136719 L 196.234375 338.355469 L 205.042969 347.117188 L 213.625 356.394531 L 221.957031 366.144531 L 229.996094 376.332031 L 237.714844 386.914062 L 245.078125 397.851562 L 252.0625 409.09375 L 258.636719 420.601562 L 264.773438 432.324219 L 270.449219 444.21875 L 275.640625 456.234375 L 280.324219 468.324219 L 284.484375 480.4375 L 288.105469 492.527344 L 291.171875 504.542969 L 293.667969 516.4375 L 295.585938 528.164062 L 296.921875 539.671875 L 297.664062 550.921875 L 297.8125 561.859375 L 297.367188 572.449219 L 296.328125 582.640625 L 294.699219 592.398438 L 292.492188 601.679688 L 289.707031 610.449219 L 286.363281 618.671875 L 282.472656 626.316406 L 278.046875 633.34375 L 273.105469 639.734375 L 267.667969 645.460938 L 261.761719 650.496094 L 255.402344 654.824219 L 248.621094 658.425781 L 241.441406 661.285156 L 233.898438 663.394531 L 226.011719 664.742188 L 217.824219 665.324219 L 209.363281 665.136719 L 200.664062 664.179688 L 191.761719 662.460938 L 182.691406 659.984375 L 173.488281 656.761719 L 164.195312 652.804688 L 154.84375 648.128906 L 145.472656 642.753906 L 136.121094 636.703125 L 126.824219 629.996094 L 117.625 622.664062 L 108.554688 614.734375 L 99.648438 606.242188 L 90.949219 597.214844 L 82.488281 587.699219 L 74.300781 577.722656 L 66.417969 567.332031 L 58.871094 556.566406 L 51.695312 545.472656 L 44.910156 534.09375 L 38.554688 522.46875 L 32.644531 510.65625 L 27.210938 498.695312 L 22.269531 486.636719 L 17.84375 474.53125 L 13.949219 462.421875 L 10.605469 450.363281 L 7.824219 438.402344 L 5.613281 426.585938 L 3.988281 414.960938 L 2.949219 403.578125 L 2.503906 392.476562 L 2.652344 381.710938 L 3.394531 371.3125 L 4.726562 361.332031 L 6.648438 351.808594 L 9.144531 342.777344 L 12.210938 334.277344 L 15.828125 326.339844 L 19.992188 319 L 24.675781 312.289062 L 29.867188 306.226562 L 35.542969 300.84375 L 41.679688 296.160156 L 48.25 292.191406 L 55.234375 288.960938 L 62.601562 286.476562 L 70.320312 284.746094 L 78.359375 283.78125 L 86.6875 283.585938 L 95.273438 284.15625 L 104.078125 285.496094 L 113.070312 287.59375 L 122.210938 290.445312 L 131.464844 294.035156 L 140.792969 298.355469 L 150.15625 303.382812 "/>
</g>
</g>
<g clip-path="url(#clip-30)">
<g clip-path="url(#clip-31)">
<path fill="none" stroke-width="4.98138" stroke-linecap="round" stroke-linejoin="miter" stroke="rgb(0%, 0%, 0%)" stroke-opacity="0.7" stroke-dasharray="0 12.45346" stroke-miterlimit="10" d="M -249.463028 -92.014268 L -247.465272 -93.234033 L -245.471426 -94.59454 L -243.497127 -96.095789 L -241.546286 -97.722142 L -239.63063 -99.477508 L -237.750159 -101.34625 L -235.916602 -103.324459 L -234.141688 -105.408223 L -232.425417 -107.581907 L -230.775607 -109.841599 L -229.203987 -112.171662 L -227.714466 -114.572097 L -226.310955 -117.027264 L -225.001272 -119.529346 L -223.793235 -122.070523 L -222.682937 -124.631247 L -221.686014 -127.211518 L -220.794647 -129.799609 L -220.024475 -132.375971 L -219.367679 -134.940604 L -218.835986 -137.481781 L -218.425489 -139.983862 L -218.144004 -142.43903 L -217.983715 -144.839464 L -217.952439 -147.173437 L -218.046267 -149.43313 L -218.269108 -151.610723 L -218.617054 -153.690578 L -219.086194 -155.672696 L -219.680439 -157.545347 L -220.395878 -159.296804 L -221.224692 -160.930976 L -222.170792 -162.428316 L -223.226358 -163.792732 L -224.38357 -165.016406 L -225.646339 -166.09152 L -227.002937 -167.014162 L -228.449453 -167.780425 L -229.981978 -168.394216 L -231.592693 -168.843809 L -233.273779 -169.129203 L -235.021326 -169.254307 L -236.827516 -169.215212 L -238.68453 -169.011918 L -240.584548 -168.644425 L -242.519752 -168.116642 L -244.482322 -167.428569 L -246.468349 -166.584117 L -248.462195 -165.583284 L -250.463861 -164.4378 L -252.457707 -163.147664 L -254.443734 -161.716786 L -256.406304 -160.149076 L -258.341508 -158.456261 L -260.241526 -156.646162 L -262.09854 -154.718777 L -263.90473 -152.689745 L -265.652278 -150.559066 L -267.333364 -148.342379 L -268.944079 -146.043591 L -270.476603 -143.678342 L -271.923119 -141.246632 L -273.279717 -138.768007 L -274.542486 -136.246378 L -275.699699 -133.693473 L -276.755264 -131.121021 L -277.697454 -128.536839 L -278.530178 -125.952658 L -279.245617 -123.380206 L -279.835952 -120.827301 L -280.309002 -118.305672 L -280.656948 -115.823138 L -280.879789 -113.395337 L -280.973617 -111.026178 L -280.942341 -108.727391 L -280.782052 -106.510703 L -280.496658 -104.380024 L -280.09007 -102.347083 L -279.554468 -100.419698 L -278.901581 -98.605689 L -278.1275 -96.912875 L -277.240043 -95.345164 L -276.24312 -93.914286 L -275.132821 -92.620241 L -273.920875 -91.470847 L -272.611192 -90.470015 L -271.21159 -89.625562 L -269.71816 -88.93358 L -268.14654 -88.405797 L -266.50064 -88.034395 L -264.784368 -87.831101 L -263.005544 -87.788096 L -261.175897 -87.909291 L -259.295427 -88.194684 L -257.375861 -88.644277 L -255.425019 -89.25025 L -253.450721 -90.020422 L -251.460784 -90.939155 L -249.463028 -92.014268 " transform="matrix(0.999168, 0, 0, -0.999168, 353.411745, 372.425562)"/>
</g>
</g>
<g clip-path="url(#clip-32)">
<g clip-path="url(#clip-33)">
<path fill="none" stroke-width="4.98138" stroke-linecap="round" stroke-linejoin="miter" stroke="rgb(0%, 0%, 0%)" stroke-opacity="0.7" stroke-dasharray="0 12.45346" stroke-miterlimit="10" d="M -243.544041 -52.688583 L -239.579806 -55.108565 L -235.631209 -57.810032 L -231.709978 -60.785163 L -227.83957 -64.018321 L -224.031715 -67.493869 L -220.305959 -71.207896 L -216.670122 -75.133037 L -213.143751 -79.265381 L -209.738574 -83.577562 L -206.47023 -88.057852 L -203.350447 -92.690612 L -200.394864 -97.452386 L -197.611298 -102.323626 L -195.011479 -107.288694 L -192.607135 -112.324133 L -190.409994 -117.410396 L -188.427877 -122.531844 L -186.664691 -127.661111 L -185.132166 -132.77865 L -183.834211 -137.868822 L -182.774736 -142.904261 L -181.965469 -147.869329 L -181.398591 -152.744478 L -181.085831 -157.506252 L -181.023279 -162.139013 L -181.210935 -166.623212 L -181.6488 -170.939302 L -182.340781 -175.071647 L -183.275153 -179.000696 L -184.451913 -182.714724 L -185.871062 -186.19809 L -187.516963 -189.431249 L -189.389614 -192.41029 L -191.485108 -195.115665 L -193.783895 -197.539557 L -196.285976 -199.674145 L -198.979624 -201.503792 L -201.853108 -203.028498 L -204.890791 -204.240444 L -208.084855 -205.13181 L -211.42357 -205.702598 L -214.891298 -205.948896 L -218.476312 -205.870706 L -222.159063 -205.468028 L -225.927824 -204.736951 L -229.770865 -203.689204 L -233.664729 -202.324788 L -237.601598 -200.647611 L -241.561924 -198.669403 L -245.530069 -196.394073 L -249.490395 -193.829439 L -253.427264 -190.99114 L -257.321128 -187.886995 L -261.164169 -184.528733 L -264.932929 -180.931991 L -268.61568 -177.112407 L -272.200694 -173.08171 L -275.668423 -168.855538 L -279.003228 -164.457347 L -282.201201 -159.898868 L -285.238885 -155.199646 L -288.112369 -150.379229 L -290.806016 -145.461075 L -293.308097 -140.456912 L -295.606885 -135.394107 L -297.698469 -130.284387 L -299.57503 -125.159029 L -301.22093 -120.033672 L -302.64008 -114.927862 L -303.81684 -109.861147 L -304.751211 -104.856983 L -305.439283 -99.93492 L -305.881057 -95.114503 L -306.068713 -90.415282 L -306.006161 -85.852892 L -305.693401 -81.450793 L -305.126523 -77.224621 L -304.313347 -73.193924 L -303.257781 -69.37043 L -301.959826 -65.769778 L -300.427301 -62.407606 L -298.664116 -59.299552 L -296.681998 -56.457344 L -294.480948 -53.89271 L -292.080514 -51.61347 L -289.480695 -49.627443 L -286.697129 -47.950267 L -283.741545 -46.581941 L -280.621762 -45.526375 L -277.353418 -44.795298 L -273.948242 -44.38871 L -270.42187 -44.302701 L -266.786033 -44.54509 L -263.056368 -45.111968 L -259.252422 -45.999425 L -255.378105 -47.207461 L -251.460784 -48.728258 L -247.512186 -50.557905 L -243.544041 -52.688583 " transform="matrix(0.999168, 0, 0, -0.999168, 353.411745, 372.425562)"/>
</g>
</g>
<g clip-path="url(#clip-34)">
<g clip-path="url(#clip-35)">
<path fill="none" stroke-width="4.98138" stroke-linecap="round" stroke-linejoin="miter" stroke="rgb(0%, 0%, 0%)" stroke-opacity="0.7" stroke-dasharray="0 12.45346" stroke-miterlimit="10" d="M -233.789833 -12.299514 L -227.91776 -15.884528 L -222.069145 -19.883949 L -216.271353 -24.286049 L -210.540022 -29.071279 L -204.906429 -34.220094 L -199.386212 -39.712945 L -194.002827 -45.526375 L -188.783641 -51.640837 L -183.744293 -58.025054 L -178.908238 -64.65948 L -174.291116 -71.512838 L -169.912473 -78.56167 L -165.791858 -85.774702 L -161.944907 -93.124567 L -158.38726 -100.579988 L -155.134554 -108.109689 L -152.198518 -115.686305 L -149.59088 -123.278559 L -147.319459 -130.859084 L -145.399893 -138.388786 L -143.832183 -145.844207 L -142.631966 -153.194071 L -141.795332 -160.411013 L -141.330101 -167.459845 L -141.236273 -174.317113 L -141.517757 -180.955448 L -142.166735 -187.343575 L -143.187115 -193.458036 L -144.571079 -199.275376 L -146.314717 -204.776046 L -148.41021 -209.92877 L -150.853649 -214.71791 L -153.625486 -219.12392 L -156.721812 -223.131159 L -160.130898 -226.720083 L -163.833197 -229.875051 L -167.81698 -232.588246 L -172.070519 -234.844029 L -176.570356 -236.63849 L -181.300854 -237.959902 L -186.238555 -238.804355 L -191.371732 -239.167938 L -196.676927 -239.050653 L -202.130683 -238.452499 L -207.709542 -237.373477 L -213.393959 -235.821404 L -219.164385 -233.804101 L -224.989543 -231.321567 L -230.849887 -228.39335 L -236.725869 -225.023359 L -242.586213 -221.227232 L -248.411372 -217.024517 L -254.181797 -212.430851 L -259.866214 -207.457964 L -265.445074 -202.137132 L -270.89883 -196.480082 L -276.204024 -190.514181 L -281.337201 -184.258977 L -286.274903 -177.745746 L -291.005401 -171.001855 L -295.505238 -164.04685 L -299.758776 -156.912008 L -303.742559 -149.628605 L -307.444858 -142.220098 L -310.853944 -134.725582 L -313.95027 -127.168514 L -316.722107 -119.57626 L -319.165546 -111.987916 L -321.26104 -104.430848 L -323.004678 -96.932422 L -324.388642 -89.523915 L -325.409022 -82.240512 L -326.061909 -75.101761 L -326.339483 -68.146756 L -326.245655 -61.395045 L -325.780424 -54.881814 L -324.943791 -48.62661 L -323.743574 -42.652891 L -322.175863 -36.995841 L -320.256297 -31.667189 L -317.984877 -26.690393 L -315.377239 -22.088908 L -312.441202 -17.882284 L -309.188496 -14.082247 L -305.630849 -10.708347 L -301.783899 -7.77231 L -297.663283 -5.285867 L -293.28464 -3.260745 L -288.667518 -1.700853 L -283.831464 -0.617921 L -278.792115 -0.0158577 L -273.572929 0.109246 L -268.189545 -0.250428 L -262.669327 -1.087061 L -257.035734 -2.404564 L -251.304404 -4.191206 L -245.506612 -6.44308 L -239.657996 -9.148455 L -233.789833 -12.299514 " transform="matrix(0.999168, 0, 0, -0.999168, 353.411745, 372.425562)"/>
</g>
</g>
<g clip-path="url(#clip-36)">
<g clip-path="url(#clip-37)">
<path fill="none" stroke-width="4.98138" stroke-linecap="round" stroke-linejoin="miter" stroke="rgb(0%, 0%, 0%)" stroke-opacity="0.7" stroke-dasharray="0 12.45346" stroke-miterlimit="10" d="M -220.345054 28.511781 L -212.658973 23.820378 L -205.008076 18.585555 L -197.419732 12.826858 L -189.921307 6.563835 L -182.544076 -0.176147 L -175.323225 -7.365722 L -168.278301 -14.973614 L -161.448401 -22.972456 L -154.85307 -31.330972 L -148.519676 -40.010067 L -142.479495 -48.982375 L -136.752074 -58.204891 L -131.356961 -67.64243 L -126.325431 -77.259806 L -121.669214 -87.017924 L -117.411766 -96.87378 L -113.568725 -106.788278 L -110.155729 -116.726233 L -107.184507 -126.640731 L -104.670697 -136.500496 L -102.622118 -146.258614 L -101.050498 -155.87599 L -99.955837 -165.317438 L -99.345955 -174.543864 L -99.22476 -183.516172 L -99.588344 -192.203086 L -100.440616 -200.561602 L -101.777666 -208.568263 L -103.587765 -216.180064 L -105.870915 -223.373549 L -108.615385 -230.12135 L -111.805539 -236.388282 L -115.437467 -242.154798 L -119.491621 -247.397441 L -123.948454 -252.092753 L -128.796237 -256.225097 L -134.011513 -259.774925 L -139.574735 -262.730509 L -145.462445 -265.076211 L -151.651188 -266.804211 L -158.117505 -267.9106 L -164.837939 -268.387559 L -171.777306 -268.231179 L -178.912148 -267.449279 L -186.215098 -266.037948 L -193.654881 -264.008917 L -201.204131 -261.362183 L -208.82766 -258.117296 L -216.498104 -254.282075 L -224.188095 -249.872156 L -231.858539 -244.907088 L -239.482068 -239.406418 L -247.031318 -233.393603 L -254.471101 -226.888191 L -261.774051 -219.921458 L -268.908893 -212.52077 L -275.852169 -204.709584 L -282.568694 -196.530905 L -289.035011 -188.00428 L -295.223754 -179.176624 L -301.111464 -170.075302 L -306.674686 -160.739411 L -311.889962 -151.204134 L -316.737745 -141.512478 L -321.194578 -131.703536 L -325.248732 -121.812495 L -328.88066 -111.882359 L -332.070814 -101.948314 L -334.815284 -92.057273 L -337.098434 -82.244422 L -338.908533 -72.552765 L -340.245583 -63.017489 L -341.097855 -53.677688 L -341.461438 -44.576366 L -341.340244 -35.740891 L -340.730362 -27.214266 L -339.635701 -19.027768 L -338.064081 -11.212673 L -336.015502 -3.804166 L -333.501692 3.166477 L -330.53047 9.675799 L -327.117474 15.696432 L -323.274433 21.204921 L -319.016985 26.177808 L -314.360768 30.591637 L -309.329238 34.434677 L -303.934125 37.687383 L -298.206704 40.341936 L -292.166523 42.378786 L -285.833129 43.797936 L -279.237798 44.587655 L -272.407898 44.751854 L -265.362974 44.282714 L -258.142123 43.184144 L -250.764892 41.463963 L -243.266467 39.122171 L -235.678123 36.178316 L -228.027226 32.632397 L -220.345054 28.511781 " transform="matrix(0.999168, 0, 0, -0.999168, 353.411745, 372.425562)"/>
</g>
</g>
<g clip-path="url(#clip-38)">
<g clip-path="url(#clip-39)">
<path fill="none" stroke-width="4.98138" stroke-linecap="round" stroke-linejoin="miter" stroke="rgb(0%, 0%, 0%)" stroke-opacity="0.7" stroke-dasharray="0 12.45346" stroke-miterlimit="10" d="M -251.445146 -129.658867 L -249.463028 -92.014268 L -243.544041 -52.688583 L -233.789833 -12.299514 L -220.345054 28.511781 L -203.424728 69.100235 " transform="matrix(0.999168, 0, 0, -0.999168, 353.411745, 372.425562)"/>
</g>
</g>
<g clip-path="url(#clip-40)">
<g clip-path="url(#clip-41)">
<path fill="none" stroke-width="4.98138" stroke-linecap="round" stroke-linejoin="miter" stroke="rgb(0%, 0%, 0%)" stroke-opacity="0.7" stroke-dasharray="0 12.45346" stroke-miterlimit="10" d="M -251.445146 -129.658867 L -227.178864 -115.48692 L -199.327569 -99.266395 L -168.336944 -81.247498 L -134.687857 -61.719534 L -98.91591 -40.991352 " transform="matrix(0.999168, 0, 0, -0.999168, 353.411745, 372.425562)"/>
</g>
</g>
<g clip-path="url(#clip-42)">
<g clip-path="url(#clip-43)">
<path fill="none" stroke-width="4.98138" stroke-linecap="round" stroke-linejoin="miter" stroke="rgb(0%, 0%, 0%)" stroke-opacity="0.7" stroke-dasharray="0 12.45346" stroke-miterlimit="10" d="M -251.445146 -129.658867 L -217.948529 -146.598741 L -181.01546 -160.993528 L -141.224545 -172.624298 L -99.209122 -181.299484 L -55.62599 -186.886163 " transform="matrix(0.999168, 0, 0, -0.999168, 353.411745, 372.425562)"/>
</g>
</g>
<g clip-path="url(#clip-44)">
<g clip-path="url(#clip-45)">
<path fill="none" stroke-width="4.98138" stroke-linecap="round" stroke-linejoin="miter" stroke="rgb(0%, 0%, 0%)" stroke-opacity="0.7" stroke-dasharray="0 12.45346" stroke-miterlimit="10" d="M -251.445146 -129.658867 L -227.178864 -167.119719 L -199.327569 -201.710996 L -168.336944 -232.897096 L -134.687857 -260.177604 L -98.91591 -283.126383 " transform="matrix(0.999168, 0, 0, -0.999168, 353.411745, 372.425562)"/>
</g>
</g>
<g clip-path="url(#clip-46)">
<g clip-path="url(#clip-47)">
<path fill="none" stroke-width="4.98138" stroke-linecap="round" stroke-linejoin="miter" stroke="rgb(0%, 0%, 0%)" stroke-opacity="0.7" stroke-dasharray="0 12.45346" stroke-miterlimit="10" d="M -251.445146 -129.658867 L -249.463028 -165.028135 L -243.544041 -197.566923 L -233.789833 -226.763087 L -220.345054 -252.147486 L -203.424728 -273.32917 " transform="matrix(0.999168, 0, 0, -0.999168, 353.411745, 372.425562)"/>
</g>
</g>
<g clip-path="url(#clip-48)">
<g clip-path="url(#clip-49)">
<path fill="none" stroke-width="4.98138" stroke-linecap="round" stroke-linejoin="miter" stroke="rgb(0%, 0%, 0%)" stroke-opacity="0.7" stroke-dasharray="0 12.45346" stroke-miterlimit="10" d="M -251.445146 -129.658867 L -271.747192 -141.555482 L -287.760514 -150.989112 L -299.238813 -157.811193 L -305.998342 -161.916171 L -307.929636 -163.237583 " transform="matrix(0.999168, 0, 0, -0.999168, 353.411745, 372.425562)"/>
</g>
</g>
<g clip-path="url(#clip-50)">
<g clip-path="url(#clip-51)">
<path fill="none" stroke-width="4.98138" stroke-linecap="round" stroke-linejoin="miter" stroke="rgb(0%, 0%, 0%)" stroke-opacity="0.7" stroke-dasharray="0 12.45346" stroke-miterlimit="10" d="M -251.445146 -129.658867 L -280.977527 -110.443662 L -306.076532 -89.261978 L -326.351212 -66.438303 L -341.477077 -42.340131 L -351.219556 -17.342772 " transform="matrix(0.999168, 0, 0, -0.999168, 353.411745, 372.425562)"/>
</g>
</g>
<g clip-path="url(#clip-52)">
<g clip-path="url(#clip-53)">
<path fill="none" stroke-width="4.98138" stroke-linecap="round" stroke-linejoin="miter" stroke="rgb(0%, 0%, 0%)" stroke-opacity="0.7" stroke-dasharray="0 12.45346" stroke-miterlimit="10" d="M -251.445146 -129.658867 L -271.747192 -89.922684 L -287.760514 -48.544511 L -299.238813 -6.165505 L -305.998342 36.53799 L -307.929636 78.897448 " transform="matrix(0.999168, 0, 0, -0.999168, 353.411745, 372.425562)"/>
</g>
</g>
<g clip-path="url(#clip-54)">
<g clip-path="url(#clip-55)">
<path fill="none" stroke-width="4.98138" stroke-linecap="round" stroke-linejoin="miter" stroke="rgb(0%, 0%, 0%)" stroke-opacity="0.7" stroke-dasharray="0 12.45346" stroke-miterlimit="10" d="M -251.445146 -129.658867 L -249.463028 -92.014268 L -243.544041 -52.688583 L -233.789833 -12.299514 L -220.345054 28.511781 L -203.424728 69.100235 " transform="matrix(0.999168, 0, 0, -0.999168, 353.411745, 372.425562)"/>
</g>
</g>
<g clip-path="url(#clip-56)">
<g clip-path="url(#clip-57)">
<path fill-rule="nonzero" fill="rgb(57.249451%, 34.899902%, 63.919067%)" fill-opacity="1" d="M 556.667969 303.382812 L 547.300781 309.097656 L 537.972656 315.480469 L 528.71875 322.503906 L 519.578125 330.136719 L 510.585938 338.355469 L 501.78125 347.117188 L 493.195312 356.394531 L 484.867188 366.144531 L 476.828125 376.332031 L 469.109375 386.914062 L 461.742188 397.851562 L 454.761719 409.09375 L 448.1875 420.601562 L 442.050781 432.324219 L 436.375 444.21875 L 431.183594 456.234375 L 426.5 468.324219 L 422.339844 480.4375 L 418.71875 492.527344 L 415.652344 504.542969 L 413.15625 516.4375 L 411.238281 528.164062 L 409.902344 539.671875 L 409.160156 550.921875 L 409.011719 561.859375 L 409.457031 572.449219 L 410.496094 582.640625 L 412.125 592.398438 L 414.332031 601.679688 L 417.113281 610.449219 L 420.460938 618.671875 L 424.351562 626.316406 L 428.777344 633.34375 L 433.71875 639.734375 L 439.152344 645.460938 L 445.0625 650.496094 L 451.421875 654.824219 L 458.203125 658.425781 L 465.378906 661.285156 L 472.925781 663.394531 L 480.808594 664.742188 L 489 665.324219 L 497.460938 665.136719 L 506.160156 664.179688 L 515.0625 662.460938 L 524.132812 659.984375 L 533.332031 656.761719 L 542.628906 652.804688 L 551.980469 648.128906 L 561.351562 642.753906 L 570.703125 636.703125 L 580 629.996094 L 589.199219 622.664062 L 598.269531 614.734375 L 607.171875 606.242188 L 615.871094 597.214844 L 624.332031 587.699219 L 632.523438 577.722656 L 640.40625 567.332031 L 647.953125 556.566406 L 655.128906 545.472656 L 661.910156 534.09375 L 668.269531 522.46875 L 674.179688 510.65625 L 679.613281 498.695312 L 684.554688 486.636719 L 688.980469 474.53125 L 692.871094 462.421875 L 696.21875 450.363281 L 699 438.402344 L 701.207031 426.585938 L 702.835938 414.960938 L 703.875 403.578125 L 704.320312 392.476562 L 704.171875 381.710938 L 703.429688 371.3125 L 702.09375 361.332031 L 700.175781 351.808594 L 697.679688 342.777344 L 694.613281 334.277344 L 690.992188 326.339844 L 686.832031 319 L 682.148438 312.289062 L 676.957031 306.226562 L 671.28125 300.84375 L 665.144531 296.160156 L 658.570312 292.191406 L 651.589844 288.960938 L 644.222656 286.476562 L 636.503906 284.746094 L 628.464844 283.78125 L 620.136719 283.585938 L 611.550781 284.15625 L 602.746094 285.496094 L 593.753906 287.59375 L 584.613281 290.445312 L 575.359375 294.035156 L 566.03125 298.355469 L 556.667969 303.382812 "/>
</g>
</g>
<g clip-path="url(#clip-58)">
<g clip-path="url(#clip-59)">
<path fill="none" stroke-width="4.98138" stroke-linecap="round" stroke-linejoin="miter" stroke="rgb(0%, 0%, 0%)" stroke-opacity="0.7" stroke-dasharray="0 12.45346" stroke-miterlimit="10" d="M 249.463758 -92.014268 L 247.462093 -93.234033 L 245.472156 -94.59454 L 243.497858 -96.095789 L 241.547016 -97.722142 L 239.62745 -99.477508 L 237.750889 -101.34625 L 235.917332 -103.324459 L 234.138509 -105.408223 L 232.426147 -107.581907 L 230.776337 -109.841599 L 229.204717 -112.171662 L 227.715196 -114.572097 L 226.311685 -117.027264 L 225.002002 -119.529346 L 223.790056 -122.070523 L 222.683667 -124.631247 L 221.682834 -127.211518 L 220.795377 -129.799609 L 220.025205 -132.375971 L 219.368409 -134.940604 L 218.836717 -137.481781 L 218.426219 -139.983862 L 218.140825 -142.43903 L 217.984445 -144.839464 L 217.953169 -147.173437 L 218.046997 -149.43313 L 218.269839 -151.610723 L 218.617784 -153.690578 L 219.086925 -155.672696 L 219.681169 -157.545347 L 220.396608 -159.296804 L 221.225422 -160.930976 L 222.171522 -162.428316 L 223.223178 -163.792732 L 224.3843 -165.016406 L 225.64707 -166.09152 L 227.003667 -167.014162 L 228.450183 -167.780425 L 229.982708 -168.394216 L 231.593423 -168.843809 L 233.274509 -169.129203 L 235.022056 -169.254307 L 236.828247 -169.215212 L 238.68526 -169.011918 L 240.585278 -168.644425 L 242.520482 -168.116642 L 244.483052 -167.428569 L 246.46517 -166.584117 L 248.462926 -165.583284 L 250.460681 -164.4378 L 252.458437 -163.147664 L 254.440555 -161.716786 L 256.407035 -160.149076 L 258.342238 -158.456261 L 260.242256 -156.646162 L 262.09927 -154.718777 L 263.901551 -152.689745 L 265.649098 -150.559066 L 267.334094 -148.342379 L 268.944809 -146.043591 L 270.477334 -143.678342 L 271.92385 -141.246632 L 273.280447 -138.768007 L 274.539307 -136.246378 L 275.700429 -133.693473 L 276.755995 -131.121021 L 277.698185 -128.536839 L 278.530909 -125.952658 L 279.242438 -123.380206 L 279.836682 -120.827301 L 280.309732 -118.305672 L 280.657678 -115.823138 L 280.87661 -113.395337 L 280.974348 -111.026178 L 280.943072 -108.727391 L 280.782782 -106.510703 L 280.497388 -104.380024 L 280.086891 -102.347083 L 279.555198 -100.419698 L 278.902311 -98.605689 L 278.12823 -96.912875 L 277.240773 -95.345164 L 276.23994 -93.914286 L 275.133551 -92.620241 L 273.921605 -91.470847 L 272.611922 -90.470015 L 271.208411 -89.625562 L 269.71889 -88.93358 L 268.14727 -88.405797 L 266.50137 -88.034395 L 264.785098 -87.831101 L 263.006275 -87.788096 L 261.176627 -87.909291 L 259.296157 -88.194684 L 257.376591 -88.644277 L 255.425749 -89.25025 L 253.451451 -90.020422 L 251.461514 -90.939155 L 249.463758 -92.014268 " transform="matrix(0.999168, 0, 0, -0.999168, 353.411745, 372.425562)"/>
</g>
</g>
<g clip-path="url(#clip-60)">
<g clip-path="url(#clip-61)">
<path fill="none" stroke-width="4.98138" stroke-linecap="round" stroke-linejoin="miter" stroke="rgb(0%, 0%, 0%)" stroke-opacity="0.7" stroke-dasharray="0 12.45346" stroke-miterlimit="10" d="M 243.544772 -52.688583 L 239.580536 -55.108565 L 235.628029 -57.810032 L 231.710708 -60.785163 L 227.840301 -64.018321 L 224.032445 -67.493869 L 220.306689 -71.207896 L 216.670852 -75.133037 L 213.144481 -79.265381 L 209.739304 -83.577562 L 206.47096 -88.057852 L 203.351178 -92.690612 L 200.395594 -97.452386 L 197.612028 -102.323626 L 195.012209 -107.288694 L 192.607865 -112.324133 L 190.410725 -117.410396 L 188.428607 -122.531844 L 186.665421 -127.661111 L 185.132896 -132.77865 L 183.834942 -137.868822 L 182.775466 -142.904261 L 181.96229 -147.869329 L 181.399322 -152.744478 L 181.086561 -157.506252 L 181.0201 -162.139013 L 181.211665 -166.623212 L 181.64953 -170.939302 L 182.337602 -175.071647 L 183.275883 -179.000696 L 184.452643 -182.714724 L 185.867883 -186.19809 L 187.517693 -189.431249 L 189.390344 -192.41029 L 191.481928 -195.115665 L 193.784625 -197.539557 L 196.286707 -199.674145 L 198.980354 -201.503792 L 201.849929 -203.028498 L 204.891521 -204.240444 L 208.085585 -205.13181 L 211.4243 -205.702598 L 214.892029 -205.948896 L 218.473133 -205.870706 L 222.159794 -205.468028 L 225.928554 -204.736951 L 229.767685 -203.689204 L 233.665459 -202.324788 L 237.602328 -200.647611 L 241.562654 -198.669403 L 245.530799 -196.394073 L 249.491125 -193.829439 L 253.424084 -190.99114 L 257.321858 -187.886995 L 261.164899 -184.528733 L 264.933659 -180.931991 L 268.616411 -177.112407 L 272.201424 -173.08171 L 275.665243 -168.855538 L 279.003958 -164.457347 L 282.201931 -159.898868 L 285.239615 -155.199646 L 288.113099 -150.379229 L 290.802837 -145.461075 L 293.304918 -140.456912 L 295.607615 -135.394107 L 297.699199 -130.284387 L 299.57576 -125.159029 L 301.221661 -120.033672 L 302.6369 -114.927862 L 303.81757 -109.861147 L 304.751941 -104.856983 L 305.440014 -99.93492 L 305.881787 -95.114503 L 306.069443 -90.415282 L 306.006891 -85.852892 L 305.694131 -81.450793 L 305.127253 -77.224621 L 304.314077 -73.193924 L 303.258511 -69.37043 L 301.960556 -65.769778 L 300.428032 -62.407606 L 298.664846 -59.299552 L 296.678819 -56.457344 L 294.481678 -53.89271 L 292.081244 -51.61347 L 289.481425 -49.627443 L 286.697859 -47.950267 L 283.742275 -46.581941 L 280.622492 -45.526375 L 277.354148 -44.795298 L 273.948972 -44.38871 L 270.422601 -44.302701 L 266.786763 -44.54509 L 263.057098 -45.111968 L 259.249243 -45.999425 L 255.378835 -47.207461 L 251.461514 -48.728258 L 247.512917 -50.557905 L 243.544772 -52.688583 " transform="matrix(0.999168, 0, 0, -0.999168, 353.411745, 372.425562)"/>
</g>
</g>
<g clip-path="url(#clip-62)">
<g clip-path="url(#clip-63)">
<path fill="none" stroke-width="4.98138" stroke-linecap="round" stroke-linejoin="miter" stroke="rgb(0%, 0%, 0%)" stroke-opacity="0.7" stroke-dasharray="0 12.45346" stroke-miterlimit="10" d="M 233.786654 -12.299514 L 227.918491 -15.884528 L 222.069875 -19.883949 L 216.272083 -24.286049 L 210.540752 -29.071279 L 204.90325 -34.220094 L 199.386942 -39.712945 L 194.003557 -45.526375 L 188.784372 -51.640837 L 183.745023 -58.025054 L 178.905059 -64.65948 L 174.287937 -71.512838 L 169.913204 -78.56167 L 165.792588 -85.774702 L 161.945638 -93.124567 L 158.38799 -100.579988 L 155.135284 -108.109689 L 152.199248 -115.686305 L 149.587701 -123.278559 L 147.320189 -130.859084 L 145.400623 -138.388786 L 143.832913 -145.844207 L 142.632696 -153.194071 L 141.796062 -160.411013 L 141.330831 -167.459845 L 141.237003 -174.317113 L 141.514578 -180.955448 L 142.167465 -187.343575 L 143.187845 -193.458036 L 144.571809 -199.275376 L 146.315447 -204.776046 L 148.41094 -209.92877 L 150.85047 -214.71791 L 153.626217 -219.12392 L 156.722542 -223.131159 L 160.131629 -226.720083 L 163.833927 -229.875051 L 167.81771 -232.588246 L 172.071249 -234.844029 L 176.571086 -236.63849 L 181.297674 -237.959902 L 186.239286 -238.804355 L 191.372462 -239.167938 L 196.677657 -239.050653 L 202.131413 -238.452499 L 207.710273 -237.373477 L 213.394689 -235.821404 L 219.161205 -233.804101 L 224.990273 -231.321567 L 230.850617 -228.39335 L 236.726599 -225.023359 L 242.586944 -221.227232 L 248.412102 -217.024517 L 254.182528 -212.430851 L 259.866944 -207.457964 L 265.445804 -202.137132 L 270.89956 -196.480082 L 276.204755 -190.514181 L 281.334022 -184.258977 L 286.275633 -177.745746 L 291.006131 -171.001855 L 295.505968 -164.04685 L 299.755597 -156.912008 L 303.74329 -149.628605 L 307.445588 -142.220098 L 310.854674 -134.725582 L 313.951 -127.168514 L 316.722838 -119.57626 L 319.162367 -111.987916 L 321.26177 -104.430848 L 323.005408 -96.932422 L 324.389372 -89.523915 L 325.409752 -82.240512 L 326.058729 -75.101761 L 326.340213 -68.146756 L 326.246385 -61.395045 L 325.781155 -54.881814 L 324.944521 -48.62661 L 323.740394 -42.652891 L 322.176593 -36.995841 L 320.257028 -31.667189 L 317.985607 -26.690393 L 315.377969 -22.088908 L 312.441932 -17.882284 L 309.189226 -14.082247 L 305.631579 -10.708347 L 301.784629 -7.77231 L 297.664013 -5.285867 L 293.285371 -3.260745 L 288.668248 -1.700853 L 283.832194 -0.617921 L 278.792845 -0.0158577 L 273.56975 0.109246 L 268.190275 -0.250428 L 262.670057 -1.087061 L 257.036464 -2.404564 L 251.305134 -4.191206 L 245.507342 -6.44308 L 239.658726 -9.148455 L 233.786654 -12.299514 " transform="matrix(0.999168, 0, 0, -0.999168, 353.411745, 372.425562)"/>
</g>
</g>
<g clip-path="url(#clip-64)">
<g clip-path="url(#clip-65)">
<path fill="none" stroke-width="4.98138" stroke-linecap="round" stroke-linejoin="miter" stroke="rgb(0%, 0%, 0%)" stroke-opacity="0.7" stroke-dasharray="0 12.45346" stroke-miterlimit="10" d="M 220.341875 28.511781 L 212.659703 23.820378 L 205.008807 18.585555 L 197.416553 12.826858 L 189.922037 6.563835 L 182.544806 -0.176147 L 175.320045 -7.365722 L 168.279032 -14.973614 L 161.449131 -22.972456 L 154.8538 -31.330972 L 148.520406 -40.010067 L 142.480225 -48.982375 L 136.748895 -58.204891 L 131.357691 -67.64243 L 126.326161 -77.259806 L 121.669944 -87.017924 L 117.412496 -96.87378 L 113.569455 -106.788278 L 110.156459 -116.726233 L 107.185238 -126.640731 L 104.671428 -136.500496 L 102.622848 -146.258614 L 101.047319 -155.87599 L 99.956568 -165.317438 L 99.346685 -174.543864 L 99.225491 -183.516172 L 99.589074 -192.203086 L 100.441346 -200.561602 L 101.774486 -208.568263 L 103.588495 -216.180064 L 105.871645 -223.373549 L 108.612206 -230.12135 L 111.806269 -236.388282 L 115.438197 -242.154798 L 119.488442 -247.397441 L 123.949184 -252.092753 L 128.796967 -256.225097 L 134.012243 -259.774925 L 139.575465 -262.730509 L 145.463176 -265.076211 L 151.651918 -266.804211 L 158.118235 -267.9106 L 164.83476 -268.387559 L 171.778036 -268.231179 L 178.912878 -267.449279 L 186.215829 -266.037948 L 193.655612 -264.008917 L 201.204861 -261.362183 L 208.82839 -258.117296 L 216.498834 -254.282075 L 224.184916 -249.872156 L 231.859269 -244.907088 L 239.482799 -239.406418 L 247.032048 -233.393603 L 254.471831 -226.888191 L 261.774781 -219.921458 L 268.909623 -212.52077 L 275.84899 -204.709584 L 282.565515 -196.530905 L 289.035742 -188.00428 L 295.224484 -179.176624 L 301.112194 -170.075302 L 306.675416 -160.739411 L 311.890693 -151.204134 L 316.738476 -141.512478 L 321.195308 -131.703536 L 325.249462 -121.812495 L 328.87748 -111.882359 L 332.071544 -101.948314 L 334.816015 -92.057273 L 337.099164 -82.244422 L 338.909264 -72.552765 L 340.246313 -63.017489 L 341.098585 -53.677688 L 341.462169 -44.576366 L 341.340974 -35.740891 L 340.731092 -27.214266 L 339.636431 -19.027768 L 338.064811 -11.212673 L 336.016232 -3.804166 L 333.502422 3.166477 L 330.5312 9.675799 L 327.118204 15.696432 L 323.275164 21.204921 L 319.017715 26.177808 L 314.361498 30.591637 L 309.326059 34.434677 L 303.934855 37.687383 L 298.207434 40.341936 L 292.163343 42.378786 L 285.833859 43.797936 L 279.238529 44.587655 L 272.404718 44.751854 L 265.363705 44.282714 L 258.142854 43.184144 L 250.765623 41.463963 L 243.267197 39.122171 L 235.678853 36.178316 L 228.027957 32.632397 L 220.341875 28.511781 " transform="matrix(0.999168, 0, 0, -0.999168, 353.411745, 372.425562)"/>
</g>
</g>
<g clip-path="url(#clip-66)">
<g clip-path="url(#clip-67)">
<path fill="none" stroke-width="4.98138" stroke-linecap="round" stroke-linejoin="miter" stroke="rgb(0%, 0%, 0%)" stroke-opacity="0.7" stroke-dasharray="0 12.45346" stroke-miterlimit="10" d="M 251.445876 -129.658867 L 249.463758 -92.014268 L 243.544772 -52.688583 L 233.786654 -12.299514 L 220.341875 28.511781 L 203.425458 69.100235 " transform="matrix(0.999168, 0, 0, -0.999168, 353.411745, 372.425562)"/>
</g>
</g>
<g clip-path="url(#clip-68)">
<g clip-path="url(#clip-69)">
<path fill="none" stroke-width="4.98138" stroke-linecap="round" stroke-linejoin="miter" stroke="rgb(0%, 0%, 0%)" stroke-opacity="0.7" stroke-dasharray="0 12.45346" stroke-miterlimit="10" d="M 251.445876 -129.658867 L 227.179595 -115.48692 L 199.3283 -99.266395 L 168.337674 -81.247498 L 134.688587 -61.719534 L 98.91664 -40.991352 " transform="matrix(0.999168, 0, 0, -0.999168, 353.411745, 372.425562)"/>
</g>
</g>
<g clip-path="url(#clip-70)">
<g clip-path="url(#clip-71)">
<path fill="none" stroke-width="4.98138" stroke-linecap="round" stroke-linejoin="miter" stroke="rgb(0%, 0%, 0%)" stroke-opacity="0.7" stroke-dasharray="0 12.45346" stroke-miterlimit="10" d="M 251.445876 -129.658867 L 217.949259 -146.598741 L 181.012281 -160.993528 L 141.225275 -172.624298 L 99.209853 -181.299484 L 55.62672 -186.886163 " transform="matrix(0.999168, 0, 0, -0.999168, 353.411745, 372.425562)"/>
</g>
</g>
<g clip-path="url(#clip-72)">
<g clip-path="url(#clip-73)">
<path fill="none" stroke-width="4.98138" stroke-linecap="round" stroke-linejoin="miter" stroke="rgb(0%, 0%, 0%)" stroke-opacity="0.7" stroke-dasharray="0 12.45346" stroke-miterlimit="10" d="M 251.445876 -129.658867 L 227.179595 -167.119719 L 199.3283 -201.710996 L 168.337674 -232.897096 L 134.688587 -260.177604 L 98.91664 -283.126383 " transform="matrix(0.999168, 0, 0, -0.999168, 353.411745, 372.425562)"/>
</g>
</g>
<g clip-path="url(#clip-74)">
<g clip-path="url(#clip-75)">
<path fill="none" stroke-width="4.98138" stroke-linecap="round" stroke-linejoin="miter" stroke="rgb(0%, 0%, 0%)" stroke-opacity="0.7" stroke-dasharray="0 12.45346" stroke-miterlimit="10" d="M 251.445876 -129.658867 L 249.463758 -165.028135 L 243.544772 -197.566923 L 233.786654 -226.763087 L 220.341875 -252.147486 L 203.425458 -273.32917 " transform="matrix(0.999168, 0, 0, -0.999168, 353.411745, 372.425562)"/>
</g>
</g>
<g clip-path="url(#clip-76)">
<g clip-path="url(#clip-77)">
<path fill="none" stroke-width="4.98138" stroke-linecap="round" stroke-linejoin="miter" stroke="rgb(0%, 0%, 0%)" stroke-opacity="0.7" stroke-dasharray="0 12.45346" stroke-miterlimit="10" d="M 251.445876 -129.658867 L 271.747922 -141.555482 L 287.761244 -150.989112 L 299.239543 -157.811193 L 305.999072 -161.916171 L 307.930367 -163.237583 " transform="matrix(0.999168, 0, 0, -0.999168, 353.411745, 372.425562)"/>
</g>
</g>
<g clip-path="url(#clip-78)">
<g clip-path="url(#clip-79)">
<path fill="none" stroke-width="4.98138" stroke-linecap="round" stroke-linejoin="miter" stroke="rgb(0%, 0%, 0%)" stroke-opacity="0.7" stroke-dasharray="0 12.45346" stroke-miterlimit="10" d="M 251.445876 -129.658867 L 280.978257 -110.443662 L 306.077262 -89.261978 L 326.351942 -66.438303 L 341.477807 -42.340131 L 351.220287 -17.342772 " transform="matrix(0.999168, 0, 0, -0.999168, 353.411745, 372.425562)"/>
</g>
</g>
<g clip-path="url(#clip-80)">
<g clip-path="url(#clip-81)">
<path fill="none" stroke-width="4.98138" stroke-linecap="round" stroke-linejoin="miter" stroke="rgb(0%, 0%, 0%)" stroke-opacity="0.7" stroke-dasharray="0 12.45346" stroke-miterlimit="10" d="M 251.445876 -129.658867 L 271.747922 -89.922684 L 287.761244 -48.544511 L 299.239543 -6.165505 L 305.999072 36.53799 L 307.930367 78.897448 " transform="matrix(0.999168, 0, 0, -0.999168, 353.411745, 372.425562)"/>
</g>
</g>
<g clip-path="url(#clip-82)">
<g clip-path="url(#clip-83)">
<path fill="none" stroke-width="4.98138" stroke-linecap="round" stroke-linejoin="miter" stroke="rgb(0%, 0%, 0%)" stroke-opacity="0.7" stroke-dasharray="0 12.45346" stroke-miterlimit="10" d="M 251.445876 -129.658867 L 249.463758 -92.014268 L 243.544772 -52.688583 L 233.786654 -12.299514 L 220.341875 28.511781 L 203.425458 69.100235 " transform="matrix(0.999168, 0, 0, -0.999168, 353.411745, 372.425562)"/>
</g>
</g>
<g clip-path="url(#clip-84)">
<g clip-path="url(#clip-85)">
<path fill="none" stroke-width="34.86969" stroke-linecap="round" stroke-linejoin="miter" stroke="rgb(0%, 0%, 0%)" stroke-opacity="0.5" stroke-miterlimit="10" d="M -0.00158966 305.851881 L -3.989282 303.529637 L -7.976975 301.129202 L -11.964667 298.662306 L -15.94845 296.12113 L -19.928323 293.505673 L -23.900378 290.823754 L -27.868523 288.071464 L -31.832758 285.252713 L -35.785265 282.363591 L -39.729953 279.408007 L -43.662912 276.382052 L -47.588053 273.293545 L -51.497555 270.138577 L -55.395329 266.921056 L -59.281374 263.640984 L -63.151782 260.29445 L -67.002642 256.889273 L -70.841773 253.421545 L -74.657447 249.895174 L -78.457484 246.30625 L -82.237973 242.662594 L -85.998914 238.960295 L -89.736398 235.199354 L -93.454335 231.38368 L -97.144905 227.517182 L -100.812018 223.592041 L -104.455675 219.616077 L -108.068055 215.58929 L -111.656978 211.511679 L -115.218535 207.383244 L -118.748815 203.207896 L -122.25173 198.985633 L -125.723368 194.716457 L -129.15982 190.400366 L -132.568906 186.041271 L -135.942807 181.639171 L -139.281522 177.194067 L -142.585052 172.709868 L -145.853396 168.182664 L -149.082645 163.620275 L -152.276708 159.01879 L -155.431676 154.378211 L -158.551459 149.706356 L -161.624328 144.999315 L -164.662012 140.260998 L -167.65669 135.487495 L -170.608365 130.686626 L -173.517035 125.854481 L -176.3827 120.99497 L -179.205361 116.108092 L -181.981107 111.197757 L -184.70994 106.260055 L -187.391859 101.302806 L -190.030773 96.3221 L -192.618863 91.317937 L -195.16004 86.298136 L -197.650393 81.258788 L -200.089922 76.203801 L -202.482538 71.133176 L -204.82042 66.046914 L -207.111389 60.948923 L -209.347624 55.839203 L -211.529126 50.717755 L -213.659805 45.588488 L -215.735751 40.451402 L -217.756964 35.306496 L -219.723443 30.157682 L -221.6391 25.004958 L -223.492204 19.848324 L -225.294484 14.69169 L -227.038122 9.535057 L -228.723118 4.378423 L -230.349471 -0.774301 L -231.921091 -5.923116 L -233.434068 -11.068021 L -234.888403 -16.205107 L -236.280186 -21.334374 L -237.617236 -26.455822 L -238.891734 -31.565542 L -240.107589 -36.663533 L -241.260892 -41.749796 L -242.355553 -46.82433 L -243.387661 -51.879316 L -244.357218 -56.918665 L -245.268132 -61.942376 L -246.116494 -66.942629 L -246.902304 -71.927245 L -247.625562 -76.884494 L -248.286268 -81.822195 L -248.884422 -86.73644 L -249.423933 -91.623318 L -249.896983 -96.482829 L -250.307481 -101.314974 L -250.655426 -106.119753 L -250.94082 -110.893255 L -251.159752 -115.635482 L -251.320042 -120.342522 L -251.41387 -125.018287 L -251.445146 -129.658867 " transform="matrix(0.999168, 0, 0, -0.999168, 353.411745, 372.425562)"/>
<path fill="none" stroke-width="34.86969" stroke-linecap="round" stroke-linejoin="miter" stroke="rgb(0%, 0%, 0%)" stroke-opacity="0.5" stroke-miterlimit="10" d="M -0.00158966 305.851881 L 3.990012 303.529637 L 7.977705 301.129202 L 11.965397 298.662306 L 15.94918 296.12113 L 19.925144 293.505673 L 23.901108 290.823754 L 27.869253 288.071464 L 31.829579 285.252713 L 35.785995 282.363591 L 39.726774 279.408007 L 43.663643 276.382052 L 47.584874 273.293545 L 51.498285 270.138577 L 55.396059 266.921056 L 59.282105 263.640984 L 63.148603 260.29445 L 67.003372 256.889273 L 70.838594 253.421545 L 74.658178 249.895174 L 78.458214 246.30625 L 82.238703 242.662594 L 85.999644 238.960295 L 89.737128 235.199354 L 93.451156 231.38368 L 97.145635 227.517182 L 100.812749 223.592041 L 104.452495 219.616077 L 108.068785 215.58929 L 111.657708 211.511679 L 115.219265 207.383244 L 118.749546 203.207896 L 122.25246 198.985633 L 125.724098 194.716457 L 129.160551 190.400366 L 132.569637 186.041271 L 135.943537 181.639171 L 139.282252 177.194067 L 142.585782 172.709868 L 145.854126 168.182664 L 149.083375 163.620275 L 152.277438 159.01879 L 155.432407 154.378211 L 158.54828 149.706356 L 161.625058 144.999315 L 164.662742 140.260998 L 167.657421 135.487495 L 170.609095 130.686626 L 173.517765 125.854481 L 176.38343 120.99497 L 179.202181 116.108092 L 181.977928 111.197757 L 184.71067 106.260055 L 187.392589 101.302806 L 190.031503 96.3221 L 192.619593 91.317937 L 195.15686 86.298136 L 197.651123 81.258788 L 200.090653 76.203801 L 202.483268 71.133176 L 204.82115 66.046914 L 207.108209 60.948923 L 209.344445 55.839203 L 211.529857 50.717755 L 213.660535 45.588488 L 215.736481 40.451402 L 217.757694 35.306496 L 219.724174 30.157682 L 221.63592 25.004958 L 223.492934 19.848324 L 225.295214 14.69169 L 227.034943 9.535057 L 228.723848 4.378423 L 230.350201 -0.774301 L 231.921821 -5.923116 L 233.434798 -11.068021 L 234.885224 -16.205107 L 236.280916 -21.334374 L 237.617966 -26.455822 L 238.892464 -31.565542 L 240.10441 -36.663533 L 241.261622 -41.749796 L 242.352373 -46.82433 L 243.384482 -51.879316 L 244.357948 -56.918665 L 245.268862 -61.942376 L 246.117224 -66.942629 L 246.903034 -71.927245 L 247.626292 -76.884494 L 248.286998 -81.822195 L 248.885152 -86.73644 L 249.420754 -91.623318 L 249.897713 -96.482829 L 250.308211 -101.314974 L 250.656157 -106.119753 L 250.937641 -110.893255 L 251.160482 -115.635482 L 251.316862 -120.342522 L 251.4146 -125.018287 L 251.445876 -129.658867 " transform="matrix(0.999168, 0, 0, -0.999168, 353.411745, 372.425562)"/>
</g>
</g>
<g clip-path="url(#clip-86)">
<g clip-path="url(#clip-87)">
<path fill="none" stroke-width="34.86969" stroke-linecap="round" stroke-linejoin="miter" stroke="rgb(0%, 0%, 0%)" stroke-opacity="0.5" stroke-miterlimit="10" d="M -251.445146 -129.658867 L -247.426177 -131.930288 L -243.340747 -134.162613 L -239.196675 -136.355844 L -234.99005 -138.51389 L -230.728693 -140.63284 L -226.404783 -142.716605 L -222.02614 -144.753455 L -217.592765 -146.755121 L -213.100746 -148.713781 L -208.557905 -150.633347 L -203.96033 -152.509908 L -199.315841 -154.347374 L -194.616619 -156.137926 L -189.870483 -157.889383 L -185.077433 -159.593927 L -180.237469 -161.255465 L -175.350591 -162.873999 L -170.420709 -164.449528 L -165.447822 -165.978144 L -160.43193 -167.459845 L -155.376943 -168.898542 L -150.282862 -170.286416 L -145.149685 -171.631284 L -139.981323 -172.929239 L -134.777775 -174.18028 L -129.539042 -175.384407 L -124.269033 -176.53771 L -118.967748 -177.644099 L -113.635186 -178.703574 L -108.275259 -179.712226 L -102.887964 -180.673963 L -97.473303 -181.584877 L -92.035186 -182.448878 L -86.573611 -183.262054 L -81.092488 -184.024407 L -75.587909 -184.735936 L -70.063782 -185.400552 L -64.524017 -186.010434 L -58.968614 -186.573403 L -53.397573 -187.085547 L -47.814804 -187.546869 L -42.216397 -187.953457 L -36.61017 -188.313131 L -30.992215 -188.621982 L -25.366441 -188.880009 L -19.736758 -189.083303 L -14.103165 -189.235774 L -8.461753 -189.34133 L -2.820341 -189.392154 L 2.821071 -189.392154 L 8.462483 -189.34133 L 14.099985 -189.235774 L 19.737488 -189.083303 L 25.367171 -188.880009 L 30.992945 -188.621982 L 36.606991 -188.313131 L 42.217127 -187.953457 L 47.811625 -187.546869 L 53.398304 -187.085547 L 58.969344 -186.573403 L 64.524747 -186.010434 L 70.064512 -185.400552 L 75.588639 -184.735936 L 81.089309 -184.024407 L 86.574341 -183.262054 L 92.035916 -182.448878 L 97.474034 -181.584877 L 102.888694 -180.673963 L 108.275989 -179.712226 L 113.635917 -178.703574 L 118.968478 -177.644099 L 124.269763 -176.53771 L 129.539772 -175.384407 L 134.778505 -174.18028 L 139.982053 -172.929239 L 145.150415 -171.631284 L 150.283592 -170.286416 L 155.377674 -168.898542 L 160.43266 -167.459845 L 165.444642 -165.978144 L 170.421439 -164.449528 L 175.351321 -162.873999 L 180.23429 -161.255465 L 185.078163 -159.593927 L 189.871213 -157.889383 L 194.617349 -156.137926 L 199.316571 -154.347374 L 203.96106 -152.509908 L 208.558635 -150.633347 L 213.101476 -148.713781 L 217.589585 -146.755121 L 222.02687 -144.753455 L 226.405513 -142.716605 L 230.725513 -140.63284 L 234.99078 -138.51389 L 239.197405 -136.355844 L 243.341478 -134.162613 L 247.422998 -131.930288 L 251.445876 -129.658867 " transform="matrix(0.999168, 0, 0, -0.999168, 353.411745, 372.425562)"/>
</g>
</g>
</svg>
