<?xml version="1.0" encoding="utf-8"?>
<svg xmlns="http://www.w3.org/2000/svg" xmlns:xlink="http://www.w3.org/1999/xlink" width="600" height="400" viewBox="0 0 2400 1600">
<defs>
  <clipPath id="clip720">
    <rect x="0" y="0" width="2400" height="1600"/>
  </clipPath>
</defs>
<path clip-path="url(#clip720)" d="M0 1600 L2400 1600 L2400 0 L0 0  Z" fill="#ffffff" fill-rule="evenodd" fill-opacity="1"/>
<defs>
  <clipPath id="clip721">
    <rect x="194" y="47" width="2159" height="1440"/>
  </clipPath>
</defs>
<path clip-path="url(#clip720)" d="M194.422 1486.45 L2352.76 1486.45 L2352.76 47.2441 L194.422 47.2441  Z" fill="#ffffff" fill-rule="evenodd" fill-opacity="1"/>
<polyline clip-path="url(#clip721)" style="stroke:#000000; stroke-linecap:round; stroke-linejoin:round; stroke-width:2; stroke-opacity:0.1; fill:none" points="379.497,1486.45 379.497,47.2441 "/>
<polyline clip-path="url(#clip721)" style="stroke:#000000; stroke-linecap:round; stroke-linejoin:round; stroke-width:2; stroke-opacity:0.1; fill:none" points="661.989,1486.45 661.989,47.2441 "/>
<polyline clip-path="url(#clip721)" style="stroke:#000000; stroke-linecap:round; stroke-linejoin:round; stroke-width:2; stroke-opacity:0.1; fill:none" points="944.481,1486.45 944.481,47.2441 "/>
<polyline clip-path="url(#clip721)" style="stroke:#000000; stroke-linecap:round; stroke-linejoin:round; stroke-width:2; stroke-opacity:0.1; fill:none" points="1226.97,1486.45 1226.97,47.2441 "/>
<polyline clip-path="url(#clip721)" style="stroke:#000000; stroke-linecap:round; stroke-linejoin:round; stroke-width:2; stroke-opacity:0.1; fill:none" points="1509.46,1486.45 1509.46,47.2441 "/>
<polyline clip-path="url(#clip721)" style="stroke:#000000; stroke-linecap:round; stroke-linejoin:round; stroke-width:2; stroke-opacity:0.1; fill:none" points="1791.96,1486.45 1791.96,47.2441 "/>
<polyline clip-path="url(#clip721)" style="stroke:#000000; stroke-linecap:round; stroke-linejoin:round; stroke-width:2; stroke-opacity:0.1; fill:none" points="2074.45,1486.45 2074.45,47.2441 "/>
<polyline clip-path="url(#clip721)" style="stroke:#000000; stroke-linecap:round; stroke-linejoin:round; stroke-width:2; stroke-opacity:0.1; fill:none" points="194.422,1310.96 2352.76,1310.96 "/>
<polyline clip-path="url(#clip721)" style="stroke:#000000; stroke-linecap:round; stroke-linejoin:round; stroke-width:2; stroke-opacity:0.1; fill:none" points="194.422,1028.47 2352.76,1028.47 "/>
<polyline clip-path="url(#clip721)" style="stroke:#000000; stroke-linecap:round; stroke-linejoin:round; stroke-width:2; stroke-opacity:0.1; fill:none" points="194.422,745.976 2352.76,745.976 "/>
<polyline clip-path="url(#clip721)" style="stroke:#000000; stroke-linecap:round; stroke-linejoin:round; stroke-width:2; stroke-opacity:0.1; fill:none" points="194.422,463.484 2352.76,463.484 "/>
<polyline clip-path="url(#clip721)" style="stroke:#000000; stroke-linecap:round; stroke-linejoin:round; stroke-width:2; stroke-opacity:0.1; fill:none" points="194.422,180.992 2352.76,180.992 "/>
<polyline clip-path="url(#clip720)" style="stroke:#000000; stroke-linecap:round; stroke-linejoin:round; stroke-width:4; stroke-opacity:1; fill:none" points="194.422,1486.45 2352.76,1486.45 "/>
<polyline clip-path="url(#clip720)" style="stroke:#000000; stroke-linecap:round; stroke-linejoin:round; stroke-width:4; stroke-opacity:1; fill:none" points="379.497,1486.45 379.497,1467.55 "/>
<polyline clip-path="url(#clip720)" style="stroke:#000000; stroke-linecap:round; stroke-linejoin:round; stroke-width:4; stroke-opacity:1; fill:none" points="661.989,1486.45 661.989,1467.55 "/>
<polyline clip-path="url(#clip720)" style="stroke:#000000; stroke-linecap:round; stroke-linejoin:round; stroke-width:4; stroke-opacity:1; fill:none" points="944.481,1486.45 944.481,1467.55 "/>
<polyline clip-path="url(#clip720)" style="stroke:#000000; stroke-linecap:round; stroke-linejoin:round; stroke-width:4; stroke-opacity:1; fill:none" points="1226.97,1486.45 1226.97,1467.55 "/>
<polyline clip-path="url(#clip720)" style="stroke:#000000; stroke-linecap:round; stroke-linejoin:round; stroke-width:4; stroke-opacity:1; fill:none" points="1509.46,1486.45 1509.46,1467.55 "/>
<polyline clip-path="url(#clip720)" style="stroke:#000000; stroke-linecap:round; stroke-linejoin:round; stroke-width:4; stroke-opacity:1; fill:none" points="1791.96,1486.45 1791.96,1467.55 "/>
<polyline clip-path="url(#clip720)" style="stroke:#000000; stroke-linecap:round; stroke-linejoin:round; stroke-width:4; stroke-opacity:1; fill:none" points="2074.45,1486.45 2074.45,1467.55 "/>
<path clip-path="url(#clip720)" d="M325.944 1532.02 L355.619 1532.02 L355.619 1535.95 L325.944 1535.95 L325.944 1532.02 Z" fill="#000000" fill-rule="nonzero" fill-opacity="1" /><path clip-path="url(#clip720)" d="M375.712 1517.37 Q372.101 1517.37 370.272 1520.93 Q368.466 1524.47 368.466 1531.6 Q368.466 1538.71 370.272 1542.27 Q372.101 1545.82 375.712 1545.82 Q379.346 1545.82 381.152 1542.27 Q382.98 1538.71 382.98 1531.6 Q382.98 1524.47 381.152 1520.93 Q379.346 1517.37 375.712 1517.37 M375.712 1513.66 Q381.522 1513.66 384.578 1518.27 Q387.656 1522.85 387.656 1531.6 Q387.656 1540.33 384.578 1544.94 Q381.522 1549.52 375.712 1549.52 Q369.902 1549.52 366.823 1544.94 Q363.767 1540.33 363.767 1531.6 Q363.767 1522.85 366.823 1518.27 Q369.902 1513.66 375.712 1513.66 Z" fill="#000000" fill-rule="nonzero" fill-opacity="1" /><path clip-path="url(#clip720)" d="M395.874 1542.97 L400.758 1542.97 L400.758 1548.85 L395.874 1548.85 L395.874 1542.97 Z" fill="#000000" fill-rule="nonzero" fill-opacity="1" /><path clip-path="url(#clip720)" d="M421.522 1529.7 Q418.374 1529.7 416.522 1531.86 Q414.693 1534.01 414.693 1537.76 Q414.693 1541.49 416.522 1543.66 Q418.374 1545.82 421.522 1545.82 Q424.67 1545.82 426.499 1543.66 Q428.35 1541.49 428.35 1537.76 Q428.35 1534.01 426.499 1531.86 Q424.67 1529.7 421.522 1529.7 M430.804 1515.05 L430.804 1519.31 Q429.045 1518.48 427.239 1518.04 Q425.457 1517.6 423.698 1517.6 Q419.068 1517.6 416.614 1520.72 Q414.184 1523.85 413.837 1530.17 Q415.202 1528.15 417.263 1527.09 Q419.323 1526 421.8 1526 Q427.008 1526 430.017 1529.17 Q433.049 1532.32 433.049 1537.76 Q433.049 1543.08 429.901 1546.3 Q426.753 1549.52 421.522 1549.52 Q415.526 1549.52 412.355 1544.94 Q409.184 1540.33 409.184 1531.6 Q409.184 1523.41 413.073 1518.55 Q416.962 1513.66 423.512 1513.66 Q425.272 1513.66 427.054 1514.01 Q428.86 1514.36 430.804 1515.05 Z" fill="#000000" fill-rule="nonzero" fill-opacity="1" /><path clip-path="url(#clip720)" d="M608.274 1532.02 L637.949 1532.02 L637.949 1535.95 L608.274 1535.95 L608.274 1532.02 Z" fill="#000000" fill-rule="nonzero" fill-opacity="1" /><path clip-path="url(#clip720)" d="M658.042 1517.37 Q654.431 1517.37 652.602 1520.93 Q650.797 1524.47 650.797 1531.6 Q650.797 1538.71 652.602 1542.27 Q654.431 1545.82 658.042 1545.82 Q661.676 1545.82 663.482 1542.27 Q665.31 1538.71 665.31 1531.6 Q665.31 1524.47 663.482 1520.93 Q661.676 1517.37 658.042 1517.37 M658.042 1513.66 Q663.852 1513.66 666.908 1518.27 Q669.986 1522.85 669.986 1531.6 Q669.986 1540.33 666.908 1544.94 Q663.852 1549.52 658.042 1549.52 Q652.232 1549.52 649.153 1544.94 Q646.097 1540.33 646.097 1531.6 Q646.097 1522.85 649.153 1518.27 Q652.232 1513.66 658.042 1513.66 Z" fill="#000000" fill-rule="nonzero" fill-opacity="1" /><path clip-path="url(#clip720)" d="M678.204 1542.97 L683.088 1542.97 L683.088 1548.85 L678.204 1548.85 L678.204 1542.97 Z" fill="#000000" fill-rule="nonzero" fill-opacity="1" /><path clip-path="url(#clip720)" d="M706.12 1518.36 L694.315 1536.81 L706.12 1536.81 L706.12 1518.36 M704.893 1514.29 L710.773 1514.29 L710.773 1536.81 L715.704 1536.81 L715.704 1540.7 L710.773 1540.7 L710.773 1548.85 L706.12 1548.85 L706.12 1540.7 L690.519 1540.7 L690.519 1536.19 L704.893 1514.29 Z" fill="#000000" fill-rule="nonzero" fill-opacity="1" /><path clip-path="url(#clip720)" d="M891.807 1532.02 L921.483 1532.02 L921.483 1535.95 L891.807 1535.95 L891.807 1532.02 Z" fill="#000000" fill-rule="nonzero" fill-opacity="1" /><path clip-path="url(#clip720)" d="M941.576 1517.37 Q937.964 1517.37 936.136 1520.93 Q934.33 1524.47 934.33 1531.6 Q934.33 1538.71 936.136 1542.27 Q937.964 1545.82 941.576 1545.82 Q945.21 1545.82 947.015 1542.27 Q948.844 1538.71 948.844 1531.6 Q948.844 1524.47 947.015 1520.93 Q945.21 1517.37 941.576 1517.37 M941.576 1513.66 Q947.386 1513.66 950.441 1518.27 Q953.52 1522.85 953.52 1531.6 Q953.52 1540.33 950.441 1544.94 Q947.386 1549.52 941.576 1549.52 Q935.765 1549.52 932.687 1544.94 Q929.631 1540.33 929.631 1531.6 Q929.631 1522.85 932.687 1518.27 Q935.765 1513.66 941.576 1513.66 Z" fill="#000000" fill-rule="nonzero" fill-opacity="1" /><path clip-path="url(#clip720)" d="M961.737 1542.97 L966.622 1542.97 L966.622 1548.85 L961.737 1548.85 L961.737 1542.97 Z" fill="#000000" fill-rule="nonzero" fill-opacity="1" /><path clip-path="url(#clip720)" d="M980.835 1544.91 L997.154 1544.91 L997.154 1548.85 L975.21 1548.85 L975.21 1544.91 Q977.872 1542.16 982.455 1537.53 Q987.061 1532.88 988.242 1531.53 Q990.487 1529.01 991.367 1527.27 Q992.27 1525.51 992.27 1523.82 Q992.27 1521.07 990.325 1519.33 Q988.404 1517.6 985.302 1517.6 Q983.103 1517.6 980.649 1518.36 Q978.219 1519.13 975.441 1520.68 L975.441 1515.95 Q978.265 1514.82 980.719 1514.24 Q983.173 1513.66 985.21 1513.66 Q990.58 1513.66 993.774 1516.35 Q996.969 1519.03 996.969 1523.52 Q996.969 1525.65 996.159 1527.57 Q995.372 1529.47 993.265 1532.07 Q992.686 1532.74 989.585 1535.95 Q986.483 1539.15 980.835 1544.91 Z" fill="#000000" fill-rule="nonzero" fill-opacity="1" /><path clip-path="url(#clip720)" d="M1204.36 1517.37 Q1200.75 1517.37 1198.92 1520.93 Q1197.11 1524.47 1197.11 1531.6 Q1197.11 1538.71 1198.92 1542.27 Q1200.75 1545.82 1204.36 1545.82 Q1207.99 1545.82 1209.8 1542.27 Q1211.63 1538.71 1211.63 1531.6 Q1211.63 1524.47 1209.8 1520.93 Q1207.99 1517.37 1204.36 1517.37 M1204.36 1513.66 Q1210.17 1513.66 1213.22 1518.27 Q1216.3 1522.85 1216.3 1531.6 Q1216.3 1540.33 1213.22 1544.94 Q1210.17 1549.52 1204.36 1549.52 Q1198.55 1549.52 1195.47 1544.94 Q1192.41 1540.33 1192.41 1531.6 Q1192.41 1522.85 1195.47 1518.27 Q1198.55 1513.66 1204.36 1513.66 Z" fill="#000000" fill-rule="nonzero" fill-opacity="1" /><path clip-path="url(#clip720)" d="M1224.52 1542.97 L1229.4 1542.97 L1229.4 1548.85 L1224.52 1548.85 L1224.52 1542.97 Z" fill="#000000" fill-rule="nonzero" fill-opacity="1" /><path clip-path="url(#clip720)" d="M1249.59 1517.37 Q1245.98 1517.37 1244.15 1520.93 Q1242.34 1524.47 1242.34 1531.6 Q1242.34 1538.71 1244.15 1542.27 Q1245.98 1545.82 1249.59 1545.82 Q1253.22 1545.82 1255.03 1542.27 Q1256.86 1538.71 1256.86 1531.6 Q1256.86 1524.47 1255.03 1520.93 Q1253.22 1517.37 1249.59 1517.37 M1249.59 1513.66 Q1255.4 1513.66 1258.45 1518.27 Q1261.53 1522.85 1261.53 1531.6 Q1261.53 1540.33 1258.45 1544.94 Q1255.4 1549.52 1249.59 1549.52 Q1243.78 1549.52 1240.7 1544.94 Q1237.64 1540.33 1237.64 1531.6 Q1237.64 1522.85 1240.7 1518.27 Q1243.78 1513.66 1249.59 1513.66 Z" fill="#000000" fill-rule="nonzero" fill-opacity="1" /><path clip-path="url(#clip720)" d="M1487.65 1517.37 Q1484.04 1517.37 1482.21 1520.93 Q1480.4 1524.47 1480.4 1531.6 Q1480.4 1538.71 1482.21 1542.27 Q1484.04 1545.82 1487.65 1545.82 Q1491.28 1545.82 1493.09 1542.27 Q1494.92 1538.71 1494.92 1531.6 Q1494.92 1524.47 1493.09 1520.93 Q1491.28 1517.37 1487.65 1517.37 M1487.65 1513.66 Q1493.46 1513.66 1496.51 1518.27 Q1499.59 1522.85 1499.59 1531.6 Q1499.59 1540.33 1496.51 1544.94 Q1493.46 1549.52 1487.65 1549.52 Q1481.84 1549.52 1478.76 1544.94 Q1475.7 1540.33 1475.7 1531.6 Q1475.7 1522.85 1478.76 1518.27 Q1481.84 1513.66 1487.65 1513.66 Z" fill="#000000" fill-rule="nonzero" fill-opacity="1" /><path clip-path="url(#clip720)" d="M1507.81 1542.97 L1512.69 1542.97 L1512.69 1548.85 L1507.81 1548.85 L1507.81 1542.97 Z" fill="#000000" fill-rule="nonzero" fill-opacity="1" /><path clip-path="url(#clip720)" d="M1526.91 1544.91 L1543.23 1544.91 L1543.23 1548.85 L1521.28 1548.85 L1521.28 1544.91 Q1523.94 1542.16 1528.53 1537.53 Q1533.13 1532.88 1534.31 1531.53 Q1536.56 1529.01 1537.44 1527.27 Q1538.34 1525.51 1538.34 1523.82 Q1538.34 1521.07 1536.4 1519.33 Q1534.48 1517.6 1531.37 1517.6 Q1529.18 1517.6 1526.72 1518.36 Q1524.29 1519.13 1521.51 1520.68 L1521.51 1515.95 Q1524.34 1514.82 1526.79 1514.24 Q1529.24 1513.66 1531.28 1513.66 Q1536.65 1513.66 1539.85 1516.35 Q1543.04 1519.03 1543.04 1523.52 Q1543.04 1525.65 1542.23 1527.57 Q1541.44 1529.47 1539.34 1532.07 Q1538.76 1532.74 1535.66 1535.95 Q1532.55 1539.15 1526.91 1544.91 Z" fill="#000000" fill-rule="nonzero" fill-opacity="1" /><path clip-path="url(#clip720)" d="M1769.1 1517.37 Q1765.49 1517.37 1763.66 1520.93 Q1761.85 1524.47 1761.85 1531.6 Q1761.85 1538.71 1763.66 1542.27 Q1765.49 1545.82 1769.1 1545.82 Q1772.73 1545.82 1774.54 1542.27 Q1776.37 1538.71 1776.37 1531.6 Q1776.37 1524.47 1774.54 1520.93 Q1772.73 1517.37 1769.1 1517.37 M1769.1 1513.66 Q1774.91 1513.66 1777.96 1518.27 Q1781.04 1522.85 1781.04 1531.6 Q1781.04 1540.33 1777.96 1544.94 Q1774.91 1549.52 1769.1 1549.52 Q1763.29 1549.52 1760.21 1544.94 Q1757.15 1540.33 1757.15 1531.6 Q1757.15 1522.85 1760.21 1518.27 Q1763.29 1513.66 1769.1 1513.66 Z" fill="#000000" fill-rule="nonzero" fill-opacity="1" /><path clip-path="url(#clip720)" d="M1789.26 1542.97 L1794.14 1542.97 L1794.14 1548.85 L1789.26 1548.85 L1789.26 1542.97 Z" fill="#000000" fill-rule="nonzero" fill-opacity="1" /><path clip-path="url(#clip720)" d="M1817.18 1518.36 L1805.37 1536.81 L1817.18 1536.81 L1817.18 1518.36 M1815.95 1514.29 L1821.83 1514.29 L1821.83 1536.81 L1826.76 1536.81 L1826.76 1540.7 L1821.83 1540.7 L1821.83 1548.85 L1817.18 1548.85 L1817.18 1540.7 L1801.57 1540.7 L1801.57 1536.19 L1815.95 1514.29 Z" fill="#000000" fill-rule="nonzero" fill-opacity="1" /><path clip-path="url(#clip720)" d="M2051.75 1517.37 Q2048.14 1517.37 2046.31 1520.93 Q2044.51 1524.47 2044.51 1531.6 Q2044.51 1538.71 2046.31 1542.27 Q2048.14 1545.82 2051.75 1545.82 Q2055.39 1545.82 2057.19 1542.27 Q2059.02 1538.71 2059.02 1531.6 Q2059.02 1524.47 2057.19 1520.93 Q2055.39 1517.37 2051.75 1517.37 M2051.75 1513.66 Q2057.56 1513.66 2060.62 1518.27 Q2063.7 1522.85 2063.7 1531.6 Q2063.7 1540.33 2060.62 1544.94 Q2057.56 1549.52 2051.75 1549.52 Q2045.94 1549.52 2042.86 1544.94 Q2039.81 1540.33 2039.81 1531.6 Q2039.81 1522.85 2042.86 1518.27 Q2045.94 1513.66 2051.75 1513.66 Z" fill="#000000" fill-rule="nonzero" fill-opacity="1" /><path clip-path="url(#clip720)" d="M2071.91 1542.97 L2076.8 1542.97 L2076.8 1548.85 L2071.91 1548.85 L2071.91 1542.97 Z" fill="#000000" fill-rule="nonzero" fill-opacity="1" /><path clip-path="url(#clip720)" d="M2097.56 1529.7 Q2094.41 1529.7 2092.56 1531.86 Q2090.73 1534.01 2090.73 1537.76 Q2090.73 1541.49 2092.56 1543.66 Q2094.41 1545.82 2097.56 1545.82 Q2100.71 1545.82 2102.54 1543.66 Q2104.39 1541.49 2104.39 1537.76 Q2104.39 1534.01 2102.54 1531.86 Q2100.71 1529.7 2097.56 1529.7 M2106.84 1515.05 L2106.84 1519.31 Q2105.09 1518.48 2103.28 1518.04 Q2101.5 1517.6 2099.74 1517.6 Q2095.11 1517.6 2092.65 1520.72 Q2090.22 1523.85 2089.88 1530.17 Q2091.24 1528.15 2093.3 1527.09 Q2095.36 1526 2097.84 1526 Q2103.05 1526 2106.06 1529.17 Q2109.09 1532.32 2109.09 1537.76 Q2109.09 1543.08 2105.94 1546.3 Q2102.79 1549.52 2097.56 1549.52 Q2091.57 1549.52 2088.4 1544.94 Q2085.22 1540.33 2085.22 1531.6 Q2085.22 1523.41 2089.11 1518.55 Q2093 1513.66 2099.55 1513.66 Q2101.31 1513.66 2103.09 1514.01 Q2104.9 1514.36 2106.84 1515.05 Z" fill="#000000" fill-rule="nonzero" fill-opacity="1" /><polyline clip-path="url(#clip720)" style="stroke:#000000; stroke-linecap:round; stroke-linejoin:round; stroke-width:4; stroke-opacity:1; fill:none" points="194.422,1486.45 194.422,47.2441 "/>
<polyline clip-path="url(#clip720)" style="stroke:#000000; stroke-linecap:round; stroke-linejoin:round; stroke-width:4; stroke-opacity:1; fill:none" points="194.422,1310.96 213.32,1310.96 "/>
<polyline clip-path="url(#clip720)" style="stroke:#000000; stroke-linecap:round; stroke-linejoin:round; stroke-width:4; stroke-opacity:1; fill:none" points="194.422,1028.47 213.32,1028.47 "/>
<polyline clip-path="url(#clip720)" style="stroke:#000000; stroke-linecap:round; stroke-linejoin:round; stroke-width:4; stroke-opacity:1; fill:none" points="194.422,745.976 213.32,745.976 "/>
<polyline clip-path="url(#clip720)" style="stroke:#000000; stroke-linecap:round; stroke-linejoin:round; stroke-width:4; stroke-opacity:1; fill:none" points="194.422,463.484 213.32,463.484 "/>
<polyline clip-path="url(#clip720)" style="stroke:#000000; stroke-linecap:round; stroke-linejoin:round; stroke-width:4; stroke-opacity:1; fill:none" points="194.422,180.992 213.32,180.992 "/>
<path clip-path="url(#clip720)" d="M50.9921 1311.41 L80.6679 1311.41 L80.6679 1315.35 L50.9921 1315.35 L50.9921 1311.41 Z" fill="#000000" fill-rule="nonzero" fill-opacity="1" /><path clip-path="url(#clip720)" d="M100.76 1296.76 Q97.1493 1296.76 95.3206 1300.32 Q93.515 1303.87 93.515 1310.99 Q93.515 1318.1 95.3206 1321.67 Q97.1493 1325.21 100.76 1325.21 Q104.395 1325.21 106.2 1321.67 Q108.029 1318.1 108.029 1310.99 Q108.029 1303.87 106.2 1300.32 Q104.395 1296.76 100.76 1296.76 M100.76 1293.06 Q106.571 1293.06 109.626 1297.66 Q112.705 1302.24 112.705 1310.99 Q112.705 1319.72 109.626 1324.33 Q106.571 1328.91 100.76 1328.91 Q94.9502 1328.91 91.8715 1324.33 Q88.816 1319.72 88.816 1310.99 Q88.816 1302.24 91.8715 1297.66 Q94.9502 1293.06 100.76 1293.06 Z" fill="#000000" fill-rule="nonzero" fill-opacity="1" /><path clip-path="url(#clip720)" d="M120.922 1322.36 L125.807 1322.36 L125.807 1328.24 L120.922 1328.24 L120.922 1322.36 Z" fill="#000000" fill-rule="nonzero" fill-opacity="1" /><path clip-path="url(#clip720)" d="M148.839 1297.75 L137.033 1316.2 L148.839 1316.2 L148.839 1297.75 M147.612 1293.68 L153.492 1293.68 L153.492 1316.2 L158.422 1316.2 L158.422 1320.09 L153.492 1320.09 L153.492 1328.24 L148.839 1328.24 L148.839 1320.09 L133.237 1320.09 L133.237 1315.58 L147.612 1293.68 Z" fill="#000000" fill-rule="nonzero" fill-opacity="1" /><path clip-path="url(#clip720)" d="M53.0754 1028.92 L82.7512 1028.92 L82.7512 1032.85 L53.0754 1032.85 L53.0754 1028.92 Z" fill="#000000" fill-rule="nonzero" fill-opacity="1" /><path clip-path="url(#clip720)" d="M102.844 1014.27 Q99.2326 1014.27 97.4039 1017.83 Q95.5984 1021.37 95.5984 1028.5 Q95.5984 1035.61 97.4039 1039.17 Q99.2326 1042.72 102.844 1042.72 Q106.478 1042.72 108.283 1039.17 Q110.112 1035.61 110.112 1028.5 Q110.112 1021.37 108.283 1017.83 Q106.478 1014.27 102.844 1014.27 M102.844 1010.56 Q108.654 1010.56 111.709 1015.17 Q114.788 1019.75 114.788 1028.5 Q114.788 1037.23 111.709 1041.84 Q108.654 1046.42 102.844 1046.42 Q97.0335 1046.42 93.9549 1041.84 Q90.8993 1037.23 90.8993 1028.5 Q90.8993 1019.75 93.9549 1015.17 Q97.0335 1010.56 102.844 1010.56 Z" fill="#000000" fill-rule="nonzero" fill-opacity="1" /><path clip-path="url(#clip720)" d="M123.006 1039.87 L127.89 1039.87 L127.89 1045.75 L123.006 1045.75 L123.006 1039.87 Z" fill="#000000" fill-rule="nonzero" fill-opacity="1" /><path clip-path="url(#clip720)" d="M142.103 1041.81 L158.422 1041.81 L158.422 1045.75 L136.478 1045.75 L136.478 1041.81 Q139.14 1039.06 143.723 1034.43 Q148.33 1029.78 149.51 1028.43 Q151.755 1025.91 152.635 1024.17 Q153.538 1022.41 153.538 1020.72 Q153.538 1017.97 151.593 1016.23 Q149.672 1014.5 146.57 1014.5 Q144.371 1014.5 141.918 1015.26 Q139.487 1016.03 136.709 1017.58 L136.709 1012.85 Q139.533 1011.72 141.987 1011.14 Q144.441 1010.56 146.478 1010.56 Q151.848 1010.56 155.042 1013.25 Q158.237 1015.93 158.237 1020.42 Q158.237 1022.55 157.427 1024.47 Q156.64 1026.37 154.533 1028.97 Q153.955 1029.64 150.853 1032.85 Q147.751 1036.05 142.103 1041.81 Z" fill="#000000" fill-rule="nonzero" fill-opacity="1" /><path clip-path="url(#clip720)" d="M101.246 731.775 Q97.6354 731.775 95.8067 735.339 Q94.0012 738.881 94.0012 746.011 Q94.0012 753.117 95.8067 756.682 Q97.6354 760.224 101.246 760.224 Q104.881 760.224 106.686 756.682 Q108.515 753.117 108.515 746.011 Q108.515 738.881 106.686 735.339 Q104.881 731.775 101.246 731.775 M101.246 728.071 Q107.057 728.071 110.112 732.677 Q113.191 737.261 113.191 746.011 Q113.191 754.737 110.112 759.344 Q107.057 763.927 101.246 763.927 Q95.4363 763.927 92.3576 759.344 Q89.3021 754.737 89.3021 746.011 Q89.3021 737.261 92.3576 732.677 Q95.4363 728.071 101.246 728.071 Z" fill="#000000" fill-rule="nonzero" fill-opacity="1" /><path clip-path="url(#clip720)" d="M121.408 757.376 L126.293 757.376 L126.293 763.256 L121.408 763.256 L121.408 757.376 Z" fill="#000000" fill-rule="nonzero" fill-opacity="1" /><path clip-path="url(#clip720)" d="M146.478 731.775 Q142.867 731.775 141.038 735.339 Q139.232 738.881 139.232 746.011 Q139.232 753.117 141.038 756.682 Q142.867 760.224 146.478 760.224 Q150.112 760.224 151.918 756.682 Q153.746 753.117 153.746 746.011 Q153.746 738.881 151.918 735.339 Q150.112 731.775 146.478 731.775 M146.478 728.071 Q152.288 728.071 155.343 732.677 Q158.422 737.261 158.422 746.011 Q158.422 754.737 155.343 759.344 Q152.288 763.927 146.478 763.927 Q140.668 763.927 137.589 759.344 Q134.533 754.737 134.533 746.011 Q134.533 737.261 137.589 732.677 Q140.668 728.071 146.478 728.071 Z" fill="#000000" fill-rule="nonzero" fill-opacity="1" /><path clip-path="url(#clip720)" d="M102.844 449.283 Q99.2326 449.283 97.4039 452.847 Q95.5984 456.389 95.5984 463.519 Q95.5984 470.625 97.4039 474.19 Q99.2326 477.731 102.844 477.731 Q106.478 477.731 108.283 474.19 Q110.112 470.625 110.112 463.519 Q110.112 456.389 108.283 452.847 Q106.478 449.283 102.844 449.283 M102.844 445.579 Q108.654 445.579 111.709 450.185 Q114.788 454.769 114.788 463.519 Q114.788 472.245 111.709 476.852 Q108.654 481.435 102.844 481.435 Q97.0335 481.435 93.9549 476.852 Q90.8993 472.245 90.8993 463.519 Q90.8993 454.769 93.9549 450.185 Q97.0335 445.579 102.844 445.579 Z" fill="#000000" fill-rule="nonzero" fill-opacity="1" /><path clip-path="url(#clip720)" d="M123.006 474.884 L127.89 474.884 L127.89 480.764 L123.006 480.764 L123.006 474.884 Z" fill="#000000" fill-rule="nonzero" fill-opacity="1" /><path clip-path="url(#clip720)" d="M142.103 476.829 L158.422 476.829 L158.422 480.764 L136.478 480.764 L136.478 476.829 Q139.14 474.074 143.723 469.444 Q148.33 464.792 149.51 463.449 Q151.755 460.926 152.635 459.19 Q153.538 457.431 153.538 455.741 Q153.538 452.986 151.593 451.25 Q149.672 449.514 146.57 449.514 Q144.371 449.514 141.918 450.278 Q139.487 451.042 136.709 452.593 L136.709 447.871 Q139.533 446.736 141.987 446.158 Q144.441 445.579 146.478 445.579 Q151.848 445.579 155.042 448.264 Q158.237 450.949 158.237 455.44 Q158.237 457.57 157.427 459.491 Q156.64 461.389 154.533 463.982 Q153.955 464.653 150.853 467.87 Q147.751 471.065 142.103 476.829 Z" fill="#000000" fill-rule="nonzero" fill-opacity="1" /><path clip-path="url(#clip720)" d="M100.76 166.79 Q97.1493 166.79 95.3206 170.355 Q93.515 173.897 93.515 181.027 Q93.515 188.133 95.3206 191.698 Q97.1493 195.239 100.76 195.239 Q104.395 195.239 106.2 191.698 Q108.029 188.133 108.029 181.027 Q108.029 173.897 106.2 170.355 Q104.395 166.79 100.76 166.79 M100.76 163.087 Q106.571 163.087 109.626 167.693 Q112.705 172.277 112.705 181.027 Q112.705 189.753 109.626 194.36 Q106.571 198.943 100.76 198.943 Q94.9502 198.943 91.8715 194.36 Q88.816 189.753 88.816 181.027 Q88.816 172.277 91.8715 167.693 Q94.9502 163.087 100.76 163.087 Z" fill="#000000" fill-rule="nonzero" fill-opacity="1" /><path clip-path="url(#clip720)" d="M120.922 192.392 L125.807 192.392 L125.807 198.272 L120.922 198.272 L120.922 192.392 Z" fill="#000000" fill-rule="nonzero" fill-opacity="1" /><path clip-path="url(#clip720)" d="M148.839 167.786 L137.033 186.235 L148.839 186.235 L148.839 167.786 M147.612 163.712 L153.492 163.712 L153.492 186.235 L158.422 186.235 L158.422 190.124 L153.492 190.124 L153.492 198.272 L148.839 198.272 L148.839 190.124 L133.237 190.124 L133.237 185.61 L147.612 163.712 Z" fill="#000000" fill-rule="nonzero" fill-opacity="1" /><circle clip-path="url(#clip721)" cx="1846.35" cy="1286.98" r="14.4" fill="#009af9" fill-rule="evenodd" fill-opacity="1" stroke="#000000" stroke-opacity="1" stroke-width="3.2"/>
<circle clip-path="url(#clip721)" cx="255.507" cy="246.707" r="14.4" fill="#009af9" fill-rule="evenodd" fill-opacity="1" stroke="#000000" stroke-opacity="1" stroke-width="3.2"/>
<circle clip-path="url(#clip721)" cx="1579.06" cy="704.236" r="14.4" fill="#009af9" fill-rule="evenodd" fill-opacity="1" stroke="#000000" stroke-opacity="1" stroke-width="3.2"/>
<circle clip-path="url(#clip721)" cx="623.947" cy="314.506" r="14.4" fill="#e26f46" fill-rule="evenodd" fill-opacity="1" stroke="#000000" stroke-opacity="1" stroke-width="3.2"/>
<circle clip-path="url(#clip721)" cx="765.301" cy="1013.82" r="14.4" fill="#e26f46" fill-rule="evenodd" fill-opacity="1" stroke="#000000" stroke-opacity="1" stroke-width="3.2"/>
<circle clip-path="url(#clip721)" cx="2291.67" cy="909.603" r="14.4" fill="#e26f46" fill-rule="evenodd" fill-opacity="1" stroke="#000000" stroke-opacity="1" stroke-width="3.2"/>
<path clip-path="url(#clip720)" d="M2041.78 250.738 L2280.81 250.738 L2280.81 95.2176 L2041.78 95.2176  Z" fill="#ffffff" fill-rule="evenodd" fill-opacity="1"/>
<polyline clip-path="url(#clip720)" style="stroke:#000000; stroke-linecap:round; stroke-linejoin:round; stroke-width:4; stroke-opacity:1; fill:none" points="2041.78,250.738 2280.81,250.738 2280.81,95.2176 2041.78,95.2176 2041.78,250.738 "/>
<circle clip-path="url(#clip720)" cx="2137.71" cy="147.058" r="20.48" fill="#009af9" fill-rule="evenodd" fill-opacity="1" stroke="#000000" stroke-opacity="1" stroke-width="4.55111"/>
<path clip-path="url(#clip720)" d="M2237.92 160.449 L2237.92 174.199 L2233.64 174.199 L2233.64 138.412 L2237.92 138.412 L2237.92 142.347 Q2239.26 140.032 2241.3 138.921 Q2243.36 137.787 2246.21 137.787 Q2250.93 137.787 2253.87 141.537 Q2256.83 145.287 2256.83 151.398 Q2256.83 157.509 2253.87 161.259 Q2250.93 165.009 2246.21 165.009 Q2243.36 165.009 2241.3 163.898 Q2239.26 162.763 2237.92 160.449 M2252.41 151.398 Q2252.41 146.699 2250.46 144.037 Q2248.54 141.352 2245.16 141.352 Q2241.78 141.352 2239.84 144.037 Q2237.92 146.699 2237.92 151.398 Q2237.92 156.097 2239.84 158.782 Q2241.78 161.444 2245.16 161.444 Q2248.54 161.444 2250.46 158.782 Q2252.41 156.097 2252.41 151.398 Z" fill="#000000" fill-rule="nonzero" fill-opacity="1" /><circle clip-path="url(#clip720)" cx="2137.71" cy="198.898" r="20.48" fill="#e26f46" fill-rule="evenodd" fill-opacity="1" stroke="#000000" stroke-opacity="1" stroke-width="4.55111"/>
<path clip-path="url(#clip720)" d="M2238.03 203.238 Q2238.03 207.937 2239.96 210.622 Q2241.9 213.284 2245.28 213.284 Q2248.66 213.284 2250.6 210.622 Q2252.55 207.937 2252.55 203.238 Q2252.55 198.539 2250.6 195.877 Q2248.66 193.192 2245.28 193.192 Q2241.9 193.192 2239.96 195.877 Q2238.03 198.539 2238.03 203.238 M2252.55 212.289 Q2251.2 214.603 2249.14 215.738 Q2247.11 216.849 2244.24 216.849 Q2239.54 216.849 2236.58 213.099 Q2233.64 209.349 2233.64 203.238 Q2233.64 197.127 2236.58 193.377 Q2239.54 189.627 2244.24 189.627 Q2247.11 189.627 2249.14 190.761 Q2251.2 191.872 2252.55 194.187 L2252.55 190.252 L2256.81 190.252 L2256.81 226.039 L2252.55 226.039 L2252.55 212.289 Z" fill="#000000" fill-rule="nonzero" fill-opacity="1" /></svg>
