<?xml version="1.0" encoding="utf-8"?>
<svg xmlns="http://www.w3.org/2000/svg" xmlns:xlink="http://www.w3.org/1999/xlink" width="600" height="400" viewBox="0 0 2400 1600">
<defs>
  <clipPath id="clip080">
    <rect x="0" y="0" width="2400" height="1600"/>
  </clipPath>
</defs>
<path clip-path="url(#clip080)" d="M0 1600 L2400 1600 L2400 0 L0 0  Z" fill="#ffffff" fill-rule="evenodd" fill-opacity="1"/>
<defs>
  <clipPath id="clip081">
    <rect x="480" y="0" width="1681" height="1600"/>
  </clipPath>
</defs>
<defs>
  <clipPath id="clip082">
    <rect x="156" y="47" width="2197" height="1440"/>
  </clipPath>
</defs>
<path clip-path="url(#clip082)" d="M-931.639 3443.42 L-931.639 212.296 L-22.5724 -1403.26 L1551.98 -470.519 L1551.98 2760.6 L642.911 4376.16 L-931.639 3443.42  Z" fill="#ffffff" fill-rule="evenodd" fill-opacity="1"/>
<path clip-path="url(#clip082)" d="M1102.45 453.528 L1100.48 455.85 L1129.31 465.451 L1131.28 463.128  Z" fill="#ffffff" fill-rule="evenodd" fill-opacity="1"/>
<polyline clip-path="url(#clip082)" style="stroke:#000000; stroke-linecap:round; stroke-linejoin:round; stroke-width:3.2; stroke-opacity:1; fill:none" points="1102.45,453.528 1100.48,455.85 1129.31,465.451 1131.28,463.128 1102.45,453.528 "/>
<path clip-path="url(#clip082)" d="M1131.28 463.128 L1129.31 465.451 L1172.49 477.914 L1174.45 475.591  Z" fill="#ffffff" fill-rule="evenodd" fill-opacity="1"/>
<polyline clip-path="url(#clip082)" style="stroke:#000000; stroke-linecap:round; stroke-linejoin:round; stroke-width:3.2; stroke-opacity:1; fill:none" points="1131.28,463.128 1129.31,465.451 1172.49,477.914 1174.45,475.591 1131.28,463.128 "/>
<path clip-path="url(#clip082)" d="M1174.45 475.591 L1172.49 477.914 L1215.66 488.463 L1217.62 486.142  Z" fill="#ffffff" fill-rule="evenodd" fill-opacity="1"/>
<polyline clip-path="url(#clip082)" style="stroke:#000000; stroke-linecap:round; stroke-linejoin:round; stroke-width:3.2; stroke-opacity:1; fill:none" points="1174.45,475.591 1172.49,477.914 1215.66,488.463 1217.62,486.142 1174.45,475.591 "/>
<path clip-path="url(#clip082)" d="M1217.62 486.142 L1215.66 488.463 L1258.83 497.114 L1260.8 494.795  Z" fill="#ffffff" fill-rule="evenodd" fill-opacity="1"/>
<polyline clip-path="url(#clip082)" style="stroke:#000000; stroke-linecap:round; stroke-linejoin:round; stroke-width:3.2; stroke-opacity:1; fill:none" points="1217.62,486.142 1215.66,488.463 1258.83,497.114 1260.8,494.795 1217.62,486.142 "/>
<path clip-path="url(#clip082)" d="M1260.8 494.795 L1258.83 497.114 L1302.01 503.892 L1303.97 501.578  Z" fill="#ffffff" fill-rule="evenodd" fill-opacity="1"/>
<polyline clip-path="url(#clip082)" style="stroke:#000000; stroke-linecap:round; stroke-linejoin:round; stroke-width:3.2; stroke-opacity:1; fill:none" points="1260.8,494.795 1258.83,497.114 1302.01,503.892 1303.97,501.578 1260.8,494.795 "/>
<path clip-path="url(#clip082)" d="M1303.97 501.578 L1302.01 503.892 L1345.18 508.841 L1347.14 506.532  Z" fill="#ffffff" fill-rule="evenodd" fill-opacity="1"/>
<polyline clip-path="url(#clip082)" style="stroke:#000000; stroke-linecap:round; stroke-linejoin:round; stroke-width:3.2; stroke-opacity:1; fill:none" points="1303.97,501.578 1302.01,503.892 1345.18,508.841 1347.14,506.532 1303.97,501.578 "/>
<path clip-path="url(#clip082)" d="M1347.14 506.532 L1345.18 508.841 L1388.35 512.011 L1390.32 509.709  Z" fill="#ffffff" fill-rule="evenodd" fill-opacity="1"/>
<polyline clip-path="url(#clip082)" style="stroke:#000000; stroke-linecap:round; stroke-linejoin:round; stroke-width:3.2; stroke-opacity:1; fill:none" points="1347.14,506.532 1345.18,508.841 1388.35,512.011 1390.32,509.709 1347.14,506.532 "/>
<path clip-path="url(#clip082)" d="M1390.32 509.709 L1388.35 512.011 L1431.53 513.464 L1433.49 511.171  Z" fill="#ffffff" fill-rule="evenodd" fill-opacity="1"/>
<polyline clip-path="url(#clip082)" style="stroke:#000000; stroke-linecap:round; stroke-linejoin:round; stroke-width:3.2; stroke-opacity:1; fill:none" points="1390.32,509.709 1388.35,512.011 1431.53,513.464 1433.49,511.171 1390.32,509.709 "/>
<path clip-path="url(#clip082)" d="M1433.49 511.171 L1431.53 513.464 L1474.7 513.271 L1476.66 510.987  Z" fill="#ffffff" fill-rule="evenodd" fill-opacity="1"/>
<polyline clip-path="url(#clip082)" style="stroke:#000000; stroke-linecap:round; stroke-linejoin:round; stroke-width:3.2; stroke-opacity:1; fill:none" points="1433.49,511.171 1431.53,513.464 1474.7,513.271 1476.66,510.987 1433.49,511.171 "/>
<path clip-path="url(#clip082)" d="M1476.66 510.987 L1474.7 513.271 L1517.87 511.506 L1519.84 509.232  Z" fill="#ffffff" fill-rule="evenodd" fill-opacity="1"/>
<polyline clip-path="url(#clip082)" style="stroke:#000000; stroke-linecap:round; stroke-linejoin:round; stroke-width:3.2; stroke-opacity:1; fill:none" points="1476.66,510.987 1474.7,513.271 1517.87,511.506 1519.84,509.232 1476.66,510.987 "/>
<path clip-path="url(#clip082)" d="M1519.84 509.232 L1517.87 511.506 L1561.05 508.249 L1563.01 505.986  Z" fill="#ffffff" fill-rule="evenodd" fill-opacity="1"/>
<polyline clip-path="url(#clip082)" style="stroke:#000000; stroke-linecap:round; stroke-linejoin:round; stroke-width:3.2; stroke-opacity:1; fill:none" points="1519.84,509.232 1517.87,511.506 1561.05,508.249 1563.01,505.986 1519.84,509.232 "/>
<path clip-path="url(#clip082)" d="M1563.01 505.986 L1561.05 508.249 L1604.22 503.582 L1606.18 501.329  Z" fill="#ffffff" fill-rule="evenodd" fill-opacity="1"/>
<polyline clip-path="url(#clip082)" style="stroke:#000000; stroke-linecap:round; stroke-linejoin:round; stroke-width:3.2; stroke-opacity:1; fill:none" points="1563.01,505.986 1561.05,508.249 1604.22,503.582 1606.18,501.329 1563.01,505.986 "/>
<path clip-path="url(#clip082)" d="M1606.18 501.329 L1604.22 503.582 L1647.39 497.587 L1649.35 495.346  Z" fill="#ffffff" fill-rule="evenodd" fill-opacity="1"/>
<polyline clip-path="url(#clip082)" style="stroke:#000000; stroke-linecap:round; stroke-linejoin:round; stroke-width:3.2; stroke-opacity:1; fill:none" points="1606.18,501.329 1604.22,503.582 1647.39,497.587 1649.35,495.346 1606.18,501.329 "/>
<path clip-path="url(#clip082)" d="M1649.35 495.346 L1647.39 497.587 L1690.56 490.345 L1692.53 488.116  Z" fill="#ffffff" fill-rule="evenodd" fill-opacity="1"/>
<polyline clip-path="url(#clip082)" style="stroke:#000000; stroke-linecap:round; stroke-linejoin:round; stroke-width:3.2; stroke-opacity:1; fill:none" points="1649.35,495.346 1647.39,497.587 1690.56,490.345 1692.53,488.116 1649.35,495.346 "/>
<path clip-path="url(#clip082)" d="M1692.53 488.116 L1690.56 490.345 L1733.74 481.937 L1735.7 479.719  Z" fill="#ffffff" fill-rule="evenodd" fill-opacity="1"/>
<polyline clip-path="url(#clip082)" style="stroke:#000000; stroke-linecap:round; stroke-linejoin:round; stroke-width:3.2; stroke-opacity:1; fill:none" points="1692.53,488.116 1690.56,490.345 1733.74,481.937 1735.7,479.719 1692.53,488.116 "/>
<path clip-path="url(#clip082)" d="M1735.7 479.719 L1733.74 481.937 L1776.91 472.44 L1778.87 470.234  Z" fill="#ffffff" fill-rule="evenodd" fill-opacity="1"/>
<polyline clip-path="url(#clip082)" style="stroke:#000000; stroke-linecap:round; stroke-linejoin:round; stroke-width:3.2; stroke-opacity:1; fill:none" points="1735.7,479.719 1733.74,481.937 1776.91,472.44 1778.87,470.234 1735.7,479.719 "/>
<path clip-path="url(#clip082)" d="M1778.87 470.234 L1776.91 472.44 L1820.08 461.929 L1822.05 459.735  Z" fill="#ffffff" fill-rule="evenodd" fill-opacity="1"/>
<polyline clip-path="url(#clip082)" style="stroke:#000000; stroke-linecap:round; stroke-linejoin:round; stroke-width:3.2; stroke-opacity:1; fill:none" points="1778.87,470.234 1776.91,472.44 1820.08,461.929 1822.05,459.735 1778.87,470.234 "/>
<path clip-path="url(#clip082)" d="M1100.48 455.85 L1051.84 511.949 L1080.67 521.573 L1129.31 465.451  Z" fill="#ffffff" fill-rule="evenodd" fill-opacity="1"/>
<polyline clip-path="url(#clip082)" style="stroke:#000000; stroke-linecap:round; stroke-linejoin:round; stroke-width:3.2; stroke-opacity:1; fill:none" points="1100.48,455.85 1051.84,511.949 1080.67,521.573 1129.31,465.451 1100.48,455.85 "/>
<path clip-path="url(#clip082)" d="M1129.31 465.451 L1080.67 521.573 L1123.84 534.036 L1172.49 477.914  Z" fill="#ffffff" fill-rule="evenodd" fill-opacity="1"/>
<polyline clip-path="url(#clip082)" style="stroke:#000000; stroke-linecap:round; stroke-linejoin:round; stroke-width:3.2; stroke-opacity:1; fill:none" points="1129.31,465.451 1080.67,521.573 1123.84,534.036 1172.49,477.914 1129.31,465.451 "/>
<path clip-path="url(#clip082)" d="M1172.49 477.914 L1123.84 534.036 L1167.01 544.55 L1215.66 488.463  Z" fill="#ffffff" fill-rule="evenodd" fill-opacity="1"/>
<polyline clip-path="url(#clip082)" style="stroke:#000000; stroke-linecap:round; stroke-linejoin:round; stroke-width:3.2; stroke-opacity:1; fill:none" points="1172.49,477.914 1123.84,534.036 1167.01,544.55 1215.66,488.463 1172.49,477.914 "/>
<path clip-path="url(#clip082)" d="M1215.66 488.463 L1167.01 544.55 L1210.19 553.13 L1258.83 497.114  Z" fill="#ffffff" fill-rule="evenodd" fill-opacity="1"/>
<polyline clip-path="url(#clip082)" style="stroke:#000000; stroke-linecap:round; stroke-linejoin:round; stroke-width:3.2; stroke-opacity:1; fill:none" points="1215.66,488.463 1167.01,544.55 1210.19,553.13 1258.83,497.114 1215.66,488.463 "/>
<path clip-path="url(#clip082)" d="M1258.83 497.114 L1210.19 553.13 L1253.36 559.805 L1302.01 503.892  Z" fill="#ffffff" fill-rule="evenodd" fill-opacity="1"/>
<polyline clip-path="url(#clip082)" style="stroke:#000000; stroke-linecap:round; stroke-linejoin:round; stroke-width:3.2; stroke-opacity:1; fill:none" points="1258.83,497.114 1210.19,553.13 1253.36,559.805 1302.01,503.892 1258.83,497.114 "/>
<path clip-path="url(#clip082)" d="M1302.01 503.892 L1253.36 559.805 L1296.53 564.618 L1345.18 508.841  Z" fill="#ffffff" fill-rule="evenodd" fill-opacity="1"/>
<polyline clip-path="url(#clip082)" style="stroke:#000000; stroke-linecap:round; stroke-linejoin:round; stroke-width:3.2; stroke-opacity:1; fill:none" points="1302.01,503.892 1253.36,559.805 1296.53,564.618 1345.18,508.841 1302.01,503.892 "/>
<path clip-path="url(#clip082)" d="M1345.18 508.841 L1296.53 564.618 L1339.71 567.625 L1388.35 512.011  Z" fill="#ffffff" fill-rule="evenodd" fill-opacity="1"/>
<polyline clip-path="url(#clip082)" style="stroke:#000000; stroke-linecap:round; stroke-linejoin:round; stroke-width:3.2; stroke-opacity:1; fill:none" points="1345.18,508.841 1296.53,564.618 1339.71,567.625 1388.35,512.011 1345.18,508.841 "/>
<path clip-path="url(#clip082)" d="M1388.35 512.011 L1339.71 567.625 L1382.88 568.89 L1431.53 513.464  Z" fill="#ffffff" fill-rule="evenodd" fill-opacity="1"/>
<polyline clip-path="url(#clip082)" style="stroke:#000000; stroke-linecap:round; stroke-linejoin:round; stroke-width:3.2; stroke-opacity:1; fill:none" points="1388.35,512.011 1339.71,567.625 1382.88,568.89 1431.53,513.464 1388.35,512.011 "/>
<path clip-path="url(#clip082)" d="M1431.53 513.464 L1382.88 568.89 L1426.05 568.487 L1474.7 513.271  Z" fill="#ffffff" fill-rule="evenodd" fill-opacity="1"/>
<polyline clip-path="url(#clip082)" style="stroke:#000000; stroke-linecap:round; stroke-linejoin:round; stroke-width:3.2; stroke-opacity:1; fill:none" points="1431.53,513.464 1382.88,568.89 1426.05,568.487 1474.7,513.271 1431.53,513.464 "/>
<path clip-path="url(#clip082)" d="M1474.7 513.271 L1426.05 568.487 L1469.23 566.494 L1517.87 511.506  Z" fill="#ffffff" fill-rule="evenodd" fill-opacity="1"/>
<polyline clip-path="url(#clip082)" style="stroke:#000000; stroke-linecap:round; stroke-linejoin:round; stroke-width:3.2; stroke-opacity:1; fill:none" points="1474.7,513.271 1426.05,568.487 1469.23,566.494 1517.87,511.506 1474.7,513.271 "/>
<path clip-path="url(#clip082)" d="M1517.87 511.506 L1469.23 566.494 L1512.4 562.994 L1561.05 508.249  Z" fill="#ffffff" fill-rule="evenodd" fill-opacity="1"/>
<polyline clip-path="url(#clip082)" style="stroke:#000000; stroke-linecap:round; stroke-linejoin:round; stroke-width:3.2; stroke-opacity:1; fill:none" points="1517.87,511.506 1469.23,566.494 1512.4,562.994 1561.05,508.249 1517.87,511.506 "/>
<path clip-path="url(#clip082)" d="M1561.05 508.249 L1512.4 562.994 L1555.57 558.073 L1604.22 503.582  Z" fill="#ffffff" fill-rule="evenodd" fill-opacity="1"/>
<polyline clip-path="url(#clip082)" style="stroke:#000000; stroke-linecap:round; stroke-linejoin:round; stroke-width:3.2; stroke-opacity:1; fill:none" points="1561.05,508.249 1512.4,562.994 1555.57,558.073 1604.22,503.582 1561.05,508.249 "/>
<path clip-path="url(#clip082)" d="M1604.22 503.582 L1555.57 558.073 L1598.74 551.815 L1647.39 497.587  Z" fill="#ffffff" fill-rule="evenodd" fill-opacity="1"/>
<polyline clip-path="url(#clip082)" style="stroke:#000000; stroke-linecap:round; stroke-linejoin:round; stroke-width:3.2; stroke-opacity:1; fill:none" points="1604.22,503.582 1555.57,558.073 1598.74,551.815 1647.39,497.587 1604.22,503.582 "/>
<path clip-path="url(#clip082)" d="M1647.39 497.587 L1598.74 551.815 L1641.92 544.304 L1690.56 490.345  Z" fill="#ffffff" fill-rule="evenodd" fill-opacity="1"/>
<polyline clip-path="url(#clip082)" style="stroke:#000000; stroke-linecap:round; stroke-linejoin:round; stroke-width:3.2; stroke-opacity:1; fill:none" points="1647.39,497.587 1598.74,551.815 1641.92,544.304 1690.56,490.345 1647.39,497.587 "/>
<path clip-path="url(#clip082)" d="M1690.56 490.345 L1641.92 544.304 L1685.09 535.625 L1733.74 481.937  Z" fill="#ffffff" fill-rule="evenodd" fill-opacity="1"/>
<polyline clip-path="url(#clip082)" style="stroke:#000000; stroke-linecap:round; stroke-linejoin:round; stroke-width:3.2; stroke-opacity:1; fill:none" points="1690.56,490.345 1641.92,544.304 1685.09,535.625 1733.74,481.937 1690.56,490.345 "/>
<path clip-path="url(#clip082)" d="M1733.74 481.937 L1685.09 535.625 L1728.26 525.856 L1776.91 472.44  Z" fill="#ffffff" fill-rule="evenodd" fill-opacity="1"/>
<polyline clip-path="url(#clip082)" style="stroke:#000000; stroke-linecap:round; stroke-linejoin:round; stroke-width:3.2; stroke-opacity:1; fill:none" points="1733.74,481.937 1685.09,535.625 1728.26,525.856 1776.91,472.44 1733.74,481.937 "/>
<path clip-path="url(#clip082)" d="M1776.91 472.44 L1728.26 525.856 L1771.44 515.072 L1820.08 461.929  Z" fill="#ffffff" fill-rule="evenodd" fill-opacity="1"/>
<polyline clip-path="url(#clip082)" style="stroke:#000000; stroke-linecap:round; stroke-linejoin:round; stroke-width:3.2; stroke-opacity:1; fill:none" points="1776.91,472.44 1728.26,525.856 1771.44,515.072 1820.08,461.929 1776.91,472.44 "/>
<path clip-path="url(#clip082)" d="M1051.84 511.949 L1003.19 566.518 L1032.02 576.165 L1080.67 521.573  Z" fill="#ffffff" fill-rule="evenodd" fill-opacity="1"/>
<polyline clip-path="url(#clip082)" style="stroke:#000000; stroke-linecap:round; stroke-linejoin:round; stroke-width:3.2; stroke-opacity:1; fill:none" points="1051.84,511.949 1003.19,566.518 1032.02,576.165 1080.67,521.573 1051.84,511.949 "/>
<path clip-path="url(#clip082)" d="M1080.67 521.573 L1032.02 576.165 L1075.19 588.628 L1123.84 534.036  Z" fill="#ffffff" fill-rule="evenodd" fill-opacity="1"/>
<polyline clip-path="url(#clip082)" style="stroke:#000000; stroke-linecap:round; stroke-linejoin:round; stroke-width:3.2; stroke-opacity:1; fill:none" points="1080.67,521.573 1032.02,576.165 1075.19,588.628 1123.84,534.036 1080.67,521.573 "/>
<path clip-path="url(#clip082)" d="M1123.84 534.036 L1075.19 588.628 L1118.37 599.109 L1167.01 544.55  Z" fill="#ffffff" fill-rule="evenodd" fill-opacity="1"/>
<polyline clip-path="url(#clip082)" style="stroke:#000000; stroke-linecap:round; stroke-linejoin:round; stroke-width:3.2; stroke-opacity:1; fill:none" points="1123.84,534.036 1075.19,588.628 1118.37,599.109 1167.01,544.55 1123.84,534.036 "/>
<path clip-path="url(#clip082)" d="M1167.01 544.55 L1118.37 599.109 L1161.54 607.623 L1210.19 553.13  Z" fill="#ffffff" fill-rule="evenodd" fill-opacity="1"/>
<polyline clip-path="url(#clip082)" style="stroke:#000000; stroke-linecap:round; stroke-linejoin:round; stroke-width:3.2; stroke-opacity:1; fill:none" points="1167.01,544.55 1118.37,599.109 1161.54,607.623 1210.19,553.13 1167.01,544.55 "/>
<path clip-path="url(#clip082)" d="M1210.19 553.13 L1161.54 607.623 L1204.71 614.202 L1253.36 559.805  Z" fill="#ffffff" fill-rule="evenodd" fill-opacity="1"/>
<polyline clip-path="url(#clip082)" style="stroke:#000000; stroke-linecap:round; stroke-linejoin:round; stroke-width:3.2; stroke-opacity:1; fill:none" points="1210.19,553.13 1161.54,607.623 1204.71,614.202 1253.36,559.805 1210.19,553.13 "/>
<path clip-path="url(#clip082)" d="M1253.36 559.805 L1204.71 614.202 L1247.89 618.892 L1296.53 564.618  Z" fill="#ffffff" fill-rule="evenodd" fill-opacity="1"/>
<polyline clip-path="url(#clip082)" style="stroke:#000000; stroke-linecap:round; stroke-linejoin:round; stroke-width:3.2; stroke-opacity:1; fill:none" points="1253.36,559.805 1204.71,614.202 1247.89,618.892 1296.53,564.618 1253.36,559.805 "/>
<path clip-path="url(#clip082)" d="M1296.53 564.618 L1247.89 618.892 L1291.06 621.749 L1339.71 567.625  Z" fill="#ffffff" fill-rule="evenodd" fill-opacity="1"/>
<polyline clip-path="url(#clip082)" style="stroke:#000000; stroke-linecap:round; stroke-linejoin:round; stroke-width:3.2; stroke-opacity:1; fill:none" points="1296.53,564.618 1247.89,618.892 1291.06,621.749 1339.71,567.625 1296.53,564.618 "/>
<path clip-path="url(#clip082)" d="M1339.71 567.625 L1291.06 621.749 L1334.23 622.841 L1382.88 568.89  Z" fill="#ffffff" fill-rule="evenodd" fill-opacity="1"/>
<polyline clip-path="url(#clip082)" style="stroke:#000000; stroke-linecap:round; stroke-linejoin:round; stroke-width:3.2; stroke-opacity:1; fill:none" points="1339.71,567.625 1291.06,621.749 1334.23,622.841 1382.88,568.89 1339.71,567.625 "/>
<path clip-path="url(#clip082)" d="M1382.88 568.89 L1334.23 622.841 L1377.41 622.245 L1426.05 568.487  Z" fill="#ffffff" fill-rule="evenodd" fill-opacity="1"/>
<polyline clip-path="url(#clip082)" style="stroke:#000000; stroke-linecap:round; stroke-linejoin:round; stroke-width:3.2; stroke-opacity:1; fill:none" points="1382.88,568.89 1334.23,622.841 1377.41,622.245 1426.05,568.487 1382.88,568.89 "/>
<path clip-path="url(#clip082)" d="M1426.05 568.487 L1377.41 622.245 L1420.58 620.043 L1469.23 566.494  Z" fill="#ffffff" fill-rule="evenodd" fill-opacity="1"/>
<polyline clip-path="url(#clip082)" style="stroke:#000000; stroke-linecap:round; stroke-linejoin:round; stroke-width:3.2; stroke-opacity:1; fill:none" points="1426.05,568.487 1377.41,622.245 1420.58,620.043 1469.23,566.494 1426.05,568.487 "/>
<path clip-path="url(#clip082)" d="M1469.23 566.494 L1420.58 620.043 L1463.75 616.321 L1512.4 562.994  Z" fill="#ffffff" fill-rule="evenodd" fill-opacity="1"/>
<polyline clip-path="url(#clip082)" style="stroke:#000000; stroke-linecap:round; stroke-linejoin:round; stroke-width:3.2; stroke-opacity:1; fill:none" points="1469.23,566.494 1420.58,620.043 1463.75,616.321 1512.4,562.994 1469.23,566.494 "/>
<path clip-path="url(#clip082)" d="M1512.4 562.994 L1463.75 616.321 L1506.92 611.168 L1555.57 558.073  Z" fill="#ffffff" fill-rule="evenodd" fill-opacity="1"/>
<polyline clip-path="url(#clip082)" style="stroke:#000000; stroke-linecap:round; stroke-linejoin:round; stroke-width:3.2; stroke-opacity:1; fill:none" points="1512.4,562.994 1463.75,616.321 1506.92,611.168 1555.57,558.073 1512.4,562.994 "/>
<path clip-path="url(#clip082)" d="M1555.57 558.073 L1506.92 611.168 L1550.1 604.67 L1598.74 551.815  Z" fill="#ffffff" fill-rule="evenodd" fill-opacity="1"/>
<polyline clip-path="url(#clip082)" style="stroke:#000000; stroke-linecap:round; stroke-linejoin:round; stroke-width:3.2; stroke-opacity:1; fill:none" points="1555.57,558.073 1506.92,611.168 1550.1,604.67 1598.74,551.815 1555.57,558.073 "/>
<path clip-path="url(#clip082)" d="M1598.74 551.815 L1550.1 604.67 L1593.27 596.916 L1641.92 544.304  Z" fill="#ffffff" fill-rule="evenodd" fill-opacity="1"/>
<polyline clip-path="url(#clip082)" style="stroke:#000000; stroke-linecap:round; stroke-linejoin:round; stroke-width:3.2; stroke-opacity:1; fill:none" points="1598.74,551.815 1550.1,604.67 1593.27,596.916 1641.92,544.304 1598.74,551.815 "/>
<path clip-path="url(#clip082)" d="M1641.92 544.304 L1593.27 596.916 L1636.44 587.99 L1685.09 535.625  Z" fill="#ffffff" fill-rule="evenodd" fill-opacity="1"/>
<polyline clip-path="url(#clip082)" style="stroke:#000000; stroke-linecap:round; stroke-linejoin:round; stroke-width:3.2; stroke-opacity:1; fill:none" points="1641.92,544.304 1593.27,596.916 1636.44,587.99 1685.09,535.625 1641.92,544.304 "/>
<path clip-path="url(#clip082)" d="M1685.09 535.625 L1636.44 587.99 L1679.62 577.973 L1728.26 525.856  Z" fill="#ffffff" fill-rule="evenodd" fill-opacity="1"/>
<polyline clip-path="url(#clip082)" style="stroke:#000000; stroke-linecap:round; stroke-linejoin:round; stroke-width:3.2; stroke-opacity:1; fill:none" points="1685.09,535.625 1636.44,587.99 1679.62,577.973 1728.26,525.856 1685.09,535.625 "/>
<path clip-path="url(#clip082)" d="M1728.26 525.856 L1679.62 577.973 L1722.79 566.945 L1771.44 515.072  Z" fill="#ffffff" fill-rule="evenodd" fill-opacity="1"/>
<polyline clip-path="url(#clip082)" style="stroke:#000000; stroke-linecap:round; stroke-linejoin:round; stroke-width:3.2; stroke-opacity:1; fill:none" points="1728.26,525.856 1679.62,577.973 1722.79,566.945 1771.44,515.072 1728.26,525.856 "/>
<path clip-path="url(#clip082)" d="M1003.19 566.518 L954.541 619.48 L983.373 629.146 L1032.02 576.165  Z" fill="#ffffff" fill-rule="evenodd" fill-opacity="1"/>
<polyline clip-path="url(#clip082)" style="stroke:#000000; stroke-linecap:round; stroke-linejoin:round; stroke-width:3.2; stroke-opacity:1; fill:none" points="1003.19,566.518 954.541,619.48 983.373,629.146 1032.02,576.165 1003.19,566.518 "/>
<path clip-path="url(#clip082)" d="M1032.02 576.165 L983.373 629.146 L1026.55 641.609 L1075.19 588.628  Z" fill="#ffffff" fill-rule="evenodd" fill-opacity="1"/>
<polyline clip-path="url(#clip082)" style="stroke:#000000; stroke-linecap:round; stroke-linejoin:round; stroke-width:3.2; stroke-opacity:1; fill:none" points="1032.02,576.165 983.373,629.146 1026.55,641.609 1075.19,588.628 1032.02,576.165 "/>
<path clip-path="url(#clip082)" d="M1075.19 588.628 L1026.55 641.609 L1069.72 652.06 L1118.37 599.109  Z" fill="#ffffff" fill-rule="evenodd" fill-opacity="1"/>
<polyline clip-path="url(#clip082)" style="stroke:#000000; stroke-linecap:round; stroke-linejoin:round; stroke-width:3.2; stroke-opacity:1; fill:none" points="1075.19,588.628 1026.55,641.609 1069.72,652.06 1118.37,599.109 1075.19,588.628 "/>
<path clip-path="url(#clip082)" d="M1118.37 599.109 L1069.72 652.06 L1112.89 660.516 L1161.54 607.623  Z" fill="#ffffff" fill-rule="evenodd" fill-opacity="1"/>
<polyline clip-path="url(#clip082)" style="stroke:#000000; stroke-linecap:round; stroke-linejoin:round; stroke-width:3.2; stroke-opacity:1; fill:none" points="1118.37,599.109 1069.72,652.06 1112.89,660.516 1161.54,607.623 1118.37,599.109 "/>
<path clip-path="url(#clip082)" d="M1161.54 607.623 L1112.89 660.516 L1156.07 667.01 L1204.71 614.202  Z" fill="#ffffff" fill-rule="evenodd" fill-opacity="1"/>
<polyline clip-path="url(#clip082)" style="stroke:#000000; stroke-linecap:round; stroke-linejoin:round; stroke-width:3.2; stroke-opacity:1; fill:none" points="1161.54,607.623 1112.89,660.516 1156.07,667.01 1204.71,614.202 1161.54,607.623 "/>
<path clip-path="url(#clip082)" d="M1204.71 614.202 L1156.07 667.01 L1199.24 671.588 L1247.89 618.892  Z" fill="#ffffff" fill-rule="evenodd" fill-opacity="1"/>
<polyline clip-path="url(#clip082)" style="stroke:#000000; stroke-linecap:round; stroke-linejoin:round; stroke-width:3.2; stroke-opacity:1; fill:none" points="1204.71,614.202 1156.07,667.01 1199.24,671.588 1247.89,618.892 1204.71,614.202 "/>
<path clip-path="url(#clip082)" d="M1247.89 618.892 L1199.24 671.588 L1242.41 674.31 L1291.06 621.749  Z" fill="#ffffff" fill-rule="evenodd" fill-opacity="1"/>
<polyline clip-path="url(#clip082)" style="stroke:#000000; stroke-linecap:round; stroke-linejoin:round; stroke-width:3.2; stroke-opacity:1; fill:none" points="1247.89,618.892 1199.24,671.588 1242.41,674.31 1291.06,621.749 1247.89,618.892 "/>
<path clip-path="url(#clip082)" d="M1291.06 621.749 L1242.41 674.31 L1285.59 675.248 L1334.23 622.841  Z" fill="#ffffff" fill-rule="evenodd" fill-opacity="1"/>
<polyline clip-path="url(#clip082)" style="stroke:#000000; stroke-linecap:round; stroke-linejoin:round; stroke-width:3.2; stroke-opacity:1; fill:none" points="1291.06,621.749 1242.41,674.31 1285.59,675.248 1334.23,622.841 1291.06,621.749 "/>
<path clip-path="url(#clip082)" d="M1334.23 622.841 L1285.59 675.248 L1328.76 674.48 L1377.41 622.245  Z" fill="#ffffff" fill-rule="evenodd" fill-opacity="1"/>
<polyline clip-path="url(#clip082)" style="stroke:#000000; stroke-linecap:round; stroke-linejoin:round; stroke-width:3.2; stroke-opacity:1; fill:none" points="1334.23,622.841 1285.59,675.248 1328.76,674.48 1377.41,622.245 1334.23,622.841 "/>
<path clip-path="url(#clip082)" d="M1377.41 622.245 L1328.76 674.48 L1371.93 672.092 L1420.58 620.043  Z" fill="#ffffff" fill-rule="evenodd" fill-opacity="1"/>
<polyline clip-path="url(#clip082)" style="stroke:#000000; stroke-linecap:round; stroke-linejoin:round; stroke-width:3.2; stroke-opacity:1; fill:none" points="1377.41,622.245 1328.76,674.48 1371.93,672.092 1420.58,620.043 1377.41,622.245 "/>
<path clip-path="url(#clip082)" d="M1420.58 620.043 L1371.93 672.092 L1415.1 668.172 L1463.75 616.321  Z" fill="#ffffff" fill-rule="evenodd" fill-opacity="1"/>
<polyline clip-path="url(#clip082)" style="stroke:#000000; stroke-linecap:round; stroke-linejoin:round; stroke-width:3.2; stroke-opacity:1; fill:none" points="1420.58,620.043 1371.93,672.092 1415.1,668.172 1463.75,616.321 1420.58,620.043 "/>
<path clip-path="url(#clip082)" d="M1463.75 616.321 L1415.1 668.172 L1458.28 662.811 L1506.92 611.168  Z" fill="#ffffff" fill-rule="evenodd" fill-opacity="1"/>
<polyline clip-path="url(#clip082)" style="stroke:#000000; stroke-linecap:round; stroke-linejoin:round; stroke-width:3.2; stroke-opacity:1; fill:none" points="1463.75,616.321 1415.1,668.172 1458.28,662.811 1506.92,611.168 1463.75,616.321 "/>
<path clip-path="url(#clip082)" d="M1506.92 611.168 L1458.28 662.811 L1501.45 656.101 L1550.1 604.67  Z" fill="#ffffff" fill-rule="evenodd" fill-opacity="1"/>
<polyline clip-path="url(#clip082)" style="stroke:#000000; stroke-linecap:round; stroke-linejoin:round; stroke-width:3.2; stroke-opacity:1; fill:none" points="1506.92,611.168 1458.28,662.811 1501.45,656.101 1550.1,604.67 1506.92,611.168 "/>
<path clip-path="url(#clip082)" d="M1550.1 604.67 L1501.45 656.101 L1544.62 648.13 L1593.27 596.916  Z" fill="#ffffff" fill-rule="evenodd" fill-opacity="1"/>
<polyline clip-path="url(#clip082)" style="stroke:#000000; stroke-linecap:round; stroke-linejoin:round; stroke-width:3.2; stroke-opacity:1; fill:none" points="1550.1,604.67 1501.45,656.101 1544.62,648.13 1593.27,596.916 1550.1,604.67 "/>
<path clip-path="url(#clip082)" d="M1593.27 596.916 L1544.62 648.13 L1587.8 638.986 L1636.44 587.99  Z" fill="#ffffff" fill-rule="evenodd" fill-opacity="1"/>
<polyline clip-path="url(#clip082)" style="stroke:#000000; stroke-linecap:round; stroke-linejoin:round; stroke-width:3.2; stroke-opacity:1; fill:none" points="1593.27,596.916 1544.62,648.13 1587.8,638.986 1636.44,587.99 1593.27,596.916 "/>
<path clip-path="url(#clip082)" d="M1636.44 587.99 L1587.8 638.986 L1630.97 628.751 L1679.62 577.973  Z" fill="#ffffff" fill-rule="evenodd" fill-opacity="1"/>
<polyline clip-path="url(#clip082)" style="stroke:#000000; stroke-linecap:round; stroke-linejoin:round; stroke-width:3.2; stroke-opacity:1; fill:none" points="1636.44,587.99 1587.8,638.986 1630.97,628.751 1679.62,577.973 1636.44,587.99 "/>
<path clip-path="url(#clip082)" d="M1679.62 577.973 L1630.97 628.751 L1674.14 617.505 L1722.79 566.945  Z" fill="#ffffff" fill-rule="evenodd" fill-opacity="1"/>
<polyline clip-path="url(#clip082)" style="stroke:#000000; stroke-linecap:round; stroke-linejoin:round; stroke-width:3.2; stroke-opacity:1; fill:none" points="1679.62,577.973 1630.97,628.751 1674.14,617.505 1722.79,566.945 1679.62,577.973 "/>
<path clip-path="url(#clip082)" d="M954.541 619.48 L905.894 670.761 L934.726 680.444 L983.373 629.146  Z" fill="#ffffff" fill-rule="evenodd" fill-opacity="1"/>
<polyline clip-path="url(#clip082)" style="stroke:#000000; stroke-linecap:round; stroke-linejoin:round; stroke-width:3.2; stroke-opacity:1; fill:none" points="954.541,619.48 905.894,670.761 934.726,680.444 983.373,629.146 954.541,619.48 "/>
<path clip-path="url(#clip082)" d="M983.373 629.146 L934.726 680.444 L977.899 692.907 L1026.55 641.609  Z" fill="#ffffff" fill-rule="evenodd" fill-opacity="1"/>
<polyline clip-path="url(#clip082)" style="stroke:#000000; stroke-linecap:round; stroke-linejoin:round; stroke-width:3.2; stroke-opacity:1; fill:none" points="983.373,629.146 934.726,680.444 977.899,692.907 1026.55,641.609 983.373,629.146 "/>
<path clip-path="url(#clip082)" d="M1026.55 641.609 L977.899 692.907 L1021.07 703.333 L1069.72 652.06  Z" fill="#ffffff" fill-rule="evenodd" fill-opacity="1"/>
<polyline clip-path="url(#clip082)" style="stroke:#000000; stroke-linecap:round; stroke-linejoin:round; stroke-width:3.2; stroke-opacity:1; fill:none" points="1026.55,641.609 977.899,692.907 1021.07,703.333 1069.72,652.06 1026.55,641.609 "/>
<path clip-path="url(#clip082)" d="M1069.72 652.06 L1021.07 703.333 L1064.25 711.738 L1112.89 660.516  Z" fill="#ffffff" fill-rule="evenodd" fill-opacity="1"/>
<polyline clip-path="url(#clip082)" style="stroke:#000000; stroke-linecap:round; stroke-linejoin:round; stroke-width:3.2; stroke-opacity:1; fill:none" points="1069.72,652.06 1021.07,703.333 1064.25,711.738 1112.89,660.516 1069.72,652.06 "/>
<path clip-path="url(#clip082)" d="M1112.89 660.516 L1064.25 711.738 L1107.42 718.157 L1156.07 667.01  Z" fill="#ffffff" fill-rule="evenodd" fill-opacity="1"/>
<polyline clip-path="url(#clip082)" style="stroke:#000000; stroke-linecap:round; stroke-linejoin:round; stroke-width:3.2; stroke-opacity:1; fill:none" points="1112.89,660.516 1064.25,711.738 1107.42,718.157 1156.07,667.01 1112.89,660.516 "/>
<path clip-path="url(#clip082)" d="M1156.07 667.01 L1107.42 718.157 L1150.59 722.639 L1199.24 671.588  Z" fill="#ffffff" fill-rule="evenodd" fill-opacity="1"/>
<polyline clip-path="url(#clip082)" style="stroke:#000000; stroke-linecap:round; stroke-linejoin:round; stroke-width:3.2; stroke-opacity:1; fill:none" points="1156.07,667.01 1107.42,718.157 1150.59,722.639 1199.24,671.588 1156.07,667.01 "/>
<path clip-path="url(#clip082)" d="M1199.24 671.588 L1150.59 722.639 L1193.76 725.245 L1242.41 674.31  Z" fill="#ffffff" fill-rule="evenodd" fill-opacity="1"/>
<polyline clip-path="url(#clip082)" style="stroke:#000000; stroke-linecap:round; stroke-linejoin:round; stroke-width:3.2; stroke-opacity:1; fill:none" points="1199.24,671.588 1150.59,722.639 1193.76,725.245 1242.41,674.31 1199.24,671.588 "/>
<path clip-path="url(#clip082)" d="M1242.41 674.31 L1193.76 725.245 L1236.94 726.049 L1285.59 675.248  Z" fill="#ffffff" fill-rule="evenodd" fill-opacity="1"/>
<polyline clip-path="url(#clip082)" style="stroke:#000000; stroke-linecap:round; stroke-linejoin:round; stroke-width:3.2; stroke-opacity:1; fill:none" points="1242.41,674.31 1193.76,725.245 1236.94,726.049 1285.59,675.248 1242.41,674.31 "/>
<path clip-path="url(#clip082)" d="M1285.59 675.248 L1236.94 726.049 L1280.11 725.132 L1328.76 674.48  Z" fill="#ffffff" fill-rule="evenodd" fill-opacity="1"/>
<polyline clip-path="url(#clip082)" style="stroke:#000000; stroke-linecap:round; stroke-linejoin:round; stroke-width:3.2; stroke-opacity:1; fill:none" points="1285.59,675.248 1236.94,726.049 1280.11,725.132 1328.76,674.48 1285.59,675.248 "/>
<path clip-path="url(#clip082)" d="M1328.76 674.48 L1280.11 725.132 L1323.28 722.583 L1371.93 672.092  Z" fill="#ffffff" fill-rule="evenodd" fill-opacity="1"/>
<polyline clip-path="url(#clip082)" style="stroke:#000000; stroke-linecap:round; stroke-linejoin:round; stroke-width:3.2; stroke-opacity:1; fill:none" points="1328.76,674.48 1280.11,725.132 1323.28,722.583 1371.93,672.092 1328.76,674.48 "/>
<path clip-path="url(#clip082)" d="M1371.93 672.092 L1323.28 722.583 L1366.46 718.492 L1415.1 668.172  Z" fill="#ffffff" fill-rule="evenodd" fill-opacity="1"/>
<polyline clip-path="url(#clip082)" style="stroke:#000000; stroke-linecap:round; stroke-linejoin:round; stroke-width:3.2; stroke-opacity:1; fill:none" points="1371.93,672.092 1323.28,722.583 1366.46,718.492 1415.1,668.172 1371.93,672.092 "/>
<path clip-path="url(#clip082)" d="M1415.1 668.172 L1366.46 718.492 L1409.63 712.954 L1458.28 662.811  Z" fill="#ffffff" fill-rule="evenodd" fill-opacity="1"/>
<polyline clip-path="url(#clip082)" style="stroke:#000000; stroke-linecap:round; stroke-linejoin:round; stroke-width:3.2; stroke-opacity:1; fill:none" points="1415.1,668.172 1366.46,718.492 1409.63,712.954 1458.28,662.811 1415.1,668.172 "/>
<path clip-path="url(#clip082)" d="M1458.28 662.811 L1409.63 712.954 L1452.8 706.061 L1501.45 656.101  Z" fill="#ffffff" fill-rule="evenodd" fill-opacity="1"/>
<polyline clip-path="url(#clip082)" style="stroke:#000000; stroke-linecap:round; stroke-linejoin:round; stroke-width:3.2; stroke-opacity:1; fill:none" points="1458.28,662.811 1409.63,712.954 1452.8,706.061 1501.45,656.101 1458.28,662.811 "/>
<path clip-path="url(#clip082)" d="M1501.45 656.101 L1452.8 706.061 L1495.98 697.904 L1544.62 648.13  Z" fill="#ffffff" fill-rule="evenodd" fill-opacity="1"/>
<polyline clip-path="url(#clip082)" style="stroke:#000000; stroke-linecap:round; stroke-linejoin:round; stroke-width:3.2; stroke-opacity:1; fill:none" points="1501.45,656.101 1452.8,706.061 1495.98,697.904 1544.62,648.13 1501.45,656.101 "/>
<path clip-path="url(#clip082)" d="M1544.62 648.13 L1495.98 697.904 L1539.15 688.572 L1587.8 638.986  Z" fill="#ffffff" fill-rule="evenodd" fill-opacity="1"/>
<polyline clip-path="url(#clip082)" style="stroke:#000000; stroke-linecap:round; stroke-linejoin:round; stroke-width:3.2; stroke-opacity:1; fill:none" points="1544.62,648.13 1495.98,697.904 1539.15,688.572 1587.8,638.986 1544.62,648.13 "/>
<path clip-path="url(#clip082)" d="M1587.8 638.986 L1539.15 688.572 L1582.32 678.151 L1630.97 628.751  Z" fill="#ffffff" fill-rule="evenodd" fill-opacity="1"/>
<polyline clip-path="url(#clip082)" style="stroke:#000000; stroke-linecap:round; stroke-linejoin:round; stroke-width:3.2; stroke-opacity:1; fill:none" points="1587.8,638.986 1539.15,688.572 1582.32,678.151 1630.97,628.751 1587.8,638.986 "/>
<path clip-path="url(#clip082)" d="M1630.97 628.751 L1582.32 678.151 L1625.5 666.72 L1674.14 617.505  Z" fill="#ffffff" fill-rule="evenodd" fill-opacity="1"/>
<polyline clip-path="url(#clip082)" style="stroke:#000000; stroke-linecap:round; stroke-linejoin:round; stroke-width:3.2; stroke-opacity:1; fill:none" points="1630.97,628.751 1582.32,678.151 1625.5,666.72 1674.14,617.505 1630.97,628.751 "/>
<path clip-path="url(#clip082)" d="M905.894 670.761 L857.247 720.297 L886.079 729.994 L934.726 680.444  Z" fill="#ffffff" fill-rule="evenodd" fill-opacity="1"/>
<polyline clip-path="url(#clip082)" style="stroke:#000000; stroke-linecap:round; stroke-linejoin:round; stroke-width:3.2; stroke-opacity:1; fill:none" points="905.894,670.761 857.247,720.297 886.079,729.994 934.726,680.444 905.894,670.761 "/>
<path clip-path="url(#clip082)" d="M934.726 680.444 L886.079 729.994 L929.252 742.457 L977.899 692.907  Z" fill="#ffffff" fill-rule="evenodd" fill-opacity="1"/>
<polyline clip-path="url(#clip082)" style="stroke:#000000; stroke-linecap:round; stroke-linejoin:round; stroke-width:3.2; stroke-opacity:1; fill:none" points="934.726,680.444 886.079,729.994 929.252,742.457 977.899,692.907 934.726,680.444 "/>
<path clip-path="url(#clip082)" d="M977.899 692.907 L929.252 742.457 L972.425 752.862 L1021.07 703.333  Z" fill="#ffffff" fill-rule="evenodd" fill-opacity="1"/>
<polyline clip-path="url(#clip082)" style="stroke:#000000; stroke-linecap:round; stroke-linejoin:round; stroke-width:3.2; stroke-opacity:1; fill:none" points="977.899,692.907 929.252,742.457 972.425,752.862 1021.07,703.333 977.899,692.907 "/>
<path clip-path="url(#clip082)" d="M1021.07 703.333 L972.425 752.862 L1015.6 761.225 L1064.25 711.738  Z" fill="#ffffff" fill-rule="evenodd" fill-opacity="1"/>
<polyline clip-path="url(#clip082)" style="stroke:#000000; stroke-linecap:round; stroke-linejoin:round; stroke-width:3.2; stroke-opacity:1; fill:none" points="1021.07,703.333 972.425,752.862 1015.6,761.225 1064.25,711.738 1021.07,703.333 "/>
<path clip-path="url(#clip082)" d="M1064.25 711.738 L1015.6 761.225 L1058.77 767.582 L1107.42 718.157  Z" fill="#ffffff" fill-rule="evenodd" fill-opacity="1"/>
<polyline clip-path="url(#clip082)" style="stroke:#000000; stroke-linecap:round; stroke-linejoin:round; stroke-width:3.2; stroke-opacity:1; fill:none" points="1064.25,711.738 1015.6,761.225 1058.77,767.582 1107.42,718.157 1064.25,711.738 "/>
<path clip-path="url(#clip082)" d="M1107.42 718.157 L1058.77 767.582 L1101.94 771.984 L1150.59 722.639  Z" fill="#ffffff" fill-rule="evenodd" fill-opacity="1"/>
<polyline clip-path="url(#clip082)" style="stroke:#000000; stroke-linecap:round; stroke-linejoin:round; stroke-width:3.2; stroke-opacity:1; fill:none" points="1107.42,718.157 1058.77,767.582 1101.94,771.984 1150.59,722.639 1107.42,718.157 "/>
<path clip-path="url(#clip082)" d="M1150.59 722.639 L1101.94 771.984 L1145.12 774.494 L1193.76 725.245  Z" fill="#ffffff" fill-rule="evenodd" fill-opacity="1"/>
<polyline clip-path="url(#clip082)" style="stroke:#000000; stroke-linecap:round; stroke-linejoin:round; stroke-width:3.2; stroke-opacity:1; fill:none" points="1150.59,722.639 1101.94,771.984 1145.12,774.494 1193.76,725.245 1150.59,722.639 "/>
<path clip-path="url(#clip082)" d="M1193.76 725.245 L1145.12 774.494 L1188.29 775.187 L1236.94 726.049  Z" fill="#ffffff" fill-rule="evenodd" fill-opacity="1"/>
<polyline clip-path="url(#clip082)" style="stroke:#000000; stroke-linecap:round; stroke-linejoin:round; stroke-width:3.2; stroke-opacity:1; fill:none" points="1193.76,725.245 1145.12,774.494 1188.29,775.187 1236.94,726.049 1193.76,725.245 "/>
<path clip-path="url(#clip082)" d="M1236.94 726.049 L1188.29 775.187 L1231.46 774.148 L1280.11 725.132  Z" fill="#ffffff" fill-rule="evenodd" fill-opacity="1"/>
<polyline clip-path="url(#clip082)" style="stroke:#000000; stroke-linecap:round; stroke-linejoin:round; stroke-width:3.2; stroke-opacity:1; fill:none" points="1236.94,726.049 1188.29,775.187 1231.46,774.148 1280.11,725.132 1236.94,726.049 "/>
<path clip-path="url(#clip082)" d="M1280.11 725.132 L1231.46 774.148 L1274.64 771.466 L1323.28 722.583  Z" fill="#ffffff" fill-rule="evenodd" fill-opacity="1"/>
<polyline clip-path="url(#clip082)" style="stroke:#000000; stroke-linecap:round; stroke-linejoin:round; stroke-width:3.2; stroke-opacity:1; fill:none" points="1280.11,725.132 1231.46,774.148 1274.64,771.466 1323.28,722.583 1280.11,725.132 "/>
<path clip-path="url(#clip082)" d="M1323.28 722.583 L1274.64 771.466 L1317.81 767.235 L1366.46 718.492  Z" fill="#ffffff" fill-rule="evenodd" fill-opacity="1"/>
<polyline clip-path="url(#clip082)" style="stroke:#000000; stroke-linecap:round; stroke-linejoin:round; stroke-width:3.2; stroke-opacity:1; fill:none" points="1323.28,722.583 1274.64,771.466 1317.81,767.235 1366.46,718.492 1323.28,722.583 "/>
<path clip-path="url(#clip082)" d="M1366.46 718.492 L1317.81 767.235 L1360.98 761.55 L1409.63 712.954  Z" fill="#ffffff" fill-rule="evenodd" fill-opacity="1"/>
<polyline clip-path="url(#clip082)" style="stroke:#000000; stroke-linecap:round; stroke-linejoin:round; stroke-width:3.2; stroke-opacity:1; fill:none" points="1366.46,718.492 1317.81,767.235 1360.98,761.55 1409.63,712.954 1366.46,718.492 "/>
<path clip-path="url(#clip082)" d="M1409.63 712.954 L1360.98 761.55 L1404.16 754.507 L1452.8 706.061  Z" fill="#ffffff" fill-rule="evenodd" fill-opacity="1"/>
<polyline clip-path="url(#clip082)" style="stroke:#000000; stroke-linecap:round; stroke-linejoin:round; stroke-width:3.2; stroke-opacity:1; fill:none" points="1409.63,712.954 1360.98,761.55 1404.16,754.507 1452.8,706.061 1409.63,712.954 "/>
<path clip-path="url(#clip082)" d="M1452.8 706.061 L1404.16 754.507 L1447.33 746.198 L1495.98 697.904  Z" fill="#ffffff" fill-rule="evenodd" fill-opacity="1"/>
<polyline clip-path="url(#clip082)" style="stroke:#000000; stroke-linecap:round; stroke-linejoin:round; stroke-width:3.2; stroke-opacity:1; fill:none" points="1452.8,706.061 1404.16,754.507 1447.33,746.198 1495.98,697.904 1452.8,706.061 "/>
<path clip-path="url(#clip082)" d="M1495.98 697.904 L1447.33 746.198 L1490.5 736.713 L1539.15 688.572  Z" fill="#ffffff" fill-rule="evenodd" fill-opacity="1"/>
<polyline clip-path="url(#clip082)" style="stroke:#000000; stroke-linecap:round; stroke-linejoin:round; stroke-width:3.2; stroke-opacity:1; fill:none" points="1495.98,697.904 1447.33,746.198 1490.5,736.713 1539.15,688.572 1495.98,697.904 "/>
<path clip-path="url(#clip082)" d="M1539.15 688.572 L1490.5 736.713 L1533.68 726.139 L1582.32 678.151  Z" fill="#ffffff" fill-rule="evenodd" fill-opacity="1"/>
<polyline clip-path="url(#clip082)" style="stroke:#000000; stroke-linecap:round; stroke-linejoin:round; stroke-width:3.2; stroke-opacity:1; fill:none" points="1539.15,688.572 1490.5,736.713 1533.68,726.139 1582.32,678.151 1539.15,688.572 "/>
<path clip-path="url(#clip082)" d="M1582.32 678.151 L1533.68 726.139 L1576.85 714.556 L1625.5 666.72  Z" fill="#ffffff" fill-rule="evenodd" fill-opacity="1"/>
<polyline clip-path="url(#clip082)" style="stroke:#000000; stroke-linecap:round; stroke-linejoin:round; stroke-width:3.2; stroke-opacity:1; fill:none" points="1582.32,678.151 1533.68,726.139 1576.85,714.556 1625.5,666.72 1582.32,678.151 "/>
<path clip-path="url(#clip082)" d="M857.247 720.297 L808.6 768.032 L837.432 777.741 L886.079 729.994  Z" fill="#ffffff" fill-rule="evenodd" fill-opacity="1"/>
<polyline clip-path="url(#clip082)" style="stroke:#000000; stroke-linecap:round; stroke-linejoin:round; stroke-width:3.2; stroke-opacity:1; fill:none" points="857.247,720.297 808.6,768.032 837.432,777.741 886.079,729.994 857.247,720.297 "/>
<path clip-path="url(#clip082)" d="M886.079 729.994 L837.432 777.741 L880.605 790.204 L929.252 742.457  Z" fill="#ffffff" fill-rule="evenodd" fill-opacity="1"/>
<polyline clip-path="url(#clip082)" style="stroke:#000000; stroke-linecap:round; stroke-linejoin:round; stroke-width:3.2; stroke-opacity:1; fill:none" points="886.079,729.994 837.432,777.741 880.605,790.204 929.252,742.457 886.079,729.994 "/>
<path clip-path="url(#clip082)" d="M929.252 742.457 L880.605 790.204 L923.778 800.592 L972.425 752.862  Z" fill="#ffffff" fill-rule="evenodd" fill-opacity="1"/>
<polyline clip-path="url(#clip082)" style="stroke:#000000; stroke-linecap:round; stroke-linejoin:round; stroke-width:3.2; stroke-opacity:1; fill:none" points="929.252,742.457 880.605,790.204 923.778,800.592 972.425,752.862 929.252,742.457 "/>
<path clip-path="url(#clip082)" d="M972.425 752.862 L923.778 800.592 L966.952 808.923 L1015.6 761.225  Z" fill="#ffffff" fill-rule="evenodd" fill-opacity="1"/>
<polyline clip-path="url(#clip082)" style="stroke:#000000; stroke-linecap:round; stroke-linejoin:round; stroke-width:3.2; stroke-opacity:1; fill:none" points="972.425,752.862 923.778,800.592 966.952,808.923 1015.6,761.225 972.425,752.862 "/>
<path clip-path="url(#clip082)" d="M1015.6 761.225 L966.952 808.923 L1010.12 815.232 L1058.77 767.582  Z" fill="#ffffff" fill-rule="evenodd" fill-opacity="1"/>
<polyline clip-path="url(#clip082)" style="stroke:#000000; stroke-linecap:round; stroke-linejoin:round; stroke-width:3.2; stroke-opacity:1; fill:none" points="1015.6,761.225 966.952,808.923 1010.12,815.232 1058.77,767.582 1015.6,761.225 "/>
<path clip-path="url(#clip082)" d="M1058.77 767.582 L1010.12 815.232 L1053.3 819.572 L1101.94 771.984  Z" fill="#ffffff" fill-rule="evenodd" fill-opacity="1"/>
<polyline clip-path="url(#clip082)" style="stroke:#000000; stroke-linecap:round; stroke-linejoin:round; stroke-width:3.2; stroke-opacity:1; fill:none" points="1058.77,767.582 1010.12,815.232 1053.3,819.572 1101.94,771.984 1058.77,767.582 "/>
<path clip-path="url(#clip082)" d="M1101.94 771.984 L1053.3 819.572 L1096.47 822.008 L1145.12 774.494  Z" fill="#ffffff" fill-rule="evenodd" fill-opacity="1"/>
<polyline clip-path="url(#clip082)" style="stroke:#000000; stroke-linecap:round; stroke-linejoin:round; stroke-width:3.2; stroke-opacity:1; fill:none" points="1101.94,771.984 1053.3,819.572 1096.47,822.008 1145.12,774.494 1101.94,771.984 "/>
<path clip-path="url(#clip082)" d="M1145.12 774.494 L1096.47 822.008 L1139.64 822.616 L1188.29 775.187  Z" fill="#ffffff" fill-rule="evenodd" fill-opacity="1"/>
<polyline clip-path="url(#clip082)" style="stroke:#000000; stroke-linecap:round; stroke-linejoin:round; stroke-width:3.2; stroke-opacity:1; fill:none" points="1145.12,774.494 1096.47,822.008 1139.64,822.616 1188.29,775.187 1145.12,774.494 "/>
<path clip-path="url(#clip082)" d="M1188.29 775.187 L1139.64 822.616 L1182.82 821.483 L1231.46 774.148  Z" fill="#ffffff" fill-rule="evenodd" fill-opacity="1"/>
<polyline clip-path="url(#clip082)" style="stroke:#000000; stroke-linecap:round; stroke-linejoin:round; stroke-width:3.2; stroke-opacity:1; fill:none" points="1188.29,775.187 1139.64,822.616 1182.82,821.483 1231.46,774.148 1188.29,775.187 "/>
<path clip-path="url(#clip082)" d="M1231.46 774.148 L1182.82 821.483 L1225.99 818.699 L1274.64 771.466  Z" fill="#ffffff" fill-rule="evenodd" fill-opacity="1"/>
<polyline clip-path="url(#clip082)" style="stroke:#000000; stroke-linecap:round; stroke-linejoin:round; stroke-width:3.2; stroke-opacity:1; fill:none" points="1231.46,774.148 1182.82,821.483 1225.99,818.699 1274.64,771.466 1231.46,774.148 "/>
<path clip-path="url(#clip082)" d="M1274.64 771.466 L1225.99 818.699 L1269.16 814.361 L1317.81 767.235  Z" fill="#ffffff" fill-rule="evenodd" fill-opacity="1"/>
<polyline clip-path="url(#clip082)" style="stroke:#000000; stroke-linecap:round; stroke-linejoin:round; stroke-width:3.2; stroke-opacity:1; fill:none" points="1274.64,771.466 1225.99,818.699 1269.16,814.361 1317.81,767.235 1274.64,771.466 "/>
<path clip-path="url(#clip082)" d="M1317.81 767.235 L1269.16 814.361 L1312.34 808.564 L1360.98 761.55  Z" fill="#ffffff" fill-rule="evenodd" fill-opacity="1"/>
<polyline clip-path="url(#clip082)" style="stroke:#000000; stroke-linecap:round; stroke-linejoin:round; stroke-width:3.2; stroke-opacity:1; fill:none" points="1317.81,767.235 1269.16,814.361 1312.34,808.564 1360.98,761.55 1317.81,767.235 "/>
<path clip-path="url(#clip082)" d="M1360.98 761.55 L1312.34 808.564 L1355.51 801.406 L1404.16 754.507  Z" fill="#ffffff" fill-rule="evenodd" fill-opacity="1"/>
<polyline clip-path="url(#clip082)" style="stroke:#000000; stroke-linecap:round; stroke-linejoin:round; stroke-width:3.2; stroke-opacity:1; fill:none" points="1360.98,761.55 1312.34,808.564 1355.51,801.406 1404.16,754.507 1360.98,761.55 "/>
<path clip-path="url(#clip082)" d="M1404.16 754.507 L1355.51 801.406 L1398.68 792.98 L1447.33 746.198  Z" fill="#ffffff" fill-rule="evenodd" fill-opacity="1"/>
<polyline clip-path="url(#clip082)" style="stroke:#000000; stroke-linecap:round; stroke-linejoin:round; stroke-width:3.2; stroke-opacity:1; fill:none" points="1404.16,754.507 1355.51,801.406 1398.68,792.98 1447.33,746.198 1404.16,754.507 "/>
<path clip-path="url(#clip082)" d="M1447.33 746.198 L1398.68 792.98 L1441.86 783.378 L1490.5 736.713  Z" fill="#ffffff" fill-rule="evenodd" fill-opacity="1"/>
<polyline clip-path="url(#clip082)" style="stroke:#000000; stroke-linecap:round; stroke-linejoin:round; stroke-width:3.2; stroke-opacity:1; fill:none" points="1447.33,746.198 1398.68,792.98 1441.86,783.378 1490.5,736.713 1447.33,746.198 "/>
<path clip-path="url(#clip082)" d="M1490.5 736.713 L1441.86 783.378 L1485.03 772.687 L1533.68 726.139  Z" fill="#ffffff" fill-rule="evenodd" fill-opacity="1"/>
<polyline clip-path="url(#clip082)" style="stroke:#000000; stroke-linecap:round; stroke-linejoin:round; stroke-width:3.2; stroke-opacity:1; fill:none" points="1490.5,736.713 1441.86,783.378 1485.03,772.687 1533.68,726.139 1490.5,736.713 "/>
<path clip-path="url(#clip082)" d="M1533.68 726.139 L1485.03 772.687 L1528.2 760.989 L1576.85 714.556  Z" fill="#ffffff" fill-rule="evenodd" fill-opacity="1"/>
<polyline clip-path="url(#clip082)" style="stroke:#000000; stroke-linecap:round; stroke-linejoin:round; stroke-width:3.2; stroke-opacity:1; fill:none" points="1533.68,726.139 1485.03,772.687 1528.2,760.989 1576.85,714.556 1533.68,726.139 "/>
<path clip-path="url(#clip082)" d="M808.6 768.032 L759.953 813.923 L788.785 823.64 L837.432 777.741  Z" fill="#ffffff" fill-rule="evenodd" fill-opacity="1"/>
<polyline clip-path="url(#clip082)" style="stroke:#000000; stroke-linecap:round; stroke-linejoin:round; stroke-width:3.2; stroke-opacity:1; fill:none" points="808.6,768.032 759.953,813.923 788.785,823.64 837.432,777.741 808.6,768.032 "/>
<path clip-path="url(#clip082)" d="M837.432 777.741 L788.785 823.64 L831.958 836.103 L880.605 790.204  Z" fill="#ffffff" fill-rule="evenodd" fill-opacity="1"/>
<polyline clip-path="url(#clip082)" style="stroke:#000000; stroke-linecap:round; stroke-linejoin:round; stroke-width:3.2; stroke-opacity:1; fill:none" points="837.432,777.741 788.785,823.64 831.958,836.103 880.605,790.204 837.432,777.741 "/>
<path clip-path="url(#clip082)" d="M880.605 790.204 L831.958 836.103 L875.131 846.479 L923.778 800.592  Z" fill="#ffffff" fill-rule="evenodd" fill-opacity="1"/>
<polyline clip-path="url(#clip082)" style="stroke:#000000; stroke-linecap:round; stroke-linejoin:round; stroke-width:3.2; stroke-opacity:1; fill:none" points="880.605,790.204 831.958,836.103 875.131,846.479 923.778,800.592 880.605,790.204 "/>
<path clip-path="url(#clip082)" d="M923.778 800.592 L875.131 846.479 L918.305 854.788 L966.952 808.923  Z" fill="#ffffff" fill-rule="evenodd" fill-opacity="1"/>
<polyline clip-path="url(#clip082)" style="stroke:#000000; stroke-linecap:round; stroke-linejoin:round; stroke-width:3.2; stroke-opacity:1; fill:none" points="923.778,800.592 875.131,846.479 918.305,854.788 966.952,808.923 923.778,800.592 "/>
<path clip-path="url(#clip082)" d="M966.952 808.923 L918.305 854.788 L961.478 861.066 L1010.12 815.232  Z" fill="#ffffff" fill-rule="evenodd" fill-opacity="1"/>
<polyline clip-path="url(#clip082)" style="stroke:#000000; stroke-linecap:round; stroke-linejoin:round; stroke-width:3.2; stroke-opacity:1; fill:none" points="966.952,808.923 918.305,854.788 961.478,861.066 1010.12,815.232 966.952,808.923 "/>
<path clip-path="url(#clip082)" d="M1010.12 815.232 L961.478 861.066 L1004.65 865.364 L1053.3 819.572  Z" fill="#ffffff" fill-rule="evenodd" fill-opacity="1"/>
<polyline clip-path="url(#clip082)" style="stroke:#000000; stroke-linecap:round; stroke-linejoin:round; stroke-width:3.2; stroke-opacity:1; fill:none" points="1010.12,815.232 961.478,861.066 1004.65,865.364 1053.3,819.572 1010.12,815.232 "/>
<path clip-path="url(#clip082)" d="M1053.3 819.572 L1004.65 865.364 L1047.82 867.75 L1096.47 822.008  Z" fill="#ffffff" fill-rule="evenodd" fill-opacity="1"/>
<polyline clip-path="url(#clip082)" style="stroke:#000000; stroke-linecap:round; stroke-linejoin:round; stroke-width:3.2; stroke-opacity:1; fill:none" points="1053.3,819.572 1004.65,865.364 1047.82,867.75 1096.47,822.008 1053.3,819.572 "/>
<path clip-path="url(#clip082)" d="M1096.47 822.008 L1047.82 867.75 L1091 868.3 L1139.64 822.616  Z" fill="#ffffff" fill-rule="evenodd" fill-opacity="1"/>
<polyline clip-path="url(#clip082)" style="stroke:#000000; stroke-linecap:round; stroke-linejoin:round; stroke-width:3.2; stroke-opacity:1; fill:none" points="1096.47,822.008 1047.82,867.75 1091,868.3 1139.64,822.616 1096.47,822.008 "/>
<path clip-path="url(#clip082)" d="M1139.64 822.616 L1091 868.3 L1134.17 867.103 L1182.82 821.483  Z" fill="#ffffff" fill-rule="evenodd" fill-opacity="1"/>
<polyline clip-path="url(#clip082)" style="stroke:#000000; stroke-linecap:round; stroke-linejoin:round; stroke-width:3.2; stroke-opacity:1; fill:none" points="1139.64,822.616 1091,868.3 1134.17,867.103 1182.82,821.483 1139.64,822.616 "/>
<path clip-path="url(#clip082)" d="M1182.82 821.483 L1134.17 867.103 L1177.34 864.25 L1225.99 818.699  Z" fill="#ffffff" fill-rule="evenodd" fill-opacity="1"/>
<polyline clip-path="url(#clip082)" style="stroke:#000000; stroke-linecap:round; stroke-linejoin:round; stroke-width:3.2; stroke-opacity:1; fill:none" points="1182.82,821.483 1134.17,867.103 1177.34,864.25 1225.99,818.699 1182.82,821.483 "/>
<path clip-path="url(#clip082)" d="M1225.99 818.699 L1177.34 864.25 L1220.52 859.838 L1269.16 814.361  Z" fill="#ffffff" fill-rule="evenodd" fill-opacity="1"/>
<polyline clip-path="url(#clip082)" style="stroke:#000000; stroke-linecap:round; stroke-linejoin:round; stroke-width:3.2; stroke-opacity:1; fill:none" points="1225.99,818.699 1177.34,864.25 1220.52,859.838 1269.16,814.361 1225.99,818.699 "/>
<path clip-path="url(#clip082)" d="M1269.16 814.361 L1220.52 859.838 L1263.69 853.966 L1312.34 808.564  Z" fill="#ffffff" fill-rule="evenodd" fill-opacity="1"/>
<polyline clip-path="url(#clip082)" style="stroke:#000000; stroke-linecap:round; stroke-linejoin:round; stroke-width:3.2; stroke-opacity:1; fill:none" points="1269.16,814.361 1220.52,859.838 1263.69,853.966 1312.34,808.564 1269.16,814.361 "/>
<path clip-path="url(#clip082)" d="M1312.34 808.564 L1263.69 853.966 L1306.86 846.73 L1355.51 801.406  Z" fill="#ffffff" fill-rule="evenodd" fill-opacity="1"/>
<polyline clip-path="url(#clip082)" style="stroke:#000000; stroke-linecap:round; stroke-linejoin:round; stroke-width:3.2; stroke-opacity:1; fill:none" points="1312.34,808.564 1263.69,853.966 1306.86,846.73 1355.51,801.406 1312.34,808.564 "/>
<path clip-path="url(#clip082)" d="M1355.51 801.406 L1306.86 846.73 L1350.04 838.226 L1398.68 792.98  Z" fill="#ffffff" fill-rule="evenodd" fill-opacity="1"/>
<polyline clip-path="url(#clip082)" style="stroke:#000000; stroke-linecap:round; stroke-linejoin:round; stroke-width:3.2; stroke-opacity:1; fill:none" points="1355.51,801.406 1306.86,846.73 1350.04,838.226 1398.68,792.98 1355.51,801.406 "/>
<path clip-path="url(#clip082)" d="M1398.68 792.98 L1350.04 838.226 L1393.21 828.545 L1441.86 783.378  Z" fill="#ffffff" fill-rule="evenodd" fill-opacity="1"/>
<polyline clip-path="url(#clip082)" style="stroke:#000000; stroke-linecap:round; stroke-linejoin:round; stroke-width:3.2; stroke-opacity:1; fill:none" points="1398.68,792.98 1350.04,838.226 1393.21,828.545 1441.86,783.378 1398.68,792.98 "/>
<path clip-path="url(#clip082)" d="M1441.86 783.378 L1393.21 828.545 L1436.38 817.775 L1485.03 772.687  Z" fill="#ffffff" fill-rule="evenodd" fill-opacity="1"/>
<polyline clip-path="url(#clip082)" style="stroke:#000000; stroke-linecap:round; stroke-linejoin:round; stroke-width:3.2; stroke-opacity:1; fill:none" points="1441.86,783.378 1393.21,828.545 1436.38,817.775 1485.03,772.687 1441.86,783.378 "/>
<path clip-path="url(#clip082)" d="M1485.03 772.687 L1436.38 817.775 L1479.56 805.998 L1528.2 760.989  Z" fill="#ffffff" fill-rule="evenodd" fill-opacity="1"/>
<polyline clip-path="url(#clip082)" style="stroke:#000000; stroke-linecap:round; stroke-linejoin:round; stroke-width:3.2; stroke-opacity:1; fill:none" points="1485.03,772.687 1436.38,817.775 1479.56,805.998 1528.2,760.989 1485.03,772.687 "/>
<path clip-path="url(#clip082)" d="M759.953 813.923 L711.306 857.941 L740.138 867.662 L788.785 823.64  Z" fill="#ffffff" fill-rule="evenodd" fill-opacity="1"/>
<polyline clip-path="url(#clip082)" style="stroke:#000000; stroke-linecap:round; stroke-linejoin:round; stroke-width:3.2; stroke-opacity:1; fill:none" points="759.953,813.923 711.306,857.941 740.138,867.662 788.785,823.64 759.953,813.923 "/>
<path clip-path="url(#clip082)" d="M788.785 823.64 L740.138 867.662 L783.311 880.125 L831.958 836.103  Z" fill="#ffffff" fill-rule="evenodd" fill-opacity="1"/>
<polyline clip-path="url(#clip082)" style="stroke:#000000; stroke-linecap:round; stroke-linejoin:round; stroke-width:3.2; stroke-opacity:1; fill:none" points="788.785,823.64 740.138,867.662 783.311,880.125 831.958,836.103 788.785,823.64 "/>
<path clip-path="url(#clip082)" d="M831.958 836.103 L783.311 880.125 L826.484 890.496 L875.131 846.479  Z" fill="#ffffff" fill-rule="evenodd" fill-opacity="1"/>
<polyline clip-path="url(#clip082)" style="stroke:#000000; stroke-linecap:round; stroke-linejoin:round; stroke-width:3.2; stroke-opacity:1; fill:none" points="831.958,836.103 783.311,880.125 826.484,890.496 875.131,846.479 831.958,836.103 "/>
<path clip-path="url(#clip082)" d="M875.131 846.479 L826.484 890.496 L869.658 898.794 L918.305 854.788  Z" fill="#ffffff" fill-rule="evenodd" fill-opacity="1"/>
<polyline clip-path="url(#clip082)" style="stroke:#000000; stroke-linecap:round; stroke-linejoin:round; stroke-width:3.2; stroke-opacity:1; fill:none" points="875.131,846.479 826.484,890.496 869.658,898.794 918.305,854.788 875.131,846.479 "/>
<path clip-path="url(#clip082)" d="M918.305 854.788 L869.658 898.794 L912.831 905.055 L961.478 861.066  Z" fill="#ffffff" fill-rule="evenodd" fill-opacity="1"/>
<polyline clip-path="url(#clip082)" style="stroke:#000000; stroke-linecap:round; stroke-linejoin:round; stroke-width:3.2; stroke-opacity:1; fill:none" points="918.305,854.788 869.658,898.794 912.831,905.055 961.478,861.066 918.305,854.788 "/>
<path clip-path="url(#clip082)" d="M961.478 861.066 L912.831 905.055 L956.004 909.332 L1004.65 865.364  Z" fill="#ffffff" fill-rule="evenodd" fill-opacity="1"/>
<polyline clip-path="url(#clip082)" style="stroke:#000000; stroke-linecap:round; stroke-linejoin:round; stroke-width:3.2; stroke-opacity:1; fill:none" points="961.478,861.066 912.831,905.055 956.004,909.332 1004.65,865.364 961.478,861.066 "/>
<path clip-path="url(#clip082)" d="M1004.65 865.364 L956.004 909.332 L999.177 911.692 L1047.82 867.75  Z" fill="#ffffff" fill-rule="evenodd" fill-opacity="1"/>
<polyline clip-path="url(#clip082)" style="stroke:#000000; stroke-linecap:round; stroke-linejoin:round; stroke-width:3.2; stroke-opacity:1; fill:none" points="1004.65,865.364 956.004,909.332 999.177,911.692 1047.82,867.75 1004.65,865.364 "/>
<path clip-path="url(#clip082)" d="M1047.82 867.75 L999.177 911.692 L1042.35 912.213 L1091 868.3  Z" fill="#ffffff" fill-rule="evenodd" fill-opacity="1"/>
<polyline clip-path="url(#clip082)" style="stroke:#000000; stroke-linecap:round; stroke-linejoin:round; stroke-width:3.2; stroke-opacity:1; fill:none" points="1047.82,867.75 999.177,911.692 1042.35,912.213 1091,868.3 1047.82,867.75 "/>
<path clip-path="url(#clip082)" d="M1091 868.3 L1042.35 912.213 L1085.52 910.983 L1134.17 867.103  Z" fill="#ffffff" fill-rule="evenodd" fill-opacity="1"/>
<polyline clip-path="url(#clip082)" style="stroke:#000000; stroke-linecap:round; stroke-linejoin:round; stroke-width:3.2; stroke-opacity:1; fill:none" points="1091,868.3 1042.35,912.213 1085.52,910.983 1134.17,867.103 1091,868.3 "/>
<path clip-path="url(#clip082)" d="M1134.17 867.103 L1085.52 910.983 L1128.7 908.096 L1177.34 864.25  Z" fill="#ffffff" fill-rule="evenodd" fill-opacity="1"/>
<polyline clip-path="url(#clip082)" style="stroke:#000000; stroke-linecap:round; stroke-linejoin:round; stroke-width:3.2; stroke-opacity:1; fill:none" points="1134.17,867.103 1085.52,910.983 1128.7,908.096 1177.34,864.25 1134.17,867.103 "/>
<path clip-path="url(#clip082)" d="M1177.34 864.25 L1128.7 908.096 L1171.87 903.647 L1220.52 859.838  Z" fill="#ffffff" fill-rule="evenodd" fill-opacity="1"/>
<polyline clip-path="url(#clip082)" style="stroke:#000000; stroke-linecap:round; stroke-linejoin:round; stroke-width:3.2; stroke-opacity:1; fill:none" points="1177.34,864.25 1128.7,908.096 1171.87,903.647 1220.52,859.838 1177.34,864.25 "/>
<path clip-path="url(#clip082)" d="M1220.52 859.838 L1171.87 903.647 L1215.04 897.737 L1263.69 853.966  Z" fill="#ffffff" fill-rule="evenodd" fill-opacity="1"/>
<polyline clip-path="url(#clip082)" style="stroke:#000000; stroke-linecap:round; stroke-linejoin:round; stroke-width:3.2; stroke-opacity:1; fill:none" points="1220.52,859.838 1171.87,903.647 1215.04,897.737 1263.69,853.966 1220.52,859.838 "/>
<path clip-path="url(#clip082)" d="M1263.69 853.966 L1215.04 897.737 L1258.22 890.462 L1306.86 846.73  Z" fill="#ffffff" fill-rule="evenodd" fill-opacity="1"/>
<polyline clip-path="url(#clip082)" style="stroke:#000000; stroke-linecap:round; stroke-linejoin:round; stroke-width:3.2; stroke-opacity:1; fill:none" points="1263.69,853.966 1215.04,897.737 1258.22,890.462 1306.86,846.73 1263.69,853.966 "/>
<path clip-path="url(#clip082)" d="M1306.86 846.73 L1258.22 890.462 L1301.39 881.918 L1350.04 838.226  Z" fill="#ffffff" fill-rule="evenodd" fill-opacity="1"/>
<polyline clip-path="url(#clip082)" style="stroke:#000000; stroke-linecap:round; stroke-linejoin:round; stroke-width:3.2; stroke-opacity:1; fill:none" points="1306.86,846.73 1258.22,890.462 1301.39,881.918 1350.04,838.226 1306.86,846.73 "/>
<path clip-path="url(#clip082)" d="M1350.04 838.226 L1301.39 881.918 L1344.56 872.197 L1393.21 828.545  Z" fill="#ffffff" fill-rule="evenodd" fill-opacity="1"/>
<polyline clip-path="url(#clip082)" style="stroke:#000000; stroke-linecap:round; stroke-linejoin:round; stroke-width:3.2; stroke-opacity:1; fill:none" points="1350.04,838.226 1301.39,881.918 1344.56,872.197 1393.21,828.545 1350.04,838.226 "/>
<path clip-path="url(#clip082)" d="M1393.21 828.545 L1344.56 872.197 L1387.74 861.387 L1436.38 817.775  Z" fill="#ffffff" fill-rule="evenodd" fill-opacity="1"/>
<polyline clip-path="url(#clip082)" style="stroke:#000000; stroke-linecap:round; stroke-linejoin:round; stroke-width:3.2; stroke-opacity:1; fill:none" points="1393.21,828.545 1344.56,872.197 1387.74,861.387 1436.38,817.775 1393.21,828.545 "/>
<path clip-path="url(#clip082)" d="M1436.38 817.775 L1387.74 861.387 L1430.91 849.571 L1479.56 805.998  Z" fill="#ffffff" fill-rule="evenodd" fill-opacity="1"/>
<polyline clip-path="url(#clip082)" style="stroke:#000000; stroke-linecap:round; stroke-linejoin:round; stroke-width:3.2; stroke-opacity:1; fill:none" points="1436.38,817.775 1387.74,861.387 1430.91,849.571 1479.56,805.998 1436.38,817.775 "/>
<path clip-path="url(#clip082)" d="M711.306 857.941 L686.983 879.006 L715.815 888.726 L740.138 867.662  Z" fill="#ffffff" fill-rule="evenodd" fill-opacity="1"/>
<polyline clip-path="url(#clip082)" style="stroke:#000000; stroke-linecap:round; stroke-linejoin:round; stroke-width:3.2; stroke-opacity:1; fill:none" points="711.306,857.941 686.983,879.006 715.815,888.726 740.138,867.662 711.306,857.941 "/>
<path clip-path="url(#clip082)" d="M740.138 867.662 L715.815 888.726 L758.988 901.189 L783.311 880.125  Z" fill="#ffffff" fill-rule="evenodd" fill-opacity="1"/>
<polyline clip-path="url(#clip082)" style="stroke:#000000; stroke-linecap:round; stroke-linejoin:round; stroke-width:3.2; stroke-opacity:1; fill:none" points="740.138,867.662 715.815,888.726 758.988,901.189 783.311,880.125 740.138,867.662 "/>
<path clip-path="url(#clip082)" d="M783.311 880.125 L758.988 901.189 L802.161 911.56 L826.484 890.496  Z" fill="#ffffff" fill-rule="evenodd" fill-opacity="1"/>
<polyline clip-path="url(#clip082)" style="stroke:#000000; stroke-linecap:round; stroke-linejoin:round; stroke-width:3.2; stroke-opacity:1; fill:none" points="783.311,880.125 758.988,901.189 802.161,911.56 826.484,890.496 783.311,880.125 "/>
<path clip-path="url(#clip082)" d="M826.484 890.496 L802.161 911.56 L845.334 919.858 L869.658 898.794  Z" fill="#ffffff" fill-rule="evenodd" fill-opacity="1"/>
<polyline clip-path="url(#clip082)" style="stroke:#000000; stroke-linecap:round; stroke-linejoin:round; stroke-width:3.2; stroke-opacity:1; fill:none" points="826.484,890.496 802.161,911.56 845.334,919.858 869.658,898.794 826.484,890.496 "/>
<path clip-path="url(#clip082)" d="M869.658 898.794 L845.334 919.858 L888.507 926.119 L912.831 905.055  Z" fill="#ffffff" fill-rule="evenodd" fill-opacity="1"/>
<polyline clip-path="url(#clip082)" style="stroke:#000000; stroke-linecap:round; stroke-linejoin:round; stroke-width:3.2; stroke-opacity:1; fill:none" points="869.658,898.794 845.334,919.858 888.507,926.119 912.831,905.055 869.658,898.794 "/>
<path clip-path="url(#clip082)" d="M912.831 905.055 L888.507 926.119 L931.68 930.397 L956.004 909.332  Z" fill="#ffffff" fill-rule="evenodd" fill-opacity="1"/>
<polyline clip-path="url(#clip082)" style="stroke:#000000; stroke-linecap:round; stroke-linejoin:round; stroke-width:3.2; stroke-opacity:1; fill:none" points="912.831,905.055 888.507,926.119 931.68,930.397 956.004,909.332 912.831,905.055 "/>
<path clip-path="url(#clip082)" d="M956.004 909.332 L931.68 930.397 L974.854 932.757 L999.177 911.692  Z" fill="#ffffff" fill-rule="evenodd" fill-opacity="1"/>
<polyline clip-path="url(#clip082)" style="stroke:#000000; stroke-linecap:round; stroke-linejoin:round; stroke-width:3.2; stroke-opacity:1; fill:none" points="956.004,909.332 931.68,930.397 974.854,932.757 999.177,911.692 956.004,909.332 "/>
<path clip-path="url(#clip082)" d="M999.177 911.692 L974.854 932.757 L1018.03 933.278 L1042.35 912.213  Z" fill="#ffffff" fill-rule="evenodd" fill-opacity="1"/>
<polyline clip-path="url(#clip082)" style="stroke:#000000; stroke-linecap:round; stroke-linejoin:round; stroke-width:3.2; stroke-opacity:1; fill:none" points="999.177,911.692 974.854,932.757 1018.03,933.278 1042.35,912.213 999.177,911.692 "/>
<path clip-path="url(#clip082)" d="M1042.35 912.213 L1018.03 933.278 L1061.2 932.048 L1085.52 910.983  Z" fill="#ffffff" fill-rule="evenodd" fill-opacity="1"/>
<polyline clip-path="url(#clip082)" style="stroke:#000000; stroke-linecap:round; stroke-linejoin:round; stroke-width:3.2; stroke-opacity:1; fill:none" points="1042.35,912.213 1018.03,933.278 1061.2,932.048 1085.52,910.983 1042.35,912.213 "/>
<path clip-path="url(#clip082)" d="M1085.52 910.983 L1061.2 932.048 L1104.37 929.161 L1128.7 908.096  Z" fill="#ffffff" fill-rule="evenodd" fill-opacity="1"/>
<polyline clip-path="url(#clip082)" style="stroke:#000000; stroke-linecap:round; stroke-linejoin:round; stroke-width:3.2; stroke-opacity:1; fill:none" points="1085.52,910.983 1061.2,932.048 1104.37,929.161 1128.7,908.096 1085.52,910.983 "/>
<path clip-path="url(#clip082)" d="M1128.7 908.096 L1104.37 929.161 L1147.55 924.712 L1171.87 903.647  Z" fill="#ffffff" fill-rule="evenodd" fill-opacity="1"/>
<polyline clip-path="url(#clip082)" style="stroke:#000000; stroke-linecap:round; stroke-linejoin:round; stroke-width:3.2; stroke-opacity:1; fill:none" points="1128.7,908.096 1104.37,929.161 1147.55,924.712 1171.87,903.647 1128.7,908.096 "/>
<path clip-path="url(#clip082)" d="M1171.87 903.647 L1147.55 924.712 L1190.72 918.802 L1215.04 897.737  Z" fill="#ffffff" fill-rule="evenodd" fill-opacity="1"/>
<polyline clip-path="url(#clip082)" style="stroke:#000000; stroke-linecap:round; stroke-linejoin:round; stroke-width:3.2; stroke-opacity:1; fill:none" points="1171.87,903.647 1147.55,924.712 1190.72,918.802 1215.04,897.737 1171.87,903.647 "/>
<path clip-path="url(#clip082)" d="M1215.04 897.737 L1190.72 918.802 L1233.89 911.526 L1258.22 890.462  Z" fill="#ffffff" fill-rule="evenodd" fill-opacity="1"/>
<polyline clip-path="url(#clip082)" style="stroke:#000000; stroke-linecap:round; stroke-linejoin:round; stroke-width:3.2; stroke-opacity:1; fill:none" points="1215.04,897.737 1190.72,918.802 1233.89,911.526 1258.22,890.462 1215.04,897.737 "/>
<path clip-path="url(#clip082)" d="M1258.22 890.462 L1233.89 911.526 L1277.07 902.982 L1301.39 881.918  Z" fill="#ffffff" fill-rule="evenodd" fill-opacity="1"/>
<polyline clip-path="url(#clip082)" style="stroke:#000000; stroke-linecap:round; stroke-linejoin:round; stroke-width:3.2; stroke-opacity:1; fill:none" points="1258.22,890.462 1233.89,911.526 1277.07,902.982 1301.39,881.918 1258.22,890.462 "/>
<path clip-path="url(#clip082)" d="M1301.39 881.918 L1277.07 902.982 L1320.24 893.261 L1344.56 872.197  Z" fill="#ffffff" fill-rule="evenodd" fill-opacity="1"/>
<polyline clip-path="url(#clip082)" style="stroke:#000000; stroke-linecap:round; stroke-linejoin:round; stroke-width:3.2; stroke-opacity:1; fill:none" points="1301.39,881.918 1277.07,902.982 1320.24,893.261 1344.56,872.197 1301.39,881.918 "/>
<path clip-path="url(#clip082)" d="M1344.56 872.197 L1320.24 893.261 L1363.41 882.452 L1387.74 861.387  Z" fill="#ffffff" fill-rule="evenodd" fill-opacity="1"/>
<polyline clip-path="url(#clip082)" style="stroke:#000000; stroke-linecap:round; stroke-linejoin:round; stroke-width:3.2; stroke-opacity:1; fill:none" points="1344.56,872.197 1320.24,893.261 1363.41,882.452 1387.74,861.387 1344.56,872.197 "/>
<path clip-path="url(#clip082)" d="M1387.74 861.387 L1363.41 882.452 L1406.58 870.636 L1430.91 849.571  Z" fill="#ffffff" fill-rule="evenodd" fill-opacity="1"/>
<polyline clip-path="url(#clip082)" style="stroke:#000000; stroke-linecap:round; stroke-linejoin:round; stroke-width:3.2; stroke-opacity:1; fill:none" points="1387.74,861.387 1363.41,882.452 1406.58,870.636 1430.91,849.571 1387.74,861.387 "/>
<polyline clip-path="url(#clip082)" style="stroke:#e26f46; stroke-linecap:round; stroke-linejoin:round; stroke-width:4; stroke-opacity:1; fill:none" points="1406.58,870.817 1408.92,867.579 1411.28,864.323 1413.65,861.047 1416.04,857.751 1418.45,854.437 1420.88,851.102 1423.32,847.749 1425.78,844.375 1428.26,840.982 1430.76,837.569 1433.28,834.135 1435.82,830.682 1438.37,827.209 1440.94,823.715 1443.54,820.201 1446.15,816.667 1448.78,813.112 1451.42,809.536 1454.09,805.94 1456.78,802.323 1459.48,798.685 1462.2,795.026 1464.95,791.346 1467.71,787.644 1470.49,783.922 1473.29,780.178 1476.11,776.412 1478.95,772.625 1481.81,768.817 1484.69,764.986 1487.59,761.134 1490.51,757.259 1493.45,753.363 1496.41,749.444 1499.39,745.503 1502.39,741.54 1505.41,737.554 1508.44,733.545 1511.5,729.514 1514.59,725.46 1517.69,721.383 1520.81,717.282 1523.95,713.159 1527.11,709.013 1530.3,704.843 1533.5,700.649 1536.73,696.432 1539.98,692.192 1543.25,687.927 1546.54,683.639 1549.85,679.326 1553.18,674.99 1556.53,670.629 1559.91,666.243 1563.31,661.834 1566.73,657.399 1570.17,652.94 1573.63,648.456 1577.12,643.947 1580.63,639.413 1584.16,634.853 1587.71,630.269 1591.28,625.659 1594.88,621.023 1598.5,616.362 1602.15,611.674 1605.81,606.961 1609.5,602.222 1613.21,597.457 1616.95,592.665 1620.71,587.847 1624.49,583.002 1628.29,578.13 1632.12,573.232 1635.98,568.307 1639.85,563.354 1643.75,558.375 1647.68,553.368 1651.62,548.333 1655.6,543.271 1659.59,538.181 1663.61,533.064 1667.66,527.918 1671.73,522.744 1675.83,517.542 1679.95,512.311 1684.09,507.052 1688.26,501.764 1692.45,496.447 1696.68,491.101 1700.12,486.746 "/>
<circle clip-path="url(#clip082)" cx="1406.58" cy="870.817" r="14.4" fill="#3da44d" fill-rule="evenodd" fill-opacity="1" stroke="#000000" stroke-opacity="1" stroke-width="3.2"/>
<polyline clip-path="url(#clip082)" style="stroke:#c271d2; stroke-linecap:round; stroke-linejoin:round; stroke-width:4; stroke-opacity:1; fill:none" points="1406.58,870.817 971.731,829.181 "/>
<polyline clip-path="url(#clip082)" style="stroke:#c271d2; stroke-linecap:round; stroke-linejoin:round; stroke-width:4; stroke-opacity:1; fill:none" points="1559.17,512.184 931.506,788.922 "/>
<polyline clip-path="url(#clip082)" style="stroke:#c271d2; stroke-linecap:round; stroke-linejoin:round; stroke-width:4; stroke-opacity:1; fill:none" points="1148.44,509.859 1028.72,602.525 "/>
<polyline clip-path="url(#clip082)" style="stroke:#c271d2; stroke-linecap:round; stroke-linejoin:round; stroke-width:4; stroke-opacity:1; fill:none" points="1001.01,1184.23 1253.39,1166.36 "/>
<polyline clip-path="url(#clip082)" style="stroke:#c271d2; stroke-linecap:round; stroke-linejoin:round; stroke-width:4; stroke-opacity:1; fill:none" points="949.397,1085.05 1328.83,932.474 "/>
<polyline clip-path="url(#clip082)" style="stroke:#c271d2; stroke-linecap:round; stroke-linejoin:round; stroke-width:4; stroke-opacity:1; fill:none" points="997.895,1015.76 1162.94,818.062 "/>
<polyline clip-path="url(#clip082)" style="stroke:#c271d2; stroke-linecap:round; stroke-linejoin:round; stroke-width:4; stroke-opacity:1; fill:none" points="1406.58,870.817 971.731,829.181 "/>
<polyline clip-path="url(#clip082)" style="stroke:#ac8d18; stroke-linecap:round; stroke-linejoin:round; stroke-width:4; stroke-opacity:1; fill:none" points="1406.58,870.817 1401.2,870.266 1395.87,869.65 1390.6,868.969 1385.39,868.223 1380.24,867.413 1375.15,866.537 1370.11,865.596 1365.13,864.59 1360.21,863.519 1355.34,862.382 1350.53,861.179 1345.77,859.911 1341.07,858.578 1336.42,857.178 1331.82,855.713 1327.28,854.181 1322.79,852.583 1318.36,850.919 1313.97,849.188 1309.64,847.39 1305.36,845.526 1301.13,843.594 1296.95,841.595 1292.82,839.529 1288.74,837.396 1284.71,835.194 1280.73,832.925 1276.8,830.587 1272.92,828.181 1269.08,825.707 1265.3,823.164 1261.55,820.551 1257.86,817.87 1254.22,815.118 1250.61,812.298 1247.06,809.407 1243.55,806.445 1240.09,803.414 1236.67,800.311 1233.3,797.137 1229.97,793.892 1226.69,790.576 1223.44,787.187 1220.25,783.726 1217.09,780.193 1213.98,776.586 1210.92,772.907 1207.89,769.154 1204.91,765.327 1201.97,761.425 1199.07,757.449 1196.21,753.399 1193.39,749.273 1190.62,745.071 1187.88,740.793 1185.19,736.439 1182.53,732.008 1179.92,727.499 1177.34,722.914 1174.81,718.25 1172.31,713.507 1169.85,708.686 1167.43,703.785 1165.05,698.805 1162.71,693.745 1160.41,688.603 1158.14,683.381 1155.92,678.077 1153.73,672.691 1151.57,667.223 1149.46,661.671 1147.38,656.036 1145.34,650.317 1143.33,644.514 1141.36,638.625 1139.43,632.651 1137.53,626.59 1135.67,620.443 1133.85,614.209 1132.06,607.887 1130.31,601.476 1128.59,594.977 1126.9,588.388 1125.25,581.709 1123.64,574.939 1122.06,568.078 1120.52,561.125 1119.01,554.08 1117.53,546.941 1116.09,539.709 1114.68,532.382 1113.31,524.96 1111.97,517.442 1110.66,509.827 1109.39,502.116 1108.15,494.306 1106.94,486.398 1105.77,478.391 1104.63,470.284 1103.52,462.076 1102.45,453.767 "/>
<path clip-path="url(#clip080)" d="M229.49 1438.47 L502.147 1438.47 L502.147 1231.11 L229.49 1231.11  Z" fill="#ffffff" fill-rule="evenodd" fill-opacity="1"/>
<polyline clip-path="url(#clip080)" style="stroke:#000000; stroke-linecap:round; stroke-linejoin:round; stroke-width:4; stroke-opacity:1; fill:none" points="229.49,1438.47 502.147,1438.47 502.147,1231.11 229.49,1231.11 229.49,1438.47 "/>
<polyline clip-path="url(#clip080)" style="stroke:#e26f46; stroke-linecap:round; stroke-linejoin:round; stroke-width:4; stroke-opacity:1; fill:none" points="253.896,1282.95 400.328,1282.95 "/>
<path clip-path="url(#clip080)" d="M438.576 1302.64 Q436.77 1307.27 435.057 1308.68 Q433.344 1310.1 430.474 1310.1 L427.071 1310.1 L427.071 1306.53 L429.571 1306.53 Q431.33 1306.53 432.302 1305.7 Q433.275 1304.86 434.455 1301.76 L435.219 1299.82 L424.733 1274.31 L429.247 1274.31 L437.349 1294.59 L445.451 1274.31 L449.964 1274.31 L438.576 1302.64 Z" fill="#000000" fill-rule="nonzero" fill-opacity="1" /><path clip-path="url(#clip080)" d="M460.474 1296.3 L476.793 1296.3 L476.793 1300.23 L454.849 1300.23 L454.849 1296.3 Q457.511 1293.54 462.094 1288.92 Q466.7 1284.26 467.881 1282.92 Q470.126 1280.4 471.006 1278.66 Q471.909 1276.9 471.909 1275.21 Q471.909 1272.46 469.964 1270.72 Q468.043 1268.98 464.941 1268.98 Q462.742 1268.98 460.288 1269.75 Q457.858 1270.51 455.08 1272.06 L455.08 1267.34 Q457.904 1266.21 460.358 1265.63 Q462.812 1265.05 464.849 1265.05 Q470.219 1265.05 473.413 1267.73 Q476.608 1270.42 476.608 1274.91 Q476.608 1277.04 475.798 1278.96 Q475.011 1280.86 472.904 1283.45 Q472.325 1284.12 469.224 1287.34 Q466.122 1290.54 460.474 1296.3 Z" fill="#000000" fill-rule="nonzero" fill-opacity="1" /><circle clip-path="url(#clip080)" cx="327.112" cy="1334.79" r="20.48" fill="#3da44d" fill-rule="evenodd" fill-opacity="1" stroke="#000000" stroke-opacity="1" stroke-width="4.55111"/>
<path clip-path="url(#clip080)" d="M438.576 1354.48 Q436.77 1359.11 435.057 1360.52 Q433.344 1361.94 430.474 1361.94 L427.071 1361.94 L427.071 1358.37 L429.571 1358.37 Q431.33 1358.37 432.302 1357.54 Q433.275 1356.7 434.455 1353.6 L435.219 1351.66 L424.733 1326.15 L429.247 1326.15 L437.349 1346.43 L445.451 1326.15 L449.964 1326.15 L438.576 1354.48 Z" fill="#000000" fill-rule="nonzero" fill-opacity="1" /><path clip-path="url(#clip080)" d="M470.612 1333.44 Q473.969 1334.16 475.844 1336.43 Q477.742 1338.69 477.742 1342.03 Q477.742 1347.14 474.224 1349.94 Q470.705 1352.75 464.224 1352.75 Q462.048 1352.75 459.733 1352.31 Q457.441 1351.89 454.988 1351.03 L454.988 1346.52 Q456.932 1347.65 459.247 1348.23 Q461.562 1348.81 464.085 1348.81 Q468.483 1348.81 470.774 1347.07 Q473.089 1345.34 473.089 1342.03 Q473.089 1338.97 470.936 1337.26 Q468.807 1335.52 464.987 1335.52 L460.96 1335.52 L460.96 1331.68 L465.173 1331.68 Q468.622 1331.68 470.45 1330.32 Q472.279 1328.93 472.279 1326.33 Q472.279 1323.67 470.381 1322.26 Q468.506 1320.82 464.987 1320.82 Q463.066 1320.82 460.867 1321.24 Q458.668 1321.66 456.029 1322.54 L456.029 1318.37 Q458.691 1317.63 461.006 1317.26 Q463.344 1316.89 465.404 1316.89 Q470.728 1316.89 473.83 1319.32 Q476.932 1321.73 476.932 1325.85 Q476.932 1328.72 475.288 1330.71 Q473.645 1332.68 470.612 1333.44 Z" fill="#000000" fill-rule="nonzero" fill-opacity="1" /><polyline clip-path="url(#clip080)" style="stroke:#ac8d18; stroke-linecap:round; stroke-linejoin:round; stroke-width:4; stroke-opacity:1; fill:none" points="253.896,1386.63 400.328,1386.63 "/>
<path clip-path="url(#clip080)" d="M438.576 1406.32 Q436.77 1410.95 435.057 1412.36 Q433.344 1413.78 430.474 1413.78 L427.071 1413.78 L427.071 1410.21 L429.571 1410.21 Q431.33 1410.21 432.302 1409.38 Q433.275 1408.54 434.455 1405.44 L435.219 1403.5 L424.733 1377.99 L429.247 1377.99 L437.349 1398.27 L445.451 1377.99 L449.964 1377.99 L438.576 1406.32 Z" fill="#000000" fill-rule="nonzero" fill-opacity="1" /><path clip-path="url(#clip080)" d="M456.492 1369.35 L474.849 1369.35 L474.849 1373.29 L460.775 1373.29 L460.775 1381.76 Q461.793 1381.41 462.812 1381.25 Q463.83 1381.07 464.849 1381.07 Q470.636 1381.07 474.015 1384.24 Q477.395 1387.41 477.395 1392.83 Q477.395 1398.41 473.923 1401.51 Q470.45 1404.59 464.131 1404.59 Q461.955 1404.59 459.687 1404.22 Q457.441 1403.84 455.034 1403.1 L455.034 1398.41 Q457.117 1399.54 459.339 1400.09 Q461.562 1400.65 464.038 1400.65 Q468.043 1400.65 470.381 1398.54 Q472.719 1396.44 472.719 1392.83 Q472.719 1389.22 470.381 1387.11 Q468.043 1385 464.038 1385 Q462.163 1385 460.288 1385.42 Q458.437 1385.84 456.492 1386.72 L456.492 1369.35 Z" fill="#000000" fill-rule="nonzero" fill-opacity="1" /></svg>
