<?xml version="1.0" encoding="utf-8" standalone="no"?>
<!DOCTYPE svg PUBLIC "-//W3C//DTD SVG 1.1//EN"
  "http://www.w3.org/Graphics/SVG/1.1/DTD/svg11.dtd">
<svg xmlns:xlink="http://www.w3.org/1999/xlink" width="432pt" height="288pt" viewBox="0 0 432 288" xmlns="http://www.w3.org/2000/svg" version="1.1">
 <metadata>
  <rdf:RDF xmlns:dc="http://purl.org/dc/elements/1.1/" xmlns:cc="http://creativecommons.org/ns#" xmlns:rdf="http://www.w3.org/1999/02/22-rdf-syntax-ns#">
   <cc:Work>
    <dc:type rdf:resource="http://purl.org/dc/dcmitype/StillImage"/>
    <dc:date>2024-01-31T16:44:50.463219</dc:date>
    <dc:format>image/svg+xml</dc:format>
    <dc:creator>
     <cc:Agent>
      <dc:title>Matplotlib v3.8.2, https://matplotlib.org/</dc:title>
     </cc:Agent>
    </dc:creator>
   </cc:Work>
  </rdf:RDF>
 </metadata>
 <defs>
  <style type="text/css">*{stroke-linejoin: round; stroke-linecap: butt}</style>
 </defs>
 <g id="figure_1">
  <g id="patch_1">
   <path d="M 0 288 
L 432 288 
L 432 0 
L 0 0 
z
" style="fill: #ffffff"/>
  </g>
  <g id="patch_2">
   <path d="M 74.834646 285.165354 
L 357.165354 285.165354 
L 357.165354 2.834646 
L 74.834646 2.834646 
z
" style="fill: #ffffff"/>
  </g>
  <g id="pane3d_1">
   <g id="patch_3">
    <path d="M 95.725537 215.811902 
L 186.565533 137.142157 
L 186.565533 19.13754 
L 95.725537 97.807285 
" style="fill: #f2f2f2; opacity: 0.5; stroke: #f2f2f2; stroke-linejoin: miter"/>
   </g>
  </g>
  <g id="pane3d_2">
   <g id="patch_4">
    <path d="M 186.565533 137.142157 
L 343.905023 182.562155 
L 343.905023 64.557538 
L 186.565533 19.13754 
" style="fill: #e6e6e6; opacity: 0.5; stroke: #e6e6e6; stroke-linejoin: miter"/>
   </g>
  </g>
  <g id="pane3d_3">
   <g id="patch_5">
    <path d="M 95.725537 215.811902 
L 253.065026 261.2319 
L 343.905023 182.562155 
L 186.565533 137.142157 
" style="fill: #ececec; opacity: 0.5; stroke: #ececec; stroke-linejoin: miter"/>
   </g>
  </g>
  <g id="grid3d_1">
   <g id="Line3DCollection_1">
    <path d="M 102.468658 217.758473 
L 193.308654 139.088729 
L 193.308654 21.084111 
" style="fill: none; stroke: #b0b0b0; stroke-width: 0.8"/>
    <path d="M 138.43197 228.140187 
L 229.271966 149.470442 
L 229.271966 31.465825 
" style="fill: none; stroke: #b0b0b0; stroke-width: 0.8"/>
    <path d="M 174.395282 238.521901 
L 265.235278 159.852156 
L 265.235278 41.847539 
" style="fill: none; stroke: #b0b0b0; stroke-width: 0.8"/>
    <path d="M 210.358593 248.903615 
L 301.19859 170.23387 
L 301.19859 52.229253 
" style="fill: none; stroke: #b0b0b0; stroke-width: 0.8"/>
    <path d="M 246.321905 259.285329 
L 337.161902 180.615584 
L 337.161902 62.610967 
" style="fill: none; stroke: #b0b0b0; stroke-width: 0.8"/>
   </g>
  </g>
  <g id="grid3d_2">
   <g id="Line3DCollection_2">
    <path d="M 99.61868 94.435724 
L 99.61868 212.440341 
L 256.958169 257.86034 
" style="fill: none; stroke: #b0b0b0; stroke-width: 0.8"/>
    <path d="M 120.382107 76.454068 
L 120.382107 194.458685 
L 277.721597 239.878684 
" style="fill: none; stroke: #b0b0b0; stroke-width: 0.8"/>
    <path d="M 141.145535 58.472412 
L 141.145535 176.47703 
L 298.485025 221.897028 
" style="fill: none; stroke: #b0b0b0; stroke-width: 0.8"/>
    <path d="M 161.908963 40.490757 
L 161.908963 158.495374 
L 319.248452 203.915372 
" style="fill: none; stroke: #b0b0b0; stroke-width: 0.8"/>
    <path d="M 182.672391 22.509101 
L 182.672391 140.513718 
L 340.01188 185.933716 
" style="fill: none; stroke: #b0b0b0; stroke-width: 0.8"/>
   </g>
  </g>
  <g id="grid3d_3">
   <g id="Line3DCollection_3">
    <path d="M 343.905023 177.504815 
L 186.565533 132.084816 
L 95.725537 210.754561 
" style="fill: none; stroke: #b0b0b0; stroke-width: 0.8"/>
    <path d="M 343.905023 150.532331 
L 186.565533 105.112333 
L 95.725537 183.782077 
" style="fill: none; stroke: #b0b0b0; stroke-width: 0.8"/>
    <path d="M 343.905023 123.559847 
L 186.565533 78.139849 
L 95.725537 156.809593 
" style="fill: none; stroke: #b0b0b0; stroke-width: 0.8"/>
    <path d="M 343.905023 96.587363 
L 186.565533 51.167365 
L 95.725537 129.837109 
" style="fill: none; stroke: #b0b0b0; stroke-width: 0.8"/>
    <path d="M 343.905023 69.614879 
L 186.565533 24.194881 
L 95.725537 102.864626 
" style="fill: none; stroke: #b0b0b0; stroke-width: 0.8"/>
   </g>
  </g>
  <g id="axis3d_1">
   <g id="line2d_1">
    <path d="M 95.725537 215.811902 
L 253.065026 261.2319 
" style="fill: none; stroke: #000000; stroke-width: 0.8; stroke-linecap: square"/>
   </g>
   <g id="xtick_1">
    <g id="line2d_2">
     <path d="M 103.195378 217.129115 
L 101.015218 219.017189 
" style="fill: none; stroke: #000000; stroke-width: 0.8; stroke-linecap: square"/>
    </g>
   </g>
   <g id="xtick_2">
    <g id="line2d_3">
     <path d="M 139.15869 227.510829 
L 136.97853 229.398903 
" style="fill: none; stroke: #000000; stroke-width: 0.8; stroke-linecap: square"/>
    </g>
   </g>
   <g id="xtick_3">
    <g id="line2d_4">
     <path d="M 175.122002 237.892543 
L 172.941842 239.780617 
" style="fill: none; stroke: #000000; stroke-width: 0.8; stroke-linecap: square"/>
    </g>
   </g>
   <g id="xtick_4">
    <g id="line2d_5">
     <path d="M 211.085313 248.274257 
L 208.905153 250.162331 
" style="fill: none; stroke: #000000; stroke-width: 0.8; stroke-linecap: square"/>
    </g>
   </g>
   <g id="xtick_5">
    <g id="line2d_6">
     <path d="M 247.048625 258.655971 
L 244.868465 260.544045 
" style="fill: none; stroke: #000000; stroke-width: 0.8; stroke-linecap: square"/>
    </g>
   </g>
  </g>
  <g id="axis3d_2">
   <g id="line2d_7">
    <path d="M 343.905023 182.562155 
L 253.065026 261.2319 
" style="fill: none; stroke: #000000; stroke-width: 0.8; stroke-linecap: square"/>
   </g>
   <g id="xtick_6">
    <g id="line2d_8">
     <path d="M 255.699453 257.49698 
L 259.475601 258.58706 
" style="fill: none; stroke: #000000; stroke-width: 0.8; stroke-linecap: square"/>
    </g>
   </g>
   <g id="xtick_7">
    <g id="line2d_9">
     <path d="M 276.462881 239.515324 
L 280.239029 240.605404 
" style="fill: none; stroke: #000000; stroke-width: 0.8; stroke-linecap: square"/>
    </g>
   </g>
   <g id="xtick_8">
    <g id="line2d_10">
     <path d="M 297.226309 221.533668 
L 301.002456 222.623748 
" style="fill: none; stroke: #000000; stroke-width: 0.8; stroke-linecap: square"/>
    </g>
   </g>
   <g id="xtick_9">
    <g id="line2d_11">
     <path d="M 317.989736 203.552012 
L 321.765884 204.642092 
" style="fill: none; stroke: #000000; stroke-width: 0.8; stroke-linecap: square"/>
    </g>
   </g>
   <g id="xtick_10">
    <g id="line2d_12">
     <path d="M 338.753164 185.570356 
L 342.529312 186.660436 
" style="fill: none; stroke: #000000; stroke-width: 0.8; stroke-linecap: square"/>
    </g>
   </g>
  </g>
  <g id="axis3d_3">
   <g id="line2d_13">
    <path d="M 343.905023 182.562155 
L 343.905023 64.557538 
" style="fill: none; stroke: #000000; stroke-width: 0.8; stroke-linecap: square"/>
   </g>
   <g id="xtick_11">
    <g id="line2d_14">
     <path d="M 342.646307 177.141455 
L 346.422455 178.231535 
" style="fill: none; stroke: #000000; stroke-width: 0.8; stroke-linecap: square"/>
    </g>
    <g id="text_1">
     <!-- $-1.0$ -->
     <g style="fill: #ffffff" transform="translate(353.594187 180.98323) scale(0.08 -0.08)">
      <defs>
       <path id="DejaVuSans-2212" d="M 678 2272 
L 4684 2272 
L 4684 1741 
L 678 1741 
L 678 2272 
z
" transform="scale(0.015625)"/>
       <path id="DejaVuSans-31" d="M 794 531 
L 1825 531 
L 1825 4091 
L 703 3866 
L 703 4441 
L 1819 4666 
L 2450 4666 
L 2450 531 
L 3481 531 
L 3481 0 
L 794 0 
L 794 531 
z
" transform="scale(0.015625)"/>
       <path id="DejaVuSans-2e" d="M 684 794 
L 1344 794 
L 1344 0 
L 684 0 
L 684 794 
z
" transform="scale(0.015625)"/>
       <path id="DejaVuSans-30" d="M 2034 4250 
Q 1547 4250 1301 3770 
Q 1056 3291 1056 2328 
Q 1056 1369 1301 889 
Q 1547 409 2034 409 
Q 2525 409 2770 889 
Q 3016 1369 3016 2328 
Q 3016 3291 2770 3770 
Q 2525 4250 2034 4250 
z
M 2034 4750 
Q 2819 4750 3233 4129 
Q 3647 3509 3647 2328 
Q 3647 1150 3233 529 
Q 2819 -91 2034 -91 
Q 1250 -91 836 529 
Q 422 1150 422 2328 
Q 422 3509 836 4129 
Q 1250 4750 2034 4750 
z
" transform="scale(0.015625)"/>
      </defs>
      <use xlink:href="#DejaVuSans-2212" transform="translate(0 0.78125)"/>
      <use xlink:href="#DejaVuSans-31" transform="translate(83.789062 0.78125)"/>
      <use xlink:href="#DejaVuSans-2e" transform="translate(147.412109 0.78125)"/>
      <use xlink:href="#DejaVuSans-30" transform="translate(179.199219 0.78125)"/>
     </g>
    </g>
   </g>
   <g id="xtick_12">
    <g id="line2d_15">
     <path d="M 342.646307 150.168971 
L 346.422455 151.259051 
" style="fill: none; stroke: #000000; stroke-width: 0.8; stroke-linecap: square"/>
    </g>
    <g id="text_2">
     <!-- $-0.5$ -->
     <g style="fill: #ffffff" transform="translate(353.594187 154.010746) scale(0.08 -0.08)">
      <defs>
       <path id="DejaVuSans-35" d="M 691 4666 
L 3169 4666 
L 3169 4134 
L 1269 4134 
L 1269 2991 
Q 1406 3038 1543 3061 
Q 1681 3084 1819 3084 
Q 2600 3084 3056 2656 
Q 3513 2228 3513 1497 
Q 3513 744 3044 326 
Q 2575 -91 1722 -91 
Q 1428 -91 1123 -41 
Q 819 9 494 109 
L 494 744 
Q 775 591 1075 516 
Q 1375 441 1709 441 
Q 2250 441 2565 725 
Q 2881 1009 2881 1497 
Q 2881 1984 2565 2268 
Q 2250 2553 1709 2553 
Q 1456 2553 1204 2497 
Q 953 2441 691 2322 
L 691 4666 
z
" transform="scale(0.015625)"/>
      </defs>
      <use xlink:href="#DejaVuSans-2212" transform="translate(0 0.78125)"/>
      <use xlink:href="#DejaVuSans-30" transform="translate(83.789062 0.78125)"/>
      <use xlink:href="#DejaVuSans-2e" transform="translate(147.412109 0.78125)"/>
      <use xlink:href="#DejaVuSans-35" transform="translate(179.199219 0.78125)"/>
     </g>
    </g>
   </g>
   <g id="xtick_13">
    <g id="line2d_16">
     <path d="M 342.646307 123.196487 
L 346.422455 124.286567 
" style="fill: none; stroke: #000000; stroke-width: 0.8; stroke-linecap: square"/>
    </g>
    <g id="text_3">
     <!-- $0.0$ -->
     <g style="fill: #ffffff" transform="translate(356.914187 127.038262) scale(0.08 -0.08)">
      <use xlink:href="#DejaVuSans-30" transform="translate(0 0.78125)"/>
      <use xlink:href="#DejaVuSans-2e" transform="translate(63.623047 0.78125)"/>
      <use xlink:href="#DejaVuSans-30" transform="translate(95.410156 0.78125)"/>
     </g>
    </g>
   </g>
   <g id="xtick_14">
    <g id="line2d_17">
     <path d="M 342.646307 96.224003 
L 346.422455 97.314083 
" style="fill: none; stroke: #000000; stroke-width: 0.8; stroke-linecap: square"/>
    </g>
    <g id="text_4">
     <!-- $0.5$ -->
     <g style="fill: #ffffff" transform="translate(356.914187 100.065778) scale(0.08 -0.08)">
      <use xlink:href="#DejaVuSans-30" transform="translate(0 0.78125)"/>
      <use xlink:href="#DejaVuSans-2e" transform="translate(63.623047 0.78125)"/>
      <use xlink:href="#DejaVuSans-35" transform="translate(95.410156 0.78125)"/>
     </g>
    </g>
   </g>
   <g id="xtick_15">
    <g id="line2d_18">
     <path d="M 342.646307 69.251519 
L 346.422455 70.341599 
" style="fill: none; stroke: #000000; stroke-width: 0.8; stroke-linecap: square"/>
    </g>
    <g id="text_5">
     <!-- $1.0$ -->
     <g style="fill: #ffffff" transform="translate(356.914187 73.093294) scale(0.08 -0.08)">
      <use xlink:href="#DejaVuSans-31" transform="translate(0 0.78125)"/>
      <use xlink:href="#DejaVuSans-2e" transform="translate(63.623047 0.78125)"/>
      <use xlink:href="#DejaVuSans-30" transform="translate(95.410156 0.78125)"/>
     </g>
    </g>
   </g>
  </g>
  <g id="axes_1">
   <g id="Path3DCollection_1">
    <defs>
     <path id="C0_0_35bc825930" d="M 0 5 
C 1.326016 5 2.597899 4.473168 3.535534 3.535534 
C 4.473168 2.597899 5 1.326016 5 -0 
C 5 -1.326016 4.473168 -2.597899 3.535534 -3.535534 
C 2.597899 -4.473168 1.326016 -5 0 -5 
C -1.326016 -5 -2.597899 -4.473168 -3.535534 -3.535534 
C -4.473168 -2.597899 -5 -1.326016 -5 0 
C -5 1.326016 -4.473168 2.597899 -3.535534 3.535534 
C -2.597899 4.473168 -1.326016 5 0 5 
z
"/>
    </defs>
    <g clip-path="url(#p15b0eea0d7)">
     <use xlink:href="#C0_0_35bc825930" x="219.81528" y="86.239752" style="fill: #e36f47; fill-opacity: 0.3; stroke: #000000; stroke-opacity: 0.3"/>
    </g>
    <g clip-path="url(#p15b0eea0d7)">
     <use xlink:href="#C0_0_35bc825930" x="291.741904" y="160.948148" style="fill: #e36f47; fill-opacity: 0.40829; stroke: #000000; stroke-opacity: 0.40829"/>
    </g>
    <g clip-path="url(#p15b0eea0d7)">
     <use xlink:href="#C0_0_35bc825930" x="291.741904" y="160.948148" style="fill: #e36f47; fill-opacity: 0.40829; stroke: #000000; stroke-opacity: 0.40829"/>
    </g>
    <g clip-path="url(#p15b0eea0d7)">
     <use xlink:href="#C0_0_35bc825930" x="178.288424" y="176.148032" style="fill: #e36f47; stroke: #000000"/>
    </g>
   </g>
   <g id="Line3DCollection_4">
    <path d="M 219.81528 86.239752 
L 226.865322 88.534684 
L 233.847468 91.327034 
L 240.694477 94.589909 
L 247.340407 98.291888 
L 253.721256 102.397318 
L 259.775571 106.866661 
L 265.445047 111.656875 
L 270.675083 116.721828 
L 275.415312 122.012742 
L 279.620082 127.478661 
L 283.248899 133.066947 
L 286.266815 138.723781 
L 288.644767 144.394684 
L 290.359854 150.025043 
L 291.395557 155.560635 
L 291.741904 160.948148 
L 291.395557 166.135698 
L 290.359854 171.073326 
L 288.644767 175.713479 
L 286.266815 180.011472 
L 283.248899 183.92591 
L 279.620082 187.419098 
L 275.415312 190.457392 
L 270.675083 193.011533 
L 265.445047 195.056923 
L 259.775571 196.573864 
L 253.721256 197.547746 
L 247.340407 197.969192 
L 240.694477 197.834141 
L 233.847468 197.143894 
L 226.865322 195.9051 
L 219.81528 194.129688 
" clip-path="url(#p15b0eea0d7)" style="fill: none; stroke: #cccccc"/>
    <path d="M 219.81528 86.239752 
L 227.523942 87.807881 
L 235.158365 89.880428 
L 242.645026 92.437432 
L 249.911825 95.454269 
L 256.888777 98.901884 
L 263.508691 102.747076 
L 269.707813 106.952813 
L 275.426443 111.478591 
L 280.609507 116.280825 
L 285.20709 121.313266 
L 289.174914 126.52745 
L 292.474766 131.873161 
L 295.074868 137.298916 
L 296.950179 142.752464 
L 298.082639 148.181283 
L 298.461341 153.53309 
L 298.082639 158.756346 
L 296.950179 163.800746 
L 295.074868 168.617712 
L 292.474766 173.160852 
L 289.174914 177.386414 
L 285.20709 181.253703 
L 280.609507 184.725475 
L 275.426443 187.768296 
L 269.707813 190.352861 
L 263.508691 192.454279 
L 256.888777 194.052313 
L 249.911825 195.131572 
L 242.645026 195.681663 
L 235.158365 195.697288 
L 227.523942 195.178297 
L 219.81528 194.129688 
" clip-path="url(#p15b0eea0d7)" style="fill: none; stroke: #cccccc"/>
    <path d="M 219.81528 86.239752 
L 227.886322 87.030799 
L 235.879636 88.333746 
L 243.718242 90.136047 
L 251.326649 92.420344 
L 258.631584 95.164638 
L 265.562697 98.3425 
L 272.053237 101.923325 
L 278.040697 105.872628 
L 283.467415 110.152376 
L 288.281128 114.721352 
L 292.435477 119.535554 
L 295.890454 124.548618 
L 298.612786 129.712267 
L 300.576254 134.976771 
L 301.76195 140.291431 
L 302.158455 145.605062 
L 301.76195 150.866494 
L 300.576254 156.025053 
L 298.612786 161.031062 
L 295.890454 165.836309 
L 292.435477 170.394517 
L 288.281128 174.661788 
L 283.467415 178.597027 
L 278.040697 182.162334 
L 272.053237 185.323373 
L 265.562697 188.049702 
L 258.631584 190.315066 
L 251.326649 192.097647 
L 243.718242 193.380278 
L 235.879636 194.150607 
L 227.886322 194.401215 
L 219.81528 194.129688 
" clip-path="url(#p15b0eea0d7)" style="fill: none; stroke: #cccccc"/>
    <path d="M 219.81528 86.239752 
L 227.938537 86.233299 
L 235.983563 86.746427 
L 243.87288 87.774195 
L 251.530509 89.306706 
L 258.882702 91.329199 
L 265.858656 93.822198 
L 272.391186 96.761693 
L 278.417381 100.119375 
L 283.879207 103.862909 
L 288.724061 107.956242 
L 292.905287 112.359952 
L 296.382615 117.031631 
L 299.122559 121.926286 
L 301.09873 126.99678 
L 302.292097 132.194281 
L 302.691167 137.468734 
L 302.292097 142.769344 
L 301.09873 148.045062 
L 299.122559 153.245081 
L 296.382615 158.319321 
L 292.905287 163.218916 
L 288.724061 167.896678 
L 283.879207 172.30756 
L 278.417381 176.40908 
L 272.391186 180.161741 
L 265.858656 183.5294 
L 258.882702 186.479627 
L 251.530509 188.984009 
L 243.87288 191.018427 
L 235.983563 192.563288 
L 227.938537 193.603715 
L 219.81528 194.129688 
" clip-path="url(#p15b0eea0d7)" style="fill: none; stroke: #cccccc"/>
    <path d="M 219.81528 86.239752 
L 227.67858 85.44603 
L 235.466152 85.17947 
L 243.102998 85.442642 
L 250.51557 86.23301 
L 257.632482 87.542962 
L 264.385193 89.359883 
L 270.708672 91.666274 
L 276.542019 94.439926 
L 281.829058 97.654124 
L 286.518869 101.277915 
L 290.566288 105.276401 
L 293.932337 109.611072 
L 296.584598 114.240184 
L 298.497528 119.119157 
L 299.652705 124.201002 
L 300.039004 129.436779 
L 299.652705 134.776065 
L 298.497528 140.167439 
L 296.584598 145.558979 
L 293.932337 150.898763 
L 290.566288 156.135364 
L 286.518869 161.218352 
L 281.829058 166.098775 
L 276.542019 170.729631 
L 270.708672 175.066323 
L 264.385193 179.067085 
L 257.632482 182.69339 
L 250.51557 185.910313 
L 243.102998 188.686873 
L 235.466152 190.996331 
L 227.67858 192.816446 
L 219.81528 194.129688 
" clip-path="url(#p15b0eea0d7)" style="fill: none; stroke: #cccccc"/>
    <path d="M 219.81528 86.239752 
L 227.11644 84.699245 
L 234.347287 83.693093 
L 241.438182 83.230987 
L 248.320837 83.317376 
L 254.928967 83.951429 
L 261.198934 85.127039 
L 267.070354 86.832884 
L 272.486681 89.052537 
L 277.395754 91.764621 
L 281.750295 94.943017 
L 285.508369 98.557115 
L 288.633782 102.57211 
L 291.096435 106.949335 
L 292.872612 111.646634 
L 293.945206 116.618772 
L 294.303889 121.817862 
L 293.945206 127.193835 
L 292.872612 132.694917 
L 291.096435 138.26813 
L 288.633782 143.859801 
L 285.508369 149.416079 
L 281.750295 154.883454 
L 277.395754 160.209272 
L 272.486681 165.342242 
L 267.070354 170.232932 
L 261.198934 174.834242 
L 254.928967 179.101857 
L 248.320837 182.994679 
L 241.438182 186.475218 
L 234.347287 189.509954 
L 227.11644 192.069661 
L 219.81528 194.129688 
" clip-path="url(#p15b0eea0d7)" style="fill: none; stroke: #cccccc"/>
    <path d="M 219.81528 86.239752 
L 226.273721 84.021644 
L 232.669964 82.344417 
L 238.94241 81.224223 
L 245.030651 80.671851 
L 250.876054 80.692621 
L 256.422324 81.286332 
L 261.616049 82.447267 
L 266.40721 84.164245 
L 270.749665 86.420731 
L 274.601593 89.194993 
L 277.9259 92.460315 
L 280.69057 96.185248 
L 282.868977 100.333921 
L 284.440143 104.866378 
L 285.388936 109.738971 
L 285.706219 114.904772 
L 285.388936 120.314034 
L 284.440143 125.91466 
L 282.868977 131.652716 
L 280.69057 137.472939 
L 277.9259 143.319278 
L 274.601593 149.13543 
L 270.749665 154.865381 
L 266.40721 160.45395 
L 261.616049 165.847315 
L 256.422324 170.993535 
L 250.876054 175.843049 
L 245.030651 180.349155 
L 238.94241 184.468454 
L 232.669964 188.161277 
L 226.273721 191.39206 
L 219.81528 194.129688 
" clip-path="url(#p15b0eea0d7)" style="fill: none; stroke: #cccccc"/>
    <path d="M 219.81528 86.239752 
L 225.182808 83.439266 
L 230.498644 81.185269 
L 235.711593 79.499469 
L 240.771452 78.398101 
L 245.629492 77.891772 
L 250.238926 77.985359 
L 254.555365 78.677959 
L 258.537237 79.962903 
L 262.146196 81.827816 
L 265.347484 84.254737 
L 268.110273 87.220296 
L 270.407955 90.69593 
L 272.218401 94.648169 
L 273.524177 99.038949 
L 274.312707 103.825986 
L 274.576397 108.963177 
L 274.312707 114.401049 
L 273.524177 120.087231 
L 272.218401 125.966964 
L 270.407955 131.983621 
L 268.110273 138.079259 
L 265.347484 144.195174 
L 262.146196 150.272466 
L 258.537237 156.252608 
L 254.555365 162.078007 
L 250.238926 167.692562 
L 245.629492 173.042201 
L 240.771452 178.075405 
L 235.711593 182.7437 
L 230.498644 187.00213 
L 225.182808 190.809682 
L 219.81528 194.129688 
" clip-path="url(#p15b0eea0d7)" style="fill: none; stroke: #cccccc"/>
    <path d="M 219.81528 86.239752 
L 223.885623 82.974491 
L 227.916767 80.260196 
L 231.86989 78.123006 
L 235.706919 76.583505 
L 239.390904 75.656518 
L 242.886365 75.350973 
L 246.159638 75.669813 
L 249.179201 76.609966 
L 251.915973 78.162379 
L 254.343598 80.312101 
L 256.438697 83.038429 
L 258.181092 86.315107 
L 259.554003 90.110579 
L 260.544209 94.388292 
L 261.142172 99.10705 
L 261.342135 104.221408 
L 261.142172 109.682113 
L 260.544209 115.436574 
L 259.554003 121.429374 
L 258.181092 127.602798 
L 256.438697 133.897392 
L 254.343598 140.252538 
L 251.915973 146.607029 
L 249.179201 152.899671 
L 246.159638 159.069861 
L 242.886365 165.058176 
L 239.390904 170.806947 
L 235.706919 176.260808 
L 231.86989 181.367237 
L 227.916767 186.077056 
L 223.885623 190.344907 
L 219.81528 194.129688 
" clip-path="url(#p15b0eea0d7)" style="fill: none; stroke: #cccccc"/>
    <path d="M 219.81528 86.239752 
L 222.432018 82.645181 
L 225.023556 79.604747 
L 227.564935 77.147731 
L 230.03168 75.297796 
L 232.400036 74.072758 
L 234.647194 73.484413 
L 236.751513 73.53843 
L 238.692726 74.234286 
L 240.452139 75.565281 
L 242.012808 77.518597 
L 243.359703 80.075421 
L 244.479852 83.211131 
L 245.362468 86.895528 
L 245.99905 91.093129 
L 246.383468 95.763509 
L 246.51202 100.861689 
L 246.383468 106.338572 
L 245.99905 112.141412 
L 245.362468 118.214323 
L 244.479852 124.498822 
L 243.359703 130.934385 
L 242.012808 137.459033 
L 240.452139 144.009932 
L 238.692726 150.523991 
L 236.751513 156.938478 
L 234.647194 163.191616 
L 232.400036 169.223186 
L 230.03168 174.975099 
L 227.564935 180.391962 
L 225.023556 185.421608 
L 222.432018 190.015597 
L 219.81528 194.129688 
" clip-path="url(#p15b0eea0d7)" style="fill: none; stroke: #cccccc"/>
    <path d="M 219.81528 86.239752 
L 220.877853 82.463991 
L 221.930193 79.244112 
L 222.962164 76.611124 
L 223.96383 74.590384 
L 224.925543 73.201354 
L 225.838042 72.45741 
L 226.692537 72.365717 
L 227.480801 72.927159 
L 228.195242 74.136327 
L 228.82898 75.981578 
L 229.37591 78.44514 
L 229.830767 81.503288 
L 230.189168 85.12657 
L 230.447664 89.280092 
L 230.603764 93.923854 
L 230.655965 99.013133 
L 230.603764 104.498917 
L 230.447664 110.328374 
L 230.189168 116.445365 
L 229.830767 122.790979 
L 229.37591 129.304103 
L 228.82898 135.922015 
L 228.195242 142.580978 
L 227.480801 149.216864 
L 226.692537 155.765766 
L 225.838042 162.164613 
L 224.925543 168.351782 
L 223.96383 174.267687 
L 222.962164 179.855355 
L 221.930193 185.060972 
L 220.877853 189.834407 
L 219.81528 194.129688 
" clip-path="url(#p15b0eea0d7)" style="fill: none; stroke: #cccccc"/>
    <path d="M 219.81528 86.239752 
L 219.282853 82.437883 
L 218.755555 79.192148 
L 218.238461 76.533805 
L 217.736554 74.488454 
L 217.254666 73.075795 
L 216.797438 72.309431 
L 216.369273 72.196743 
L 215.974295 72.738817 
L 215.616308 73.930431 
L 215.29876 75.760111 
L 215.024708 78.210235 
L 214.796792 81.257207 
L 214.617206 84.871683 
L 214.487681 89.018854 
L 214.409464 93.65878 
L 214.383307 98.746777 
L 214.409464 104.233843 
L 214.487681 110.067136 
L 214.617206 116.190478 
L 214.796792 122.544898 
L 215.024708 129.069199 
L 215.29876 135.700548 
L 215.616308 142.375082 
L 215.974295 149.028522 
L 216.369273 155.596791 
L 216.797438 162.016634 
L 217.254666 168.226223 
L 217.736554 174.165757 
L 218.238461 179.778036 
L 218.755555 185.009009 
L 219.282853 189.808299 
L 219.81528 194.129688 
" clip-path="url(#p15b0eea0d7)" style="fill: none; stroke: #cccccc"/>
    <path d="M 219.81528 86.239752 
L 217.708315 82.567862 
L 215.621641 79.450854 
L 213.575355 76.918746 
L 211.589162 74.995923 
L 209.682191 73.700905 
L 207.872808 73.046162 
L 206.178437 73.038 
L 204.615396 73.676498 
L 203.198738 74.955506 
L 201.942107 76.862707 
L 200.857604 79.379734 
L 199.955674 82.482346 
L 199.245003 86.140664 
L 198.732435 90.319455 
L 198.422906 94.978476 
L 198.319398 100.072858 
L 198.422906 105.553539 
L 198.732435 111.367737 
L 199.245003 117.459459 
L 199.955674 123.770037 
L 200.857604 130.238698 
L 201.942107 136.803144 
L 203.198738 143.400157 
L 204.615396 149.966203 
L 206.178437 156.438048 
L 207.872808 162.753365 
L 209.682191 168.851333 
L 211.589162 174.673227 
L 213.575355 180.162977 
L 215.621641 185.267714 
L 217.708315 189.938278 
L 219.81528 194.129688 
" clip-path="url(#p15b0eea0d7)" style="fill: none; stroke: #cccccc"/>
    <path d="M 219.81528 86.239752 
L 216.214746 82.848932 
L 212.648887 80.010286 
L 209.152045 77.751154 
L 205.757895 76.09329 
L 202.499125 75.052662 
L 199.40712 74.639292 
L 196.511656 74.857159 
L 193.840619 75.704167 
L 191.419733 77.172158 
L 189.27231 79.246994 
L 187.419034 81.908694 
L 185.87775 85.131624 
L 184.663304 88.884745 
L 183.787391 93.131913 
L 183.258446 97.832225 
L 183.081563 102.940415 
L 183.258446 108.407288 
L 183.787391 114.180195 
L 184.663304 120.20354 
L 185.87775 126.419315 
L 187.419034 132.767658 
L 189.27231 139.187431 
L 191.419733 145.616808 
L 193.840619 151.993872 
L 196.511656 158.257207 
L 199.40712 164.346495 
L 202.499125 170.203091 
L 205.757895 175.770593 
L 209.152045 180.995385 
L 212.648887 185.827147 
L 216.214746 190.219348 
L 219.81528 194.129688 
" clip-path="url(#p15b0eea0d7)" style="fill: none; stroke: #cccccc"/>
    <path d="M 219.81528 86.239752 
L 214.859543 83.270291 
L 209.951533 80.848948 
L 205.138517 78.99904 
L 200.466845 77.738383 
L 195.98151 77.079119 
L 191.725707 77.027596 
L 187.740421 77.584311 
L 184.064035 78.743903 
L 180.731952 80.495202 
L 177.776263 82.821345 
L 175.225433 85.699928 
L 173.104027 89.10323 
L 171.432476 92.998474 
L 170.226878 97.348147 
L 169.498844 102.110361 
L 169.255384 107.239251 
L 169.498844 112.685423 
L 170.226878 118.39643 
L 171.432476 124.317269 
L 173.104027 130.390921 
L 175.225433 136.558892 
L 177.776263 142.761782 
L 180.731952 148.939853 
L 184.064035 155.033608 
L 187.740421 160.98436 
L 191.725707 166.734799 
L 195.98151 172.229548 
L 200.466845 177.415686 
L 205.138517 182.243271 
L 209.951533 186.665808 
L 214.859543 190.640707 
L 219.81528 194.129688 
" clip-path="url(#p15b0eea0d7)" style="fill: none; stroke: #cccccc"/>
    <path d="M 219.81528 86.239752 
L 213.694787 83.815748 
L 207.633238 81.934608 
L 201.689009 80.614448 
L 195.919345 79.867982 
L 190.379813 79.7024 
L 185.12376 80.119295 
L 180.201805 81.114654 
L 175.66135 82.678889 
L 171.546121 84.796937 
L 167.895751 87.4484 
L 164.745394 90.607742 
L 162.125391 94.244537 
L 160.060972 98.323762 
L 158.57202 102.80613 
L 157.672874 107.648475 
L 157.372194 112.804162 
L 157.672874 118.223538 
L 158.57202 123.854413 
L 160.060972 129.642557 
L 162.125391 135.532228 
L 164.745394 141.466705 
L 167.895751 147.388836 
L 171.546121 153.241588 
L 175.66135 158.968594 
L 180.201805 164.514702 
L 185.12376 169.826498 
L 190.379813 174.852828 
L 195.919345 179.545286 
L 201.689009 183.858679 
L 207.633238 187.751469 
L 213.694787 191.186164 
L 219.81528 194.129688 
" clip-path="url(#p15b0eea0d7)" style="fill: none; stroke: #cccccc"/>
    <path d="M 219.81528 86.239752 
L 212.765238 84.46434 
L 205.783092 83.225546 
L 198.936083 82.5353 
L 192.290153 82.400249 
L 185.909304 82.821694 
L 179.854989 83.795576 
L 174.185513 85.312517 
L 168.955476 87.357907 
L 164.215248 89.912048 
L 160.010478 92.950343 
L 156.381661 96.44353 
L 153.363744 100.357969 
L 150.985792 104.655961 
L 149.270706 109.296115 
L 148.235002 114.233742 
L 147.888656 119.421292 
L 148.235002 124.808805 
L 149.270706 130.344397 
L 150.985792 135.974756 
L 153.363744 141.64566 
L 156.381661 147.302493 
L 160.010478 152.890779 
L 164.215248 158.356699 
L 168.955476 163.647612 
L 174.185513 168.712565 
L 179.854989 173.502779 
L 185.909304 177.972122 
L 192.290153 182.077552 
L 198.936083 185.779531 
L 205.783092 189.042407 
L 212.765238 191.834756 
L 219.81528 194.129688 
" clip-path="url(#p15b0eea0d7)" style="fill: none; stroke: #cccccc"/>
    <path d="M 219.81528 86.239752 
L 212.106618 85.191143 
L 204.472194 84.672152 
L 196.985533 84.687777 
L 189.718735 85.237868 
L 182.741783 86.317128 
L 176.121869 87.915162 
L 169.922747 90.01658 
L 164.204116 92.601144 
L 159.021052 95.643965 
L 154.42347 99.115738 
L 150.455646 102.983027 
L 147.155793 107.208589 
L 144.555691 111.751729 
L 142.68038 116.568694 
L 141.547921 121.613094 
L 141.169218 126.83635 
L 141.547921 132.188157 
L 142.68038 137.616976 
L 144.555691 143.070524 
L 147.155793 148.49628 
L 150.455646 153.84199 
L 154.42347 159.056174 
L 159.021052 164.088616 
L 164.204116 168.89085 
L 169.922747 173.416628 
L 176.121869 177.622364 
L 182.741783 181.467556 
L 189.718735 184.915172 
L 196.985533 187.932008 
L 204.472194 190.489013 
L 212.106618 192.561559 
L 219.81528 194.129688 
" clip-path="url(#p15b0eea0d7)" style="fill: none; stroke: #cccccc"/>
    <path d="M 219.81528 86.239752 
L 211.744237 85.968226 
L 203.750923 86.218833 
L 195.912318 86.989162 
L 188.303911 88.271793 
L 180.998976 90.054374 
L 174.067863 92.319738 
L 167.577323 95.046067 
L 161.589862 98.207107 
L 156.163145 101.772414 
L 151.349432 105.707652 
L 147.195083 109.974923 
L 143.740106 114.533131 
L 141.017774 119.338378 
L 139.054306 124.344387 
L 137.86861 129.502947 
L 137.472105 134.764378 
L 137.86861 140.07801 
L 139.054306 145.392669 
L 141.017774 150.657174 
L 143.740106 155.820822 
L 147.195083 160.833887 
L 151.349432 165.648089 
L 156.163145 170.217064 
L 161.589862 174.496812 
L 167.577323 178.446115 
L 174.067863 182.026941 
L 180.998976 185.204803 
L 188.303911 187.949097 
L 195.912318 190.233393 
L 203.750923 192.035694 
L 211.744237 193.338642 
L 219.81528 194.129688 
" clip-path="url(#p15b0eea0d7)" style="fill: none; stroke: #cccccc"/>
    <path d="M 219.81528 86.239752 
L 211.692022 86.765725 
L 203.646996 87.806152 
L 195.75768 89.351014 
L 188.100051 91.385431 
L 180.747857 93.889813 
L 173.771904 96.84004 
L 167.239374 100.2077 
L 161.213178 103.96036 
L 155.751353 108.061881 
L 150.906498 112.472762 
L 146.725273 117.150524 
L 143.247944 122.050119 
L 140.508001 127.124359 
L 138.53183 132.324378 
L 137.338463 137.600097 
L 136.939393 142.900706 
L 137.338463 148.17516 
L 138.53183 153.372661 
L 140.508001 158.443155 
L 143.247944 163.33781 
L 146.725273 168.009488 
L 150.906498 172.413199 
L 155.751353 176.506531 
L 161.213178 180.250065 
L 167.239374 183.607748 
L 173.771904 186.547243 
L 180.747857 189.040241 
L 188.100051 191.062735 
L 195.75768 192.595245 
L 203.646996 193.623013 
L 211.692022 194.136141 
L 219.81528 194.129688 
" clip-path="url(#p15b0eea0d7)" style="fill: none; stroke: #cccccc"/>
    <path d="M 219.81528 86.239752 
L 211.95198 87.552995 
L 204.164408 89.373109 
L 196.527562 91.682567 
L 189.11499 94.459128 
L 181.998078 97.67605 
L 175.245366 101.302355 
L 168.921888 105.303118 
L 163.08854 109.63981 
L 157.801502 114.270666 
L 153.111691 119.151088 
L 149.064271 124.234076 
L 145.698223 129.470678 
L 143.045962 134.810461 
L 141.133032 140.202001 
L 139.977854 145.593376 
L 139.591555 150.932661 
L 139.977854 156.168438 
L 141.133032 161.250284 
L 143.045962 166.129256 
L 145.698223 170.758368 
L 149.064271 175.09304 
L 153.111691 179.091525 
L 157.801502 182.715316 
L 163.08854 185.929515 
L 168.921888 188.703166 
L 175.245366 191.009558 
L 181.998078 192.826479 
L 189.11499 194.136431 
L 196.527562 194.926798 
L 204.164408 195.18997 
L 211.95198 194.923411 
L 219.81528 194.129688 
" clip-path="url(#p15b0eea0d7)" style="fill: none; stroke: #cccccc"/>
    <path d="M 219.81528 86.239752 
L 212.514119 88.299779 
L 205.283273 90.859486 
L 198.192378 93.894222 
L 191.309723 97.374761 
L 184.701592 101.267583 
L 178.431626 105.535199 
L 172.560206 110.136508 
L 167.143879 115.027198 
L 162.234806 120.160169 
L 157.880264 125.485987 
L 154.122191 130.953361 
L 150.996778 136.509639 
L 148.534125 142.10131 
L 146.757948 147.674524 
L 145.685353 153.175606 
L 145.32667 158.551579 
L 145.685353 163.750669 
L 146.757948 168.722806 
L 148.534125 173.420106 
L 150.996778 177.79733 
L 154.122191 181.812325 
L 157.880264 185.426423 
L 162.234806 188.604819 
L 167.143879 191.316903 
L 172.560206 193.536556 
L 178.431626 195.242402 
L 184.701592 196.418012 
L 191.309723 197.052064 
L 198.192378 197.138453 
L 205.283273 196.676347 
L 212.514119 195.670195 
L 219.81528 194.129688 
" clip-path="url(#p15b0eea0d7)" style="fill: none; stroke: #cccccc"/>
    <path d="M 219.81528 86.239752 
L 213.356838 88.97738 
L 206.960595 92.208163 
L 200.68815 95.900986 
L 194.599909 100.020286 
L 188.754506 104.526391 
L 183.208235 109.375905 
L 178.014511 114.522125 
L 173.22335 119.91549 
L 168.880895 125.504059 
L 165.028966 131.23401 
L 161.704659 137.050162 
L 158.93999 142.896501 
L 156.761582 148.716724 
L 155.190417 154.45478 
L 154.241624 160.055407 
L 153.924341 165.464668 
L 154.241624 170.63047 
L 155.190417 175.503062 
L 156.761582 180.03552 
L 158.93999 184.184192 
L 161.704659 187.909126 
L 165.028966 191.174447 
L 168.880895 193.948709 
L 173.22335 196.205195 
L 178.014511 197.922173 
L 183.208235 199.083108 
L 188.754506 199.676819 
L 194.599909 199.697589 
L 200.68815 199.145217 
L 206.960595 198.025024 
L 213.356838 196.347796 
L 219.81528 194.129688 
" clip-path="url(#p15b0eea0d7)" style="fill: none; stroke: #cccccc"/>
    <path d="M 219.81528 86.239752 
L 214.447752 89.559758 
L 209.131916 93.367311 
L 203.918967 97.62574 
L 198.859108 102.294036 
L 194.001068 107.327239 
L 189.391633 112.676879 
L 185.075195 118.291433 
L 181.093323 124.116832 
L 177.484364 130.096974 
L 174.283075 136.174266 
L 171.520286 142.290181 
L 169.222605 148.385819 
L 167.412158 154.402477 
L 166.106382 160.282209 
L 165.317853 165.968392 
L 165.054163 171.406263 
L 165.317853 176.543454 
L 166.106382 181.330491 
L 167.412158 185.721272 
L 169.222605 189.67351 
L 171.520286 193.149145 
L 174.283075 196.114703 
L 177.484364 198.541625 
L 181.093323 200.406538 
L 185.075195 201.691481 
L 189.391633 202.384082 
L 194.001068 202.477668 
L 198.859108 201.971339 
L 203.918967 200.869971 
L 209.131916 199.184171 
L 214.447752 196.930175 
L 219.81528 194.129688 
" clip-path="url(#p15b0eea0d7)" style="fill: none; stroke: #cccccc"/>
    <path d="M 219.81528 86.239752 
L 215.744936 90.024533 
L 211.713792 94.292384 
L 207.76067 99.002203 
L 203.92364 104.108632 
L 200.239656 109.562494 
L 196.744195 115.311264 
L 193.470922 121.29958 
L 190.451359 127.469769 
L 187.714586 133.762411 
L 185.286961 140.116903 
L 183.191863 146.472048 
L 181.449468 152.766642 
L 180.076557 158.940066 
L 179.086351 164.932866 
L 178.488387 170.687327 
L 178.288424 176.148032 
L 178.488387 181.26239 
L 179.086351 185.981148 
L 180.076557 190.258861 
L 181.449468 194.054333 
L 183.191863 197.331011 
L 185.286961 200.057339 
L 187.714586 202.207061 
L 190.451359 203.759474 
L 193.470922 204.699628 
L 196.744195 205.018467 
L 200.239656 204.712922 
L 203.92364 203.785935 
L 207.76067 202.246434 
L 211.713792 200.109245 
L 215.744936 197.394949 
L 219.81528 194.129688 
" clip-path="url(#p15b0eea0d7)" style="fill: none; stroke: #cccccc"/>
    <path d="M 219.81528 86.239752 
L 217.198542 90.353843 
L 214.607004 94.947833 
L 212.065625 99.977478 
L 209.59888 105.394341 
L 207.230523 111.146254 
L 204.983366 117.177824 
L 202.879047 123.430963 
L 200.937834 129.845449 
L 199.17842 136.359509 
L 197.617751 142.910407 
L 196.270857 149.435055 
L 195.150708 155.870618 
L 194.268092 162.155117 
L 193.63151 168.228029 
L 193.247091 174.030868 
L 193.118539 179.507751 
L 193.247091 184.605931 
L 193.63151 189.276311 
L 194.268092 193.473912 
L 195.150708 197.158309 
L 196.270857 200.294019 
L 197.617751 202.850844 
L 199.17842 204.804159 
L 200.937834 206.135154 
L 202.879047 206.831011 
L 204.983366 206.885027 
L 207.230523 206.296683 
L 209.59888 205.071644 
L 212.065625 203.221709 
L 214.607004 200.764693 
L 217.198542 197.724259 
L 219.81528 194.129688 
" clip-path="url(#p15b0eea0d7)" style="fill: none; stroke: #cccccc"/>
    <path d="M 219.81528 86.239752 
L 218.752707 90.535033 
L 217.700367 95.308468 
L 216.668395 100.514086 
L 215.666729 106.101753 
L 214.705016 112.017658 
L 213.792518 118.204827 
L 212.938022 124.603675 
L 212.149758 131.152576 
L 211.435317 137.788462 
L 210.80158 144.447426 
L 210.25465 151.065337 
L 209.799793 157.578462 
L 209.441391 163.924075 
L 209.182896 170.041066 
L 209.026796 175.870524 
L 208.974595 181.356308 
L 209.026796 186.445587 
L 209.182896 191.089348 
L 209.441391 195.242871 
L 209.799793 198.866153 
L 210.25465 201.924301 
L 210.80158 204.387862 
L 211.435317 206.233113 
L 212.149758 207.442281 
L 212.938022 208.003723 
L 213.792518 207.91203 
L 214.705016 207.168086 
L 215.666729 205.779056 
L 216.668395 203.758317 
L 217.700367 201.125329 
L 218.752707 197.905449 
L 219.81528 194.129688 
" clip-path="url(#p15b0eea0d7)" style="fill: none; stroke: #cccccc"/>
    <path d="M 219.81528 86.239752 
L 220.347706 90.561141 
L 220.875005 95.360432 
L 221.392098 100.591405 
L 221.894006 106.203683 
L 222.375894 112.143217 
L 222.833122 118.352807 
L 223.261287 124.772649 
L 223.656265 131.340918 
L 224.014251 137.994358 
L 224.3318 144.668893 
L 224.605852 151.300242 
L 224.833768 157.824542 
L 225.013354 164.178962 
L 225.142879 170.302304 
L 225.221096 176.135597 
L 225.247252 181.622664 
L 225.221096 186.71066 
L 225.142879 191.350586 
L 225.013354 195.497757 
L 224.833768 199.112233 
L 224.605852 202.159205 
L 224.3318 204.609329 
L 224.014251 206.439009 
L 223.656265 207.630623 
L 223.261287 208.172697 
L 222.833122 208.060009 
L 222.375894 207.293646 
L 221.894006 205.880986 
L 221.392098 203.835636 
L 220.875005 201.177292 
L 220.347706 197.931557 
L 219.81528 194.129688 
" clip-path="url(#p15b0eea0d7)" style="fill: none; stroke: #cccccc"/>
    <path d="M 219.81528 86.239752 
L 221.922245 90.431162 
L 224.008918 95.101726 
L 226.055205 100.206464 
L 228.041398 105.696214 
L 229.948369 111.518107 
L 231.757752 117.616075 
L 233.452123 123.931392 
L 235.015164 130.403237 
L 236.431822 136.969284 
L 237.688453 143.566296 
L 238.772955 150.130743 
L 239.674885 156.599403 
L 240.385557 162.909982 
L 240.898125 169.001703 
L 241.207654 174.815901 
L 241.311162 180.296582 
L 241.207654 185.390964 
L 240.898125 190.049985 
L 240.385557 194.228777 
L 239.674885 197.887094 
L 238.772955 200.989706 
L 237.688453 203.506733 
L 236.431822 205.413934 
L 235.015164 206.692943 
L 233.452123 207.33144 
L 231.757752 207.323278 
L 229.948369 206.668535 
L 228.041398 205.373517 
L 226.055205 203.450695 
L 224.008918 200.918587 
L 221.922245 197.801578 
L 219.81528 194.129688 
" clip-path="url(#p15b0eea0d7)" style="fill: none; stroke: #cccccc"/>
    <path d="M 219.81528 86.239752 
L 223.415814 90.150092 
L 226.981673 94.542293 
L 230.478515 99.374056 
L 233.872665 104.598847 
L 237.131434 110.16635 
L 240.22344 116.022946 
L 243.118903 122.112233 
L 245.78994 128.375568 
L 248.210827 134.752632 
L 250.358249 141.182009 
L 252.211526 147.601783 
L 253.752809 153.950126 
L 254.967255 160.1659 
L 255.843169 166.189245 
L 256.372114 171.962152 
L 256.548997 177.429025 
L 256.372114 182.537215 
L 255.843169 187.237527 
L 254.967255 191.484695 
L 253.752809 195.237817 
L 252.211526 198.460746 
L 250.358249 201.122446 
L 248.210827 203.197282 
L 245.78994 204.665273 
L 243.118903 205.512281 
L 240.22344 205.730149 
L 237.131434 205.316778 
L 233.872665 204.27615 
L 230.478515 202.618287 
L 226.981673 200.359154 
L 223.415814 197.520508 
L 219.81528 194.129688 
" clip-path="url(#p15b0eea0d7)" style="fill: none; stroke: #cccccc"/>
    <path d="M 219.81528 86.239752 
L 224.771016 89.728733 
L 229.679026 93.703632 
L 234.492043 98.12617 
L 239.163714 102.953754 
L 243.64905 108.139893 
L 247.904853 113.634641 
L 251.890138 119.385081 
L 255.566525 125.335833 
L 258.898608 131.429587 
L 261.854297 137.607659 
L 264.405127 143.810549 
L 266.526533 149.97852 
L 268.198084 156.052171 
L 269.403682 161.973011 
L 270.131716 167.684017 
L 270.375176 173.13019 
L 270.131716 178.25908 
L 269.403682 183.021293 
L 268.198084 187.370966 
L 266.526533 191.266211 
L 264.405127 194.669512 
L 261.854297 197.548095 
L 258.898608 199.874238 
L 255.566525 201.625538 
L 251.890138 202.785129 
L 247.904853 203.341844 
L 243.64905 203.290321 
L 239.163714 202.631057 
L 234.492043 201.370401 
L 229.679026 199.520493 
L 224.771016 197.099149 
L 219.81528 194.129688 
" clip-path="url(#p15b0eea0d7)" style="fill: none; stroke: #cccccc"/>
    <path d="M 219.81528 86.239752 
L 225.935773 89.183276 
L 231.997322 92.617972 
L 237.941551 96.510761 
L 243.711214 100.824155 
L 249.250747 105.516612 
L 254.5068 110.542942 
L 259.428754 115.854739 
L 263.96921 121.400846 
L 268.084438 127.127853 
L 271.734809 132.980604 
L 274.885165 138.902735 
L 277.505169 144.837212 
L 279.569588 150.726883 
L 281.05854 156.515028 
L 281.957686 162.145902 
L 282.258366 167.565279 
L 281.957686 172.720965 
L 281.05854 177.56331 
L 279.569588 182.045679 
L 277.505169 186.124903 
L 274.885165 189.761699 
L 271.734809 192.921041 
L 268.084438 195.572503 
L 263.96921 197.690551 
L 259.428754 199.254787 
L 254.5068 200.250145 
L 249.250747 200.66704 
L 243.711214 200.501458 
L 237.941551 199.754992 
L 231.997322 198.434832 
L 225.935773 196.553692 
L 219.81528 194.129688 
" clip-path="url(#p15b0eea0d7)" style="fill: none; stroke: #cccccc"/>
    <path d="M 219.81528 86.239752 
L 226.865322 88.534684 
L 233.847468 91.327034 
L 240.694477 94.589909 
L 247.340407 98.291888 
L 253.721256 102.397318 
L 259.775571 106.866661 
L 265.445047 111.656875 
L 270.675083 116.721828 
L 275.415312 122.012742 
L 279.620082 127.478661 
L 283.248899 133.066947 
L 286.266815 138.723781 
L 288.644767 144.394684 
L 290.359854 150.025043 
L 291.395557 155.560635 
L 291.741904 160.948148 
L 291.395557 166.135698 
L 290.359854 171.073326 
L 288.644767 175.713479 
L 286.266815 180.011472 
L 283.248899 183.92591 
L 279.620082 187.419098 
L 275.415312 190.457392 
L 270.675083 193.011533 
L 265.445047 195.056923 
L 259.775571 196.573864 
L 253.721256 197.547746 
L 247.340407 197.969192 
L 240.694477 197.834141 
L 233.847468 197.143894 
L 226.865322 195.9051 
L 219.81528 194.129688 
" clip-path="url(#p15b0eea0d7)" style="fill: none; stroke: #cccccc"/>
    <path d="M 219.81528 86.239752 
L 219.81528 86.239752 
L 219.81528 86.239752 
L 219.81528 86.239752 
L 219.81528 86.239752 
L 219.81528 86.239752 
L 219.81528 86.239752 
L 219.81528 86.239752 
L 219.81528 86.239752 
L 219.81528 86.239752 
L 219.81528 86.239752 
L 219.81528 86.239752 
L 219.81528 86.239752 
L 219.81528 86.239752 
L 219.81528 86.239752 
L 219.81528 86.239752 
L 219.81528 86.239752 
L 219.81528 86.239752 
L 219.81528 86.239752 
L 219.81528 86.239752 
L 219.81528 86.239752 
L 219.81528 86.239752 
L 219.81528 86.239752 
L 219.81528 86.239752 
L 219.81528 86.239752 
L 219.81528 86.239752 
L 219.81528 86.239752 
L 219.81528 86.239752 
L 219.81528 86.239752 
L 219.81528 86.239752 
L 219.81528 86.239752 
L 219.81528 86.239752 
L 219.81528 86.239752 
" clip-path="url(#p15b0eea0d7)" style="fill: none; stroke: #cccccc"/>
    <path d="M 226.865322 88.534684 
L 227.523942 87.807881 
L 227.886322 87.030799 
L 227.938537 86.233299 
L 227.67858 85.44603 
L 227.11644 84.699245 
L 226.273721 84.021644 
L 225.182808 83.439266 
L 223.885623 82.974491 
L 222.432018 82.645181 
L 220.877853 82.463991 
L 219.282853 82.437883 
L 217.708315 82.567862 
L 216.214746 82.848932 
L 214.859543 83.270291 
L 213.694787 83.815748 
L 212.765238 84.46434 
L 212.106618 85.191143 
L 211.744237 85.968226 
L 211.692022 86.765725 
L 211.95198 87.552995 
L 212.514119 88.299779 
L 213.356838 88.97738 
L 214.447752 89.559758 
L 215.744936 90.024533 
L 217.198542 90.353843 
L 218.752707 90.535033 
L 220.347706 90.561141 
L 221.922245 90.431162 
L 223.415814 90.150092 
L 224.771016 89.728733 
L 225.935773 89.183276 
L 226.865322 88.534684 
" clip-path="url(#p15b0eea0d7)" style="fill: none; stroke: #cccccc"/>
    <path d="M 233.847468 91.327034 
L 235.158365 89.880428 
L 235.879636 88.333746 
L 235.983563 86.746427 
L 235.466152 85.17947 
L 234.347287 83.693093 
L 232.669964 82.344417 
L 230.498644 81.185269 
L 227.916767 80.260196 
L 225.023556 79.604747 
L 221.930193 79.244112 
L 218.755555 79.192148 
L 215.621641 79.450854 
L 212.648887 80.010286 
L 209.951533 80.848948 
L 207.633238 81.934608 
L 205.783092 83.225546 
L 204.472194 84.672152 
L 203.750923 86.218833 
L 203.646996 87.806152 
L 204.164408 89.373109 
L 205.283273 90.859486 
L 206.960595 92.208163 
L 209.131916 93.367311 
L 211.713792 94.292384 
L 214.607004 94.947833 
L 217.700367 95.308468 
L 220.875005 95.360432 
L 224.008918 95.101726 
L 226.981673 94.542293 
L 229.679026 93.703632 
L 231.997322 92.617972 
L 233.847468 91.327034 
" clip-path="url(#p15b0eea0d7)" style="fill: none; stroke: #cccccc"/>
    <path d="M 240.694477 94.589909 
L 242.645026 92.437432 
L 243.718242 90.136047 
L 243.87288 87.774195 
L 243.102998 85.442642 
L 241.438182 83.230987 
L 238.94241 81.224223 
L 235.711593 79.499469 
L 231.86989 78.123006 
L 227.564935 77.147731 
L 222.962164 76.611124 
L 218.238461 76.533805 
L 213.575355 76.918746 
L 209.152045 77.751154 
L 205.138517 78.99904 
L 201.689009 80.614448 
L 198.936083 82.5353 
L 196.985533 84.687777 
L 195.912318 86.989162 
L 195.75768 89.351014 
L 196.527562 91.682567 
L 198.192378 93.894222 
L 200.68815 95.900986 
L 203.918967 97.62574 
L 207.76067 99.002203 
L 212.065625 99.977478 
L 216.668395 100.514086 
L 221.392098 100.591405 
L 226.055205 100.206464 
L 230.478515 99.374056 
L 234.492043 98.12617 
L 237.941551 96.510761 
L 240.694477 94.589909 
" clip-path="url(#p15b0eea0d7)" style="fill: none; stroke: #cccccc"/>
    <path d="M 247.340407 98.291888 
L 249.911825 95.454269 
L 251.326649 92.420344 
L 251.530509 89.306706 
L 250.51557 86.23301 
L 248.320837 83.317376 
L 245.030651 80.671851 
L 240.771452 78.398101 
L 235.706919 76.583505 
L 230.03168 75.297796 
L 223.96383 74.590384 
L 217.736554 74.488454 
L 211.589162 74.995923 
L 205.757895 76.09329 
L 200.466845 77.738383 
L 195.919345 79.867982 
L 192.290153 82.400249 
L 189.718735 85.237868 
L 188.303911 88.271793 
L 188.100051 91.385431 
L 189.11499 94.459128 
L 191.309723 97.374761 
L 194.599909 100.020286 
L 198.859108 102.294036 
L 203.92364 104.108632 
L 209.59888 105.394341 
L 215.666729 106.101753 
L 221.894006 106.203683 
L 228.041398 105.696214 
L 233.872665 104.598847 
L 239.163714 102.953754 
L 243.711214 100.824155 
L 247.340407 98.291888 
" clip-path="url(#p15b0eea0d7)" style="fill: none; stroke: #cccccc"/>
    <path d="M 253.721256 102.397318 
L 256.888777 98.901884 
L 258.631584 95.164638 
L 258.882702 91.329199 
L 257.632482 87.542962 
L 254.928967 83.951429 
L 250.876054 80.692621 
L 245.629492 77.891772 
L 239.390904 75.656518 
L 232.400036 74.072758 
L 224.925543 73.201354 
L 217.254666 73.075795 
L 209.682191 73.700905 
L 202.499125 75.052662 
L 195.98151 77.079119 
L 190.379813 79.7024 
L 185.909304 82.821694 
L 182.741783 86.317128 
L 180.998976 90.054374 
L 180.747857 93.889813 
L 181.998078 97.67605 
L 184.701592 101.267583 
L 188.754506 104.526391 
L 194.001068 107.327239 
L 200.239656 109.562494 
L 207.230523 111.146254 
L 214.705016 112.017658 
L 222.375894 112.143217 
L 229.948369 111.518107 
L 237.131434 110.16635 
L 243.64905 108.139893 
L 249.250747 105.516612 
L 253.721256 102.397318 
" clip-path="url(#p15b0eea0d7)" style="fill: none; stroke: #cccccc"/>
    <path d="M 259.775571 106.866661 
L 263.508691 102.747076 
L 265.562697 98.3425 
L 265.858656 93.822198 
L 264.385193 89.359883 
L 261.198934 85.127039 
L 256.422324 81.286332 
L 250.238926 77.985359 
L 242.886365 75.350973 
L 234.647194 73.484413 
L 225.838042 72.45741 
L 216.797438 72.309431 
L 207.872808 73.046162 
L 199.40712 74.639292 
L 191.725707 77.027596 
L 185.12376 80.119295 
L 179.854989 83.795576 
L 176.121869 87.915162 
L 174.067863 92.319738 
L 173.771904 96.84004 
L 175.245366 101.302355 
L 178.431626 105.535199 
L 183.208235 109.375905 
L 189.391633 112.676879 
L 196.744195 115.311264 
L 204.983366 117.177824 
L 213.792518 118.204827 
L 222.833122 118.352807 
L 231.757752 117.616075 
L 240.22344 116.022946 
L 247.904853 113.634641 
L 254.5068 110.542942 
L 259.775571 106.866661 
" clip-path="url(#p15b0eea0d7)" style="fill: none; stroke: #cccccc"/>
    <path d="M 265.445047 111.656875 
L 269.707813 106.952813 
L 272.053237 101.923325 
L 272.391186 96.761693 
L 270.708672 91.666274 
L 267.070354 86.832884 
L 261.616049 82.447267 
L 254.555365 78.677959 
L 246.159638 75.669813 
L 236.751513 73.53843 
L 226.692537 72.365717 
L 216.369273 72.196743 
L 206.178437 73.038 
L 196.511656 74.857159 
L 187.740421 77.584311 
L 180.201805 81.114654 
L 174.185513 85.312517 
L 169.922747 90.01658 
L 167.577323 95.046067 
L 167.239374 100.2077 
L 168.921888 105.303118 
L 172.560206 110.136508 
L 178.014511 114.522125 
L 185.075195 118.291433 
L 193.470922 121.29958 
L 202.879047 123.430963 
L 212.938022 124.603675 
L 223.261287 124.772649 
L 233.452123 123.931392 
L 243.118903 122.112233 
L 251.890138 119.385081 
L 259.428754 115.854739 
L 265.445047 111.656875 
" clip-path="url(#p15b0eea0d7)" style="fill: none; stroke: #cccccc"/>
    <path d="M 270.675083 116.721828 
L 275.426443 111.478591 
L 278.040697 105.872628 
L 278.417381 100.119375 
L 276.542019 94.439926 
L 272.486681 89.052537 
L 266.40721 84.164245 
L 258.537237 79.962903 
L 249.179201 76.609966 
L 238.692726 74.234286 
L 227.480801 72.927159 
L 215.974295 72.738817 
L 204.615396 73.676498 
L 193.840619 75.704167 
L 184.064035 78.743903 
L 175.66135 82.678889 
L 168.955476 87.357907 
L 164.204116 92.601144 
L 161.589862 98.207107 
L 161.213178 103.96036 
L 163.08854 109.63981 
L 167.143879 115.027198 
L 173.22335 119.91549 
L 181.093323 124.116832 
L 190.451359 127.469769 
L 200.937834 129.845449 
L 212.149758 131.152576 
L 223.656265 131.340918 
L 235.015164 130.403237 
L 245.78994 128.375568 
L 255.566525 125.335833 
L 263.96921 121.400846 
L 270.675083 116.721828 
" clip-path="url(#p15b0eea0d7)" style="fill: none; stroke: #cccccc"/>
    <path d="M 275.415312 122.012742 
L 280.609507 116.280825 
L 283.467415 110.152376 
L 283.879207 103.862909 
L 281.829058 97.654124 
L 277.395754 91.764621 
L 270.749665 86.420731 
L 262.146196 81.827816 
L 251.915973 78.162379 
L 240.452139 75.565281 
L 228.195242 74.136327 
L 215.616308 73.930431 
L 203.198738 74.955506 
L 191.419733 77.172158 
L 180.731952 80.495202 
L 171.546121 84.796937 
L 164.215248 89.912048 
L 159.021052 95.643965 
L 156.163145 101.772414 
L 155.751353 108.061881 
L 157.801502 114.270666 
L 162.234806 120.160169 
L 168.880895 125.504059 
L 177.484364 130.096974 
L 187.714586 133.762411 
L 199.17842 136.359509 
L 211.435317 137.788462 
L 224.014251 137.994358 
L 236.431822 136.969284 
L 248.210827 134.752632 
L 258.898608 131.429587 
L 268.084438 127.127853 
L 275.415312 122.012742 
" clip-path="url(#p15b0eea0d7)" style="fill: none; stroke: #cccccc"/>
    <path d="M 279.620082 127.478661 
L 285.20709 121.313266 
L 288.281128 114.721352 
L 288.724061 107.956242 
L 286.518869 101.277915 
L 281.750295 94.943017 
L 274.601593 89.194993 
L 265.347484 84.254737 
L 254.343598 80.312101 
L 242.012808 77.518597 
L 228.82898 75.981578 
L 215.29876 75.760111 
L 201.942107 76.862707 
L 189.27231 79.246994 
L 177.776263 82.821345 
L 167.895751 87.4484 
L 160.010478 92.950343 
L 154.42347 99.115738 
L 151.349432 105.707652 
L 150.906498 112.472762 
L 153.111691 119.151088 
L 157.880264 125.485987 
L 165.028966 131.23401 
L 174.283075 136.174266 
L 185.286961 140.116903 
L 197.617751 142.910407 
L 210.80158 144.447426 
L 224.3318 144.668893 
L 237.688453 143.566296 
L 250.358249 141.182009 
L 261.854297 137.607659 
L 271.734809 132.980604 
L 279.620082 127.478661 
" clip-path="url(#p15b0eea0d7)" style="fill: none; stroke: #cccccc"/>
    <path d="M 283.248899 133.066947 
L 289.174914 126.52745 
L 292.435477 119.535554 
L 292.905287 112.359952 
L 290.566288 105.276401 
L 285.508369 98.557115 
L 277.9259 92.460315 
L 268.110273 87.220296 
L 256.438697 83.038429 
L 243.359703 80.075421 
L 229.37591 78.44514 
L 215.024708 78.210235 
L 200.857604 79.379734 
L 187.419034 81.908694 
L 175.225433 85.699928 
L 164.745394 90.607742 
L 156.381661 96.44353 
L 150.455646 102.983027 
L 147.195083 109.974923 
L 146.725273 117.150524 
L 149.064271 124.234076 
L 154.122191 130.953361 
L 161.704659 137.050162 
L 171.520286 142.290181 
L 183.191863 146.472048 
L 196.270857 149.435055 
L 210.25465 151.065337 
L 224.605852 151.300242 
L 238.772955 150.130743 
L 252.211526 147.601783 
L 264.405127 143.810549 
L 274.885165 138.902735 
L 283.248899 133.066947 
" clip-path="url(#p15b0eea0d7)" style="fill: none; stroke: #cccccc"/>
    <path d="M 286.266815 138.723781 
L 292.474766 131.873161 
L 295.890454 124.548618 
L 296.382615 117.031631 
L 293.932337 109.611072 
L 288.633782 102.57211 
L 280.69057 96.185248 
L 270.407955 90.69593 
L 258.181092 86.315107 
L 244.479852 83.211131 
L 229.830767 81.503288 
L 214.796792 81.257207 
L 199.955674 82.482346 
L 185.87775 85.131624 
L 173.104027 89.10323 
L 162.125391 94.244537 
L 153.363744 100.357969 
L 147.155793 107.208589 
L 143.740106 114.533131 
L 143.247944 122.050119 
L 145.698223 129.470678 
L 150.996778 136.509639 
L 158.93999 142.896501 
L 169.222605 148.385819 
L 181.449468 152.766642 
L 195.150708 155.870618 
L 209.799793 157.578462 
L 224.833768 157.824542 
L 239.674885 156.599403 
L 253.752809 153.950126 
L 266.526533 149.97852 
L 277.505169 144.837212 
L 286.266815 138.723781 
" clip-path="url(#p15b0eea0d7)" style="fill: none; stroke: #cccccc"/>
    <path d="M 288.644767 144.394684 
L 295.074868 137.298916 
L 298.612786 129.712267 
L 299.122559 121.926286 
L 296.584598 114.240184 
L 291.096435 106.949335 
L 282.868977 100.333921 
L 272.218401 94.648169 
L 259.554003 90.110579 
L 245.362468 86.895528 
L 230.189168 85.12657 
L 214.617206 84.871683 
L 199.245003 86.140664 
L 184.663304 88.884745 
L 171.432476 92.998474 
L 160.060972 98.323762 
L 150.985792 104.655961 
L 144.555691 111.751729 
L 141.017774 119.338378 
L 140.508001 127.124359 
L 143.045962 134.810461 
L 148.534125 142.10131 
L 156.761582 148.716724 
L 167.412158 154.402477 
L 180.076557 158.940066 
L 194.268092 162.155117 
L 209.441391 163.924075 
L 225.013354 164.178962 
L 240.385557 162.909982 
L 254.967255 160.1659 
L 268.198084 156.052171 
L 279.569588 150.726883 
L 288.644767 144.394684 
" clip-path="url(#p15b0eea0d7)" style="fill: none; stroke: #cccccc"/>
    <path d="M 290.359854 150.025043 
L 296.950179 142.752464 
L 300.576254 134.976771 
L 301.09873 126.99678 
L 298.497528 119.119157 
L 292.872612 111.646634 
L 284.440143 104.866378 
L 273.524177 99.038949 
L 260.544209 94.388292 
L 245.99905 91.093129 
L 230.447664 89.280092 
L 214.487681 89.018854 
L 198.732435 90.319455 
L 183.787391 93.131913 
L 170.226878 97.348147 
L 158.57202 102.80613 
L 149.270706 109.296115 
L 142.68038 116.568694 
L 139.054306 124.344387 
L 138.53183 132.324378 
L 141.133032 140.202001 
L 146.757948 147.674524 
L 155.190417 154.45478 
L 166.106382 160.282209 
L 179.086351 164.932866 
L 193.63151 168.228029 
L 209.182896 170.041066 
L 225.142879 170.302304 
L 240.898125 169.001703 
L 255.843169 166.189245 
L 269.403682 161.973011 
L 281.05854 156.515028 
L 290.359854 150.025043 
" clip-path="url(#p15b0eea0d7)" style="fill: none; stroke: #cccccc"/>
    <path d="M 291.395557 155.560635 
L 298.082639 148.181283 
L 301.76195 140.291431 
L 302.292097 132.194281 
L 299.652705 124.201002 
L 293.945206 116.618772 
L 285.388936 109.738971 
L 274.312707 103.825986 
L 261.142172 99.10705 
L 246.383468 95.763509 
L 230.603764 93.923854 
L 214.409464 93.65878 
L 198.422906 94.978476 
L 183.258446 97.832225 
L 169.498844 102.110361 
L 157.672874 107.648475 
L 148.235002 114.233742 
L 141.547921 121.613094 
L 137.86861 129.502947 
L 137.338463 137.600097 
L 139.977854 145.593376 
L 145.685353 153.175606 
L 154.241624 160.055407 
L 165.317853 165.968392 
L 178.488387 170.687327 
L 193.247091 174.030868 
L 209.026796 175.870524 
L 225.221096 176.135597 
L 241.207654 174.815901 
L 256.372114 171.962152 
L 270.131716 167.684017 
L 281.957686 162.145902 
L 291.395557 155.560635 
" clip-path="url(#p15b0eea0d7)" style="fill: none; stroke: #cccccc"/>
    <path d="M 291.741904 160.948148 
L 298.461341 153.53309 
L 302.158455 145.605062 
L 302.691167 137.468734 
L 300.039004 129.436779 
L 294.303889 121.817862 
L 285.706219 114.904772 
L 274.576397 108.963177 
L 261.342135 104.221408 
L 246.51202 100.861689 
L 230.655965 99.013133 
L 214.383307 98.746777 
L 198.319398 100.072858 
L 183.081563 102.940415 
L 169.255384 107.239251 
L 157.372194 112.804162 
L 147.888656 119.421292 
L 141.169218 126.83635 
L 137.472105 134.764378 
L 136.939393 142.900706 
L 139.591555 150.932661 
L 145.32667 158.551579 
L 153.924341 165.464668 
L 165.054163 171.406263 
L 178.288424 176.148032 
L 193.118539 179.507751 
L 208.974595 181.356308 
L 225.247252 181.622664 
L 241.311162 180.296582 
L 256.548997 177.429025 
L 270.375176 173.13019 
L 282.258366 167.565279 
L 291.741904 160.948148 
" clip-path="url(#p15b0eea0d7)" style="fill: none; stroke: #cccccc"/>
    <path d="M 291.395557 166.135698 
L 298.082639 158.756346 
L 301.76195 150.866494 
L 302.292097 142.769344 
L 299.652705 134.776065 
L 293.945206 127.193835 
L 285.388936 120.314034 
L 274.312707 114.401049 
L 261.142172 109.682113 
L 246.383468 106.338572 
L 230.603764 104.498917 
L 214.409464 104.233843 
L 198.422906 105.553539 
L 183.258446 108.407288 
L 169.498844 112.685423 
L 157.672874 118.223538 
L 148.235002 124.808805 
L 141.547921 132.188157 
L 137.86861 140.07801 
L 137.338463 148.17516 
L 139.977854 156.168438 
L 145.685353 163.750669 
L 154.241624 170.63047 
L 165.317853 176.543454 
L 178.488387 181.26239 
L 193.247091 184.605931 
L 209.026796 186.445587 
L 225.221096 186.71066 
L 241.207654 185.390964 
L 256.372114 182.537215 
L 270.131716 178.25908 
L 281.957686 172.720965 
L 291.395557 166.135698 
" clip-path="url(#p15b0eea0d7)" style="fill: none; stroke: #cccccc"/>
    <path d="M 290.359854 171.073326 
L 296.950179 163.800746 
L 300.576254 156.025053 
L 301.09873 148.045062 
L 298.497528 140.167439 
L 292.872612 132.694917 
L 284.440143 125.91466 
L 273.524177 120.087231 
L 260.544209 115.436574 
L 245.99905 112.141412 
L 230.447664 110.328374 
L 214.487681 110.067136 
L 198.732435 111.367737 
L 183.787391 114.180195 
L 170.226878 118.39643 
L 158.57202 123.854413 
L 149.270706 130.344397 
L 142.68038 137.616976 
L 139.054306 145.392669 
L 138.53183 153.372661 
L 141.133032 161.250284 
L 146.757948 168.722806 
L 155.190417 175.503062 
L 166.106382 181.330491 
L 179.086351 185.981148 
L 193.63151 189.276311 
L 209.182896 191.089348 
L 225.142879 191.350586 
L 240.898125 190.049985 
L 255.843169 187.237527 
L 269.403682 183.021293 
L 281.05854 177.56331 
L 290.359854 171.073326 
" clip-path="url(#p15b0eea0d7)" style="fill: none; stroke: #cccccc"/>
    <path d="M 288.644767 175.713479 
L 295.074868 168.617712 
L 298.612786 161.031062 
L 299.122559 153.245081 
L 296.584598 145.558979 
L 291.096435 138.26813 
L 282.868977 131.652716 
L 272.218401 125.966964 
L 259.554003 121.429374 
L 245.362468 118.214323 
L 230.189168 116.445365 
L 214.617206 116.190478 
L 199.245003 117.459459 
L 184.663304 120.20354 
L 171.432476 124.317269 
L 160.060972 129.642557 
L 150.985792 135.974756 
L 144.555691 143.070524 
L 141.017774 150.657174 
L 140.508001 158.443155 
L 143.045962 166.129256 
L 148.534125 173.420106 
L 156.761582 180.03552 
L 167.412158 185.721272 
L 180.076557 190.258861 
L 194.268092 193.473912 
L 209.441391 195.242871 
L 225.013354 195.497757 
L 240.385557 194.228777 
L 254.967255 191.484695 
L 268.198084 187.370966 
L 279.569588 182.045679 
L 288.644767 175.713479 
" clip-path="url(#p15b0eea0d7)" style="fill: none; stroke: #cccccc"/>
    <path d="M 286.266815 180.011472 
L 292.474766 173.160852 
L 295.890454 165.836309 
L 296.382615 158.319321 
L 293.932337 150.898763 
L 288.633782 143.859801 
L 280.69057 137.472939 
L 270.407955 131.983621 
L 258.181092 127.602798 
L 244.479852 124.498822 
L 229.830767 122.790979 
L 214.796792 122.544898 
L 199.955674 123.770037 
L 185.87775 126.419315 
L 173.104027 130.390921 
L 162.125391 135.532228 
L 153.363744 141.64566 
L 147.155793 148.49628 
L 143.740106 155.820822 
L 143.247944 163.33781 
L 145.698223 170.758368 
L 150.996778 177.79733 
L 158.93999 184.184192 
L 169.222605 189.67351 
L 181.449468 194.054333 
L 195.150708 197.158309 
L 209.799793 198.866153 
L 224.833768 199.112233 
L 239.674885 197.887094 
L 253.752809 195.237817 
L 266.526533 191.266211 
L 277.505169 186.124903 
L 286.266815 180.011472 
" clip-path="url(#p15b0eea0d7)" style="fill: none; stroke: #cccccc"/>
    <path d="M 283.248899 183.92591 
L 289.174914 177.386414 
L 292.435477 170.394517 
L 292.905287 163.218916 
L 290.566288 156.135364 
L 285.508369 149.416079 
L 277.9259 143.319278 
L 268.110273 138.079259 
L 256.438697 133.897392 
L 243.359703 130.934385 
L 229.37591 129.304103 
L 215.024708 129.069199 
L 200.857604 130.238698 
L 187.419034 132.767658 
L 175.225433 136.558892 
L 164.745394 141.466705 
L 156.381661 147.302493 
L 150.455646 153.84199 
L 147.195083 160.833887 
L 146.725273 168.009488 
L 149.064271 175.09304 
L 154.122191 181.812325 
L 161.704659 187.909126 
L 171.520286 193.149145 
L 183.191863 197.331011 
L 196.270857 200.294019 
L 210.25465 201.924301 
L 224.605852 202.159205 
L 238.772955 200.989706 
L 252.211526 198.460746 
L 264.405127 194.669512 
L 274.885165 189.761699 
L 283.248899 183.92591 
" clip-path="url(#p15b0eea0d7)" style="fill: none; stroke: #cccccc"/>
    <path d="M 279.620082 187.419098 
L 285.20709 181.253703 
L 288.281128 174.661788 
L 288.724061 167.896678 
L 286.518869 161.218352 
L 281.750295 154.883454 
L 274.601593 149.13543 
L 265.347484 144.195174 
L 254.343598 140.252538 
L 242.012808 137.459033 
L 228.82898 135.922015 
L 215.29876 135.700548 
L 201.942107 136.803144 
L 189.27231 139.187431 
L 177.776263 142.761782 
L 167.895751 147.388836 
L 160.010478 152.890779 
L 154.42347 159.056174 
L 151.349432 165.648089 
L 150.906498 172.413199 
L 153.111691 179.091525 
L 157.880264 185.426423 
L 165.028966 191.174447 
L 174.283075 196.114703 
L 185.286961 200.057339 
L 197.617751 202.850844 
L 210.80158 204.387862 
L 224.3318 204.609329 
L 237.688453 203.506733 
L 250.358249 201.122446 
L 261.854297 197.548095 
L 271.734809 192.921041 
L 279.620082 187.419098 
" clip-path="url(#p15b0eea0d7)" style="fill: none; stroke: #cccccc"/>
    <path d="M 275.415312 190.457392 
L 280.609507 184.725475 
L 283.467415 178.597027 
L 283.879207 172.30756 
L 281.829058 166.098775 
L 277.395754 160.209272 
L 270.749665 154.865381 
L 262.146196 150.272466 
L 251.915973 146.607029 
L 240.452139 144.009932 
L 228.195242 142.580978 
L 215.616308 142.375082 
L 203.198738 143.400157 
L 191.419733 145.616808 
L 180.731952 148.939853 
L 171.546121 153.241588 
L 164.215248 158.356699 
L 159.021052 164.088616 
L 156.163145 170.217064 
L 155.751353 176.506531 
L 157.801502 182.715316 
L 162.234806 188.604819 
L 168.880895 193.948709 
L 177.484364 198.541625 
L 187.714586 202.207061 
L 199.17842 204.804159 
L 211.435317 206.233113 
L 224.014251 206.439009 
L 236.431822 205.413934 
L 248.210827 203.197282 
L 258.898608 199.874238 
L 268.084438 195.572503 
L 275.415312 190.457392 
" clip-path="url(#p15b0eea0d7)" style="fill: none; stroke: #cccccc"/>
    <path d="M 270.675083 193.011533 
L 275.426443 187.768296 
L 278.040697 182.162334 
L 278.417381 176.40908 
L 276.542019 170.729631 
L 272.486681 165.342242 
L 266.40721 160.45395 
L 258.537237 156.252608 
L 249.179201 152.899671 
L 238.692726 150.523991 
L 227.480801 149.216864 
L 215.974295 149.028522 
L 204.615396 149.966203 
L 193.840619 151.993872 
L 184.064035 155.033608 
L 175.66135 158.968594 
L 168.955476 163.647612 
L 164.204116 168.89085 
L 161.589862 174.496812 
L 161.213178 180.250065 
L 163.08854 185.929515 
L 167.143879 191.316903 
L 173.22335 196.205195 
L 181.093323 200.406538 
L 190.451359 203.759474 
L 200.937834 206.135154 
L 212.149758 207.442281 
L 223.656265 207.630623 
L 235.015164 206.692943 
L 245.78994 204.665273 
L 255.566525 201.625538 
L 263.96921 197.690551 
L 270.675083 193.011533 
" clip-path="url(#p15b0eea0d7)" style="fill: none; stroke: #cccccc"/>
    <path d="M 265.445047 195.056923 
L 269.707813 190.352861 
L 272.053237 185.323373 
L 272.391186 180.161741 
L 270.708672 175.066323 
L 267.070354 170.232932 
L 261.616049 165.847315 
L 254.555365 162.078007 
L 246.159638 159.069861 
L 236.751513 156.938478 
L 226.692537 155.765766 
L 216.369273 155.596791 
L 206.178437 156.438048 
L 196.511656 158.257207 
L 187.740421 160.98436 
L 180.201805 164.514702 
L 174.185513 168.712565 
L 169.922747 173.416628 
L 167.577323 178.446115 
L 167.239374 183.607748 
L 168.921888 188.703166 
L 172.560206 193.536556 
L 178.014511 197.922173 
L 185.075195 201.691481 
L 193.470922 204.699628 
L 202.879047 206.831011 
L 212.938022 208.003723 
L 223.261287 208.172697 
L 233.452123 207.33144 
L 243.118903 205.512281 
L 251.890138 202.785129 
L 259.428754 199.254787 
L 265.445047 195.056923 
" clip-path="url(#p15b0eea0d7)" style="fill: none; stroke: #cccccc"/>
    <path d="M 259.775571 196.573864 
L 263.508691 192.454279 
L 265.562697 188.049702 
L 265.858656 183.5294 
L 264.385193 179.067085 
L 261.198934 174.834242 
L 256.422324 170.993535 
L 250.238926 167.692562 
L 242.886365 165.058176 
L 234.647194 163.191616 
L 225.838042 162.164613 
L 216.797438 162.016634 
L 207.872808 162.753365 
L 199.40712 164.346495 
L 191.725707 166.734799 
L 185.12376 169.826498 
L 179.854989 173.502779 
L 176.121869 177.622364 
L 174.067863 182.026941 
L 173.771904 186.547243 
L 175.245366 191.009558 
L 178.431626 195.242402 
L 183.208235 199.083108 
L 189.391633 202.384082 
L 196.744195 205.018467 
L 204.983366 206.885027 
L 213.792518 207.91203 
L 222.833122 208.060009 
L 231.757752 207.323278 
L 240.22344 205.730149 
L 247.904853 203.341844 
L 254.5068 200.250145 
L 259.775571 196.573864 
" clip-path="url(#p15b0eea0d7)" style="fill: none; stroke: #cccccc"/>
    <path d="M 253.721256 197.547746 
L 256.888777 194.052313 
L 258.631584 190.315066 
L 258.882702 186.479627 
L 257.632482 182.69339 
L 254.928967 179.101857 
L 250.876054 175.843049 
L 245.629492 173.042201 
L 239.390904 170.806947 
L 232.400036 169.223186 
L 224.925543 168.351782 
L 217.254666 168.226223 
L 209.682191 168.851333 
L 202.499125 170.203091 
L 195.98151 172.229548 
L 190.379813 174.852828 
L 185.909304 177.972122 
L 182.741783 181.467556 
L 180.998976 185.204803 
L 180.747857 189.040241 
L 181.998078 192.826479 
L 184.701592 196.418012 
L 188.754506 199.676819 
L 194.001068 202.477668 
L 200.239656 204.712922 
L 207.230523 206.296683 
L 214.705016 207.168086 
L 222.375894 207.293646 
L 229.948369 206.668535 
L 237.131434 205.316778 
L 243.64905 203.290321 
L 249.250747 200.66704 
L 253.721256 197.547746 
" clip-path="url(#p15b0eea0d7)" style="fill: none; stroke: #cccccc"/>
    <path d="M 247.340407 197.969192 
L 249.911825 195.131572 
L 251.326649 192.097647 
L 251.530509 188.984009 
L 250.51557 185.910313 
L 248.320837 182.994679 
L 245.030651 180.349155 
L 240.771452 178.075405 
L 235.706919 176.260808 
L 230.03168 174.975099 
L 223.96383 174.267687 
L 217.736554 174.165757 
L 211.589162 174.673227 
L 205.757895 175.770593 
L 200.466845 177.415686 
L 195.919345 179.545286 
L 192.290153 182.077552 
L 189.718735 184.915172 
L 188.303911 187.949097 
L 188.100051 191.062735 
L 189.11499 194.136431 
L 191.309723 197.052064 
L 194.599909 199.697589 
L 198.859108 201.971339 
L 203.92364 203.785935 
L 209.59888 205.071644 
L 215.666729 205.779056 
L 221.894006 205.880986 
L 228.041398 205.373517 
L 233.872665 204.27615 
L 239.163714 202.631057 
L 243.711214 200.501458 
L 247.340407 197.969192 
" clip-path="url(#p15b0eea0d7)" style="fill: none; stroke: #cccccc"/>
    <path d="M 240.694477 197.834141 
L 242.645026 195.681663 
L 243.718242 193.380278 
L 243.87288 191.018427 
L 243.102998 188.686873 
L 241.438182 186.475218 
L 238.94241 184.468454 
L 235.711593 182.7437 
L 231.86989 181.367237 
L 227.564935 180.391962 
L 222.962164 179.855355 
L 218.238461 179.778036 
L 213.575355 180.162977 
L 209.152045 180.995385 
L 205.138517 182.243271 
L 201.689009 183.858679 
L 198.936083 185.779531 
L 196.985533 187.932008 
L 195.912318 190.233393 
L 195.75768 192.595245 
L 196.527562 194.926798 
L 198.192378 197.138453 
L 200.68815 199.145217 
L 203.918967 200.869971 
L 207.76067 202.246434 
L 212.065625 203.221709 
L 216.668395 203.758317 
L 221.392098 203.835636 
L 226.055205 203.450695 
L 230.478515 202.618287 
L 234.492043 201.370401 
L 237.941551 199.754992 
L 240.694477 197.834141 
" clip-path="url(#p15b0eea0d7)" style="fill: none; stroke: #cccccc"/>
    <path d="M 233.847468 197.143894 
L 235.158365 195.697288 
L 235.879636 194.150607 
L 235.983563 192.563288 
L 235.466152 190.996331 
L 234.347287 189.509954 
L 232.669964 188.161277 
L 230.498644 187.00213 
L 227.916767 186.077056 
L 225.023556 185.421608 
L 221.930193 185.060972 
L 218.755555 185.009009 
L 215.621641 185.267714 
L 212.648887 185.827147 
L 209.951533 186.665808 
L 207.633238 187.751469 
L 205.783092 189.042407 
L 204.472194 190.489013 
L 203.750923 192.035694 
L 203.646996 193.623013 
L 204.164408 195.18997 
L 205.283273 196.676347 
L 206.960595 198.025024 
L 209.131916 199.184171 
L 211.713792 200.109245 
L 214.607004 200.764693 
L 217.700367 201.125329 
L 220.875005 201.177292 
L 224.008918 200.918587 
L 226.981673 200.359154 
L 229.679026 199.520493 
L 231.997322 198.434832 
L 233.847468 197.143894 
" clip-path="url(#p15b0eea0d7)" style="fill: none; stroke: #cccccc"/>
    <path d="M 226.865322 195.9051 
L 227.523942 195.178297 
L 227.886322 194.401215 
L 227.938537 193.603715 
L 227.67858 192.816446 
L 227.11644 192.069661 
L 226.273721 191.39206 
L 225.182808 190.809682 
L 223.885623 190.344907 
L 222.432018 190.015597 
L 220.877853 189.834407 
L 219.282853 189.808299 
L 217.708315 189.938278 
L 216.214746 190.219348 
L 214.859543 190.640707 
L 213.694787 191.186164 
L 212.765238 191.834756 
L 212.106618 192.561559 
L 211.744237 193.338642 
L 211.692022 194.136141 
L 211.95198 194.923411 
L 212.514119 195.670195 
L 213.356838 196.347796 
L 214.447752 196.930175 
L 215.744936 197.394949 
L 217.198542 197.724259 
L 218.752707 197.905449 
L 220.347706 197.931557 
L 221.922245 197.801578 
L 223.415814 197.520508 
L 224.771016 197.099149 
L 225.935773 196.553692 
L 226.865322 195.9051 
" clip-path="url(#p15b0eea0d7)" style="fill: none; stroke: #cccccc"/>
    <path d="M 219.81528 194.129688 
L 219.81528 194.129688 
L 219.81528 194.129688 
L 219.81528 194.129688 
L 219.81528 194.129688 
L 219.81528 194.129688 
L 219.81528 194.129688 
L 219.81528 194.129688 
L 219.81528 194.129688 
L 219.81528 194.129688 
L 219.81528 194.129688 
L 219.81528 194.129688 
L 219.81528 194.129688 
L 219.81528 194.129688 
L 219.81528 194.129688 
L 219.81528 194.129688 
L 219.81528 194.129688 
L 219.81528 194.129688 
L 219.81528 194.129688 
L 219.81528 194.129688 
L 219.81528 194.129688 
L 219.81528 194.129688 
L 219.81528 194.129688 
L 219.81528 194.129688 
L 219.81528 194.129688 
L 219.81528 194.129688 
L 219.81528 194.129688 
L 219.81528 194.129688 
L 219.81528 194.129688 
L 219.81528 194.129688 
L 219.81528 194.129688 
L 219.81528 194.129688 
L 219.81528 194.129688 
" clip-path="url(#p15b0eea0d7)" style="fill: none; stroke: #cccccc"/>
   </g>
   <g id="legend_1">
    <g id="patch_6">
     <path d="M 314.540354 20.977146 
L 353.165354 20.977146 
L 353.165354 6.834646 
L 314.540354 6.834646 
z
" style="fill: #ffffff; stroke: #000000; stroke-linejoin: miter"/>
    </g>
    <g id="Path3DCollection_2">
     <defs>
      <path id="mfefa864c10" d="M 0 5 
C 1.326016 5 2.597899 4.473168 3.535534 3.535534 
C 4.473168 2.597899 5 1.326016 5 0 
C 5 -1.326016 4.473168 -2.597899 3.535534 -3.535534 
C 2.597899 -4.473168 1.326016 -5 0 -5 
C -1.326016 -5 -2.597899 -4.473168 -3.535534 -3.535534 
C -4.473168 -2.597899 -5 -1.326016 -5 0 
C -5 1.326016 -4.473168 2.597899 -3.535534 3.535534 
C -2.597899 4.473168 -1.326016 5 0 5 
z
" style="stroke: #000000"/>
     </defs>
     <g>
      <use xlink:href="#mfefa864c10" x="325.740354" y="14.013396" style="fill: #e36f47; stroke: #000000"/>
     </g>
    </g>
    <g id="text_6">
     <!-- y2 -->
     <g transform="translate(340.140354 16.113396) scale(0.08 -0.08)">
      <defs>
       <path id="DejaVuSans-79" d="M 2059 -325 
Q 1816 -950 1584 -1140 
Q 1353 -1331 966 -1331 
L 506 -1331 
L 506 -850 
L 844 -850 
Q 1081 -850 1212 -737 
Q 1344 -625 1503 -206 
L 1606 56 
L 191 3500 
L 800 3500 
L 1894 763 
L 2988 3500 
L 3597 3500 
L 2059 -325 
z
" transform="scale(0.015625)"/>
       <path id="DejaVuSans-32" d="M 1228 531 
L 3431 531 
L 3431 0 
L 469 0 
L 469 531 
Q 828 903 1448 1529 
Q 2069 2156 2228 2338 
Q 2531 2678 2651 2914 
Q 2772 3150 2772 3378 
Q 2772 3750 2511 3984 
Q 2250 4219 1831 4219 
Q 1534 4219 1204 4116 
Q 875 4013 500 3803 
L 500 4441 
Q 881 4594 1212 4672 
Q 1544 4750 1819 4750 
Q 2544 4750 2975 4387 
Q 3406 4025 3406 3419 
Q 3406 3131 3298 2873 
Q 3191 2616 2906 2266 
Q 2828 2175 2409 1742 
Q 1991 1309 1228 531 
z
" transform="scale(0.015625)"/>
      </defs>
      <use xlink:href="#DejaVuSans-79"/>
      <use xlink:href="#DejaVuSans-32" x="59.179688"/>
     </g>
    </g>
   </g>
  </g>
 </g>
 <defs>
  <clipPath id="p15b0eea0d7">
   <rect x="74.834646" y="2.834646" width="282.330709" height="282.330709"/>
  </clipPath>
 </defs>
</svg>
